G04*
G04 #@! TF.GenerationSoftware,Altium Limited,Altium Designer,20.1.14 (287)*
G04*
G04 Layer_Color=16711935*
%FSLAX25Y25*%
%MOIN*%
G70*
G04*
G04 #@! TF.SameCoordinates,F3919BB7-7B28-4886-AACB-0E40FDAB0E15*
G04*
G04*
G04 #@! TF.FilePolarity,Negative*
G04*
G01*
G75*
%ADD16C,0.13394*%
%ADD17R,0.13394X0.13394*%
%ADD18C,0.01181*%
%ADD19O,0.01575X0.01181*%
%ADD20C,0.06417*%
%ADD21C,0.05556*%
%ADD22C,0.07480*%
%ADD23R,0.06417X0.06417*%
%ADD24R,0.07480X0.07480*%
%ADD25R,0.05556X0.05556*%
%ADD26C,0.06800*%
%ADD27C,0.13855*%
%ADD28C,0.12205*%
%ADD29C,0.03162*%
%ADD47R,0.05069X0.12956*%
G04:AMPARAMS|DCode=49|XSize=23.62mil|YSize=7.87mil|CornerRadius=1.97mil|HoleSize=0mil|Usage=FLASHONLY|Rotation=270.000|XOffset=0mil|YOffset=0mil|HoleType=Round|Shape=RoundedRectangle|*
%AMROUNDEDRECTD49*
21,1,0.02362,0.00394,0,0,270.0*
21,1,0.01968,0.00787,0,0,270.0*
1,1,0.00394,-0.00197,-0.00984*
1,1,0.00394,-0.00197,0.00984*
1,1,0.00394,0.00197,0.00984*
1,1,0.00394,0.00197,-0.00984*
%
%ADD49ROUNDEDRECTD49*%
G04:AMPARAMS|DCode=50|XSize=41.34mil|YSize=15.75mil|CornerRadius=3.94mil|HoleSize=0mil|Usage=FLASHONLY|Rotation=180.000|XOffset=0mil|YOffset=0mil|HoleType=Round|Shape=RoundedRectangle|*
%AMROUNDEDRECTD50*
21,1,0.04134,0.00787,0,0,180.0*
21,1,0.03347,0.01575,0,0,180.0*
1,1,0.00787,-0.01673,0.00394*
1,1,0.00787,0.01673,0.00394*
1,1,0.00787,0.01673,-0.00394*
1,1,0.00787,-0.01673,-0.00394*
%
%ADD50ROUNDEDRECTD50*%
%ADD53R,0.02926X0.03162*%
%ADD54R,0.03937X0.03937*%
%ADD55R,0.07099X0.04737*%
%ADD56R,0.02060X0.03398*%
%ADD57R,0.06194X0.11863*%
%ADD58R,0.03937X0.03937*%
G36*
X123631Y33266D02*
X119103D01*
Y35234D01*
X123631D01*
Y33266D01*
D02*
G37*
G36*
Y29722D02*
X122450D01*
Y32478D01*
X123631D01*
Y29722D01*
D02*
G37*
G36*
X121662D02*
X120481D01*
Y32478D01*
X121662D01*
Y29722D01*
D02*
G37*
G36*
X124418D02*
X125599D01*
Y32478D01*
X124418D01*
Y29722D01*
D02*
G37*
G36*
X126387D02*
X127568D01*
Y32478D01*
X126387D01*
Y29722D01*
D02*
G37*
G36*
X124418Y33266D02*
X128946D01*
Y35234D01*
X124418D01*
Y33266D01*
D02*
G37*
G36*
X123631Y38777D02*
X122450D01*
Y41533D01*
X123631D01*
Y38777D01*
D02*
G37*
G36*
X121662D02*
X120481D01*
Y41533D01*
X121662D01*
Y38777D01*
D02*
G37*
G36*
X123631Y36022D02*
X119103D01*
Y37990D01*
X123631D01*
Y36022D01*
D02*
G37*
G36*
X127568Y38777D02*
X126387D01*
Y41533D01*
X127568D01*
Y38777D01*
D02*
G37*
G36*
X125599D02*
X124418D01*
Y41533D01*
X125599D01*
Y38777D01*
D02*
G37*
G36*
X128946Y36022D02*
X124418D01*
Y37990D01*
X128946D01*
Y36022D01*
D02*
G37*
G36*
X234420Y28802D02*
X235601D01*
Y31558D01*
X234420D01*
Y28802D01*
D02*
G37*
G36*
X236389D02*
X237570D01*
Y31558D01*
X236389D01*
Y28802D01*
D02*
G37*
G36*
X233042Y32346D02*
X237570D01*
Y34314D01*
X233042D01*
Y32346D01*
D02*
G37*
G36*
X238357Y28802D02*
X239539D01*
Y31558D01*
X238357D01*
Y28802D01*
D02*
G37*
G36*
X240326D02*
X241507D01*
Y31558D01*
X240326D01*
Y28802D01*
D02*
G37*
G36*
X238357Y32346D02*
X242885D01*
Y34314D01*
X238357D01*
Y32346D01*
D02*
G37*
G36*
X237570Y37857D02*
X236389D01*
Y40613D01*
X237570D01*
Y37857D01*
D02*
G37*
G36*
X235601D02*
X234420D01*
Y40613D01*
X235601D01*
Y37857D01*
D02*
G37*
G36*
X237570Y35102D02*
X233042D01*
Y37070D01*
X237570D01*
Y35102D01*
D02*
G37*
G36*
X241507Y37857D02*
X240326D01*
Y40613D01*
X241507D01*
Y37857D01*
D02*
G37*
G36*
X239539D02*
X238357D01*
Y40613D01*
X239539D01*
Y37857D01*
D02*
G37*
G36*
X242885Y35102D02*
X238357D01*
Y37070D01*
X242885D01*
Y35102D01*
D02*
G37*
D16*
X99052Y80832D02*
D03*
X126490Y108270D02*
D03*
X217882Y81062D02*
D03*
X245320Y108500D02*
D03*
D17*
X99052Y96905D02*
D03*
X217882Y97135D02*
D03*
D18*
X122450Y37006D02*
D03*
Y34250D02*
D03*
X125599D02*
D03*
X236389Y36086D02*
D03*
Y33330D02*
D03*
X239539D02*
D03*
Y36086D02*
D03*
D19*
X125599Y37006D02*
D03*
D20*
X299619Y30664D02*
D03*
X41149Y57679D02*
D03*
X29338Y27690D02*
D03*
X41149Y15879D02*
D03*
Y27690D02*
D03*
Y69490D02*
D03*
X29338D02*
D03*
X311430Y30664D02*
D03*
X299619Y42475D02*
D03*
D21*
X38224Y126307D02*
D03*
X19720Y122370D02*
D03*
X25626Y126307D02*
D03*
Y134181D02*
D03*
X32318Y132212D02*
D03*
X19720Y104654D02*
D03*
Y114496D02*
D03*
X32318Y104654D02*
D03*
Y122370D02*
D03*
Y114496D02*
D03*
X25626Y102685D02*
D03*
Y110559D02*
D03*
Y118433D02*
D03*
X38224Y134181D02*
D03*
Y102685D02*
D03*
Y110559D02*
D03*
Y118433D02*
D03*
D22*
X299998Y95501D02*
D03*
Y130934D02*
D03*
X311809Y107312D02*
D03*
X299998D02*
D03*
Y71879D02*
D03*
Y119123D02*
D03*
X311809D02*
D03*
Y95501D02*
D03*
Y83690D02*
D03*
X299998D02*
D03*
X311809Y71879D02*
D03*
D23*
X311430Y42475D02*
D03*
X29338Y57679D02*
D03*
Y15879D02*
D03*
D24*
X311809Y130934D02*
D03*
D25*
X19720Y132212D02*
D03*
D26*
X74803Y139764D02*
D03*
X270530D02*
D03*
X292880Y9260D02*
D03*
X51440Y9260D02*
D03*
D27*
X11846Y144299D02*
D03*
Y92567D02*
D03*
X34208D02*
D03*
Y144299D02*
D03*
D28*
X12330Y21784D02*
D03*
Y63585D02*
D03*
X328738Y80344D02*
D03*
Y122469D02*
D03*
X328438Y36569D02*
D03*
D29*
X329958Y50635D02*
D03*
X318360Y6564D02*
D03*
X63552Y142764D02*
D03*
X49746Y103577D02*
D03*
X61233Y121270D02*
D03*
X157900Y112620D02*
D03*
X197578Y113040D02*
D03*
X196755Y95346D02*
D03*
X228029Y113040D02*
D03*
X255085Y101826D02*
D03*
X286608Y99885D02*
D03*
X274117Y114686D02*
D03*
X328738Y103375D02*
D03*
X328847Y137319D02*
D03*
X288261Y139764D02*
D03*
X285023Y147856D02*
D03*
X258962Y137540D02*
D03*
X241225Y147676D02*
D03*
X222766Y138264D02*
D03*
X201411Y146951D02*
D03*
X158519Y137721D02*
D03*
X138068Y146227D02*
D03*
X116713Y138083D02*
D03*
X92462Y144779D02*
D03*
X192770Y26116D02*
D03*
X137140Y45970D02*
D03*
X289770Y28600D02*
D03*
X133900Y92090D02*
D03*
X126840Y96670D02*
D03*
X224060Y49130D02*
D03*
X246890Y41090D02*
D03*
X223740Y18120D02*
D03*
X177450Y5210D02*
D03*
X108570Y48460D02*
D03*
X84800Y28330D02*
D03*
X108570Y19070D02*
D03*
D47*
X157900Y86758D02*
D03*
Y65102D02*
D03*
D49*
X126977Y40155D02*
D03*
X125009D02*
D03*
X123040D02*
D03*
X121072D02*
D03*
Y31100D02*
D03*
X123040D02*
D03*
X125009D02*
D03*
X126977D02*
D03*
X240916Y39235D02*
D03*
X238948D02*
D03*
X236979D02*
D03*
X235011D02*
D03*
Y30180D02*
D03*
X236979D02*
D03*
X238948D02*
D03*
X240916D02*
D03*
D50*
X121367Y37006D02*
D03*
Y34250D02*
D03*
X126682D02*
D03*
Y37006D02*
D03*
X235306Y36086D02*
D03*
Y33330D02*
D03*
X240621D02*
D03*
Y36086D02*
D03*
D53*
X303778Y141535D02*
D03*
X300377D02*
D03*
X291797Y93587D02*
D03*
X288395D02*
D03*
X291699Y135058D02*
D03*
X288298D02*
D03*
X291702Y106692D02*
D03*
X288300D02*
D03*
X292049Y119481D02*
D03*
X288647D02*
D03*
X56769Y113237D02*
D03*
X60170D02*
D03*
D54*
X46091Y143546D02*
D03*
X53571D02*
D03*
X46015Y139000D02*
D03*
X53496D02*
D03*
X276400Y39670D02*
D03*
X283880D02*
D03*
X276310Y45560D02*
D03*
X283790D02*
D03*
X172580Y5210D02*
D03*
X165100D02*
D03*
X266780Y108380D02*
D03*
X259300D02*
D03*
X148970Y107820D02*
D03*
X141490D02*
D03*
X118080Y80940D02*
D03*
X110600D02*
D03*
X122340Y96640D02*
D03*
X114860D02*
D03*
D55*
X70665Y125592D02*
D03*
X189250Y75610D02*
D03*
D56*
X73224Y129627D02*
D03*
X70665D02*
D03*
X68106D02*
D03*
Y121556D02*
D03*
X70665D02*
D03*
X73224D02*
D03*
X186691Y71575D02*
D03*
X189250D02*
D03*
X191809D02*
D03*
Y79645D02*
D03*
X189250D02*
D03*
X186691D02*
D03*
D57*
X284511Y55160D02*
D03*
X273329D02*
D03*
D58*
X97364Y28008D02*
D03*
Y35488D02*
D03*
X109474Y28068D02*
D03*
Y35548D02*
D03*
X103474Y28008D02*
D03*
Y35488D02*
D03*
X115075Y18838D02*
D03*
Y26318D02*
D03*
X121165Y18878D02*
D03*
Y26358D02*
D03*
X133424Y18798D02*
D03*
Y26278D02*
D03*
X127284Y18828D02*
D03*
Y26308D02*
D03*
X138994Y25118D02*
D03*
Y32598D02*
D03*
X144934Y25188D02*
D03*
Y32668D02*
D03*
X209902Y26808D02*
D03*
Y34288D02*
D03*
X215834Y26868D02*
D03*
Y34348D02*
D03*
X221712Y26808D02*
D03*
Y34288D02*
D03*
X229185Y17398D02*
D03*
Y24878D02*
D03*
X228954Y52838D02*
D03*
Y45358D02*
D03*
X235105Y17398D02*
D03*
Y24878D02*
D03*
X234804Y52858D02*
D03*
Y45378D02*
D03*
X241055Y17458D02*
D03*
Y24938D02*
D03*
X240774Y52828D02*
D03*
Y45348D02*
D03*
X246995Y17458D02*
D03*
Y24938D02*
D03*
X246804Y52888D02*
D03*
Y45408D02*
D03*
X114625Y53818D02*
D03*
Y46338D02*
D03*
X120545Y53808D02*
D03*
Y46328D02*
D03*
X132805Y53808D02*
D03*
Y46328D02*
D03*
X126675Y53868D02*
D03*
Y46388D02*
D03*
X252854Y23888D02*
D03*
Y31368D02*
D03*
X258824Y23986D02*
D03*
Y31466D02*
D03*
X151040Y25110D02*
D03*
Y32590D02*
D03*
X264860Y23950D02*
D03*
Y31430D02*
D03*
X90970Y27980D02*
D03*
Y35460D02*
D03*
X197380Y26830D02*
D03*
Y34310D02*
D03*
X203670Y26830D02*
D03*
Y34310D02*
D03*
M02*
