G04*
G04 #@! TF.GenerationSoftware,Altium Limited,Altium Designer,20.1.14 (287)*
G04*
G04 Layer_Physical_Order=2*
G04 Layer_Color=36540*
%FSLAX25Y25*%
%MOIN*%
G70*
G04*
G04 #@! TF.SameCoordinates,F3919BB7-7B28-4886-AACB-0E40FDAB0E15*
G04*
G04*
G04 #@! TF.FilePolarity,Positive*
G04*
G01*
G75*
%ADD14C,0.01000*%
%ADD33C,0.06024*%
%ADD34C,0.04756*%
%ADD35C,0.07087*%
%ADD38R,0.04756X0.04756*%
%ADD42C,0.02362*%
G36*
X339400D02*
X0D01*
Y153000D01*
X339400D01*
Y0D01*
D02*
G37*
%LPC*%
G36*
X285523Y149980D02*
Y148356D01*
X287147D01*
X287078Y148707D01*
X286596Y149428D01*
X285874Y149910D01*
X285523Y149980D01*
D02*
G37*
G36*
X284523D02*
X284172Y149910D01*
X283451Y149428D01*
X282968Y148707D01*
X282899Y148356D01*
X284523D01*
Y149980D01*
D02*
G37*
G36*
X241725Y149800D02*
Y148176D01*
X243350D01*
X243280Y148527D01*
X242798Y149248D01*
X242076Y149730D01*
X241725Y149800D01*
D02*
G37*
G36*
X240725D02*
X240374Y149730D01*
X239653Y149248D01*
X239171Y148527D01*
X239101Y148176D01*
X240725D01*
Y149800D01*
D02*
G37*
G36*
X201911Y149075D02*
Y147451D01*
X203535D01*
X203465Y147802D01*
X202983Y148523D01*
X202262Y149005D01*
X201911Y149075D01*
D02*
G37*
G36*
X200911D02*
X200560Y149005D01*
X199838Y148523D01*
X199356Y147802D01*
X199286Y147451D01*
X200911D01*
Y149075D01*
D02*
G37*
G36*
X138568Y148351D02*
Y146727D01*
X140193D01*
X140123Y147078D01*
X139641Y147799D01*
X138919Y148281D01*
X138568Y148351D01*
D02*
G37*
G36*
X137568D02*
X137217Y148281D01*
X136496Y147799D01*
X136014Y147078D01*
X135944Y146727D01*
X137568D01*
Y148351D01*
D02*
G37*
G36*
X287147Y147356D02*
X285523D01*
Y145731D01*
X285874Y145801D01*
X286596Y146283D01*
X287078Y147005D01*
X287147Y147356D01*
D02*
G37*
G36*
X284523D02*
X282899D01*
X282968Y147005D01*
X283451Y146283D01*
X284172Y145801D01*
X284523Y145731D01*
Y147356D01*
D02*
G37*
G36*
X243350Y147176D02*
X241725D01*
Y145551D01*
X242076Y145621D01*
X242798Y146103D01*
X243280Y146825D01*
X243350Y147176D01*
D02*
G37*
G36*
X240725D02*
X239101D01*
X239171Y146825D01*
X239653Y146103D01*
X240374Y145621D01*
X240725Y145551D01*
Y147176D01*
D02*
G37*
G36*
X92962Y146904D02*
Y145279D01*
X94586D01*
X94516Y145630D01*
X94034Y146352D01*
X93313Y146834D01*
X92962Y146904D01*
D02*
G37*
G36*
X91962D02*
X91611Y146834D01*
X90889Y146352D01*
X90407Y145630D01*
X90337Y145279D01*
X91962D01*
Y146904D01*
D02*
G37*
G36*
X203535Y146451D02*
X201911D01*
Y144826D01*
X202262Y144896D01*
X202983Y145378D01*
X203465Y146100D01*
X203535Y146451D01*
D02*
G37*
G36*
X200911D02*
X199286D01*
X199356Y146100D01*
X199838Y145378D01*
X200560Y144896D01*
X200911Y144826D01*
Y146451D01*
D02*
G37*
G36*
X140193Y145727D02*
X138568D01*
Y144103D01*
X138919Y144172D01*
X139641Y144654D01*
X140123Y145376D01*
X140193Y145727D01*
D02*
G37*
G36*
X137568D02*
X135944D01*
X136014Y145376D01*
X136496Y144654D01*
X137217Y144172D01*
X137568Y144103D01*
Y145727D01*
D02*
G37*
G36*
X64052Y144888D02*
Y143264D01*
X65676D01*
X65606Y143615D01*
X65124Y144336D01*
X64403Y144818D01*
X64052Y144888D01*
D02*
G37*
G36*
X63052D02*
X62701Y144818D01*
X61979Y144336D01*
X61497Y143615D01*
X61427Y143264D01*
X63052D01*
Y144888D01*
D02*
G37*
G36*
X94586Y144279D02*
X92962D01*
Y142655D01*
X93313Y142725D01*
X94034Y143207D01*
X94516Y143928D01*
X94586Y144279D01*
D02*
G37*
G36*
X91962D02*
X90337D01*
X90407Y143928D01*
X90889Y143207D01*
X91611Y142725D01*
X91962Y142655D01*
Y144279D01*
D02*
G37*
G36*
X65676Y142264D02*
X64052D01*
Y140639D01*
X64403Y140709D01*
X65124Y141191D01*
X65606Y141913D01*
X65676Y142264D01*
D02*
G37*
G36*
X63052D02*
X61427D01*
X61497Y141913D01*
X61979Y141191D01*
X62701Y140709D01*
X63052Y140639D01*
Y142264D01*
D02*
G37*
G36*
X288761Y141888D02*
Y140264D01*
X290386D01*
X290316Y140615D01*
X289834Y141336D01*
X289112Y141818D01*
X288761Y141888D01*
D02*
G37*
G36*
X287761D02*
X287410Y141818D01*
X286689Y141336D01*
X286207Y140615D01*
X286137Y140264D01*
X287761D01*
Y141888D01*
D02*
G37*
G36*
X223266Y140388D02*
Y138764D01*
X224891D01*
X224821Y139115D01*
X224339Y139836D01*
X223617Y140318D01*
X223266Y140388D01*
D02*
G37*
G36*
X222266D02*
X221915Y140318D01*
X221194Y139836D01*
X220712Y139115D01*
X220642Y138764D01*
X222266D01*
Y140388D01*
D02*
G37*
G36*
X117213Y140207D02*
Y138583D01*
X118837D01*
X118767Y138934D01*
X118285Y139655D01*
X117564Y140137D01*
X117213Y140207D01*
D02*
G37*
G36*
X116213D02*
X115862Y140137D01*
X115140Y139655D01*
X114658Y138934D01*
X114588Y138583D01*
X116213D01*
Y140207D01*
D02*
G37*
G36*
X159019Y139845D02*
Y138221D01*
X160643D01*
X160573Y138572D01*
X160091Y139293D01*
X159370Y139776D01*
X159019Y139845D01*
D02*
G37*
G36*
X158019D02*
X157668Y139776D01*
X156946Y139293D01*
X156464Y138572D01*
X156394Y138221D01*
X158019D01*
Y139845D01*
D02*
G37*
G36*
X259462Y139664D02*
Y138040D01*
X261086D01*
X261017Y138391D01*
X260535Y139112D01*
X259813Y139594D01*
X259462Y139664D01*
D02*
G37*
G36*
X258462D02*
X258111Y139594D01*
X257389Y139112D01*
X256908Y138391D01*
X256838Y138040D01*
X258462D01*
Y139664D01*
D02*
G37*
G36*
X329347Y139443D02*
Y137819D01*
X330971D01*
X330902Y138170D01*
X330419Y138891D01*
X329698Y139373D01*
X329347Y139443D01*
D02*
G37*
G36*
X328347D02*
X327996Y139373D01*
X327274Y138891D01*
X326793Y138170D01*
X326723Y137819D01*
X328347D01*
Y139443D01*
D02*
G37*
G36*
X290386Y139264D02*
X288761D01*
Y137639D01*
X289112Y137709D01*
X289834Y138191D01*
X290316Y138913D01*
X290386Y139264D01*
D02*
G37*
G36*
X287761D02*
X286137D01*
X286207Y138913D01*
X286689Y138191D01*
X287410Y137709D01*
X287761Y137639D01*
Y139264D01*
D02*
G37*
G36*
X11846Y151665D02*
X10409Y151524D01*
X9027Y151105D01*
X7754Y150424D01*
X6637Y149508D01*
X5721Y148392D01*
X5040Y147118D01*
X4621Y145736D01*
X4480Y144299D01*
X4621Y142862D01*
X5040Y141480D01*
X5721Y140207D01*
X6637Y139091D01*
X7754Y138174D01*
X9027Y137494D01*
X10409Y137074D01*
X11846Y136933D01*
X13283Y137074D01*
X14665Y137494D01*
X15938Y138174D01*
X17055Y139091D01*
X17971Y140207D01*
X18651Y141480D01*
X19071Y142862D01*
X19212Y144299D01*
X19071Y145736D01*
X18651Y147118D01*
X17971Y148392D01*
X17055Y149508D01*
X15938Y150424D01*
X14665Y151105D01*
X13283Y151524D01*
X11846Y151665D01*
D02*
G37*
G36*
X224891Y137764D02*
X223266D01*
Y136139D01*
X223617Y136209D01*
X224339Y136691D01*
X224821Y137413D01*
X224891Y137764D01*
D02*
G37*
G36*
X222266D02*
X220642D01*
X220712Y137413D01*
X221194Y136691D01*
X221915Y136209D01*
X222266Y136139D01*
Y137764D01*
D02*
G37*
G36*
X118837Y137583D02*
X117213D01*
Y135958D01*
X117564Y136028D01*
X118285Y136510D01*
X118767Y137232D01*
X118837Y137583D01*
D02*
G37*
G36*
X116213D02*
X114588D01*
X114658Y137232D01*
X115140Y136510D01*
X115862Y136028D01*
X116213Y135958D01*
Y137583D01*
D02*
G37*
G36*
X160643Y137221D02*
X159019D01*
Y135597D01*
X159370Y135666D01*
X160091Y136148D01*
X160573Y136870D01*
X160643Y137221D01*
D02*
G37*
G36*
X158019D02*
X156394D01*
X156464Y136870D01*
X156946Y136148D01*
X157668Y135666D01*
X158019Y135597D01*
Y137221D01*
D02*
G37*
G36*
X261086Y137040D02*
X259462D01*
Y135415D01*
X259813Y135485D01*
X260535Y135967D01*
X261017Y136689D01*
X261086Y137040D01*
D02*
G37*
G36*
X258462D02*
X256838D01*
X256908Y136689D01*
X257389Y135967D01*
X258111Y135485D01*
X258462Y135415D01*
Y137040D01*
D02*
G37*
G36*
X330971Y136819D02*
X329347D01*
Y135194D01*
X329698Y135264D01*
X330419Y135746D01*
X330902Y136468D01*
X330971Y136819D01*
D02*
G37*
G36*
X328347D02*
X326723D01*
X326793Y136468D01*
X327274Y135746D01*
X327996Y135264D01*
X328347Y135194D01*
Y136819D01*
D02*
G37*
G36*
X34208Y151665D02*
X32771Y151524D01*
X31389Y151105D01*
X30116Y150424D01*
X29000Y149508D01*
X28083Y148392D01*
X27403Y147118D01*
X26983Y145736D01*
X26842Y144299D01*
X26983Y142862D01*
X27403Y141480D01*
X28083Y140207D01*
X29000Y139091D01*
X30116Y138174D01*
X31389Y137494D01*
X32771Y137074D01*
X34208Y136933D01*
X35645Y137074D01*
X36146Y137226D01*
X36378Y136774D01*
X35955Y136450D01*
X35445Y135785D01*
X35125Y135011D01*
X35079Y134662D01*
X34713Y134528D01*
X34554Y134507D01*
X33923Y134991D01*
X33149Y135312D01*
X32318Y135421D01*
X31488Y135312D01*
X30714Y134991D01*
X30050Y134481D01*
X29540Y133817D01*
X29219Y133043D01*
X29110Y132212D01*
X29219Y131382D01*
X29540Y130608D01*
X30050Y129944D01*
X30714Y129434D01*
X31488Y129113D01*
X32318Y129004D01*
X33149Y129113D01*
X33923Y129434D01*
X34587Y129944D01*
X35097Y130608D01*
X35418Y131382D01*
X35464Y131731D01*
X35829Y131866D01*
X35988Y131887D01*
X36620Y131402D01*
X37394Y131082D01*
X38224Y130973D01*
X39054Y131082D01*
X39828Y131402D01*
X40493Y131912D01*
X41003Y132577D01*
X41323Y133351D01*
X41432Y134181D01*
X41323Y135011D01*
X41003Y135785D01*
X40493Y136450D01*
X39828Y136960D01*
X39054Y137280D01*
X38224Y137390D01*
X37785Y137332D01*
X37629Y137816D01*
X38301Y138174D01*
X39417Y139091D01*
X40333Y140207D01*
X41014Y141480D01*
X41433Y142862D01*
X41574Y144299D01*
X41433Y145736D01*
X41014Y147118D01*
X40333Y148392D01*
X39417Y149508D01*
X38301Y150424D01*
X37027Y151105D01*
X35645Y151524D01*
X34208Y151665D01*
D02*
G37*
G36*
X270530Y146505D02*
X269215Y146375D01*
X267950Y145992D01*
X266785Y145369D01*
X265763Y144530D01*
X264925Y143509D01*
X264302Y142343D01*
X263918Y141079D01*
X263789Y139764D01*
X263918Y138449D01*
X264302Y137184D01*
X264925Y136019D01*
X265763Y134997D01*
X266785Y134159D01*
X267950Y133536D01*
X269215Y133152D01*
X270530Y133023D01*
X271845Y133152D01*
X273110Y133536D01*
X274275Y134159D01*
X275297Y134997D01*
X276135Y136019D01*
X276758Y137184D01*
X277142Y138449D01*
X277271Y139764D01*
X277142Y141079D01*
X276758Y142343D01*
X276135Y143509D01*
X275297Y144530D01*
X274275Y145369D01*
X273110Y145992D01*
X271845Y146375D01*
X270530Y146505D01*
D02*
G37*
G36*
X74803D02*
X73488Y146375D01*
X72223Y145992D01*
X71058Y145369D01*
X70037Y144530D01*
X69198Y143509D01*
X68575Y142343D01*
X68192Y141079D01*
X68062Y139764D01*
X68192Y138449D01*
X68575Y137184D01*
X69198Y136019D01*
X70037Y134997D01*
X71058Y134159D01*
X72223Y133536D01*
X73488Y133152D01*
X74803Y133023D01*
X76118Y133152D01*
X77383Y133536D01*
X78548Y134159D01*
X79570Y134997D01*
X80408Y136019D01*
X81031Y137184D01*
X81415Y138449D01*
X81544Y139764D01*
X81415Y141079D01*
X81031Y142343D01*
X80408Y143509D01*
X79570Y144530D01*
X78548Y145369D01*
X77383Y145992D01*
X76118Y146375D01*
X74803Y146505D01*
D02*
G37*
G36*
X25626Y137390D02*
X24795Y137280D01*
X24021Y136960D01*
X23357Y136450D01*
X22847Y135785D01*
X22685Y135394D01*
X16539D01*
Y129031D01*
X21470D01*
X21598Y129006D01*
X21726Y129031D01*
X22901D01*
Y130206D01*
X22927Y130335D01*
X22901Y130463D01*
Y131758D01*
X23045Y131807D01*
X23401Y131878D01*
X24021Y131402D01*
X24795Y131082D01*
X25626Y130973D01*
X26456Y131082D01*
X27230Y131402D01*
X27894Y131912D01*
X28404Y132577D01*
X28725Y133351D01*
X28834Y134181D01*
X28725Y135011D01*
X28404Y135785D01*
X27894Y136450D01*
X27230Y136960D01*
X26456Y137280D01*
X25626Y137390D01*
D02*
G37*
G36*
X316155Y135281D02*
X307462D01*
Y126588D01*
X316155D01*
Y135281D01*
D02*
G37*
G36*
X299998Y135318D02*
X298863Y135169D01*
X297806Y134731D01*
X296898Y134034D01*
X296201Y133126D01*
X295763Y132069D01*
X295614Y130934D01*
X295763Y129799D01*
X296201Y128742D01*
X296898Y127834D01*
X297806Y127137D01*
X298863Y126699D01*
X299998Y126550D01*
X301132Y126699D01*
X302190Y127137D01*
X303098Y127834D01*
X303795Y128742D01*
X304233Y129799D01*
X304382Y130934D01*
X304233Y132069D01*
X303795Y133126D01*
X303098Y134034D01*
X302190Y134731D01*
X301132Y135169D01*
X299998Y135318D01*
D02*
G37*
G36*
X38224Y129516D02*
X37394Y129406D01*
X36620Y129086D01*
X35955Y128576D01*
X35445Y127911D01*
X35125Y127137D01*
X35015Y126307D01*
X35125Y125477D01*
X35445Y124703D01*
X35955Y124038D01*
X36620Y123528D01*
X37394Y123208D01*
X38224Y123099D01*
X39054Y123208D01*
X39828Y123528D01*
X40493Y124038D01*
X41003Y124703D01*
X41323Y125477D01*
X41432Y126307D01*
X41323Y127137D01*
X41003Y127911D01*
X40493Y128576D01*
X39828Y129086D01*
X39054Y129406D01*
X38224Y129516D01*
D02*
G37*
G36*
X25626D02*
X24795Y129406D01*
X24021Y129086D01*
X23357Y128576D01*
X22847Y127911D01*
X22526Y127137D01*
X22417Y126307D01*
X22526Y125477D01*
X22847Y124703D01*
X23357Y124038D01*
X24021Y123528D01*
X24795Y123208D01*
X25626Y123099D01*
X26456Y123208D01*
X27230Y123528D01*
X27894Y124038D01*
X28404Y124703D01*
X28725Y125477D01*
X28834Y126307D01*
X28725Y127137D01*
X28404Y127911D01*
X27894Y128576D01*
X27230Y129086D01*
X26456Y129406D01*
X25626Y129516D01*
D02*
G37*
G36*
X61733Y123394D02*
Y121770D01*
X63358D01*
X63288Y122121D01*
X62806Y122843D01*
X62084Y123325D01*
X61733Y123394D01*
D02*
G37*
G36*
X60733D02*
X60382Y123325D01*
X59661Y122843D01*
X59179Y122121D01*
X59109Y121770D01*
X60733D01*
Y123394D01*
D02*
G37*
G36*
X32318Y125578D02*
X31488Y125469D01*
X30714Y125149D01*
X30050Y124639D01*
X29540Y123974D01*
X29219Y123200D01*
X29110Y122370D01*
X29219Y121540D01*
X29540Y120766D01*
X30050Y120101D01*
X30714Y119591D01*
X31488Y119271D01*
X32318Y119161D01*
X33149Y119271D01*
X33923Y119591D01*
X34587Y120101D01*
X35097Y120766D01*
X35418Y121540D01*
X35527Y122370D01*
X35418Y123200D01*
X35097Y123974D01*
X34587Y124639D01*
X33923Y125149D01*
X33149Y125469D01*
X32318Y125578D01*
D02*
G37*
G36*
X19720D02*
X18890Y125469D01*
X18116Y125149D01*
X17451Y124639D01*
X16941Y123974D01*
X16621Y123200D01*
X16511Y122370D01*
X16621Y121540D01*
X16941Y120766D01*
X17451Y120101D01*
X18116Y119591D01*
X18890Y119271D01*
X19720Y119161D01*
X20550Y119271D01*
X21324Y119591D01*
X21989Y120101D01*
X22499Y120766D01*
X22819Y121540D01*
X22929Y122370D01*
X22819Y123200D01*
X22499Y123974D01*
X21989Y124639D01*
X21324Y125149D01*
X20550Y125469D01*
X19720Y125578D01*
D02*
G37*
G36*
X63358Y120770D02*
X61733D01*
Y119146D01*
X62084Y119216D01*
X62806Y119697D01*
X63288Y120419D01*
X63358Y120770D01*
D02*
G37*
G36*
X60733D02*
X59109D01*
X59179Y120419D01*
X59661Y119697D01*
X60382Y119216D01*
X60733Y119146D01*
Y120770D01*
D02*
G37*
G36*
X328738Y129211D02*
X327423Y129081D01*
X326158Y128697D01*
X324993Y128075D01*
X323971Y127236D01*
X323133Y126215D01*
X322510Y125049D01*
X322126Y123785D01*
X321997Y122469D01*
X322126Y121154D01*
X322510Y119890D01*
X323133Y118724D01*
X323971Y117703D01*
X324993Y116864D01*
X326158Y116242D01*
X327423Y115858D01*
X328738Y115728D01*
X330053Y115858D01*
X331318Y116242D01*
X332483Y116864D01*
X333505Y117703D01*
X334343Y118724D01*
X334966Y119890D01*
X335350Y121154D01*
X335479Y122469D01*
X335350Y123785D01*
X334966Y125049D01*
X334343Y126215D01*
X333505Y127236D01*
X332483Y128075D01*
X331318Y128697D01*
X330053Y129081D01*
X328738Y129211D01*
D02*
G37*
G36*
X38224Y121642D02*
X37394Y121532D01*
X36620Y121212D01*
X35955Y120702D01*
X35445Y120037D01*
X35125Y119263D01*
X35015Y118433D01*
X35125Y117603D01*
X35445Y116829D01*
X35955Y116164D01*
X36620Y115654D01*
X37394Y115334D01*
X38224Y115224D01*
X39054Y115334D01*
X39828Y115654D01*
X40493Y116164D01*
X41003Y116829D01*
X41323Y117603D01*
X41432Y118433D01*
X41323Y119263D01*
X41003Y120037D01*
X40493Y120702D01*
X39828Y121212D01*
X39054Y121532D01*
X38224Y121642D01*
D02*
G37*
G36*
X25626D02*
X24795Y121532D01*
X24021Y121212D01*
X23357Y120702D01*
X22847Y120037D01*
X22526Y119263D01*
X22417Y118433D01*
X22526Y117603D01*
X22847Y116829D01*
X23357Y116164D01*
X24021Y115654D01*
X24795Y115334D01*
X25626Y115224D01*
X26456Y115334D01*
X27230Y115654D01*
X27894Y116164D01*
X28404Y116829D01*
X28725Y117603D01*
X28834Y118433D01*
X28725Y119263D01*
X28404Y120037D01*
X27894Y120702D01*
X27230Y121212D01*
X26456Y121532D01*
X25626Y121642D01*
D02*
G37*
G36*
X274618Y116811D02*
Y115186D01*
X276242D01*
X276172Y115537D01*
X275690Y116259D01*
X274969Y116741D01*
X274618Y116811D01*
D02*
G37*
G36*
X273618D02*
X273267Y116741D01*
X272545Y116259D01*
X272063Y115537D01*
X271993Y115186D01*
X273618D01*
Y116811D01*
D02*
G37*
G36*
X311809Y123507D02*
X310674Y123358D01*
X309617Y122920D01*
X308709Y122223D01*
X308012Y121315D01*
X307574Y120258D01*
X307425Y119123D01*
X307574Y117988D01*
X308012Y116931D01*
X308709Y116023D01*
X309617Y115326D01*
X310674Y114888D01*
X311809Y114739D01*
X312944Y114888D01*
X314001Y115326D01*
X314909Y116023D01*
X315605Y116931D01*
X316043Y117988D01*
X316193Y119123D01*
X316043Y120258D01*
X315605Y121315D01*
X314909Y122223D01*
X314001Y122920D01*
X312944Y123358D01*
X311809Y123507D01*
D02*
G37*
G36*
X299998D02*
X298863Y123358D01*
X297806Y122920D01*
X296898Y122223D01*
X296201Y121315D01*
X295763Y120258D01*
X295614Y119123D01*
X295763Y117988D01*
X296201Y116931D01*
X296898Y116023D01*
X297806Y115326D01*
X298863Y114888D01*
X299998Y114739D01*
X301132Y114888D01*
X302190Y115326D01*
X303098Y116023D01*
X303795Y116931D01*
X304233Y117988D01*
X304382Y119123D01*
X304233Y120258D01*
X303795Y121315D01*
X303098Y122223D01*
X302190Y122920D01*
X301132Y123358D01*
X299998Y123507D01*
D02*
G37*
G36*
X228529Y115165D02*
Y113540D01*
X230154D01*
X230084Y113891D01*
X229602Y114613D01*
X228880Y115095D01*
X228529Y115165D01*
D02*
G37*
G36*
X227529D02*
X227178Y115095D01*
X226457Y114613D01*
X225975Y113891D01*
X225905Y113540D01*
X227529D01*
Y115165D01*
D02*
G37*
G36*
X198078D02*
Y113540D01*
X199703D01*
X199633Y113891D01*
X199151Y114613D01*
X198429Y115095D01*
X198078Y115165D01*
D02*
G37*
G36*
X197078D02*
X196727Y115095D01*
X196006Y114613D01*
X195524Y113891D01*
X195454Y113540D01*
X197078D01*
Y115165D01*
D02*
G37*
G36*
X158400Y114744D02*
Y113120D01*
X160024D01*
X159955Y113471D01*
X159473Y114193D01*
X158751Y114675D01*
X158400Y114744D01*
D02*
G37*
G36*
X157400D02*
X157049Y114675D01*
X156327Y114193D01*
X155845Y113471D01*
X155776Y113120D01*
X157400D01*
Y114744D01*
D02*
G37*
G36*
X276242Y114186D02*
X274618D01*
Y112562D01*
X274969Y112632D01*
X275690Y113114D01*
X276172Y113835D01*
X276242Y114186D01*
D02*
G37*
G36*
X273618D02*
X271993D01*
X272063Y113835D01*
X272545Y113114D01*
X273267Y112632D01*
X273618Y112562D01*
Y114186D01*
D02*
G37*
G36*
X32318Y117704D02*
X31488Y117595D01*
X30714Y117275D01*
X30050Y116765D01*
X29540Y116100D01*
X29219Y115326D01*
X29110Y114496D01*
X29219Y113666D01*
X29540Y112892D01*
X30050Y112227D01*
X30714Y111717D01*
X31488Y111397D01*
X32318Y111287D01*
X33149Y111397D01*
X33923Y111717D01*
X34587Y112227D01*
X35097Y112892D01*
X35418Y113666D01*
X35527Y114496D01*
X35418Y115326D01*
X35097Y116100D01*
X34587Y116765D01*
X33923Y117275D01*
X33149Y117595D01*
X32318Y117704D01*
D02*
G37*
G36*
X19720D02*
X18890Y117595D01*
X18116Y117275D01*
X17451Y116765D01*
X16941Y116100D01*
X16621Y115326D01*
X16511Y114496D01*
X16621Y113666D01*
X16941Y112892D01*
X17451Y112227D01*
X18116Y111717D01*
X18890Y111397D01*
X19720Y111287D01*
X20550Y111397D01*
X21324Y111717D01*
X21989Y112227D01*
X22499Y112892D01*
X22819Y113666D01*
X22929Y114496D01*
X22819Y115326D01*
X22499Y116100D01*
X21989Y116765D01*
X21324Y117275D01*
X20550Y117595D01*
X19720Y117704D01*
D02*
G37*
G36*
X38724Y113900D02*
Y111059D01*
X41565D01*
X41515Y111441D01*
X41175Y112262D01*
X40633Y112968D01*
X39928Y113510D01*
X39106Y113850D01*
X38724Y113900D01*
D02*
G37*
G36*
X26125D02*
Y111059D01*
X28967D01*
X28916Y111441D01*
X28576Y112262D01*
X28035Y112968D01*
X27329Y113510D01*
X26507Y113850D01*
X26125Y113900D01*
D02*
G37*
G36*
X37724D02*
X37342Y113850D01*
X36520Y113510D01*
X35815Y112968D01*
X35273Y112262D01*
X34933Y111441D01*
X34883Y111059D01*
X37724D01*
Y113900D01*
D02*
G37*
G36*
X25126D02*
X24744Y113850D01*
X23922Y113510D01*
X23216Y112968D01*
X22675Y112262D01*
X22334Y111441D01*
X22284Y111059D01*
X25126D01*
Y113900D01*
D02*
G37*
G36*
X230154Y112540D02*
X228529D01*
Y110916D01*
X228880Y110986D01*
X229602Y111468D01*
X230084Y112189D01*
X230154Y112540D01*
D02*
G37*
G36*
X227529D02*
X225905D01*
X225975Y112189D01*
X226457Y111468D01*
X227178Y110986D01*
X227529Y110916D01*
Y112540D01*
D02*
G37*
G36*
X199703D02*
X198078D01*
Y110916D01*
X198429Y110986D01*
X199151Y111468D01*
X199633Y112189D01*
X199703Y112540D01*
D02*
G37*
G36*
X197078D02*
X195454D01*
X195524Y112189D01*
X196006Y111468D01*
X196727Y110986D01*
X197078Y110916D01*
Y112540D01*
D02*
G37*
G36*
X160024Y112120D02*
X158400D01*
Y110496D01*
X158751Y110566D01*
X159473Y111048D01*
X159955Y111769D01*
X160024Y112120D01*
D02*
G37*
G36*
X157400D02*
X155776D01*
X155845Y111769D01*
X156327Y111048D01*
X157049Y110566D01*
X157400Y110496D01*
Y112120D01*
D02*
G37*
G36*
X41565Y110059D02*
X38724D01*
Y107218D01*
X39106Y107268D01*
X39928Y107608D01*
X40633Y108150D01*
X41175Y108855D01*
X41515Y109677D01*
X41565Y110059D01*
D02*
G37*
G36*
X28967D02*
X26125D01*
Y107218D01*
X26507Y107268D01*
X27329Y107608D01*
X28035Y108150D01*
X28576Y108855D01*
X28916Y109677D01*
X28967Y110059D01*
D02*
G37*
G36*
X37724D02*
X34883D01*
X34933Y109677D01*
X35273Y108855D01*
X35815Y108150D01*
X36520Y107608D01*
X37342Y107268D01*
X37724Y107218D01*
Y110059D01*
D02*
G37*
G36*
X25126D02*
X22284D01*
X22334Y109677D01*
X22675Y108855D01*
X23216Y108150D01*
X23922Y107608D01*
X24744Y107268D01*
X25126Y107218D01*
Y110059D01*
D02*
G37*
G36*
X32318Y107862D02*
X31488Y107753D01*
X30714Y107432D01*
X30050Y106922D01*
X29540Y106258D01*
X29219Y105484D01*
X29110Y104654D01*
X29158Y104291D01*
X28670Y104161D01*
X28576Y104388D01*
X28035Y105094D01*
X27329Y105636D01*
X26507Y105976D01*
X26125Y106026D01*
Y103185D01*
X29302D01*
X29465Y103229D01*
X29540Y103049D01*
X30050Y102385D01*
X30714Y101875D01*
X31488Y101554D01*
X32318Y101445D01*
X33149Y101554D01*
X33923Y101875D01*
X34374Y102221D01*
X34905Y102012D01*
X34933Y101803D01*
X35273Y100981D01*
X35815Y100276D01*
X35843Y100254D01*
X35645Y99792D01*
X34208Y99933D01*
X32771Y99792D01*
X31389Y99372D01*
X30116Y98692D01*
X29000Y97776D01*
X28083Y96659D01*
X27403Y95386D01*
X26983Y94004D01*
X26842Y92567D01*
X26983Y91130D01*
X27403Y89748D01*
X28083Y88474D01*
X29000Y87358D01*
X30116Y86442D01*
X31389Y85761D01*
X32771Y85342D01*
X34208Y85201D01*
X35645Y85342D01*
X37027Y85761D01*
X38301Y86442D01*
X39417Y87358D01*
X40333Y88474D01*
X41014Y89748D01*
X41433Y91130D01*
X41574Y92567D01*
X41433Y94004D01*
X41014Y95386D01*
X40333Y96659D01*
X39417Y97776D01*
X38301Y98692D01*
X38198Y98747D01*
X38228Y99241D01*
X38256Y99282D01*
X39106Y99394D01*
X39928Y99734D01*
X40633Y100276D01*
X41175Y100981D01*
X41515Y101803D01*
X41565Y102185D01*
X38224D01*
Y102685D01*
X37724D01*
Y106026D01*
X37342Y105976D01*
X36520Y105636D01*
X35959Y105205D01*
X35434Y105359D01*
X35418Y105484D01*
X35097Y106258D01*
X34587Y106922D01*
X33923Y107432D01*
X33149Y107753D01*
X32318Y107862D01*
D02*
G37*
G36*
X50246Y105701D02*
Y104077D01*
X51870D01*
X51801Y104428D01*
X51319Y105149D01*
X50597Y105631D01*
X50246Y105701D01*
D02*
G37*
G36*
X49246D02*
X48895Y105631D01*
X48173Y105149D01*
X47691Y104428D01*
X47622Y104077D01*
X49246D01*
Y105701D01*
D02*
G37*
G36*
X329238Y105499D02*
Y103875D01*
X330862D01*
X330793Y104226D01*
X330311Y104947D01*
X329589Y105429D01*
X329238Y105499D01*
D02*
G37*
G36*
X328238D02*
X327887Y105429D01*
X327166Y104947D01*
X326683Y104226D01*
X326614Y103875D01*
X328238D01*
Y105499D01*
D02*
G37*
G36*
X38724Y106026D02*
Y103185D01*
X41565D01*
X41515Y103567D01*
X41175Y104388D01*
X40633Y105094D01*
X39928Y105636D01*
X39106Y105976D01*
X38724Y106026D01*
D02*
G37*
G36*
X311809Y111696D02*
X310674Y111547D01*
X309617Y111109D01*
X308709Y110412D01*
X308012Y109504D01*
X307574Y108447D01*
X307425Y107312D01*
X307574Y106177D01*
X308012Y105120D01*
X308709Y104212D01*
X309617Y103515D01*
X310674Y103077D01*
X311809Y102928D01*
X312944Y103077D01*
X314001Y103515D01*
X314909Y104212D01*
X315605Y105120D01*
X316043Y106177D01*
X316193Y107312D01*
X316043Y108447D01*
X315605Y109504D01*
X314909Y110412D01*
X314001Y111109D01*
X312944Y111547D01*
X311809Y111696D01*
D02*
G37*
G36*
X299998D02*
X298863Y111547D01*
X297806Y111109D01*
X296898Y110412D01*
X296201Y109504D01*
X295763Y108447D01*
X295614Y107312D01*
X295763Y106177D01*
X296201Y105120D01*
X296898Y104212D01*
X297806Y103515D01*
X298863Y103077D01*
X299998Y102928D01*
X301132Y103077D01*
X302190Y103515D01*
X303098Y104212D01*
X303795Y105120D01*
X304233Y106177D01*
X304382Y107312D01*
X304233Y108447D01*
X303795Y109504D01*
X303098Y110412D01*
X302190Y111109D01*
X301132Y111547D01*
X299998Y111696D01*
D02*
G37*
G36*
X255585Y103950D02*
Y102326D01*
X257209D01*
X257139Y102677D01*
X256657Y103399D01*
X255936Y103881D01*
X255585Y103950D01*
D02*
G37*
G36*
X254585D02*
X254234Y103881D01*
X253512Y103399D01*
X253030Y102677D01*
X252960Y102326D01*
X254585D01*
Y103950D01*
D02*
G37*
G36*
X51870Y103077D02*
X50246D01*
Y101452D01*
X50597Y101522D01*
X51319Y102004D01*
X51801Y102726D01*
X51870Y103077D01*
D02*
G37*
G36*
X49246D02*
X47622D01*
X47691Y102726D01*
X48173Y102004D01*
X48895Y101522D01*
X49246Y101452D01*
Y103077D01*
D02*
G37*
G36*
X330862Y102875D02*
X329238D01*
Y101251D01*
X329589Y101320D01*
X330311Y101803D01*
X330793Y102524D01*
X330862Y102875D01*
D02*
G37*
G36*
X328238D02*
X326614D01*
X326683Y102524D01*
X327166Y101803D01*
X327887Y101320D01*
X328238Y101251D01*
Y102875D01*
D02*
G37*
G36*
X245320Y115839D02*
X243888Y115698D01*
X242512Y115280D01*
X241243Y114602D01*
X240131Y113689D01*
X239218Y112577D01*
X238540Y111308D01*
X238123Y109932D01*
X237982Y108500D01*
X238123Y107068D01*
X238540Y105692D01*
X239218Y104423D01*
X240131Y103311D01*
X241243Y102398D01*
X242512Y101720D01*
X243888Y101303D01*
X245320Y101162D01*
X246752Y101303D01*
X248128Y101720D01*
X249397Y102398D01*
X250509Y103311D01*
X251422Y104423D01*
X252100Y105692D01*
X252518Y107068D01*
X252659Y108500D01*
X252518Y109932D01*
X252100Y111308D01*
X251422Y112577D01*
X250509Y113689D01*
X249397Y114602D01*
X248128Y115280D01*
X246752Y115698D01*
X245320Y115839D01*
D02*
G37*
G36*
X126490Y115609D02*
X125058Y115468D01*
X123682Y115050D01*
X122413Y114372D01*
X121301Y113459D01*
X120388Y112347D01*
X119710Y111078D01*
X119292Y109702D01*
X119151Y108270D01*
X119292Y106838D01*
X119710Y105462D01*
X120388Y104193D01*
X121301Y103081D01*
X122413Y102168D01*
X123682Y101490D01*
X125058Y101073D01*
X126490Y100932D01*
X127922Y101073D01*
X129298Y101490D01*
X130567Y102168D01*
X131679Y103081D01*
X132592Y104193D01*
X133270Y105462D01*
X133687Y106838D01*
X133828Y108270D01*
X133687Y109702D01*
X133270Y111078D01*
X132592Y112347D01*
X131679Y113459D01*
X130567Y114372D01*
X129298Y115050D01*
X127922Y115468D01*
X126490Y115609D01*
D02*
G37*
G36*
X287108Y102009D02*
Y100385D01*
X288732D01*
X288662Y100736D01*
X288180Y101457D01*
X287459Y101939D01*
X287108Y102009D01*
D02*
G37*
G36*
X286108D02*
X285757Y101939D01*
X285035Y101457D01*
X284553Y100736D01*
X284483Y100385D01*
X286108D01*
Y102009D01*
D02*
G37*
G36*
X257209Y101326D02*
X255585D01*
Y99702D01*
X255936Y99771D01*
X256657Y100253D01*
X257139Y100975D01*
X257209Y101326D01*
D02*
G37*
G36*
X254585D02*
X252960D01*
X253030Y100975D01*
X253512Y100253D01*
X254234Y99771D01*
X254585Y99702D01*
Y101326D01*
D02*
G37*
G36*
X28967Y102185D02*
X26125D01*
Y99344D01*
X26507Y99394D01*
X27329Y99734D01*
X28035Y100276D01*
X28576Y100981D01*
X28916Y101803D01*
X28967Y102185D01*
D02*
G37*
G36*
X19720Y107862D02*
X18890Y107753D01*
X18116Y107432D01*
X17451Y106922D01*
X16941Y106258D01*
X16621Y105484D01*
X16511Y104654D01*
X16621Y103823D01*
X16941Y103049D01*
X17451Y102385D01*
X18116Y101875D01*
X18890Y101554D01*
X19720Y101445D01*
X20550Y101554D01*
X21324Y101875D01*
X21775Y102221D01*
X22307Y102012D01*
X22334Y101803D01*
X22675Y100981D01*
X23216Y100276D01*
X23922Y99734D01*
X24744Y99394D01*
X25126Y99344D01*
Y102685D01*
Y106026D01*
X24744Y105976D01*
X23922Y105636D01*
X23360Y105205D01*
X22836Y105359D01*
X22819Y105484D01*
X22499Y106258D01*
X21989Y106922D01*
X21324Y107432D01*
X20550Y107753D01*
X19720Y107862D01*
D02*
G37*
G36*
X288732Y99385D02*
X287108D01*
Y97760D01*
X287459Y97830D01*
X288180Y98312D01*
X288662Y99034D01*
X288732Y99385D01*
D02*
G37*
G36*
X286108D02*
X284483D01*
X284553Y99034D01*
X285035Y98312D01*
X285757Y97830D01*
X286108Y97760D01*
Y99385D01*
D02*
G37*
G36*
X197255Y97470D02*
Y95846D01*
X198880D01*
X198810Y96197D01*
X198328Y96918D01*
X197606Y97400D01*
X197255Y97470D01*
D02*
G37*
G36*
X196255D02*
X195904Y97400D01*
X195183Y96918D01*
X194701Y96197D01*
X194631Y95846D01*
X196255D01*
Y97470D01*
D02*
G37*
G36*
X126840Y98693D02*
X126066Y98539D01*
X125409Y98101D01*
X124971Y97444D01*
X124817Y96670D01*
X124971Y95896D01*
X125409Y95239D01*
X126066Y94801D01*
X126840Y94647D01*
X127614Y94801D01*
X128271Y95239D01*
X128709Y95896D01*
X128863Y96670D01*
X128709Y97444D01*
X128271Y98101D01*
X127614Y98539D01*
X126840Y98693D01*
D02*
G37*
G36*
X198880Y94846D02*
X197255D01*
Y93221D01*
X197606Y93291D01*
X198328Y93773D01*
X198810Y94495D01*
X198880Y94846D01*
D02*
G37*
G36*
X196255D02*
X194631D01*
X194701Y94495D01*
X195183Y93773D01*
X195904Y93291D01*
X196255Y93221D01*
Y94846D01*
D02*
G37*
G36*
X311809Y99885D02*
X310674Y99735D01*
X309617Y99298D01*
X308709Y98601D01*
X308012Y97693D01*
X307574Y96636D01*
X307425Y95501D01*
X307574Y94366D01*
X308012Y93309D01*
X308709Y92401D01*
X309617Y91704D01*
X310674Y91266D01*
X311809Y91117D01*
X312944Y91266D01*
X314001Y91704D01*
X314909Y92401D01*
X315605Y93309D01*
X316043Y94366D01*
X316193Y95501D01*
X316043Y96636D01*
X315605Y97693D01*
X314909Y98601D01*
X314001Y99298D01*
X312944Y99735D01*
X311809Y99885D01*
D02*
G37*
G36*
X299998D02*
X298863Y99735D01*
X297806Y99298D01*
X296898Y98601D01*
X296201Y97693D01*
X295763Y96636D01*
X295614Y95501D01*
X295763Y94366D01*
X296201Y93309D01*
X296898Y92401D01*
X297806Y91704D01*
X298863Y91266D01*
X299998Y91117D01*
X301132Y91266D01*
X302190Y91704D01*
X303098Y92401D01*
X303795Y93309D01*
X304233Y94366D01*
X304382Y95501D01*
X304233Y96636D01*
X303795Y97693D01*
X303098Y98601D01*
X302190Y99298D01*
X301132Y99735D01*
X299998Y99885D01*
D02*
G37*
G36*
X133900Y94113D02*
X133126Y93959D01*
X132469Y93521D01*
X132031Y92864D01*
X131877Y92090D01*
X132031Y91316D01*
X132469Y90659D01*
X133126Y90221D01*
X133900Y90067D01*
X134674Y90221D01*
X135331Y90659D01*
X135769Y91316D01*
X135923Y92090D01*
X135769Y92864D01*
X135331Y93521D01*
X134674Y93959D01*
X133900Y94113D01*
D02*
G37*
G36*
X225185Y104438D02*
X210579D01*
Y89832D01*
X225185D01*
Y104438D01*
D02*
G37*
G36*
X106355Y104208D02*
X91749D01*
Y89602D01*
X106355D01*
Y104208D01*
D02*
G37*
G36*
X11846Y99933D02*
X10409Y99792D01*
X9027Y99372D01*
X7754Y98692D01*
X6637Y97776D01*
X5721Y96659D01*
X5040Y95386D01*
X4621Y94004D01*
X4480Y92567D01*
X4621Y91130D01*
X5040Y89748D01*
X5721Y88474D01*
X6637Y87358D01*
X7754Y86442D01*
X9027Y85761D01*
X10409Y85342D01*
X11846Y85201D01*
X13283Y85342D01*
X14665Y85761D01*
X15938Y86442D01*
X17055Y87358D01*
X17971Y88474D01*
X18651Y89748D01*
X19071Y91130D01*
X19212Y92567D01*
X19071Y94004D01*
X18651Y95386D01*
X17971Y96659D01*
X17055Y97776D01*
X15938Y98692D01*
X14665Y99372D01*
X13283Y99792D01*
X11846Y99933D01*
D02*
G37*
G36*
X311809Y88074D02*
X310674Y87924D01*
X309617Y87486D01*
X308709Y86790D01*
X308012Y85882D01*
X307574Y84825D01*
X307425Y83690D01*
X307574Y82555D01*
X308012Y81498D01*
X308709Y80590D01*
X309617Y79893D01*
X310674Y79455D01*
X311809Y79306D01*
X312944Y79455D01*
X314001Y79893D01*
X314909Y80590D01*
X315605Y81498D01*
X316043Y82555D01*
X316193Y83690D01*
X316043Y84825D01*
X315605Y85882D01*
X314909Y86790D01*
X314001Y87486D01*
X312944Y87924D01*
X311809Y88074D01*
D02*
G37*
G36*
X299998D02*
X298863Y87924D01*
X297806Y87486D01*
X296898Y86790D01*
X296201Y85882D01*
X295763Y84825D01*
X295614Y83690D01*
X295763Y82555D01*
X296201Y81498D01*
X296898Y80590D01*
X297806Y79893D01*
X298863Y79455D01*
X299998Y79306D01*
X301132Y79455D01*
X302190Y79893D01*
X303098Y80590D01*
X303795Y81498D01*
X304233Y82555D01*
X304382Y83690D01*
X304233Y84825D01*
X303795Y85882D01*
X303098Y86790D01*
X302190Y87486D01*
X301132Y87924D01*
X299998Y88074D01*
D02*
G37*
G36*
X217882Y88401D02*
X216451Y88260D01*
X215074Y87842D01*
X213805Y87164D01*
X212693Y86251D01*
X211781Y85139D01*
X211102Y83871D01*
X210685Y82494D01*
X210544Y81062D01*
X210685Y79631D01*
X211102Y78254D01*
X211781Y76985D01*
X212693Y75873D01*
X213805Y74961D01*
X215074Y74282D01*
X216451Y73865D01*
X217882Y73724D01*
X219314Y73865D01*
X220690Y74282D01*
X221959Y74961D01*
X223071Y75873D01*
X223984Y76985D01*
X224662Y78254D01*
X225080Y79631D01*
X225221Y81062D01*
X225080Y82494D01*
X224662Y83871D01*
X223984Y85139D01*
X223071Y86251D01*
X221959Y87164D01*
X220690Y87842D01*
X219314Y88260D01*
X217882Y88401D01*
D02*
G37*
G36*
X328738Y87085D02*
X327423Y86955D01*
X326158Y86571D01*
X324993Y85948D01*
X323971Y85110D01*
X323133Y84089D01*
X322510Y82923D01*
X322126Y81659D01*
X321997Y80344D01*
X322126Y79028D01*
X322510Y77764D01*
X323133Y76598D01*
X323971Y75577D01*
X324993Y74738D01*
X326158Y74116D01*
X327423Y73732D01*
X328738Y73602D01*
X330053Y73732D01*
X331318Y74116D01*
X332483Y74738D01*
X333505Y75577D01*
X334343Y76598D01*
X334966Y77764D01*
X335350Y79028D01*
X335479Y80344D01*
X335350Y81659D01*
X334966Y82923D01*
X334343Y84089D01*
X333505Y85110D01*
X332483Y85948D01*
X331318Y86571D01*
X330053Y86955D01*
X328738Y87085D01*
D02*
G37*
G36*
X99052Y88171D02*
X97620Y88030D01*
X96244Y87612D01*
X94975Y86934D01*
X93863Y86021D01*
X92950Y84909D01*
X92272Y83640D01*
X91855Y82264D01*
X91714Y80832D01*
X91855Y79400D01*
X92272Y78024D01*
X92950Y76755D01*
X93863Y75643D01*
X94975Y74730D01*
X96244Y74052D01*
X97620Y73635D01*
X99052Y73494D01*
X100484Y73635D01*
X101860Y74052D01*
X103129Y74730D01*
X104241Y75643D01*
X105154Y76755D01*
X105832Y78024D01*
X106250Y79400D01*
X106391Y80832D01*
X106250Y82264D01*
X105832Y83640D01*
X105154Y84909D01*
X104241Y86021D01*
X103129Y86934D01*
X101860Y87612D01*
X100484Y88030D01*
X99052Y88171D01*
D02*
G37*
G36*
X312309Y76396D02*
Y72379D01*
X316326D01*
X316235Y73065D01*
X315777Y74170D01*
X315049Y75119D01*
X314100Y75848D01*
X312995Y76305D01*
X312309Y76396D01*
D02*
G37*
G36*
X311309D02*
X310623Y76305D01*
X309518Y75848D01*
X308569Y75119D01*
X307840Y74170D01*
X307382Y73065D01*
X307292Y72379D01*
X311309D01*
Y76396D01*
D02*
G37*
G36*
X41649Y73471D02*
Y69990D01*
X45130D01*
X45058Y70537D01*
X44653Y71513D01*
X44010Y72351D01*
X43172Y72994D01*
X42196Y73399D01*
X41649Y73471D01*
D02*
G37*
G36*
X29838D02*
Y69990D01*
X33319D01*
X33247Y70537D01*
X32842Y71513D01*
X32199Y72351D01*
X31361Y72994D01*
X30385Y73399D01*
X29838Y73471D01*
D02*
G37*
G36*
X40649D02*
X40102Y73399D01*
X39126Y72994D01*
X38288Y72351D01*
X37645Y71513D01*
X37240Y70537D01*
X37168Y69990D01*
X40649D01*
Y73471D01*
D02*
G37*
G36*
X28838D02*
X28291Y73399D01*
X27315Y72994D01*
X26477Y72351D01*
X25834Y71513D01*
X25429Y70537D01*
X25357Y69990D01*
X28838D01*
Y73471D01*
D02*
G37*
G36*
X299998Y76263D02*
X298863Y76113D01*
X297806Y75675D01*
X296898Y74979D01*
X296201Y74071D01*
X295763Y73014D01*
X295614Y71879D01*
X295763Y70744D01*
X296201Y69687D01*
X296898Y68779D01*
X297806Y68082D01*
X298863Y67644D01*
X299998Y67495D01*
X301132Y67644D01*
X302190Y68082D01*
X303098Y68779D01*
X303795Y69687D01*
X304233Y70744D01*
X304382Y71879D01*
X304233Y73014D01*
X303795Y74071D01*
X303098Y74979D01*
X302190Y75675D01*
X301132Y76113D01*
X299998Y76263D01*
D02*
G37*
G36*
X316326Y71379D02*
X312309D01*
Y67362D01*
X312995Y67453D01*
X314100Y67910D01*
X315049Y68639D01*
X315777Y69588D01*
X316235Y70693D01*
X316326Y71379D01*
D02*
G37*
G36*
X311309D02*
X307292D01*
X307382Y70693D01*
X307840Y69588D01*
X308569Y68639D01*
X309518Y67910D01*
X310623Y67453D01*
X311309Y67362D01*
Y71379D01*
D02*
G37*
G36*
X45130Y68990D02*
X41649D01*
Y65509D01*
X42196Y65581D01*
X43172Y65986D01*
X44010Y66629D01*
X44653Y67467D01*
X45058Y68443D01*
X45130Y68990D01*
D02*
G37*
G36*
X33319D02*
X29838D01*
Y65509D01*
X30385Y65581D01*
X31361Y65986D01*
X32199Y66629D01*
X32842Y67467D01*
X33247Y68443D01*
X33319Y68990D01*
D02*
G37*
G36*
X40649D02*
X37168D01*
X37240Y68443D01*
X37645Y67467D01*
X38288Y66629D01*
X39126Y65986D01*
X40102Y65581D01*
X40649Y65509D01*
Y68990D01*
D02*
G37*
G36*
X28838D02*
X25357D01*
X25429Y68443D01*
X25834Y67467D01*
X26477Y66629D01*
X27315Y65986D01*
X28291Y65581D01*
X28838Y65509D01*
Y68990D01*
D02*
G37*
G36*
X12330Y70326D02*
X11015Y70196D01*
X9750Y69813D01*
X8585Y69190D01*
X7564Y68351D01*
X6725Y67330D01*
X6102Y66164D01*
X5719Y64900D01*
X5589Y63585D01*
X5719Y62269D01*
X6102Y61005D01*
X6725Y59839D01*
X7564Y58818D01*
X8585Y57979D01*
X9750Y57357D01*
X11015Y56973D01*
X12330Y56843D01*
X13645Y56973D01*
X14910Y57357D01*
X16075Y57979D01*
X17097Y58818D01*
X17935Y59839D01*
X18558Y61005D01*
X18942Y62269D01*
X19071Y63585D01*
X18942Y64900D01*
X18558Y66164D01*
X17935Y67330D01*
X17097Y68351D01*
X16075Y69190D01*
X14910Y69813D01*
X13645Y70196D01*
X12330Y70326D01*
D02*
G37*
G36*
X33153Y61494D02*
X25523D01*
Y53864D01*
X33153D01*
Y61494D01*
D02*
G37*
G36*
X41149Y61527D02*
X40153Y61396D01*
X39225Y61011D01*
X38428Y60400D01*
X37817Y59603D01*
X37432Y58675D01*
X37301Y57679D01*
X37432Y56683D01*
X37817Y55755D01*
X38428Y54958D01*
X39225Y54347D01*
X40153Y53962D01*
X41149Y53831D01*
X42145Y53962D01*
X43073Y54347D01*
X43870Y54958D01*
X44481Y55755D01*
X44866Y56683D01*
X44997Y57679D01*
X44866Y58675D01*
X44481Y59603D01*
X43870Y60400D01*
X43073Y61011D01*
X42145Y61396D01*
X41149Y61527D01*
D02*
G37*
G36*
X330457Y52759D02*
Y51135D01*
X332082D01*
X332012Y51486D01*
X331530Y52207D01*
X330808Y52689D01*
X330457Y52759D01*
D02*
G37*
G36*
X329457D02*
X329106Y52689D01*
X328385Y52207D01*
X327903Y51486D01*
X327833Y51135D01*
X329457D01*
Y52759D01*
D02*
G37*
G36*
X332082Y50135D02*
X330457D01*
Y48510D01*
X330808Y48580D01*
X331530Y49062D01*
X332012Y49784D01*
X332082Y50135D01*
D02*
G37*
G36*
X329457D02*
X327833D01*
X327903Y49784D01*
X328385Y49062D01*
X329106Y48580D01*
X329457Y48510D01*
Y50135D01*
D02*
G37*
G36*
X224060Y51153D02*
X223286Y50999D01*
X222629Y50561D01*
X222191Y49904D01*
X222037Y49130D01*
X222191Y48356D01*
X222629Y47699D01*
X223286Y47261D01*
X224060Y47107D01*
X224834Y47261D01*
X225491Y47699D01*
X225929Y48356D01*
X226083Y49130D01*
X225929Y49904D01*
X225491Y50561D01*
X224834Y50999D01*
X224060Y51153D01*
D02*
G37*
G36*
X137640Y48094D02*
Y46470D01*
X139264D01*
X139195Y46821D01*
X138713Y47543D01*
X137991Y48024D01*
X137640Y48094D01*
D02*
G37*
G36*
X136640D02*
X136289Y48024D01*
X135567Y47543D01*
X135085Y46821D01*
X135016Y46470D01*
X136640D01*
Y48094D01*
D02*
G37*
G36*
X108570Y50483D02*
X107796Y50329D01*
X107139Y49891D01*
X106701Y49234D01*
X106547Y48460D01*
X106701Y47686D01*
X107139Y47029D01*
X107796Y46591D01*
X108570Y46437D01*
X109344Y46591D01*
X110001Y47029D01*
X110439Y47686D01*
X110593Y48460D01*
X110439Y49234D01*
X110001Y49891D01*
X109344Y50329D01*
X108570Y50483D01*
D02*
G37*
G36*
X139264Y45470D02*
X137640D01*
Y43846D01*
X137991Y43915D01*
X138713Y44398D01*
X139195Y45119D01*
X139264Y45470D01*
D02*
G37*
G36*
X136640D02*
X135016D01*
X135085Y45119D01*
X135567Y44398D01*
X136289Y43915D01*
X136640Y43846D01*
Y45470D01*
D02*
G37*
G36*
X247390Y43214D02*
Y41590D01*
X249014D01*
X248944Y41941D01*
X248463Y42663D01*
X247741Y43145D01*
X247390Y43214D01*
D02*
G37*
G36*
X246390D02*
X246039Y43145D01*
X245318Y42663D01*
X244835Y41941D01*
X244766Y41590D01*
X246390D01*
Y43214D01*
D02*
G37*
G36*
X249014Y40590D02*
X247390D01*
Y38966D01*
X247741Y39035D01*
X248463Y39518D01*
X248944Y40239D01*
X249014Y40590D01*
D02*
G37*
G36*
X246390D02*
X244766D01*
X244835Y40239D01*
X245318Y39518D01*
X246039Y39035D01*
X246390Y38966D01*
Y40590D01*
D02*
G37*
G36*
X315245Y46290D02*
X307615D01*
Y38660D01*
X315245D01*
Y46290D01*
D02*
G37*
G36*
X299619Y46323D02*
X298623Y46192D01*
X297695Y45807D01*
X296898Y45196D01*
X296287Y44399D01*
X295902Y43471D01*
X295771Y42475D01*
X295902Y41479D01*
X296287Y40551D01*
X296898Y39754D01*
X297695Y39143D01*
X298623Y38758D01*
X299619Y38627D01*
X300615Y38758D01*
X301543Y39143D01*
X302340Y39754D01*
X302952Y40551D01*
X303336Y41479D01*
X303467Y42475D01*
X303336Y43471D01*
X302952Y44399D01*
X302340Y45196D01*
X301543Y45807D01*
X300615Y46192D01*
X299619Y46323D01*
D02*
G37*
G36*
X125796Y38427D02*
X125403D01*
X124859Y38319D01*
X124398Y38011D01*
X124204Y37721D01*
X124191Y37716D01*
X123661D01*
X123648Y37721D01*
X123455Y38011D01*
X122994Y38319D01*
X122450Y38427D01*
X121906Y38319D01*
X121445Y38011D01*
X121137Y37549D01*
X121029Y37006D01*
X121137Y36462D01*
X121445Y36001D01*
X121554Y35928D01*
Y35327D01*
X121445Y35255D01*
X121137Y34794D01*
X121029Y34250D01*
X121137Y33706D01*
X121445Y33245D01*
X121906Y32937D01*
X122450Y32829D01*
X122994Y32937D01*
X123455Y33245D01*
X123763Y33706D01*
X123770Y33742D01*
X124279D01*
X124287Y33706D01*
X124595Y33245D01*
X125056Y32937D01*
X125599Y32829D01*
X126143Y32937D01*
X126604Y33245D01*
X126912Y33706D01*
X127020Y34250D01*
X126912Y34794D01*
X126604Y35255D01*
X126581Y35270D01*
X126594Y35863D01*
X126801Y36001D01*
X127109Y36462D01*
X127217Y37006D01*
X127109Y37549D01*
X126801Y38011D01*
X126340Y38319D01*
X125796Y38427D01*
D02*
G37*
G36*
X239539Y37507D02*
X238995Y37399D01*
X238534Y37091D01*
X238226Y36630D01*
X238219Y36594D01*
X237709D01*
X237702Y36630D01*
X237394Y37091D01*
X236933Y37399D01*
X236389Y37507D01*
X235845Y37399D01*
X235384Y37091D01*
X235076Y36630D01*
X234968Y36086D01*
X235076Y35542D01*
X235384Y35081D01*
X235493Y35008D01*
Y34407D01*
X235384Y34335D01*
X235076Y33874D01*
X234968Y33330D01*
X235076Y32786D01*
X235384Y32325D01*
X235845Y32017D01*
X236389Y31909D01*
X236933Y32017D01*
X237394Y32325D01*
X237702Y32786D01*
X237709Y32822D01*
X238219D01*
X238226Y32786D01*
X238534Y32325D01*
X238995Y32017D01*
X239539Y31909D01*
X240082Y32017D01*
X240543Y32325D01*
X240851Y32786D01*
X240960Y33330D01*
X240851Y33874D01*
X240543Y34335D01*
X240435Y34407D01*
Y35008D01*
X240543Y35081D01*
X240851Y35542D01*
X240960Y36086D01*
X240851Y36630D01*
X240543Y37091D01*
X240082Y37399D01*
X239539Y37507D01*
D02*
G37*
G36*
X311930Y34644D02*
Y31164D01*
X315411D01*
X315339Y31711D01*
X314934Y32687D01*
X314291Y33525D01*
X313453Y34168D01*
X312477Y34572D01*
X311930Y34644D01*
D02*
G37*
G36*
X310930D02*
X310383Y34572D01*
X309407Y34168D01*
X308569Y33525D01*
X307926Y32687D01*
X307522Y31711D01*
X307450Y31164D01*
X310930D01*
Y34644D01*
D02*
G37*
G36*
X328438Y43311D02*
X327123Y43181D01*
X325858Y42797D01*
X324693Y42175D01*
X323671Y41336D01*
X322833Y40315D01*
X322210Y39149D01*
X321826Y37885D01*
X321697Y36569D01*
X321826Y35254D01*
X322210Y33990D01*
X322833Y32824D01*
X323671Y31803D01*
X324693Y30964D01*
X325858Y30342D01*
X327123Y29958D01*
X328438Y29828D01*
X329753Y29958D01*
X331018Y30342D01*
X332183Y30964D01*
X333205Y31803D01*
X334043Y32824D01*
X334666Y33990D01*
X335050Y35254D01*
X335179Y36569D01*
X335050Y37885D01*
X334666Y39149D01*
X334043Y40315D01*
X333205Y41336D01*
X332183Y42175D01*
X331018Y42797D01*
X329753Y43181D01*
X328438Y43311D01*
D02*
G37*
G36*
X29838Y31671D02*
Y28190D01*
X33319D01*
X33247Y28737D01*
X32842Y29713D01*
X32199Y30551D01*
X31361Y31194D01*
X30385Y31599D01*
X29838Y31671D01*
D02*
G37*
G36*
X28838D02*
X28291Y31599D01*
X27315Y31194D01*
X26477Y30551D01*
X25834Y29713D01*
X25429Y28737D01*
X25357Y28190D01*
X28838D01*
Y31671D01*
D02*
G37*
G36*
X299619Y34512D02*
X298623Y34381D01*
X297695Y33996D01*
X296898Y33385D01*
X296287Y32588D01*
X295902Y31660D01*
X295771Y30664D01*
X295902Y29668D01*
X296287Y28740D01*
X296898Y27943D01*
X297695Y27332D01*
X298623Y26947D01*
X299619Y26816D01*
X300615Y26947D01*
X301543Y27332D01*
X302340Y27943D01*
X302952Y28740D01*
X303336Y29668D01*
X303467Y30664D01*
X303336Y31660D01*
X302952Y32588D01*
X302340Y33385D01*
X301543Y33996D01*
X300615Y34381D01*
X299619Y34512D01*
D02*
G37*
G36*
X315411Y30164D02*
X311930D01*
Y26683D01*
X312477Y26755D01*
X313453Y27160D01*
X314291Y27803D01*
X314934Y28641D01*
X315339Y29617D01*
X315411Y30164D01*
D02*
G37*
G36*
X310930D02*
X307450D01*
X307522Y29617D01*
X307926Y28641D01*
X308569Y27803D01*
X309407Y27160D01*
X310383Y26755D01*
X310930Y26683D01*
Y30164D01*
D02*
G37*
G36*
X289770Y30623D02*
X288996Y30469D01*
X288339Y30031D01*
X287901Y29374D01*
X287747Y28600D01*
X287901Y27826D01*
X288339Y27169D01*
X288996Y26731D01*
X289770Y26577D01*
X290544Y26731D01*
X291201Y27169D01*
X291639Y27826D01*
X291793Y28600D01*
X291639Y29374D01*
X291201Y30031D01*
X290544Y30469D01*
X289770Y30623D01*
D02*
G37*
G36*
X84800Y30353D02*
X84026Y30199D01*
X83369Y29761D01*
X82931Y29104D01*
X82777Y28330D01*
X82931Y27556D01*
X83369Y26899D01*
X84026Y26461D01*
X84800Y26307D01*
X85574Y26461D01*
X86231Y26899D01*
X86669Y27556D01*
X86823Y28330D01*
X86669Y29104D01*
X86231Y29761D01*
X85574Y30199D01*
X84800Y30353D01*
D02*
G37*
G36*
X192770Y28139D02*
X191996Y27985D01*
X191339Y27546D01*
X190901Y26890D01*
X190747Y26116D01*
X190901Y25341D01*
X191339Y24685D01*
X191996Y24247D01*
X192770Y24093D01*
X193544Y24247D01*
X194201Y24685D01*
X194639Y25341D01*
X194793Y26116D01*
X194639Y26890D01*
X194201Y27546D01*
X193544Y27985D01*
X192770Y28139D01*
D02*
G37*
G36*
X41149Y31538D02*
X40153Y31407D01*
X39225Y31022D01*
X38428Y30411D01*
X37817Y29614D01*
X37432Y28686D01*
X37301Y27690D01*
X37432Y26694D01*
X37817Y25766D01*
X38428Y24969D01*
X39225Y24358D01*
X40153Y23973D01*
X41149Y23842D01*
X42145Y23973D01*
X43073Y24358D01*
X43870Y24969D01*
X44481Y25766D01*
X44866Y26694D01*
X44997Y27690D01*
X44866Y28686D01*
X44481Y29614D01*
X43870Y30411D01*
X43073Y31022D01*
X42145Y31407D01*
X41149Y31538D01*
D02*
G37*
G36*
X33319Y27190D02*
X29838D01*
Y23709D01*
X30385Y23781D01*
X31361Y24186D01*
X32199Y24829D01*
X32842Y25667D01*
X33247Y26643D01*
X33319Y27190D01*
D02*
G37*
G36*
X28838D02*
X25357D01*
X25429Y26643D01*
X25834Y25667D01*
X26477Y24829D01*
X27315Y24186D01*
X28291Y23781D01*
X28838Y23709D01*
Y27190D01*
D02*
G37*
G36*
X109070Y21194D02*
Y19570D01*
X110694D01*
X110625Y19921D01*
X110143Y20642D01*
X109421Y21125D01*
X109070Y21194D01*
D02*
G37*
G36*
X108070D02*
X107719Y21125D01*
X106998Y20642D01*
X106516Y19921D01*
X106446Y19570D01*
X108070D01*
Y21194D01*
D02*
G37*
G36*
X224240Y20244D02*
Y18620D01*
X225864D01*
X225795Y18971D01*
X225312Y19692D01*
X224591Y20175D01*
X224240Y20244D01*
D02*
G37*
G36*
X223240D02*
X222889Y20175D01*
X222167Y19692D01*
X221685Y18971D01*
X221616Y18620D01*
X223240D01*
Y20244D01*
D02*
G37*
G36*
X110694Y18570D02*
X109070D01*
Y16946D01*
X109421Y17016D01*
X110143Y17497D01*
X110625Y18219D01*
X110694Y18570D01*
D02*
G37*
G36*
X108070D02*
X106446D01*
X106516Y18219D01*
X106998Y17497D01*
X107719Y17016D01*
X108070Y16946D01*
Y18570D01*
D02*
G37*
G36*
X225864Y17620D02*
X224240D01*
Y15996D01*
X224591Y16066D01*
X225312Y16547D01*
X225795Y17269D01*
X225864Y17620D01*
D02*
G37*
G36*
X223240D02*
X221616D01*
X221685Y17269D01*
X222167Y16547D01*
X222889Y16066D01*
X223240Y15996D01*
Y17620D01*
D02*
G37*
G36*
X12330Y28526D02*
X11015Y28396D01*
X9750Y28012D01*
X8585Y27389D01*
X7564Y26551D01*
X6725Y25530D01*
X6102Y24364D01*
X5719Y23100D01*
X5589Y21784D01*
X5719Y20469D01*
X6102Y19205D01*
X6725Y18039D01*
X7564Y17018D01*
X8585Y16179D01*
X9750Y15556D01*
X11015Y15173D01*
X12330Y15043D01*
X13645Y15173D01*
X14910Y15556D01*
X16075Y16179D01*
X17097Y17018D01*
X17935Y18039D01*
X18558Y19205D01*
X18942Y20469D01*
X19071Y21784D01*
X18942Y23100D01*
X18558Y24364D01*
X17935Y25530D01*
X17097Y26551D01*
X16075Y27389D01*
X14910Y28012D01*
X13645Y28396D01*
X12330Y28526D01*
D02*
G37*
G36*
X33153Y19694D02*
X25523D01*
Y12064D01*
X33153D01*
Y19694D01*
D02*
G37*
G36*
X41149Y19727D02*
X40153Y19596D01*
X39225Y19211D01*
X38428Y18600D01*
X37817Y17803D01*
X37432Y16875D01*
X37301Y15879D01*
X37432Y14883D01*
X37817Y13955D01*
X38428Y13158D01*
X39225Y12547D01*
X40153Y12162D01*
X41149Y12031D01*
X42145Y12162D01*
X43073Y12547D01*
X43870Y13158D01*
X44481Y13955D01*
X44866Y14883D01*
X44997Y15879D01*
X44866Y16875D01*
X44481Y17803D01*
X43870Y18600D01*
X43073Y19211D01*
X42145Y19596D01*
X41149Y19727D01*
D02*
G37*
G36*
X318860Y8688D02*
Y7063D01*
X320484D01*
X320414Y7414D01*
X319932Y8136D01*
X319211Y8618D01*
X318860Y8688D01*
D02*
G37*
G36*
X317860D02*
X317509Y8618D01*
X316787Y8136D01*
X316305Y7414D01*
X316235Y7063D01*
X317860D01*
Y8688D01*
D02*
G37*
G36*
X320484Y6064D02*
X318860D01*
Y4439D01*
X319211Y4509D01*
X319932Y4991D01*
X320414Y5712D01*
X320484Y6064D01*
D02*
G37*
G36*
X317860D02*
X316235D01*
X316305Y5712D01*
X316787Y4991D01*
X317509Y4509D01*
X317860Y4439D01*
Y6064D01*
D02*
G37*
G36*
X177450Y7233D02*
X176676Y7079D01*
X176019Y6641D01*
X175581Y5984D01*
X175427Y5210D01*
X175581Y4436D01*
X176019Y3779D01*
X176676Y3341D01*
X177450Y3187D01*
X178224Y3341D01*
X178881Y3779D01*
X179319Y4436D01*
X179473Y5210D01*
X179319Y5984D01*
X178881Y6641D01*
X178224Y7079D01*
X177450Y7233D01*
D02*
G37*
G36*
X51440Y16001D02*
X50125Y15872D01*
X48860Y15488D01*
X47695Y14865D01*
X46673Y14027D01*
X45835Y13005D01*
X45212Y11840D01*
X44828Y10575D01*
X44699Y9260D01*
X44828Y7945D01*
X45212Y6680D01*
X45835Y5515D01*
X46673Y4493D01*
X47695Y3655D01*
X48860Y3032D01*
X50125Y2648D01*
X51440Y2519D01*
X52755Y2648D01*
X54020Y3032D01*
X55185Y3655D01*
X56207Y4493D01*
X57045Y5515D01*
X57668Y6680D01*
X58052Y7945D01*
X58181Y9260D01*
X58052Y10575D01*
X57668Y11840D01*
X57045Y13005D01*
X56207Y14027D01*
X55185Y14865D01*
X54020Y15488D01*
X52755Y15872D01*
X51440Y16001D01*
D02*
G37*
G36*
X292880Y16001D02*
X291565Y15871D01*
X290300Y15488D01*
X289135Y14865D01*
X288113Y14027D01*
X287275Y13005D01*
X286652Y11840D01*
X286268Y10575D01*
X286139Y9260D01*
X286268Y7945D01*
X286652Y6680D01*
X287275Y5515D01*
X288113Y4493D01*
X289135Y3655D01*
X290300Y3032D01*
X291565Y2648D01*
X292880Y2519D01*
X294195Y2648D01*
X295460Y3032D01*
X296625Y3655D01*
X297647Y4493D01*
X298485Y5515D01*
X299108Y6680D01*
X299492Y7945D01*
X299621Y9260D01*
X299492Y10575D01*
X299108Y11840D01*
X298485Y13005D01*
X297647Y14027D01*
X296625Y14865D01*
X295460Y15488D01*
X294195Y15871D01*
X292880Y16001D01*
D02*
G37*
%LPD*%
D14*
X19720Y132212D02*
X21598Y130335D01*
X299354Y130290D02*
X299998Y130934D01*
X32318Y132212D02*
X33335D01*
D33*
X29338Y27690D02*
D03*
X41149Y69490D02*
D03*
X29338D02*
D03*
X311430Y30664D02*
D03*
D34*
X32318Y132212D02*
D03*
X25626Y102685D02*
D03*
Y110559D02*
D03*
X38224Y102685D02*
D03*
Y110559D02*
D03*
D35*
X299998Y130934D02*
D03*
X311809Y71879D02*
D03*
D38*
X19720Y132212D02*
D03*
D42*
X329958Y50635D02*
D03*
X318360Y6564D02*
D03*
X63552Y142764D02*
D03*
X49746Y103577D02*
D03*
X61233Y121270D02*
D03*
X157900Y112620D02*
D03*
X197578Y113040D02*
D03*
X196755Y95346D02*
D03*
X228029Y113040D02*
D03*
X255085Y101826D02*
D03*
X286608Y99885D02*
D03*
X274117Y114686D02*
D03*
X328738Y103375D02*
D03*
X328847Y137319D02*
D03*
X288261Y139764D02*
D03*
X285023Y147856D02*
D03*
X258962Y137540D02*
D03*
X241225Y147676D02*
D03*
X222766Y138264D02*
D03*
X201411Y146951D02*
D03*
X158519Y137721D02*
D03*
X138068Y146227D02*
D03*
X116713Y138083D02*
D03*
X92462Y144779D02*
D03*
X137140Y45970D02*
D03*
X246890Y41090D02*
D03*
X223740Y18120D02*
D03*
X108570Y19070D02*
D03*
M02*
