G04*
G04 #@! TF.GenerationSoftware,Altium Limited,Altium Designer,20.1.14 (287)*
G04*
G04 Layer_Color=65535*
%FSLAX25Y25*%
%MOIN*%
G70*
G04*
G04 #@! TF.SameCoordinates,F3919BB7-7B28-4886-AACB-0E40FDAB0E15*
G04*
G04*
G04 #@! TF.FilePolarity,Positive*
G04*
G01*
G75*
%ADD10C,0.00394*%
%ADD11C,0.00787*%
%ADD12C,0.00500*%
%ADD13C,0.01181*%
%ADD14C,0.01000*%
D10*
X153454Y88868D02*
X153439Y89868D01*
X153397Y90867D01*
X153325Y91864D01*
X153226Y92858D01*
X153097Y93849D01*
X152941Y94837D01*
X152757Y95819D01*
X152544Y96796D01*
X152304Y97766D01*
X152036Y98729D01*
X151741Y99684D01*
X151418Y100630D01*
X151069Y101567D01*
X150693Y102493D01*
X150291Y103408D01*
X149863Y104311D01*
X149409Y105202D01*
X148930Y106079D01*
X148426Y106942D01*
X147898Y107791D01*
X147345Y108624D01*
X146769Y109441D01*
X146170Y110241D01*
X145549Y111024D01*
X144905Y111789D01*
X144240Y112535D01*
X143553Y113261D01*
X142847Y113968D01*
X142120Y114655D01*
X141374Y115320D01*
X140609Y115963D01*
X139826Y116585D01*
X139026Y117184D01*
X138209Y117760D01*
X137376Y118312D01*
X136528Y118841D01*
X135664Y119345D01*
X134787Y119824D01*
X133896Y120278D01*
X132993Y120706D01*
X132078Y121108D01*
X131152Y121484D01*
X130215Y121833D01*
X129269Y122155D01*
X128314Y122451D01*
X127351Y122719D01*
X126381Y122959D01*
X125404Y123171D01*
X124422Y123356D01*
X123435Y123512D01*
X122443Y123640D01*
X121449Y123740D01*
X120452Y123811D01*
X119453Y123854D01*
X118454Y123869D01*
X117454Y123854D01*
X116456Y123811D01*
X115459Y123740D01*
X114464Y123640D01*
X113473Y123512D01*
X112485Y123356D01*
X111503Y123171D01*
X110526Y122959D01*
X109556Y122719D01*
X108593Y122451D01*
X107638Y122155D01*
X106692Y121833D01*
X105755Y121484D01*
X104829Y121108D01*
X103914Y120706D01*
X103011Y120278D01*
X102120Y119824D01*
X101243Y119345D01*
X100380Y118841D01*
X99531Y118312D01*
X98698Y117760D01*
X97881Y117184D01*
X97081Y116585D01*
X96298Y115963D01*
X95534Y115320D01*
X94788Y114655D01*
X94061Y113968D01*
X93354Y113261D01*
X92668Y112535D01*
X92002Y111789D01*
X91359Y111024D01*
X90737Y110241D01*
X90138Y109441D01*
X89562Y108624D01*
X89010Y107791D01*
X88481Y106942D01*
X87978Y106079D01*
X87498Y105202D01*
X87045Y104311D01*
X86616Y103408D01*
X86214Y102493D01*
X85838Y101567D01*
X85489Y100630D01*
X85167Y99684D01*
X84871Y98729D01*
X84604Y97766D01*
X84363Y96796D01*
X84151Y95819D01*
X83966Y94837D01*
X83810Y93850D01*
X83682Y92858D01*
X83582Y91864D01*
X83511Y90867D01*
X83468Y89868D01*
X83454Y88868D01*
X83468Y87869D01*
X83511Y86870D01*
X83582Y85873D01*
X83682Y84879D01*
X83810Y83887D01*
X83966Y82900D01*
X84151Y81918D01*
X84363Y80941D01*
X84604Y79971D01*
X84871Y79008D01*
X85167Y78053D01*
X85489Y77107D01*
X85838Y76170D01*
X86214Y75244D01*
X86616Y74329D01*
X87045Y73426D01*
X87498Y72535D01*
X87978Y71658D01*
X88481Y70795D01*
X89010Y69946D01*
X89562Y69113D01*
X90138Y68296D01*
X90737Y67496D01*
X91359Y66713D01*
X92002Y65948D01*
X92668Y65202D01*
X93354Y64476D01*
X94061Y63769D01*
X94788Y63082D01*
X95534Y62417D01*
X96298Y61774D01*
X97081Y61152D01*
X97881Y60553D01*
X98698Y59977D01*
X99531Y59425D01*
X100380Y58896D01*
X101243Y58392D01*
X102120Y57913D01*
X103011Y57459D01*
X103914Y57031D01*
X104829Y56629D01*
X105755Y56253D01*
X106692Y55904D01*
X107638Y55581D01*
X108593Y55286D01*
X109556Y55018D01*
X110526Y54778D01*
X111503Y54566D01*
X112486Y54381D01*
X113473Y54225D01*
X114464Y54097D01*
X115459Y53997D01*
X116456Y53926D01*
X117454Y53883D01*
X118454Y53869D01*
X119453Y53883D01*
X120452Y53926D01*
X121449Y53997D01*
X122443Y54097D01*
X123435Y54225D01*
X124422Y54381D01*
X125404Y54566D01*
X126381Y54778D01*
X127351Y55018D01*
X128314Y55286D01*
X129269Y55582D01*
X130215Y55904D01*
X131152Y56253D01*
X132078Y56629D01*
X132993Y57031D01*
X133896Y57460D01*
X134787Y57913D01*
X135664Y58392D01*
X136528Y58896D01*
X137376Y59425D01*
X138209Y59977D01*
X139026Y60553D01*
X139826Y61152D01*
X140609Y61774D01*
X141374Y62417D01*
X142120Y63082D01*
X142846Y63769D01*
X143553Y64476D01*
X144239Y65202D01*
X144905Y65948D01*
X145548Y66713D01*
X146170Y67496D01*
X146769Y68296D01*
X147345Y69113D01*
X147897Y69946D01*
X148426Y70794D01*
X148930Y71658D01*
X149409Y72535D01*
X149863Y73426D01*
X150291Y74329D01*
X150693Y75244D01*
X151069Y76170D01*
X151418Y77107D01*
X151741Y78053D01*
X152036Y79008D01*
X152304Y79971D01*
X152544Y80941D01*
X152757Y81918D01*
X152941Y82900D01*
X153097Y83887D01*
X153226Y84878D01*
X153325Y85873D01*
X153397Y86870D01*
X153439Y87869D01*
X153454Y88868D01*
X272284Y89099D02*
X272269Y90098D01*
X272227Y91097D01*
X272155Y92094D01*
X272056Y93088D01*
X271927Y94080D01*
X271771Y95067D01*
X271586Y96049D01*
X271374Y97026D01*
X271134Y97996D01*
X270866Y98959D01*
X270571Y99914D01*
X270248Y100860D01*
X269899Y101797D01*
X269523Y102723D01*
X269121Y103638D01*
X268693Y104541D01*
X268239Y105432D01*
X267760Y106309D01*
X267256Y107172D01*
X266727Y108021D01*
X266175Y108854D01*
X265599Y109671D01*
X265000Y110471D01*
X264379Y111254D01*
X263735Y112019D01*
X263070Y112765D01*
X262383Y113491D01*
X261677Y114198D01*
X260950Y114884D01*
X260204Y115550D01*
X259439Y116193D01*
X258656Y116815D01*
X257856Y117414D01*
X257039Y117990D01*
X256206Y118542D01*
X255358Y119071D01*
X254494Y119575D01*
X253617Y120054D01*
X252726Y120508D01*
X251823Y120936D01*
X250908Y121338D01*
X249982Y121714D01*
X249045Y122063D01*
X248099Y122386D01*
X247144Y122681D01*
X246181Y122949D01*
X245211Y123189D01*
X244234Y123401D01*
X243252Y123586D01*
X242265Y123742D01*
X241273Y123870D01*
X240279Y123970D01*
X239282Y124041D01*
X238283Y124084D01*
X237284Y124099D01*
X236284Y124084D01*
X235286Y124041D01*
X234289Y123970D01*
X233294Y123870D01*
X232303Y123742D01*
X231315Y123586D01*
X230333Y123401D01*
X229356Y123189D01*
X228386Y122949D01*
X227423Y122681D01*
X226468Y122386D01*
X225522Y122063D01*
X224585Y121714D01*
X223659Y121338D01*
X222744Y120936D01*
X221841Y120508D01*
X220950Y120054D01*
X220073Y119575D01*
X219210Y119071D01*
X218361Y118542D01*
X217528Y117990D01*
X216711Y117414D01*
X215911Y116815D01*
X215128Y116193D01*
X214364Y115550D01*
X213618Y114884D01*
X212891Y114198D01*
X212184Y113491D01*
X211498Y112765D01*
X210833Y112019D01*
X210189Y111254D01*
X209567Y110471D01*
X208968Y109671D01*
X208392Y108854D01*
X207840Y108021D01*
X207312Y107173D01*
X206808Y106309D01*
X206329Y105432D01*
X205875Y104541D01*
X205447Y103638D01*
X205044Y102723D01*
X204668Y101797D01*
X204319Y100860D01*
X203997Y99914D01*
X203701Y98959D01*
X203433Y97996D01*
X203193Y97026D01*
X202981Y96049D01*
X202796Y95067D01*
X202640Y94080D01*
X202512Y93088D01*
X202412Y92094D01*
X202341Y91097D01*
X202298Y90098D01*
X202284Y89099D01*
X202298Y88099D01*
X202341Y87100D01*
X202412Y86103D01*
X202512Y85109D01*
X202640Y84118D01*
X202796Y83130D01*
X202981Y82148D01*
X203193Y81171D01*
X203433Y80201D01*
X203701Y79238D01*
X203997Y78283D01*
X204319Y77337D01*
X204668Y76400D01*
X205044Y75474D01*
X205447Y74559D01*
X205875Y73656D01*
X206329Y72765D01*
X206808Y71888D01*
X207312Y71025D01*
X207840Y70176D01*
X208392Y69343D01*
X208968Y68526D01*
X209567Y67726D01*
X210189Y66943D01*
X210833Y66178D01*
X211498Y65432D01*
X212184Y64706D01*
X212891Y63999D01*
X213618Y63313D01*
X214364Y62647D01*
X215128Y62003D01*
X215911Y61382D01*
X216711Y60783D01*
X217528Y60207D01*
X218361Y59655D01*
X219210Y59126D01*
X220073Y58622D01*
X220950Y58143D01*
X221841Y57689D01*
X222744Y57261D01*
X223659Y56859D01*
X224586Y56483D01*
X225522Y56134D01*
X226468Y55812D01*
X227423Y55516D01*
X228386Y55248D01*
X229356Y55008D01*
X230333Y54796D01*
X231315Y54611D01*
X232303Y54455D01*
X233294Y54327D01*
X234289Y54227D01*
X235286Y54156D01*
X236284Y54113D01*
X237284Y54098D01*
X238283Y54113D01*
X239282Y54156D01*
X240279Y54227D01*
X241273Y54327D01*
X242265Y54455D01*
X243252Y54611D01*
X244234Y54796D01*
X245211Y55008D01*
X246181Y55248D01*
X247144Y55516D01*
X248099Y55812D01*
X249045Y56134D01*
X249982Y56483D01*
X250908Y56859D01*
X251823Y57261D01*
X252726Y57690D01*
X253617Y58143D01*
X254494Y58622D01*
X255358Y59126D01*
X256206Y59655D01*
X257039Y60207D01*
X257856Y60783D01*
X258656Y61382D01*
X259439Y62003D01*
X260204Y62647D01*
X260950Y63313D01*
X261676Y63999D01*
X262383Y64706D01*
X263070Y65432D01*
X263735Y66178D01*
X264378Y66943D01*
X265000Y67726D01*
X265599Y68526D01*
X266175Y69343D01*
X266727Y70176D01*
X267256Y71025D01*
X267760Y71888D01*
X268239Y72765D01*
X268692Y73656D01*
X269121Y74559D01*
X269523Y75474D01*
X269899Y76400D01*
X270248Y77337D01*
X270571Y78283D01*
X270866Y79238D01*
X271134Y80201D01*
X271374Y81171D01*
X271586Y82148D01*
X271771Y83130D01*
X271927Y84117D01*
X272056Y85109D01*
X272155Y86103D01*
X272227Y87100D01*
X272269Y88099D01*
X272284Y89098D01*
X154335Y10571D02*
Y14509D01*
X154295Y17142D02*
Y21079D01*
X154405Y29741D02*
Y33678D01*
Y23721D02*
Y27659D01*
X152545Y23731D02*
Y27668D01*
X152465Y29632D02*
Y33569D01*
X188205Y94301D02*
Y98238D01*
X187925Y106941D02*
Y110879D01*
X33334Y2788D02*
Y11784D01*
X-5741Y2788D02*
X33334D01*
X-5741D02*
Y40780D01*
X33334D01*
Y31784D02*
Y40780D01*
Y73585D02*
Y82581D01*
X-5741D02*
X33334D01*
X-5741Y44588D02*
Y82581D01*
Y44588D02*
X33334D01*
Y53584D01*
X307872Y136839D02*
X307872Y136839D01*
X307872Y136839D02*
Y144025D01*
Y65973D02*
X307872Y65973D01*
X307872Y58788D02*
Y65973D01*
Y58788D02*
X346848D01*
Y144025D01*
X307872D02*
X346848D01*
X307434Y46569D02*
Y55566D01*
X346509D01*
Y17573D02*
Y55566D01*
X307434Y17573D02*
X346509D01*
X307434D02*
Y26569D01*
D11*
X20507Y148354D02*
X19720D01*
X20507D01*
X174191Y137697D02*
X173535Y138353D01*
X172223D01*
X171567Y137697D01*
Y137041D01*
X172223Y136385D01*
X173535D01*
X174191Y135729D01*
Y135073D01*
X173535Y134417D01*
X172223D01*
X171567Y135073D01*
X177471Y138353D02*
X176159D01*
X175503Y137697D01*
Y135073D01*
X176159Y134417D01*
X177471D01*
X178127Y135073D01*
Y137697D01*
X177471Y138353D01*
X179439Y134417D02*
Y137041D01*
X180751Y138353D01*
X182063Y137041D01*
Y134417D01*
Y136385D01*
X179439D01*
X183375Y134417D02*
Y138353D01*
X185343D01*
X185998Y137697D01*
Y136385D01*
X185343Y135729D01*
X183375D01*
X184687D02*
X185998Y134417D01*
X180127Y139987D02*
Y142087D01*
X181177Y143136D01*
X182227Y142087D01*
Y139987D01*
Y141562D01*
X180127D01*
X183276Y143136D02*
Y141037D01*
X184326Y139987D01*
X185375Y141037D01*
Y143136D01*
X186425Y142611D02*
X186949Y143136D01*
X187999D01*
X188524Y142611D01*
Y142087D01*
X187999Y141562D01*
X187474D01*
X187999D01*
X188524Y141037D01*
Y140512D01*
X187999Y139987D01*
X186949D01*
X186425Y140512D01*
X189573Y139987D02*
Y140512D01*
X190098D01*
Y139987D01*
X189573D01*
X192197Y142611D02*
X192722Y143136D01*
X193771D01*
X194296Y142611D01*
Y142087D01*
X193771Y141562D01*
X193246D01*
X193771D01*
X194296Y141037D01*
Y140512D01*
X193771Y139987D01*
X192722D01*
X192197Y140512D01*
D12*
X-25319Y91268D02*
Y145598D01*
Y91268D02*
X3578D01*
X-25319Y145598D02*
X3578D01*
X43421Y91268D02*
Y145598D01*
X19720D02*
X26413D01*
X19720Y91268D02*
X26413D01*
D13*
X162461Y146455D02*
Y140551D01*
Y142519D01*
X166397Y146455D01*
X163445Y143503D01*
X166397Y140551D01*
X168365Y146455D02*
Y140551D01*
X172300D01*
X174268Y146455D02*
Y140551D01*
X177220D01*
X178204Y141535D01*
Y142519D01*
X177220Y143503D01*
X174268D01*
X177220D01*
X178204Y144487D01*
Y145471D01*
X177220Y146455D01*
X174268D01*
D14*
X168286Y33022D02*
X167630Y33678D01*
X166318D01*
X165662Y33022D01*
Y32366D01*
X166318Y31710D01*
X167630D01*
X168286Y31054D01*
Y30398D01*
X167630Y29742D01*
X166318D01*
X165662Y30398D01*
X172222Y33022D02*
X171566Y33678D01*
X170254D01*
X169598Y33022D01*
Y32366D01*
X170254Y31710D01*
X171566D01*
X172222Y31054D01*
Y30398D01*
X171566Y29742D01*
X170254D01*
X169598Y30398D01*
X176158Y29742D02*
X173534D01*
X176158Y32366D01*
Y33022D01*
X175502Y33678D01*
X174190D01*
X173534Y33022D01*
X134322Y32892D02*
X133666Y33548D01*
X132354D01*
X131698Y32892D01*
Y32236D01*
X132354Y31580D01*
X133666D01*
X134322Y30924D01*
Y30268D01*
X133666Y29612D01*
X132354D01*
X131698Y30268D01*
X138258Y32892D02*
X137602Y33548D01*
X136290D01*
X135634Y32892D01*
Y32236D01*
X136290Y31580D01*
X137602D01*
X138258Y30924D01*
Y30268D01*
X137602Y29612D01*
X136290D01*
X135634Y30268D01*
X139570Y29612D02*
X140882D01*
X140226D01*
Y33548D01*
X139570Y32892D01*
X161481Y100110D02*
Y104046D01*
X163449D01*
X164105Y103390D01*
Y102078D01*
X163449Y101422D01*
X161481D01*
X162793D02*
X164105Y100110D01*
X168040Y104046D02*
X165417D01*
Y100110D01*
X168040D01*
X165417Y102078D02*
X166728D01*
X171976Y103390D02*
X171320Y104046D01*
X170008D01*
X169352Y103390D01*
Y100766D01*
X170008Y100110D01*
X171320D01*
X171976Y100766D01*
X173288Y99454D02*
X175912D01*
X177224Y100110D02*
Y104046D01*
X179192D01*
X179848Y103390D01*
Y102078D01*
X179192Y101422D01*
X177224D01*
X181160Y104046D02*
Y100110D01*
X182472Y101422D01*
X183783Y100110D01*
Y104046D01*
X185095Y100110D02*
Y104046D01*
X187063D01*
X187719Y103390D01*
Y102078D01*
X187063Y101422D01*
X185095D01*
X186407D02*
X187719Y100110D01*
X169087Y112620D02*
Y116556D01*
X171054D01*
X171710Y115900D01*
Y114588D01*
X171054Y113932D01*
X169087D01*
X170398D02*
X171710Y112620D01*
X173022Y116556D02*
Y112620D01*
X174990D01*
X175646Y113276D01*
Y113932D01*
X174990Y114588D01*
X173022D01*
X174990D01*
X175646Y115244D01*
Y115900D01*
X174990Y116556D01*
X173022D01*
X176958Y111964D02*
X179582D01*
X180894Y112620D02*
Y116556D01*
X182862D01*
X183518Y115900D01*
Y114588D01*
X182862Y113932D01*
X180894D01*
X184830Y116556D02*
Y112620D01*
X186142Y113932D01*
X187453Y112620D01*
Y116556D01*
X118439Y23920D02*
Y27856D01*
X119751Y26544D01*
X121063Y27856D01*
Y23920D01*
X122374Y27856D02*
Y23920D01*
X124342D01*
X124998Y24576D01*
Y25232D01*
X124342Y25888D01*
X122374D01*
X124342D01*
X124998Y26544D01*
Y27200D01*
X124342Y27856D01*
X122374D01*
X126310Y23264D02*
X128934D01*
X130246Y23920D02*
Y27856D01*
X132214D01*
X132870Y27200D01*
Y25888D01*
X132214Y25232D01*
X130246D01*
X134182Y27856D02*
Y23920D01*
X135494Y25232D01*
X136805Y23920D01*
Y27856D01*
X138117Y23920D02*
Y27856D01*
X140085D01*
X140741Y27200D01*
Y25888D01*
X140085Y25232D01*
X138117D01*
X139429D02*
X140741Y23920D01*
X168193Y20260D02*
X167537Y20916D01*
X166225D01*
X165569Y20260D01*
Y17636D01*
X166225Y16980D01*
X167537D01*
X168193Y17636D01*
Y18948D01*
X166881D01*
X172128Y20260D02*
X171472Y20916D01*
X170160D01*
X169504Y20260D01*
Y19604D01*
X170160Y18948D01*
X171472D01*
X172128Y18292D01*
Y17636D01*
X171472Y16980D01*
X170160D01*
X169504Y17636D01*
X173440Y16324D02*
X176064D01*
X177376Y16980D02*
Y20916D01*
X179344D01*
X180000Y20260D01*
Y18948D01*
X179344Y18292D01*
X177376D01*
X181312Y20916D02*
Y16980D01*
X182624Y18292D01*
X183935Y16980D01*
Y20916D01*
X185247Y16980D02*
Y20916D01*
X187215D01*
X187871Y20260D01*
Y18948D01*
X187215Y18292D01*
X185247D01*
X186559D02*
X187871Y16980D01*
X165519Y14456D02*
Y10520D01*
X167487D01*
X168143Y11176D01*
Y11832D01*
X167487Y12488D01*
X165519D01*
X167487D01*
X168143Y13144D01*
Y13800D01*
X167487Y14456D01*
X165519D01*
X169455D02*
Y10520D01*
X171422D01*
X172078Y11176D01*
Y11832D01*
X171422Y12488D01*
X169455D01*
X171422D01*
X172078Y13144D01*
Y13800D01*
X171422Y14456D01*
X169455D01*
X173390Y9864D02*
X176014D01*
X177326Y10520D02*
Y14456D01*
X179294D01*
X179950Y13800D01*
Y12488D01*
X179294Y11832D01*
X177326D01*
X181262Y14456D02*
Y10520D01*
X182574Y11832D01*
X183886Y10520D01*
Y14456D01*
X185197Y10520D02*
Y14456D01*
X187165D01*
X187821Y13800D01*
Y12488D01*
X187165Y11832D01*
X185197D01*
X186509D02*
X187821Y10520D01*
X165679Y23530D02*
Y26154D01*
X166991Y27466D01*
X168303Y26154D01*
Y23530D01*
Y25498D01*
X165679D01*
X169615Y27466D02*
Y24842D01*
X170926Y23530D01*
X172238Y24842D01*
Y27466D01*
X173550Y22874D02*
X176174D01*
X177486Y23530D02*
Y27466D01*
X179454D01*
X180110Y26810D01*
Y25498D01*
X179454Y24842D01*
X177486D01*
X181422Y27466D02*
Y23530D01*
X182734Y24842D01*
X184046Y23530D01*
Y27466D01*
X185357Y23530D02*
Y27466D01*
X187325D01*
X187981Y26810D01*
Y25498D01*
X187325Y24842D01*
X185357D01*
X186669D02*
X187981Y23530D01*
X207950Y126830D02*
Y129454D01*
X209262Y130766D01*
X210574Y129454D01*
Y126830D01*
Y128798D01*
X207950D01*
X211886Y130766D02*
Y128142D01*
X213198Y126830D01*
X214510Y128142D01*
Y130766D01*
X215822D02*
X217133D01*
X216477D01*
Y126830D01*
X215822D01*
X217133D01*
X221069Y130766D02*
X219757D01*
X219101Y130110D01*
Y127486D01*
X219757Y126830D01*
X221069D01*
X221725Y127486D01*
Y130110D01*
X221069Y130766D01*
X223037Y126830D02*
Y130766D01*
X225661Y126830D01*
Y130766D01*
X226973D02*
X228285D01*
X227629D01*
Y126830D01*
X226973D01*
X228285D01*
X232876Y130110D02*
X232220Y130766D01*
X230908D01*
X230253Y130110D01*
Y127486D01*
X230908Y126830D01*
X232220D01*
X232876Y127486D01*
X236812Y130110D02*
X236156Y130766D01*
X234844D01*
X234188Y130110D01*
Y129454D01*
X234844Y128798D01*
X236156D01*
X236812Y128142D01*
Y127486D01*
X236156Y126830D01*
X234844D01*
X234188Y127486D01*
X244684Y130110D02*
X244028Y130766D01*
X242716D01*
X242060Y130110D01*
Y129454D01*
X242716Y128798D01*
X244028D01*
X244684Y128142D01*
Y127486D01*
X244028Y126830D01*
X242716D01*
X242060Y127486D01*
X245995Y130766D02*
Y126830D01*
X247307Y128142D01*
X248619Y126830D01*
Y130766D01*
X249931D02*
X251243D01*
X250587D01*
Y126830D01*
X249931D01*
X251243D01*
X253211Y130766D02*
X255835D01*
X254523D01*
Y126830D01*
X259771Y130110D02*
X259115Y130766D01*
X257803D01*
X257147Y130110D01*
Y127486D01*
X257803Y126830D01*
X259115D01*
X259771Y127486D01*
X261083Y130766D02*
Y126830D01*
Y128798D01*
X263706D01*
Y130766D01*
Y126830D01*
X89750Y127330D02*
Y131266D01*
X91718D01*
X92374Y130610D01*
Y129298D01*
X91718Y128642D01*
X89750D01*
X91062D02*
X92374Y127330D01*
X96310Y131266D02*
X93686D01*
Y127330D01*
X96310D01*
X93686Y129298D02*
X94998D01*
X100245Y130610D02*
X99589Y131266D01*
X98277D01*
X97622Y130610D01*
Y127986D01*
X98277Y127330D01*
X99589D01*
X100245Y127986D01*
X103525Y131266D02*
X102213D01*
X101557Y130610D01*
Y127986D01*
X102213Y127330D01*
X103525D01*
X104181Y127986D01*
Y130610D01*
X103525Y131266D01*
X105493D02*
Y128642D01*
X106805Y127330D01*
X108117Y128642D01*
Y131266D01*
X112053D02*
X109429D01*
Y127330D01*
X112053D01*
X109429Y129298D02*
X110741D01*
X113364Y127330D02*
Y131266D01*
X115332D01*
X115988Y130610D01*
Y129298D01*
X115332Y128642D01*
X113364D01*
X114676D02*
X115988Y127330D01*
X117300Y131266D02*
Y130610D01*
X118612Y129298D01*
X119924Y130610D01*
Y131266D01*
X118612Y129298D02*
Y127330D01*
X127796Y130610D02*
X127139Y131266D01*
X125828D01*
X125172Y130610D01*
Y129954D01*
X125828Y129298D01*
X127139D01*
X127796Y128642D01*
Y127986D01*
X127139Y127330D01*
X125828D01*
X125172Y127986D01*
X129107Y131266D02*
Y127330D01*
X130419Y128642D01*
X131731Y127330D01*
Y131266D01*
X133043D02*
X134355D01*
X133699D01*
Y127330D01*
X133043D01*
X134355D01*
X136323Y131266D02*
X138947D01*
X137635D01*
Y127330D01*
X142883Y130610D02*
X142227Y131266D01*
X140915D01*
X140259Y130610D01*
Y127986D01*
X140915Y127330D01*
X142227D01*
X142883Y127986D01*
X144194Y131266D02*
Y127330D01*
Y129298D01*
X146818D01*
Y131266D01*
Y127330D01*
X49704Y96356D02*
X48392D01*
X49048D01*
Y93076D01*
X48392Y92420D01*
X47736D01*
X47080Y93076D01*
X51016Y92420D02*
X52328D01*
X51672D01*
Y96356D01*
X51016Y95700D01*
X326644Y11046D02*
X325332D01*
X325988D01*
Y7766D01*
X325332Y7110D01*
X324676D01*
X324020Y7766D01*
X330580Y11046D02*
X327956D01*
Y9078D01*
X329268Y9734D01*
X329924D01*
X330580Y9078D01*
Y7766D01*
X329924Y7110D01*
X328612D01*
X327956Y7766D01*
X38784Y8466D02*
X37472D01*
X38128D01*
Y5186D01*
X37472Y4530D01*
X36816D01*
X36160Y5186D01*
X42064Y4530D02*
Y8466D01*
X40096Y6498D01*
X42720D01*
X40056Y50016D02*
X38744D01*
X39400D01*
Y46736D01*
X38744Y46080D01*
X38088D01*
X37432Y46736D01*
X41368Y49360D02*
X42024Y50016D01*
X43336D01*
X43992Y49360D01*
Y48704D01*
X43336Y48048D01*
X42680D01*
X43336D01*
X43992Y47392D01*
Y46736D01*
X43336Y46080D01*
X42024D01*
X41368Y46736D01*
X332554Y150586D02*
X331242D01*
X331898D01*
Y147306D01*
X331242Y146650D01*
X330586D01*
X329930Y147306D01*
X336490Y146650D02*
X333866D01*
X336490Y149274D01*
Y149930D01*
X335834Y150586D01*
X334522D01*
X333866Y149930D01*
M02*
