G04*
G04 #@! TF.GenerationSoftware,Altium Limited,Altium Designer,20.1.14 (287)*
G04*
G04 Layer_Physical_Order=4*
G04 Layer_Color=16711680*
%FSLAX25Y25*%
%MOIN*%
G70*
G04*
G04 #@! TF.SameCoordinates,F3919BB7-7B28-4886-AACB-0E40FDAB0E15*
G04*
G04*
G04 #@! TF.FilePolarity,Positive*
G04*
G01*
G75*
%ADD14C,0.01000*%
%ADD15R,0.03543X0.03543*%
%ADD18C,0.01181*%
%ADD19O,0.01575X0.01181*%
%ADD31C,0.13000*%
%ADD32R,0.13000X0.13000*%
%ADD33C,0.06024*%
%ADD34C,0.04756*%
%ADD35C,0.07087*%
%ADD36R,0.06024X0.06024*%
%ADD37R,0.07087X0.07087*%
%ADD38R,0.04756X0.04756*%
%ADD39C,0.06000*%
%ADD40C,0.13055*%
%ADD41C,0.11811*%
%ADD42C,0.02362*%
%ADD43R,0.02126X0.02362*%
%ADD44R,0.06299X0.03937*%
%ADD45R,0.01260X0.02598*%
%ADD46R,0.05394X0.11063*%
%ADD47R,0.05069X0.12956*%
%ADD48R,0.03543X0.03543*%
G04:AMPARAMS|DCode=49|XSize=23.62mil|YSize=7.87mil|CornerRadius=1.97mil|HoleSize=0mil|Usage=FLASHONLY|Rotation=270.000|XOffset=0mil|YOffset=0mil|HoleType=Round|Shape=RoundedRectangle|*
%AMROUNDEDRECTD49*
21,1,0.02362,0.00394,0,0,270.0*
21,1,0.01968,0.00787,0,0,270.0*
1,1,0.00394,-0.00197,-0.00984*
1,1,0.00394,-0.00197,0.00984*
1,1,0.00394,0.00197,0.00984*
1,1,0.00394,0.00197,-0.00984*
%
%ADD49ROUNDEDRECTD49*%
G04:AMPARAMS|DCode=50|XSize=41.34mil|YSize=15.75mil|CornerRadius=3.94mil|HoleSize=0mil|Usage=FLASHONLY|Rotation=180.000|XOffset=0mil|YOffset=0mil|HoleType=Round|Shape=RoundedRectangle|*
%AMROUNDEDRECTD50*
21,1,0.04134,0.00787,0,0,180.0*
21,1,0.03347,0.01575,0,0,180.0*
1,1,0.00787,-0.01673,0.00394*
1,1,0.00787,0.01673,0.00394*
1,1,0.00787,0.01673,-0.00394*
1,1,0.00787,-0.01673,-0.00394*
%
%ADD50ROUNDEDRECTD50*%
%ADD51C,0.02362*%
%ADD52C,0.03150*%
G36*
X43410Y102600D02*
X72710Y73300D01*
X185297Y73300D01*
Y72838D01*
X193203D01*
Y73300D01*
X224530D01*
X224530Y57380D01*
Y51454D01*
X224144Y51136D01*
X224060Y51153D01*
X223286Y50999D01*
X222629Y50561D01*
X222191Y49904D01*
X222037Y49130D01*
X222191Y48356D01*
X222629Y47699D01*
X223286Y47261D01*
X224060Y47107D01*
X224834Y47261D01*
X225003Y47374D01*
X226379Y45997D01*
Y42783D01*
X229593D01*
X233794Y38582D01*
Y38251D01*
X233805Y38200D01*
X233654Y37760D01*
X233441Y37661D01*
X233166Y37607D01*
X232770Y37342D01*
X232506Y36946D01*
X232413Y36479D01*
Y35692D01*
X232506Y35225D01*
X232770Y34829D01*
X233166Y34565D01*
X233633Y34472D01*
X234874D01*
X235142Y33972D01*
X235076Y33874D01*
X234968Y33330D01*
X235076Y32786D01*
X235144Y32684D01*
X234877Y32184D01*
X234814D01*
X234424Y32107D01*
X234093Y31885D01*
X233872Y31555D01*
X233794Y31165D01*
Y30834D01*
X233531Y30570D01*
X195412D01*
Y31468D01*
X193120Y33760D01*
Y57380D01*
X112420Y57380D01*
X105930Y50890D01*
Y44670D01*
X40030D01*
Y53500D01*
X40530Y53913D01*
X41149Y53831D01*
X42145Y53962D01*
X43073Y54347D01*
X43870Y54958D01*
X44481Y55755D01*
X44866Y56683D01*
X44997Y57679D01*
X44866Y58675D01*
X44481Y59603D01*
X43870Y60400D01*
X43073Y61011D01*
X42145Y61396D01*
X41149Y61527D01*
X40530Y61445D01*
X40030Y61858D01*
Y65311D01*
X40530Y65724D01*
X41149Y65642D01*
X42145Y65773D01*
X43073Y66158D01*
X43870Y66769D01*
X44481Y67566D01*
X44866Y68494D01*
X44997Y69490D01*
X44866Y70486D01*
X44481Y71414D01*
X43870Y72211D01*
X43073Y72822D01*
X42145Y73207D01*
X41149Y73338D01*
X40153Y73207D01*
X39225Y72822D01*
X38428Y72211D01*
X37817Y71414D01*
X37432Y70486D01*
X37301Y69490D01*
X37431Y68500D01*
X37444Y68393D01*
X37132Y68000D01*
X33355D01*
X33043Y68393D01*
X33056Y68500D01*
X33186Y69490D01*
X33055Y70486D01*
X32670Y71414D01*
X32059Y72211D01*
X31262Y72822D01*
X30334Y73207D01*
X29338Y73338D01*
X28342Y73207D01*
X27414Y72822D01*
X26617Y72211D01*
X26006Y71414D01*
X25910Y71184D01*
X25423Y71073D01*
X10008Y84855D01*
X10025Y84936D01*
X10409Y85342D01*
X11846Y85201D01*
X13283Y85342D01*
X14665Y85761D01*
X15938Y86442D01*
X17055Y87358D01*
X17971Y88474D01*
X18651Y89748D01*
X19071Y91130D01*
X19212Y92567D01*
X19071Y94004D01*
X18651Y95386D01*
X17971Y96659D01*
X17055Y97776D01*
X15938Y98692D01*
X14665Y99372D01*
X13283Y99792D01*
X11846Y99933D01*
X10409Y99792D01*
X10162Y99717D01*
X9760Y100014D01*
Y121270D01*
X16732D01*
X16941Y120766D01*
X17451Y120101D01*
X18116Y119591D01*
X18890Y119271D01*
X19720Y119161D01*
X20550Y119271D01*
X21324Y119591D01*
X21989Y120101D01*
X22499Y120766D01*
X22708Y121270D01*
X23276D01*
X23446Y120770D01*
X23357Y120702D01*
X22847Y120037D01*
X22526Y119263D01*
X22417Y118433D01*
X22526Y117603D01*
X22847Y116829D01*
X23357Y116164D01*
X24021Y115654D01*
X24795Y115334D01*
X25626Y115224D01*
X26456Y115334D01*
X27230Y115654D01*
X27894Y116164D01*
X28404Y116829D01*
X28725Y117603D01*
X28834Y118433D01*
X28725Y119263D01*
X28404Y120037D01*
X27894Y120702D01*
X27805Y120770D01*
X27975Y121270D01*
X29331D01*
X29540Y120766D01*
X30050Y120101D01*
X30714Y119591D01*
X31488Y119271D01*
X32318Y119161D01*
X33149Y119271D01*
X33923Y119591D01*
X34587Y120101D01*
X35097Y120766D01*
X35306Y121270D01*
X35874D01*
X36044Y120770D01*
X35955Y120702D01*
X35445Y120037D01*
X35125Y119263D01*
X35015Y118433D01*
X35125Y117603D01*
X35445Y116829D01*
X35955Y116164D01*
X36620Y115654D01*
X37394Y115334D01*
X38224Y115224D01*
X39054Y115334D01*
X39828Y115654D01*
X40493Y116164D01*
X41003Y116829D01*
X41323Y117603D01*
X41432Y118433D01*
X41323Y119263D01*
X41003Y120037D01*
X40493Y120702D01*
X40404Y120770D01*
X40574Y121270D01*
X43410D01*
Y102600D01*
D02*
G37*
G36*
X339400Y0D02*
X288089D01*
Y3866D01*
X288589Y4103D01*
X289135Y3655D01*
X290300Y3032D01*
X291565Y2648D01*
X292880Y2519D01*
X294195Y2648D01*
X295460Y3032D01*
X296625Y3655D01*
X297647Y4493D01*
X298485Y5515D01*
X299108Y6680D01*
X299492Y7945D01*
X299621Y9260D01*
X299492Y10575D01*
X299108Y11840D01*
X298485Y13005D01*
X297647Y14027D01*
X296625Y14865D01*
X295460Y15488D01*
X294195Y15871D01*
X292880Y16001D01*
X291565Y15871D01*
X290300Y15488D01*
X289135Y14865D01*
X288589Y14417D01*
X288089Y14653D01*
X288089Y26735D01*
X288589Y27003D01*
X288996Y26731D01*
X289770Y26577D01*
X290544Y26731D01*
X291201Y27169D01*
X291639Y27826D01*
X291793Y28600D01*
X291639Y29374D01*
X291201Y30031D01*
X291099Y30099D01*
Y33780D01*
X290998Y34289D01*
X290709Y34720D01*
X286455Y38974D01*
Y42245D01*
X281305D01*
Y37095D01*
X284576D01*
X286076Y35595D01*
X285885Y35133D01*
X279679D01*
Y98910D01*
X279616Y99223D01*
X279439Y99489D01*
X279173Y99667D01*
X278860Y99729D01*
X256772Y99729D01*
X256620Y100229D01*
X256657Y100253D01*
X257139Y100975D01*
X257209Y101326D01*
X252960D01*
X253030Y100975D01*
X253512Y100253D01*
X253549Y100229D01*
X253397Y99729D01*
X245109Y99729D01*
X244054Y100784D01*
X244281Y101264D01*
X245320Y101162D01*
X246752Y101303D01*
X248128Y101720D01*
X249397Y102398D01*
X250509Y103311D01*
X251422Y104423D01*
X252100Y105692D01*
X252216Y106076D01*
X256725D01*
Y105805D01*
X261875D01*
Y110955D01*
X256725D01*
Y110924D01*
X252216D01*
X252100Y111308D01*
X251422Y112577D01*
X250509Y113689D01*
X249397Y114602D01*
X248128Y115280D01*
X246752Y115698D01*
X245320Y115839D01*
X243888Y115698D01*
X242512Y115280D01*
X241243Y114602D01*
X240131Y113689D01*
X239218Y112577D01*
X238540Y111308D01*
X238123Y109932D01*
X237982Y108500D01*
X238084Y107461D01*
X237604Y107234D01*
X235159Y109679D01*
X234893Y109856D01*
X234580Y109919D01*
X234580Y109919D01*
X204210D01*
X203897Y109856D01*
X203631Y109679D01*
X203453Y109413D01*
X203391Y109100D01*
Y86720D01*
X203453Y86407D01*
X203631Y86141D01*
X203897Y85963D01*
X204210Y85901D01*
X211821D01*
X212035Y85449D01*
X211781Y85139D01*
X211102Y83871D01*
X210685Y82494D01*
X210544Y81062D01*
X210685Y79631D01*
X211102Y78254D01*
X211781Y76985D01*
X212693Y75873D01*
X213805Y74961D01*
X214444Y74619D01*
X214319Y74119D01*
X193203D01*
X192889Y74057D01*
X192624Y73879D01*
X192489Y73677D01*
X186011D01*
X185876Y73879D01*
X185611Y74057D01*
X185297Y74119D01*
X103014Y74119D01*
X102892Y74604D01*
X103129Y74730D01*
X104241Y75643D01*
X105154Y76755D01*
X105832Y78024D01*
X105948Y78408D01*
X108025D01*
Y78365D01*
X113175D01*
Y83515D01*
X108025D01*
Y83257D01*
X105948D01*
X105832Y83640D01*
X105154Y84909D01*
X104241Y86021D01*
X103129Y86934D01*
X101860Y87612D01*
X100484Y88030D01*
X99052Y88171D01*
X97620Y88030D01*
X96244Y87612D01*
X94975Y86934D01*
X93863Y86021D01*
X92950Y84909D01*
X92272Y83640D01*
X91855Y82264D01*
X91714Y80832D01*
X91855Y79400D01*
X92272Y78024D01*
X92950Y76755D01*
X93863Y75643D01*
X94975Y74730D01*
X95212Y74604D01*
X95090Y74119D01*
X73049D01*
X44229Y102939D01*
Y121270D01*
X44167Y121583D01*
X43989Y121849D01*
X43723Y122027D01*
X43410Y122089D01*
X40574D01*
X40547Y122084D01*
X40520Y122087D01*
X40391Y122053D01*
X40260Y122027D01*
X40238Y122011D01*
X40211Y122004D01*
X40106Y121923D01*
X39994Y121849D01*
X39979Y121826D01*
X39958Y121810D01*
X39891Y121694D01*
X39817Y121583D01*
X39372Y121401D01*
X39054Y121532D01*
X38224Y121642D01*
X37394Y121532D01*
X37076Y121401D01*
X36631Y121583D01*
X36557Y121694D01*
X36490Y121810D01*
X36468Y121827D01*
X36453Y121849D01*
X36342Y121923D01*
X36237Y122004D01*
X36210Y122011D01*
X36188Y122027D01*
X36057Y122053D01*
X35928Y122087D01*
X35523Y122399D01*
X35418Y123200D01*
X35097Y123974D01*
X34587Y124639D01*
X33923Y125149D01*
X33149Y125469D01*
X32318Y125578D01*
X31488Y125469D01*
X30714Y125149D01*
X30050Y124639D01*
X29540Y123974D01*
X29219Y123200D01*
X29110Y122370D01*
X28863Y122089D01*
X27975D01*
X27948Y122084D01*
X27922Y122087D01*
X27793Y122053D01*
X27662Y122027D01*
X27639Y122011D01*
X27613Y122004D01*
X27507Y121923D01*
X27396Y121849D01*
X27381Y121826D01*
X27360Y121810D01*
X27293Y121694D01*
X27219Y121583D01*
X26773Y121401D01*
X26456Y121532D01*
X25626Y121642D01*
X24795Y121532D01*
X24478Y121401D01*
X24032Y121583D01*
X23958Y121694D01*
X23892Y121810D01*
X23870Y121827D01*
X23855Y121849D01*
X23744Y121923D01*
X23638Y122004D01*
X23612Y122011D01*
X23589Y122027D01*
X23458Y122053D01*
X23329Y122087D01*
X22925Y122399D01*
X22819Y123200D01*
X22499Y123974D01*
X21989Y124639D01*
X21324Y125149D01*
X20550Y125469D01*
X19720Y125578D01*
X18890Y125469D01*
X18116Y125149D01*
X17451Y124639D01*
X16941Y123974D01*
X16621Y123200D01*
X16511Y122370D01*
X16265Y122089D01*
X9760D01*
X9447Y122027D01*
X9181Y121849D01*
X9003Y121583D01*
X8941Y121270D01*
Y100014D01*
X8953Y99955D01*
X8950Y99894D01*
X8957Y99874D01*
X8987Y99663D01*
X8845Y99348D01*
X8728Y99212D01*
X7754Y98692D01*
X6637Y97776D01*
X5721Y96659D01*
X5040Y95386D01*
X4621Y94004D01*
X4480Y92567D01*
X4621Y91130D01*
X5040Y89748D01*
X5721Y88474D01*
X6637Y87358D01*
X7754Y86442D01*
X9013Y85769D01*
X9031Y85757D01*
X9089Y85691D01*
X9164Y85562D01*
X9260Y85228D01*
X9249Y85163D01*
X9224Y85102D01*
X9207Y85021D01*
X9206Y84914D01*
X9191Y84809D01*
X9205Y84756D01*
X9204Y84701D01*
X9244Y84602D01*
X9271Y84499D01*
X9303Y84456D01*
X9324Y84405D01*
X9399Y84329D01*
X9463Y84244D01*
X24877Y70463D01*
X24937Y70427D01*
X24987Y70380D01*
X25073Y70347D01*
X25152Y70300D01*
X25221Y70290D01*
X25286Y70266D01*
X25309Y69990D01*
X29338D01*
Y68990D01*
X25357D01*
X25429Y68443D01*
X25834Y67467D01*
X26056Y67177D01*
X25835Y66729D01*
X20640D01*
X19680Y66729D01*
X19367Y66667D01*
X19101Y66489D01*
X19006Y66347D01*
X19001Y66345D01*
X18554Y66328D01*
X18456Y66355D01*
X17935Y67330D01*
X17097Y68351D01*
X16075Y69190D01*
X14910Y69813D01*
X13645Y70196D01*
X12330Y70326D01*
X11015Y70196D01*
X9750Y69813D01*
X8585Y69190D01*
X7564Y68351D01*
X6725Y67330D01*
X6102Y66164D01*
X5719Y64900D01*
X5589Y63585D01*
X5719Y62269D01*
X6102Y61005D01*
X6725Y59839D01*
X7564Y58818D01*
X8585Y57979D01*
X9750Y57357D01*
X11015Y56973D01*
X12330Y56843D01*
X13645Y56973D01*
X14910Y57357D01*
X16075Y57979D01*
X17097Y58818D01*
X17935Y59839D01*
X18361Y60636D01*
X18861Y60511D01*
Y26250D01*
X18923Y25937D01*
X19030Y25777D01*
X19100Y25666D01*
X19011Y25209D01*
X18833Y24943D01*
X18829Y24919D01*
X18303Y24841D01*
X17935Y25530D01*
X17097Y26551D01*
X16075Y27389D01*
X14910Y28012D01*
X13645Y28396D01*
X12330Y28526D01*
X11015Y28396D01*
X9750Y28012D01*
X8585Y27389D01*
X7564Y26551D01*
X6725Y25530D01*
X6102Y24364D01*
X5719Y23100D01*
X5589Y21784D01*
X5719Y20469D01*
X6102Y19205D01*
X6725Y18039D01*
X7564Y17018D01*
X8585Y16179D01*
X9750Y15556D01*
X11015Y15173D01*
X12330Y15043D01*
X13645Y15173D01*
X14910Y15556D01*
X16075Y16179D01*
X17097Y17018D01*
X17935Y18039D01*
X18271Y18668D01*
X18771Y18542D01*
X18771Y9110D01*
X18771Y2110D01*
X18833Y1797D01*
X19011Y1531D01*
X19277Y1353D01*
X19590Y1291D01*
X50490Y1291D01*
X50628Y1318D01*
X50766Y1339D01*
X50784Y1350D01*
X50804Y1353D01*
X50920Y1431D01*
X51040Y1503D01*
X51052Y1520D01*
X51069Y1531D01*
X51147Y1647D01*
X51160Y1665D01*
X51350Y1702D01*
X51530D01*
X51719Y1665D01*
X51733Y1647D01*
X51811Y1531D01*
X51828Y1520D01*
X51840Y1503D01*
X51960Y1431D01*
X52076Y1353D01*
X52096Y1350D01*
X52114Y1339D01*
X52252Y1318D01*
X52390Y1291D01*
X168640Y1291D01*
X168953Y1353D01*
X169219Y1531D01*
X169396Y1797D01*
X169459Y2110D01*
Y7129D01*
X169659Y7266D01*
X169742Y7289D01*
X170005Y7048D01*
Y2635D01*
X175155D01*
Y3881D01*
X175951D01*
X176019Y3779D01*
X176676Y3341D01*
X177450Y3187D01*
X178224Y3341D01*
X178881Y3779D01*
X179081Y4080D01*
X179581Y3928D01*
Y0D01*
X0D01*
Y153000D01*
X339400D01*
Y0D01*
D02*
G37*
G36*
X143388Y56561D02*
X143595Y56061D01*
X138013Y50479D01*
X133685Y54808D01*
X133254Y55095D01*
X132745Y55197D01*
X126675D01*
X126167Y55095D01*
X125736Y54808D01*
X125448Y54376D01*
X125347Y53868D01*
X125448Y53360D01*
X125736Y52928D01*
X126167Y52640D01*
X126675Y52539D01*
X132195D01*
X135332Y49402D01*
X135125Y48902D01*
X130230D01*
Y45632D01*
X129712Y45113D01*
X129250Y45305D01*
Y48962D01*
X126730D01*
X126631Y49458D01*
X126343Y49889D01*
X123120Y53112D01*
Y56061D01*
X123546Y56561D01*
X143388Y56561D01*
D02*
G37*
G36*
X117971Y56190D02*
Y51233D01*
X121241D01*
X123072Y49402D01*
X122865Y48902D01*
X117971D01*
Y45625D01*
X117512Y45425D01*
X117200Y45678D01*
Y48912D01*
X112306D01*
X112099Y49412D01*
X113930Y51243D01*
X117200D01*
Y55996D01*
X117588Y56332D01*
X117971Y56190D01*
D02*
G37*
G36*
X232229Y50283D02*
X235500D01*
X236460Y49323D01*
Y48333D01*
X236148Y47953D01*
X232229D01*
Y44931D01*
X231729Y44685D01*
X231528Y44838D01*
Y47932D01*
X226634D01*
X226427Y48432D01*
X228258Y50263D01*
X231528D01*
Y54038D01*
X232229D01*
Y50283D01*
D02*
G37*
G36*
X240408Y54084D02*
X240265Y54056D01*
X239834Y53768D01*
X239546Y53336D01*
X239445Y52828D01*
X239546Y52320D01*
X239834Y51888D01*
X240265Y51600D01*
X240774Y51499D01*
X245561D01*
Y49616D01*
X245662Y49108D01*
X245951Y48677D01*
X246183Y48444D01*
X245991Y47982D01*
X244229D01*
Y44712D01*
X243810Y44293D01*
X243349Y44485D01*
Y47922D01*
X240078D01*
X239117Y48883D01*
Y49873D01*
X239016Y50382D01*
X238728Y50813D01*
X237379Y52162D01*
Y54038D01*
X238199D01*
X238512Y54100D01*
X238778Y54277D01*
X238955Y54543D01*
X238964Y54584D01*
X240359D01*
X240408Y54084D01*
D02*
G37*
G36*
X239174Y104506D02*
X239218Y104423D01*
X240131Y103311D01*
X241243Y102398D01*
X241326Y102354D01*
X244770Y98910D01*
X278860Y98910D01*
Y35133D01*
X241179Y35133D01*
X240965Y35346D01*
X240898Y35471D01*
X240877Y35533D01*
X240863Y35601D01*
X240960Y36086D01*
X240851Y36630D01*
X240783Y36731D01*
X241051Y37231D01*
X241113D01*
X241504Y37309D01*
X241834Y37530D01*
X242055Y37861D01*
X242064Y37907D01*
X244953D01*
X245462Y38008D01*
X245893Y38296D01*
X246701Y39105D01*
X246890Y39067D01*
X247664Y39221D01*
X248321Y39659D01*
X248629Y40121D01*
X248641Y40123D01*
X249073Y40411D01*
X250818Y42157D01*
X251106Y42588D01*
X251207Y43096D01*
Y47719D01*
X251106Y48228D01*
X250818Y48659D01*
X249869Y49607D01*
X249560Y49814D01*
Y54856D01*
X249378D01*
Y55463D01*
X244229D01*
Y54856D01*
X243349D01*
Y55403D01*
X238199D01*
Y54856D01*
X237379D01*
Y55433D01*
X232229D01*
Y54856D01*
X231528D01*
Y55413D01*
X226379D01*
Y55332D01*
X225879Y55125D01*
X225349Y55655D01*
Y57380D01*
X225349Y73300D01*
X225287Y73613D01*
X225109Y73879D01*
X224843Y74057D01*
X224530Y74119D01*
X224020D01*
Y77053D01*
X224662Y78254D01*
X225080Y79631D01*
X225221Y81062D01*
X225080Y82494D01*
X224662Y83871D01*
X224020Y85072D01*
Y86720D01*
X222500D01*
X221959Y87164D01*
X220690Y87842D01*
X219314Y88260D01*
X217882Y88401D01*
X216451Y88260D01*
X215074Y87842D01*
X213805Y87164D01*
X213264Y86720D01*
X204210D01*
Y109100D01*
X234580D01*
X239174Y104506D01*
D02*
G37*
G36*
X28012Y65910D02*
X28342Y65773D01*
X29338Y65642D01*
X30334Y65773D01*
X30664Y65910D01*
X38190D01*
X38190Y60089D01*
X37817Y59603D01*
X37432Y58675D01*
X37301Y57679D01*
X37432Y56683D01*
X37817Y55755D01*
X38190Y55269D01*
X38190Y43150D01*
X114160D01*
X118851Y38460D01*
X118831Y38262D01*
X118567Y37866D01*
X118474Y37400D01*
Y36612D01*
X118567Y36145D01*
X118831Y35749D01*
X119227Y35485D01*
X119694Y35392D01*
X120935D01*
X121203Y34892D01*
X121137Y34794D01*
X121029Y34250D01*
X121137Y33706D01*
X121205Y33604D01*
X120938Y33104D01*
X120875D01*
X120485Y33026D01*
X120154Y32805D01*
X119933Y32475D01*
X119855Y32085D01*
Y31754D01*
X119849Y31748D01*
X119176D01*
X119037Y31720D01*
X81210Y31720D01*
X81210Y26250D01*
X45132Y26250D01*
X44915Y26574D01*
X44873Y26750D01*
X44997Y27690D01*
X44866Y28686D01*
X44481Y29614D01*
X43870Y30411D01*
X43073Y31022D01*
X42145Y31407D01*
X41149Y31538D01*
X40153Y31407D01*
X39225Y31022D01*
X38428Y30411D01*
X37817Y29614D01*
X37432Y28686D01*
X37301Y27690D01*
X37425Y26750D01*
X37383Y26574D01*
X37166Y26250D01*
X33321D01*
X33104Y26574D01*
X33062Y26750D01*
X33186Y27690D01*
X33055Y28686D01*
X32670Y29614D01*
X32059Y30411D01*
X31262Y31022D01*
X30334Y31407D01*
X29338Y31538D01*
X28342Y31407D01*
X27414Y31022D01*
X26617Y30411D01*
X26006Y29614D01*
X25621Y28686D01*
X25490Y27690D01*
X25614Y26750D01*
X25572Y26574D01*
X25355Y26250D01*
X19680D01*
Y65910D01*
X20640Y65910D01*
X28012D01*
D02*
G37*
G36*
X207327Y29382D02*
Y25705D01*
X206865Y25514D01*
X204609Y27769D01*
X204179Y28057D01*
X203670Y28159D01*
X203162Y28057D01*
X202730Y27769D01*
X202443Y27338D01*
X202341Y26830D01*
X202443Y26321D01*
X202730Y25890D01*
X211440Y17180D01*
X211871Y16893D01*
X212380Y16791D01*
X222005D01*
X222167Y16547D01*
X222889Y16066D01*
X223240Y15996D01*
Y18120D01*
X224240D01*
Y15996D01*
X224591Y16066D01*
X225312Y16547D01*
X225475Y16791D01*
X227913D01*
X228246Y16458D01*
X228677Y16170D01*
X229185Y16069D01*
X240995D01*
X241297Y16129D01*
X246995D01*
X247504Y16230D01*
X247935Y16518D01*
X248223Y16949D01*
X248324Y17458D01*
X248223Y17966D01*
X247935Y18397D01*
X247504Y18685D01*
X246995Y18786D01*
X241055D01*
X240754Y18726D01*
X229736D01*
X229402Y19060D01*
X228972Y19347D01*
X228463Y19449D01*
X225475D01*
X225312Y19692D01*
X224890Y19974D01*
X225042Y20474D01*
X232031D01*
X232539Y20576D01*
X232970Y20864D01*
X234410Y22303D01*
X237680D01*
Y25297D01*
X238180Y25521D01*
X238481Y25253D01*
Y22363D01*
X241751D01*
X244241Y19873D01*
X244672Y19585D01*
X245181Y19484D01*
X261723D01*
X262231Y19585D01*
X262663Y19873D01*
X264164Y21375D01*
X267435D01*
Y25109D01*
X267935Y25377D01*
X267941Y25372D01*
Y18859D01*
X254710D01*
X254710Y18859D01*
X254397Y18797D01*
X254131Y18619D01*
X250481Y14969D01*
X211939D01*
X203499Y23409D01*
X203233Y23586D01*
X202920Y23649D01*
X202920Y23649D01*
X193102D01*
X193053Y24149D01*
X193544Y24247D01*
X194201Y24685D01*
X194305Y24842D01*
X194805Y24690D01*
Y24255D01*
X199955D01*
Y29405D01*
X200311Y29751D01*
X207010D01*
X207327Y29382D01*
D02*
G37*
G36*
X124709Y26860D02*
Y23733D01*
X127980D01*
X130609Y21103D01*
X131040Y20815D01*
X131549Y20714D01*
X139785D01*
X139976Y20214D01*
X134711Y14949D01*
X107919D01*
X101119Y21749D01*
X101438Y22137D01*
X101620Y22016D01*
X102128Y21914D01*
X118051D01*
X118559Y22016D01*
X118990Y22304D01*
X120470Y23783D01*
X123740D01*
Y27054D01*
X123846Y27160D01*
X124301Y27227D01*
X124709Y26860D01*
D02*
G37*
G36*
X160640Y35234D02*
X168640Y27234D01*
Y24820D01*
X168640Y2110D01*
X52390Y2110D01*
X52365Y2610D01*
X52755Y2648D01*
X54020Y3032D01*
X55185Y3655D01*
X56207Y4493D01*
X57045Y5515D01*
X57668Y6680D01*
X58052Y7945D01*
X58181Y9260D01*
X58052Y10575D01*
X57668Y11840D01*
X57045Y13005D01*
X56207Y14027D01*
X55185Y14865D01*
X54020Y15488D01*
X52755Y15872D01*
X51440Y16001D01*
X50125Y15872D01*
X48860Y15488D01*
X47695Y14865D01*
X46673Y14027D01*
X45835Y13005D01*
X45212Y11840D01*
X44828Y10575D01*
X44699Y9260D01*
X44828Y7945D01*
X45212Y6680D01*
X45835Y5515D01*
X46673Y4493D01*
X47695Y3655D01*
X48860Y3032D01*
X50125Y2648D01*
X50515Y2610D01*
X50490Y2110D01*
X19590Y2110D01*
X19590Y9110D01*
X19590Y24630D01*
X27059D01*
X27414Y24358D01*
X28342Y23973D01*
X29338Y23842D01*
X30334Y23973D01*
X31262Y24358D01*
X31617Y24630D01*
X38870D01*
X39225Y24358D01*
X40153Y23973D01*
X41149Y23842D01*
X42145Y23973D01*
X43073Y24358D01*
X43428Y24630D01*
X97080Y24630D01*
X107580Y14130D01*
X135050D01*
X140690Y19770D01*
X153796D01*
X153796Y28868D01*
X132722Y28859D01*
X130023Y31558D01*
X129592Y31846D01*
X129084Y31947D01*
X128194D01*
Y32085D01*
X128116Y32475D01*
X127895Y32805D01*
X127564Y33026D01*
X127174Y33104D01*
X127111D01*
X126844Y33604D01*
X126912Y33706D01*
X127020Y34250D01*
X126924Y34734D01*
X126961Y34863D01*
X127219Y35234D01*
X160640Y35234D01*
D02*
G37*
G36*
X191640Y55650D02*
X191640Y27747D01*
X191339Y27546D01*
X190901Y26890D01*
X190747Y26116D01*
X190901Y25341D01*
X191339Y24685D01*
X191640Y24484D01*
Y22830D01*
X202920D01*
X211600Y14150D01*
X250820D01*
X254710Y18040D01*
X268760D01*
Y26190D01*
X267260Y27690D01*
X246122D01*
X244860Y28952D01*
X244429Y29240D01*
X243921Y29341D01*
X243625D01*
X242133Y30834D01*
Y31165D01*
X242055Y31555D01*
X241834Y31885D01*
X241504Y32107D01*
X241113Y32184D01*
X241051D01*
X240783Y32684D01*
X240851Y32786D01*
X240960Y33330D01*
X240863Y33814D01*
X240900Y33943D01*
X241158Y34314D01*
X287270Y34314D01*
X287270Y12996D01*
X286652Y11840D01*
X286268Y10575D01*
X286139Y9260D01*
X286268Y7945D01*
X286652Y6680D01*
X287270Y5524D01*
Y0D01*
X180400D01*
X180400Y8710D01*
X169800Y8710D01*
Y27210D01*
X169880Y27290D01*
X161149Y36022D01*
X160798D01*
X160640Y36053D01*
X160640Y36053D01*
X127437Y36053D01*
X127260Y36273D01*
X127137Y36481D01*
X127125Y36543D01*
X127217Y37006D01*
X127109Y37549D01*
X127041Y37652D01*
X127101Y37876D01*
X127293Y38175D01*
X127564Y38229D01*
X127895Y38450D01*
X128116Y38781D01*
X128194Y39171D01*
Y39502D01*
X128571Y39879D01*
X128598Y39897D01*
X128720Y40018D01*
X133211D01*
X133720Y40120D01*
X134151Y40408D01*
X137826Y44083D01*
X137914Y44101D01*
X138571Y44539D01*
X139009Y45196D01*
X139163Y45970D01*
X139009Y46744D01*
X138571Y47401D01*
X138469Y47469D01*
Y49473D01*
X138418Y49726D01*
X144342Y55650D01*
X191640Y55650D01*
D02*
G37*
%LPC*%
G36*
X32818Y117837D02*
Y114996D01*
X35660D01*
X35609Y115378D01*
X35269Y116200D01*
X34728Y116905D01*
X34022Y117447D01*
X33200Y117787D01*
X32818Y117837D01*
D02*
G37*
G36*
X20220D02*
Y114996D01*
X23061D01*
X23011Y115378D01*
X22671Y116200D01*
X22129Y116905D01*
X21424Y117447D01*
X20602Y117787D01*
X20220Y117837D01*
D02*
G37*
G36*
X31818D02*
X31437Y117787D01*
X30615Y117447D01*
X29909Y116905D01*
X29368Y116200D01*
X29027Y115378D01*
X28977Y114996D01*
X31818D01*
Y117837D01*
D02*
G37*
G36*
X19220D02*
X18838Y117787D01*
X18016Y117447D01*
X17311Y116905D01*
X16769Y116200D01*
X16429Y115378D01*
X16379Y114996D01*
X19220D01*
Y117837D01*
D02*
G37*
G36*
X35660Y113996D02*
X32818D01*
Y111155D01*
X33200Y111205D01*
X34022Y111545D01*
X34728Y112087D01*
X35269Y112792D01*
X35609Y113614D01*
X35660Y113996D01*
D02*
G37*
G36*
X23061D02*
X20220D01*
Y111155D01*
X20602Y111205D01*
X21424Y111545D01*
X22129Y112087D01*
X22671Y112792D01*
X23011Y113614D01*
X23061Y113996D01*
D02*
G37*
G36*
X31818D02*
X28977D01*
X29027Y113614D01*
X29368Y112792D01*
X29909Y112087D01*
X30615Y111545D01*
X31437Y111205D01*
X31818Y111155D01*
Y113996D01*
D02*
G37*
G36*
X19220D02*
X16379D01*
X16429Y113614D01*
X16769Y112792D01*
X17311Y112087D01*
X18016Y111545D01*
X18838Y111205D01*
X19220Y111155D01*
Y113996D01*
D02*
G37*
G36*
X38224Y113768D02*
X37394Y113658D01*
X36620Y113338D01*
X35955Y112828D01*
X35445Y112163D01*
X35125Y111389D01*
X35015Y110559D01*
X35125Y109729D01*
X35445Y108955D01*
X35955Y108290D01*
X36620Y107780D01*
X37394Y107460D01*
X38224Y107350D01*
X39054Y107460D01*
X39828Y107780D01*
X40493Y108290D01*
X41003Y108955D01*
X41323Y109729D01*
X41432Y110559D01*
X41323Y111389D01*
X41003Y112163D01*
X40493Y112828D01*
X39828Y113338D01*
X39054Y113658D01*
X38224Y113768D01*
D02*
G37*
G36*
X25626D02*
X24795Y113658D01*
X24021Y113338D01*
X23357Y112828D01*
X22847Y112163D01*
X22526Y111389D01*
X22417Y110559D01*
X22526Y109729D01*
X22847Y108955D01*
X23357Y108290D01*
X24021Y107780D01*
X24795Y107460D01*
X25626Y107350D01*
X26456Y107460D01*
X27230Y107780D01*
X27894Y108290D01*
X28404Y108955D01*
X28725Y109729D01*
X28834Y110559D01*
X28725Y111389D01*
X28404Y112163D01*
X27894Y112828D01*
X27230Y113338D01*
X26456Y113658D01*
X25626Y113768D01*
D02*
G37*
G36*
X31818Y107995D02*
X31437Y107945D01*
X30615Y107604D01*
X29909Y107063D01*
X29368Y106357D01*
X29027Y105535D01*
X28977Y105154D01*
X31818D01*
Y107995D01*
D02*
G37*
G36*
X19220D02*
X18838Y107945D01*
X18016Y107604D01*
X17311Y107063D01*
X16769Y106357D01*
X16429Y105535D01*
X16379Y105154D01*
X19220D01*
Y107995D01*
D02*
G37*
G36*
X20220D02*
Y104654D01*
Y101312D01*
X20602Y101363D01*
X21424Y101703D01*
X21985Y102134D01*
X22510Y101980D01*
X22526Y101855D01*
X22847Y101081D01*
X23357Y100416D01*
X24021Y99906D01*
X24795Y99586D01*
X25626Y99476D01*
X26456Y99586D01*
X27230Y99906D01*
X27894Y100416D01*
X28404Y101081D01*
X28725Y101855D01*
X28834Y102685D01*
X28786Y103047D01*
X29274Y103177D01*
X29368Y102950D01*
X29909Y102244D01*
X30615Y101703D01*
X31437Y101363D01*
X31818Y101312D01*
Y104154D01*
X28642D01*
X28479Y104110D01*
X28404Y104289D01*
X27894Y104954D01*
X27230Y105464D01*
X26456Y105784D01*
X25626Y105894D01*
X24795Y105784D01*
X24021Y105464D01*
X23570Y105118D01*
X23039Y105326D01*
X23011Y105535D01*
X22671Y106357D01*
X22129Y107063D01*
X21424Y107604D01*
X20602Y107945D01*
X20220Y107995D01*
D02*
G37*
G36*
X19220Y104154D02*
X16379D01*
X16429Y103772D01*
X16769Y102950D01*
X17311Y102244D01*
X18016Y101703D01*
X18838Y101363D01*
X19220Y101312D01*
Y104154D01*
D02*
G37*
G36*
X32818Y107995D02*
Y104654D01*
Y101312D01*
X33200Y101363D01*
X34022Y101703D01*
X34584Y102134D01*
X35108Y101980D01*
X35125Y101855D01*
X35445Y101081D01*
X35955Y100416D01*
X36378Y100092D01*
X36146Y99640D01*
X35645Y99792D01*
X34208Y99933D01*
X32771Y99792D01*
X31389Y99372D01*
X30116Y98692D01*
X29000Y97776D01*
X28083Y96659D01*
X27403Y95386D01*
X26983Y94004D01*
X26842Y92567D01*
X26983Y91130D01*
X27403Y89748D01*
X28083Y88474D01*
X29000Y87358D01*
X30116Y86442D01*
X31389Y85761D01*
X32771Y85342D01*
X34208Y85201D01*
X35645Y85342D01*
X37027Y85761D01*
X38301Y86442D01*
X39417Y87358D01*
X40333Y88474D01*
X41014Y89748D01*
X41433Y91130D01*
X41574Y92567D01*
X41433Y94004D01*
X41014Y95386D01*
X40333Y96659D01*
X39417Y97776D01*
X38301Y98692D01*
X37629Y99050D01*
X37785Y99534D01*
X38224Y99476D01*
X39054Y99586D01*
X39828Y99906D01*
X40493Y100416D01*
X41003Y101081D01*
X41323Y101855D01*
X41432Y102685D01*
X41323Y103515D01*
X41003Y104289D01*
X40493Y104954D01*
X39828Y105464D01*
X39054Y105784D01*
X38224Y105894D01*
X37394Y105784D01*
X36620Y105464D01*
X36169Y105118D01*
X35637Y105326D01*
X35609Y105535D01*
X35269Y106357D01*
X34728Y107063D01*
X34022Y107604D01*
X33200Y107945D01*
X32818Y107995D01*
D02*
G37*
G36*
X285523Y149980D02*
Y148356D01*
X287147D01*
X287078Y148707D01*
X286596Y149428D01*
X285874Y149910D01*
X285523Y149980D01*
D02*
G37*
G36*
X284523D02*
X284172Y149910D01*
X283451Y149428D01*
X282968Y148707D01*
X282899Y148356D01*
X284523D01*
Y149980D01*
D02*
G37*
G36*
X241725Y149800D02*
Y148176D01*
X243350D01*
X243280Y148527D01*
X242798Y149248D01*
X242076Y149730D01*
X241725Y149800D01*
D02*
G37*
G36*
X240725D02*
X240374Y149730D01*
X239653Y149248D01*
X239171Y148527D01*
X239101Y148176D01*
X240725D01*
Y149800D01*
D02*
G37*
G36*
X201911Y149075D02*
Y147451D01*
X203535D01*
X203465Y147802D01*
X202983Y148523D01*
X202262Y149005D01*
X201911Y149075D01*
D02*
G37*
G36*
X200911D02*
X200560Y149005D01*
X199838Y148523D01*
X199356Y147802D01*
X199286Y147451D01*
X200911D01*
Y149075D01*
D02*
G37*
G36*
X138568Y148351D02*
Y146727D01*
X140193D01*
X140123Y147078D01*
X139641Y147799D01*
X138919Y148281D01*
X138568Y148351D01*
D02*
G37*
G36*
X137568D02*
X137217Y148281D01*
X136496Y147799D01*
X136014Y147078D01*
X135944Y146727D01*
X137568D01*
Y148351D01*
D02*
G37*
G36*
X287147Y147356D02*
X285523D01*
Y145731D01*
X285874Y145801D01*
X286596Y146283D01*
X287078Y147005D01*
X287147Y147356D01*
D02*
G37*
G36*
X284523D02*
X282899D01*
X282968Y147005D01*
X283451Y146283D01*
X284172Y145801D01*
X284523Y145731D01*
Y147356D01*
D02*
G37*
G36*
X243350Y147176D02*
X241725D01*
Y145551D01*
X242076Y145621D01*
X242798Y146103D01*
X243280Y146825D01*
X243350Y147176D01*
D02*
G37*
G36*
X240725D02*
X239101D01*
X239171Y146825D01*
X239653Y146103D01*
X240374Y145621D01*
X240725Y145551D01*
Y147176D01*
D02*
G37*
G36*
X92962Y146904D02*
Y145279D01*
X94586D01*
X94516Y145630D01*
X94034Y146352D01*
X93313Y146834D01*
X92962Y146904D01*
D02*
G37*
G36*
X91962D02*
X91611Y146834D01*
X90889Y146352D01*
X90407Y145630D01*
X90337Y145279D01*
X91962D01*
Y146904D01*
D02*
G37*
G36*
X203535Y146451D02*
X201911D01*
Y144826D01*
X202262Y144896D01*
X202983Y145378D01*
X203465Y146100D01*
X203535Y146451D01*
D02*
G37*
G36*
X200911D02*
X199286D01*
X199356Y146100D01*
X199838Y145378D01*
X200560Y144896D01*
X200911Y144826D01*
Y146451D01*
D02*
G37*
G36*
X34208Y151665D02*
X32771Y151524D01*
X31389Y151105D01*
X30116Y150424D01*
X29000Y149508D01*
X28083Y148392D01*
X27403Y147118D01*
X26983Y145736D01*
X26842Y144299D01*
X26983Y142862D01*
X27403Y141480D01*
X28083Y140207D01*
X29000Y139091D01*
X30116Y138174D01*
X31389Y137494D01*
X32771Y137074D01*
X34208Y136933D01*
X35645Y137074D01*
X36146Y137226D01*
X36378Y136774D01*
X35955Y136450D01*
X35445Y135785D01*
X35125Y135011D01*
X35079Y134662D01*
X34713Y134528D01*
X34554Y134507D01*
X33923Y134991D01*
X33149Y135312D01*
X32318Y135421D01*
X31488Y135312D01*
X30714Y134991D01*
X30050Y134481D01*
X29540Y133817D01*
X29219Y133043D01*
X29186Y132787D01*
X28659Y132617D01*
X28494Y132794D01*
X28725Y133351D01*
X28834Y134181D01*
X28725Y135011D01*
X28404Y135785D01*
X27894Y136450D01*
X27230Y136960D01*
X26456Y137280D01*
X25626Y137390D01*
X24795Y137280D01*
X24021Y136960D01*
X23357Y136450D01*
X22847Y135785D01*
X22685Y135394D01*
X16539D01*
Y130463D01*
X16513Y130335D01*
X16539Y130206D01*
Y129031D01*
X17714D01*
X17842Y129006D01*
X17970Y129031D01*
X21470D01*
X21598Y129006D01*
X21726Y129031D01*
X22901D01*
Y130206D01*
X22927Y130335D01*
X22901Y130463D01*
Y131758D01*
X23045Y131807D01*
X23401Y131878D01*
X24021Y131402D01*
X24795Y131082D01*
X25626Y130973D01*
X26129Y131039D01*
X28184Y128984D01*
X27853Y128607D01*
X27230Y129086D01*
X26456Y129406D01*
X25626Y129516D01*
X24795Y129406D01*
X24021Y129086D01*
X23357Y128576D01*
X22847Y127911D01*
X22526Y127137D01*
X22417Y126307D01*
X22526Y125477D01*
X22847Y124703D01*
X23357Y124038D01*
X24021Y123528D01*
X24795Y123208D01*
X25626Y123099D01*
X26456Y123208D01*
X27230Y123528D01*
X27894Y124038D01*
X28404Y124703D01*
X28725Y125477D01*
X28834Y126307D01*
X28725Y127137D01*
X28404Y127911D01*
X27926Y128535D01*
X28303Y128865D01*
X29773Y127395D01*
X30204Y127107D01*
X30712Y127006D01*
X34603D01*
X35057Y126626D01*
X35015Y126307D01*
X35125Y125477D01*
X35445Y124703D01*
X35955Y124038D01*
X36620Y123528D01*
X37394Y123208D01*
X38224Y123099D01*
X39054Y123208D01*
X39828Y123528D01*
X40493Y124038D01*
X41003Y124703D01*
X41323Y125477D01*
X41432Y126307D01*
X41323Y127137D01*
X41003Y127911D01*
X40657Y128361D01*
X40904Y128861D01*
X43970D01*
X54851Y117980D01*
X54792Y117683D01*
Y113594D01*
X54903Y113036D01*
Y111252D01*
X58635D01*
Y112746D01*
X58684Y112820D01*
X58838Y113594D01*
Y116547D01*
X260926D01*
X261435Y116649D01*
X261865Y116937D01*
X285606Y140677D01*
X285708Y140661D01*
X285985Y140264D01*
X287761D01*
Y142040D01*
X287365Y142317D01*
X287348Y142419D01*
X291877Y146948D01*
X315768D01*
X317898Y144818D01*
X317690Y144318D01*
X302704Y144318D01*
X302704Y144318D01*
X302390Y144256D01*
X302125Y144078D01*
X301771Y143725D01*
X301593Y143459D01*
X301531Y143146D01*
X301531Y143146D01*
X301531Y139719D01*
X301291Y139379D01*
X301092Y139219D01*
X290886D01*
X290850Y139264D01*
X288761D01*
Y137639D01*
X289112Y137709D01*
X289190Y137761D01*
X289631Y137525D01*
X289631Y130416D01*
Y125964D01*
X289693Y125651D01*
X289871Y125385D01*
X289904Y125363D01*
X289861Y125146D01*
X289861Y113640D01*
X289924Y113327D01*
X289976Y113249D01*
X289691Y112878D01*
X289643Y112782D01*
X289583Y112692D01*
X289573Y112640D01*
X289549Y112592D01*
X289542Y112484D01*
X289521Y112379D01*
Y99735D01*
X289583Y99422D01*
X289648Y99326D01*
X289583Y99230D01*
X289521Y98917D01*
X289521Y98417D01*
X289521Y87890D01*
X289583Y87577D01*
X289761Y87311D01*
X290027Y87134D01*
X290340Y87071D01*
X296483D01*
X296730Y86571D01*
X296201Y85882D01*
X295763Y84825D01*
X295614Y83690D01*
X295763Y82555D01*
X296201Y81498D01*
X296898Y80590D01*
X297806Y79893D01*
X298863Y79455D01*
X299998Y79306D01*
X301132Y79455D01*
X302190Y79893D01*
X303098Y80590D01*
X303795Y81498D01*
X304233Y82555D01*
X304382Y83690D01*
X304233Y84825D01*
X303795Y85882D01*
X303266Y86571D01*
X303512Y87071D01*
X307540D01*
X307853Y87133D01*
X308119Y87311D01*
X308296Y87577D01*
X308359Y87890D01*
X308359Y92084D01*
X308859Y92286D01*
X309617Y91704D01*
X310674Y91266D01*
X311809Y91117D01*
X312944Y91266D01*
X314001Y91704D01*
X314909Y92401D01*
X315605Y93309D01*
X316043Y94366D01*
X316193Y95501D01*
X316043Y96636D01*
X315605Y97693D01*
X314909Y98601D01*
X314001Y99298D01*
X312944Y99735D01*
X311809Y99885D01*
X310674Y99735D01*
X309617Y99298D01*
X308989Y98816D01*
X308485Y98992D01*
X308372Y99370D01*
X308406Y99422D01*
X308469Y99735D01*
Y103766D01*
X308969Y104013D01*
X309617Y103515D01*
X310674Y103077D01*
X311809Y102928D01*
X312944Y103077D01*
X314001Y103515D01*
X314909Y104212D01*
X315605Y105120D01*
X316043Y106177D01*
X316193Y107312D01*
X316043Y108447D01*
X315957Y108656D01*
X321173Y113872D01*
X321461Y114303D01*
X321562Y114812D01*
Y121783D01*
X322062Y121808D01*
X322126Y121154D01*
X322510Y119890D01*
X323133Y118724D01*
X323971Y117703D01*
X324993Y116864D01*
X326158Y116242D01*
X327423Y115858D01*
X328738Y115728D01*
X330053Y115858D01*
X331318Y116242D01*
X332483Y116864D01*
X333505Y117703D01*
X334343Y118724D01*
X334966Y119890D01*
X335350Y121154D01*
X335479Y122469D01*
X335350Y123785D01*
X334966Y125049D01*
X334343Y126215D01*
X333505Y127236D01*
X332483Y128075D01*
X331318Y128697D01*
X330053Y129081D01*
X328738Y129211D01*
X327423Y129081D01*
X326158Y128697D01*
X324993Y128075D01*
X323971Y127236D01*
X323133Y126215D01*
X322510Y125049D01*
X322126Y123785D01*
X322062Y123131D01*
X321562Y123156D01*
Y144361D01*
X321461Y144870D01*
X321173Y145301D01*
X317258Y149216D01*
X316827Y149504D01*
X316318Y149605D01*
X291326D01*
X290818Y149504D01*
X290387Y149216D01*
X260376Y119205D01*
X62968D01*
X62806Y119697D01*
X63288Y120419D01*
X63358Y120770D01*
X59109D01*
X59179Y120419D01*
X59661Y119697D01*
X59498Y119205D01*
X58109D01*
X57589Y119552D01*
X56900Y119689D01*
X45460Y131130D01*
X45028Y131418D01*
X44520Y131519D01*
X41208D01*
X40953Y132019D01*
X41055Y132158D01*
X62714D01*
X66673Y128199D01*
Y127525D01*
X74657D01*
Y128200D01*
X75093Y128853D01*
X75247Y129627D01*
X75093Y130401D01*
X74657Y131054D01*
Y131729D01*
X68864D01*
X64982Y135612D01*
X64326Y136050D01*
X63552Y136204D01*
X48998D01*
X48590Y136426D01*
X48590Y136704D01*
Y140971D01*
X48666D01*
Y146121D01*
X43516D01*
Y145628D01*
X41443D01*
X41433Y145736D01*
X41014Y147118D01*
X40333Y148392D01*
X39417Y149508D01*
X38301Y150424D01*
X37027Y151105D01*
X35645Y151524D01*
X34208Y151665D01*
D02*
G37*
G36*
X140193Y145727D02*
X138568D01*
Y144103D01*
X138919Y144172D01*
X139641Y144654D01*
X140123Y145376D01*
X140193Y145727D01*
D02*
G37*
G36*
X137568D02*
X135944D01*
X136014Y145376D01*
X136496Y144654D01*
X137217Y144172D01*
X137568Y144103D01*
Y145727D01*
D02*
G37*
G36*
X64052Y144888D02*
Y143264D01*
X65676D01*
X65606Y143615D01*
X65124Y144336D01*
X64403Y144818D01*
X64052Y144888D01*
D02*
G37*
G36*
X63052D02*
X62701Y144818D01*
X61979Y144336D01*
X61497Y143615D01*
X61427Y143264D01*
X63052D01*
Y144888D01*
D02*
G37*
G36*
X94586Y144279D02*
X92962D01*
Y142655D01*
X93313Y142725D01*
X94034Y143207D01*
X94516Y143928D01*
X94586Y144279D01*
D02*
G37*
G36*
X91962D02*
X90337D01*
X90407Y143928D01*
X90889Y143207D01*
X91611Y142725D01*
X91962Y142655D01*
Y144279D01*
D02*
G37*
G36*
X65676Y142264D02*
X64052D01*
Y140639D01*
X64403Y140709D01*
X65124Y141191D01*
X65606Y141913D01*
X65676Y142264D01*
D02*
G37*
G36*
X63052D02*
X61427D01*
X61497Y141913D01*
X61979Y141191D01*
X62701Y140709D01*
X63052Y140639D01*
Y142264D01*
D02*
G37*
G36*
X288761Y141888D02*
Y140264D01*
X290386D01*
X290316Y140615D01*
X289834Y141336D01*
X289112Y141818D01*
X288761Y141888D01*
D02*
G37*
G36*
X223266Y140388D02*
Y138764D01*
X224891D01*
X224821Y139115D01*
X224339Y139836D01*
X223617Y140318D01*
X223266Y140388D01*
D02*
G37*
G36*
X222266D02*
X221915Y140318D01*
X221194Y139836D01*
X220712Y139115D01*
X220642Y138764D01*
X222266D01*
Y140388D01*
D02*
G37*
G36*
X117213Y140207D02*
Y138583D01*
X118837D01*
X118767Y138934D01*
X118285Y139655D01*
X117564Y140137D01*
X117213Y140207D01*
D02*
G37*
G36*
X116213D02*
X115862Y140137D01*
X115140Y139655D01*
X114658Y138934D01*
X114588Y138583D01*
X116213D01*
Y140207D01*
D02*
G37*
G36*
X159019Y139845D02*
Y138221D01*
X160643D01*
X160573Y138572D01*
X160091Y139293D01*
X159370Y139776D01*
X159019Y139845D01*
D02*
G37*
G36*
X158019D02*
X157668Y139776D01*
X156946Y139293D01*
X156464Y138572D01*
X156394Y138221D01*
X158019D01*
Y139845D01*
D02*
G37*
G36*
X259462Y139664D02*
Y138040D01*
X261086D01*
X261017Y138391D01*
X260535Y139112D01*
X259813Y139594D01*
X259462Y139664D01*
D02*
G37*
G36*
X258462D02*
X258111Y139594D01*
X257389Y139112D01*
X256908Y138391D01*
X256838Y138040D01*
X258462D01*
Y139664D01*
D02*
G37*
G36*
X329347Y139443D02*
Y137819D01*
X330971D01*
X330902Y138170D01*
X330419Y138891D01*
X329698Y139373D01*
X329347Y139443D01*
D02*
G37*
G36*
X328347D02*
X327996Y139373D01*
X327274Y138891D01*
X326793Y138170D01*
X326723Y137819D01*
X328347D01*
Y139443D01*
D02*
G37*
G36*
X287761Y139264D02*
X286137D01*
X286207Y138913D01*
X286689Y138191D01*
X287410Y137709D01*
X287761Y137639D01*
Y139264D01*
D02*
G37*
G36*
X11846Y151665D02*
X10409Y151524D01*
X9027Y151105D01*
X7754Y150424D01*
X6637Y149508D01*
X5721Y148392D01*
X5040Y147118D01*
X4621Y145736D01*
X4480Y144299D01*
X4621Y142862D01*
X5040Y141480D01*
X5721Y140207D01*
X6637Y139091D01*
X7754Y138174D01*
X9027Y137494D01*
X10409Y137074D01*
X11846Y136933D01*
X13283Y137074D01*
X14665Y137494D01*
X15938Y138174D01*
X17055Y139091D01*
X17971Y140207D01*
X18651Y141480D01*
X19071Y142862D01*
X19212Y144299D01*
X19071Y145736D01*
X18651Y147118D01*
X17971Y148392D01*
X17055Y149508D01*
X15938Y150424D01*
X14665Y151105D01*
X13283Y151524D01*
X11846Y151665D01*
D02*
G37*
G36*
X224891Y137764D02*
X223266D01*
Y136139D01*
X223617Y136209D01*
X224339Y136691D01*
X224821Y137413D01*
X224891Y137764D01*
D02*
G37*
G36*
X222266D02*
X220642D01*
X220712Y137413D01*
X221194Y136691D01*
X221915Y136209D01*
X222266Y136139D01*
Y137764D01*
D02*
G37*
G36*
X118837Y137583D02*
X117213D01*
Y135958D01*
X117564Y136028D01*
X118285Y136510D01*
X118767Y137232D01*
X118837Y137583D01*
D02*
G37*
G36*
X116213D02*
X114588D01*
X114658Y137232D01*
X115140Y136510D01*
X115862Y136028D01*
X116213Y135958D01*
Y137583D01*
D02*
G37*
G36*
X160643Y137221D02*
X159019D01*
Y135597D01*
X159370Y135666D01*
X160091Y136148D01*
X160573Y136870D01*
X160643Y137221D01*
D02*
G37*
G36*
X158019D02*
X156394D01*
X156464Y136870D01*
X156946Y136148D01*
X157668Y135666D01*
X158019Y135597D01*
Y137221D01*
D02*
G37*
G36*
X261086Y137040D02*
X259462D01*
Y135415D01*
X259813Y135485D01*
X260535Y135967D01*
X261017Y136689D01*
X261086Y137040D01*
D02*
G37*
G36*
X258462D02*
X256838D01*
X256908Y136689D01*
X257389Y135967D01*
X258111Y135485D01*
X258462Y135415D01*
Y137040D01*
D02*
G37*
G36*
X330971Y136819D02*
X329347D01*
Y135194D01*
X329698Y135264D01*
X330419Y135746D01*
X330902Y136468D01*
X330971Y136819D01*
D02*
G37*
G36*
X328347D02*
X326723D01*
X326793Y136468D01*
X327274Y135746D01*
X327996Y135264D01*
X328347Y135194D01*
Y136819D01*
D02*
G37*
G36*
X270530Y146505D02*
X269215Y146375D01*
X267950Y145992D01*
X266785Y145369D01*
X265763Y144530D01*
X264925Y143509D01*
X264302Y142343D01*
X263918Y141079D01*
X263789Y139764D01*
X263918Y138449D01*
X264302Y137184D01*
X264925Y136019D01*
X265763Y134997D01*
X266785Y134159D01*
X267950Y133536D01*
X269215Y133152D01*
X270530Y133023D01*
X271845Y133152D01*
X273110Y133536D01*
X274275Y134159D01*
X275297Y134997D01*
X276135Y136019D01*
X276758Y137184D01*
X277142Y138449D01*
X277271Y139764D01*
X277142Y141079D01*
X276758Y142343D01*
X276135Y143509D01*
X275297Y144530D01*
X274275Y145369D01*
X273110Y145992D01*
X271845Y146375D01*
X270530Y146505D01*
D02*
G37*
G36*
X74803D02*
X73488Y146375D01*
X72223Y145992D01*
X71058Y145369D01*
X70037Y144530D01*
X69198Y143509D01*
X68575Y142343D01*
X68192Y141079D01*
X68062Y139764D01*
X68192Y138449D01*
X68575Y137184D01*
X69198Y136019D01*
X70037Y134997D01*
X71058Y134159D01*
X72223Y133536D01*
X73488Y133152D01*
X74803Y133023D01*
X76118Y133152D01*
X77383Y133536D01*
X78548Y134159D01*
X79570Y134997D01*
X80408Y136019D01*
X81031Y137184D01*
X81415Y138449D01*
X81544Y139764D01*
X81415Y141079D01*
X81031Y142343D01*
X80408Y143509D01*
X79570Y144530D01*
X78548Y145369D01*
X77383Y145992D01*
X76118Y146375D01*
X74803Y146505D01*
D02*
G37*
G36*
X61733Y123394D02*
Y121770D01*
X63358D01*
X63288Y122121D01*
X62806Y122843D01*
X62084Y123325D01*
X61733Y123394D01*
D02*
G37*
G36*
X60733D02*
X60382Y123325D01*
X59661Y122843D01*
X59179Y122121D01*
X59109Y121770D01*
X60733D01*
Y123394D01*
D02*
G37*
G36*
X274618Y116811D02*
Y115186D01*
X276242D01*
X276172Y115537D01*
X275690Y116259D01*
X274969Y116741D01*
X274618Y116811D01*
D02*
G37*
G36*
X273618D02*
X273267Y116741D01*
X272545Y116259D01*
X272063Y115537D01*
X271993Y115186D01*
X273618D01*
Y116811D01*
D02*
G37*
G36*
X228529Y115165D02*
Y113540D01*
X230154D01*
X230084Y113891D01*
X229602Y114613D01*
X228880Y115095D01*
X228529Y115165D01*
D02*
G37*
G36*
X227529D02*
X227178Y115095D01*
X226457Y114613D01*
X225975Y113891D01*
X225905Y113540D01*
X227529D01*
Y115165D01*
D02*
G37*
G36*
X198078D02*
Y113540D01*
X199703D01*
X199633Y113891D01*
X199151Y114613D01*
X198429Y115095D01*
X198078Y115165D01*
D02*
G37*
G36*
X197078D02*
X196727Y115095D01*
X196006Y114613D01*
X195524Y113891D01*
X195454Y113540D01*
X197078D01*
Y115165D01*
D02*
G37*
G36*
X158400Y114744D02*
Y113120D01*
X160024D01*
X159955Y113471D01*
X159473Y114193D01*
X158751Y114675D01*
X158400Y114744D01*
D02*
G37*
G36*
X157400D02*
X157049Y114675D01*
X156327Y114193D01*
X155845Y113471D01*
X155776Y113120D01*
X157400D01*
Y114744D01*
D02*
G37*
G36*
X276242Y114186D02*
X274618D01*
Y112562D01*
X274969Y112632D01*
X275690Y113114D01*
X276172Y113835D01*
X276242Y114186D01*
D02*
G37*
G36*
X273618D02*
X271993D01*
X272063Y113835D01*
X272545Y113114D01*
X273267Y112632D01*
X273618Y112562D01*
Y114186D01*
D02*
G37*
G36*
X230154Y112540D02*
X228529D01*
Y110916D01*
X228880Y110986D01*
X229602Y111468D01*
X230084Y112189D01*
X230154Y112540D01*
D02*
G37*
G36*
X227529D02*
X225905D01*
X225975Y112189D01*
X226457Y111468D01*
X227178Y110986D01*
X227529Y110916D01*
Y112540D01*
D02*
G37*
G36*
X199703D02*
X198078D01*
Y110916D01*
X198429Y110986D01*
X199151Y111468D01*
X199633Y112189D01*
X199703Y112540D01*
D02*
G37*
G36*
X197078D02*
X195454D01*
X195524Y112189D01*
X196006Y111468D01*
X196727Y110986D01*
X197078Y110916D01*
Y112540D01*
D02*
G37*
G36*
X160024Y112120D02*
X158400D01*
Y110496D01*
X158751Y110566D01*
X159473Y111048D01*
X159955Y111769D01*
X160024Y112120D01*
D02*
G37*
G36*
X157400D02*
X155776D01*
X155845Y111769D01*
X156327Y111048D01*
X157049Y110566D01*
X157400Y110496D01*
Y112120D01*
D02*
G37*
G36*
X126490Y115609D02*
X125058Y115468D01*
X123682Y115050D01*
X122413Y114372D01*
X121301Y113459D01*
X120388Y112347D01*
X119710Y111078D01*
X119292Y109702D01*
X119151Y108270D01*
X119292Y106838D01*
X119710Y105462D01*
X120388Y104193D01*
X121301Y103081D01*
X122413Y102168D01*
X123682Y101490D01*
X125058Y101073D01*
X126490Y100932D01*
X127922Y101073D01*
X129298Y101490D01*
X130567Y102168D01*
X131679Y103081D01*
X132592Y104193D01*
X133270Y105462D01*
X133386Y105845D01*
X138915D01*
Y105245D01*
X144065D01*
Y110395D01*
X142140D01*
X141968Y110510D01*
X141040Y110695D01*
X133386D01*
X133270Y111078D01*
X132592Y112347D01*
X131679Y113459D01*
X130567Y114372D01*
X129298Y115050D01*
X127922Y115468D01*
X126490Y115609D01*
D02*
G37*
G36*
X50246Y105701D02*
Y104077D01*
X51870D01*
X51801Y104428D01*
X51319Y105149D01*
X50597Y105631D01*
X50246Y105701D01*
D02*
G37*
G36*
X49246D02*
X48895Y105631D01*
X48173Y105149D01*
X47691Y104428D01*
X47622Y104077D01*
X49246D01*
Y105701D01*
D02*
G37*
G36*
X329238Y105499D02*
Y103875D01*
X330862D01*
X330793Y104226D01*
X330311Y104947D01*
X329589Y105429D01*
X329238Y105499D01*
D02*
G37*
G36*
X328238D02*
X327887Y105429D01*
X327166Y104947D01*
X326683Y104226D01*
X326614Y103875D01*
X328238D01*
Y105499D01*
D02*
G37*
G36*
X255585Y103950D02*
Y102326D01*
X257209D01*
X257139Y102677D01*
X256657Y103399D01*
X255936Y103881D01*
X255585Y103950D01*
D02*
G37*
G36*
X254585D02*
X254234Y103881D01*
X253512Y103399D01*
X253030Y102677D01*
X252960Y102326D01*
X254585D01*
Y103950D01*
D02*
G37*
G36*
X51870Y103077D02*
X50246D01*
Y101452D01*
X50597Y101522D01*
X51319Y102004D01*
X51801Y102726D01*
X51870Y103077D01*
D02*
G37*
G36*
X49246D02*
X47622D01*
X47691Y102726D01*
X48173Y102004D01*
X48895Y101522D01*
X49246Y101452D01*
Y103077D01*
D02*
G37*
G36*
X330862Y102875D02*
X329238D01*
Y101251D01*
X329589Y101320D01*
X330311Y101803D01*
X330793Y102524D01*
X330862Y102875D01*
D02*
G37*
G36*
X328238D02*
X326614D01*
X326683Y102524D01*
X327166Y101803D01*
X327887Y101320D01*
X328238Y101251D01*
Y102875D01*
D02*
G37*
G36*
X287108Y102009D02*
Y100385D01*
X288732D01*
X288662Y100736D01*
X288180Y101457D01*
X287459Y101939D01*
X287108Y102009D01*
D02*
G37*
G36*
X286108D02*
X285757Y101939D01*
X285035Y101457D01*
X284553Y100736D01*
X284483Y100385D01*
X286108D01*
Y102009D01*
D02*
G37*
G36*
X288732Y99385D02*
X287108D01*
Y97760D01*
X287459Y97830D01*
X288180Y98312D01*
X288662Y99034D01*
X288732Y99385D01*
D02*
G37*
G36*
X286108D02*
X284483D01*
X284553Y99034D01*
X285035Y98312D01*
X285757Y97830D01*
X286108Y97760D01*
Y99385D01*
D02*
G37*
G36*
X197255Y97470D02*
Y95846D01*
X198880D01*
X198810Y96197D01*
X198328Y96918D01*
X197606Y97400D01*
X197255Y97470D01*
D02*
G37*
G36*
X196255D02*
X195904Y97400D01*
X195183Y96918D01*
X194701Y96197D01*
X194631Y95846D01*
X196255D01*
Y97470D01*
D02*
G37*
G36*
X124915Y99215D02*
X119765D01*
Y94065D01*
X124915D01*
Y95117D01*
X125409Y95239D01*
X126066Y94801D01*
X126840Y94647D01*
X127614Y94801D01*
X128271Y95239D01*
X128709Y95896D01*
X128863Y96670D01*
X128709Y97444D01*
X128271Y98101D01*
X127614Y98539D01*
X126840Y98693D01*
X126066Y98539D01*
X125409Y98101D01*
X124915Y98223D01*
Y99215D01*
D02*
G37*
G36*
X106355Y104208D02*
X91749D01*
Y89602D01*
X106355D01*
Y94480D01*
X112285D01*
Y94065D01*
X117435D01*
Y99215D01*
X115171D01*
X114595Y99329D01*
X106355D01*
Y104208D01*
D02*
G37*
G36*
X198880Y94846D02*
X197255D01*
Y93221D01*
X197606Y93291D01*
X198328Y93773D01*
X198810Y94495D01*
X198880Y94846D01*
D02*
G37*
G36*
X196255D02*
X194631D01*
X194701Y94495D01*
X195183Y93773D01*
X195904Y93291D01*
X196255Y93221D01*
Y94846D01*
D02*
G37*
G36*
X133900Y94113D02*
X133126Y93959D01*
X132469Y93521D01*
X132031Y92864D01*
X131877Y92090D01*
X131901Y91970D01*
X122200Y82269D01*
X120655D01*
Y83515D01*
X115505D01*
Y78365D01*
X120655D01*
Y79611D01*
X122750D01*
X123258Y79712D01*
X123689Y80001D01*
X133780Y90091D01*
X133900Y90067D01*
X134674Y90221D01*
X135331Y90659D01*
X135769Y91316D01*
X135923Y92090D01*
X135769Y92864D01*
X135331Y93521D01*
X134674Y93959D01*
X133900Y94113D01*
D02*
G37*
G36*
X311809Y88074D02*
X310674Y87924D01*
X309617Y87486D01*
X308709Y86790D01*
X308012Y85882D01*
X307574Y84825D01*
X307425Y83690D01*
X307574Y82555D01*
X308012Y81498D01*
X308709Y80590D01*
X309617Y79893D01*
X310674Y79455D01*
X311809Y79306D01*
X312944Y79455D01*
X314001Y79893D01*
X314909Y80590D01*
X315605Y81498D01*
X316043Y82555D01*
X316193Y83690D01*
X316043Y84825D01*
X315605Y85882D01*
X314909Y86790D01*
X314001Y87486D01*
X312944Y87924D01*
X311809Y88074D01*
D02*
G37*
G36*
X328738Y87085D02*
X327423Y86955D01*
X326158Y86571D01*
X324993Y85948D01*
X323971Y85110D01*
X323133Y84089D01*
X322510Y82923D01*
X322126Y81659D01*
X321997Y80344D01*
X322126Y79028D01*
X322510Y77764D01*
X323133Y76598D01*
X323971Y75577D01*
X324993Y74738D01*
X326158Y74116D01*
X327423Y73732D01*
X328738Y73602D01*
X330053Y73732D01*
X331318Y74116D01*
X332483Y74738D01*
X333505Y75577D01*
X334343Y76598D01*
X334966Y77764D01*
X335350Y79028D01*
X335479Y80344D01*
X335350Y81659D01*
X334966Y82923D01*
X334343Y84089D01*
X333505Y85110D01*
X332483Y85948D01*
X331318Y86571D01*
X330053Y86955D01*
X328738Y87085D01*
D02*
G37*
G36*
X312309Y76396D02*
Y72379D01*
X316326D01*
X316235Y73065D01*
X315777Y74170D01*
X315049Y75119D01*
X314100Y75848D01*
X312995Y76305D01*
X312309Y76396D01*
D02*
G37*
G36*
X311309D02*
X310623Y76305D01*
X309518Y75848D01*
X308569Y75119D01*
X307840Y74170D01*
X307382Y73065D01*
X307292Y72379D01*
X311309D01*
Y76396D01*
D02*
G37*
G36*
X299998Y76263D02*
X298863Y76113D01*
X297806Y75675D01*
X296898Y74979D01*
X296201Y74071D01*
X295763Y73014D01*
X295614Y71879D01*
X295763Y70744D01*
X296201Y69687D01*
X296898Y68779D01*
X297806Y68082D01*
X298863Y67644D01*
X299998Y67495D01*
X301132Y67644D01*
X302190Y68082D01*
X303098Y68779D01*
X303795Y69687D01*
X304233Y70744D01*
X304382Y71879D01*
X304233Y73014D01*
X303795Y74071D01*
X303098Y74979D01*
X302190Y75675D01*
X301132Y76113D01*
X299998Y76263D01*
D02*
G37*
G36*
X316326Y71379D02*
X312309D01*
Y67362D01*
X312995Y67453D01*
X314100Y67910D01*
X315049Y68639D01*
X315777Y69588D01*
X316235Y70693D01*
X316326Y71379D01*
D02*
G37*
G36*
X311309D02*
X307292D01*
X307382Y70693D01*
X307840Y69588D01*
X308569Y68639D01*
X309518Y67910D01*
X310623Y67453D01*
X311309Y67362D01*
Y71379D01*
D02*
G37*
G36*
X330457Y52759D02*
Y51135D01*
X332082D01*
X332012Y51486D01*
X331530Y52207D01*
X330808Y52689D01*
X330457Y52759D01*
D02*
G37*
G36*
X329457D02*
X329106Y52689D01*
X328385Y52207D01*
X327903Y51486D01*
X327833Y51135D01*
X329457D01*
Y52759D01*
D02*
G37*
G36*
X332082Y50135D02*
X330457D01*
Y48510D01*
X330808Y48580D01*
X331530Y49062D01*
X332012Y49784D01*
X332082Y50135D01*
D02*
G37*
G36*
X329457D02*
X327833D01*
X327903Y49784D01*
X328385Y49062D01*
X329106Y48580D01*
X329457Y48510D01*
Y50135D01*
D02*
G37*
G36*
X315245Y46290D02*
X307615D01*
Y38660D01*
X315245D01*
Y46290D01*
D02*
G37*
G36*
X299619Y46323D02*
X298623Y46192D01*
X297695Y45807D01*
X296898Y45196D01*
X296287Y44399D01*
X295902Y43471D01*
X295771Y42475D01*
X295902Y41479D01*
X296287Y40551D01*
X296898Y39754D01*
X297695Y39143D01*
X298623Y38758D01*
X299619Y38627D01*
X300615Y38758D01*
X301543Y39143D01*
X302340Y39754D01*
X302952Y40551D01*
X303336Y41479D01*
X303467Y42475D01*
X303336Y43471D01*
X302952Y44399D01*
X302340Y45196D01*
X301543Y45807D01*
X300615Y46192D01*
X299619Y46323D01*
D02*
G37*
G36*
X311930Y34644D02*
Y31164D01*
X315411D01*
X315339Y31711D01*
X314934Y32687D01*
X314291Y33525D01*
X313453Y34168D01*
X312477Y34572D01*
X311930Y34644D01*
D02*
G37*
G36*
X310930D02*
X310383Y34572D01*
X309407Y34168D01*
X308569Y33525D01*
X307926Y32687D01*
X307522Y31711D01*
X307450Y31164D01*
X310930D01*
Y34644D01*
D02*
G37*
G36*
X328438Y43311D02*
X327123Y43181D01*
X325858Y42797D01*
X324693Y42175D01*
X323671Y41336D01*
X322833Y40315D01*
X322210Y39149D01*
X321826Y37885D01*
X321697Y36569D01*
X321826Y35254D01*
X322210Y33990D01*
X322833Y32824D01*
X323671Y31803D01*
X324693Y30964D01*
X325858Y30342D01*
X327123Y29958D01*
X328438Y29828D01*
X329753Y29958D01*
X331018Y30342D01*
X332183Y30964D01*
X333205Y31803D01*
X334043Y32824D01*
X334666Y33990D01*
X335050Y35254D01*
X335179Y36569D01*
X335050Y37885D01*
X334666Y39149D01*
X334043Y40315D01*
X333205Y41336D01*
X332183Y42175D01*
X331018Y42797D01*
X329753Y43181D01*
X328438Y43311D01*
D02*
G37*
G36*
X299619Y34512D02*
X298623Y34381D01*
X297695Y33996D01*
X296898Y33385D01*
X296287Y32588D01*
X295902Y31660D01*
X295771Y30664D01*
X295902Y29668D01*
X296287Y28740D01*
X296898Y27943D01*
X297695Y27332D01*
X298623Y26947D01*
X299619Y26816D01*
X300615Y26947D01*
X301543Y27332D01*
X302340Y27943D01*
X302952Y28740D01*
X303336Y29668D01*
X303467Y30664D01*
X303336Y31660D01*
X302952Y32588D01*
X302340Y33385D01*
X301543Y33996D01*
X300615Y34381D01*
X299619Y34512D01*
D02*
G37*
G36*
X315411Y30164D02*
X311930D01*
Y26683D01*
X312477Y26755D01*
X313453Y27160D01*
X314291Y27803D01*
X314934Y28641D01*
X315339Y29617D01*
X315411Y30164D01*
D02*
G37*
G36*
X310930D02*
X307450D01*
X307522Y29617D01*
X307926Y28641D01*
X308569Y27803D01*
X309407Y27160D01*
X310383Y26755D01*
X310930Y26683D01*
Y30164D01*
D02*
G37*
G36*
X318860Y8688D02*
Y7063D01*
X320484D01*
X320414Y7414D01*
X319932Y8136D01*
X319211Y8618D01*
X318860Y8688D01*
D02*
G37*
G36*
X317860D02*
X317509Y8618D01*
X316787Y8136D01*
X316305Y7414D01*
X316235Y7063D01*
X317860D01*
Y8688D01*
D02*
G37*
G36*
X320484Y6064D02*
X318860D01*
Y4439D01*
X319211Y4509D01*
X319932Y4991D01*
X320414Y5712D01*
X320484Y6064D01*
D02*
G37*
G36*
X317860D02*
X316235D01*
X316305Y5712D01*
X316787Y4991D01*
X317509Y4509D01*
X317860Y4439D01*
Y6064D01*
D02*
G37*
%LPD*%
G36*
X305490Y125964D02*
X290450D01*
Y130416D01*
X290450Y138400D01*
X305490D01*
Y125964D01*
D02*
G37*
G36*
X318062Y143499D02*
Y123970D01*
X306309D01*
Y139572D01*
X302350D01*
X302350Y143146D01*
X302704Y143499D01*
X318062Y143499D01*
D02*
G37*
G36*
X318905Y122966D02*
Y115362D01*
X314369Y110826D01*
X314001Y111109D01*
X312944Y111547D01*
X311809Y111696D01*
X310674Y111547D01*
X309617Y111109D01*
X308969Y110611D01*
X308469Y110858D01*
Y112759D01*
X308461Y112799D01*
X308465Y112839D01*
X308430Y112954D01*
X308406Y113072D01*
X308384Y113106D01*
X308372Y113145D01*
X308296Y113238D01*
X308284Y113256D01*
X308331Y113327D01*
X308393Y113640D01*
Y115646D01*
X308893Y115882D01*
X309617Y115326D01*
X310674Y114888D01*
X311809Y114739D01*
X312944Y114888D01*
X314001Y115326D01*
X314909Y116023D01*
X315605Y116931D01*
X316043Y117988D01*
X316193Y119123D01*
X316043Y120258D01*
X315605Y121315D01*
X314909Y122223D01*
X314351Y122651D01*
X314521Y123151D01*
X318062D01*
X318375Y123213D01*
X318405Y123233D01*
X318905Y122966D01*
D02*
G37*
G36*
X305490Y123970D02*
X305553Y123657D01*
X305730Y123391D01*
X305996Y123213D01*
X306309Y123151D01*
X307574D01*
X307574Y120257D01*
X307425Y119123D01*
X307574Y117988D01*
X307574Y113640D01*
X290680D01*
X290680Y125146D01*
X305490D01*
Y123970D01*
D02*
G37*
G36*
X307650Y112759D02*
Y108629D01*
X307574Y108447D01*
X307425Y107312D01*
X307574Y106177D01*
X307650Y105995D01*
Y99735D01*
X301132D01*
X299998Y99885D01*
X298863Y99735D01*
X290340D01*
Y112379D01*
X290680Y112821D01*
X307574D01*
X307650Y112759D01*
D02*
G37*
G36*
X301026Y98924D02*
X301080Y98927D01*
X301132Y98917D01*
X307540D01*
Y96375D01*
X307425Y95501D01*
X307540Y94627D01*
X307540Y87890D01*
X301216D01*
X301132Y87924D01*
X299998Y88074D01*
X298863Y87924D01*
X298780Y87890D01*
X290340D01*
X290340Y98417D01*
X290340Y98917D01*
X298863D01*
X298916Y98927D01*
X298970Y98924D01*
X299998Y99059D01*
X301026Y98924D01*
D02*
G37*
%LPC*%
G36*
X33350Y61691D02*
X29838D01*
Y58179D01*
X33350D01*
Y61691D01*
D02*
G37*
G36*
X28838D02*
X25326D01*
Y58179D01*
X28838D01*
Y61691D01*
D02*
G37*
G36*
X33350Y57179D02*
X29838D01*
Y53667D01*
X33350D01*
Y57179D01*
D02*
G37*
G36*
X28838D02*
X25326D01*
Y53667D01*
X28838D01*
Y57179D01*
D02*
G37*
G36*
X108070Y21194D02*
X107719Y21125D01*
X106998Y20642D01*
X106516Y19921D01*
X106446Y19570D01*
X108070D01*
Y21194D01*
D02*
G37*
G36*
X109070D02*
Y19070D01*
Y16946D01*
X109421Y17016D01*
X110143Y17497D01*
X110305Y17741D01*
X114371D01*
X114567Y17610D01*
X115075Y17509D01*
X115277Y17549D01*
X120964D01*
X121215Y17499D01*
X127163D01*
X127314Y17469D01*
X133424D01*
X133932Y17570D01*
X134363Y17858D01*
X134651Y18289D01*
X134752Y18798D01*
X134651Y19306D01*
X134363Y19737D01*
X133932Y20025D01*
X133424Y20126D01*
X127435D01*
X127284Y20156D01*
X121417D01*
X121165Y20206D01*
X115488D01*
X115351Y20298D01*
X114843Y20399D01*
X110305D01*
X110143Y20642D01*
X109421Y21125D01*
X109070Y21194D01*
D02*
G37*
G36*
X108070Y18570D02*
X106446D01*
X106516Y18219D01*
X106998Y17497D01*
X107719Y17016D01*
X108070Y16946D01*
Y18570D01*
D02*
G37*
G36*
X33350Y19891D02*
X29838D01*
Y16379D01*
X33350D01*
Y19891D01*
D02*
G37*
G36*
X28838D02*
X25326D01*
Y16379D01*
X28838D01*
Y19891D01*
D02*
G37*
G36*
X41149Y19727D02*
X40153Y19596D01*
X39225Y19211D01*
X38428Y18600D01*
X37817Y17803D01*
X37432Y16875D01*
X37301Y15879D01*
X37432Y14883D01*
X37817Y13955D01*
X38428Y13158D01*
X39225Y12547D01*
X40153Y12162D01*
X41149Y12031D01*
X42145Y12162D01*
X43073Y12547D01*
X43870Y13158D01*
X44481Y13955D01*
X44866Y14883D01*
X44997Y15879D01*
X44866Y16875D01*
X44481Y17803D01*
X43870Y18600D01*
X43073Y19211D01*
X42145Y19596D01*
X41149Y19727D01*
D02*
G37*
G36*
X33350Y15379D02*
X29838D01*
Y11867D01*
X33350D01*
Y15379D01*
D02*
G37*
G36*
X28838D02*
X25326D01*
Y11867D01*
X28838D01*
Y15379D01*
D02*
G37*
%LPD*%
D14*
X56834Y117876D02*
X260926D01*
X291326Y148276D01*
X316318D01*
X46091Y139076D02*
Y143546D01*
X46015Y139000D02*
X46091Y139076D01*
X34208Y144299D02*
X45338D01*
X46091Y143546D01*
X44520Y130190D02*
X56834Y117876D01*
X320233Y114812D02*
Y144361D01*
X316318Y148276D02*
X320233Y144361D01*
X311809Y107312D02*
X312734D01*
X320233Y114812D01*
X193853Y26830D02*
X197380D01*
X193139Y26116D02*
X193853Y26830D01*
X192770Y26116D02*
X193139D01*
X197380Y26830D02*
X197380Y26830D01*
X137140Y45970D02*
Y49473D01*
X283880Y39670D02*
X289770Y33780D01*
Y28600D02*
Y33780D01*
X118080Y80940D02*
X122750D01*
X133900Y92090D01*
X110492Y80832D02*
X110600Y80940D01*
X122340Y96640D02*
X122370Y96670D01*
X126840D01*
X114595Y96905D02*
X114860Y96640D01*
X141040Y108270D02*
X141490Y107820D01*
X259180Y108500D02*
X259300Y108380D01*
X137140Y45276D02*
Y45970D01*
X133211Y41347D02*
X137140Y45276D01*
X133223Y53390D02*
X137140Y49473D01*
X129790Y43313D02*
X132805Y46328D01*
X126832Y43313D02*
X129790D01*
X128169Y41347D02*
X133211D01*
X127658Y40837D02*
X128169Y41347D01*
X127084Y40837D02*
X127658D01*
X126977Y40730D02*
X127084Y40837D01*
X225246Y49130D02*
X228954Y52838D01*
X224060Y49130D02*
X225246D01*
X246744Y52828D02*
X246890Y52682D01*
X248930Y48668D02*
X249879Y47719D01*
Y43096D02*
Y47719D01*
X246890Y49616D02*
Y52682D01*
X247151Y41351D02*
X248133D01*
X249879Y43096D01*
X247839Y48668D02*
X248930D01*
X246890Y41090D02*
X247151Y41351D01*
X246890Y49616D02*
X247839Y48668D01*
X240916Y39235D02*
X244953D01*
X246808Y41090D01*
X246890D01*
X240774Y52828D02*
X246744D01*
X126977Y40155D02*
Y40730D01*
X241055Y17458D02*
X246995D01*
X235105Y17398D02*
X240995D01*
X241055Y17458D01*
X229185Y17398D02*
X235105D01*
X228463Y18120D02*
X229185Y17398D01*
X223740Y18120D02*
X228463D01*
X209902Y26808D02*
X214907Y21803D01*
X232031D01*
X203670Y26830D02*
X212380Y18120D01*
X232031Y21803D02*
X236979Y26752D01*
X212380Y18120D02*
X223740D01*
X172580Y5210D02*
X177450D01*
X132805Y53808D02*
X133223Y53390D01*
X126675Y53868D02*
X132745D01*
X132805Y53808D01*
X109528Y48721D02*
X114625Y53818D01*
X108831Y48721D02*
X109528D01*
X108570Y48460D02*
X108831Y48721D01*
X90620Y28330D02*
X90970Y27980D01*
X84800Y28330D02*
X90620D01*
X114843Y19070D02*
X115075Y18838D01*
X108570Y19070D02*
X114843D01*
X115115Y18878D02*
X121165D01*
X115075Y18838D02*
X115115Y18878D01*
X121215Y18828D02*
X127284D01*
X121165Y18878D02*
X121215Y18828D01*
X127314Y18798D02*
X133424D01*
X127284Y18828D02*
X127314Y18798D01*
X245181Y20813D02*
X261723D01*
X241055Y24938D02*
X245181Y20813D01*
X261723D02*
X264860Y23950D01*
X131549Y22043D02*
X147973D01*
X151040Y25110D01*
X127284Y26308D02*
X131549Y22043D01*
X111223Y26318D02*
X115075D01*
X109414Y28008D02*
X109474Y28068D01*
X118051Y23243D02*
X121165Y26358D01*
X120966Y30419D02*
X121072Y30525D01*
Y31100D01*
X119176Y30419D02*
X120966D01*
X123040Y28233D02*
Y31100D01*
X121072Y40155D02*
Y40730D01*
X120545Y46328D02*
X123040Y43833D01*
X127084Y30618D02*
X129084D01*
X126977Y30724D02*
X127084Y30618D01*
X126977Y30724D02*
Y31100D01*
X125404Y47659D02*
Y48950D01*
Y47659D02*
X126675Y46388D01*
X137833Y26278D02*
X138994Y25118D01*
X133424Y26278D02*
X137833D01*
X144864Y25118D02*
X144934Y25188D01*
X235011Y29605D02*
Y30180D01*
X232260Y27953D02*
X233358D01*
X235011Y29605D01*
X232310Y42001D02*
X232820D01*
X235011Y39810D01*
Y39235D02*
Y39810D01*
X240916Y29605D02*
Y30180D01*
X242509Y28013D02*
X243921D01*
X240916Y29605D02*
X242509Y28013D01*
X239054Y40676D02*
X240651Y42273D01*
X239054Y39342D02*
Y40676D01*
X240651Y42273D02*
X243669D01*
X238948Y39235D02*
X239054Y39342D01*
X237789Y48333D02*
Y49873D01*
Y48333D02*
X240774Y45348D01*
X246995Y24938D02*
X248046Y23888D01*
X258725D02*
X258824Y23986D01*
X109474Y28068D02*
X111223Y26318D01*
X121165Y26358D02*
X123040Y28233D01*
Y40155D02*
Y43833D01*
X118012Y42951D02*
X118851D01*
X121072Y40730D01*
X221652Y26868D02*
X221712Y26808D01*
X223642Y24878D01*
X229185D02*
X232260Y27953D01*
X238948Y27045D02*
X241055Y24938D01*
X238948Y27045D02*
Y30180D01*
X102128Y23243D02*
X118051D01*
X103474Y28008D02*
X109414D01*
X125009Y28583D02*
Y31100D01*
X125115Y40262D02*
Y41596D01*
X125009Y40155D02*
X125115Y40262D01*
X138994Y25118D02*
X144864D01*
X248046Y23888D02*
X252854D01*
X97364Y28008D02*
X102128Y23243D01*
X125009Y28583D02*
X127284Y26308D01*
X115075Y26318D02*
X119176Y30419D01*
X114625Y46338D02*
X118012Y42951D01*
X120545Y53808D02*
X125404Y48950D01*
X125115Y41596D02*
X126832Y43313D01*
X215834Y26868D02*
X221652D01*
X236979Y26752D02*
Y30180D01*
X243921Y28013D02*
X246995Y24938D01*
X234804Y45378D02*
X236979Y43202D01*
X234804Y52858D02*
X237789Y49873D01*
X228954Y45358D02*
X232310Y42001D01*
X243669Y42273D02*
X246804Y45408D01*
X236979Y39235D02*
Y43202D01*
X223642Y24878D02*
X229185D01*
X252854Y23888D02*
X258725D01*
X129084Y30618D02*
X133424Y26278D01*
X41149Y57679D02*
X42079D01*
X17842Y130335D02*
X19720Y132212D01*
X21598Y130335D01*
X24933Y127000D02*
X25626Y126307D01*
X19720Y121613D02*
Y122370D01*
X25626Y133421D02*
Y134181D01*
Y133421D02*
X30712Y128335D01*
X34767D01*
X36623Y130190D01*
X44520D01*
X32318Y103078D02*
Y104654D01*
D15*
X46091Y143546D02*
D03*
X53571D02*
D03*
X46015Y139000D02*
D03*
X53496D02*
D03*
X276400Y39670D02*
D03*
X283880D02*
D03*
X276310Y45560D02*
D03*
X283790D02*
D03*
X172580Y5210D02*
D03*
X165100D02*
D03*
X266780Y108380D02*
D03*
X259300D02*
D03*
X148970Y107820D02*
D03*
X141490D02*
D03*
X118080Y80940D02*
D03*
X110600D02*
D03*
X122340Y96640D02*
D03*
X114860D02*
D03*
D18*
X122450Y37006D02*
D03*
Y34250D02*
D03*
X125599D02*
D03*
X236389Y36086D02*
D03*
Y33330D02*
D03*
X239539D02*
D03*
Y36086D02*
D03*
D19*
X125599Y37006D02*
D03*
D31*
X99052Y80832D02*
D03*
X126490Y108270D02*
D03*
X217882Y81062D02*
D03*
X245320Y108500D02*
D03*
D32*
X99052Y96905D02*
D03*
X217882Y97135D02*
D03*
D33*
X299619Y30664D02*
D03*
X41149Y57679D02*
D03*
X29338Y27690D02*
D03*
X41149Y15879D02*
D03*
Y27690D02*
D03*
Y69490D02*
D03*
X29338D02*
D03*
X311430Y30664D02*
D03*
X299619Y42475D02*
D03*
D34*
X38224Y126307D02*
D03*
X19720Y122370D02*
D03*
X25626Y126307D02*
D03*
Y134181D02*
D03*
X32318Y132212D02*
D03*
X19720Y104654D02*
D03*
Y114496D02*
D03*
X32318Y104654D02*
D03*
Y122370D02*
D03*
Y114496D02*
D03*
X25626Y102685D02*
D03*
Y110559D02*
D03*
Y118433D02*
D03*
X38224Y134181D02*
D03*
Y102685D02*
D03*
Y110559D02*
D03*
Y118433D02*
D03*
D35*
X299998Y95501D02*
D03*
Y130934D02*
D03*
X311809Y107312D02*
D03*
X299998D02*
D03*
Y71879D02*
D03*
Y119123D02*
D03*
X311809D02*
D03*
Y95501D02*
D03*
Y83690D02*
D03*
X299998D02*
D03*
X311809Y71879D02*
D03*
D36*
X311430Y42475D02*
D03*
X29338Y57679D02*
D03*
Y15879D02*
D03*
D37*
X311809Y130934D02*
D03*
D38*
X19720Y132212D02*
D03*
D39*
X74803Y139764D02*
D03*
X270530D02*
D03*
X292880Y9260D02*
D03*
X51440Y9260D02*
D03*
D40*
X11846Y144299D02*
D03*
Y92567D02*
D03*
X34208D02*
D03*
Y144299D02*
D03*
D41*
X12330Y21784D02*
D03*
Y63585D02*
D03*
X328738Y80344D02*
D03*
Y122469D02*
D03*
X328438Y36569D02*
D03*
D42*
X329958Y50635D02*
D03*
X318360Y6564D02*
D03*
X63552Y142764D02*
D03*
X49746Y103577D02*
D03*
X61233Y121270D02*
D03*
X157900Y112620D02*
D03*
X197578Y113040D02*
D03*
X196755Y95346D02*
D03*
X228029Y113040D02*
D03*
X255085Y101826D02*
D03*
X286608Y99885D02*
D03*
X274117Y114686D02*
D03*
X328738Y103375D02*
D03*
X328847Y137319D02*
D03*
X288261Y139764D02*
D03*
X285023Y147856D02*
D03*
X258962Y137540D02*
D03*
X241225Y147676D02*
D03*
X222766Y138264D02*
D03*
X201411Y146951D02*
D03*
X158519Y137721D02*
D03*
X138068Y146227D02*
D03*
X116713Y138083D02*
D03*
X92462Y144779D02*
D03*
X192770Y26116D02*
D03*
X137140Y45970D02*
D03*
X289770Y28600D02*
D03*
X133900Y92090D02*
D03*
X126840Y96670D02*
D03*
X224060Y49130D02*
D03*
X246890Y41090D02*
D03*
X223740Y18120D02*
D03*
X177450Y5210D02*
D03*
X108570Y48460D02*
D03*
X84800Y28330D02*
D03*
X108570Y19070D02*
D03*
D43*
X303778Y141535D02*
D03*
X300377D02*
D03*
X291797Y93587D02*
D03*
X288395D02*
D03*
X291699Y135058D02*
D03*
X288298D02*
D03*
X291702Y106692D02*
D03*
X288300D02*
D03*
X292049Y119481D02*
D03*
X288647D02*
D03*
X56769Y113237D02*
D03*
X60170D02*
D03*
D44*
X70665Y125592D02*
D03*
X189250Y75610D02*
D03*
D45*
X73224Y129627D02*
D03*
X70665D02*
D03*
X68106D02*
D03*
Y121556D02*
D03*
X70665D02*
D03*
X73224D02*
D03*
X186691Y71575D02*
D03*
X189250D02*
D03*
X191809D02*
D03*
Y79645D02*
D03*
X189250D02*
D03*
X186691D02*
D03*
D46*
X284511Y55160D02*
D03*
X273329D02*
D03*
D47*
X157900Y86758D02*
D03*
Y65102D02*
D03*
D48*
X97364Y28008D02*
D03*
Y35488D02*
D03*
X109474Y28068D02*
D03*
Y35548D02*
D03*
X103474Y28008D02*
D03*
Y35488D02*
D03*
X115075Y18838D02*
D03*
Y26318D02*
D03*
X121165Y18878D02*
D03*
Y26358D02*
D03*
X133424Y18798D02*
D03*
Y26278D02*
D03*
X127284Y18828D02*
D03*
Y26308D02*
D03*
X138994Y25118D02*
D03*
Y32598D02*
D03*
X144934Y25188D02*
D03*
Y32668D02*
D03*
X209902Y26808D02*
D03*
Y34288D02*
D03*
X215834Y26868D02*
D03*
Y34348D02*
D03*
X221712Y26808D02*
D03*
Y34288D02*
D03*
X229185Y17398D02*
D03*
Y24878D02*
D03*
X228954Y52838D02*
D03*
Y45358D02*
D03*
X235105Y17398D02*
D03*
Y24878D02*
D03*
X234804Y52858D02*
D03*
Y45378D02*
D03*
X241055Y17458D02*
D03*
Y24938D02*
D03*
X240774Y52828D02*
D03*
Y45348D02*
D03*
X246995Y17458D02*
D03*
Y24938D02*
D03*
X246804Y52888D02*
D03*
Y45408D02*
D03*
X114625Y53818D02*
D03*
Y46338D02*
D03*
X120545Y53808D02*
D03*
Y46328D02*
D03*
X132805Y53808D02*
D03*
Y46328D02*
D03*
X126675Y53868D02*
D03*
Y46388D02*
D03*
X252854Y23888D02*
D03*
Y31368D02*
D03*
X258824Y23986D02*
D03*
Y31466D02*
D03*
X151040Y25110D02*
D03*
Y32590D02*
D03*
X264860Y23950D02*
D03*
Y31430D02*
D03*
X90970Y27980D02*
D03*
Y35460D02*
D03*
X197380Y26830D02*
D03*
Y34310D02*
D03*
X203670Y26830D02*
D03*
Y34310D02*
D03*
D49*
X126977Y40155D02*
D03*
X125009D02*
D03*
X123040D02*
D03*
X121072D02*
D03*
Y31100D02*
D03*
X123040D02*
D03*
X125009D02*
D03*
X126977D02*
D03*
X240916Y39235D02*
D03*
X238948D02*
D03*
X236979D02*
D03*
X235011D02*
D03*
Y30180D02*
D03*
X236979D02*
D03*
X238948D02*
D03*
X240916D02*
D03*
D50*
X121367Y37006D02*
D03*
Y34250D02*
D03*
X126682D02*
D03*
Y37006D02*
D03*
X235306Y36086D02*
D03*
Y33330D02*
D03*
X240621D02*
D03*
Y36086D02*
D03*
D51*
X63552Y134181D02*
X68106Y129627D01*
X56815Y113594D02*
Y117683D01*
X70665Y129627D02*
X73224D01*
X68106D02*
X70665D01*
X38224Y134181D02*
X63552D01*
D52*
X99052Y80832D02*
X110492D01*
X99052Y96905D02*
X114595D01*
X126490Y108270D02*
X141040D01*
X245320Y108500D02*
X259180D01*
M02*
