M48
;Layer_Color=9474304
;FILE_FORMAT=2:4
INCH,TZ
;TYPE=PLATED
T1F00S00C0.0079
T2F00S00C0.0118
T3F00S00C0.0276
T4F00S00C0.0402
T5F00S00C0.0402
T6F00S00C0.0900
T7F00S00C0.0906
T8F00S00C0.1181
;TYPE=NON_PLATED
T9F00S00C0.1181
%
T01
X12245Y3425
Y3701
X12560
Y3425
X23639Y3333
Y3609
X23954
Y3333
T02
X8480Y2833
X10857Y1907
Y4846
X13714Y4597
X13390Y9209
X12684Y9667
X11671Y13808
X13807Y14623
X9246Y14478
X6355Y14276
X6123Y12127
X4975Y10358
X15790Y11262
X15852Y13772
X20141Y14695
X22277Y13826
X24123Y14768
X25896Y13754
X28826Y13976
X28502Y14786
X27412Y11469
X28661Y9988
X25508Y10183
X22803Y11304
X19758
X19676Y9535
X19277Y2612
X17745Y521
X22374Y1812
X22406Y4913
X24689Y4109
X28977Y2860
X31836Y656
X32996Y5063
X32874Y10337
X32885Y13732
T03
X1972Y10465
X2563Y10268
Y11056
Y11843
Y12631
Y13418
X1972Y13221
Y12237
Y11450
X3232
Y12237
X3822Y12631
Y13418
X3232Y13221
X3822Y11843
Y11056
Y10268
X3232Y10465
T04
X30000Y7188
Y8369
Y9550
X31181
Y8369
Y7188
Y10731
X30000
Y11912
X31181
Y13093
X30000
T05
X2934Y1588
Y2769
X4115
Y1588
Y5768
Y6949
X2934
Y5768
X29962Y4248
Y3066
X31143
Y4248
T06
X9905Y8083
Y9690
X12649Y10827
X21788Y9713
Y8106
X24532Y10850
T07
X1185Y9257
X3421
Y14430
X1185
T08
X32874Y8034
Y12247
T09
X1233Y2178
Y6358
X5144Y926
X7480Y13976
X27053
X29288Y926
X32844Y3657
M30
