G04*
G04 #@! TF.GenerationSoftware,Altium Limited,Altium Designer,20.2.6 (244)*
G04*
G04 Layer_Physical_Order=1*
G04 Layer_Color=255*
%FSLAX25Y25*%
%MOIN*%
G70*
G04*
G04 #@! TF.SameCoordinates,23E3F134-E155-4AF0-B130-1C61D597126F*
G04*
G04*
G04 #@! TF.FilePolarity,Positive*
G04*
G01*
G75*
%ADD10C,0.00787*%
%ADD13C,0.00984*%
%ADD16C,0.01181*%
%ADD25R,0.03543X0.03543*%
%ADD31R,0.03543X0.03543*%
%ADD39R,0.04724X0.01181*%
%ADD40R,0.01181X0.04724*%
%ADD41R,0.07874X0.11811*%
%ADD42R,0.01968X0.06496*%
%ADD43R,0.01181X0.02047*%
%ADD44R,0.02087X0.05158*%
%ADD45O,0.05709X0.02362*%
%ADD46R,0.03150X0.03150*%
%ADD47R,0.02087X0.01102*%
%ADD48R,0.01102X0.02087*%
%ADD49R,0.03150X0.01968*%
%ADD50R,0.08268X0.22047*%
%ADD51R,0.03150X0.03150*%
%ADD52C,0.03937*%
%ADD53C,0.07087*%
%ADD54R,0.07087X0.07087*%
%ADD55R,0.07087X0.07087*%
%ADD56C,0.11811*%
%ADD57C,0.06024*%
%ADD58R,0.06024X0.06024*%
%ADD59C,0.02362*%
G36*
X224410Y0D02*
X204724D01*
Y33943D01*
X205543Y34615D01*
X206379Y35634D01*
X207001Y36796D01*
X207383Y38058D01*
X207513Y39370D01*
X207383Y40682D01*
X207001Y41944D01*
X206379Y43106D01*
X205543Y44126D01*
X204724Y44797D01*
Y102362D01*
X204052D01*
Y118512D01*
X194210D01*
Y108005D01*
X187795D01*
Y109260D01*
X184522D01*
X182873Y110909D01*
X183080Y111409D01*
X184736D01*
Y113681D01*
X182465D01*
Y112024D01*
X181965Y111817D01*
X172517Y121265D01*
X172708Y121727D01*
X175531D01*
X176031Y121826D01*
X176454Y122109D01*
X185765Y131420D01*
X186048Y131843D01*
X186147Y132343D01*
Y141543D01*
X187402D01*
Y142798D01*
X194210D01*
Y132291D01*
X204052D01*
Y155913D01*
X194210D01*
Y145407D01*
X187402D01*
Y146661D01*
X182284D01*
Y141543D01*
X183538D01*
Y132883D01*
X174991Y124336D01*
X164645D01*
X164375Y124836D01*
X164507Y125500D01*
X164394Y126067D01*
X164710Y126567D01*
X167536D01*
Y128839D01*
X164764D01*
Y129839D01*
X167536D01*
Y132110D01*
X166954D01*
X166718Y132551D01*
X166815Y132696D01*
X166968Y133465D01*
X166909Y133760D01*
X167319Y134260D01*
X167323D01*
Y135514D01*
X169685D01*
Y134260D01*
X169685Y134260D01*
X169685D01*
X169705Y133760D01*
X169647Y133465D01*
X169799Y132696D01*
X169896Y132551D01*
X169661Y132110D01*
X169473D01*
Y129839D01*
X172244D01*
X175016D01*
Y132110D01*
X173646D01*
X173411Y132551D01*
X173508Y132696D01*
X173661Y133465D01*
X173602Y133760D01*
X173955Y134260D01*
X174803D01*
Y139378D01*
X175276Y139443D01*
X176212D01*
X178020Y137635D01*
X177993Y137500D01*
X178146Y136732D01*
X178581Y136081D01*
X179232Y135646D01*
X180000Y135493D01*
X180768Y135646D01*
X181419Y136081D01*
X181854Y136732D01*
X182007Y137500D01*
X181854Y138268D01*
X181419Y138919D01*
X180768Y139354D01*
X180000Y139507D01*
X179865Y139480D01*
X177674Y141671D01*
X177251Y141953D01*
X176752Y142053D01*
X168051D01*
X167859Y142515D01*
X178245Y152900D01*
X178528Y153324D01*
X178627Y153823D01*
Y187481D01*
X178742Y187557D01*
X179177Y188208D01*
X179330Y188976D01*
X179177Y189744D01*
X178742Y190396D01*
X178091Y190831D01*
X177323Y190983D01*
X176555Y190831D01*
X175904Y190396D01*
X175469Y189744D01*
X175316Y188976D01*
X175469Y188208D01*
X175904Y187557D01*
X176018Y187481D01*
Y154363D01*
X165676Y144021D01*
X159646D01*
Y144095D01*
X154860D01*
X154669Y144556D01*
X171789Y161676D01*
X172071Y162099D01*
X172171Y162598D01*
Y187649D01*
X185137Y200615D01*
X185245Y200641D01*
X185746Y200570D01*
X185765Y200556D01*
X186273Y199895D01*
X187111Y199252D01*
X188087Y198847D01*
X188634Y198775D01*
Y202756D01*
Y206736D01*
X188087Y206664D01*
X187111Y206260D01*
X186273Y205617D01*
X186227Y205558D01*
X185753Y205718D01*
Y210768D01*
X192933D01*
Y218366D01*
X185753D01*
Y225748D01*
X185654Y226247D01*
X185371Y226671D01*
X177831Y234211D01*
X178196Y235090D01*
X178344Y236221D01*
X178196Y237351D01*
X177759Y238405D01*
X177065Y239310D01*
X176160Y240004D01*
X175107Y240440D01*
X175203Y240918D01*
X177292D01*
X180080Y238130D01*
X179757Y237351D01*
X179608Y236221D01*
X179757Y235090D01*
X180193Y234037D01*
X180887Y233132D01*
X181792Y232438D01*
X182846Y232002D01*
X183976Y231853D01*
X185107Y232002D01*
X186160Y232438D01*
X187065Y233132D01*
X187759Y234037D01*
X188196Y235090D01*
X188344Y236221D01*
X188196Y237351D01*
X187759Y238405D01*
X187065Y239310D01*
X186160Y240004D01*
X185107Y240440D01*
X183976Y240589D01*
X182846Y240440D01*
X182067Y240117D01*
X178868Y243316D01*
X178412Y243621D01*
X177874Y243728D01*
X112590D01*
X102175Y254143D01*
X101719Y254448D01*
X101181Y254555D01*
X17323D01*
X16785Y254448D01*
X16329Y254143D01*
X8285Y246098D01*
X8268Y246102D01*
X7500Y245949D01*
X6848Y245514D01*
X6413Y244863D01*
X6261Y244094D01*
X6413Y243326D01*
X6848Y242675D01*
X7500Y242240D01*
X8268Y242087D01*
X9036Y242240D01*
X9687Y242675D01*
X10122Y243326D01*
X10275Y244094D01*
X10271Y244111D01*
X17905Y251745D01*
X21001D01*
X21162Y251271D01*
X20965Y251120D01*
X20271Y250216D01*
X19835Y249162D01*
X19686Y248031D01*
X19835Y246901D01*
X20271Y245848D01*
X20965Y244943D01*
X21870Y244249D01*
X22923Y243812D01*
X24054Y243663D01*
X25184Y243812D01*
X26238Y244249D01*
X27143Y244943D01*
X27837Y245848D01*
X28273Y246901D01*
X28422Y248031D01*
X28273Y249162D01*
X27837Y250216D01*
X27143Y251120D01*
X26946Y251271D01*
X27106Y251745D01*
X31001D01*
X31162Y251271D01*
X30965Y251120D01*
X30271Y250216D01*
X29835Y249162D01*
X29686Y248031D01*
X29835Y246901D01*
X30271Y245848D01*
X30965Y244943D01*
X31870Y244249D01*
X32923Y243812D01*
X34054Y243663D01*
X35184Y243812D01*
X36064Y244177D01*
X55533Y224708D01*
X55473Y224410D01*
X55626Y223641D01*
X56061Y222990D01*
X56712Y222555D01*
X57480Y222402D01*
X58248Y222555D01*
X58899Y222990D01*
X59335Y223641D01*
X59487Y224410D01*
X59335Y225178D01*
X58899Y225829D01*
X58248Y226264D01*
X57522Y226408D01*
X37909Y246022D01*
X38273Y246901D01*
X38422Y248031D01*
X38273Y249162D01*
X37837Y250216D01*
X37143Y251120D01*
X36946Y251271D01*
X37106Y251745D01*
X41001D01*
X41162Y251271D01*
X40965Y251120D01*
X40271Y250216D01*
X39834Y249162D01*
X39686Y248031D01*
X39834Y246901D01*
X40271Y245848D01*
X40965Y244943D01*
X41870Y244249D01*
X42923Y243812D01*
X44054Y243663D01*
X45184Y243812D01*
X46238Y244249D01*
X47142Y244943D01*
X47837Y245848D01*
X48273Y246901D01*
X48422Y248031D01*
X48273Y249162D01*
X47837Y250216D01*
X47142Y251120D01*
X46946Y251271D01*
X47106Y251745D01*
X51000D01*
X51161Y251271D01*
X50965Y251120D01*
X50270Y250216D01*
X49834Y249162D01*
X49685Y248032D01*
X49834Y246901D01*
X50270Y245848D01*
X50965Y244943D01*
X51869Y244249D01*
X52923Y243813D01*
X54053Y243664D01*
X55184Y243813D01*
X56237Y244249D01*
X57142Y244943D01*
X57836Y245848D01*
X58273Y246901D01*
X58421Y248032D01*
X58273Y249162D01*
X57836Y250216D01*
X57142Y251120D01*
X56946Y251271D01*
X57106Y251745D01*
X61002D01*
X61163Y251271D01*
X60965Y251120D01*
X60271Y250215D01*
X59835Y249162D01*
X59686Y248031D01*
X59835Y246901D01*
X60271Y245847D01*
X60965Y244942D01*
X61870Y244248D01*
X62923Y243812D01*
X64054Y243663D01*
X65184Y243812D01*
X66238Y244248D01*
X67143Y244942D01*
X67837Y245847D01*
X68273Y246901D01*
X68422Y248031D01*
X68273Y249162D01*
X67837Y250215D01*
X67143Y251120D01*
X66945Y251271D01*
X67106Y251745D01*
X71002D01*
X71162Y251271D01*
X70965Y251120D01*
X70271Y250215D01*
X69835Y249162D01*
X69686Y248031D01*
X69835Y246901D01*
X70271Y245847D01*
X70965Y244942D01*
X71870Y244248D01*
X72923Y243812D01*
X74054Y243663D01*
X75185Y243812D01*
X76238Y244248D01*
X77143Y244942D01*
X77837Y245847D01*
X78273Y246901D01*
X78422Y248031D01*
X78273Y249162D01*
X77837Y250215D01*
X77143Y251120D01*
X76946Y251271D01*
X77106Y251745D01*
X81002D01*
X81163Y251271D01*
X80965Y251120D01*
X80271Y250215D01*
X79835Y249162D01*
X79686Y248031D01*
X79835Y246901D01*
X80271Y245847D01*
X80965Y244942D01*
X81870Y244248D01*
X82923Y243812D01*
X84054Y243663D01*
X85185Y243812D01*
X86238Y244248D01*
X87143Y244942D01*
X87837Y245847D01*
X88273Y246901D01*
X88422Y248031D01*
X88273Y249162D01*
X87837Y250215D01*
X87143Y251120D01*
X86945Y251271D01*
X87106Y251745D01*
X89723D01*
Y243701D01*
X90565D01*
X90614Y243200D01*
X90078Y243094D01*
X89426Y242659D01*
X88991Y242007D01*
X88839Y241239D01*
X88991Y240471D01*
X89426Y239820D01*
X90078Y239385D01*
X90846Y239232D01*
X91215Y238860D01*
Y233384D01*
X90715Y233177D01*
X89776Y234117D01*
X89802Y234252D01*
X89650Y235020D01*
X89214Y235671D01*
X88563Y236106D01*
X87795Y236259D01*
X87027Y236106D01*
X86376Y235671D01*
X85941Y235020D01*
X85788Y234252D01*
X85941Y233484D01*
X86376Y232833D01*
X87027Y232398D01*
X87795Y232245D01*
X87931Y232272D01*
X88853Y231349D01*
Y208975D01*
X88353Y208768D01*
X86626Y210495D01*
X86653Y210630D01*
X86500Y211398D01*
X86065Y212049D01*
X85414Y212484D01*
X84646Y212637D01*
X83878Y212484D01*
X83227Y212049D01*
X82791Y211398D01*
X82639Y210630D01*
X82791Y209862D01*
X83227Y209211D01*
X83878Y208776D01*
X84646Y208623D01*
X84781Y208650D01*
X86491Y206940D01*
Y197244D01*
X86590Y196745D01*
X86873Y196322D01*
X115213Y167982D01*
X115021Y167520D01*
X112205D01*
Y162402D01*
X115478D01*
X116386Y161493D01*
X116195Y161031D01*
X112205D01*
Y161022D01*
X111705Y160611D01*
X111417Y160669D01*
X110649Y160516D01*
X110496Y160414D01*
X110055Y160649D01*
Y161244D01*
X107784D01*
Y158473D01*
Y155701D01*
X110055D01*
Y156674D01*
X110496Y156909D01*
X110649Y156807D01*
X111417Y156654D01*
X111705Y156712D01*
X112205Y156301D01*
Y155913D01*
X113459D01*
Y154921D01*
X113559Y154422D01*
X113841Y153999D01*
X115163Y152677D01*
X115081Y152052D01*
X114723Y151813D01*
X114287Y151162D01*
X114135Y150394D01*
X114287Y149626D01*
X114723Y148975D01*
X115374Y148539D01*
X116142Y148387D01*
X116910Y148539D01*
X117217Y148744D01*
X117717Y148477D01*
Y147441D01*
X121727D01*
Y146517D01*
X121581Y146419D01*
X121146Y145768D01*
X120993Y145000D01*
X121146Y144232D01*
X121581Y143581D01*
X122232Y143146D01*
X122597Y143073D01*
X122997Y142521D01*
X122993Y142500D01*
X123020Y142365D01*
X120739Y140084D01*
X114370D01*
Y144095D01*
X108071D01*
Y139370D01*
Y135433D01*
Y131496D01*
Y128305D01*
X98496D01*
X98419Y128419D01*
X97851Y128799D01*
X97686Y129341D01*
X100923Y132578D01*
X101205Y133001D01*
X101305Y133500D01*
Y135228D01*
X102980D01*
Y138000D01*
Y140772D01*
X101305D01*
Y143984D01*
X101205Y144483D01*
X101042Y144728D01*
X101261Y145204D01*
X101289Y145228D01*
X102980D01*
Y147500D01*
X100709D01*
Y145828D01*
X100209Y145621D01*
X98559Y147270D01*
Y150559D01*
X93441D01*
Y149297D01*
X92736D01*
X92659Y149411D01*
X92008Y149846D01*
X91240Y149999D01*
X87894D01*
X87126Y149846D01*
X86475Y149411D01*
X86039Y148760D01*
X85887Y147992D01*
X86039Y147224D01*
X86475Y146573D01*
X87126Y146138D01*
X87894Y145985D01*
X91240D01*
X92008Y146138D01*
X92659Y146573D01*
X92736Y146687D01*
X93441D01*
Y145441D01*
X96698D01*
X98695Y143444D01*
Y141003D01*
X98559Y140559D01*
X93441D01*
Y139297D01*
X92736D01*
X92659Y139411D01*
X92008Y139846D01*
X91240Y139999D01*
X87894D01*
X87126Y139846D01*
X86475Y139411D01*
X86039Y138760D01*
X85887Y137992D01*
X86039Y137224D01*
X86475Y136573D01*
X87126Y136138D01*
X87894Y135985D01*
X88262D01*
Y135107D01*
X71960Y118805D01*
X60062D01*
X59563Y118705D01*
X59140Y118422D01*
X51448Y110731D01*
X50822Y110812D01*
X50288Y111508D01*
X49339Y112236D01*
X48234Y112694D01*
X47547Y112784D01*
Y108268D01*
X46547D01*
Y112784D01*
X45861Y112694D01*
X44756Y112236D01*
X43931Y111603D01*
X43431Y111780D01*
Y123086D01*
X60786Y140441D01*
X64059D01*
Y141695D01*
X64936D01*
X65018Y141573D01*
X65669Y141138D01*
X66437Y140985D01*
X69784D01*
X70552Y141138D01*
X71203Y141573D01*
X71638Y142224D01*
X71790Y142992D01*
X71638Y143760D01*
X71203Y144411D01*
X70552Y144846D01*
X69784Y144999D01*
X66437D01*
X65669Y144846D01*
X65018Y144411D01*
X64947Y144305D01*
X64059D01*
Y145559D01*
X58941D01*
Y142286D01*
X57291Y140636D01*
X56791Y140843D01*
Y142500D01*
X54520D01*
Y140228D01*
X56176D01*
X56383Y139728D01*
X41203Y124548D01*
X40921Y124125D01*
X40821Y123626D01*
Y106299D01*
X39789D01*
X39511Y106715D01*
X39663Y107082D01*
X39753Y107768D01*
X35236D01*
Y108768D01*
X39753D01*
X39663Y109454D01*
X39205Y110559D01*
X38477Y111508D01*
X37528Y112236D01*
X37402Y112288D01*
Y131890D01*
X32274D01*
X32224Y132390D01*
X32264Y132398D01*
X32915Y132833D01*
X32992Y132947D01*
X42673D01*
X43007Y132571D01*
X42993Y132500D01*
X43146Y131732D01*
X43581Y131081D01*
X44232Y130646D01*
X45000Y130493D01*
X45768Y130646D01*
X46419Y131081D01*
X46854Y131732D01*
X47007Y132500D01*
X46854Y133268D01*
X46419Y133919D01*
X45768Y134354D01*
X45000Y134507D01*
X44865Y134480D01*
X44170Y135175D01*
X43747Y135457D01*
X43248Y135557D01*
X37162D01*
X37112Y136057D01*
X37349Y136104D01*
X37804Y136408D01*
X45138Y143741D01*
X45917Y143419D01*
X47047Y143270D01*
X48178Y143419D01*
X49231Y143855D01*
X50136Y144549D01*
X50748Y145347D01*
X51217Y145236D01*
X51248Y145218D01*
Y143500D01*
X53520D01*
Y145772D01*
X51503D01*
X51152Y146232D01*
X51266Y146507D01*
X51415Y147638D01*
X51266Y148768D01*
X50830Y149822D01*
X50136Y150726D01*
X49231Y151421D01*
X48568Y151695D01*
X48667Y152195D01*
X49000D01*
X49499Y152295D01*
X49922Y152577D01*
X50786Y153441D01*
X51248Y153250D01*
Y150228D01*
X53520D01*
Y153000D01*
X54020D01*
Y153500D01*
X56791D01*
Y155195D01*
X57460D01*
X58941Y153714D01*
Y150441D01*
X64059D01*
Y151695D01*
X64936D01*
X65018Y151573D01*
X65669Y151138D01*
X66437Y150985D01*
X69784D01*
X70552Y151138D01*
X71203Y151573D01*
X71638Y152224D01*
X71790Y152992D01*
X71638Y153760D01*
X71203Y154411D01*
X70552Y154846D01*
X69784Y154999D01*
X66437D01*
X65669Y154846D01*
X65018Y154411D01*
X64947Y154305D01*
X64059D01*
Y155559D01*
X60786D01*
X58922Y157422D01*
X58499Y157705D01*
X58000Y157805D01*
X52000D01*
X51809Y157767D01*
X51464Y158155D01*
X51450Y158205D01*
X51474Y158263D01*
X51564Y158949D01*
X47047D01*
X42531D01*
X42621Y158263D01*
X43079Y157158D01*
X43807Y156209D01*
X44756Y155480D01*
X45180Y155305D01*
X45081Y154805D01*
X36647D01*
X36548Y155305D01*
X37420Y155666D01*
X38325Y156360D01*
X39019Y157265D01*
X39456Y158318D01*
X39604Y159449D01*
X39456Y160579D01*
X39019Y161633D01*
X38325Y162538D01*
X37420Y163232D01*
X36367Y163668D01*
X35236Y163817D01*
X34106Y163668D01*
X33052Y163232D01*
X32147Y162538D01*
X31453Y161633D01*
X31017Y160579D01*
X30868Y159449D01*
X31017Y158318D01*
X31453Y157265D01*
X32147Y156360D01*
X33052Y155666D01*
X33925Y155305D01*
X33825Y154805D01*
X31846D01*
X31347Y154705D01*
X30924Y154422D01*
X23093Y146592D01*
X22810Y146169D01*
X22711Y145669D01*
Y135354D01*
X22596Y135277D01*
X22162Y134626D01*
X22009Y133858D01*
X22162Y133090D01*
X22307Y132873D01*
X21968Y132480D01*
X17323D01*
X17323Y132480D01*
X16910Y132563D01*
X16910Y132563D01*
X16142Y132716D01*
X15374Y132563D01*
X14723Y132128D01*
X14563Y131890D01*
X0D01*
Y255906D01*
X224410Y255906D01*
X224410Y0D01*
D02*
G37*
G36*
X111014Y241329D02*
X111470Y241025D01*
X112008Y240918D01*
X159323D01*
X159645Y240551D01*
Y231890D01*
X166320D01*
X180311Y217899D01*
X180321Y217832D01*
X180285Y217713D01*
X179707Y217527D01*
X179239Y217885D01*
X178315Y218268D01*
X177323Y218399D01*
X176331Y218268D01*
X175407Y217885D01*
X174613Y217277D01*
X174004Y216483D01*
X173621Y215559D01*
X173491Y214567D01*
X173621Y213575D01*
X173875Y212964D01*
X159314Y198403D01*
X159031Y197980D01*
X158932Y197480D01*
Y180739D01*
X158432Y180472D01*
X158248Y180595D01*
X157480Y180747D01*
X156712Y180595D01*
X156135Y180209D01*
X155635Y180354D01*
Y181496D01*
X155536Y181995D01*
X155253Y182419D01*
X151100Y186572D01*
X150676Y186855D01*
X150177Y186954D01*
X147185D01*
Y191083D01*
Y195453D01*
X144642D01*
Y196020D01*
X143591D01*
Y195453D01*
X143523D01*
Y193976D01*
X142591D01*
Y196020D01*
X141898D01*
Y193976D01*
X140898D01*
Y196020D01*
X140205D01*
Y193976D01*
X139205D01*
Y196020D01*
X138512D01*
Y193976D01*
X137512D01*
Y196020D01*
X136461D01*
Y195665D01*
X136248D01*
Y194114D01*
X135248D01*
Y195665D01*
X134275D01*
Y200394D01*
X134275Y200394D01*
X134183Y200854D01*
X133922Y201245D01*
X133922Y201245D01*
X131954Y203214D01*
X131563Y203475D01*
X131102Y203567D01*
X131102Y203566D01*
X122835D01*
X122835Y203567D01*
X122374Y203475D01*
X121983Y203214D01*
X121983Y203214D01*
X119621Y200851D01*
X119360Y200461D01*
X119268Y200000D01*
X119268Y200000D01*
Y198835D01*
X117823D01*
Y196063D01*
Y193291D01*
X119268D01*
Y192231D01*
X118179Y191142D01*
X114764D01*
Y186024D01*
X118482D01*
X118634Y185524D01*
X118266Y185277D01*
X117831Y184626D01*
X117678Y183858D01*
X117831Y183090D01*
X118266Y182439D01*
X118917Y182004D01*
X119685Y181851D01*
X120453Y182004D01*
X120622Y182117D01*
X121063Y181881D01*
Y181299D01*
X124336D01*
X125986Y179650D01*
X125779Y179150D01*
X124122D01*
Y176878D01*
X126394D01*
Y178293D01*
X126894Y178529D01*
X127150Y178344D01*
Y176484D01*
X129921D01*
X132693D01*
Y178756D01*
X132693Y178756D01*
X132693D01*
X132952Y179139D01*
X133943Y180130D01*
X134151Y180101D01*
X134443Y179954D01*
Y178808D01*
X133723Y178088D01*
X133440Y177665D01*
X133341Y177165D01*
Y174803D01*
X133440Y174304D01*
X133723Y173881D01*
X136479Y171125D01*
X136902Y170842D01*
X137402Y170743D01*
X145669D01*
X146168Y170842D01*
X146592Y171125D01*
X151440Y175973D01*
X151575Y175946D01*
X151802Y175991D01*
X152343Y175589D01*
X152356Y175461D01*
X146704Y169808D01*
X138976D01*
X138477Y169709D01*
X138054Y169426D01*
X133920Y165293D01*
X133637Y164869D01*
X133538Y164370D01*
Y153740D01*
X132210D01*
Y163583D01*
X132111Y164082D01*
X131828Y164505D01*
X123189Y173144D01*
X123380Y173606D01*
X126394D01*
Y175878D01*
X123622D01*
Y176378D01*
X123122D01*
Y179150D01*
X120850D01*
Y176136D01*
X120388Y175945D01*
X96187Y200147D01*
Y201051D01*
X96671Y201173D01*
X96770Y200988D01*
X97607Y199969D01*
X98626Y199133D01*
X99788Y198511D01*
X101050Y198128D01*
X102362Y197999D01*
X103674Y198128D01*
X104936Y198511D01*
X106099Y199133D01*
X107118Y199969D01*
X107954Y200988D01*
X108576Y202151D01*
X108958Y203412D01*
X109088Y204724D01*
X108958Y206036D01*
X108576Y207298D01*
X107954Y208461D01*
X107118Y209480D01*
X106099Y210316D01*
X104936Y210938D01*
X103674Y211320D01*
X102362Y211450D01*
X101050Y211320D01*
X99788Y210938D01*
X98626Y210316D01*
X97607Y209480D01*
X96770Y208461D01*
X96671Y208276D01*
X96187Y208397D01*
Y243701D01*
X98385D01*
Y251745D01*
X100599D01*
X111014Y241329D01*
D02*
G37*
G36*
X131867Y199895D02*
Y198441D01*
X130421D01*
Y195669D01*
X129921D01*
Y195169D01*
X127150D01*
Y192898D01*
X127777D01*
X128047Y192398D01*
X127914Y191732D01*
X128010Y191248D01*
X127656Y190748D01*
X127362D01*
Y189988D01*
X126181D01*
Y191142D01*
X125906D01*
X125589Y191528D01*
X125629Y191732D01*
X125476Y192500D01*
X125282Y192791D01*
X125549Y193291D01*
X126394D01*
Y195563D01*
X123622D01*
Y196063D01*
X123122D01*
Y198835D01*
X121677D01*
Y199501D01*
X123333Y201158D01*
X130604D01*
X131867Y199895D01*
D02*
G37*
G36*
X156712Y176886D02*
X157480Y176733D01*
X158248Y176886D01*
X158432Y177008D01*
X158932Y176741D01*
Y158021D01*
X152806Y151895D01*
X150000D01*
Y153740D01*
X148244D01*
Y153953D01*
X147154D01*
Y150591D01*
X146154D01*
Y153953D01*
X145990D01*
Y155126D01*
X147244D01*
Y160244D01*
X146627D01*
X146361Y160744D01*
X146495Y161417D01*
X146343Y162185D01*
X145907Y162837D01*
X145256Y163272D01*
X144488Y163424D01*
X143720Y163272D01*
X143069Y162837D01*
X142634Y162185D01*
X142481Y161417D01*
X142565Y160997D01*
X142222Y160669D01*
X141947Y160800D01*
X141854Y161268D01*
X141419Y161919D01*
X140768Y162354D01*
X140473Y162413D01*
X140043Y162618D01*
X140111Y162956D01*
X140196Y163386D01*
X140043Y164154D01*
X139608Y164805D01*
X138957Y165240D01*
X138380Y165355D01*
X138179Y165862D01*
X139517Y167199D01*
X147244D01*
X147743Y167299D01*
X148167Y167581D01*
X155253Y174668D01*
X155536Y175091D01*
X155635Y175591D01*
Y177127D01*
X156135Y177271D01*
X156712Y176886D01*
D02*
G37*
G36*
X139444Y146789D02*
X138635Y145980D01*
X138500Y146007D01*
X137732Y145854D01*
X137081Y145419D01*
X136646Y144768D01*
X136493Y144000D01*
X136646Y143232D01*
X137081Y142581D01*
X137732Y142146D01*
X138500Y141993D01*
X139268Y142146D01*
X139919Y142581D01*
X140354Y143232D01*
X140507Y144000D01*
X140480Y144135D01*
X141280Y144935D01*
X141617Y144902D01*
X141854Y144801D01*
X142520Y144135D01*
X142493Y144000D01*
X142646Y143232D01*
X143081Y142581D01*
X143732Y142146D01*
X144500Y141993D01*
X144888Y142070D01*
X145134Y141609D01*
X140739Y137214D01*
X140434Y136758D01*
X140327Y136221D01*
Y124016D01*
X140434Y123478D01*
X140739Y123022D01*
X147629Y116132D01*
X148084Y115828D01*
X148622Y115721D01*
X153347D01*
Y111811D01*
X159646D01*
Y111884D01*
X161811D01*
Y110638D01*
X166929D01*
Y110858D01*
X167429Y111120D01*
X168110Y110985D01*
X168878Y111138D01*
X169529Y111573D01*
X169965Y112224D01*
X170117Y112992D01*
X169965Y113760D01*
X169529Y114411D01*
X168878Y114846D01*
X168110Y114999D01*
X167429Y114864D01*
X166929Y115126D01*
Y115756D01*
X166706D01*
X166440Y116256D01*
X166574Y116929D01*
X166421Y117697D01*
X165986Y118348D01*
X165335Y118783D01*
X164567Y118936D01*
X163799Y118783D01*
X163148Y118348D01*
X162713Y117697D01*
X162560Y116929D01*
X162694Y116256D01*
X162428Y115756D01*
X161811D01*
Y114494D01*
X159646D01*
Y119758D01*
X170334D01*
X182677Y107415D01*
Y104142D01*
X187795D01*
Y105396D01*
X194210D01*
Y102362D01*
X173305D01*
Y103504D01*
X173419Y103581D01*
X173854Y104232D01*
X174007Y105000D01*
X173854Y105768D01*
X173419Y106419D01*
X172768Y106854D01*
X172000Y107007D01*
X171232Y106854D01*
X170581Y106419D01*
X170146Y105768D01*
X169993Y105000D01*
X170146Y104232D01*
X170581Y103581D01*
X170695Y103504D01*
Y102362D01*
X169291D01*
Y95079D01*
Y89961D01*
Y83503D01*
X168626Y83371D01*
X168126Y83640D01*
Y84268D01*
X165854D01*
Y81496D01*
X165354D01*
Y80996D01*
X162583D01*
Y79257D01*
X156446D01*
X147368Y88336D01*
Y94488D01*
X147268Y94987D01*
X147157Y95153D01*
X147424Y95653D01*
X147531D01*
Y97925D01*
X145260D01*
Y97790D01*
X144798Y97598D01*
X144021Y98375D01*
Y102165D01*
X145063D01*
Y101953D01*
X146154D01*
Y105315D01*
X147154D01*
Y101953D01*
X148244D01*
Y102165D01*
X150000D01*
Y103910D01*
X151977D01*
X154107Y101780D01*
Y100984D01*
X152953D01*
Y95866D01*
X158071D01*
Y96160D01*
X158571Y96514D01*
X159055Y96418D01*
X159823Y96571D01*
X160474Y97006D01*
X160909Y97657D01*
X161062Y98425D01*
X160909Y99193D01*
X160474Y99844D01*
X159823Y100279D01*
X159055Y100432D01*
X158571Y100336D01*
X158071Y100691D01*
Y100984D01*
X156917D01*
Y102362D01*
X156810Y102900D01*
X156505Y103356D01*
X153552Y106308D01*
X153097Y106613D01*
X152559Y106720D01*
X150000D01*
Y108264D01*
X150238Y108423D01*
X150673Y109074D01*
X150826Y109843D01*
X150673Y110611D01*
X150238Y111262D01*
X149587Y111697D01*
X148819Y111850D01*
X148638Y111814D01*
X148311Y112224D01*
X148464Y112992D01*
X148311Y113760D01*
X147876Y114411D01*
X147225Y114846D01*
X146457Y114999D01*
X145689Y114846D01*
X145037Y114411D01*
X144602Y113760D01*
X144450Y112992D01*
X144476Y112857D01*
X143763Y112143D01*
X143480Y111720D01*
X143381Y111221D01*
Y108465D01*
X142339D01*
Y108677D01*
X141248D01*
Y105315D01*
X140248D01*
Y108677D01*
X139158D01*
Y108465D01*
X136147D01*
Y109657D01*
X136048Y110157D01*
X135765Y110580D01*
X135480Y110865D01*
X135507Y111000D01*
X135354Y111768D01*
X134919Y112419D01*
X134268Y112854D01*
X133500Y113007D01*
X132732Y112854D01*
X132651Y112800D01*
X132210Y113036D01*
Y114016D01*
X132354Y114232D01*
X132507Y115000D01*
X132354Y115768D01*
X131919Y116419D01*
X131268Y116854D01*
X130500Y117007D01*
X129732Y116854D01*
X129081Y116419D01*
X128646Y115768D01*
X128493Y115000D01*
X128526Y114832D01*
X128173Y114479D01*
X128031Y114507D01*
X127263Y114354D01*
X126612Y113919D01*
X126177Y113268D01*
X126103Y112897D01*
X125554Y112496D01*
X125500Y112507D01*
X124732Y112354D01*
X124081Y111919D01*
X123646Y111268D01*
X123493Y110500D01*
X123646Y109732D01*
X124081Y109081D01*
X124255Y108965D01*
X124103Y108465D01*
X117717D01*
X117446Y108853D01*
Y113386D01*
X117347Y113885D01*
X117064Y114308D01*
X115293Y116080D01*
X114869Y116363D01*
X114370Y116462D01*
Y121653D01*
Y125591D01*
Y129528D01*
Y133538D01*
X127342D01*
X127842Y133637D01*
X128265Y133920D01*
X129865Y135520D01*
X130000Y135493D01*
X130768Y135646D01*
X131070Y135847D01*
X131570Y135580D01*
Y128415D01*
X120135Y116980D01*
X120000Y117007D01*
X119232Y116854D01*
X118581Y116419D01*
X118146Y115768D01*
X117993Y115000D01*
X118146Y114232D01*
X118581Y113581D01*
X119232Y113146D01*
X120000Y112993D01*
X120768Y113146D01*
X121419Y113581D01*
X121854Y114232D01*
X122007Y115000D01*
X121980Y115135D01*
X133797Y126952D01*
X134080Y127375D01*
X134179Y127874D01*
Y147441D01*
X139444D01*
Y146789D01*
D02*
G37*
G36*
X93441Y135441D02*
X98559D01*
X98695Y134997D01*
Y134040D01*
X84078Y119422D01*
X83795Y118999D01*
X83695Y118500D01*
X83735Y118302D01*
Y88346D01*
X83294Y88111D01*
X83132Y88218D01*
X82364Y88371D01*
X81596Y88218D01*
X80945Y87783D01*
X80778Y87533D01*
X77362D01*
Y90264D01*
X74336D01*
Y91347D01*
X75591D01*
Y96465D01*
X70473D01*
Y91347D01*
X71727D01*
Y90264D01*
X69898D01*
Y90476D01*
X68414D01*
Y86228D01*
Y81980D01*
X69168D01*
Y81477D01*
X69081Y81419D01*
X68646Y80768D01*
X68493Y80000D01*
X68646Y79232D01*
X69081Y78581D01*
X69732Y78146D01*
X70500Y77993D01*
X71268Y78146D01*
X71919Y78581D01*
X72354Y79232D01*
X72507Y80000D01*
X72354Y80768D01*
X71919Y81419D01*
X71777Y81514D01*
Y82193D01*
X77362D01*
Y84924D01*
X80977D01*
X81596Y84510D01*
X82364Y84357D01*
X83132Y84510D01*
X83294Y84618D01*
X83735Y84382D01*
Y82598D01*
X83620Y82522D01*
X83185Y81870D01*
X83032Y81102D01*
X83185Y80334D01*
X83620Y79683D01*
X84271Y79248D01*
X85039Y79095D01*
X85807Y79248D01*
X86459Y79683D01*
X86894Y80334D01*
X87046Y81102D01*
X86894Y81870D01*
X86459Y82522D01*
X86344Y82598D01*
Y89849D01*
X86844Y90123D01*
X87500Y89993D01*
X87521Y89997D01*
X88073Y89597D01*
X88146Y89232D01*
X88581Y88581D01*
X89232Y88146D01*
X90000Y87993D01*
X90768Y88146D01*
X91419Y88581D01*
X91854Y89232D01*
X92007Y90000D01*
X91980Y90135D01*
X93836Y91991D01*
X94119Y92414D01*
X94218Y92913D01*
Y112873D01*
X103072Y121727D01*
X108071D01*
Y118305D01*
X103496D01*
X103419Y118419D01*
X102768Y118854D01*
X102000Y119007D01*
X101232Y118854D01*
X100581Y118419D01*
X100146Y117768D01*
X99993Y117000D01*
X100146Y116232D01*
X100391Y115864D01*
X100139Y115342D01*
X99626Y115240D01*
X98975Y114805D01*
X98539Y114154D01*
X98387Y113386D01*
X98539Y112618D01*
X98975Y111967D01*
X99626Y111531D01*
X100394Y111379D01*
X101075Y111514D01*
X101575Y111252D01*
Y110638D01*
X106693D01*
Y111884D01*
X108071D01*
Y111811D01*
X108890D01*
X109152Y111311D01*
X109017Y110630D01*
X109169Y109862D01*
X109604Y109211D01*
X110256Y108776D01*
X111024Y108623D01*
X111792Y108776D01*
X112443Y109211D01*
X112878Y109862D01*
X113031Y110630D01*
X112895Y111311D01*
X113157Y111811D01*
X114370D01*
Y111811D01*
X114837Y111731D01*
Y103698D01*
X111935Y100795D01*
X108662D01*
Y95677D01*
X113780D01*
Y98950D01*
X116907Y102077D01*
X117409Y102011D01*
X117483Y101962D01*
X117526Y101847D01*
X117477Y101765D01*
X117146Y101268D01*
X116993Y100500D01*
X117146Y99732D01*
X117581Y99081D01*
X118232Y98646D01*
X119000Y98493D01*
X119768Y98646D01*
X120046Y98831D01*
X120546Y98564D01*
Y96673D01*
X120020D01*
Y89941D01*
X123681D01*
Y96412D01*
X124177Y96682D01*
X124232Y96646D01*
X124941Y96505D01*
Y89941D01*
X128602D01*
Y95899D01*
X129064Y96091D01*
X129837Y95318D01*
Y93858D01*
X129862Y93732D01*
Y89941D01*
X133524D01*
Y96673D01*
X132136D01*
X132064Y96781D01*
X127141Y101703D01*
X127333Y102165D01*
X131570D01*
Y100626D01*
X131669Y100127D01*
X131952Y99703D01*
X134569Y97086D01*
X134783Y96673D01*
X134783D01*
X134783Y96673D01*
Y89941D01*
X135310D01*
Y87224D01*
X134783D01*
Y80492D01*
X135310D01*
Y78543D01*
X134055D01*
Y73425D01*
X139173D01*
Y78543D01*
X137919D01*
Y80492D01*
X138445D01*
Y87224D01*
X137919D01*
Y89941D01*
X138445D01*
Y96011D01*
X138945Y96218D01*
X142396Y92767D01*
Y87008D01*
X142496Y86509D01*
X142778Y86085D01*
X155770Y73093D01*
X156194Y72811D01*
X156693Y72711D01*
X162795D01*
Y71496D01*
X161193D01*
Y70242D01*
X160311D01*
Y71496D01*
X155193D01*
Y71243D01*
X154693Y70833D01*
X154331Y70905D01*
X153563Y70752D01*
X152911Y70317D01*
X152476Y69666D01*
X152324Y68898D01*
X152476Y68130D01*
X152911Y67478D01*
X153563Y67043D01*
X154331Y66891D01*
X154693Y66963D01*
X155193Y66552D01*
Y66378D01*
X160311D01*
Y67632D01*
X161193D01*
Y66378D01*
X161504D01*
X161821Y65991D01*
X161773Y65748D01*
X161925Y64980D01*
X162093Y64728D01*
X161826Y64228D01*
X161024D01*
X160980Y64228D01*
X160524D01*
X160480Y64228D01*
X158252D01*
Y61457D01*
Y58685D01*
X160480D01*
X160524Y58685D01*
X160980D01*
X161024Y58685D01*
X163252D01*
Y61457D01*
X163752D01*
Y61957D01*
X166524D01*
Y64228D01*
X165733D01*
X165466Y64728D01*
X165634Y64980D01*
X165787Y65748D01*
X165738Y65991D01*
X166055Y66378D01*
X166311D01*
Y67562D01*
X167421D01*
Y67055D01*
X176083D01*
Y67562D01*
X176681D01*
X177180Y67661D01*
X177604Y67944D01*
X178672Y69012D01*
X179134Y68821D01*
Y45276D01*
X147638D01*
Y44410D01*
X147138Y44259D01*
X147089Y44333D01*
X146437Y44768D01*
X145669Y44921D01*
X144901Y44768D01*
X144250Y44333D01*
X143815Y43681D01*
X143662Y42913D01*
X143758Y42429D01*
X143404Y41929D01*
X142913D01*
Y41730D01*
X142413Y41320D01*
X142126Y41377D01*
X141358Y41224D01*
X140707Y40789D01*
X140272Y40138D01*
X140119Y39370D01*
X140272Y38602D01*
X140707Y37951D01*
X141358Y37516D01*
X142126Y37363D01*
X142413Y37420D01*
X142913Y37010D01*
Y36811D01*
X147346D01*
X147511Y36311D01*
X147138Y35984D01*
X146917Y36013D01*
Y31496D01*
Y26979D01*
X147138Y27008D01*
X147638Y26570D01*
Y17717D01*
X175197D01*
Y0D01*
X0D01*
Y86614D01*
X30914D01*
X31192Y86198D01*
X31017Y85776D01*
X30868Y84646D01*
X31017Y83515D01*
X31454Y82462D01*
X32148Y81557D01*
X33052Y80863D01*
X34106Y80426D01*
X35236Y80278D01*
X36367Y80426D01*
X37420Y80863D01*
X38325Y81557D01*
X39019Y82462D01*
X39456Y83515D01*
X39604Y84646D01*
X39456Y85776D01*
X39281Y86198D01*
X39559Y86614D01*
X40821D01*
Y77756D01*
X40921Y77257D01*
X41203Y76834D01*
X43192Y74845D01*
X42828Y73965D01*
X42679Y72835D01*
X42828Y71704D01*
X43265Y70651D01*
X43959Y69746D01*
X44863Y69052D01*
X45917Y68615D01*
X47047Y68467D01*
X48178Y68615D01*
X49231Y69052D01*
X50136Y69746D01*
X50830Y70651D01*
X51267Y71704D01*
X51415Y72835D01*
X51267Y73965D01*
X50830Y75019D01*
X50136Y75923D01*
X49231Y76617D01*
X48178Y77054D01*
X47047Y77203D01*
X45917Y77054D01*
X45037Y76690D01*
X43431Y78297D01*
Y81468D01*
X43904Y81628D01*
X43959Y81557D01*
X44863Y80863D01*
X45917Y80426D01*
X47047Y80278D01*
X48178Y80426D01*
X49231Y80863D01*
X50136Y81557D01*
X50830Y82462D01*
X51267Y83515D01*
X51415Y84646D01*
X51267Y85776D01*
X50902Y86656D01*
X52922Y88676D01*
X53205Y89099D01*
X53305Y89598D01*
Y92134D01*
X55887D01*
X56272Y91749D01*
Y90264D01*
X55906D01*
Y88354D01*
X55406Y88092D01*
X54724Y88227D01*
X53956Y88075D01*
X53305Y87640D01*
X52870Y86989D01*
X52717Y86221D01*
X52870Y85452D01*
X53305Y84801D01*
X53956Y84366D01*
X54724Y84213D01*
X55406Y84349D01*
X55906Y84087D01*
Y82193D01*
X60811D01*
Y81980D01*
X62296D01*
Y86228D01*
Y90780D01*
X62227Y90863D01*
X62243Y90945D01*
X62148Y91421D01*
X62296Y91626D01*
Y94193D01*
X60024D01*
Y92910D01*
X59468Y92799D01*
X59461Y92794D01*
X58882Y93009D01*
X58671Y93324D01*
X57874Y94121D01*
Y97252D01*
X57874D01*
X57463Y97752D01*
X57519Y98032D01*
X57366Y98800D01*
X56931Y99451D01*
X56280Y99886D01*
X55512Y100039D01*
X54744Y99886D01*
X54093Y99451D01*
X53805Y99020D01*
X53305Y99171D01*
Y108898D01*
X60602Y116195D01*
X72500D01*
X72999Y116295D01*
X73422Y116577D01*
X90489Y133644D01*
X90772Y134068D01*
X90872Y134567D01*
Y135985D01*
X91240D01*
X92008Y136138D01*
X92659Y136573D01*
X92736Y136688D01*
X93441D01*
Y135441D01*
D02*
G37*
G36*
X32480Y111612D02*
X32148Y111356D01*
X31454Y110452D01*
X31017Y109398D01*
X30868Y108268D01*
X31017Y107137D01*
X31454Y106084D01*
X32148Y105179D01*
X32480Y104924D01*
Y102362D01*
X40821D01*
Y90551D01*
X24606D01*
Y97512D01*
X24903Y98491D01*
X25033Y99803D01*
X24903Y101115D01*
X24606Y102095D01*
Y121638D01*
X26665D01*
Y124409D01*
Y127181D01*
X24606D01*
Y127953D01*
X32480D01*
Y111612D01*
D02*
G37*
G36*
X162402Y43307D02*
X162402Y33118D01*
X162198Y32627D01*
X162049Y31496D01*
X162198Y30365D01*
X162402Y29874D01*
Y23622D01*
X150591Y23622D01*
Y30255D01*
X150637Y30365D01*
X150785Y31496D01*
X150637Y32627D01*
X150591Y32738D01*
X150591Y36598D01*
X152453D01*
Y39370D01*
Y42142D01*
X150591D01*
Y43307D01*
X162402Y43307D01*
D02*
G37*
G36*
X183071Y26000D02*
X181209D01*
Y23228D01*
Y20457D01*
X183071D01*
Y19882D01*
X170276D01*
Y29494D01*
X170637Y30365D01*
X170785Y31496D01*
X170637Y32627D01*
X170276Y33498D01*
Y39370D01*
X183071D01*
Y26000D01*
D02*
G37*
G36*
X194210Y94890D02*
X200787D01*
Y46095D01*
X199475Y45966D01*
X198214Y45583D01*
X197051Y44962D01*
X196032Y44126D01*
X195195Y43106D01*
X194574Y41944D01*
X194191Y40682D01*
X194062Y39370D01*
X194191Y38058D01*
X194574Y36796D01*
X195195Y35634D01*
X196032Y34615D01*
X197051Y33778D01*
X198214Y33157D01*
X199475Y32774D01*
X200787Y32645D01*
Y0D01*
X179134D01*
Y17717D01*
X184055Y17717D01*
Y72569D01*
X184096Y72597D01*
X184531Y73248D01*
X184684Y74016D01*
X184531Y74784D01*
X184096Y75435D01*
X184055Y75463D01*
Y86614D01*
X174213Y86614D01*
Y89961D01*
X174409D01*
Y95079D01*
X174213D01*
Y96875D01*
X174410D01*
Y98425D01*
X174410Y98425D01*
X194210D01*
Y94890D01*
D02*
G37*
%LPC*%
G36*
X192913Y253976D02*
X192145Y253823D01*
X191494Y253388D01*
X191418Y253273D01*
X178661D01*
X178585Y253388D01*
X177933Y253823D01*
X177165Y253976D01*
X176397Y253823D01*
X175746Y253388D01*
X175311Y252737D01*
X175158Y251969D01*
X175311Y251200D01*
X175746Y250549D01*
X176397Y250114D01*
X177165Y249961D01*
X177933Y250114D01*
X178585Y250549D01*
X178661Y250664D01*
X191418D01*
X191494Y250549D01*
X192145Y250114D01*
X192913Y249961D01*
X193682Y250114D01*
X194333Y250549D01*
X194768Y251200D01*
X194921Y251969D01*
X194768Y252737D01*
X194333Y253388D01*
X193682Y253823D01*
X192913Y253976D01*
D02*
G37*
G36*
X161417D02*
X160649Y253823D01*
X159998Y253388D01*
X159922Y253273D01*
X147165D01*
X147089Y253388D01*
X146437Y253823D01*
X145669Y253976D01*
X144901Y253823D01*
X144250Y253388D01*
X143815Y252737D01*
X143662Y251969D01*
X143815Y251200D01*
X144250Y250549D01*
X144901Y250114D01*
X145669Y249961D01*
X146437Y250114D01*
X147089Y250549D01*
X147165Y250664D01*
X159922D01*
X159998Y250549D01*
X160649Y250114D01*
X161417Y249961D01*
X162185Y250114D01*
X162837Y250549D01*
X163272Y251200D01*
X163424Y251969D01*
X163272Y252737D01*
X162837Y253388D01*
X162185Y253823D01*
X161417Y253976D01*
D02*
G37*
G36*
X129921D02*
X129153Y253823D01*
X128502Y253388D01*
X128426Y253273D01*
X115669D01*
X115593Y253388D01*
X114941Y253823D01*
X114173Y253976D01*
X113405Y253823D01*
X112754Y253388D01*
X112319Y252737D01*
X112166Y251969D01*
X112319Y251200D01*
X112754Y250549D01*
X113405Y250114D01*
X114173Y249961D01*
X114941Y250114D01*
X115593Y250549D01*
X115669Y250664D01*
X128426D01*
X128502Y250549D01*
X129153Y250114D01*
X129921Y249961D01*
X130689Y250114D01*
X131341Y250549D01*
X131776Y251200D01*
X131928Y251969D01*
X131776Y252737D01*
X131341Y253388D01*
X130689Y253823D01*
X129921Y253976D01*
D02*
G37*
G36*
X208661D02*
X207893Y253823D01*
X207242Y253388D01*
X206807Y252737D01*
X206654Y251969D01*
X206807Y251200D01*
X207242Y250549D01*
X207893Y250114D01*
X208661Y249961D01*
X209430Y250114D01*
X210081Y250549D01*
X210516Y251200D01*
X210668Y251969D01*
X210516Y252737D01*
X210081Y253388D01*
X209430Y253823D01*
X208661Y253976D01*
D02*
G37*
G36*
X220472D02*
X219704Y253823D01*
X219053Y253388D01*
X218618Y252737D01*
X218465Y251969D01*
X218618Y251200D01*
X219053Y250549D01*
X219168Y250473D01*
Y237716D01*
X219053Y237640D01*
X218906Y237419D01*
X218676Y237413D01*
X218362Y237505D01*
X217945Y238512D01*
X217217Y239461D01*
X216268Y240189D01*
X215163Y240647D01*
X214476Y240737D01*
Y236221D01*
Y231704D01*
X215163Y231794D01*
X216268Y232252D01*
X217217Y232980D01*
X217945Y233929D01*
X218362Y234936D01*
X218676Y235028D01*
X218906Y235022D01*
X219053Y234801D01*
X219704Y234366D01*
X220472Y234213D01*
X221240Y234366D01*
X221892Y234801D01*
X222327Y235452D01*
X222480Y236221D01*
X222327Y236988D01*
X221892Y237640D01*
X221777Y237716D01*
Y250473D01*
X221892Y250549D01*
X222327Y251200D01*
X222480Y251969D01*
X222327Y252737D01*
X221892Y253388D01*
X221240Y253823D01*
X220472Y253976D01*
D02*
G37*
G36*
X194476Y240738D02*
Y236721D01*
X198493D01*
X198403Y237407D01*
X197945Y238512D01*
X197216Y239461D01*
X196267Y240189D01*
X195162Y240647D01*
X194476Y240738D01*
D02*
G37*
G36*
X193476D02*
X192790Y240647D01*
X191685Y240189D01*
X190736Y239461D01*
X190008Y238512D01*
X189550Y237407D01*
X189460Y236721D01*
X193476D01*
Y240738D01*
D02*
G37*
G36*
X213476Y240737D02*
X212790Y240647D01*
X211685Y240189D01*
X210736Y239461D01*
X210008Y238512D01*
X209550Y237406D01*
X209460Y236720D01*
X213476D01*
Y240737D01*
D02*
G37*
G36*
X203977Y240588D02*
X202846Y240439D01*
X201793Y240003D01*
X200888Y239309D01*
X200194Y238404D01*
X199758Y237351D01*
X199609Y236220D01*
X199758Y235090D01*
X200194Y234036D01*
X200888Y233132D01*
X201793Y232437D01*
X202846Y232001D01*
X203977Y231852D01*
X205107Y232001D01*
X206161Y232437D01*
X207066Y233132D01*
X207760Y234036D01*
X208196Y235090D01*
X208345Y236220D01*
X208196Y237351D01*
X207760Y238404D01*
X207066Y239309D01*
X206161Y240003D01*
X205107Y240439D01*
X203977Y240588D01*
D02*
G37*
G36*
X198493Y235721D02*
X194476D01*
Y231704D01*
X195162Y231794D01*
X196267Y232252D01*
X197216Y232980D01*
X197945Y233929D01*
X198403Y235035D01*
X198493Y235721D01*
D02*
G37*
G36*
X193476D02*
X189460D01*
X189550Y235035D01*
X190008Y233929D01*
X190736Y232980D01*
X191685Y232252D01*
X192790Y231794D01*
X193476Y231704D01*
Y235721D01*
D02*
G37*
G36*
X213476Y235720D02*
X209460D01*
X209550Y235034D01*
X210008Y233929D01*
X210736Y232980D01*
X211685Y232252D01*
X212790Y231794D01*
X213476Y231704D01*
Y235720D01*
D02*
G37*
G36*
X189634Y206736D02*
Y203256D01*
X193114D01*
X193042Y203803D01*
X192638Y204779D01*
X191995Y205617D01*
X191157Y206260D01*
X190181Y206664D01*
X189634Y206736D01*
D02*
G37*
G36*
X220472Y222480D02*
X219704Y222327D01*
X219053Y221892D01*
X218618Y221240D01*
X218465Y220472D01*
X218618Y219704D01*
X219053Y219053D01*
X219168Y218977D01*
Y206220D01*
X219053Y206144D01*
X218618Y205492D01*
X218465Y204724D01*
X218618Y203956D01*
X219053Y203305D01*
X219704Y202870D01*
X220472Y202717D01*
X221240Y202870D01*
X221892Y203305D01*
X222327Y203956D01*
X222480Y204724D01*
X222327Y205492D01*
X221892Y206144D01*
X221777Y206220D01*
Y218977D01*
X221892Y219053D01*
X222327Y219704D01*
X222480Y220472D01*
X222327Y221240D01*
X221892Y221892D01*
X221240Y222327D01*
X220472Y222480D01*
D02*
G37*
G36*
X47047Y211061D02*
X45917Y210912D01*
X44863Y210476D01*
X43959Y209782D01*
X43264Y208877D01*
X42828Y207823D01*
X42679Y206693D01*
X42828Y205562D01*
X43264Y204509D01*
X43959Y203604D01*
X44863Y202910D01*
X45917Y202474D01*
X47047Y202325D01*
X48178Y202474D01*
X49231Y202910D01*
X50136Y203604D01*
X50830Y204509D01*
X51266Y205562D01*
X51415Y206693D01*
X51266Y207823D01*
X50830Y208877D01*
X50136Y209782D01*
X49231Y210476D01*
X48178Y210912D01*
X47047Y211061D01*
D02*
G37*
G36*
X35236D02*
X34106Y210912D01*
X33052Y210476D01*
X32147Y209782D01*
X31453Y208877D01*
X31017Y207823D01*
X30868Y206693D01*
X31017Y205562D01*
X31453Y204509D01*
X32147Y203604D01*
X33052Y202910D01*
X34106Y202474D01*
X35236Y202325D01*
X36367Y202474D01*
X37420Y202910D01*
X38325Y203604D01*
X39019Y204509D01*
X39456Y205562D01*
X39604Y206693D01*
X39456Y207823D01*
X39019Y208877D01*
X38325Y209782D01*
X37420Y210476D01*
X36367Y210912D01*
X35236Y211061D01*
D02*
G37*
G36*
X206142Y215387D02*
X204830Y215258D01*
X203568Y214875D01*
X202405Y214253D01*
X201386Y213417D01*
X200550Y212398D01*
X199928Y211235D01*
X199546Y209974D01*
X199416Y208661D01*
X199546Y207349D01*
X199928Y206088D01*
X200550Y204925D01*
X201386Y203906D01*
X202405Y203070D01*
X203568Y202448D01*
X204830Y202065D01*
X206142Y201936D01*
X207454Y202065D01*
X208715Y202448D01*
X209878Y203070D01*
X210897Y203906D01*
X211734Y204925D01*
X212355Y206088D01*
X212738Y207349D01*
X212867Y208661D01*
X212738Y209974D01*
X212355Y211235D01*
X211734Y212398D01*
X210897Y213417D01*
X209878Y214253D01*
X208715Y214875D01*
X207454Y215258D01*
X206142Y215387D01*
D02*
G37*
G36*
X55118Y204763D02*
X54350Y204610D01*
X53699Y204175D01*
X53264Y203524D01*
X53120Y202799D01*
X49057Y198737D01*
X48178Y199101D01*
X47047Y199250D01*
X45917Y199101D01*
X44863Y198665D01*
X43959Y197971D01*
X43264Y197066D01*
X42828Y196012D01*
X42679Y194882D01*
X42828Y193751D01*
X43264Y192698D01*
X43959Y191793D01*
X44863Y191099D01*
X45917Y190663D01*
X47047Y190514D01*
X48178Y190663D01*
X49231Y191099D01*
X50136Y191793D01*
X50830Y192698D01*
X51266Y193751D01*
X51415Y194882D01*
X51266Y196012D01*
X50902Y196892D01*
X54819Y200808D01*
X55118Y200749D01*
X55886Y200902D01*
X56537Y201337D01*
X56972Y201988D01*
X57125Y202756D01*
X56972Y203524D01*
X56537Y204175D01*
X55886Y204610D01*
X55118Y204763D01*
D02*
G37*
G36*
X193114Y202256D02*
X189634D01*
Y198775D01*
X190181Y198847D01*
X191157Y199252D01*
X191995Y199895D01*
X192638Y200733D01*
X193042Y201709D01*
X193114Y202256D01*
D02*
G37*
G36*
X81102Y202795D02*
X80334Y202642D01*
X79683Y202207D01*
X79248Y201555D01*
X79095Y200787D01*
X79248Y200019D01*
X79683Y199368D01*
X80334Y198933D01*
X81102Y198780D01*
X81238Y198807D01*
X82947Y197097D01*
Y195731D01*
X82447Y195464D01*
X82169Y195650D01*
X81401Y195803D01*
X80633Y195650D01*
X79982Y195215D01*
X79547Y194564D01*
X79394Y193796D01*
X79547Y193027D01*
X79982Y192376D01*
X80195Y192234D01*
Y167040D01*
X76862Y163707D01*
X76320Y163872D01*
X76264Y164154D01*
X75829Y164805D01*
X75178Y165240D01*
X74463Y165382D01*
X71775Y168070D01*
X71638Y168760D01*
X71203Y169411D01*
X70552Y169846D01*
X69784Y169999D01*
X69549D01*
X69282Y170499D01*
X69315Y170550D01*
X69402Y170985D01*
X69784D01*
X70552Y171138D01*
X71203Y171573D01*
X71638Y172224D01*
X71790Y172992D01*
X71638Y173760D01*
X71203Y174411D01*
X70552Y174846D01*
X69784Y174999D01*
X69308D01*
X69033Y175411D01*
X66749Y177694D01*
X66326Y177977D01*
X65827Y178076D01*
X62913D01*
X62836Y178191D01*
X62185Y178626D01*
X61417Y178779D01*
X60649Y178626D01*
X59998Y178191D01*
X59563Y177540D01*
X59410Y176772D01*
X59552Y176059D01*
X59514Y175904D01*
X59330Y175559D01*
X58941D01*
Y170441D01*
X62172D01*
X62319Y169704D01*
X62754Y169053D01*
X63405Y168618D01*
X64114Y168477D01*
X64441Y168048D01*
X64430Y167992D01*
X64583Y167224D01*
X65018Y166573D01*
X65669Y166138D01*
X66437Y165985D01*
X69784D01*
X70106Y166049D01*
X71021Y165134D01*
X70702Y164746D01*
X70552Y164846D01*
X69784Y164999D01*
X66437D01*
X65669Y164846D01*
X65018Y164411D01*
X64947Y164305D01*
X64059D01*
Y165559D01*
X58941D01*
Y164809D01*
X58441Y164493D01*
X57874Y164605D01*
X57291Y164490D01*
X56791Y164798D01*
Y165772D01*
X54520D01*
Y163000D01*
Y160228D01*
X56791D01*
Y160399D01*
X57291Y160707D01*
X57874Y160591D01*
X58441Y160704D01*
X58941Y160441D01*
Y160441D01*
X64059D01*
Y161695D01*
X64936D01*
X65018Y161573D01*
X65669Y161138D01*
X66437Y160985D01*
X69784D01*
X70552Y161138D01*
X71203Y161573D01*
X71638Y162224D01*
X71790Y162992D01*
X71638Y163760D01*
X71537Y163911D01*
X71925Y164230D01*
X72463Y163692D01*
X72402Y163386D01*
X72555Y162618D01*
X72990Y161967D01*
X73641Y161531D01*
X73923Y161476D01*
X74088Y160933D01*
X72452Y159297D01*
X71279D01*
X71203Y159411D01*
X70552Y159846D01*
X69784Y159999D01*
X66437D01*
X65669Y159846D01*
X65018Y159411D01*
X64583Y158760D01*
X64430Y157992D01*
X64583Y157224D01*
X65018Y156573D01*
X65669Y156138D01*
X66437Y155985D01*
X69784D01*
X70552Y156138D01*
X71203Y156573D01*
X71279Y156687D01*
X72992D01*
X73491Y156787D01*
X73915Y157070D01*
X82423Y165577D01*
X82447Y165615D01*
X82947Y165463D01*
Y158792D01*
X73452Y149297D01*
X71279D01*
X71203Y149411D01*
X70552Y149846D01*
X69784Y149999D01*
X66437D01*
X65669Y149846D01*
X65018Y149411D01*
X64583Y148760D01*
X64430Y147992D01*
X64583Y147224D01*
X65018Y146573D01*
X65669Y146138D01*
X66437Y145985D01*
X69784D01*
X70552Y146138D01*
X71203Y146573D01*
X71279Y146687D01*
X73992D01*
X74491Y146787D01*
X74915Y147070D01*
X77543Y149698D01*
X78086Y149534D01*
X78146Y149232D01*
X78581Y148581D01*
X79232Y148146D01*
X80000Y147993D01*
X80768Y148146D01*
X81419Y148581D01*
X81854Y149232D01*
X82007Y150000D01*
X81980Y150135D01*
X83533Y151688D01*
X86398D01*
X86475Y151573D01*
X87126Y151138D01*
X87894Y150985D01*
X91240D01*
X92008Y151138D01*
X92659Y151573D01*
X93094Y152224D01*
X93247Y152992D01*
X93094Y153760D01*
X92659Y154411D01*
X92008Y154846D01*
X91240Y154999D01*
X87894D01*
X87126Y154846D01*
X86475Y154411D01*
X86398Y154297D01*
X82992D01*
X82813Y154261D01*
X82567Y154722D01*
X85175Y157329D01*
X85265Y157465D01*
X85731Y157397D01*
X85796Y157359D01*
X85839Y157141D01*
X86321Y156420D01*
X87043Y155938D01*
X87894Y155768D01*
X89067D01*
Y157992D01*
Y160216D01*
X87894D01*
X87043Y160047D01*
X86321Y159565D01*
X86057Y159169D01*
X85557Y159320D01*
Y161664D01*
X86057Y161816D01*
X86321Y161420D01*
X87043Y160938D01*
X87894Y160768D01*
X89067D01*
Y162992D01*
Y165216D01*
X87894D01*
X87043Y165047D01*
X86321Y164565D01*
X86057Y164169D01*
X85557Y164320D01*
Y166999D01*
X86019Y167205D01*
X86057Y167198D01*
X86475Y166573D01*
X87126Y166138D01*
X87894Y165985D01*
X91240D01*
X92008Y166138D01*
X92659Y166573D01*
X93094Y167224D01*
X93247Y167992D01*
X93094Y168760D01*
X92659Y169411D01*
X92008Y169846D01*
X91240Y169999D01*
X87894D01*
X87126Y169846D01*
X86475Y169411D01*
X86057Y168786D01*
X86019Y168780D01*
X85557Y168985D01*
Y171999D01*
X86019Y172205D01*
X86057Y172198D01*
X86475Y171573D01*
X87126Y171138D01*
X87894Y170985D01*
X91240D01*
X92008Y171138D01*
X92659Y171573D01*
X92674Y171595D01*
X93441D01*
Y170441D01*
X93908D01*
X94185Y169941D01*
X94056Y169291D01*
X94209Y168523D01*
X94644Y167872D01*
X95295Y167437D01*
X96063Y167284D01*
X96831Y167437D01*
X97482Y167872D01*
X97917Y168523D01*
X98070Y169291D01*
X97941Y169941D01*
X98218Y170441D01*
X98559D01*
Y175559D01*
X93441D01*
Y174405D01*
X92664D01*
X92659Y174411D01*
X92008Y174846D01*
X91936Y174861D01*
X91660Y175426D01*
X91771Y175984D01*
X91618Y176752D01*
X91183Y177403D01*
X90532Y177839D01*
X89764Y177991D01*
X88996Y177839D01*
X88345Y177403D01*
X87910Y176752D01*
X87757Y175984D01*
X87856Y175484D01*
X87879Y175194D01*
X87505Y174922D01*
X87126Y174846D01*
X86475Y174411D01*
X86057Y173786D01*
X86019Y173779D01*
X85557Y173986D01*
Y197638D01*
X85457Y198137D01*
X85175Y198560D01*
X83082Y200652D01*
X83109Y200787D01*
X82957Y201555D01*
X82522Y202207D01*
X81870Y202642D01*
X81102Y202795D01*
D02*
G37*
G36*
X18307Y204954D02*
X16995Y204824D01*
X15733Y204442D01*
X14571Y203820D01*
X13552Y202984D01*
X12715Y201965D01*
X12094Y200802D01*
X11711Y199540D01*
X11582Y198228D01*
X11711Y196916D01*
X12094Y195655D01*
X12715Y194492D01*
X13552Y193473D01*
X14571Y192637D01*
X15733Y192015D01*
X16995Y191632D01*
X18307Y191503D01*
X19619Y191632D01*
X20881Y192015D01*
X22043Y192637D01*
X23063Y193473D01*
X23899Y194492D01*
X24521Y195655D01*
X24903Y196916D01*
X25032Y198228D01*
X24903Y199540D01*
X24521Y200802D01*
X23899Y201965D01*
X23063Y202984D01*
X22043Y203820D01*
X20881Y204442D01*
X19619Y204824D01*
X18307Y204954D01*
D02*
G37*
G36*
X35236Y199250D02*
X34106Y199101D01*
X33052Y198665D01*
X32147Y197971D01*
X31453Y197066D01*
X31017Y196012D01*
X30868Y194882D01*
X31017Y193751D01*
X31453Y192698D01*
X32147Y191793D01*
X33052Y191099D01*
X34106Y190663D01*
X35236Y190514D01*
X36367Y190663D01*
X37420Y191099D01*
X38325Y191793D01*
X39019Y192698D01*
X39456Y193751D01*
X39604Y194882D01*
X39456Y196012D01*
X39019Y197066D01*
X38325Y197971D01*
X37420Y198665D01*
X36367Y199101D01*
X35236Y199250D01*
D02*
G37*
G36*
X220472Y190983D02*
X219704Y190831D01*
X219053Y190396D01*
X218618Y189744D01*
X218465Y188976D01*
X218618Y188208D01*
X219053Y187557D01*
X219704Y187122D01*
X220472Y186969D01*
X221240Y187122D01*
X221892Y187557D01*
X222327Y188208D01*
X222480Y188976D01*
X222327Y189744D01*
X221892Y190396D01*
X221240Y190831D01*
X220472Y190983D01*
D02*
G37*
G36*
X68110Y191771D02*
X67342Y191618D01*
X66691Y191183D01*
X66256Y190532D01*
X66103Y189764D01*
X66155Y189500D01*
X62214Y185559D01*
X60786D01*
X58415Y187930D01*
X57991Y188213D01*
X57492Y188312D01*
X57401D01*
X57325Y188427D01*
X56674Y188862D01*
X55905Y189015D01*
X55137Y188862D01*
X54486Y188427D01*
X54051Y187776D01*
X53898Y187008D01*
X54045Y186272D01*
X54043Y186164D01*
X53834Y185772D01*
X51248D01*
Y185480D01*
X50748Y185362D01*
X50136Y186160D01*
X49231Y186854D01*
X48178Y187290D01*
X47047Y187439D01*
X45917Y187290D01*
X44863Y186854D01*
X43959Y186160D01*
X43264Y185255D01*
X42828Y184201D01*
X42679Y183071D01*
X42828Y181940D01*
X43264Y180887D01*
X43959Y179982D01*
X44863Y179288D01*
X45917Y178852D01*
X47047Y178703D01*
X48178Y178852D01*
X49231Y179288D01*
X50136Y179982D01*
X50748Y180780D01*
X51248Y180662D01*
Y180228D01*
X53520D01*
Y183000D01*
X54020D01*
Y183500D01*
X56791D01*
Y185192D01*
X57198Y185457D01*
X58941Y183714D01*
Y180441D01*
X64059D01*
Y183714D01*
X68103Y187758D01*
X68110Y187757D01*
X68878Y187909D01*
X69529Y188345D01*
X69964Y188996D01*
X70117Y189764D01*
X69964Y190532D01*
X69529Y191183D01*
X68878Y191618D01*
X68110Y191771D01*
D02*
G37*
G36*
X204268Y183559D02*
X199150D01*
Y182305D01*
X196496D01*
X196419Y182419D01*
X195768Y182854D01*
X195000Y183007D01*
X194232Y182854D01*
X193581Y182419D01*
X193146Y181768D01*
X192993Y181000D01*
X193146Y180232D01*
X193581Y179581D01*
X194232Y179146D01*
X195000Y178993D01*
X195768Y179146D01*
X196419Y179581D01*
X196496Y179695D01*
X199150D01*
Y178441D01*
X204268D01*
Y183559D01*
D02*
G37*
G36*
X223575Y183575D02*
X221500D01*
Y181500D01*
X223575D01*
Y183575D01*
D02*
G37*
G36*
X220500D02*
X218425D01*
Y181500D01*
X220500D01*
Y183575D01*
D02*
G37*
G36*
X56791Y182500D02*
X54520D01*
Y180228D01*
X56791D01*
Y182500D01*
D02*
G37*
G36*
X35236Y187439D02*
X34106Y187290D01*
X33052Y186854D01*
X32147Y186160D01*
X31453Y185255D01*
X31017Y184201D01*
X30868Y183071D01*
X31017Y181940D01*
X31453Y180887D01*
X32147Y179982D01*
X33052Y179288D01*
X34106Y178852D01*
X35236Y178703D01*
X36367Y178852D01*
X37420Y179288D01*
X38325Y179982D01*
X39019Y180887D01*
X39456Y181940D01*
X39604Y183071D01*
X39456Y184201D01*
X39019Y185255D01*
X38325Y186160D01*
X37420Y186854D01*
X36367Y187290D01*
X35236Y187439D01*
D02*
G37*
G36*
X211748Y183559D02*
X206630D01*
Y178441D01*
X211748D01*
Y179695D01*
X212732D01*
Y178638D01*
X217457D01*
Y183362D01*
X212732D01*
Y182305D01*
X211748D01*
Y183559D01*
D02*
G37*
G36*
X223575Y180500D02*
X221500D01*
Y178425D01*
X223575D01*
Y180500D01*
D02*
G37*
G36*
X220500D02*
X218425D01*
Y178425D01*
X220500D01*
Y180500D01*
D02*
G37*
G36*
X53520Y175772D02*
X51248D01*
Y173669D01*
X50748Y173551D01*
X50136Y174348D01*
X49231Y175043D01*
X48178Y175479D01*
X47047Y175628D01*
X45917Y175479D01*
X44863Y175043D01*
X43959Y174348D01*
X43264Y173444D01*
X42828Y172390D01*
X42679Y171260D01*
X42828Y170129D01*
X43192Y169250D01*
X40637Y166695D01*
X40297Y166762D01*
X39529Y166610D01*
X38877Y166174D01*
X38442Y165523D01*
X38289Y164755D01*
X38442Y163987D01*
X38877Y163336D01*
X39529Y162901D01*
X40297Y162748D01*
X41065Y162901D01*
X41716Y163336D01*
X42151Y163987D01*
X42283Y164650D01*
X45037Y167405D01*
X45917Y167041D01*
X47047Y166892D01*
X48178Y167041D01*
X49231Y167477D01*
X50136Y168171D01*
X50830Y169076D01*
X51266Y170129D01*
X51279Y170228D01*
X53520D01*
Y173000D01*
Y175772D01*
D02*
G37*
G36*
X56791D02*
X54520D01*
Y173500D01*
X56791D01*
Y175772D01*
D02*
G37*
G36*
X106252D02*
X103980D01*
Y173500D01*
X106252D01*
Y175772D01*
D02*
G37*
G36*
X102980D02*
X100709D01*
Y173500D01*
X102980D01*
Y175772D01*
D02*
G37*
G36*
X204268Y173059D02*
X199150D01*
Y171805D01*
X196496D01*
X196419Y171919D01*
X195768Y172354D01*
X195000Y172507D01*
X194232Y172354D01*
X193581Y171919D01*
X193146Y171268D01*
X192993Y170500D01*
X193146Y169732D01*
X193581Y169081D01*
X194232Y168646D01*
X195000Y168493D01*
X195768Y168646D01*
X196419Y169081D01*
X196496Y169195D01*
X199150D01*
Y167941D01*
X204268D01*
Y173059D01*
D02*
G37*
G36*
X35736Y175777D02*
Y171760D01*
X39753D01*
X39663Y172446D01*
X39205Y173551D01*
X38476Y174500D01*
X37527Y175228D01*
X36422Y175686D01*
X35736Y175777D01*
D02*
G37*
G36*
X34736Y175777D02*
X34050Y175686D01*
X32945Y175228D01*
X31996Y174500D01*
X31268Y173551D01*
X30810Y172446D01*
X30720Y171760D01*
X34736D01*
Y175777D01*
D02*
G37*
G36*
X223575Y173075D02*
X221500D01*
Y171000D01*
X223575D01*
Y173075D01*
D02*
G37*
G36*
X220500D02*
X218425D01*
Y171000D01*
X220500D01*
Y173075D01*
D02*
G37*
G36*
X106252Y172500D02*
X103980D01*
Y170228D01*
X106252D01*
Y172500D01*
D02*
G37*
G36*
X102980D02*
X100709D01*
Y170228D01*
X102980D01*
Y172500D01*
D02*
G37*
G36*
X56791D02*
X54520D01*
Y170228D01*
X56791D01*
Y172500D01*
D02*
G37*
G36*
X12795Y172676D02*
X12027Y172524D01*
X11376Y172089D01*
X10941Y171437D01*
X10788Y170669D01*
X10815Y170534D01*
X7615Y167334D01*
X7480Y167361D01*
X6712Y167209D01*
X6061Y166773D01*
X5626Y166122D01*
X5473Y165354D01*
X5626Y164586D01*
X6061Y163935D01*
X6712Y163500D01*
X7480Y163347D01*
X8248Y163500D01*
X8900Y163935D01*
X9335Y164586D01*
X9487Y165354D01*
X9460Y165489D01*
X12660Y168689D01*
X12795Y168662D01*
X13563Y168815D01*
X14214Y169250D01*
X14650Y169901D01*
X14802Y170669D01*
X14650Y171437D01*
X14214Y172089D01*
X13563Y172524D01*
X12795Y172676D01*
D02*
G37*
G36*
X211748Y173059D02*
X206630D01*
Y167941D01*
X211748D01*
Y169195D01*
X212732D01*
Y168138D01*
X217457D01*
Y172862D01*
X212732D01*
Y171805D01*
X211748D01*
Y173059D01*
D02*
G37*
G36*
X223575Y170000D02*
X221500D01*
Y167925D01*
X223575D01*
Y170000D01*
D02*
G37*
G36*
X220500D02*
X218425D01*
Y167925D01*
X220500D01*
Y170000D01*
D02*
G37*
G36*
X34736Y170760D02*
X30720D01*
X30810Y170074D01*
X31268Y168969D01*
X31996Y168019D01*
X32945Y167291D01*
X34050Y166833D01*
X34736Y166743D01*
Y170760D01*
D02*
G37*
G36*
X39753D02*
X35736D01*
Y166743D01*
X36422Y166833D01*
X37527Y167291D01*
X38476Y168019D01*
X39205Y168969D01*
X39663Y170074D01*
X39753Y170760D01*
D02*
G37*
G36*
X110055Y167732D02*
X107783D01*
Y165461D01*
X110055D01*
Y167732D01*
D02*
G37*
G36*
X106783D02*
X104512D01*
Y165461D01*
X106783D01*
Y167732D01*
D02*
G37*
G36*
X53520Y165772D02*
X51248D01*
Y163500D01*
X53520D01*
Y165772D01*
D02*
G37*
G36*
X91240Y165216D02*
X90067D01*
Y163492D01*
X93365D01*
X93295Y163843D01*
X92813Y164565D01*
X92091Y165047D01*
X91240Y165216D01*
D02*
G37*
G36*
X110055Y164461D02*
X107783D01*
Y162189D01*
X110055D01*
Y164461D01*
D02*
G37*
G36*
X106783D02*
X104512D01*
Y162189D01*
X106783D01*
Y164461D01*
D02*
G37*
G36*
X204268Y162559D02*
X199150D01*
Y161305D01*
X196496D01*
X196419Y161419D01*
X195768Y161854D01*
X195000Y162007D01*
X194232Y161854D01*
X193581Y161419D01*
X193146Y160768D01*
X192993Y160000D01*
X193146Y159232D01*
X193581Y158581D01*
X194232Y158146D01*
X195000Y157993D01*
X195768Y158146D01*
X196419Y158581D01*
X196496Y158695D01*
X199150D01*
Y157441D01*
X204268D01*
Y162559D01*
D02*
G37*
G36*
X93365Y162492D02*
X90067D01*
Y160768D01*
X91240D01*
X92091Y160938D01*
X92813Y161420D01*
X93295Y162141D01*
X93365Y162492D01*
D02*
G37*
G36*
X223575Y162575D02*
X221500D01*
Y160500D01*
X223575D01*
Y162575D01*
D02*
G37*
G36*
X220500D02*
X218425D01*
Y160500D01*
X220500D01*
Y162575D01*
D02*
G37*
G36*
X47547Y163965D02*
Y159949D01*
X51661D01*
X51906Y160228D01*
X53520D01*
Y162500D01*
X51248D01*
Y162259D01*
X50748Y162089D01*
X50288Y162689D01*
X49338Y163417D01*
X48233Y163875D01*
X47547Y163965D01*
D02*
G37*
G36*
X46547Y163965D02*
X45861Y163875D01*
X44756Y163417D01*
X43807Y162689D01*
X43079Y161740D01*
X42621Y160635D01*
X42531Y159949D01*
X46547D01*
Y163965D01*
D02*
G37*
G36*
X106784Y161244D02*
X104512D01*
Y158973D01*
X106784D01*
Y161244D01*
D02*
G37*
G36*
X91240Y160216D02*
X90067D01*
Y158492D01*
X93365D01*
X93295Y158843D01*
X92813Y159565D01*
X92091Y160047D01*
X91240Y160216D01*
D02*
G37*
G36*
X211748Y162559D02*
X206630D01*
Y157441D01*
X211748D01*
Y158695D01*
X212732D01*
Y157638D01*
X217457D01*
Y162362D01*
X212732D01*
Y161305D01*
X211748D01*
Y162559D01*
D02*
G37*
G36*
X223575Y159500D02*
X221500D01*
Y157425D01*
X223575D01*
Y159500D01*
D02*
G37*
G36*
X220500D02*
X218425D01*
Y157425D01*
X220500D01*
Y159500D01*
D02*
G37*
G36*
X93365Y157492D02*
X90067D01*
Y155768D01*
X91240D01*
X92091Y155938D01*
X92813Y156420D01*
X93295Y157141D01*
X93365Y157492D01*
D02*
G37*
G36*
X106784Y157973D02*
X104512D01*
Y155701D01*
X106784D01*
Y157973D01*
D02*
G37*
G36*
X187614Y154354D02*
X185343D01*
Y152083D01*
X187614D01*
Y154354D01*
D02*
G37*
G36*
X184343D02*
X182071D01*
Y152083D01*
X184343D01*
Y154354D01*
D02*
G37*
G36*
X56791Y152500D02*
X54520D01*
Y150228D01*
X56791D01*
Y152500D01*
D02*
G37*
G36*
X18307Y162828D02*
X16995Y162698D01*
X15733Y162316D01*
X14571Y161694D01*
X13552Y160858D01*
X12715Y159839D01*
X12094Y158676D01*
X11711Y157414D01*
X11582Y156102D01*
X11711Y154790D01*
X12094Y153529D01*
X12715Y152366D01*
X13552Y151347D01*
X14571Y150511D01*
X15733Y149889D01*
X16995Y149506D01*
X18307Y149377D01*
X19619Y149506D01*
X20881Y149889D01*
X22043Y150511D01*
X23063Y151347D01*
X23899Y152366D01*
X24521Y153529D01*
X24903Y154790D01*
X25032Y156102D01*
X24903Y157414D01*
X24521Y158676D01*
X23899Y159839D01*
X23063Y160858D01*
X22043Y161694D01*
X20881Y162316D01*
X19619Y162698D01*
X18307Y162828D01*
D02*
G37*
G36*
X187614Y151083D02*
X185343D01*
Y148811D01*
X187614D01*
Y151083D01*
D02*
G37*
G36*
X184343D02*
X182071D01*
Y148811D01*
X184343D01*
Y151083D01*
D02*
G37*
G36*
X106252Y150772D02*
X103980D01*
Y148500D01*
X106252D01*
Y150772D01*
D02*
G37*
G36*
X102980D02*
X100709D01*
Y148500D01*
X102980D01*
Y150772D01*
D02*
G37*
G36*
X106252Y147500D02*
X103980D01*
Y145228D01*
X106252D01*
Y147500D01*
D02*
G37*
G36*
X18898Y148857D02*
X18130Y148705D01*
X17478Y148270D01*
X17469Y148255D01*
X10236D01*
X9699Y148148D01*
X9243Y147844D01*
X3954Y142555D01*
X3937Y142558D01*
X3169Y142405D01*
X2518Y141970D01*
X2083Y141319D01*
X1930Y140551D01*
X2083Y139783D01*
X2518Y139132D01*
X3169Y138697D01*
X3937Y138544D01*
X4705Y138697D01*
X5356Y139132D01*
X5791Y139783D01*
X5944Y140551D01*
X5941Y140568D01*
X10818Y145445D01*
X17469D01*
X17478Y145431D01*
X18130Y144996D01*
X18898Y144843D01*
X19666Y144996D01*
X20317Y145431D01*
X20752Y146082D01*
X20905Y146850D01*
X20752Y147618D01*
X20317Y148270D01*
X19666Y148705D01*
X18898Y148857D01*
D02*
G37*
G36*
X56791Y145772D02*
X54520D01*
Y143500D01*
X56791D01*
Y145772D01*
D02*
G37*
G36*
X74410Y146102D02*
X73641Y145949D01*
X72990Y145514D01*
X72555Y144863D01*
X72402Y144095D01*
X72555Y143326D01*
X72990Y142675D01*
X73105Y142599D01*
Y137323D01*
X72990Y137246D01*
X72555Y136595D01*
X72402Y135827D01*
X72555Y135059D01*
X72990Y134408D01*
X73144Y134305D01*
X72993Y133805D01*
X58996D01*
X58919Y133919D01*
X58268Y134354D01*
X57500Y134507D01*
X56732Y134354D01*
X56081Y133919D01*
X55646Y133268D01*
X55493Y132500D01*
X55646Y131732D01*
X56081Y131081D01*
X56732Y130646D01*
X57500Y130493D01*
X58268Y130646D01*
X58919Y131081D01*
X58996Y131195D01*
X75807D01*
X76306Y131295D01*
X76730Y131578D01*
X86625Y141473D01*
X87126Y141138D01*
X87894Y140985D01*
X91240D01*
X92008Y141138D01*
X92659Y141573D01*
X93094Y142224D01*
X93247Y142992D01*
X93094Y143760D01*
X92659Y144411D01*
X92008Y144846D01*
X91240Y144999D01*
X87894D01*
X87126Y144846D01*
X86475Y144411D01*
X86333Y144199D01*
X86202D01*
X85702Y144100D01*
X85279Y143817D01*
X76836Y135374D01*
X76376Y135620D01*
X76416Y135827D01*
X76264Y136595D01*
X75829Y137246D01*
X75714Y137323D01*
Y142599D01*
X75829Y142675D01*
X76264Y143326D01*
X76416Y144095D01*
X76264Y144863D01*
X75829Y145514D01*
X75178Y145949D01*
X74410Y146102D01*
D02*
G37*
G36*
X53520Y142500D02*
X51248D01*
Y140228D01*
X53520D01*
Y142500D01*
D02*
G37*
G36*
X106252Y140772D02*
X103980D01*
Y138500D01*
X106252D01*
Y140772D01*
D02*
G37*
G36*
X69784Y140216D02*
X68610D01*
Y138492D01*
X71908D01*
X71838Y138843D01*
X71356Y139565D01*
X70635Y140047D01*
X69784Y140216D01*
D02*
G37*
G36*
X67610D02*
X66437D01*
X65586Y140047D01*
X64864Y139565D01*
X64382Y138843D01*
X64313Y138492D01*
X67610D01*
Y140216D01*
D02*
G37*
G36*
X71908Y137492D02*
X68610D01*
Y135768D01*
X69784D01*
X70635Y135938D01*
X71356Y136420D01*
X71838Y137141D01*
X71908Y137492D01*
D02*
G37*
G36*
X67610D02*
X64313D01*
X64382Y137141D01*
X64864Y136420D01*
X65586Y135938D01*
X66437Y135768D01*
X67610D01*
Y137492D01*
D02*
G37*
G36*
X106252Y137500D02*
X103980D01*
Y135228D01*
X106252D01*
Y137500D01*
D02*
G37*
G36*
X215748Y133488D02*
X215029Y133394D01*
X214358Y133116D01*
X213783Y132674D01*
X213341Y132098D01*
X213063Y131428D01*
X212968Y130709D01*
X213063Y129989D01*
X213341Y129319D01*
X213783Y128743D01*
X214358Y128301D01*
X215029Y128024D01*
X215748Y127929D01*
X216467Y128024D01*
X217138Y128301D01*
X217714Y128743D01*
X218155Y129319D01*
X218433Y129989D01*
X218528Y130709D01*
X218433Y131428D01*
X218155Y132098D01*
X217714Y132674D01*
X217138Y133116D01*
X216467Y133394D01*
X215748Y133488D01*
D02*
G37*
G36*
X175016Y128839D02*
X172744D01*
Y126567D01*
X175016D01*
Y128839D01*
D02*
G37*
G36*
X171744D02*
X169473D01*
Y126567D01*
X171744D01*
Y128839D01*
D02*
G37*
G36*
X188008Y116953D02*
X185736D01*
Y114681D01*
X188008D01*
Y116953D01*
D02*
G37*
G36*
X184736D02*
X182465D01*
Y114681D01*
X184736D01*
Y116953D01*
D02*
G37*
G36*
X188008Y113681D02*
X185736D01*
Y111409D01*
X188008D01*
Y113681D01*
D02*
G37*
G36*
X218740Y69526D02*
X217610Y69377D01*
X216556Y68941D01*
X215651Y68246D01*
X214957Y67342D01*
X214521Y66288D01*
X214372Y65158D01*
X214521Y64027D01*
X214957Y62974D01*
X215651Y62069D01*
X216556Y61375D01*
X217610Y60938D01*
X218740Y60790D01*
X219871Y60938D01*
X220924Y61375D01*
X221829Y62069D01*
X222523Y62974D01*
X222959Y64027D01*
X223108Y65158D01*
X222959Y66288D01*
X222523Y67342D01*
X221829Y68246D01*
X220924Y68941D01*
X219871Y69377D01*
X218740Y69526D01*
D02*
G37*
G36*
X218740Y59526D02*
X217609Y59377D01*
X216556Y58941D01*
X215651Y58247D01*
X214957Y57342D01*
X214521Y56288D01*
X214372Y55158D01*
X214521Y54027D01*
X214957Y52974D01*
X215651Y52069D01*
X216556Y51375D01*
X217609Y50939D01*
X218740Y50790D01*
X219870Y50939D01*
X220924Y51375D01*
X221829Y52069D01*
X222523Y52974D01*
X222959Y54027D01*
X223108Y55158D01*
X222959Y56288D01*
X222523Y57342D01*
X221829Y58247D01*
X220924Y58941D01*
X219870Y59377D01*
X218740Y59526D01*
D02*
G37*
G36*
X218741Y49525D02*
X217610Y49376D01*
X216556Y48940D01*
X215652Y48246D01*
X214958Y47341D01*
X214521Y46288D01*
X214372Y45157D01*
X214521Y44027D01*
X214958Y42973D01*
X215652Y42069D01*
X216556Y41374D01*
X217610Y40938D01*
X218741Y40789D01*
X219871Y40938D01*
X220924Y41374D01*
X221829Y42069D01*
X222523Y42973D01*
X222960Y44027D01*
X223109Y45157D01*
X222960Y46288D01*
X222523Y47341D01*
X221829Y48246D01*
X220924Y48940D01*
X219871Y49376D01*
X218741Y49525D01*
D02*
G37*
G36*
Y39525D02*
X217610Y39377D01*
X216556Y38940D01*
X215652Y38246D01*
X214958Y37341D01*
X214521Y36288D01*
X214372Y35157D01*
X214521Y34027D01*
X214958Y32973D01*
X215652Y32069D01*
X216556Y31374D01*
X217610Y30938D01*
X218741Y30789D01*
X219871Y30938D01*
X220924Y31374D01*
X221829Y32069D01*
X222523Y32973D01*
X222960Y34027D01*
X223109Y35157D01*
X222960Y36288D01*
X222523Y37341D01*
X221829Y38246D01*
X220924Y38940D01*
X219871Y39377D01*
X218741Y39525D01*
D02*
G37*
G36*
Y29525D02*
X217610Y29377D01*
X216556Y28940D01*
X215652Y28246D01*
X214958Y27341D01*
X214521Y26288D01*
X214372Y25157D01*
X214521Y24027D01*
X214958Y22973D01*
X215652Y22069D01*
X216556Y21374D01*
X217610Y20938D01*
X218741Y20789D01*
X219871Y20938D01*
X220924Y21374D01*
X221829Y22069D01*
X222523Y22973D01*
X222960Y24027D01*
X223109Y25157D01*
X222960Y26288D01*
X222523Y27341D01*
X221829Y28246D01*
X220924Y28940D01*
X219871Y29377D01*
X218741Y29525D01*
D02*
G37*
G36*
X223071Y19488D02*
X214410D01*
Y10827D01*
X223071D01*
Y19488D01*
D02*
G37*
G36*
X125984Y223252D02*
X125265Y223157D01*
X124594Y222880D01*
X124019Y222438D01*
X123577Y221862D01*
X123299Y221192D01*
X123205Y220472D01*
X123299Y219753D01*
X123577Y219083D01*
X124019Y218507D01*
X124594Y218065D01*
X125265Y217788D01*
X125984Y217693D01*
X126704Y217788D01*
X127374Y218065D01*
X127950Y218507D01*
X128392Y219083D01*
X128669Y219753D01*
X128764Y220472D01*
X128669Y221192D01*
X128392Y221862D01*
X127950Y222438D01*
X127374Y222880D01*
X126704Y223157D01*
X125984Y223252D01*
D02*
G37*
G36*
X157480Y223261D02*
X156168Y223131D01*
X154907Y222749D01*
X153744Y222127D01*
X152725Y221291D01*
X151888Y220272D01*
X151267Y219109D01*
X150884Y217847D01*
X150755Y216535D01*
X150884Y215223D01*
X151267Y213962D01*
X151888Y212799D01*
X152725Y211780D01*
X153744Y210944D01*
X154907Y210322D01*
X156168Y209939D01*
X157480Y209810D01*
X158792Y209939D01*
X160054Y210322D01*
X161217Y210944D01*
X162236Y211780D01*
X163072Y212799D01*
X163694Y213962D01*
X164076Y215223D01*
X164206Y216535D01*
X164076Y217847D01*
X163694Y219109D01*
X163072Y220272D01*
X162236Y221291D01*
X161217Y222127D01*
X160054Y222749D01*
X158792Y223131D01*
X157480Y223261D01*
D02*
G37*
G36*
X116823Y198835D02*
X114551D01*
Y196563D01*
X116823D01*
Y198835D01*
D02*
G37*
G36*
Y195563D02*
X114551D01*
Y193291D01*
X116823D01*
Y195563D01*
D02*
G37*
G36*
X132693Y175484D02*
X130421D01*
Y173213D01*
X132693D01*
Y175484D01*
D02*
G37*
G36*
X129421D02*
X127150D01*
Y173213D01*
X129421D01*
Y175484D01*
D02*
G37*
G36*
X126394Y198835D02*
X124122D01*
Y196563D01*
X126394D01*
Y198835D01*
D02*
G37*
G36*
X129421Y198441D02*
X127150D01*
Y196169D01*
X129421D01*
Y198441D01*
D02*
G37*
G36*
X154937Y160457D02*
X152666D01*
Y158185D01*
X154937D01*
Y160457D01*
D02*
G37*
G36*
X151666D02*
X149394D01*
Y158185D01*
X151666D01*
Y160457D01*
D02*
G37*
G36*
X154937Y157185D02*
X152666D01*
Y154913D01*
X154937D01*
Y157185D01*
D02*
G37*
G36*
X151666D02*
X149394D01*
Y154913D01*
X151666D01*
Y157185D01*
D02*
G37*
G36*
X167142Y108488D02*
X164870D01*
Y106217D01*
X167142D01*
Y108488D01*
D02*
G37*
G36*
X163870D02*
X161599D01*
Y106217D01*
X163870D01*
Y108488D01*
D02*
G37*
G36*
X167142Y105217D02*
X164870D01*
Y102945D01*
X167142D01*
Y105217D01*
D02*
G37*
G36*
X163870D02*
X161599D01*
Y102945D01*
X163870D01*
Y105217D01*
D02*
G37*
G36*
X167142Y102206D02*
X164870D01*
Y99934D01*
X167142D01*
Y102206D01*
D02*
G37*
G36*
X163870D02*
X161599D01*
Y99934D01*
X163870D01*
Y102206D01*
D02*
G37*
G36*
X150803Y101197D02*
X148531D01*
Y98925D01*
X150803D01*
Y101197D01*
D02*
G37*
G36*
X147531D02*
X145260D01*
Y98925D01*
X147531D01*
Y101197D01*
D02*
G37*
G36*
X167142Y98934D02*
X164870D01*
Y96662D01*
X167142D01*
Y98934D01*
D02*
G37*
G36*
X163870D02*
X161599D01*
Y96662D01*
X163870D01*
Y98934D01*
D02*
G37*
G36*
X150803Y97925D02*
X148531D01*
Y95653D01*
X150803D01*
Y97925D01*
D02*
G37*
G36*
X164854Y84268D02*
X162583D01*
Y81996D01*
X164854D01*
Y84268D01*
D02*
G37*
G36*
X106906Y108488D02*
X104634D01*
Y106217D01*
X106906D01*
Y108488D01*
D02*
G37*
G36*
X103634D02*
X101362D01*
Y106217D01*
X103634D01*
Y108488D01*
D02*
G37*
G36*
X106906Y105217D02*
X104634D01*
Y102945D01*
X106906D01*
Y105217D01*
D02*
G37*
G36*
X103634D02*
X101362D01*
Y102945D01*
X103634D01*
Y105217D01*
D02*
G37*
G36*
X69291Y110275D02*
X68523Y110122D01*
X67872Y109687D01*
X67437Y109036D01*
X67284Y108268D01*
X67437Y107500D01*
X67872Y106849D01*
X67987Y106772D01*
Y99832D01*
X67635Y99480D01*
X67500Y99507D01*
X66732Y99354D01*
X66081Y98919D01*
X65646Y98268D01*
X65514Y97605D01*
X65493Y97500D01*
X65464Y97465D01*
X65241Y97465D01*
X63296D01*
Y95193D01*
X65567D01*
Y95950D01*
X66067Y96101D01*
X66081Y96081D01*
X66732Y95646D01*
X67500Y95493D01*
X68268Y95646D01*
X68919Y96081D01*
X69354Y96732D01*
X69507Y97500D01*
X69480Y97635D01*
X70214Y98369D01*
X70497Y98792D01*
X70503Y98827D01*
X75591D01*
Y100081D01*
X77362D01*
Y99024D01*
X82087D01*
Y103749D01*
X77362D01*
Y102690D01*
X75591D01*
Y103945D01*
X70596D01*
Y106772D01*
X70711Y106849D01*
X71146Y107500D01*
X71298Y108268D01*
X71146Y109036D01*
X70711Y109687D01*
X70059Y110122D01*
X69291Y110275D01*
D02*
G37*
G36*
X82299Y98056D02*
X80224D01*
Y95981D01*
X82299D01*
Y98056D01*
D02*
G37*
G36*
X79224D02*
X77150D01*
Y95981D01*
X79224D01*
Y98056D01*
D02*
G37*
G36*
X62296Y97465D02*
X60024D01*
Y95193D01*
X62296D01*
Y97465D01*
D02*
G37*
G36*
X82299Y94981D02*
X80224D01*
Y92906D01*
X82299D01*
Y94981D01*
D02*
G37*
G36*
X79224D02*
X77150D01*
Y92906D01*
X79224D01*
Y94981D01*
D02*
G37*
G36*
X65567Y94193D02*
X63296D01*
Y91921D01*
X65567D01*
Y94193D01*
D02*
G37*
G36*
X113992Y93528D02*
X111721D01*
Y91256D01*
X113992D01*
Y93528D01*
D02*
G37*
G36*
X110721D02*
X108449D01*
Y91256D01*
X110721D01*
Y93528D01*
D02*
G37*
G36*
X67414Y90476D02*
X65929D01*
Y90264D01*
X64780D01*
Y90476D01*
X63296D01*
Y86228D01*
Y81980D01*
X64050D01*
Y81249D01*
X62058Y79257D01*
X61338D01*
X61262Y79372D01*
X60611Y79807D01*
X59842Y79960D01*
X59074Y79807D01*
X58423Y79372D01*
X57988Y78721D01*
X57836Y77953D01*
X57988Y77185D01*
X58423Y76534D01*
X59074Y76099D01*
X59842Y75946D01*
X60611Y76099D01*
X61262Y76534D01*
X61338Y76648D01*
X62598D01*
X63098Y76748D01*
X63521Y77030D01*
X66277Y79786D01*
X66560Y80210D01*
X66659Y80709D01*
Y81980D01*
X67414D01*
Y86228D01*
Y90476D01*
D02*
G37*
G36*
X113992Y90256D02*
X111721D01*
Y87984D01*
X113992D01*
Y90256D01*
D02*
G37*
G36*
X110721D02*
X108449D01*
Y87984D01*
X110721D01*
Y90256D01*
D02*
G37*
G36*
X105000Y102007D02*
X104232Y101854D01*
X103581Y101419D01*
X103146Y100768D01*
X102993Y100000D01*
X103146Y99232D01*
X103581Y98581D01*
X103695Y98504D01*
Y96254D01*
X94230Y86788D01*
X94095Y86815D01*
X93326Y86662D01*
X92675Y86227D01*
X92240Y85576D01*
X92087Y84808D01*
X92240Y84040D01*
X92675Y83389D01*
X93326Y82954D01*
X94095Y82801D01*
X94863Y82954D01*
X95514Y83389D01*
X95949Y84040D01*
X96102Y84808D01*
X96075Y84943D01*
X105922Y94791D01*
X106205Y95214D01*
X106305Y95713D01*
Y98504D01*
X106419Y98581D01*
X106854Y99232D01*
X107007Y100000D01*
X106854Y100768D01*
X106419Y101419D01*
X105768Y101854D01*
X105000Y102007D01*
D02*
G37*
G36*
X123681Y87224D02*
X120020D01*
Y86032D01*
X119520Y85742D01*
X118898Y85865D01*
X118130Y85713D01*
X117478Y85277D01*
X117043Y84626D01*
X116891Y83858D01*
X117043Y83090D01*
X117478Y82439D01*
X118130Y82004D01*
X118898Y81851D01*
X119520Y81975D01*
X120020Y81685D01*
Y80492D01*
X120445D01*
Y78543D01*
X119488D01*
Y73425D01*
X119764D01*
X120081Y73039D01*
X120040Y72835D01*
X120193Y72067D01*
X120628Y71415D01*
X121279Y70980D01*
X122047Y70828D01*
X122815Y70980D01*
X123467Y71415D01*
X123901Y72067D01*
X124054Y72835D01*
X124014Y73039D01*
X124331Y73425D01*
X124606D01*
Y74579D01*
X126575D01*
Y73425D01*
X126850D01*
X127167Y73039D01*
X127127Y72835D01*
X127280Y72067D01*
X127715Y71415D01*
X128366Y70980D01*
X129134Y70828D01*
X129902Y70980D01*
X130553Y71415D01*
X130988Y72067D01*
X131141Y72835D01*
X131100Y73039D01*
X131418Y73425D01*
X131693D01*
Y78543D01*
X126575D01*
Y77389D01*
X124606D01*
Y78543D01*
X123255D01*
Y80492D01*
X123681D01*
Y87224D01*
D02*
G37*
G36*
X133736Y87437D02*
X132193D01*
Y84358D01*
X133736D01*
Y87437D01*
D02*
G37*
G36*
X131193D02*
X129650D01*
Y84358D01*
X131193D01*
Y87437D01*
D02*
G37*
G36*
X128815D02*
X127272D01*
Y84358D01*
X128815D01*
Y87437D01*
D02*
G37*
G36*
X126272D02*
X124728D01*
Y84358D01*
X126272D01*
Y87437D01*
D02*
G37*
G36*
X133736Y83358D02*
X132193D01*
Y80279D01*
X133736D01*
Y83358D01*
D02*
G37*
G36*
X131193D02*
X129650D01*
Y80279D01*
X131193D01*
Y83358D01*
D02*
G37*
G36*
X128815Y83358D02*
X127272D01*
Y80279D01*
X128815D01*
Y83358D01*
D02*
G37*
G36*
X126272D02*
X124728D01*
Y80279D01*
X126272D01*
Y83358D01*
D02*
G37*
G36*
X117339Y78756D02*
X115067D01*
Y76484D01*
X117339D01*
Y78756D01*
D02*
G37*
G36*
X114067D02*
X111795D01*
Y76484D01*
X114067D01*
Y78756D01*
D02*
G37*
G36*
X117339Y75484D02*
X115067D01*
Y73213D01*
X117339D01*
Y75484D01*
D02*
G37*
G36*
X114067D02*
X111795D01*
Y73213D01*
X114067D01*
Y75484D01*
D02*
G37*
G36*
X35236Y77203D02*
X34106Y77054D01*
X33052Y76617D01*
X32148Y75923D01*
X31454Y75019D01*
X31017Y73965D01*
X30868Y72835D01*
X31017Y71704D01*
X31454Y70651D01*
X32148Y69746D01*
X33052Y69052D01*
X34106Y68615D01*
X35236Y68467D01*
X36367Y68615D01*
X37420Y69052D01*
X38325Y69746D01*
X39019Y70651D01*
X39456Y71704D01*
X39604Y72835D01*
X39456Y73965D01*
X39019Y75019D01*
X38325Y75923D01*
X37420Y76617D01*
X36367Y77054D01*
X35236Y77203D01*
D02*
G37*
G36*
X129240Y69674D02*
Y65658D01*
X133257D01*
X133167Y66344D01*
X132709Y67449D01*
X131981Y68398D01*
X131031Y69126D01*
X129926Y69584D01*
X129240Y69674D01*
D02*
G37*
G36*
X128240D02*
X127554Y69584D01*
X126449Y69126D01*
X125500Y68398D01*
X124772Y67449D01*
X124314Y66344D01*
X124223Y65658D01*
X128240D01*
Y69674D01*
D02*
G37*
G36*
X157252Y64228D02*
X154980D01*
Y61957D01*
X157252D01*
Y64228D01*
D02*
G37*
G36*
X133257Y64658D02*
X129240D01*
Y60641D01*
X129926Y60731D01*
X131031Y61189D01*
X131981Y61917D01*
X132709Y62866D01*
X133167Y63972D01*
X133257Y64658D01*
D02*
G37*
G36*
X128240D02*
X124223D01*
X124314Y63972D01*
X124772Y62866D01*
X125500Y61917D01*
X126449Y61189D01*
X127554Y60731D01*
X128240Y60641D01*
Y64658D01*
D02*
G37*
G36*
X176295Y62032D02*
X175205D01*
Y60508D01*
X176295D01*
Y62032D01*
D02*
G37*
G36*
X168299D02*
X167209D01*
Y60508D01*
X168299D01*
Y62032D01*
D02*
G37*
G36*
X166524Y60957D02*
X164252D01*
Y58685D01*
X166524D01*
Y60957D01*
D02*
G37*
G36*
X157252D02*
X154980D01*
Y58685D01*
X157252D01*
Y60957D01*
D02*
G37*
G36*
X57177Y61933D02*
X55693D01*
Y58185D01*
X57177D01*
Y61933D01*
D02*
G37*
G36*
X176295Y59508D02*
X175205D01*
Y57984D01*
X176295D01*
Y59508D01*
D02*
G37*
G36*
X174205Y62032D02*
X173236D01*
Y60008D01*
Y57984D01*
X174205D01*
Y60008D01*
Y62032D01*
D02*
G37*
G36*
X172236D02*
X171268D01*
Y60008D01*
Y57984D01*
X172236D01*
Y60008D01*
Y62032D01*
D02*
G37*
G36*
X170268D02*
X169299D01*
Y60008D01*
Y57984D01*
X170268D01*
Y60008D01*
Y62032D01*
D02*
G37*
G36*
X168299Y59508D02*
X167209D01*
Y57984D01*
X168299D01*
Y59508D01*
D02*
G37*
G36*
X47047Y65392D02*
X45917Y65243D01*
X44863Y64806D01*
X43959Y64112D01*
X43265Y63208D01*
X42828Y62154D01*
X42679Y61024D01*
X42828Y59893D01*
X43265Y58840D01*
X43959Y57935D01*
X44863Y57241D01*
X45917Y56804D01*
X47047Y56656D01*
X48178Y56804D01*
X49231Y57241D01*
X50136Y57935D01*
X50830Y58840D01*
X51267Y59893D01*
X51415Y61024D01*
X51267Y62154D01*
X50830Y63208D01*
X50136Y64112D01*
X49231Y64806D01*
X48178Y65243D01*
X47047Y65392D01*
D02*
G37*
G36*
X35236D02*
X34106Y65243D01*
X33052Y64806D01*
X32148Y64112D01*
X31454Y63208D01*
X31017Y62154D01*
X30868Y61024D01*
X31017Y59893D01*
X31454Y58840D01*
X32148Y57935D01*
X33052Y57241D01*
X34106Y56804D01*
X35236Y56656D01*
X36367Y56804D01*
X37420Y57241D01*
X38325Y57935D01*
X39019Y58840D01*
X39456Y59893D01*
X39604Y61024D01*
X39456Y62154D01*
X39019Y63208D01*
X38325Y64112D01*
X37420Y64806D01*
X36367Y65243D01*
X35236Y65392D01*
D02*
G37*
G36*
X102362Y65780D02*
X101050Y65651D01*
X99788Y65268D01*
X98626Y64647D01*
X97607Y63811D01*
X96770Y62792D01*
X96149Y61629D01*
X95766Y60367D01*
X95637Y59055D01*
X95766Y57743D01*
X96149Y56481D01*
X96770Y55319D01*
X97607Y54300D01*
X98626Y53463D01*
X99788Y52842D01*
X101050Y52459D01*
X102362Y52330D01*
X103674Y52459D01*
X104936Y52842D01*
X106099Y53463D01*
X107118Y54300D01*
X107954Y55319D01*
X108576Y56481D01*
X108958Y57743D01*
X109088Y59055D01*
X108958Y60367D01*
X108576Y61629D01*
X107954Y62792D01*
X107118Y63811D01*
X106099Y64647D01*
X104936Y65268D01*
X103674Y65651D01*
X102362Y65780D01*
D02*
G37*
G36*
X18307Y64403D02*
X16995Y64273D01*
X15734Y63890D01*
X14571Y63269D01*
X13552Y62433D01*
X12715Y61414D01*
X12094Y60251D01*
X11711Y58989D01*
X11582Y57677D01*
X11711Y56365D01*
X12094Y55103D01*
X12715Y53941D01*
X13552Y52922D01*
X14571Y52085D01*
X15734Y51464D01*
X16995Y51081D01*
X18307Y50952D01*
X19619Y51081D01*
X20881Y51464D01*
X22044Y52085D01*
X23063Y52922D01*
X23899Y53941D01*
X24521Y55103D01*
X24903Y56365D01*
X25033Y57677D01*
X24903Y58989D01*
X24521Y60251D01*
X23899Y61414D01*
X23063Y62433D01*
X22044Y63269D01*
X20881Y63890D01*
X19619Y64273D01*
X18307Y64403D01*
D02*
G37*
G36*
X128740Y59526D02*
X127609Y59377D01*
X126556Y58941D01*
X125651Y58247D01*
X124957Y57342D01*
X124521Y56288D01*
X124372Y55158D01*
X124521Y54027D01*
X124957Y52974D01*
X125651Y52069D01*
X126556Y51375D01*
X127609Y50939D01*
X128740Y50790D01*
X129870Y50939D01*
X130924Y51375D01*
X131828Y52069D01*
X132523Y52974D01*
X132959Y54027D01*
X133108Y55158D01*
X132959Y56288D01*
X132523Y57342D01*
X131828Y58247D01*
X130924Y58941D01*
X129870Y59377D01*
X128740Y59526D01*
D02*
G37*
G36*
X67500Y77507D02*
X66732Y77354D01*
X66081Y76919D01*
X65646Y76268D01*
X65493Y75500D01*
X65646Y74732D01*
X66081Y74081D01*
X66195Y74004D01*
Y68996D01*
X66081Y68919D01*
X65646Y68268D01*
X65493Y67500D01*
X65646Y66732D01*
X66081Y66081D01*
X66675Y65684D01*
X66744Y65598D01*
X66868Y65109D01*
X66708Y64869D01*
X66609Y64370D01*
Y61721D01*
X59662D01*
Y61933D01*
X58177D01*
Y57685D01*
X57677D01*
Y57185D01*
X55693D01*
Y53437D01*
X56686D01*
X56935Y52937D01*
X56798Y52756D01*
X53740D01*
Y47638D01*
X58858D01*
Y50911D01*
X59774Y51827D01*
X60236Y51635D01*
Y47662D01*
X64837D01*
Y45513D01*
X63295D01*
Y42741D01*
X62795D01*
Y42241D01*
X60023D01*
Y39970D01*
X60023D01*
X59965Y39494D01*
X58664D01*
X58541Y39658D01*
X58792Y40157D01*
X58858D01*
Y45276D01*
X53740D01*
Y40157D01*
X54995D01*
Y39764D01*
X55094Y39265D01*
X55377Y38841D01*
X56951Y37266D01*
X57375Y36984D01*
X57874Y36884D01*
X63279D01*
X63408Y36675D01*
X63492Y36384D01*
X63106Y35807D01*
X62954Y35039D01*
X63106Y34271D01*
X63541Y33620D01*
X64193Y33185D01*
X64961Y33032D01*
X65729Y33185D01*
X66380Y33620D01*
X66456Y33735D01*
X68583D01*
X68660Y33620D01*
X69311Y33185D01*
X70079Y33032D01*
X70847Y33185D01*
X71498Y33620D01*
X71933Y34271D01*
X72086Y35039D01*
X71933Y35807D01*
X71498Y36459D01*
X70847Y36894D01*
X70079Y37046D01*
X69311Y36894D01*
X68660Y36459D01*
X68583Y36344D01*
X66456D01*
X66380Y36459D01*
X65729Y36894D01*
X65479Y36943D01*
X65315Y37486D01*
X67064Y39235D01*
X67347Y39658D01*
X67446Y40157D01*
Y52362D01*
X67347Y52861D01*
X67155Y53150D01*
X67349Y53650D01*
X71727D01*
Y52780D01*
X70473D01*
Y47662D01*
X75591D01*
Y52780D01*
X74336D01*
Y53650D01*
X77362D01*
Y61721D01*
X77362Y61721D01*
X77179Y62221D01*
X77445Y62618D01*
X77598Y63386D01*
X77445Y64154D01*
X77083Y64695D01*
X77257Y65195D01*
X79023D01*
X81354Y62863D01*
X81163Y62402D01*
X80905D01*
Y57284D01*
X85962D01*
X86053Y56796D01*
X84179Y54921D01*
X80905D01*
Y49803D01*
X86024D01*
Y53076D01*
X88324Y55377D01*
X88607Y55800D01*
X88706Y56299D01*
Y62205D01*
X88607Y62704D01*
X88324Y63127D01*
X82025Y69426D01*
X81602Y69709D01*
X81102Y69809D01*
X72047D01*
X71548Y69709D01*
X71125Y69426D01*
X69824Y68126D01*
X69582Y68199D01*
X69316Y68325D01*
X68919Y68919D01*
X68805Y68996D01*
Y74004D01*
X68919Y74081D01*
X69354Y74732D01*
X69507Y75500D01*
X69354Y76268D01*
X68919Y76919D01*
X68268Y77354D01*
X67500Y77507D01*
D02*
G37*
G36*
X47047Y53581D02*
X45917Y53432D01*
X44863Y52996D01*
X43959Y52301D01*
X43265Y51397D01*
X42828Y50343D01*
X42679Y49213D01*
X42828Y48082D01*
X43265Y47029D01*
X43959Y46124D01*
X44863Y45430D01*
X45917Y44993D01*
X47047Y44844D01*
X48178Y44993D01*
X49231Y45430D01*
X50136Y46124D01*
X50830Y47029D01*
X51267Y48082D01*
X51415Y49213D01*
X51267Y50343D01*
X50830Y51397D01*
X50136Y52301D01*
X49231Y52996D01*
X48178Y53432D01*
X47047Y53581D01*
D02*
G37*
G36*
X75803Y45513D02*
X73532D01*
Y43241D01*
X75803D01*
Y45513D01*
D02*
G37*
G36*
X62295D02*
X60023D01*
Y43241D01*
X62295D01*
Y45513D01*
D02*
G37*
G36*
X72532D02*
X70260D01*
Y43241D01*
X72532D01*
Y45513D01*
D02*
G37*
G36*
X128741Y49525D02*
X127610Y49376D01*
X126556Y48940D01*
X125652Y48246D01*
X124958Y47341D01*
X124521Y46288D01*
X124372Y45157D01*
X124521Y44027D01*
X124958Y42973D01*
X125652Y42069D01*
X126556Y41374D01*
X127610Y40938D01*
X128741Y40789D01*
X129871Y40938D01*
X130924Y41374D01*
X131829Y42069D01*
X132523Y42973D01*
X132960Y44027D01*
X133108Y45157D01*
X132960Y46288D01*
X132523Y47341D01*
X131829Y48246D01*
X130924Y48940D01*
X129871Y49376D01*
X128741Y49525D01*
D02*
G37*
G36*
X75803Y42241D02*
X73532D01*
Y39970D01*
X75803D01*
Y42241D01*
D02*
G37*
G36*
X72532D02*
X70260D01*
Y39970D01*
X72532D01*
Y42241D01*
D02*
G37*
G36*
X39567Y53543D02*
X30906D01*
Y44882D01*
X37722D01*
X43863Y38741D01*
X43836Y38606D01*
X43988Y37838D01*
X44423Y37187D01*
X45075Y36752D01*
X45843Y36599D01*
X46611Y36752D01*
X47262Y37187D01*
X47697Y37838D01*
X47850Y38606D01*
X47697Y39374D01*
X47262Y40025D01*
X46611Y40461D01*
X45843Y40613D01*
X45707Y40587D01*
X39567Y46727D01*
Y53543D01*
D02*
G37*
G36*
X34252Y39015D02*
X33484Y38862D01*
X32833Y38427D01*
X32398Y37776D01*
X32245Y37008D01*
X32398Y36240D01*
X32833Y35589D01*
X33484Y35154D01*
X34252Y35001D01*
X35020Y35154D01*
X35671Y35589D01*
X36106Y36240D01*
X36259Y37008D01*
X36106Y37776D01*
X35671Y38427D01*
X35020Y38862D01*
X34252Y39015D01*
D02*
G37*
G36*
X145917Y36013D02*
X145231Y35922D01*
X144126Y35465D01*
X143177Y34736D01*
X142449Y33787D01*
X141991Y32682D01*
X141901Y31996D01*
X145917D01*
Y36013D01*
D02*
G37*
G36*
X128741Y39525D02*
X127610Y39377D01*
X126556Y38940D01*
X125652Y38246D01*
X124958Y37341D01*
X124521Y36288D01*
X124372Y35157D01*
X124521Y34027D01*
X124958Y32973D01*
X125652Y32069D01*
X126556Y31374D01*
X127610Y30938D01*
X128741Y30789D01*
X129871Y30938D01*
X130924Y31374D01*
X131829Y32069D01*
X132523Y32973D01*
X132960Y34027D01*
X133108Y35157D01*
X132960Y36288D01*
X132523Y37341D01*
X131829Y38246D01*
X130924Y38940D01*
X129871Y39377D01*
X128741Y39525D01*
D02*
G37*
G36*
X145917Y30996D02*
X141901D01*
X141991Y30310D01*
X142449Y29205D01*
X143177Y28256D01*
X144126Y27527D01*
X145231Y27070D01*
X145917Y26979D01*
Y30996D01*
D02*
G37*
G36*
X128741Y29525D02*
X127610Y29377D01*
X126556Y28940D01*
X125652Y28246D01*
X124958Y27341D01*
X124521Y26288D01*
X124372Y25157D01*
X124521Y24027D01*
X124958Y22973D01*
X125652Y22069D01*
X126556Y21374D01*
X127610Y20938D01*
X128741Y20789D01*
X129871Y20938D01*
X130924Y21374D01*
X131829Y22069D01*
X132523Y22973D01*
X132960Y24027D01*
X133108Y25157D01*
X132960Y26288D01*
X132523Y27341D01*
X131829Y28246D01*
X130924Y28940D01*
X129871Y29377D01*
X128741Y29525D01*
D02*
G37*
G36*
X13780Y26008D02*
X13060Y25913D01*
X12390Y25636D01*
X11814Y25194D01*
X11372Y24618D01*
X11095Y23948D01*
X11000Y23228D01*
X11095Y22509D01*
X11372Y21838D01*
X11814Y21263D01*
X12390Y20821D01*
X13060Y20543D01*
X13780Y20449D01*
X14499Y20543D01*
X15169Y20821D01*
X15745Y21263D01*
X16187Y21838D01*
X16465Y22509D01*
X16559Y23228D01*
X16465Y23948D01*
X16187Y24618D01*
X15745Y25194D01*
X15169Y25636D01*
X14499Y25913D01*
X13780Y26008D01*
D02*
G37*
G36*
X133071Y19488D02*
X124410D01*
Y10827D01*
X133071D01*
Y19488D01*
D02*
G37*
G36*
X170291Y17142D02*
X165854D01*
Y10736D01*
X170291D01*
Y17142D01*
D02*
G37*
G36*
X164854D02*
X160417D01*
Y10736D01*
X164854D01*
Y17142D01*
D02*
G37*
G36*
X44554Y12391D02*
Y8374D01*
X48570D01*
X48480Y9060D01*
X48022Y10165D01*
X47294Y11114D01*
X46345Y11843D01*
X45240Y12300D01*
X44554Y12391D01*
D02*
G37*
G36*
X43554D02*
X42868Y12300D01*
X41762Y11843D01*
X40813Y11114D01*
X40085Y10165D01*
X39627Y9060D01*
X39537Y8374D01*
X43554D01*
Y12391D01*
D02*
G37*
G36*
X24554D02*
Y8374D01*
X28571D01*
X28480Y9060D01*
X28022Y10165D01*
X27294Y11114D01*
X26345Y11843D01*
X25240Y12300D01*
X24554Y12391D01*
D02*
G37*
G36*
X23554D02*
X22868Y12300D01*
X21763Y11843D01*
X20813Y11114D01*
X20085Y10165D01*
X19627Y9060D01*
X19537Y8374D01*
X23554D01*
Y12391D01*
D02*
G37*
G36*
X64554Y12390D02*
Y8374D01*
X68571D01*
X68480Y9060D01*
X68023Y10165D01*
X67294Y11114D01*
X66345Y11842D01*
X65240Y12300D01*
X64554Y12390D01*
D02*
G37*
G36*
X63554D02*
X62868Y12300D01*
X61763Y11842D01*
X60814Y11114D01*
X60085Y10165D01*
X59628Y9060D01*
X59537Y8374D01*
X63554D01*
Y12390D01*
D02*
G37*
G36*
X153543Y5944D02*
X152775Y5791D01*
X152124Y5356D01*
X152048Y5242D01*
X143228D01*
X143151Y5356D01*
X142500Y5791D01*
X141732Y5944D01*
X140964Y5791D01*
X140313Y5356D01*
X139878Y4705D01*
X139725Y3937D01*
X139878Y3169D01*
X140313Y2518D01*
X140964Y2083D01*
X141732Y1930D01*
X142500Y2083D01*
X143151Y2518D01*
X143228Y2632D01*
X152048D01*
X152124Y2518D01*
X152775Y2083D01*
X153543Y1930D01*
X154311Y2083D01*
X154963Y2518D01*
X155398Y3169D01*
X155550Y3937D01*
X155398Y4705D01*
X154963Y5356D01*
X154311Y5791D01*
X153543Y5944D01*
D02*
G37*
G36*
X129921D02*
X129153Y5791D01*
X128502Y5356D01*
X128426Y5242D01*
X119606D01*
X119529Y5356D01*
X118878Y5791D01*
X118110Y5944D01*
X117342Y5791D01*
X116691Y5356D01*
X116256Y4705D01*
X116103Y3937D01*
X116256Y3169D01*
X116691Y2518D01*
X117342Y2083D01*
X118110Y1930D01*
X118878Y2083D01*
X119529Y2518D01*
X119606Y2632D01*
X128426D01*
X128502Y2518D01*
X129153Y2083D01*
X129921Y1930D01*
X130689Y2083D01*
X131341Y2518D01*
X131776Y3169D01*
X131928Y3937D01*
X131776Y4705D01*
X131341Y5356D01*
X130689Y5791D01*
X129921Y5944D01*
D02*
G37*
G36*
X98385Y12204D02*
X89723D01*
Y3543D01*
X98385D01*
Y12204D01*
D02*
G37*
G36*
X54053Y12242D02*
X52923Y12094D01*
X51869Y11657D01*
X50965Y10963D01*
X50270Y10058D01*
X49834Y9005D01*
X49685Y7874D01*
X49834Y6744D01*
X50270Y5690D01*
X50965Y4786D01*
X51869Y4092D01*
X52923Y3655D01*
X54053Y3506D01*
X55184Y3655D01*
X56237Y4092D01*
X57142Y4786D01*
X57836Y5690D01*
X58273Y6744D01*
X58421Y7874D01*
X58273Y9005D01*
X57836Y10058D01*
X57142Y10963D01*
X56237Y11657D01*
X55184Y12094D01*
X54053Y12242D01*
D02*
G37*
G36*
X34054Y12242D02*
X32923Y12093D01*
X31870Y11657D01*
X30965Y10963D01*
X30271Y10058D01*
X29835Y9005D01*
X29686Y7874D01*
X29835Y6743D01*
X30271Y5690D01*
X30965Y4785D01*
X31870Y4091D01*
X32923Y3655D01*
X34054Y3506D01*
X35184Y3655D01*
X36238Y4091D01*
X37143Y4785D01*
X37837Y5690D01*
X38273Y6743D01*
X38422Y7874D01*
X38273Y9005D01*
X37837Y10058D01*
X37143Y10963D01*
X36238Y11657D01*
X35184Y12093D01*
X34054Y12242D01*
D02*
G37*
G36*
X84054Y12242D02*
X82923Y12093D01*
X81870Y11657D01*
X80965Y10962D01*
X80271Y10058D01*
X79835Y9004D01*
X79686Y7874D01*
X79835Y6743D01*
X80271Y5690D01*
X80965Y4785D01*
X81870Y4091D01*
X82923Y3655D01*
X84054Y3506D01*
X85185Y3655D01*
X86238Y4091D01*
X87143Y4785D01*
X87837Y5690D01*
X88273Y6743D01*
X88422Y7874D01*
X88273Y9004D01*
X87837Y10058D01*
X87143Y10962D01*
X86238Y11657D01*
X85185Y12093D01*
X84054Y12242D01*
D02*
G37*
G36*
X74054D02*
X72923Y12093D01*
X71870Y11657D01*
X70965Y10962D01*
X70271Y10058D01*
X69835Y9004D01*
X69686Y7874D01*
X69835Y6743D01*
X70271Y5690D01*
X70965Y4785D01*
X71870Y4091D01*
X72923Y3655D01*
X74054Y3506D01*
X75185Y3655D01*
X76238Y4091D01*
X77143Y4785D01*
X77837Y5690D01*
X78273Y6743D01*
X78422Y7874D01*
X78273Y9004D01*
X77837Y10058D01*
X77143Y10962D01*
X76238Y11657D01*
X75185Y12093D01*
X74054Y12242D01*
D02*
G37*
G36*
X28571Y7374D02*
X24554D01*
Y3357D01*
X25240Y3448D01*
X26345Y3906D01*
X27294Y4634D01*
X28022Y5583D01*
X28480Y6688D01*
X28571Y7374D01*
D02*
G37*
G36*
X23554D02*
X19537D01*
X19627Y6688D01*
X20085Y5583D01*
X20813Y4634D01*
X21763Y3906D01*
X22868Y3448D01*
X23554Y3357D01*
Y7374D01*
D02*
G37*
G36*
X48570D02*
X44554D01*
Y3357D01*
X45240Y3448D01*
X46345Y3906D01*
X47294Y4634D01*
X48022Y5583D01*
X48480Y6688D01*
X48570Y7374D01*
D02*
G37*
G36*
X43554D02*
X39537D01*
X39627Y6688D01*
X40085Y5583D01*
X40813Y4634D01*
X41762Y3906D01*
X42868Y3448D01*
X43554Y3357D01*
Y7374D01*
D02*
G37*
G36*
X68571Y7374D02*
X64554D01*
Y3357D01*
X65240Y3447D01*
X66345Y3905D01*
X67294Y4633D01*
X68023Y5582D01*
X68480Y6688D01*
X68571Y7374D01*
D02*
G37*
G36*
X63554D02*
X59537D01*
X59628Y6688D01*
X60085Y5582D01*
X60814Y4633D01*
X61763Y3905D01*
X62868Y3447D01*
X63554Y3357D01*
Y7374D01*
D02*
G37*
G36*
X170291Y9736D02*
X165854D01*
Y3331D01*
X170291D01*
Y9736D01*
D02*
G37*
G36*
X164854D02*
X160417D01*
Y3331D01*
X164854D01*
Y9736D01*
D02*
G37*
G36*
X106299Y5944D02*
X105531Y5791D01*
X104880Y5356D01*
X104445Y4705D01*
X104292Y3937D01*
X104445Y3169D01*
X104880Y2518D01*
X105531Y2083D01*
X106299Y1930D01*
X107067Y2083D01*
X107718Y2518D01*
X108153Y3169D01*
X108306Y3937D01*
X108153Y4705D01*
X107718Y5356D01*
X107067Y5791D01*
X106299Y5944D01*
D02*
G37*
G36*
X29937Y127181D02*
X27665D01*
Y124909D01*
X29937D01*
Y127181D01*
D02*
G37*
G36*
Y123909D02*
X27665D01*
Y121638D01*
X29937D01*
Y123909D01*
D02*
G37*
G36*
X35737Y100973D02*
Y96957D01*
X39753D01*
X39663Y97643D01*
X39205Y98748D01*
X38477Y99697D01*
X37528Y100425D01*
X36423Y100883D01*
X35737Y100973D01*
D02*
G37*
G36*
X34736Y100973D02*
X34050Y100883D01*
X32945Y100425D01*
X31996Y99697D01*
X31268Y98748D01*
X30810Y97643D01*
X30720Y96957D01*
X34736D01*
Y100973D01*
D02*
G37*
G36*
X39753Y95957D02*
X35737D01*
Y91940D01*
X36423Y92030D01*
X37528Y92488D01*
X38477Y93216D01*
X39205Y94165D01*
X39663Y95271D01*
X39753Y95957D01*
D02*
G37*
G36*
X34736D02*
X30720D01*
X30810Y95271D01*
X31268Y94165D01*
X31996Y93216D01*
X32945Y92488D01*
X34050Y92030D01*
X34736Y91940D01*
Y95957D01*
D02*
G37*
G36*
X155724Y42142D02*
X153453D01*
Y39870D01*
X155724D01*
Y42142D01*
D02*
G37*
G36*
Y38870D02*
X153453D01*
Y36598D01*
X155724D01*
Y38870D01*
D02*
G37*
G36*
X156917Y36013D02*
Y31996D01*
X160934D01*
X160844Y32682D01*
X160386Y33787D01*
X159658Y34736D01*
X158709Y35465D01*
X157603Y35922D01*
X156917Y36013D01*
D02*
G37*
G36*
X155917D02*
X155231Y35922D01*
X154126Y35465D01*
X153177Y34736D01*
X152449Y33787D01*
X151991Y32682D01*
X151901Y31996D01*
X155917D01*
Y36013D01*
D02*
G37*
G36*
X160934Y30996D02*
X156917D01*
Y26979D01*
X157603Y27070D01*
X158709Y27527D01*
X159658Y28256D01*
X160386Y29205D01*
X160844Y30310D01*
X160934Y30996D01*
D02*
G37*
G36*
X155917D02*
X151901D01*
X151991Y30310D01*
X152449Y29205D01*
X153177Y28256D01*
X154126Y27527D01*
X155231Y27070D01*
X155917Y26979D01*
Y30996D01*
D02*
G37*
G36*
X180961Y36039D02*
X176917D01*
Y31996D01*
X180961D01*
Y36039D01*
D02*
G37*
G36*
X175917D02*
X171874D01*
Y31996D01*
X175917D01*
Y36039D01*
D02*
G37*
G36*
X180961Y30996D02*
X176917D01*
Y26953D01*
X180961D01*
Y30996D01*
D02*
G37*
G36*
X175917D02*
X171874D01*
Y26953D01*
X175917D01*
Y30996D01*
D02*
G37*
G36*
X180209Y26000D02*
X177937D01*
Y23728D01*
X180209D01*
Y26000D01*
D02*
G37*
G36*
Y22728D02*
X177937D01*
Y20457D01*
X180209D01*
Y22728D01*
D02*
G37*
G36*
X182102Y95291D02*
X179831D01*
Y93020D01*
X182102D01*
Y95291D01*
D02*
G37*
G36*
X178831D02*
X176559D01*
Y93020D01*
X178831D01*
Y95291D01*
D02*
G37*
G36*
X182102Y92020D02*
X179831D01*
Y89748D01*
X182102D01*
Y92020D01*
D02*
G37*
G36*
X178831D02*
X176559D01*
Y89748D01*
X178831D01*
Y92020D01*
D02*
G37*
G36*
X190961Y26000D02*
X188689D01*
Y23728D01*
X190961D01*
Y26000D01*
D02*
G37*
G36*
X187689D02*
X185417D01*
Y23728D01*
X187689D01*
Y26000D01*
D02*
G37*
G36*
X190961Y22728D02*
X188689D01*
Y20457D01*
X190961D01*
Y22728D01*
D02*
G37*
G36*
X187689D02*
X185417D01*
Y20457D01*
X187689D01*
Y22728D01*
D02*
G37*
G36*
X195488Y17142D02*
X191051D01*
Y10736D01*
X195488D01*
Y17142D01*
D02*
G37*
G36*
X190051D02*
X185614D01*
Y10736D01*
X190051D01*
Y17142D01*
D02*
G37*
G36*
X195488Y9736D02*
X191051D01*
Y3331D01*
X195488D01*
Y9736D01*
D02*
G37*
G36*
X190051D02*
X185614D01*
Y3331D01*
X190051D01*
Y9736D01*
D02*
G37*
%LPD*%
D10*
X120472Y191732D02*
Y200000D01*
X122835Y202362D02*
X131102D01*
X120472Y200000D02*
X122835Y202362D01*
X131102D02*
X133071Y200394D01*
Y190157D02*
Y200394D01*
Y190157D02*
X134125Y189103D01*
X117323Y188583D02*
X120472Y191732D01*
X139705Y182402D02*
Y184980D01*
X142126Y187402D01*
X135748Y187343D02*
X138524D01*
X138583Y187402D01*
X130768Y187343D02*
X135748D01*
X129921Y188189D02*
X130768Y187343D01*
X135681Y189103D02*
X135748Y189035D01*
X134125Y189103D02*
X135681D01*
X135748Y185650D02*
Y187343D01*
D13*
X136811Y150591D02*
Y162008D01*
X138189Y163386D01*
X134843Y150591D02*
Y164370D01*
X138976Y168504D02*
X147244D01*
X134843Y164370D02*
X138976Y168504D01*
X147244D02*
X154331Y175591D01*
X150177Y185650D02*
X154331Y181496D01*
Y175591D02*
Y181496D01*
X57500Y132500D02*
X75807D01*
X89469Y142894D02*
X89567Y142992D01*
X86202Y142894D02*
X89469D01*
X75807Y132500D02*
X86202Y142894D01*
X92520Y198819D02*
Y239565D01*
X90846Y241239D02*
X92520Y239565D01*
X84646Y210630D02*
X87795Y207480D01*
Y197244D02*
Y207480D01*
X90158Y198031D02*
Y231890D01*
X87795Y234252D02*
X90158Y231890D01*
Y198031D02*
X126969Y161220D01*
X143898Y125591D02*
Y135630D01*
X170866Y162598D02*
Y188189D01*
X143898Y135630D02*
X170866Y162598D01*
X148031Y98425D02*
X151575D01*
X103480Y148000D02*
X103512Y148031D01*
X109449D01*
X147723Y98734D02*
X148031Y98425D01*
X147723Y98734D02*
Y101097D01*
X146654Y102166D02*
X147723Y101097D01*
X98553Y158268D02*
X99213D01*
X57492Y187008D02*
X61500Y183000D01*
X55905Y187008D02*
X57492D01*
X69291Y99291D02*
Y108268D01*
X67500Y97500D02*
X69291Y99291D01*
X173976Y236221D02*
X184449Y225748D01*
Y201772D02*
Y225748D01*
X170866Y188189D02*
X184449Y201772D01*
X143898Y125591D02*
X150394Y119095D01*
X156496D01*
X177323Y153823D02*
Y188976D01*
X153347Y150591D02*
X160236Y157480D01*
Y197480D02*
X177323Y214567D01*
X160236Y157480D02*
Y197480D01*
X148622Y150591D02*
X153347D01*
X118110Y3937D02*
X129921D01*
X141732D02*
X153543D01*
X114173Y251969D02*
X129921D01*
X145669D02*
X161417D01*
X177165D02*
X192913D01*
X220472Y236221D02*
Y251969D01*
Y204724D02*
Y220472D01*
X221000Y154337D02*
Y160000D01*
X220472Y153810D02*
X221000Y154337D01*
X220472Y153543D02*
Y153810D01*
X170768Y62894D02*
X170866Y62992D01*
X170768Y60008D02*
Y62894D01*
X152166Y157685D02*
Y160954D01*
X151969Y161151D02*
X152166Y160954D01*
X151969Y161151D02*
Y161417D01*
X103937Y161811D02*
X103945D01*
X107284Y158472D01*
X107283Y164961D02*
X107304Y164982D01*
Y168328D01*
X107480Y168504D01*
X103480Y169354D02*
X103543Y169291D01*
X103480Y169354D02*
Y173000D01*
X89567Y157992D02*
X98277D01*
X98553Y158268D01*
X53937Y168898D02*
X54020Y168980D01*
Y173000D01*
X79724Y89833D02*
Y95481D01*
Y89833D02*
X79921Y89636D01*
Y89370D02*
Y89636D01*
X62796Y81740D02*
Y86228D01*
X61811Y80755D02*
X62796Y81740D01*
X61811Y80709D02*
Y80755D01*
X62598Y77953D02*
X65355Y80709D01*
X59842Y77953D02*
X62598D01*
X114575Y158661D02*
X114764Y158472D01*
X111417Y158661D02*
X114575D01*
X116142Y150394D02*
X116339Y150591D01*
X119095D01*
Y151982D01*
X118996Y152081D02*
X119095Y151982D01*
X117604Y152081D02*
X118996D01*
X114764Y154921D02*
X117604Y152081D01*
X114764Y154921D02*
Y158472D01*
X144685Y150591D02*
Y157685D01*
X141339Y157480D02*
X144481D01*
X144685Y157685D01*
X144488Y161417D02*
X144685Y161220D01*
Y157685D02*
Y161220D01*
X171653Y133465D02*
X172244Y134055D01*
Y136819D01*
X164764Y133661D02*
X164961Y133465D01*
X164764Y133661D02*
Y136819D01*
X172244D01*
X164370Y113197D02*
Y116466D01*
X164567Y116663D01*
Y116929D01*
X164370Y113197D02*
X167639D01*
X167844Y112992D01*
X168110D01*
X156496Y113189D02*
X164362D01*
X164370Y113197D01*
X163779Y68909D02*
X163823Y68866D01*
X163752Y68937D02*
X163779Y68909D01*
Y65748D02*
Y68909D01*
X157752Y68937D02*
X157874Y69059D01*
X154331Y68898D02*
X154370Y68937D01*
X157752D01*
X163823Y68866D02*
X168799D01*
X169291Y81496D02*
X169370Y81417D01*
X172752D01*
X178752Y77965D02*
Y81417D01*
X178740Y77953D02*
X178752Y77965D01*
X100394Y113386D02*
X100583Y113197D01*
X104134D01*
X111221Y111093D02*
Y113189D01*
X111024Y110896D02*
X111221Y111093D01*
X111024Y110630D02*
Y110896D01*
X104142Y113189D02*
X111221D01*
X104134Y113197D02*
X104142Y113189D01*
X148622Y109646D02*
X148819Y109843D01*
X148622Y105315D02*
Y109646D01*
X24016Y145669D02*
X31846Y153500D01*
X24016Y133858D02*
Y145669D01*
X145472Y39370D02*
X148819D01*
X145472Y42717D02*
X145669Y42913D01*
X145472Y39370D02*
Y42717D01*
X142126Y39370D02*
X145472D01*
X19685Y120866D02*
Y124409D01*
X16142Y130709D02*
X19685D01*
X16142Y124409D02*
X19685D01*
Y127953D02*
Y130709D01*
Y124409D02*
Y127953D01*
X61500Y183000D02*
X68110Y189610D01*
Y189764D01*
Y171049D02*
Y172992D01*
X64173Y170472D02*
X67534D01*
X68110Y171049D01*
X61417Y176772D02*
X65827D01*
X68110Y172992D02*
Y174488D01*
X65827Y176772D02*
X68110Y174488D01*
X61500Y173000D02*
X64028Y170472D01*
X64173D01*
X156693Y74016D02*
X165354D01*
X143701Y87008D02*
X156693Y74016D01*
X167323D02*
X170678Y70660D01*
Y68955D02*
Y70660D01*
X165354Y74016D02*
X167323D01*
X123622Y176378D02*
Y179528D01*
X129921Y173079D02*
Y175984D01*
Y173079D02*
X130709Y172291D01*
Y172047D02*
Y172291D01*
X129921Y195669D02*
Y199606D01*
X123622Y196063D02*
Y199606D01*
X117323Y196063D02*
Y199606D01*
X117323Y199606D02*
X117323Y199606D01*
X123622Y183858D02*
X127953Y179528D01*
X131496D01*
X133071Y181102D01*
Y183071D01*
X133957Y183957D02*
X135748D01*
X133071Y183071D02*
X133957Y183957D01*
X94054Y248031D02*
X94882Y247203D01*
Y199606D02*
Y247203D01*
Y199606D02*
X130906Y163583D01*
Y150591D02*
Y163583D01*
X128937Y150591D02*
Y162401D01*
X92520Y198819D02*
X128937Y162401D01*
X126969Y150591D02*
Y161220D01*
X125000Y150591D02*
Y160039D01*
X87795Y197244D02*
X125000Y160039D01*
X114764Y164961D02*
X121063Y158661D01*
Y150591D02*
Y158661D01*
X157696Y61400D02*
X157752Y61457D01*
X157696Y58089D02*
Y61400D01*
X157677Y58071D02*
X157696Y58089D01*
X163752Y58098D02*
X163779Y58071D01*
X163752Y58098D02*
Y61457D01*
X172736Y56595D02*
X173228Y56102D01*
X172736Y56595D02*
Y60008D01*
X168307Y56102D02*
X168799Y56595D01*
Y60008D01*
X172736D02*
X174705D01*
X170768D02*
X172736D01*
X168799D02*
X170768D01*
X65355Y80709D02*
Y86228D01*
X75590Y63386D02*
X75591Y63386D01*
Y57685D02*
Y63386D01*
X155905Y77953D02*
X171260D01*
X146063Y87795D02*
X155905Y77953D01*
X64961Y35039D02*
X70079D01*
X28346Y130709D02*
X31890D01*
X70008Y167992D02*
X74410Y163591D01*
Y163386D02*
Y163591D01*
Y162921D02*
Y163386D01*
Y135827D02*
Y144095D01*
X89567Y162992D02*
X94488D01*
X47047Y194882D02*
X54921Y202756D01*
X55118D01*
X84252Y158252D02*
Y197638D01*
X73992Y147992D02*
X84252Y158252D01*
X81102Y200787D02*
X84252Y197638D01*
X81500Y166500D02*
Y193697D01*
X81401Y193796D02*
X81500Y193697D01*
X40297Y164755D02*
X40543D01*
X47047Y171260D01*
X42126Y77756D02*
Y123626D01*
Y77756D02*
X47047Y72835D01*
X42126Y123626D02*
X61500Y143000D01*
X45000Y132500D02*
X45000D01*
X31496Y134252D02*
X43248D01*
X45000Y132500D01*
X57874Y162598D02*
X58140D01*
X61357Y162857D02*
X61500Y163000D01*
X58399Y162857D02*
X61357D01*
X58140Y162598D02*
X58399Y162857D01*
X7480Y165354D02*
X12795Y170669D01*
X12795D01*
X31846Y153500D02*
X49000D01*
X54020Y159531D02*
Y163000D01*
X53937Y159449D02*
X54020Y159531D01*
X157752Y68937D02*
X163752D01*
X143701Y87008D02*
Y93307D01*
X146063Y87795D02*
Y94488D01*
X62796Y94693D02*
Y99143D01*
X62598Y99340D02*
X62796Y99143D01*
X62598Y99340D02*
Y99606D01*
X66142Y40157D02*
Y52362D01*
X64173Y38189D02*
X66142Y40157D01*
X57874Y38189D02*
X64173D01*
X56299Y39764D02*
Y42717D01*
Y39764D02*
X57874Y38189D01*
X59836Y57285D02*
X60236Y57685D01*
X59836Y53734D02*
Y57285D01*
X56299Y50197D02*
X59836Y53734D01*
X83465Y52362D02*
X87402Y56299D01*
X81102Y68504D02*
X87402Y62205D01*
Y56299D02*
Y62205D01*
X67914Y64370D02*
X72047Y68504D01*
X81102D01*
X67914Y57685D02*
Y64370D01*
X79563Y66500D02*
X83465Y62598D01*
X73000Y66500D02*
X79563D01*
X83465Y59842D02*
Y62598D01*
X65355Y53149D02*
Y57685D01*
Y53149D02*
X66142Y52362D01*
X35236Y49213D02*
X45843Y38606D01*
X47047Y116733D02*
X54724Y124409D01*
X47047Y108268D02*
Y116733D01*
X94095Y84808D02*
Y84808D01*
X105000Y95713D01*
Y100000D01*
X90000Y90000D02*
X92913Y92913D01*
Y113413D02*
X102532Y123031D01*
X92913Y92913D02*
Y113413D01*
X87500Y92000D02*
X89370Y93870D01*
Y114370D02*
X100000Y125000D01*
X89370Y93870D02*
Y114370D01*
X145669Y172047D02*
X151575Y177953D01*
X137402Y172047D02*
X145669D01*
X134646Y174803D02*
Y177165D01*
Y174803D02*
X137402Y172047D01*
X135748Y178268D02*
Y182264D01*
X134646Y177165D02*
X135748Y178268D01*
X145354Y185650D02*
X150177D01*
X156496Y136811D02*
X164756D01*
X164764Y136819D01*
X89567Y157992D02*
Y162992D01*
X85039Y81102D02*
Y118461D01*
X85000Y118500D02*
X85039Y118461D01*
X55688Y57851D02*
X55854Y57685D01*
X57677D01*
X53963Y152944D02*
X54020Y153000D01*
X53963Y149633D02*
Y152944D01*
X53937Y149606D02*
X53963Y149633D01*
X53937Y139764D02*
X54020Y139847D01*
Y143000D01*
X68110Y135433D02*
Y137992D01*
X103480Y132740D02*
Y138000D01*
X76993Y42741D02*
X77165Y42913D01*
X73032Y42741D02*
X76993D01*
X62795Y45866D02*
X62992Y46063D01*
X62795Y42741D02*
Y45866D01*
X156496Y134843D02*
X156595Y134744D01*
X159359D01*
X164764Y129339D01*
X62796Y86228D02*
Y94693D01*
X65543D01*
X67914Y86228D02*
Y92323D01*
X65543Y94693D02*
X67914Y92323D01*
X144685Y105315D02*
Y111221D01*
X146457Y112992D01*
X178752Y73937D02*
X182598D01*
X182677Y74016D01*
X171260Y77953D02*
X172835Y76378D01*
X172752Y73937D02*
X172835Y74020D01*
Y76378D01*
X172752Y81417D02*
X178752D01*
X142717Y97834D02*
X146063Y94488D01*
X138780Y98228D02*
X143701Y93307D01*
X174705Y60008D02*
X177787D01*
X177953Y59842D01*
X157752Y61457D02*
X163752D01*
X161279Y81496D02*
X165354D01*
X161201Y81575D02*
X161279Y81496D01*
X184646Y155512D02*
X184843Y155315D01*
Y151583D02*
Y155315D01*
X176173Y129339D02*
X176378Y129134D01*
X172244Y129339D02*
X176173D01*
X168338D02*
X168495Y129182D01*
X164764Y129339D02*
X168338D01*
X185223Y114194D02*
X185236Y114181D01*
X185223Y114194D02*
Y117549D01*
X185040Y117732D02*
X185223Y117549D01*
X140748Y110040D02*
X140945Y110236D01*
X140748Y105315D02*
Y110040D01*
X146654Y102166D02*
Y105315D01*
X164370Y95739D02*
Y99434D01*
Y95739D02*
X164567Y95542D01*
Y95276D02*
Y95542D01*
X168299Y105717D02*
X168504Y105512D01*
X164370Y105717D02*
X168299D01*
X131693Y80118D02*
Y83858D01*
Y80118D02*
X133071Y78740D01*
X126772Y79921D02*
Y83858D01*
X125591Y78740D02*
X126772Y79921D01*
Y83858D02*
X131693D01*
X114567Y80709D02*
X114567Y80709D01*
X114567Y75984D02*
Y80709D01*
X111221Y86811D02*
X111417Y86614D01*
X111221Y86811D02*
Y90756D01*
X100394Y105512D02*
X103929D01*
X104134Y105717D01*
X138366Y190728D02*
X138583Y190945D01*
X135748Y190728D02*
X138366D01*
X142913Y197244D02*
X143091Y197067D01*
Y193976D02*
Y197067D01*
X139705Y197185D02*
X139764Y197244D01*
X139705Y193976D02*
Y197185D01*
X135492Y194114D02*
X135748D01*
X135433Y194173D02*
X135492Y194114D01*
X135433Y194173D02*
Y197244D01*
X135748Y194114D02*
X135807Y194055D01*
X137953D01*
X138012Y193996D01*
Y193976D02*
Y193996D01*
X135748Y192421D02*
Y194114D01*
Y190728D02*
Y192421D01*
X141398Y193976D02*
X143091D01*
X139705D02*
X141398D01*
X138012D02*
X139705D01*
X151961Y157480D02*
X152166Y157685D01*
X150000Y157480D02*
X151961D01*
X146654Y154134D02*
X150000Y157480D01*
X146654Y150591D02*
Y154134D01*
X155307Y157685D02*
X155512Y157480D01*
X152166Y157685D02*
X155307D01*
X220866Y167323D02*
X221000Y167457D01*
Y170500D01*
Y177299D02*
Y181000D01*
X220866Y177165D02*
X221000Y177299D01*
X142717Y97834D02*
Y105315D01*
X138780Y98228D02*
Y105315D01*
X34054Y248031D02*
X57480Y224605D01*
Y224410D02*
Y224605D01*
X174705Y68866D02*
X176681D01*
X178752Y70937D02*
Y73937D01*
X176681Y68866D02*
X178752Y70937D01*
X172736Y68866D02*
Y73921D01*
X172752Y73937D01*
X170678Y68955D02*
X170768Y68866D01*
X195000Y181000D02*
X201709D01*
X121280Y138779D02*
X125000Y142500D01*
X111221Y138779D02*
X121280D01*
X195000Y170500D02*
X201709D01*
X124311Y136811D02*
X127500Y140000D01*
X111221Y136811D02*
X124311D01*
X195000Y160000D02*
X201709D01*
X127342Y134843D02*
X130000Y137500D01*
X111221Y134843D02*
X127342D01*
X111189Y127000D02*
X111221Y126969D01*
X97000Y127000D02*
X111189D01*
X80000Y150000D02*
X82992Y152992D01*
X89567D01*
Y147992D02*
X96008D01*
X102000Y117000D02*
X108838D01*
X111122Y117028D02*
X111221Y117126D01*
X108865Y117028D02*
X111122D01*
X108838Y117000D02*
X108865Y117028D01*
X75591Y86228D02*
X82228D01*
X82364Y86364D01*
X100000Y125000D02*
X111221D01*
X70473Y80027D02*
X70500Y80000D01*
X70473Y80027D02*
Y86228D01*
X102532Y123031D02*
X111221D01*
X151487Y138779D02*
X156496D01*
X151266Y139000D02*
X151487Y138779D01*
X151000Y139000D02*
X151266D01*
X176752Y140748D02*
X180000Y137500D01*
X156496Y140748D02*
X176752D01*
X166217Y142717D02*
X177323Y153823D01*
X156496Y142717D02*
X166217D01*
X120000Y115000D02*
X132874Y127874D01*
Y150591D01*
X67500Y67500D02*
Y75500D01*
X68110Y167992D02*
X70008D01*
X72992Y157992D02*
X81500Y166500D01*
X68110Y147992D02*
X73992D01*
X68110Y157992D02*
X72992D01*
X54000Y247978D02*
X54053Y248032D01*
X123032Y145032D02*
Y150591D01*
X123000Y145000D02*
X123032Y145032D01*
X138500Y144000D02*
X140748Y146248D01*
Y150591D01*
X149000Y181000D02*
Y183000D01*
X145354Y183957D02*
X148043D01*
X149000Y183000D01*
X142717Y145783D02*
Y150591D01*
Y145783D02*
X144500Y144000D01*
X138000Y182390D02*
X138012Y182402D01*
X138000Y176500D02*
Y182390D01*
X145295Y182323D02*
X145354Y182264D01*
X143150Y182323D02*
X145295D01*
X143091Y182382D02*
X143150Y182323D01*
X143091Y182382D02*
Y182402D01*
X145354Y182264D02*
X145441D01*
X145500Y182205D01*
Y177000D02*
Y182205D01*
X138780Y150591D02*
Y159280D01*
X140000Y160500D01*
X141398Y177102D02*
Y182402D01*
Y177102D02*
X141500Y177000D01*
X209189Y160000D02*
X215094D01*
X209189Y170500D02*
X215094D01*
X209189Y181000D02*
X215094D01*
X171851Y99434D02*
X172000Y99583D01*
Y105000D01*
X156496Y126969D02*
X161031D01*
X162500Y125500D01*
X184843Y132343D02*
Y144102D01*
X175531Y123031D02*
X184843Y132343D01*
X156496Y123031D02*
X175531D01*
X184843Y144102D02*
X199131D01*
X184843Y144102D02*
X184843Y144102D01*
X185236Y106701D02*
X199131D01*
X199131Y106701D01*
X156496Y121063D02*
X170874D01*
X185236Y106701D01*
X171851Y93512D02*
Y99434D01*
X171851Y99434D01*
X136614Y75984D02*
Y83858D01*
Y93307D01*
X134843Y105315D02*
Y109657D01*
X133500Y111000D02*
X134843Y109657D01*
X125000Y98500D02*
X126714Y96786D01*
Y93364D02*
X126772Y93307D01*
X126714Y93364D02*
Y96786D01*
X131142Y93858D02*
Y95858D01*
Y93858D02*
X131693Y93307D01*
X125099Y101901D02*
X131142Y95858D01*
X125099Y101901D02*
Y105217D01*
X125000Y105315D02*
X125099Y105217D01*
X126969Y105315D02*
Y109031D01*
X125500Y110500D02*
X126969Y109031D01*
X132874Y100626D02*
Y105315D01*
X136614Y93307D02*
Y96886D01*
X132874Y100626D02*
X136614Y96886D01*
X121850Y93307D02*
Y99850D01*
X123032Y101032D02*
Y105315D01*
X121850Y99850D02*
X123032Y101032D01*
X146500Y134500D02*
X151000D01*
X152626Y132874D01*
X156496D01*
X150594Y130905D02*
X156496D01*
X150500Y131000D02*
X150594Y130905D01*
X130906Y105315D02*
Y114328D01*
X130500Y114734D02*
X130906Y114328D01*
X130500Y114734D02*
Y115000D01*
X150500Y125000D02*
X156496D01*
X128031Y112343D02*
Y112500D01*
Y112343D02*
X128937Y111437D01*
Y105315D02*
Y111437D01*
X119000Y100500D02*
X119095Y100595D01*
Y105315D01*
X70473Y63973D02*
X73000Y66500D01*
X70473Y57685D02*
Y63973D01*
X96008Y147992D02*
X97280Y146721D01*
Y146705D02*
Y146721D01*
Y146705D02*
X100000Y143984D01*
Y133500D02*
Y143984D01*
X85000Y118500D02*
X100000Y133500D01*
X60062Y117500D02*
X72500D01*
X52000Y109438D02*
X60062Y117500D01*
X47047Y84646D02*
X52000Y89598D01*
Y109438D01*
X49000Y153500D02*
X52000Y156500D01*
X58000D02*
X61500Y153000D01*
X52000Y156500D02*
X58000D01*
X72500Y117500D02*
X89567Y134567D01*
Y137992D01*
X61500Y163000D02*
X68102D01*
X68110Y162992D01*
X95992Y137992D02*
X96000Y138000D01*
X89567Y137992D02*
X95992D01*
X68102Y143000D02*
X68110Y142992D01*
X61500Y143000D02*
X68102D01*
X61500Y153000D02*
X68102D01*
X68110Y152992D01*
X111221Y98236D02*
X116142Y103157D01*
Y113386D01*
X111221Y115157D02*
X114370D01*
X116142Y113386D01*
X73032Y101386D02*
X79724D01*
X79724Y101387D01*
X73032Y86228D02*
Y93906D01*
Y50222D02*
Y57685D01*
X62796Y50222D02*
Y57685D01*
X62795Y50222D02*
X62796Y50222D01*
D16*
X141732Y124016D02*
Y136221D01*
X166142Y160630D02*
Y198819D01*
X141732Y136221D02*
X166142Y160630D01*
X155512Y98425D02*
X159055D01*
X148622Y105315D02*
X152559D01*
X155512Y102362D01*
Y98425D02*
Y102362D01*
X60236Y86228D02*
X60236Y86228D01*
X60236Y86228D02*
Y90945D01*
X60236Y90945D02*
X60236Y90945D01*
X166142Y198819D02*
X175197Y207874D01*
X177559D02*
X181890Y212205D01*
X175197Y207874D02*
X177559D01*
X163976Y236221D02*
X181890Y218307D01*
Y212205D02*
Y218307D01*
X148622Y117126D02*
X156496D01*
X141732Y124016D02*
X148622Y117126D01*
X101181Y253150D02*
X112008Y242323D01*
X177874D02*
X183976Y236221D01*
X112008Y242323D02*
X177874D01*
X17323Y253150D02*
X101181D01*
X220472Y137795D02*
Y153543D01*
Y106299D02*
Y122047D01*
Y74803D02*
Y90551D01*
X129921Y188189D02*
Y191732D01*
X123622Y188583D02*
Y191732D01*
X119685Y183858D02*
X120472Y184646D01*
Y187402D02*
X121653Y188583D01*
X120472Y184646D02*
Y187402D01*
X121653Y188583D02*
X123622D01*
X129528D01*
X129921Y188189D01*
Y183465D02*
Y188189D01*
X96000Y173000D02*
X96063Y172937D01*
Y169291D02*
Y172937D01*
X89567Y175787D02*
X89764Y175984D01*
X89567Y172992D02*
Y175787D01*
X118898Y83858D02*
X121850D01*
X122047Y72835D02*
Y75984D01*
X129134Y72835D02*
X129134Y72835D01*
X129134Y72835D02*
Y75984D01*
X122047Y75984D02*
X129134D01*
X129134Y75984D01*
X121850Y76181D02*
Y83858D01*
Y76181D02*
X122047Y75984D01*
X55315Y97835D02*
X55512Y98032D01*
X55315Y94693D02*
Y97835D01*
X54732Y86228D02*
X57677D01*
X54724Y86221D02*
X54732Y86228D01*
X10236Y146850D02*
X18898D01*
X3937Y140551D02*
X10236Y146850D01*
X28346Y137402D02*
X36811D01*
X47047Y147638D01*
X8268Y244094D02*
X17323Y253150D01*
X89575Y173000D02*
X96000D01*
X89567Y172992D02*
X89575Y173000D01*
X57677Y86228D02*
Y92331D01*
X55315Y94693D02*
X57677Y92331D01*
Y86228D02*
X60236D01*
D25*
X129921Y183465D02*
D03*
Y175984D02*
D03*
X164764Y136819D02*
D03*
Y129339D02*
D03*
X172244Y136819D02*
D03*
Y129339D02*
D03*
X185236Y114181D02*
D03*
Y106701D02*
D03*
X184843Y151583D02*
D03*
Y144102D02*
D03*
X111221Y98236D02*
D03*
Y90756D02*
D03*
X73032Y101386D02*
D03*
Y93906D02*
D03*
X104134Y113197D02*
D03*
Y105717D02*
D03*
X164370Y113197D02*
D03*
Y105717D02*
D03*
X56299Y50197D02*
D03*
Y42717D02*
D03*
X83465Y52362D02*
D03*
Y59842D02*
D03*
X62795Y50222D02*
D03*
Y42741D02*
D03*
X73032Y50222D02*
D03*
Y42741D02*
D03*
X123622Y183858D02*
D03*
Y176378D02*
D03*
X117323Y188583D02*
D03*
Y196063D02*
D03*
X163752Y68937D02*
D03*
Y61457D02*
D03*
X157752Y68937D02*
D03*
Y61457D02*
D03*
X172752Y73937D02*
D03*
Y81417D02*
D03*
X178752Y73937D02*
D03*
Y81417D02*
D03*
X165354Y81496D02*
D03*
Y74016D02*
D03*
X123622Y188583D02*
D03*
Y196063D02*
D03*
X129921Y188189D02*
D03*
Y195669D02*
D03*
D31*
X145472Y39370D02*
D03*
X152953D02*
D03*
X114764Y158472D02*
D03*
X107284D02*
D03*
X114764Y164961D02*
D03*
X107283D02*
D03*
X179331Y92520D02*
D03*
X171850D02*
D03*
X171851Y99434D02*
D03*
X164370D02*
D03*
X201709Y160000D02*
D03*
X209189D02*
D03*
X201709Y170500D02*
D03*
X209189D02*
D03*
X201709Y181000D02*
D03*
X209189D02*
D03*
X144685Y157685D02*
D03*
X152166D02*
D03*
X155512Y98425D02*
D03*
X148031D02*
D03*
X55315Y94693D02*
D03*
X62796D02*
D03*
X61500Y173000D02*
D03*
X54020D02*
D03*
X122047Y75984D02*
D03*
X114567D02*
D03*
X129134Y75984D02*
D03*
X136614D02*
D03*
X19685Y124409D02*
D03*
X27165D02*
D03*
X188189Y23228D02*
D03*
X180709D02*
D03*
X54020Y183000D02*
D03*
X61500D02*
D03*
X54020Y163000D02*
D03*
X61500D02*
D03*
X96000Y173000D02*
D03*
X103480D02*
D03*
X61500Y153000D02*
D03*
X54020D02*
D03*
X61500Y143000D02*
D03*
X54020D02*
D03*
X96000Y138000D02*
D03*
X103480D02*
D03*
X96000Y148000D02*
D03*
X103480D02*
D03*
D39*
X156496Y113189D02*
D03*
Y115157D02*
D03*
Y117126D02*
D03*
Y119095D02*
D03*
Y121063D02*
D03*
Y123031D02*
D03*
Y125000D02*
D03*
Y126969D02*
D03*
Y128937D02*
D03*
Y130905D02*
D03*
Y132874D02*
D03*
Y134843D02*
D03*
Y136811D02*
D03*
Y138779D02*
D03*
Y140748D02*
D03*
Y142717D02*
D03*
X111221D02*
D03*
Y140748D02*
D03*
Y138779D02*
D03*
Y136811D02*
D03*
Y134843D02*
D03*
Y132874D02*
D03*
Y130905D02*
D03*
Y128937D02*
D03*
Y126969D02*
D03*
Y125000D02*
D03*
Y123031D02*
D03*
Y121063D02*
D03*
Y119095D02*
D03*
Y117126D02*
D03*
Y115157D02*
D03*
Y113189D02*
D03*
D40*
X148622Y150591D02*
D03*
X146654D02*
D03*
X144685D02*
D03*
X142717D02*
D03*
X140748D02*
D03*
X138780D02*
D03*
X136811D02*
D03*
X134843D02*
D03*
X132874D02*
D03*
X130906D02*
D03*
X128937D02*
D03*
X126969D02*
D03*
X125000D02*
D03*
X123032D02*
D03*
X121063D02*
D03*
X119095D02*
D03*
Y105315D02*
D03*
X121063D02*
D03*
X123032D02*
D03*
X125000D02*
D03*
X126969D02*
D03*
X128937D02*
D03*
X130906D02*
D03*
X132874D02*
D03*
X134843D02*
D03*
X136811D02*
D03*
X138780D02*
D03*
X140748D02*
D03*
X142717D02*
D03*
X144685D02*
D03*
X146654D02*
D03*
X148622D02*
D03*
D41*
X190551Y10236D02*
D03*
X165354D02*
D03*
D42*
X75591Y86228D02*
D03*
X73032D02*
D03*
X70473D02*
D03*
X67914D02*
D03*
X65355D02*
D03*
X62796D02*
D03*
X60236D02*
D03*
X57677D02*
D03*
X75591Y57685D02*
D03*
X73032D02*
D03*
X70473D02*
D03*
X67914D02*
D03*
X65355D02*
D03*
X62796D02*
D03*
X60236D02*
D03*
X57677D02*
D03*
D43*
X174705Y68866D02*
D03*
X172736D02*
D03*
X170768D02*
D03*
X168799D02*
D03*
X174705Y60008D02*
D03*
X172736D02*
D03*
X170768D02*
D03*
X168799D02*
D03*
D44*
X126772Y93307D02*
D03*
X131693D02*
D03*
X136614D02*
D03*
Y83858D02*
D03*
X131693D02*
D03*
X126772D02*
D03*
X121850Y93307D02*
D03*
Y83858D02*
D03*
D45*
X89567Y137992D02*
D03*
Y142992D02*
D03*
Y147992D02*
D03*
Y152992D02*
D03*
Y157992D02*
D03*
Y162992D02*
D03*
Y167992D02*
D03*
Y172992D02*
D03*
X68110Y137992D02*
D03*
Y142992D02*
D03*
Y147992D02*
D03*
Y152992D02*
D03*
Y157992D02*
D03*
Y162992D02*
D03*
Y167992D02*
D03*
Y172992D02*
D03*
D46*
X79724Y95481D02*
D03*
Y101387D02*
D03*
D47*
X135748Y182264D02*
D03*
X145354D02*
D03*
Y183957D02*
D03*
Y185650D02*
D03*
Y187343D02*
D03*
Y189035D02*
D03*
Y190728D02*
D03*
Y192421D02*
D03*
Y194114D02*
D03*
X135748D02*
D03*
Y192421D02*
D03*
Y190728D02*
D03*
Y189035D02*
D03*
Y187343D02*
D03*
Y185650D02*
D03*
Y183957D02*
D03*
D48*
X138012Y182402D02*
D03*
X139705D02*
D03*
X141398D02*
D03*
X143091D02*
D03*
Y193976D02*
D03*
X141398D02*
D03*
X139705D02*
D03*
X138012D02*
D03*
D49*
X19685Y130709D02*
D03*
X28346D02*
D03*
D50*
X199131Y106701D02*
D03*
Y144102D02*
D03*
D51*
X221000Y160000D02*
D03*
X215094D02*
D03*
X221000Y170500D02*
D03*
X215094D02*
D03*
X221000Y181000D02*
D03*
X215094D02*
D03*
D52*
X13780Y23228D02*
D03*
X215748Y130709D02*
D03*
X125984Y220472D02*
D03*
D53*
X24054Y248031D02*
D03*
X34054D02*
D03*
X84054Y248031D02*
D03*
X74054D02*
D03*
X64054D02*
D03*
X54053Y248032D02*
D03*
X44054Y248031D02*
D03*
X128741Y25157D02*
D03*
Y35157D02*
D03*
Y45157D02*
D03*
X128740Y55158D02*
D03*
X128740Y65158D02*
D03*
X146417Y31496D02*
D03*
X156417D02*
D03*
X166417D02*
D03*
X47047Y49213D02*
D03*
X35236Y61024D02*
D03*
X47047D02*
D03*
X35236Y72835D02*
D03*
X47047D02*
D03*
X35236Y84646D02*
D03*
X47047D02*
D03*
X35236Y96457D02*
D03*
X47047D02*
D03*
X35236Y108268D02*
D03*
X47047D02*
D03*
X47047Y147638D02*
D03*
X35236Y159449D02*
D03*
X47047D02*
D03*
X35236Y171260D02*
D03*
X47047D02*
D03*
X35236Y183071D02*
D03*
X47047D02*
D03*
X35236Y194882D02*
D03*
X47047D02*
D03*
X35236Y206693D02*
D03*
X47047D02*
D03*
X213977Y236221D02*
D03*
X203977Y236220D02*
D03*
X193976Y236221D02*
D03*
X183976D02*
D03*
X173976D02*
D03*
X24054Y7874D02*
D03*
X34054D02*
D03*
X84054Y7874D02*
D03*
X74054D02*
D03*
X64054D02*
D03*
X54053Y7874D02*
D03*
X44054Y7874D02*
D03*
X218741Y25157D02*
D03*
Y35157D02*
D03*
Y45157D02*
D03*
X218740Y55158D02*
D03*
X218740Y65158D02*
D03*
D54*
X94054Y248031D02*
D03*
X176417Y31496D02*
D03*
X163976Y236221D02*
D03*
X94054Y7874D02*
D03*
D55*
X128741Y15157D02*
D03*
X35236Y49213D02*
D03*
X35236Y147638D02*
D03*
X218741Y15157D02*
D03*
D56*
X157480Y216535D02*
D03*
X18307Y99803D02*
D03*
Y57677D02*
D03*
X206142Y208661D02*
D03*
X18307Y198228D02*
D03*
Y156102D02*
D03*
X102362Y204724D02*
D03*
Y59055D02*
D03*
X200787Y39370D02*
D03*
D57*
X177323Y202756D02*
D03*
Y214567D02*
D03*
X189134Y202756D02*
D03*
D58*
Y214567D02*
D03*
D59*
X138189Y163386D02*
D03*
X90846Y241239D02*
D03*
X84646Y210630D02*
D03*
X87795Y234252D02*
D03*
X151575Y98425D02*
D03*
X159055D02*
D03*
X109449Y148031D02*
D03*
X99213Y158268D02*
D03*
X55905Y187008D02*
D03*
X60236Y90945D02*
D03*
X69291Y108268D02*
D03*
X177323Y188976D02*
D03*
X106299Y3937D02*
D03*
X118110D02*
D03*
X129921D02*
D03*
X141732D02*
D03*
X153543D02*
D03*
X114173Y251969D02*
D03*
X129921D02*
D03*
X145669D02*
D03*
X161417D02*
D03*
X177165D02*
D03*
X192913D02*
D03*
X208661D02*
D03*
X220472D02*
D03*
Y236221D02*
D03*
Y220472D02*
D03*
Y204724D02*
D03*
Y188976D02*
D03*
Y153543D02*
D03*
Y137795D02*
D03*
Y122047D02*
D03*
Y106299D02*
D03*
Y90551D02*
D03*
Y74803D02*
D03*
X3937Y140551D02*
D03*
X170866Y62992D02*
D03*
X151969Y161417D02*
D03*
X103937Y161811D02*
D03*
X107480Y168504D02*
D03*
X103543Y169291D02*
D03*
X53937Y168898D02*
D03*
X79921Y89370D02*
D03*
X61811Y80709D02*
D03*
X59842Y77953D02*
D03*
X157480Y178740D02*
D03*
X129921Y191732D02*
D03*
X123622D02*
D03*
X119685Y183858D02*
D03*
X142126Y187402D02*
D03*
X138583D02*
D03*
X96063Y169291D02*
D03*
X89764Y175984D02*
D03*
X111417Y158661D02*
D03*
X116142Y150394D02*
D03*
X141339Y157480D02*
D03*
X144488Y161417D02*
D03*
X171653Y133465D02*
D03*
X164961D02*
D03*
X164567Y116929D02*
D03*
X168110Y112992D02*
D03*
X163779Y65748D02*
D03*
X154331Y68898D02*
D03*
X169291Y81496D02*
D03*
X178740Y77953D02*
D03*
X100394Y113386D02*
D03*
X111024Y110630D02*
D03*
X148819Y109843D02*
D03*
X118898Y83858D02*
D03*
X122047Y72835D02*
D03*
X129134D02*
D03*
X55512Y98032D02*
D03*
X54724Y86221D02*
D03*
X24016Y133858D02*
D03*
X18898Y146850D02*
D03*
X148819Y39370D02*
D03*
X145669Y42913D02*
D03*
X142126Y39370D02*
D03*
X19685Y120866D02*
D03*
X16142Y130709D02*
D03*
Y124409D02*
D03*
X19685Y127953D02*
D03*
X68110Y189764D02*
D03*
X61417Y176772D02*
D03*
X64173Y170472D02*
D03*
X123622Y179528D02*
D03*
X130709Y172047D02*
D03*
X129921Y199606D02*
D03*
X123622D02*
D03*
X117323D02*
D03*
X157677Y58071D02*
D03*
X163779D02*
D03*
X173228Y56102D02*
D03*
X168307D02*
D03*
X75590Y63386D02*
D03*
X34252Y37008D02*
D03*
X70079Y35039D02*
D03*
X64961D02*
D03*
X31890Y130709D02*
D03*
X74410Y163386D02*
D03*
Y135827D02*
D03*
Y144095D02*
D03*
X94488Y162992D02*
D03*
X55118Y202756D02*
D03*
X81401Y193796D02*
D03*
X40297Y164755D02*
D03*
X28346Y137402D02*
D03*
X31496Y134252D02*
D03*
X57874Y162598D02*
D03*
X12795Y170669D02*
D03*
X53937Y159449D02*
D03*
X62598Y99606D02*
D03*
X45843Y38606D02*
D03*
X54724Y124409D02*
D03*
X94095Y84808D02*
D03*
X151575Y177953D02*
D03*
X85039Y81102D02*
D03*
X55688Y57851D02*
D03*
X8268Y244094D02*
D03*
X53937Y149606D02*
D03*
Y139764D02*
D03*
X68110Y135433D02*
D03*
X103480Y132740D02*
D03*
X77165Y42913D02*
D03*
X62992Y46063D02*
D03*
X146457Y112992D02*
D03*
X182677Y74016D02*
D03*
X177953Y59842D02*
D03*
X161201Y81575D02*
D03*
X184646Y155512D02*
D03*
X176378Y129134D02*
D03*
X168495Y129182D02*
D03*
X185040Y117732D02*
D03*
X140945Y110236D02*
D03*
X164567Y95276D02*
D03*
X168504Y105512D02*
D03*
X133071Y78740D02*
D03*
X125591D02*
D03*
X114567Y80709D02*
D03*
X111417Y86614D02*
D03*
X100394Y105512D02*
D03*
X138583Y190945D02*
D03*
X142913Y197244D02*
D03*
X139764D02*
D03*
X135433D02*
D03*
X155512Y157480D02*
D03*
X220866Y167323D02*
D03*
Y177165D02*
D03*
X7480Y165354D02*
D03*
X57480Y224410D02*
D03*
X81102Y200787D02*
D03*
X195000Y181000D02*
D03*
X125000Y142500D02*
D03*
X195000Y170500D02*
D03*
X127500Y140000D02*
D03*
X195000Y160000D02*
D03*
X130000Y137500D02*
D03*
X97000Y127000D02*
D03*
X80000Y150000D02*
D03*
X102000Y117000D02*
D03*
X82364Y86364D02*
D03*
X87500Y92000D02*
D03*
X70500Y80000D02*
D03*
X90000Y90000D02*
D03*
X151000Y139000D02*
D03*
X180000Y137500D02*
D03*
X105000Y100000D02*
D03*
X120000Y115000D02*
D03*
X67500Y67500D02*
D03*
Y75500D02*
D03*
Y97500D02*
D03*
X45000Y132500D02*
D03*
X57500D02*
D03*
X123000Y145000D02*
D03*
X149000Y181000D02*
D03*
X144500Y144000D02*
D03*
X138500D02*
D03*
X138000Y176500D02*
D03*
X145500Y177000D02*
D03*
X140000Y160500D02*
D03*
X141500Y177000D02*
D03*
X172000Y105000D02*
D03*
X162500Y125500D02*
D03*
X133500Y111000D02*
D03*
X125000Y98500D02*
D03*
X125500Y110500D02*
D03*
X146500Y134500D02*
D03*
X150500Y131000D02*
D03*
X130500Y115000D02*
D03*
X150500Y125000D02*
D03*
X128031Y112500D02*
D03*
X119000Y100500D02*
D03*
M02*
