M48
;Layer_Color=9474304
;FILE_FORMAT=2:4
INCH,TZ
;TYPE=PLATED
T1F00S00C0.0118
T2F00S00C0.0402
T3F00S00C0.0402
T4F00S00C0.0409
T5F00S00C0.1181
;TYPE=NON_PLATED
T6F00S00C0.1181
T7F00S00C0.1181
%
T01
X3425Y3701
X4584Y3861
X6496Y3504
X7008
X7717Y4291
X6299Y4606
X5569Y5785
X6750Y6750
Y7550
X7050Y8000
X6181Y8071
X5984Y7795
X6024Y9094
X5472Y8622
X8236Y8636
X7992Y8937
X8750Y9200
X9000Y9000
X9409Y8481
X8504Y8110
X7559Y6339
X12205Y7283
X12913
X12559Y7874
X13307
X11890Y8386
X11457Y8071
X11142Y8661
X16120Y8157
X16929Y8150
X17087Y6299
X16831Y5610
X16378Y5807
X15768
X16378Y6575
X15433Y6890
X14567Y4291
X14882Y3937
X14213
X14173Y394
X12992
X11811
X10630
X15354
X17323Y5610
X17795Y5984
X18268Y7402
X17874Y7795
X22047Y7480
Y9055
Y10630
Y12205
Y13780
Y15354
X22087Y16732
Y17717
X22047Y18898
Y20472
Y22047
Y23622
X19500Y18100
Y17050
Y16000
X18465Y15551
X18000Y13750
X17638Y12913
X18504Y11773
X17200Y10500
X17732Y18898
X15748Y17874
X15157Y17795
X14900Y18100
X14550Y17700
X14150
X13800Y17650
X13858Y18740
X14213
X13858Y19094
X13976Y19724
X14291
X13543
X12992Y19961
X12362
X11732
X12362Y19173
X12992
X11968Y18386
X12362Y17953
X13071Y17205
X13819Y16339
X14000Y16050
X14134Y15748
X14449Y16142
X15197
X15551Y15748
X15100Y13900
X15050Y13100
Y12500
X16250Y12550
X16849Y12918
X17165Y13346
X16496
X16457Y11693
X16811Y11299
X16850Y10551
X16457Y9528
X15906Y9843
X15157
X14882Y10984
X14646Y11299
X14094Y11024
X13350Y11100
X12803Y11250
X12550Y11050
X13050Y11500
X12000
X11102Y11063
X10039Y11339
X10200Y11700
X10039Y10551
X10500Y10000
X11900Y10050
X12500Y9850
Y14250
X12300Y14500
X12750Y14000
X13000Y13750
X13850Y14400
X14450
X14650Y13450
X10348Y13274
X9700Y12700
X7441Y13583
X6811Y13543
X5750Y13250
X5394Y13976
Y14961
Y15945
X5787Y16260
X5394Y16890
X6417Y17047
X6142Y17677
X5591Y18701
X6811Y18976
X8140Y19380
X8110Y20079
X8465Y21063
X8780Y23425
X9085Y24124
X5748Y22441
X5512Y20276
X4030Y16476
X7441Y16339
X8000Y15000
X7441Y14409
X10945Y14803
X11614Y15039
X11142Y15866
X10394Y16181
X10354Y16929
X10748Y16850
X9606Y16929
X9449Y16299
X9921Y15827
X8976Y17598
X5472Y12441
X4500Y13250
X3189Y13071
X3150Y13425
X2835Y13740
X2402Y13386
X1969Y12795
X1614Y13071
Y12441
X1969Y12087
X1890Y14685
X5551Y9803
X6260Y9961
X6750Y9750
X6929Y10827
X394Y14055
X748Y16535
X1280Y17067
X827Y24409
X11417Y25197
X12992
X14567
X16142
X17717
X19291
X20866
X22047
T02
X3524Y4921
X4705
Y6102
X3524
Y7283
X4705
Y8465
X3524
Y9646
X4705
Y10827
X3524
X3524Y14764
X4705
Y15945
X3524
Y17126
X4705
Y18307
X3524
Y19488
X4705
Y20669
X3524
T03
X17732Y20276
Y21457
X18913
Y20276
T04
X2405Y787
X3405
X4405
X5405Y787
X6405Y787
X7405
X8405
X9405
X12874Y1516
Y2516
Y3516
Y4516
X12874Y5516
X12874Y6516
X14642Y3150
X15642
X16642
X17642
X21874Y3516
Y2516
Y1516
Y4516
X21874Y5516
X21874Y6516
X21398Y23622
X20398Y23622
X19398Y23622
X18398
X17398
X16398
X9405Y24803
X8405
X7405
X6405
X5405Y24803
X4405Y24803
X3405
X2405
T05
X1831Y5768
Y9980
X1831Y15610
Y19823
T06
X10236Y5906
X20079Y3937
X15748Y21654
X10236Y20472
T07
X20614Y20866
M30
