G04*
G04 #@! TF.GenerationSoftware,Altium Limited,Altium Designer,20.2.6 (244)*
G04*
G04 Layer_Physical_Order=3*
G04 Layer_Color=16440176*
%FSLAX25Y25*%
%MOIN*%
G70*
G04*
G04 #@! TF.SameCoordinates,23E3F134-E155-4AF0-B130-1C61D597126F*
G04*
G04*
G04 #@! TF.FilePolarity,Positive*
G04*
G01*
G75*
%ADD53C,0.07087*%
%ADD55R,0.07087X0.07087*%
%ADD59C,0.02362*%
G36*
X224410Y0D02*
X145669D01*
Y26847D01*
X146045Y27177D01*
X146417Y27128D01*
X147548Y27277D01*
X148601Y27713D01*
X149506Y28407D01*
X150200Y29312D01*
X150637Y30365D01*
X150785Y31496D01*
X152049D01*
X152198Y30365D01*
X152635Y29312D01*
X153329Y28407D01*
X154233Y27713D01*
X155287Y27277D01*
X156417Y27128D01*
X157548Y27277D01*
X158601Y27713D01*
X159506Y28407D01*
X160200Y29312D01*
X160637Y30365D01*
X160785Y31496D01*
X160637Y32627D01*
X160200Y33680D01*
X159506Y34585D01*
X158601Y35279D01*
X157548Y35715D01*
X156417Y35864D01*
X155888Y35794D01*
X155512Y36124D01*
Y49213D01*
X130267D01*
X129871Y49376D01*
X128741Y49525D01*
X127610Y49376D01*
X127214Y49213D01*
X118110D01*
Y35433D01*
X72008D01*
X71933Y35807D01*
X71498Y36459D01*
X70847Y36894D01*
X70079Y37046D01*
X69311Y36894D01*
X68660Y36459D01*
X68225Y35807D01*
X68150Y35433D01*
X66889D01*
X66815Y35807D01*
X66380Y36459D01*
X65729Y36894D01*
X64961Y37046D01*
X64193Y36894D01*
X63541Y36459D01*
X63106Y35807D01*
X63032Y35433D01*
X27559D01*
Y135041D01*
X28059Y135452D01*
X28346Y135395D01*
X29114Y135547D01*
X29500Y135805D01*
X29617Y135883D01*
X29978Y135523D01*
X29899Y135406D01*
X29642Y135020D01*
X29489Y134252D01*
X29642Y133484D01*
X30077Y132833D01*
X30351Y132650D01*
X30470Y132128D01*
X30035Y131477D01*
X29883Y130709D01*
X30035Y129941D01*
X30470Y129289D01*
X31122Y128854D01*
X31890Y128702D01*
X32658Y128854D01*
X33309Y129289D01*
X33744Y129941D01*
X33897Y130709D01*
X33744Y131477D01*
X33309Y132128D01*
X33035Y132311D01*
X32915Y132833D01*
X33350Y133484D01*
X33503Y134252D01*
X33350Y135020D01*
X32915Y135671D01*
X32264Y136106D01*
X31496Y136259D01*
X30728Y136106D01*
X30343Y135849D01*
X30225Y135770D01*
X29865Y136131D01*
X29943Y136248D01*
X30201Y136634D01*
X30354Y137402D01*
X30201Y138170D01*
X29766Y138821D01*
X29114Y139256D01*
X28346Y139409D01*
X28059Y139351D01*
X27559Y139762D01*
Y163386D01*
X32432D01*
X32601Y162886D01*
X32147Y162538D01*
X31453Y161633D01*
X31017Y160579D01*
X30868Y159449D01*
X31017Y158318D01*
X31453Y157265D01*
X32147Y156360D01*
X33052Y155666D01*
X34106Y155230D01*
X35236Y155081D01*
X36367Y155230D01*
X37420Y155666D01*
X38325Y156360D01*
X39019Y157265D01*
X39456Y158318D01*
X39604Y159449D01*
X39456Y160579D01*
X39019Y161633D01*
X38325Y162538D01*
X37871Y162886D01*
X38041Y163386D01*
X38844D01*
X38877Y163336D01*
X39529Y162901D01*
X40297Y162748D01*
X41065Y162901D01*
X41716Y163336D01*
X41749Y163386D01*
X44243D01*
X44412Y162886D01*
X43959Y162538D01*
X43264Y161633D01*
X42828Y160579D01*
X42679Y159449D01*
X42828Y158318D01*
X43264Y157265D01*
X43959Y156360D01*
X44863Y155666D01*
X45917Y155230D01*
X47047Y155081D01*
X48178Y155230D01*
X49231Y155666D01*
X50136Y156360D01*
X50830Y157265D01*
X51266Y158318D01*
X51415Y159449D01*
X51266Y160579D01*
X50830Y161633D01*
X50136Y162538D01*
X49682Y162886D01*
X49852Y163386D01*
X55514D01*
X55924Y162886D01*
X55867Y162598D01*
X56020Y161830D01*
X56455Y161179D01*
X57106Y160744D01*
X57874Y160591D01*
X58642Y160744D01*
X59293Y161179D01*
X59728Y161830D01*
X59881Y162598D01*
X59824Y162886D01*
X60234Y163386D01*
X72402D01*
X72555Y162618D01*
X72990Y161967D01*
X73641Y161531D01*
X74410Y161379D01*
X75178Y161531D01*
X75829Y161967D01*
X76264Y162618D01*
X76416Y163386D01*
X80709D01*
Y191532D01*
X81095Y191849D01*
X81401Y191788D01*
X82169Y191941D01*
X82820Y192376D01*
X83256Y193027D01*
X83408Y193796D01*
X83256Y194564D01*
X82820Y195215D01*
X82169Y195650D01*
X81401Y195803D01*
X81095Y195742D01*
X80709Y196059D01*
Y198465D01*
X81095Y198782D01*
X81102Y198780D01*
X81870Y198933D01*
X82522Y199368D01*
X82957Y200019D01*
X83109Y200787D01*
X82957Y201555D01*
X82522Y202207D01*
X81870Y202642D01*
X81102Y202795D01*
X81095Y202793D01*
X80709Y203110D01*
Y204724D01*
X55312D01*
X55118Y204763D01*
X54924Y204724D01*
X51369D01*
X51092Y205140D01*
X51266Y205562D01*
X51415Y206693D01*
X51266Y207823D01*
X50830Y208877D01*
X50136Y209782D01*
X49231Y210476D01*
X48178Y210912D01*
X47047Y211061D01*
X45917Y210912D01*
X44863Y210476D01*
X43959Y209782D01*
X43264Y208877D01*
X42828Y207823D01*
X42679Y206693D01*
X42828Y205562D01*
X43003Y205140D01*
X42725Y204724D01*
X39558D01*
X39281Y205140D01*
X39456Y205562D01*
X39604Y206693D01*
X39456Y207823D01*
X39019Y208877D01*
X38325Y209782D01*
X37420Y210476D01*
X36367Y210912D01*
X35236Y211061D01*
X34106Y210912D01*
X33052Y210476D01*
X32147Y209782D01*
X31453Y208877D01*
X31017Y207823D01*
X30868Y206693D01*
X31017Y205562D01*
X31192Y205140D01*
X30914Y204724D01*
X19949D01*
X19619Y204824D01*
X18307Y204954D01*
X16995Y204824D01*
X16665Y204724D01*
X0D01*
Y255906D01*
X224410Y255906D01*
X224410Y0D01*
D02*
G37*
G36*
X11670Y200787D02*
X11968Y200386D01*
X11711Y199540D01*
X11582Y198228D01*
X11711Y196916D01*
X12094Y195655D01*
X12715Y194492D01*
X13552Y193473D01*
X14571Y192637D01*
X15733Y192015D01*
X16995Y191632D01*
X18307Y191503D01*
X19619Y191632D01*
X20881Y192015D01*
X22043Y192637D01*
X23063Y193473D01*
X23899Y194492D01*
X24521Y195655D01*
X24903Y196916D01*
X25032Y198228D01*
X24903Y199540D01*
X24647Y200386D01*
X24945Y200787D01*
X54924Y200787D01*
X55118Y200749D01*
X55312Y200787D01*
X76772D01*
X76772Y167323D01*
X55854D01*
X55586Y167823D01*
X55791Y168130D01*
X55944Y168898D01*
X55791Y169666D01*
X55356Y170317D01*
X54705Y170752D01*
X53937Y170905D01*
X53169Y170752D01*
X52518Y170317D01*
X52083Y169666D01*
X51930Y168898D01*
X52083Y168130D01*
X52288Y167823D01*
X52020Y167323D01*
X49852Y167323D01*
X49682Y167823D01*
X50136Y168171D01*
X50830Y169076D01*
X51266Y170129D01*
X51415Y171260D01*
X51266Y172390D01*
X50830Y173444D01*
X50136Y174348D01*
X49231Y175043D01*
X48178Y175479D01*
X47047Y175628D01*
X45917Y175479D01*
X44863Y175043D01*
X43959Y174348D01*
X43264Y173444D01*
X42828Y172390D01*
X42679Y171260D01*
X42828Y170129D01*
X43264Y169076D01*
X43959Y168171D01*
X44412Y167823D01*
X44243Y167323D01*
X38041D01*
X37871Y167823D01*
X38325Y168171D01*
X39019Y169076D01*
X39456Y170129D01*
X39604Y171260D01*
X39456Y172390D01*
X39019Y173444D01*
X38325Y174348D01*
X37420Y175043D01*
X36367Y175479D01*
X35236Y175628D01*
X34106Y175479D01*
X33052Y175043D01*
X32147Y174348D01*
X31453Y173444D01*
X31017Y172390D01*
X30868Y171260D01*
X31017Y170129D01*
X31453Y169076D01*
X32147Y168171D01*
X32601Y167823D01*
X32432Y167323D01*
X23607D01*
Y160937D01*
X23136Y160769D01*
X23063Y160858D01*
X22043Y161694D01*
X20881Y162316D01*
X19619Y162698D01*
X18307Y162828D01*
X16995Y162698D01*
X15733Y162316D01*
X14571Y161694D01*
X13552Y160858D01*
X12715Y159839D01*
X12094Y158676D01*
X11711Y157414D01*
X11582Y156102D01*
X11711Y154790D01*
X12094Y153529D01*
X12715Y152366D01*
X13552Y151347D01*
X14571Y150511D01*
X15733Y149889D01*
X16995Y149506D01*
X18307Y149377D01*
X19619Y149506D01*
X20881Y149889D01*
X22043Y150511D01*
X23063Y151347D01*
X23136Y151436D01*
X23607Y151268D01*
Y135784D01*
X23248Y135713D01*
X22596Y135277D01*
X22162Y134626D01*
X22009Y133858D01*
X22162Y133090D01*
X22596Y132439D01*
X23248Y132004D01*
X23607Y131933D01*
Y104638D01*
X23136Y104470D01*
X23063Y104559D01*
X22044Y105395D01*
X20881Y106017D01*
X19619Y106399D01*
X18307Y106528D01*
X16995Y106399D01*
X15734Y106017D01*
X14571Y105395D01*
X13552Y104559D01*
X12715Y103540D01*
X12094Y102377D01*
X11711Y101115D01*
X11582Y99803D01*
X11711Y98491D01*
X12094Y97229D01*
X12715Y96067D01*
X13552Y95048D01*
X14571Y94211D01*
X15734Y93590D01*
X16995Y93207D01*
X18307Y93078D01*
X19619Y93207D01*
X20881Y93590D01*
X22044Y94211D01*
X23063Y95048D01*
X23136Y95137D01*
X23607Y94968D01*
Y62512D01*
X23136Y62344D01*
X23063Y62433D01*
X22044Y63269D01*
X20881Y63890D01*
X19619Y64273D01*
X18307Y64403D01*
X16995Y64273D01*
X15734Y63890D01*
X14571Y63269D01*
X13552Y62433D01*
X12715Y61414D01*
X12094Y60251D01*
X11711Y58989D01*
X11582Y57677D01*
X11711Y56365D01*
X12094Y55103D01*
X12715Y53941D01*
X13552Y52922D01*
X14571Y52085D01*
X15734Y51464D01*
X16995Y51081D01*
X18307Y50952D01*
X19619Y51081D01*
X20881Y51464D01*
X22044Y52085D01*
X23063Y52922D01*
X23136Y53011D01*
X23607Y52842D01*
Y31512D01*
X122042Y31512D01*
X122060Y45276D01*
X124269D01*
X124372Y45157D01*
X124521Y44027D01*
X124958Y42973D01*
X125652Y42069D01*
X126556Y41374D01*
X127610Y40938D01*
X128741Y40789D01*
X129871Y40938D01*
X130924Y41374D01*
X131829Y42069D01*
X132523Y42973D01*
X132960Y44027D01*
X133108Y45157D01*
X133212Y45276D01*
X151575Y45276D01*
X151575Y35433D01*
X148229Y35433D01*
X147548Y35715D01*
X146417Y35864D01*
X145287Y35715D01*
X144605Y35433D01*
X141732Y35433D01*
Y5944D01*
X140964Y5791D01*
X140313Y5356D01*
X139878Y4705D01*
X139725Y3937D01*
X139878Y3169D01*
X140313Y2518D01*
X140964Y2083D01*
X141732Y1930D01*
Y15D01*
X-15D01*
Y200787D01*
X11670D01*
D02*
G37*
%LPC*%
G36*
X220472Y253976D02*
X219704Y253823D01*
X219053Y253388D01*
X218618Y252737D01*
X218465Y251969D01*
X218618Y251200D01*
X219053Y250549D01*
X219704Y250114D01*
X220472Y249961D01*
X221240Y250114D01*
X221892Y250549D01*
X222327Y251200D01*
X222480Y251969D01*
X222327Y252737D01*
X221892Y253388D01*
X221240Y253823D01*
X220472Y253976D01*
D02*
G37*
G36*
X208661D02*
X207893Y253823D01*
X207242Y253388D01*
X206807Y252737D01*
X206654Y251969D01*
X206807Y251200D01*
X207242Y250549D01*
X207893Y250114D01*
X208661Y249961D01*
X209430Y250114D01*
X210081Y250549D01*
X210516Y251200D01*
X210668Y251969D01*
X210516Y252737D01*
X210081Y253388D01*
X209430Y253823D01*
X208661Y253976D01*
D02*
G37*
G36*
X192913D02*
X192145Y253823D01*
X191494Y253388D01*
X191059Y252737D01*
X190906Y251969D01*
X191059Y251200D01*
X191494Y250549D01*
X192145Y250114D01*
X192913Y249961D01*
X193682Y250114D01*
X194333Y250549D01*
X194768Y251200D01*
X194921Y251969D01*
X194768Y252737D01*
X194333Y253388D01*
X193682Y253823D01*
X192913Y253976D01*
D02*
G37*
G36*
X177165D02*
X176397Y253823D01*
X175746Y253388D01*
X175311Y252737D01*
X175158Y251969D01*
X175311Y251200D01*
X175746Y250549D01*
X176397Y250114D01*
X177165Y249961D01*
X177933Y250114D01*
X178585Y250549D01*
X179020Y251200D01*
X179172Y251969D01*
X179020Y252737D01*
X178585Y253388D01*
X177933Y253823D01*
X177165Y253976D01*
D02*
G37*
G36*
X161417D02*
X160649Y253823D01*
X159998Y253388D01*
X159563Y252737D01*
X159410Y251969D01*
X159563Y251200D01*
X159998Y250549D01*
X160649Y250114D01*
X161417Y249961D01*
X162185Y250114D01*
X162837Y250549D01*
X163272Y251200D01*
X163424Y251969D01*
X163272Y252737D01*
X162837Y253388D01*
X162185Y253823D01*
X161417Y253976D01*
D02*
G37*
G36*
X145669D02*
X144901Y253823D01*
X144250Y253388D01*
X143815Y252737D01*
X143662Y251969D01*
X143815Y251200D01*
X144250Y250549D01*
X144901Y250114D01*
X145669Y249961D01*
X146437Y250114D01*
X147089Y250549D01*
X147524Y251200D01*
X147676Y251969D01*
X147524Y252737D01*
X147089Y253388D01*
X146437Y253823D01*
X145669Y253976D01*
D02*
G37*
G36*
X129921D02*
X129153Y253823D01*
X128502Y253388D01*
X128067Y252737D01*
X127914Y251969D01*
X128067Y251200D01*
X128502Y250549D01*
X129153Y250114D01*
X129921Y249961D01*
X130689Y250114D01*
X131341Y250549D01*
X131776Y251200D01*
X131928Y251969D01*
X131776Y252737D01*
X131341Y253388D01*
X130689Y253823D01*
X129921Y253976D01*
D02*
G37*
G36*
X114173D02*
X113405Y253823D01*
X112754Y253388D01*
X112319Y252737D01*
X112166Y251969D01*
X112319Y251200D01*
X112754Y250549D01*
X113405Y250114D01*
X114173Y249961D01*
X114941Y250114D01*
X115593Y250549D01*
X116027Y251200D01*
X116180Y251969D01*
X116027Y252737D01*
X115593Y253388D01*
X114941Y253823D01*
X114173Y253976D01*
D02*
G37*
G36*
X54053Y252400D02*
X52923Y252251D01*
X51869Y251815D01*
X50965Y251120D01*
X50270Y250216D01*
X49834Y249162D01*
X49685Y248032D01*
X49834Y246901D01*
X50270Y245848D01*
X50965Y244943D01*
X51869Y244249D01*
X52923Y243813D01*
X54053Y243664D01*
X55184Y243813D01*
X56237Y244249D01*
X57142Y244943D01*
X57836Y245848D01*
X58273Y246901D01*
X58421Y248032D01*
X58273Y249162D01*
X57836Y250216D01*
X57142Y251120D01*
X56237Y251815D01*
X55184Y252251D01*
X54053Y252400D01*
D02*
G37*
G36*
X44054Y252400D02*
X42923Y252251D01*
X41870Y251814D01*
X40965Y251120D01*
X40271Y250216D01*
X39834Y249162D01*
X39686Y248031D01*
X39834Y246901D01*
X40271Y245848D01*
X40965Y244943D01*
X41870Y244249D01*
X42923Y243812D01*
X44054Y243663D01*
X45184Y243812D01*
X46238Y244249D01*
X47142Y244943D01*
X47837Y245848D01*
X48273Y246901D01*
X48422Y248031D01*
X48273Y249162D01*
X47837Y250216D01*
X47142Y251120D01*
X46238Y251814D01*
X45184Y252251D01*
X44054Y252400D01*
D02*
G37*
G36*
X34054D02*
X32923Y252251D01*
X31870Y251814D01*
X30965Y251120D01*
X30271Y250216D01*
X29835Y249162D01*
X29686Y248031D01*
X29835Y246901D01*
X30271Y245848D01*
X30965Y244943D01*
X31870Y244249D01*
X32923Y243812D01*
X34054Y243663D01*
X35184Y243812D01*
X36238Y244249D01*
X37143Y244943D01*
X37837Y245848D01*
X38273Y246901D01*
X38422Y248031D01*
X38273Y249162D01*
X37837Y250216D01*
X37143Y251120D01*
X36238Y251814D01*
X35184Y252251D01*
X34054Y252400D01*
D02*
G37*
G36*
X24054D02*
X22923Y252251D01*
X21870Y251814D01*
X20965Y251120D01*
X20271Y250216D01*
X19835Y249162D01*
X19686Y248031D01*
X19835Y246901D01*
X20271Y245848D01*
X20965Y244943D01*
X21870Y244249D01*
X22923Y243812D01*
X24054Y243663D01*
X25184Y243812D01*
X26238Y244249D01*
X27143Y244943D01*
X27837Y245848D01*
X28273Y246901D01*
X28422Y248031D01*
X28273Y249162D01*
X27837Y250216D01*
X27143Y251120D01*
X26238Y251814D01*
X25184Y252251D01*
X24054Y252400D01*
D02*
G37*
G36*
X84054Y252399D02*
X82923Y252250D01*
X81870Y251814D01*
X80965Y251120D01*
X80271Y250215D01*
X79835Y249162D01*
X79686Y248031D01*
X79835Y246901D01*
X80271Y245847D01*
X80965Y244942D01*
X81870Y244248D01*
X82923Y243812D01*
X84054Y243663D01*
X85185Y243812D01*
X86238Y244248D01*
X87143Y244942D01*
X87837Y245847D01*
X88273Y246901D01*
X88422Y248031D01*
X88273Y249162D01*
X87837Y250215D01*
X87143Y251120D01*
X86238Y251814D01*
X85185Y252250D01*
X84054Y252399D01*
D02*
G37*
G36*
X74054D02*
X72923Y252250D01*
X71870Y251814D01*
X70965Y251120D01*
X70271Y250215D01*
X69835Y249162D01*
X69686Y248031D01*
X69835Y246901D01*
X70271Y245847D01*
X70965Y244942D01*
X71870Y244248D01*
X72923Y243812D01*
X74054Y243663D01*
X75185Y243812D01*
X76238Y244248D01*
X77143Y244942D01*
X77837Y245847D01*
X78273Y246901D01*
X78422Y248031D01*
X78273Y249162D01*
X77837Y250215D01*
X77143Y251120D01*
X76238Y251814D01*
X75185Y252250D01*
X74054Y252399D01*
D02*
G37*
G36*
X64054D02*
X62923Y252250D01*
X61870Y251814D01*
X60965Y251120D01*
X60271Y250215D01*
X59835Y249162D01*
X59686Y248031D01*
X59835Y246901D01*
X60271Y245847D01*
X60965Y244942D01*
X61870Y244248D01*
X62923Y243812D01*
X64054Y243663D01*
X65184Y243812D01*
X66238Y244248D01*
X67143Y244942D01*
X67837Y245847D01*
X68273Y246901D01*
X68422Y248031D01*
X68273Y249162D01*
X67837Y250215D01*
X67143Y251120D01*
X66238Y251814D01*
X65184Y252250D01*
X64054Y252399D01*
D02*
G37*
G36*
X8268Y246102D02*
X7500Y245949D01*
X6848Y245514D01*
X6413Y244863D01*
X6261Y244094D01*
X6413Y243326D01*
X6848Y242675D01*
X7500Y242240D01*
X8268Y242087D01*
X9036Y242240D01*
X9687Y242675D01*
X10122Y243326D01*
X10275Y244094D01*
X10122Y244863D01*
X9687Y245514D01*
X9036Y245949D01*
X8268Y246102D01*
D02*
G37*
G36*
X98385Y252362D02*
X89723D01*
Y243701D01*
X90218D01*
X90595Y243403D01*
X90595Y243402D01*
X90595D01*
X90614Y243200D01*
X90596Y243197D01*
X90078Y243094D01*
X89426Y242659D01*
X88991Y242007D01*
X88839Y241239D01*
X88991Y240471D01*
X89426Y239820D01*
X90078Y239385D01*
X90846Y239232D01*
X91614Y239385D01*
X92265Y239820D01*
X92700Y240471D01*
X92853Y241239D01*
X92700Y242007D01*
X92265Y242659D01*
X91614Y243094D01*
X91096Y243197D01*
X91077Y243200D01*
X91097Y243402D01*
X91097D01*
X91097Y243403D01*
X91474Y243701D01*
X98385D01*
Y252362D01*
D02*
G37*
G36*
X204477Y240737D02*
Y236720D01*
X208493D01*
X208403Y237406D01*
X207945Y238511D01*
X207217Y239460D01*
X206268Y240189D01*
X205163Y240647D01*
X204477Y240737D01*
D02*
G37*
G36*
X203477D02*
X202791Y240647D01*
X201686Y240189D01*
X200736Y239460D01*
X200008Y238511D01*
X199550Y237406D01*
X199460Y236720D01*
X203477D01*
Y240737D01*
D02*
G37*
G36*
X213977Y240588D02*
X212846Y240440D01*
X211792Y240003D01*
X210888Y239309D01*
X210194Y238404D01*
X209757Y237351D01*
X209609Y236221D01*
X209757Y235090D01*
X210194Y234036D01*
X210888Y233132D01*
X211792Y232438D01*
X212846Y232001D01*
X213977Y231852D01*
X215107Y232001D01*
X216161Y232438D01*
X217065Y233132D01*
X217759Y234036D01*
X218196Y235090D01*
X218206Y235169D01*
X218726Y235290D01*
X219053Y234801D01*
X219704Y234366D01*
X220472Y234213D01*
X221240Y234366D01*
X221892Y234801D01*
X222327Y235452D01*
X222480Y236221D01*
X222327Y236988D01*
X221892Y237640D01*
X221240Y238075D01*
X220472Y238228D01*
X219704Y238075D01*
X219053Y237640D01*
X218726Y237151D01*
X218206Y237272D01*
X218196Y237351D01*
X217759Y238404D01*
X217065Y239309D01*
X216161Y240003D01*
X215107Y240440D01*
X213977Y240588D01*
D02*
G37*
G36*
X87795Y236259D02*
X87027Y236106D01*
X86376Y235671D01*
X85941Y235020D01*
X85788Y234252D01*
X85941Y233484D01*
X86376Y232833D01*
X87027Y232398D01*
X87795Y232245D01*
X88563Y232398D01*
X89214Y232833D01*
X89650Y233484D01*
X89802Y234252D01*
X89650Y235020D01*
X89214Y235671D01*
X88563Y236106D01*
X87795Y236259D01*
D02*
G37*
G36*
X168307Y240551D02*
X159645D01*
Y231890D01*
X168307D01*
Y240551D01*
D02*
G37*
G36*
X193976Y240589D02*
X192846Y240440D01*
X191792Y240004D01*
X190887Y239310D01*
X190193Y238405D01*
X189757Y237351D01*
X189608Y236221D01*
X189757Y235090D01*
X190193Y234037D01*
X190887Y233132D01*
X191792Y232438D01*
X192846Y232002D01*
X193976Y231853D01*
X195107Y232002D01*
X196160Y232438D01*
X197065Y233132D01*
X197759Y234037D01*
X198196Y235090D01*
X198344Y236221D01*
X198196Y237351D01*
X197759Y238405D01*
X197065Y239310D01*
X196160Y240004D01*
X195107Y240440D01*
X193976Y240589D01*
D02*
G37*
G36*
X183976D02*
X182846Y240440D01*
X181792Y240004D01*
X180887Y239310D01*
X180193Y238405D01*
X179757Y237351D01*
X179608Y236221D01*
X179757Y235090D01*
X180193Y234037D01*
X180887Y233132D01*
X181792Y232438D01*
X182846Y232002D01*
X183976Y231853D01*
X185107Y232002D01*
X186160Y232438D01*
X187065Y233132D01*
X187759Y234037D01*
X188196Y235090D01*
X188344Y236221D01*
X188196Y237351D01*
X187759Y238405D01*
X187065Y239310D01*
X186160Y240004D01*
X185107Y240440D01*
X183976Y240589D01*
D02*
G37*
G36*
X173976D02*
X172846Y240440D01*
X171792Y240004D01*
X170887Y239310D01*
X170193Y238405D01*
X169757Y237351D01*
X169608Y236221D01*
X169757Y235090D01*
X170193Y234037D01*
X170887Y233132D01*
X171792Y232438D01*
X172846Y232002D01*
X173976Y231853D01*
X175107Y232002D01*
X176160Y232438D01*
X177065Y233132D01*
X177759Y234037D01*
X178196Y235090D01*
X178344Y236221D01*
X178196Y237351D01*
X177759Y238405D01*
X177065Y239310D01*
X176160Y240004D01*
X175107Y240440D01*
X173976Y240589D01*
D02*
G37*
G36*
X208493Y235720D02*
X204477D01*
Y231703D01*
X205163Y231794D01*
X206268Y232252D01*
X207217Y232980D01*
X207945Y233929D01*
X208403Y235034D01*
X208493Y235720D01*
D02*
G37*
G36*
X203477D02*
X199460D01*
X199550Y235034D01*
X200008Y233929D01*
X200736Y232980D01*
X201686Y232252D01*
X202791Y231794D01*
X203477Y231703D01*
Y235720D01*
D02*
G37*
G36*
X57480Y226416D02*
X56712Y226264D01*
X56061Y225829D01*
X55626Y225178D01*
X55473Y224410D01*
X55626Y223641D01*
X56061Y222990D01*
X56712Y222555D01*
X57480Y222402D01*
X58248Y222555D01*
X58899Y222990D01*
X59335Y223641D01*
X59487Y224410D01*
X59335Y225178D01*
X58899Y225829D01*
X58248Y226264D01*
X57480Y226416D01*
D02*
G37*
G36*
X220472Y222480D02*
X219704Y222327D01*
X219053Y221892D01*
X218618Y221240D01*
X218465Y220472D01*
X218618Y219704D01*
X219053Y219053D01*
X219704Y218618D01*
X220472Y218465D01*
X221240Y218618D01*
X221892Y219053D01*
X222327Y219704D01*
X222480Y220472D01*
X222327Y221240D01*
X221892Y221892D01*
X221240Y222327D01*
X220472Y222480D01*
D02*
G37*
G36*
X192933Y218366D02*
X185335D01*
Y210768D01*
X192933D01*
Y218366D01*
D02*
G37*
G36*
X177323Y218399D02*
X176331Y218268D01*
X175407Y217885D01*
X174613Y217277D01*
X174004Y216483D01*
X173621Y215559D01*
X173491Y214567D01*
X173621Y213575D01*
X174004Y212651D01*
X174613Y211857D01*
X175407Y211248D01*
X176331Y210865D01*
X177323Y210735D01*
X178315Y210865D01*
X179239Y211248D01*
X180033Y211857D01*
X180641Y212651D01*
X181024Y213575D01*
X181155Y214567D01*
X181024Y215559D01*
X180641Y216483D01*
X180033Y217277D01*
X179239Y217885D01*
X178315Y218268D01*
X177323Y218399D01*
D02*
G37*
G36*
X157480Y223261D02*
X156168Y223131D01*
X154907Y222749D01*
X153744Y222127D01*
X152725Y221291D01*
X151888Y220272D01*
X151267Y219109D01*
X150884Y217847D01*
X150755Y216535D01*
X150884Y215223D01*
X151267Y213962D01*
X151888Y212799D01*
X152725Y211780D01*
X153744Y210944D01*
X154907Y210322D01*
X156168Y209939D01*
X157480Y209810D01*
X158792Y209939D01*
X160054Y210322D01*
X161217Y210944D01*
X162236Y211780D01*
X163072Y212799D01*
X163694Y213962D01*
X164076Y215223D01*
X164206Y216535D01*
X164076Y217847D01*
X163694Y219109D01*
X163072Y220272D01*
X162236Y221291D01*
X161217Y222127D01*
X160054Y222749D01*
X158792Y223131D01*
X157480Y223261D01*
D02*
G37*
G36*
X84646Y212637D02*
X83878Y212484D01*
X83227Y212049D01*
X82791Y211398D01*
X82639Y210630D01*
X82791Y209862D01*
X83227Y209211D01*
X83878Y208776D01*
X84646Y208623D01*
X85414Y208776D01*
X86065Y209211D01*
X86500Y209862D01*
X86653Y210630D01*
X86500Y211398D01*
X86065Y212049D01*
X85414Y212484D01*
X84646Y212637D01*
D02*
G37*
G36*
X220472Y206732D02*
X219704Y206579D01*
X219053Y206144D01*
X218618Y205492D01*
X218465Y204724D01*
X218618Y203956D01*
X219053Y203305D01*
X219704Y202870D01*
X220472Y202717D01*
X221240Y202870D01*
X221892Y203305D01*
X222327Y203956D01*
X222480Y204724D01*
X222327Y205492D01*
X221892Y206144D01*
X221240Y206579D01*
X220472Y206732D01*
D02*
G37*
G36*
X206142Y215387D02*
X204830Y215258D01*
X203568Y214875D01*
X202405Y214253D01*
X201386Y213417D01*
X200550Y212398D01*
X199928Y211235D01*
X199546Y209974D01*
X199416Y208661D01*
X199546Y207349D01*
X199928Y206088D01*
X200550Y204925D01*
X201386Y203906D01*
X202405Y203070D01*
X203568Y202448D01*
X204830Y202065D01*
X206142Y201936D01*
X207454Y202065D01*
X208715Y202448D01*
X209878Y203070D01*
X210897Y203906D01*
X211734Y204925D01*
X212355Y206088D01*
X212738Y207349D01*
X212867Y208661D01*
X212738Y209974D01*
X212355Y211235D01*
X211734Y212398D01*
X210897Y213417D01*
X209878Y214253D01*
X208715Y214875D01*
X207454Y215258D01*
X206142Y215387D01*
D02*
G37*
G36*
X189134Y206588D02*
X188142Y206457D01*
X187218Y206075D01*
X186424Y205466D01*
X185815Y204672D01*
X185432Y203748D01*
X185302Y202756D01*
X185432Y201764D01*
X185815Y200840D01*
X186424Y200046D01*
X187218Y199437D01*
X188142Y199055D01*
X189134Y198924D01*
X190126Y199055D01*
X191050Y199437D01*
X191843Y200046D01*
X192453Y200840D01*
X192835Y201764D01*
X192966Y202756D01*
X192835Y203748D01*
X192453Y204672D01*
X191843Y205466D01*
X191050Y206075D01*
X190126Y206457D01*
X189134Y206588D01*
D02*
G37*
G36*
X177323D02*
X176331Y206457D01*
X175407Y206075D01*
X174613Y205466D01*
X174004Y204672D01*
X173621Y203748D01*
X173491Y202756D01*
X173621Y201764D01*
X174004Y200840D01*
X174613Y200046D01*
X175407Y199437D01*
X176331Y199055D01*
X177323Y198924D01*
X178315Y199055D01*
X179239Y199437D01*
X180033Y200046D01*
X180641Y200840D01*
X181024Y201764D01*
X181155Y202756D01*
X181024Y203748D01*
X180641Y204672D01*
X180033Y205466D01*
X179239Y206075D01*
X178315Y206457D01*
X177323Y206588D01*
D02*
G37*
G36*
X142913Y199251D02*
X142145Y199098D01*
X141695Y198797D01*
X141339Y198704D01*
X140982Y198797D01*
X140532Y199098D01*
X139764Y199251D01*
X138996Y199098D01*
X138345Y198663D01*
X137909Y198012D01*
X137853Y197730D01*
X137344D01*
X137287Y198012D01*
X136852Y198663D01*
X136201Y199098D01*
X135433Y199251D01*
X134665Y199098D01*
X134014Y198663D01*
X133579Y198012D01*
X133426Y197244D01*
X133579Y196476D01*
X134014Y195825D01*
X134665Y195390D01*
X135433Y195237D01*
X136201Y195390D01*
X136852Y195825D01*
X137287Y196476D01*
X137344Y196758D01*
X137853D01*
X137909Y196476D01*
X138345Y195825D01*
X138996Y195390D01*
X139764Y195237D01*
X140532Y195390D01*
X140982Y195691D01*
X141339Y195784D01*
X141695Y195691D01*
X142145Y195390D01*
X142913Y195237D01*
X143682Y195390D01*
X144333Y195825D01*
X144768Y196476D01*
X144921Y197244D01*
X144768Y198012D01*
X144333Y198663D01*
X143682Y199098D01*
X142913Y199251D01*
D02*
G37*
G36*
X102362Y211450D02*
X101050Y211320D01*
X99788Y210938D01*
X98626Y210316D01*
X97607Y209480D01*
X96770Y208461D01*
X96149Y207298D01*
X95766Y206036D01*
X95637Y204724D01*
X95766Y203412D01*
X96149Y202151D01*
X96770Y200988D01*
X97607Y199969D01*
X98626Y199133D01*
X99788Y198511D01*
X101050Y198128D01*
X102362Y197999D01*
X103674Y198128D01*
X104936Y198511D01*
X106099Y199133D01*
X107118Y199969D01*
X107954Y200988D01*
X108576Y202151D01*
X108958Y203412D01*
X109088Y204724D01*
X108958Y206036D01*
X108576Y207298D01*
X107954Y208461D01*
X107118Y209480D01*
X106099Y210316D01*
X104936Y210938D01*
X103674Y211320D01*
X102362Y211450D01*
D02*
G37*
G36*
X129921Y201613D02*
X129153Y201461D01*
X128502Y201026D01*
X128067Y200374D01*
X127914Y199606D01*
X128067Y198838D01*
X128502Y198187D01*
X129153Y197752D01*
X129921Y197599D01*
X130689Y197752D01*
X131341Y198187D01*
X131775Y198838D01*
X131928Y199606D01*
X131775Y200374D01*
X131341Y201026D01*
X130689Y201461D01*
X129921Y201613D01*
D02*
G37*
G36*
X123622D02*
X122854Y201461D01*
X122203Y201026D01*
X121768Y200374D01*
X121615Y199606D01*
X121768Y198838D01*
X122203Y198187D01*
X122854Y197752D01*
X123622Y197599D01*
X124390Y197752D01*
X125041Y198187D01*
X125476Y198838D01*
X125629Y199606D01*
X125476Y200374D01*
X125041Y201026D01*
X124390Y201461D01*
X123622Y201613D01*
D02*
G37*
G36*
X117323D02*
X116555Y201461D01*
X115904Y201026D01*
X115469Y200374D01*
X115316Y199606D01*
X115469Y198838D01*
X115904Y198187D01*
X116555Y197752D01*
X117323Y197599D01*
X118091Y197752D01*
X118742Y198187D01*
X119177Y198838D01*
X119330Y199606D01*
X119177Y200374D01*
X118742Y201026D01*
X118091Y201461D01*
X117323Y201613D01*
D02*
G37*
G36*
X138583Y192952D02*
X137815Y192799D01*
X137163Y192364D01*
X136728Y191713D01*
X136576Y190945D01*
X136728Y190177D01*
X137163Y189526D01*
X137815Y189091D01*
X138583Y188938D01*
X139351Y189091D01*
X140002Y189526D01*
X140437Y190177D01*
X140590Y190945D01*
X140437Y191713D01*
X140002Y192364D01*
X139351Y192799D01*
X138583Y192952D01*
D02*
G37*
G36*
X220472Y190983D02*
X219704Y190831D01*
X219053Y190396D01*
X218618Y189744D01*
X218465Y188976D01*
X218618Y188208D01*
X219053Y187557D01*
X219704Y187122D01*
X220472Y186969D01*
X221240Y187122D01*
X221892Y187557D01*
X222327Y188208D01*
X222480Y188976D01*
X222327Y189744D01*
X221892Y190396D01*
X221240Y190831D01*
X220472Y190983D01*
D02*
G37*
G36*
X177323Y190983D02*
X176555Y190831D01*
X175904Y190396D01*
X175469Y189744D01*
X175316Y188976D01*
X175469Y188208D01*
X175904Y187557D01*
X176555Y187122D01*
X177323Y186969D01*
X178091Y187122D01*
X178742Y187557D01*
X179177Y188208D01*
X179330Y188976D01*
X179177Y189744D01*
X178742Y190396D01*
X178091Y190831D01*
X177323Y190983D01*
D02*
G37*
G36*
X195000Y183007D02*
X194232Y182854D01*
X193581Y182419D01*
X193146Y181768D01*
X192993Y181000D01*
X193146Y180232D01*
X193581Y179581D01*
X194232Y179146D01*
X195000Y178993D01*
X195768Y179146D01*
X196419Y179581D01*
X196854Y180232D01*
X197007Y181000D01*
X196854Y181768D01*
X196419Y182419D01*
X195768Y182854D01*
X195000Y183007D01*
D02*
G37*
G36*
X149000D02*
X148232Y182854D01*
X147581Y182419D01*
X147146Y181768D01*
X146993Y181000D01*
X147146Y180232D01*
X147581Y179581D01*
X148232Y179146D01*
X149000Y178993D01*
X149768Y179146D01*
X150419Y179581D01*
X150854Y180232D01*
X151007Y181000D01*
X150854Y181768D01*
X150419Y182419D01*
X149768Y182854D01*
X149000Y183007D01*
D02*
G37*
G36*
X145500Y179007D02*
X144732Y178854D01*
X144081Y178419D01*
X143784Y177975D01*
X143216D01*
X142919Y178419D01*
X142268Y178854D01*
X141500Y179007D01*
X140732Y178854D01*
X140081Y178419D01*
X139884Y178124D01*
X139419Y177919D01*
X139261Y178025D01*
X138768Y178354D01*
X138000Y178507D01*
X137232Y178354D01*
X136581Y177919D01*
X136146Y177268D01*
X135993Y176500D01*
X136146Y175732D01*
X136581Y175081D01*
X137232Y174646D01*
X138000Y174493D01*
X138768Y174646D01*
X139419Y175081D01*
X139616Y175376D01*
X140081Y175581D01*
X140238Y175475D01*
X140732Y175146D01*
X141500Y174993D01*
X142268Y175146D01*
X142919Y175581D01*
X143216Y176025D01*
X143784D01*
X144081Y175581D01*
X144732Y175146D01*
X145500Y174993D01*
X146268Y175146D01*
X146919Y175581D01*
X147354Y176232D01*
X147507Y177000D01*
X147354Y177768D01*
X146919Y178419D01*
X146268Y178854D01*
X145500Y179007D01*
D02*
G37*
G36*
X123622Y181535D02*
X122854Y181382D01*
X122203Y180947D01*
X121768Y180296D01*
X121615Y179528D01*
X121768Y178760D01*
X122203Y178108D01*
X122854Y177673D01*
X123622Y177521D01*
X124390Y177673D01*
X125041Y178108D01*
X125476Y178760D01*
X125629Y179528D01*
X125476Y180296D01*
X125041Y180947D01*
X124390Y181382D01*
X123622Y181535D01*
D02*
G37*
G36*
X220866Y179172D02*
X220098Y179020D01*
X219447Y178585D01*
X219012Y177933D01*
X218859Y177165D01*
X219012Y176397D01*
X219447Y175746D01*
X220098Y175311D01*
X220866Y175158D01*
X221634Y175311D01*
X222285Y175746D01*
X222720Y176397D01*
X222873Y177165D01*
X222720Y177933D01*
X222285Y178585D01*
X221634Y179020D01*
X220866Y179172D01*
D02*
G37*
G36*
X130709Y174054D02*
X129941Y173901D01*
X129289Y173467D01*
X128854Y172815D01*
X128702Y172047D01*
X128854Y171279D01*
X129289Y170628D01*
X129941Y170193D01*
X130709Y170040D01*
X131477Y170193D01*
X132128Y170628D01*
X132563Y171279D01*
X132716Y172047D01*
X132563Y172815D01*
X132128Y173467D01*
X131477Y173901D01*
X130709Y174054D01*
D02*
G37*
G36*
X195000Y172507D02*
X194232Y172354D01*
X193581Y171919D01*
X193146Y171268D01*
X192993Y170500D01*
X193146Y169732D01*
X193581Y169081D01*
X194232Y168646D01*
X195000Y168493D01*
X195768Y168646D01*
X196419Y169081D01*
X196854Y169732D01*
X197007Y170500D01*
X196854Y171268D01*
X196419Y171919D01*
X195768Y172354D01*
X195000Y172507D01*
D02*
G37*
G36*
X103543Y171298D02*
X102775Y171146D01*
X102124Y170711D01*
X101689Y170059D01*
X101536Y169291D01*
X101689Y168523D01*
X102124Y167872D01*
X102775Y167437D01*
X103543Y167284D01*
X104311Y167437D01*
X104963Y167872D01*
X105060Y168018D01*
X105591Y167913D01*
X105626Y167736D01*
X106061Y167085D01*
X106712Y166650D01*
X107480Y166497D01*
X108248Y166650D01*
X108899Y167085D01*
X109335Y167736D01*
X109487Y168504D01*
X109335Y169272D01*
X108899Y169923D01*
X108248Y170358D01*
X107480Y170511D01*
X106712Y170358D01*
X106061Y169923D01*
X105964Y169777D01*
X105433Y169883D01*
X105398Y170059D01*
X104963Y170711D01*
X104311Y171146D01*
X103543Y171298D01*
D02*
G37*
G36*
X220866Y169330D02*
X220098Y169177D01*
X219447Y168742D01*
X219012Y168091D01*
X218859Y167323D01*
X219012Y166555D01*
X219447Y165904D01*
X220098Y165469D01*
X220866Y165316D01*
X221634Y165469D01*
X222285Y165904D01*
X222720Y166555D01*
X222873Y167323D01*
X222720Y168091D01*
X222285Y168742D01*
X221634Y169177D01*
X220866Y169330D01*
D02*
G37*
G36*
X94488Y164999D02*
X93720Y164846D01*
X93069Y164411D01*
X92634Y163760D01*
X92481Y162992D01*
X92634Y162224D01*
X93069Y161573D01*
X93720Y161138D01*
X94488Y160985D01*
X95256Y161138D01*
X95907Y161573D01*
X96342Y162224D01*
X96495Y162992D01*
X96342Y163760D01*
X95907Y164411D01*
X95256Y164846D01*
X94488Y164999D01*
D02*
G37*
G36*
X103937Y163818D02*
X103169Y163665D01*
X102518Y163230D01*
X102083Y162579D01*
X101930Y161811D01*
X102083Y161043D01*
X102518Y160392D01*
X103169Y159957D01*
X103937Y159804D01*
X104705Y159957D01*
X105356Y160392D01*
X105791Y161043D01*
X105944Y161811D01*
X105791Y162579D01*
X105356Y163230D01*
X104705Y163665D01*
X103937Y163818D01*
D02*
G37*
G36*
X151969Y163424D02*
X151200Y163272D01*
X150549Y162837D01*
X150114Y162185D01*
X149961Y161417D01*
X150114Y160649D01*
X150549Y159998D01*
X151200Y159563D01*
X151969Y159410D01*
X152737Y159563D01*
X153388Y159998D01*
X153823Y160649D01*
X153976Y161417D01*
X153823Y162185D01*
X153388Y162837D01*
X152737Y163272D01*
X151969Y163424D01*
D02*
G37*
G36*
X138189Y165393D02*
X137421Y165240D01*
X136770Y164805D01*
X136335Y164154D01*
X136182Y163386D01*
X136335Y162618D01*
X136770Y161967D01*
X137421Y161531D01*
X137715Y161473D01*
X138146Y161268D01*
X138078Y160930D01*
X137993Y160500D01*
X138146Y159732D01*
X138581Y159081D01*
X139232Y158646D01*
X140000Y158493D01*
X140768Y158646D01*
X141419Y159081D01*
X141854Y159732D01*
X142007Y160500D01*
X141854Y161268D01*
X141419Y161919D01*
X140768Y162354D01*
X140473Y162413D01*
X140043Y162618D01*
X140111Y162956D01*
X140196Y163386D01*
X140043Y164154D01*
X139608Y164805D01*
X138957Y165240D01*
X138189Y165393D01*
D02*
G37*
G36*
X195000Y162007D02*
X194232Y161854D01*
X193581Y161419D01*
X193146Y160768D01*
X192993Y160000D01*
X193146Y159232D01*
X193581Y158581D01*
X194232Y158146D01*
X195000Y157993D01*
X195768Y158146D01*
X196419Y158581D01*
X196854Y159232D01*
X197007Y160000D01*
X196854Y160768D01*
X196419Y161419D01*
X195768Y161854D01*
X195000Y162007D01*
D02*
G37*
G36*
X53937Y161456D02*
X53169Y161303D01*
X52518Y160868D01*
X52083Y160217D01*
X51930Y159449D01*
X52083Y158681D01*
X52518Y158030D01*
X53169Y157595D01*
X53937Y157442D01*
X54705Y157595D01*
X55356Y158030D01*
X55791Y158681D01*
X55944Y159449D01*
X55791Y160217D01*
X55356Y160868D01*
X54705Y161303D01*
X53937Y161456D01*
D02*
G37*
G36*
X99213Y160275D02*
X98444Y160122D01*
X97793Y159687D01*
X97358Y159036D01*
X97206Y158268D01*
X97358Y157500D01*
X97793Y156849D01*
X98444Y156413D01*
X99213Y156261D01*
X99981Y156413D01*
X100632Y156849D01*
X101067Y157500D01*
X101220Y158268D01*
X101067Y159036D01*
X100632Y159687D01*
X99981Y160122D01*
X99213Y160275D01*
D02*
G37*
G36*
X155512Y159487D02*
X154744Y159335D01*
X154093Y158899D01*
X153657Y158248D01*
X153505Y157480D01*
X153657Y156712D01*
X154093Y156061D01*
X154744Y155626D01*
X155512Y155473D01*
X156280Y155626D01*
X156931Y156061D01*
X157366Y156712D01*
X157519Y157480D01*
X157366Y158248D01*
X156931Y158899D01*
X156280Y159335D01*
X155512Y159487D01*
D02*
G37*
G36*
X184646Y157519D02*
X183878Y157366D01*
X183227Y156931D01*
X182791Y156280D01*
X182639Y155512D01*
X182791Y154744D01*
X183227Y154093D01*
X183878Y153657D01*
X184646Y153505D01*
X185414Y153657D01*
X186065Y154093D01*
X186500Y154744D01*
X186653Y155512D01*
X186500Y156280D01*
X186065Y156931D01*
X185414Y157366D01*
X184646Y157519D01*
D02*
G37*
G36*
X220472Y155550D02*
X219704Y155398D01*
X219053Y154963D01*
X218618Y154311D01*
X218465Y153543D01*
X218618Y152775D01*
X219053Y152124D01*
X219704Y151689D01*
X220472Y151536D01*
X221240Y151689D01*
X221892Y152124D01*
X222327Y152775D01*
X222480Y153543D01*
X222327Y154311D01*
X221892Y154963D01*
X221240Y155398D01*
X220472Y155550D01*
D02*
G37*
G36*
X39779Y152181D02*
X35736D01*
Y148138D01*
X39779D01*
Y152181D01*
D02*
G37*
G36*
X34736D02*
X30693D01*
Y148138D01*
X34736D01*
Y152181D01*
D02*
G37*
G36*
X80000Y152007D02*
X79232Y151854D01*
X78581Y151419D01*
X78146Y150768D01*
X77993Y150000D01*
X78146Y149232D01*
X78581Y148581D01*
X79232Y148146D01*
X80000Y147993D01*
X80768Y148146D01*
X81419Y148581D01*
X81854Y149232D01*
X82007Y150000D01*
X81854Y150768D01*
X81419Y151419D01*
X80768Y151854D01*
X80000Y152007D01*
D02*
G37*
G36*
X53937Y151613D02*
X53169Y151461D01*
X52518Y151025D01*
X52083Y150374D01*
X51930Y149606D01*
X52083Y148838D01*
X52518Y148187D01*
X53169Y147752D01*
X53937Y147599D01*
X54705Y147752D01*
X55356Y148187D01*
X55791Y148838D01*
X55944Y149606D01*
X55791Y150374D01*
X55356Y151025D01*
X54705Y151461D01*
X53937Y151613D01*
D02*
G37*
G36*
X109449Y150039D02*
X108681Y149886D01*
X108030Y149451D01*
X107595Y148800D01*
X107442Y148031D01*
X107595Y147263D01*
X108030Y146612D01*
X108681Y146177D01*
X109449Y146024D01*
X110217Y146177D01*
X110868Y146612D01*
X111303Y147263D01*
X111456Y148031D01*
X111303Y148800D01*
X110868Y149451D01*
X110217Y149886D01*
X109449Y150039D01*
D02*
G37*
G36*
X47047Y152006D02*
X45917Y151857D01*
X44863Y151421D01*
X43959Y150726D01*
X43264Y149822D01*
X42828Y148768D01*
X42679Y147638D01*
X42828Y146507D01*
X43264Y145454D01*
X43959Y144549D01*
X44863Y143855D01*
X45917Y143419D01*
X47047Y143270D01*
X48178Y143419D01*
X49231Y143855D01*
X50136Y144549D01*
X50830Y145454D01*
X51266Y146507D01*
X51415Y147638D01*
X51266Y148768D01*
X50830Y149822D01*
X50136Y150726D01*
X49231Y151421D01*
X48178Y151857D01*
X47047Y152006D01*
D02*
G37*
G36*
X39779Y147138D02*
X35736D01*
Y143095D01*
X39779D01*
Y147138D01*
D02*
G37*
G36*
X34736D02*
X30693D01*
Y143095D01*
X34736D01*
Y147138D01*
D02*
G37*
G36*
X74410Y146102D02*
X73641Y145949D01*
X72990Y145514D01*
X72555Y144863D01*
X72402Y144095D01*
X72555Y143326D01*
X72990Y142675D01*
X73641Y142240D01*
X74410Y142087D01*
X75178Y142240D01*
X75829Y142675D01*
X76264Y143326D01*
X76416Y144095D01*
X76264Y144863D01*
X75829Y145514D01*
X75178Y145949D01*
X74410Y146102D01*
D02*
G37*
G36*
X144500Y146007D02*
X143732Y145854D01*
X143081Y145419D01*
X142646Y144768D01*
X142493Y144000D01*
X142646Y143232D01*
X143081Y142581D01*
X143732Y142146D01*
X144500Y141993D01*
X145268Y142146D01*
X145919Y142581D01*
X146354Y143232D01*
X146507Y144000D01*
X146354Y144768D01*
X145919Y145419D01*
X145268Y145854D01*
X144500Y146007D01*
D02*
G37*
G36*
X138500D02*
X137732Y145854D01*
X137081Y145419D01*
X136646Y144768D01*
X136493Y144000D01*
X136646Y143232D01*
X137081Y142581D01*
X137732Y142146D01*
X138500Y141993D01*
X139268Y142146D01*
X139919Y142581D01*
X140354Y143232D01*
X140507Y144000D01*
X140354Y144768D01*
X139919Y145419D01*
X139268Y145854D01*
X138500Y146007D01*
D02*
G37*
G36*
X53937Y141771D02*
X53169Y141618D01*
X52518Y141183D01*
X52083Y140532D01*
X51930Y139764D01*
X52083Y138996D01*
X52518Y138345D01*
X53169Y137909D01*
X53937Y137757D01*
X54705Y137909D01*
X55356Y138345D01*
X55791Y138996D01*
X55944Y139764D01*
X55791Y140532D01*
X55356Y141183D01*
X54705Y141618D01*
X53937Y141771D01*
D02*
G37*
G36*
X151000Y141007D02*
X150232Y140854D01*
X149581Y140419D01*
X149146Y139768D01*
X148993Y139000D01*
X149146Y138232D01*
X149581Y137581D01*
X150232Y137146D01*
X151000Y136993D01*
X151768Y137146D01*
X152419Y137581D01*
X152854Y138232D01*
X153007Y139000D01*
X152854Y139768D01*
X152419Y140419D01*
X151768Y140854D01*
X151000Y141007D01*
D02*
G37*
G36*
X220472Y139802D02*
X219704Y139650D01*
X219053Y139215D01*
X218618Y138563D01*
X218465Y137795D01*
X218618Y137027D01*
X219053Y136376D01*
X219704Y135941D01*
X220472Y135788D01*
X221240Y135941D01*
X221892Y136376D01*
X222327Y137027D01*
X222480Y137795D01*
X222327Y138563D01*
X221892Y139215D01*
X221240Y139650D01*
X220472Y139802D01*
D02*
G37*
G36*
X180000Y139507D02*
X179232Y139354D01*
X178581Y138919D01*
X178146Y138268D01*
X177993Y137500D01*
X178146Y136732D01*
X178581Y136081D01*
X179232Y135646D01*
X180000Y135493D01*
X180768Y135646D01*
X181419Y136081D01*
X181854Y136732D01*
X182007Y137500D01*
X181854Y138268D01*
X181419Y138919D01*
X180768Y139354D01*
X180000Y139507D01*
D02*
G37*
G36*
X123000Y147007D02*
X122232Y146854D01*
X121581Y146419D01*
X121146Y145768D01*
X120993Y145000D01*
X121146Y144232D01*
X121581Y143581D01*
X122232Y143146D01*
X122597Y143073D01*
X122997Y142521D01*
X122993Y142500D01*
X123146Y141732D01*
X123581Y141081D01*
X124232Y140646D01*
X125000Y140493D01*
X125174Y140527D01*
X125528Y140174D01*
X125493Y140000D01*
X125646Y139232D01*
X126081Y138581D01*
X126732Y138146D01*
X127500Y137993D01*
X127674Y138028D01*
X128027Y137674D01*
X127993Y137500D01*
X128146Y136732D01*
X128581Y136081D01*
X129232Y135646D01*
X130000Y135493D01*
X130768Y135646D01*
X131419Y136081D01*
X131854Y136732D01*
X132007Y137500D01*
X131854Y138268D01*
X131419Y138919D01*
X130768Y139354D01*
X130000Y139507D01*
X129826Y139472D01*
X129472Y139826D01*
X129507Y140000D01*
X129354Y140768D01*
X128919Y141419D01*
X128268Y141854D01*
X127500Y142007D01*
X127326Y141972D01*
X126972Y142326D01*
X127007Y142500D01*
X126854Y143268D01*
X126419Y143919D01*
X125768Y144354D01*
X125403Y144427D01*
X125003Y144979D01*
X125007Y145000D01*
X124854Y145768D01*
X124419Y146419D01*
X123768Y146854D01*
X123000Y147007D01*
D02*
G37*
G36*
X74410Y137834D02*
X73641Y137681D01*
X72990Y137246D01*
X72555Y136595D01*
X72402Y135827D01*
X72555Y135059D01*
X72990Y134408D01*
X73641Y133973D01*
X74410Y133820D01*
X75178Y133973D01*
X75829Y134408D01*
X76264Y135059D01*
X76416Y135827D01*
X76264Y136595D01*
X75829Y137246D01*
X75178Y137681D01*
X74410Y137834D01*
D02*
G37*
G36*
X68110Y137440D02*
X67342Y137287D01*
X66691Y136852D01*
X66256Y136201D01*
X66103Y135433D01*
X66256Y134665D01*
X66691Y134014D01*
X67342Y133579D01*
X68110Y133426D01*
X68878Y133579D01*
X69529Y134014D01*
X69964Y134665D01*
X70117Y135433D01*
X69964Y136201D01*
X69529Y136852D01*
X68878Y137287D01*
X68110Y137440D01*
D02*
G37*
G36*
X146500Y136507D02*
X145732Y136354D01*
X145081Y135919D01*
X144646Y135268D01*
X144493Y134500D01*
X144646Y133732D01*
X145081Y133081D01*
X145732Y132646D01*
X146500Y132493D01*
X147268Y132646D01*
X147919Y133081D01*
X148354Y133732D01*
X148507Y134500D01*
X148354Y135268D01*
X147919Y135919D01*
X147268Y136354D01*
X146500Y136507D01*
D02*
G37*
G36*
X103480Y134747D02*
X102712Y134595D01*
X102061Y134159D01*
X101626Y133508D01*
X101473Y132740D01*
X101626Y131972D01*
X102061Y131321D01*
X102712Y130886D01*
X103480Y130733D01*
X104248Y130886D01*
X104900Y131321D01*
X105335Y131972D01*
X105487Y132740D01*
X105335Y133508D01*
X104900Y134159D01*
X104248Y134595D01*
X103480Y134747D01*
D02*
G37*
G36*
X57500Y134507D02*
X56732Y134354D01*
X56081Y133919D01*
X55646Y133268D01*
X55493Y132500D01*
X55646Y131732D01*
X56081Y131081D01*
X56732Y130646D01*
X57500Y130493D01*
X58268Y130646D01*
X58919Y131081D01*
X59354Y131732D01*
X59507Y132500D01*
X59354Y133268D01*
X58919Y133919D01*
X58268Y134354D01*
X57500Y134507D01*
D02*
G37*
G36*
X45000D02*
X44232Y134354D01*
X43581Y133919D01*
X43146Y133268D01*
X42993Y132500D01*
X43146Y131732D01*
X43581Y131081D01*
X44232Y130646D01*
X45000Y130493D01*
X45768Y130646D01*
X46419Y131081D01*
X46854Y131732D01*
X47007Y132500D01*
X46854Y133268D01*
X46419Y133919D01*
X45768Y134354D01*
X45000Y134507D01*
D02*
G37*
G36*
X150500Y133007D02*
X149732Y132854D01*
X149081Y132419D01*
X148646Y131768D01*
X148493Y131000D01*
X148646Y130232D01*
X149081Y129581D01*
X149732Y129146D01*
X150500Y128993D01*
X151268Y129146D01*
X151919Y129581D01*
X152354Y130232D01*
X152507Y131000D01*
X152354Y131768D01*
X151919Y132419D01*
X151268Y132854D01*
X150500Y133007D01*
D02*
G37*
G36*
X168495Y131189D02*
X167727Y131037D01*
X167076Y130602D01*
X166640Y129950D01*
X166488Y129182D01*
X166640Y128414D01*
X167076Y127763D01*
X167727Y127328D01*
X168495Y127175D01*
X169263Y127328D01*
X169914Y127763D01*
X170349Y128414D01*
X170502Y129182D01*
X170349Y129950D01*
X169914Y130602D01*
X169263Y131037D01*
X168495Y131189D01*
D02*
G37*
G36*
X176378Y131141D02*
X175610Y130988D01*
X174959Y130553D01*
X174524Y129902D01*
X174371Y129134D01*
X174524Y128366D01*
X174959Y127715D01*
X175610Y127280D01*
X176378Y127127D01*
X177146Y127280D01*
X177797Y127715D01*
X178232Y128366D01*
X178385Y129134D01*
X178232Y129902D01*
X177797Y130553D01*
X177146Y130988D01*
X176378Y131141D01*
D02*
G37*
G36*
X97000Y129007D02*
X96232Y128854D01*
X95581Y128419D01*
X95146Y127768D01*
X94993Y127000D01*
X95146Y126232D01*
X95581Y125581D01*
X96232Y125146D01*
X97000Y124993D01*
X97768Y125146D01*
X98419Y125581D01*
X98854Y126232D01*
X99007Y127000D01*
X98854Y127768D01*
X98419Y128419D01*
X97768Y128854D01*
X97000Y129007D01*
D02*
G37*
G36*
X162500Y127507D02*
X161732Y127354D01*
X161081Y126919D01*
X160646Y126268D01*
X160493Y125500D01*
X160646Y124732D01*
X161081Y124081D01*
X161732Y123646D01*
X162500Y123493D01*
X163268Y123646D01*
X163919Y124081D01*
X164354Y124732D01*
X164507Y125500D01*
X164354Y126268D01*
X163919Y126919D01*
X163268Y127354D01*
X162500Y127507D01*
D02*
G37*
G36*
X150500Y127007D02*
X149732Y126854D01*
X149081Y126419D01*
X148646Y125768D01*
X148493Y125000D01*
X148646Y124232D01*
X149081Y123581D01*
X149732Y123146D01*
X150500Y122993D01*
X151268Y123146D01*
X151919Y123581D01*
X152354Y124232D01*
X152507Y125000D01*
X152354Y125768D01*
X151919Y126419D01*
X151268Y126854D01*
X150500Y127007D01*
D02*
G37*
G36*
X54724Y126417D02*
X53956Y126264D01*
X53305Y125829D01*
X52870Y125178D01*
X52717Y124409D01*
X52870Y123641D01*
X53305Y122990D01*
X53956Y122555D01*
X54724Y122402D01*
X55493Y122555D01*
X56144Y122990D01*
X56579Y123641D01*
X56731Y124409D01*
X56579Y125178D01*
X56144Y125829D01*
X55493Y126264D01*
X54724Y126417D01*
D02*
G37*
G36*
X220472Y124054D02*
X219704Y123901D01*
X219053Y123467D01*
X218618Y122815D01*
X218465Y122047D01*
X218618Y121279D01*
X219053Y120628D01*
X219704Y120193D01*
X220472Y120040D01*
X221240Y120193D01*
X221892Y120628D01*
X222327Y121279D01*
X222480Y122047D01*
X222327Y122815D01*
X221892Y123467D01*
X221240Y123901D01*
X220472Y124054D01*
D02*
G37*
G36*
X185040Y119739D02*
X184272Y119587D01*
X183621Y119151D01*
X183186Y118500D01*
X183033Y117732D01*
X183186Y116964D01*
X183621Y116313D01*
X184272Y115878D01*
X185040Y115725D01*
X185808Y115878D01*
X186459Y116313D01*
X186894Y116964D01*
X187047Y117732D01*
X186894Y118500D01*
X186459Y119151D01*
X185808Y119587D01*
X185040Y119739D01*
D02*
G37*
G36*
X102000Y119007D02*
X101232Y118854D01*
X100581Y118419D01*
X100146Y117768D01*
X99993Y117000D01*
X100146Y116232D01*
X100581Y115581D01*
X101232Y115146D01*
X102000Y114993D01*
X102768Y115146D01*
X103419Y115581D01*
X103854Y116232D01*
X104007Y117000D01*
X103854Y117768D01*
X103419Y118419D01*
X102768Y118854D01*
X102000Y119007D01*
D02*
G37*
G36*
X130500Y117007D02*
X129732Y116854D01*
X129081Y116419D01*
X128646Y115768D01*
X128493Y115000D01*
X128526Y114832D01*
X128173Y114479D01*
X128031Y114507D01*
X127263Y114354D01*
X126612Y113919D01*
X126177Y113268D01*
X126103Y112897D01*
X125554Y112496D01*
X125500Y112507D01*
X124732Y112354D01*
X124081Y111919D01*
X123646Y111268D01*
X123493Y110500D01*
X123646Y109732D01*
X124081Y109081D01*
X124732Y108646D01*
X125500Y108493D01*
X126268Y108646D01*
X126919Y109081D01*
X127354Y109732D01*
X127428Y110103D01*
X127977Y110504D01*
X128031Y110493D01*
X128799Y110646D01*
X129451Y111081D01*
X129885Y111732D01*
X130038Y112500D01*
X130005Y112668D01*
X130359Y113021D01*
X130500Y112993D01*
X131268Y113146D01*
X131919Y113581D01*
X132354Y114232D01*
X132507Y115000D01*
X132354Y115768D01*
X131919Y116419D01*
X131268Y116854D01*
X130500Y117007D01*
D02*
G37*
G36*
X120000D02*
X119232Y116854D01*
X118581Y116419D01*
X118146Y115768D01*
X117993Y115000D01*
X118146Y114232D01*
X118581Y113581D01*
X119232Y113146D01*
X120000Y112993D01*
X120768Y113146D01*
X121419Y113581D01*
X121854Y114232D01*
X122007Y115000D01*
X121854Y115768D01*
X121419Y116419D01*
X120768Y116854D01*
X120000Y117007D01*
D02*
G37*
G36*
X146457Y114999D02*
X145689Y114846D01*
X145037Y114411D01*
X144602Y113760D01*
X144450Y112992D01*
X144602Y112224D01*
X145037Y111573D01*
X145689Y111138D01*
X146457Y110985D01*
X147225Y111138D01*
X147876Y111573D01*
X148311Y112224D01*
X148464Y112992D01*
X148311Y113760D01*
X147876Y114411D01*
X147225Y114846D01*
X146457Y114999D01*
D02*
G37*
G36*
X133500Y113007D02*
X132732Y112854D01*
X132081Y112419D01*
X131646Y111768D01*
X131493Y111000D01*
X131646Y110232D01*
X132081Y109581D01*
X132732Y109146D01*
X133500Y108993D01*
X134268Y109146D01*
X134919Y109581D01*
X135354Y110232D01*
X135507Y111000D01*
X135354Y111768D01*
X134919Y112419D01*
X134268Y112854D01*
X133500Y113007D01*
D02*
G37*
G36*
X140945Y112243D02*
X140177Y112091D01*
X139526Y111655D01*
X139091Y111004D01*
X138938Y110236D01*
X139091Y109468D01*
X139526Y108817D01*
X140177Y108382D01*
X140945Y108229D01*
X141713Y108382D01*
X142364Y108817D01*
X142799Y109468D01*
X142952Y110236D01*
X142799Y111004D01*
X142364Y111655D01*
X141713Y112091D01*
X140945Y112243D01*
D02*
G37*
G36*
X69291Y110275D02*
X68523Y110122D01*
X67872Y109687D01*
X67437Y109036D01*
X67284Y108268D01*
X67437Y107500D01*
X67872Y106849D01*
X68523Y106413D01*
X69291Y106261D01*
X70059Y106413D01*
X70711Y106849D01*
X71146Y107500D01*
X71298Y108268D01*
X71146Y109036D01*
X70711Y109687D01*
X70059Y110122D01*
X69291Y110275D01*
D02*
G37*
G36*
X220472Y108306D02*
X219704Y108153D01*
X219053Y107718D01*
X218618Y107067D01*
X218465Y106299D01*
X218618Y105531D01*
X219053Y104880D01*
X219704Y104445D01*
X220472Y104292D01*
X221240Y104445D01*
X221892Y104880D01*
X222327Y105531D01*
X222480Y106299D01*
X222327Y107067D01*
X221892Y107718D01*
X221240Y108153D01*
X220472Y108306D01*
D02*
G37*
G36*
X47047Y112636D02*
X45917Y112487D01*
X44863Y112051D01*
X43959Y111356D01*
X43265Y110452D01*
X42828Y109398D01*
X42679Y108268D01*
X42828Y107137D01*
X43265Y106084D01*
X43959Y105179D01*
X44863Y104485D01*
X45917Y104049D01*
X47047Y103900D01*
X48178Y104049D01*
X49231Y104485D01*
X50136Y105179D01*
X50830Y106084D01*
X51267Y107137D01*
X51415Y108268D01*
X51267Y109398D01*
X50830Y110452D01*
X50136Y111356D01*
X49231Y112051D01*
X48178Y112487D01*
X47047Y112636D01*
D02*
G37*
G36*
X35236D02*
X34106Y112487D01*
X33052Y112051D01*
X32148Y111356D01*
X31454Y110452D01*
X31017Y109398D01*
X30868Y108268D01*
X31017Y107137D01*
X31454Y106084D01*
X32148Y105179D01*
X33052Y104485D01*
X34106Y104049D01*
X35236Y103900D01*
X36367Y104049D01*
X37420Y104485D01*
X38325Y105179D01*
X39019Y106084D01*
X39456Y107137D01*
X39604Y108268D01*
X39456Y109398D01*
X39019Y110452D01*
X38325Y111356D01*
X37420Y112051D01*
X36367Y112487D01*
X35236Y112636D01*
D02*
G37*
G36*
X100394Y107519D02*
X99626Y107366D01*
X98975Y106931D01*
X98539Y106280D01*
X98387Y105512D01*
X98539Y104744D01*
X98975Y104093D01*
X99626Y103657D01*
X100394Y103505D01*
X101162Y103657D01*
X101813Y104093D01*
X102248Y104744D01*
X102401Y105512D01*
X102248Y106280D01*
X101813Y106931D01*
X101162Y107366D01*
X100394Y107519D01*
D02*
G37*
G36*
X168504D02*
X167736Y107366D01*
X167085Y106931D01*
X166650Y106280D01*
X166497Y105512D01*
X166650Y104744D01*
X167085Y104093D01*
X167736Y103657D01*
X168504Y103505D01*
X169272Y103657D01*
X169757Y103982D01*
X169927Y104091D01*
X170382Y103879D01*
X170581Y103581D01*
X171232Y103146D01*
X172000Y102993D01*
X172768Y103146D01*
X173419Y103581D01*
X173854Y104232D01*
X174007Y105000D01*
X173854Y105768D01*
X173419Y106419D01*
X172768Y106854D01*
X172000Y107007D01*
X171232Y106854D01*
X170747Y106530D01*
X170577Y106421D01*
X170122Y106633D01*
X169923Y106931D01*
X169272Y107366D01*
X168504Y107519D01*
D02*
G37*
G36*
X119000Y102507D02*
X118232Y102354D01*
X117581Y101919D01*
X117146Y101268D01*
X116993Y100500D01*
X117146Y99732D01*
X117581Y99081D01*
X118232Y98646D01*
X119000Y98493D01*
X119768Y98646D01*
X120419Y99081D01*
X120854Y99732D01*
X121007Y100500D01*
X120854Y101268D01*
X120419Y101919D01*
X119768Y102354D01*
X119000Y102507D01*
D02*
G37*
G36*
X105000Y102007D02*
X104232Y101854D01*
X103581Y101419D01*
X103146Y100768D01*
X102993Y100000D01*
X103146Y99232D01*
X103581Y98581D01*
X104232Y98146D01*
X105000Y97993D01*
X105768Y98146D01*
X106419Y98581D01*
X106854Y99232D01*
X107007Y100000D01*
X106854Y100768D01*
X106419Y101419D01*
X105768Y101854D01*
X105000Y102007D01*
D02*
G37*
G36*
X62598Y101613D02*
X61830Y101461D01*
X61179Y101025D01*
X60744Y100374D01*
X60591Y99606D01*
X60744Y98838D01*
X61179Y98187D01*
X61830Y97752D01*
X62598Y97599D01*
X63367Y97752D01*
X64018Y98187D01*
X64453Y98838D01*
X64605Y99606D01*
X64453Y100374D01*
X64018Y101025D01*
X63367Y101461D01*
X62598Y101613D01*
D02*
G37*
G36*
X125000Y100507D02*
X124232Y100354D01*
X123581Y99919D01*
X123146Y99268D01*
X122993Y98500D01*
X123146Y97732D01*
X123581Y97081D01*
X124232Y96646D01*
X125000Y96493D01*
X125768Y96646D01*
X126419Y97081D01*
X126854Y97732D01*
X127007Y98500D01*
X126854Y99268D01*
X126419Y99919D01*
X125768Y100354D01*
X125000Y100507D01*
D02*
G37*
G36*
X151575Y100432D02*
X150807Y100279D01*
X150156Y99844D01*
X149721Y99193D01*
X149568Y98425D01*
X149721Y97657D01*
X150156Y97006D01*
X150807Y96571D01*
X151575Y96418D01*
X152343Y96571D01*
X152994Y97006D01*
X153429Y97657D01*
X153582Y98425D01*
X153429Y99193D01*
X152994Y99844D01*
X152343Y100279D01*
X151575Y100432D01*
D02*
G37*
G36*
X67500Y99507D02*
X66732Y99354D01*
X66081Y98919D01*
X65646Y98268D01*
X65493Y97500D01*
X65646Y96732D01*
X66081Y96081D01*
X66732Y95646D01*
X67500Y95493D01*
X68268Y95646D01*
X68919Y96081D01*
X69354Y96732D01*
X69507Y97500D01*
X69354Y98268D01*
X68919Y98919D01*
X68268Y99354D01*
X67500Y99507D01*
D02*
G37*
G36*
X164567Y97283D02*
X163799Y97130D01*
X163148Y96695D01*
X162713Y96044D01*
X162560Y95276D01*
X162713Y94507D01*
X163148Y93856D01*
X163799Y93421D01*
X164567Y93269D01*
X165335Y93421D01*
X165986Y93856D01*
X166421Y94507D01*
X166574Y95276D01*
X166421Y96044D01*
X165986Y96695D01*
X165335Y97130D01*
X164567Y97283D01*
D02*
G37*
G36*
X47047Y100825D02*
X45917Y100676D01*
X44863Y100240D01*
X43959Y99545D01*
X43265Y98641D01*
X42828Y97587D01*
X42679Y96457D01*
X42828Y95326D01*
X43265Y94273D01*
X43959Y93368D01*
X44863Y92674D01*
X45917Y92238D01*
X47047Y92089D01*
X48178Y92238D01*
X49231Y92674D01*
X50136Y93368D01*
X50830Y94273D01*
X51267Y95326D01*
X51415Y96457D01*
X51267Y97587D01*
X50830Y98641D01*
X50136Y99545D01*
X49231Y100240D01*
X48178Y100676D01*
X47047Y100825D01*
D02*
G37*
G36*
X35236D02*
X34106Y100676D01*
X33052Y100240D01*
X32148Y99545D01*
X31454Y98641D01*
X31017Y97587D01*
X30868Y96457D01*
X31017Y95326D01*
X31454Y94273D01*
X32148Y93368D01*
X33052Y92674D01*
X34106Y92238D01*
X35236Y92089D01*
X36367Y92238D01*
X37420Y92674D01*
X38325Y93368D01*
X39019Y94273D01*
X39456Y95326D01*
X39604Y96457D01*
X39456Y97587D01*
X39019Y98641D01*
X38325Y99545D01*
X37420Y100240D01*
X36367Y100676D01*
X35236Y100825D01*
D02*
G37*
G36*
X220472Y92558D02*
X219704Y92405D01*
X219053Y91970D01*
X218618Y91319D01*
X218465Y90551D01*
X218618Y89783D01*
X219053Y89132D01*
X219704Y88697D01*
X220472Y88544D01*
X221240Y88697D01*
X221892Y89132D01*
X222327Y89783D01*
X222480Y90551D01*
X222327Y91319D01*
X221892Y91970D01*
X221240Y92405D01*
X220472Y92558D01*
D02*
G37*
G36*
X87500Y94007D02*
X86732Y93854D01*
X86081Y93419D01*
X85646Y92768D01*
X85493Y92000D01*
X85646Y91232D01*
X86081Y90581D01*
X86732Y90146D01*
X87500Y89993D01*
X87521Y89997D01*
X88073Y89597D01*
X88146Y89232D01*
X88581Y88581D01*
X89232Y88146D01*
X90000Y87993D01*
X90768Y88146D01*
X91419Y88581D01*
X91854Y89232D01*
X92007Y90000D01*
X91854Y90768D01*
X91419Y91419D01*
X90768Y91854D01*
X90000Y92007D01*
X89979Y92003D01*
X89427Y92403D01*
X89354Y92768D01*
X88919Y93419D01*
X88268Y93854D01*
X87500Y94007D01*
D02*
G37*
G36*
X111417Y88621D02*
X110649Y88468D01*
X109998Y88033D01*
X109563Y87382D01*
X109410Y86614D01*
X109563Y85846D01*
X109998Y85195D01*
X110649Y84760D01*
X111417Y84607D01*
X112185Y84760D01*
X112837Y85195D01*
X113272Y85846D01*
X113424Y86614D01*
X113272Y87382D01*
X112837Y88033D01*
X112185Y88468D01*
X111417Y88621D01*
D02*
G37*
G36*
X79921Y91377D02*
X79153Y91224D01*
X78502Y90789D01*
X78067Y90138D01*
X77914Y89370D01*
X78067Y88602D01*
X78502Y87951D01*
X79153Y87516D01*
X79921Y87363D01*
X80092Y87397D01*
X80194Y87332D01*
X80476Y86964D01*
X80357Y86364D01*
X80510Y85596D01*
X80945Y84945D01*
X81596Y84510D01*
X82364Y84357D01*
X83132Y84510D01*
X83783Y84945D01*
X84219Y85596D01*
X84371Y86364D01*
X84219Y87132D01*
X83783Y87783D01*
X83132Y88218D01*
X82364Y88371D01*
X82194Y88337D01*
X82092Y88402D01*
X81809Y88771D01*
X81928Y89370D01*
X81775Y90138D01*
X81340Y90789D01*
X80689Y91224D01*
X79921Y91377D01*
D02*
G37*
G36*
X94095Y86815D02*
X93326Y86662D01*
X92675Y86227D01*
X92240Y85576D01*
X92087Y84808D01*
X92240Y84040D01*
X92675Y83389D01*
X93326Y82954D01*
X94095Y82801D01*
X94863Y82954D01*
X95514Y83389D01*
X95949Y84040D01*
X96102Y84808D01*
X95949Y85576D01*
X95514Y86227D01*
X94863Y86662D01*
X94095Y86815D01*
D02*
G37*
G36*
X47047Y89014D02*
X45917Y88865D01*
X44863Y88428D01*
X43959Y87734D01*
X43265Y86830D01*
X42828Y85776D01*
X42679Y84646D01*
X42828Y83515D01*
X43265Y82462D01*
X43959Y81557D01*
X44863Y80863D01*
X45917Y80426D01*
X47047Y80278D01*
X48178Y80426D01*
X49231Y80863D01*
X50136Y81557D01*
X50830Y82462D01*
X51267Y83515D01*
X51415Y84646D01*
X51267Y85776D01*
X50830Y86830D01*
X50136Y87734D01*
X49231Y88428D01*
X48178Y88865D01*
X47047Y89014D01*
D02*
G37*
G36*
X35236D02*
X34106Y88865D01*
X33052Y88428D01*
X32148Y87734D01*
X31454Y86830D01*
X31017Y85776D01*
X30868Y84646D01*
X31017Y83515D01*
X31454Y82462D01*
X32148Y81557D01*
X33052Y80863D01*
X34106Y80426D01*
X35236Y80278D01*
X36367Y80426D01*
X37420Y80863D01*
X38325Y81557D01*
X39019Y82462D01*
X39456Y83515D01*
X39604Y84646D01*
X39456Y85776D01*
X39019Y86830D01*
X38325Y87734D01*
X37420Y88428D01*
X36367Y88865D01*
X35236Y89014D01*
D02*
G37*
G36*
X161201Y83582D02*
X160433Y83429D01*
X159782Y82994D01*
X159346Y82343D01*
X159194Y81575D01*
X159346Y80807D01*
X159782Y80156D01*
X160433Y79720D01*
X161201Y79568D01*
X161969Y79720D01*
X162620Y80156D01*
X163055Y80807D01*
X163208Y81575D01*
X163055Y82343D01*
X162620Y82994D01*
X161969Y83429D01*
X161201Y83582D01*
D02*
G37*
G36*
X85039Y83109D02*
X84271Y82957D01*
X83620Y82522D01*
X83185Y81870D01*
X83032Y81102D01*
X83185Y80334D01*
X83620Y79683D01*
X84271Y79248D01*
X85039Y79095D01*
X85807Y79248D01*
X86459Y79683D01*
X86894Y80334D01*
X87046Y81102D01*
X86894Y81870D01*
X86459Y82522D01*
X85807Y82957D01*
X85039Y83109D01*
D02*
G37*
G36*
X114567Y82716D02*
X113799Y82563D01*
X113148Y82128D01*
X112713Y81477D01*
X112560Y80709D01*
X112713Y79941D01*
X113148Y79289D01*
X113799Y78854D01*
X114567Y78702D01*
X115335Y78854D01*
X115986Y79289D01*
X116421Y79941D01*
X116574Y80709D01*
X116421Y81477D01*
X115986Y82128D01*
X115335Y82563D01*
X114567Y82716D01*
D02*
G37*
G36*
X70500Y82007D02*
X69732Y81854D01*
X69081Y81419D01*
X68646Y80768D01*
X68493Y80000D01*
X68646Y79232D01*
X69081Y78581D01*
X69732Y78146D01*
X70500Y77993D01*
X71268Y78146D01*
X71919Y78581D01*
X72354Y79232D01*
X72507Y80000D01*
X72354Y80768D01*
X71919Y81419D01*
X71268Y81854D01*
X70500Y82007D01*
D02*
G37*
G36*
X133071Y80747D02*
X132303Y80594D01*
X131652Y80159D01*
X131217Y79508D01*
X131064Y78740D01*
X131217Y77972D01*
X131652Y77321D01*
X132303Y76886D01*
X133071Y76733D01*
X133839Y76886D01*
X134490Y77321D01*
X134925Y77972D01*
X135078Y78740D01*
X134925Y79508D01*
X134490Y80159D01*
X133839Y80594D01*
X133071Y80747D01*
D02*
G37*
G36*
X125591D02*
X124822Y80594D01*
X124171Y80159D01*
X123736Y79508D01*
X123583Y78740D01*
X123736Y77972D01*
X124171Y77321D01*
X124822Y76886D01*
X125591Y76733D01*
X126359Y76886D01*
X127010Y77321D01*
X127445Y77972D01*
X127598Y78740D01*
X127445Y79508D01*
X127010Y80159D01*
X126359Y80594D01*
X125591Y80747D01*
D02*
G37*
G36*
X61811Y82716D02*
X61043Y82563D01*
X60392Y82128D01*
X59957Y81477D01*
X59804Y80709D01*
X59859Y80434D01*
X59842Y79960D01*
X59496Y79891D01*
X59074Y79807D01*
X58423Y79372D01*
X57988Y78721D01*
X57836Y77953D01*
X57988Y77185D01*
X58423Y76534D01*
X59074Y76099D01*
X59842Y75946D01*
X60611Y76099D01*
X61262Y76534D01*
X61697Y77185D01*
X61850Y77953D01*
X61795Y78227D01*
X61811Y78702D01*
X62158Y78771D01*
X62579Y78854D01*
X63230Y79289D01*
X63665Y79941D01*
X63818Y80709D01*
X63665Y81477D01*
X63230Y82128D01*
X62579Y82563D01*
X61811Y82716D01*
D02*
G37*
G36*
X67500Y77507D02*
X66732Y77354D01*
X66081Y76919D01*
X65646Y76268D01*
X65493Y75500D01*
X65646Y74732D01*
X66081Y74081D01*
X66732Y73646D01*
X67500Y73493D01*
X68268Y73646D01*
X68919Y74081D01*
X69354Y74732D01*
X69507Y75500D01*
X69354Y76268D01*
X68919Y76919D01*
X68268Y77354D01*
X67500Y77507D01*
D02*
G37*
G36*
X220472Y76810D02*
X219704Y76657D01*
X219053Y76222D01*
X218618Y75571D01*
X218465Y74803D01*
X218618Y74035D01*
X219053Y73384D01*
X219704Y72949D01*
X220472Y72796D01*
X221240Y72949D01*
X221892Y73384D01*
X222327Y74035D01*
X222480Y74803D01*
X222327Y75571D01*
X221892Y76222D01*
X221240Y76657D01*
X220472Y76810D01*
D02*
G37*
G36*
X182677Y76023D02*
X181909Y75870D01*
X181258Y75435D01*
X180823Y74784D01*
X180670Y74016D01*
X180823Y73248D01*
X181258Y72597D01*
X181909Y72162D01*
X182677Y72009D01*
X183445Y72162D01*
X184096Y72597D01*
X184531Y73248D01*
X184684Y74016D01*
X184531Y74784D01*
X184096Y75435D01*
X183445Y75870D01*
X182677Y76023D01*
D02*
G37*
G36*
X47047Y77203D02*
X45917Y77054D01*
X44863Y76617D01*
X43959Y75923D01*
X43265Y75019D01*
X42828Y73965D01*
X42679Y72835D01*
X42828Y71704D01*
X43265Y70651D01*
X43959Y69746D01*
X44863Y69052D01*
X45917Y68615D01*
X47047Y68467D01*
X48178Y68615D01*
X49231Y69052D01*
X50136Y69746D01*
X50830Y70651D01*
X51267Y71704D01*
X51415Y72835D01*
X51267Y73965D01*
X50830Y75019D01*
X50136Y75923D01*
X49231Y76617D01*
X48178Y77054D01*
X47047Y77203D01*
D02*
G37*
G36*
X35236D02*
X34106Y77054D01*
X33052Y76617D01*
X32148Y75923D01*
X31454Y75019D01*
X31017Y73965D01*
X30868Y72835D01*
X31017Y71704D01*
X31454Y70651D01*
X32148Y69746D01*
X33052Y69052D01*
X34106Y68615D01*
X35236Y68467D01*
X36367Y68615D01*
X37420Y69052D01*
X38325Y69746D01*
X39019Y70651D01*
X39456Y71704D01*
X39604Y72835D01*
X39456Y73965D01*
X39019Y75019D01*
X38325Y75923D01*
X37420Y76617D01*
X36367Y77054D01*
X35236Y77203D01*
D02*
G37*
G36*
X67500Y69507D02*
X66732Y69354D01*
X66081Y68919D01*
X65646Y68268D01*
X65493Y67500D01*
X65646Y66732D01*
X66081Y66081D01*
X66732Y65646D01*
X67500Y65493D01*
X68268Y65646D01*
X68919Y66081D01*
X69354Y66732D01*
X69507Y67500D01*
X69354Y68268D01*
X68919Y68919D01*
X68268Y69354D01*
X67500Y69507D01*
D02*
G37*
G36*
X75590Y65393D02*
X74822Y65240D01*
X74171Y64805D01*
X73736Y64154D01*
X73584Y63386D01*
X73736Y62618D01*
X74171Y61967D01*
X74822Y61532D01*
X75590Y61379D01*
X76359Y61532D01*
X77010Y61967D01*
X77445Y62618D01*
X77598Y63386D01*
X77445Y64154D01*
X77010Y64805D01*
X76359Y65240D01*
X75590Y65393D01*
D02*
G37*
G36*
X170866Y64999D02*
X170098Y64846D01*
X169447Y64411D01*
X169012Y63760D01*
X168859Y62992D01*
X169012Y62224D01*
X169447Y61573D01*
X170098Y61138D01*
X170866Y60985D01*
X171634Y61138D01*
X172285Y61573D01*
X172720Y62224D01*
X172873Y62992D01*
X172720Y63760D01*
X172285Y64411D01*
X171634Y64846D01*
X170866Y64999D01*
D02*
G37*
G36*
X218740Y69526D02*
X217610Y69377D01*
X216556Y68941D01*
X215651Y68246D01*
X214957Y67342D01*
X214521Y66288D01*
X214372Y65158D01*
X214521Y64027D01*
X214957Y62974D01*
X215651Y62069D01*
X216556Y61375D01*
X217610Y60938D01*
X218740Y60790D01*
X219871Y60938D01*
X220924Y61375D01*
X221829Y62069D01*
X222523Y62974D01*
X222959Y64027D01*
X223108Y65158D01*
X222959Y66288D01*
X222523Y67342D01*
X221829Y68246D01*
X220924Y68941D01*
X219871Y69377D01*
X218740Y69526D01*
D02*
G37*
G36*
X128740D02*
X127610Y69377D01*
X126556Y68941D01*
X125651Y68246D01*
X124957Y67342D01*
X124521Y66288D01*
X124372Y65158D01*
X124521Y64027D01*
X124957Y62974D01*
X125651Y62069D01*
X126556Y61375D01*
X127610Y60938D01*
X128740Y60790D01*
X129871Y60938D01*
X130924Y61375D01*
X131829Y62069D01*
X132523Y62974D01*
X132959Y64027D01*
X133108Y65158D01*
X132959Y66288D01*
X132523Y67342D01*
X131829Y68246D01*
X130924Y68941D01*
X129871Y69377D01*
X128740Y69526D01*
D02*
G37*
G36*
X177953Y61850D02*
X177185Y61697D01*
X176533Y61262D01*
X176099Y60611D01*
X175946Y59842D01*
X176099Y59074D01*
X176533Y58423D01*
X177185Y57988D01*
X177953Y57836D01*
X178721Y57988D01*
X179372Y58423D01*
X179807Y59074D01*
X179960Y59842D01*
X179807Y60611D01*
X179372Y61262D01*
X178721Y61697D01*
X177953Y61850D01*
D02*
G37*
G36*
X47047Y65392D02*
X45917Y65243D01*
X44863Y64806D01*
X43959Y64112D01*
X43265Y63208D01*
X42828Y62154D01*
X42679Y61024D01*
X42828Y59893D01*
X43265Y58840D01*
X43959Y57935D01*
X44863Y57241D01*
X45917Y56804D01*
X47047Y56656D01*
X48178Y56804D01*
X49231Y57241D01*
X50136Y57935D01*
X50830Y58840D01*
X51267Y59893D01*
X51415Y61024D01*
X51267Y62154D01*
X50830Y63208D01*
X50136Y64112D01*
X49231Y64806D01*
X48178Y65243D01*
X47047Y65392D01*
D02*
G37*
G36*
X35236D02*
X34106Y65243D01*
X33052Y64806D01*
X32148Y64112D01*
X31454Y63208D01*
X31017Y62154D01*
X30868Y61024D01*
X31017Y59893D01*
X31454Y58840D01*
X32148Y57935D01*
X33052Y57241D01*
X34106Y56804D01*
X35236Y56656D01*
X36367Y56804D01*
X37420Y57241D01*
X38325Y57935D01*
X39019Y58840D01*
X39456Y59893D01*
X39604Y61024D01*
X39456Y62154D01*
X39019Y63208D01*
X38325Y64112D01*
X37420Y64806D01*
X36367Y65243D01*
X35236Y65392D01*
D02*
G37*
G36*
X163779Y60078D02*
X163012Y59925D01*
X162360Y59490D01*
X161925Y58839D01*
X161773Y58071D01*
X161925Y57303D01*
X162360Y56652D01*
X163012Y56217D01*
X163779Y56064D01*
X164548Y56217D01*
X165199Y56652D01*
X165634Y57303D01*
X165787Y58071D01*
X165634Y58839D01*
X165199Y59490D01*
X164548Y59925D01*
X163779Y60078D01*
D02*
G37*
G36*
X157677D02*
X156909Y59925D01*
X156258Y59490D01*
X155823Y58839D01*
X155670Y58071D01*
X155823Y57303D01*
X156258Y56652D01*
X156909Y56217D01*
X157677Y56064D01*
X158445Y56217D01*
X159096Y56652D01*
X159531Y57303D01*
X159684Y58071D01*
X159531Y58839D01*
X159096Y59490D01*
X158445Y59925D01*
X157677Y60078D01*
D02*
G37*
G36*
X55688Y59858D02*
X54920Y59705D01*
X54269Y59270D01*
X53834Y58619D01*
X53681Y57851D01*
X53834Y57083D01*
X54269Y56432D01*
X54920Y55997D01*
X55688Y55844D01*
X56456Y55997D01*
X57108Y56432D01*
X57543Y57083D01*
X57695Y57851D01*
X57543Y58619D01*
X57108Y59270D01*
X56456Y59705D01*
X55688Y59858D01*
D02*
G37*
G36*
X129240Y59675D02*
Y55658D01*
X133256D01*
X133166Y56344D01*
X132708Y57449D01*
X131980Y58398D01*
X131031Y59127D01*
X129926Y59584D01*
X129240Y59675D01*
D02*
G37*
G36*
X128240D02*
X127554Y59584D01*
X126449Y59127D01*
X125499Y58398D01*
X124771Y57449D01*
X124313Y56344D01*
X124223Y55658D01*
X128240D01*
Y59675D01*
D02*
G37*
G36*
X173228Y58109D02*
X172460Y57957D01*
X171809Y57522D01*
X171374Y56870D01*
X171221Y56102D01*
X171374Y55334D01*
X171809Y54683D01*
X172460Y54248D01*
X173228Y54095D01*
X173996Y54248D01*
X174648Y54683D01*
X175083Y55334D01*
X175235Y56102D01*
X175083Y56870D01*
X174648Y57522D01*
X173996Y57957D01*
X173228Y58109D01*
D02*
G37*
G36*
X168307D02*
X167539Y57957D01*
X166888Y57522D01*
X166453Y56870D01*
X166300Y56102D01*
X166453Y55334D01*
X166888Y54683D01*
X167539Y54248D01*
X168307Y54095D01*
X169075Y54248D01*
X169726Y54683D01*
X170161Y55334D01*
X170314Y56102D01*
X170161Y56870D01*
X169726Y57522D01*
X169075Y57957D01*
X168307Y58109D01*
D02*
G37*
G36*
X102362Y65780D02*
X101050Y65651D01*
X99788Y65268D01*
X98626Y64647D01*
X97607Y63811D01*
X96770Y62792D01*
X96149Y61629D01*
X95766Y60367D01*
X95637Y59055D01*
X95766Y57743D01*
X96149Y56481D01*
X96770Y55319D01*
X97607Y54300D01*
X98626Y53463D01*
X99788Y52842D01*
X101050Y52459D01*
X102362Y52330D01*
X103674Y52459D01*
X104936Y52842D01*
X106099Y53463D01*
X107118Y54300D01*
X107954Y55319D01*
X108576Y56481D01*
X108958Y57743D01*
X109088Y59055D01*
X108958Y60367D01*
X108576Y61629D01*
X107954Y62792D01*
X107118Y63811D01*
X106099Y64647D01*
X104936Y65268D01*
X103674Y65651D01*
X102362Y65780D01*
D02*
G37*
G36*
X218740Y59526D02*
X217609Y59377D01*
X216556Y58941D01*
X215651Y58247D01*
X214957Y57342D01*
X214521Y56288D01*
X214372Y55158D01*
X214521Y54027D01*
X214957Y52974D01*
X215651Y52069D01*
X216556Y51375D01*
X217609Y50939D01*
X218740Y50790D01*
X219870Y50939D01*
X220924Y51375D01*
X221829Y52069D01*
X222523Y52974D01*
X222959Y54027D01*
X223108Y55158D01*
X222959Y56288D01*
X222523Y57342D01*
X221829Y58247D01*
X220924Y58941D01*
X219870Y59377D01*
X218740Y59526D01*
D02*
G37*
G36*
X133256Y54658D02*
X129240D01*
Y50641D01*
X129926Y50732D01*
X131031Y51189D01*
X131980Y51918D01*
X132708Y52867D01*
X133166Y53972D01*
X133256Y54658D01*
D02*
G37*
G36*
X128240D02*
X124223D01*
X124313Y53972D01*
X124771Y52867D01*
X125499Y51918D01*
X126449Y51189D01*
X127554Y50732D01*
X128240Y50641D01*
Y54658D01*
D02*
G37*
G36*
X39567Y53543D02*
X30906D01*
Y44882D01*
X39567D01*
Y53543D01*
D02*
G37*
G36*
X47047Y53581D02*
X45917Y53432D01*
X44863Y52996D01*
X43959Y52301D01*
X43265Y51397D01*
X42828Y50343D01*
X42679Y49213D01*
X42828Y48082D01*
X43265Y47029D01*
X43959Y46124D01*
X44863Y45430D01*
X45917Y44993D01*
X47047Y44844D01*
X48178Y44993D01*
X49231Y45430D01*
X50136Y46124D01*
X50830Y47029D01*
X51267Y48082D01*
X51415Y49213D01*
X51267Y50343D01*
X50830Y51397D01*
X50136Y52301D01*
X49231Y52996D01*
X48178Y53432D01*
X47047Y53581D01*
D02*
G37*
G36*
X62992Y48070D02*
X62224Y47917D01*
X61573Y47482D01*
X61138Y46831D01*
X60985Y46063D01*
X61138Y45295D01*
X61573Y44644D01*
X62224Y44209D01*
X62992Y44056D01*
X63760Y44209D01*
X64411Y44644D01*
X64846Y45295D01*
X64999Y46063D01*
X64846Y46831D01*
X64411Y47482D01*
X63760Y47917D01*
X62992Y48070D01*
D02*
G37*
G36*
X77165Y44921D02*
X76397Y44768D01*
X75746Y44333D01*
X75311Y43681D01*
X75158Y42913D01*
X75311Y42145D01*
X75746Y41494D01*
X76397Y41059D01*
X77165Y40906D01*
X77933Y41059D01*
X78585Y41494D01*
X79020Y42145D01*
X79172Y42913D01*
X79020Y43681D01*
X78585Y44333D01*
X77933Y44768D01*
X77165Y44921D01*
D02*
G37*
G36*
X218741Y49525D02*
X217610Y49376D01*
X216556Y48940D01*
X215652Y48246D01*
X214958Y47341D01*
X214521Y46288D01*
X214372Y45157D01*
X214521Y44027D01*
X214958Y42973D01*
X215652Y42069D01*
X216556Y41374D01*
X217610Y40938D01*
X218741Y40789D01*
X219871Y40938D01*
X220924Y41374D01*
X221829Y42069D01*
X222523Y42973D01*
X222960Y44027D01*
X223109Y45157D01*
X222960Y46288D01*
X222523Y47341D01*
X221829Y48246D01*
X220924Y48940D01*
X219871Y49376D01*
X218741Y49525D01*
D02*
G37*
G36*
X45843Y40613D02*
X45075Y40461D01*
X44423Y40025D01*
X43988Y39374D01*
X43836Y38606D01*
X43988Y37838D01*
X44423Y37187D01*
X45075Y36752D01*
X45843Y36599D01*
X46611Y36752D01*
X47262Y37187D01*
X47697Y37838D01*
X47850Y38606D01*
X47697Y39374D01*
X47262Y40025D01*
X46611Y40461D01*
X45843Y40613D01*
D02*
G37*
G36*
X200787Y46095D02*
X199475Y45966D01*
X198214Y45583D01*
X197051Y44962D01*
X196032Y44126D01*
X195195Y43106D01*
X194574Y41944D01*
X194191Y40682D01*
X194062Y39370D01*
X194191Y38058D01*
X194574Y36796D01*
X195195Y35634D01*
X196032Y34615D01*
X197051Y33778D01*
X198214Y33157D01*
X199475Y32774D01*
X200787Y32645D01*
X202099Y32774D01*
X203361Y33157D01*
X204524Y33778D01*
X205543Y34615D01*
X206379Y35634D01*
X207001Y36796D01*
X207383Y38058D01*
X207513Y39370D01*
X207383Y40682D01*
X207001Y41944D01*
X206379Y43106D01*
X205543Y44126D01*
X204524Y44962D01*
X203361Y45583D01*
X202099Y45966D01*
X200787Y46095D01*
D02*
G37*
G36*
X218741Y39525D02*
X217610Y39377D01*
X216556Y38940D01*
X215652Y38246D01*
X214958Y37341D01*
X214521Y36288D01*
X214372Y35157D01*
X214521Y34027D01*
X214958Y32973D01*
X215652Y32069D01*
X216556Y31374D01*
X217610Y30938D01*
X218741Y30789D01*
X219871Y30938D01*
X220924Y31374D01*
X221829Y32069D01*
X222523Y32973D01*
X222960Y34027D01*
X223109Y35157D01*
X222960Y36288D01*
X222523Y37341D01*
X221829Y38246D01*
X220924Y38940D01*
X219871Y39377D01*
X218741Y39525D01*
D02*
G37*
G36*
X180748Y35827D02*
X172087D01*
Y27165D01*
X180748D01*
Y35827D01*
D02*
G37*
G36*
X166417Y35864D02*
X165287Y35715D01*
X164233Y35279D01*
X163329Y34585D01*
X162635Y33680D01*
X162198Y32627D01*
X162049Y31496D01*
X162198Y30365D01*
X162635Y29312D01*
X163329Y28407D01*
X164233Y27713D01*
X165287Y27277D01*
X166417Y27128D01*
X167548Y27277D01*
X168601Y27713D01*
X169506Y28407D01*
X170200Y29312D01*
X170637Y30365D01*
X170785Y31496D01*
X170637Y32627D01*
X170200Y33680D01*
X169506Y34585D01*
X168601Y35279D01*
X167548Y35715D01*
X166417Y35864D01*
D02*
G37*
G36*
X218741Y29525D02*
X217610Y29377D01*
X216556Y28940D01*
X215652Y28246D01*
X214958Y27341D01*
X214521Y26288D01*
X214372Y25157D01*
X214521Y24027D01*
X214958Y22973D01*
X215652Y22069D01*
X216556Y21374D01*
X217610Y20938D01*
X218741Y20789D01*
X219871Y20938D01*
X220924Y21374D01*
X221829Y22069D01*
X222523Y22973D01*
X222960Y24027D01*
X223109Y25157D01*
X222960Y26288D01*
X222523Y27341D01*
X221829Y28246D01*
X220924Y28940D01*
X219871Y29377D01*
X218741Y29525D01*
D02*
G37*
G36*
X223071Y19488D02*
X214410D01*
Y10827D01*
X223071D01*
Y19488D01*
D02*
G37*
G36*
X153543Y5944D02*
X152775Y5791D01*
X152124Y5356D01*
X151689Y4705D01*
X151536Y3937D01*
X151689Y3169D01*
X152124Y2518D01*
X152775Y2083D01*
X153543Y1930D01*
X154311Y2083D01*
X154963Y2518D01*
X155398Y3169D01*
X155550Y3937D01*
X155398Y4705D01*
X154963Y5356D01*
X154311Y5791D01*
X153543Y5944D01*
D02*
G37*
G36*
X47047Y199250D02*
X45917Y199101D01*
X44863Y198665D01*
X43959Y197971D01*
X43264Y197066D01*
X42828Y196012D01*
X42679Y194882D01*
X42828Y193751D01*
X43264Y192698D01*
X43959Y191793D01*
X44863Y191099D01*
X45917Y190663D01*
X47047Y190514D01*
X48178Y190663D01*
X49231Y191099D01*
X50136Y191793D01*
X50830Y192698D01*
X51266Y193751D01*
X51415Y194882D01*
X51266Y196012D01*
X50830Y197066D01*
X50136Y197971D01*
X49231Y198665D01*
X48178Y199101D01*
X47047Y199250D01*
D02*
G37*
G36*
X35236D02*
X34106Y199101D01*
X33052Y198665D01*
X32147Y197971D01*
X31453Y197066D01*
X31017Y196012D01*
X30868Y194882D01*
X31017Y193751D01*
X31453Y192698D01*
X32147Y191793D01*
X33052Y191099D01*
X34106Y190663D01*
X35236Y190514D01*
X36367Y190663D01*
X37420Y191099D01*
X38325Y191793D01*
X39019Y192698D01*
X39456Y193751D01*
X39604Y194882D01*
X39456Y196012D01*
X39019Y197066D01*
X38325Y197971D01*
X37420Y198665D01*
X36367Y199101D01*
X35236Y199250D01*
D02*
G37*
G36*
X47047Y187439D02*
X45917Y187290D01*
X44863Y186854D01*
X43959Y186160D01*
X43264Y185255D01*
X42828Y184201D01*
X42679Y183071D01*
X42828Y181940D01*
X43264Y180887D01*
X43959Y179982D01*
X44863Y179288D01*
X45917Y178852D01*
X47047Y178703D01*
X48178Y178852D01*
X49231Y179288D01*
X50136Y179982D01*
X50830Y180887D01*
X51266Y181940D01*
X51415Y183071D01*
X51266Y184201D01*
X50830Y185255D01*
X50136Y186160D01*
X49231Y186854D01*
X48178Y187290D01*
X47047Y187439D01*
D02*
G37*
G36*
X35236D02*
X34106Y187290D01*
X33052Y186854D01*
X32147Y186160D01*
X31453Y185255D01*
X31017Y184201D01*
X30868Y183071D01*
X31017Y181940D01*
X31453Y180887D01*
X32147Y179982D01*
X33052Y179288D01*
X34106Y178852D01*
X35236Y178703D01*
X36367Y178852D01*
X37420Y179288D01*
X38325Y179982D01*
X39019Y180887D01*
X39456Y181940D01*
X39604Y183071D01*
X39456Y184201D01*
X39019Y185255D01*
X38325Y186160D01*
X37420Y186854D01*
X36367Y187290D01*
X35236Y187439D01*
D02*
G37*
G36*
X12795Y172676D02*
X12027Y172524D01*
X11376Y172089D01*
X10941Y171437D01*
X10788Y170669D01*
X10941Y169901D01*
X11376Y169250D01*
X12027Y168815D01*
X12795Y168662D01*
X13563Y168815D01*
X14214Y169250D01*
X14650Y169901D01*
X14802Y170669D01*
X14650Y171437D01*
X14214Y172089D01*
X13563Y172524D01*
X12795Y172676D01*
D02*
G37*
G36*
X7480Y167361D02*
X6712Y167209D01*
X6061Y166773D01*
X5626Y166122D01*
X5473Y165354D01*
X5626Y164586D01*
X6061Y163935D01*
X6712Y163500D01*
X7480Y163347D01*
X8248Y163500D01*
X8900Y163935D01*
X9335Y164586D01*
X9487Y165354D01*
X9335Y166122D01*
X8900Y166773D01*
X8248Y167209D01*
X7480Y167361D01*
D02*
G37*
G36*
X18898Y148857D02*
X18130Y148705D01*
X17478Y148270D01*
X17043Y147618D01*
X16891Y146850D01*
X17043Y146082D01*
X17478Y145431D01*
X18130Y144996D01*
X18898Y144843D01*
X19666Y144996D01*
X20317Y145431D01*
X20752Y146082D01*
X20905Y146850D01*
X20752Y147618D01*
X20317Y148270D01*
X19666Y148705D01*
X18898Y148857D01*
D02*
G37*
G36*
X3937Y142558D02*
X3169Y142405D01*
X2518Y141970D01*
X2083Y141319D01*
X1930Y140551D01*
X2083Y139783D01*
X2518Y139132D01*
X3169Y138697D01*
X3937Y138544D01*
X4705Y138697D01*
X5356Y139132D01*
X5791Y139783D01*
X5944Y140551D01*
X5791Y141319D01*
X5356Y141970D01*
X4705Y142405D01*
X3937Y142558D01*
D02*
G37*
G36*
X128741Y39525D02*
X127610Y39377D01*
X126556Y38940D01*
X125652Y38246D01*
X124958Y37341D01*
X124521Y36288D01*
X124372Y35157D01*
X124521Y34027D01*
X124958Y32973D01*
X125652Y32069D01*
X126556Y31374D01*
X127610Y30938D01*
X128741Y30789D01*
X129871Y30938D01*
X130924Y31374D01*
X131829Y32069D01*
X132523Y32973D01*
X132960Y34027D01*
X133108Y35157D01*
X132960Y36288D01*
X132523Y37341D01*
X131829Y38246D01*
X130924Y38940D01*
X129871Y39377D01*
X128741Y39525D01*
D02*
G37*
G36*
Y29525D02*
X127610Y29377D01*
X126556Y28940D01*
X125652Y28246D01*
X124958Y27341D01*
X124521Y26288D01*
X124372Y25157D01*
X124521Y24027D01*
X124958Y22973D01*
X125652Y22069D01*
X126556Y21374D01*
X127610Y20938D01*
X128741Y20789D01*
X129871Y20938D01*
X130924Y21374D01*
X131829Y22069D01*
X132523Y22973D01*
X132960Y24027D01*
X133108Y25157D01*
X132960Y26288D01*
X132523Y27341D01*
X131829Y28246D01*
X130924Y28940D01*
X129871Y29377D01*
X128741Y29525D01*
D02*
G37*
G36*
X133071Y19488D02*
X124410D01*
Y10827D01*
X133071D01*
Y19488D01*
D02*
G37*
G36*
X74554Y12390D02*
Y8374D01*
X78571D01*
X78480Y9060D01*
X78022Y10165D01*
X77294Y11114D01*
X76345Y11842D01*
X75240Y12300D01*
X74554Y12390D01*
D02*
G37*
G36*
X73554D02*
X72868Y12300D01*
X71763Y11842D01*
X70814Y11114D01*
X70085Y10165D01*
X69628Y9060D01*
X69537Y8374D01*
X73554D01*
Y12390D01*
D02*
G37*
G36*
X98385Y12204D02*
X89723D01*
Y3543D01*
X98385D01*
Y12204D01*
D02*
G37*
G36*
X54053Y12242D02*
X52923Y12094D01*
X51869Y11657D01*
X50965Y10963D01*
X50270Y10058D01*
X49834Y9005D01*
X49685Y7874D01*
X49834Y6744D01*
X50270Y5690D01*
X50965Y4786D01*
X51869Y4092D01*
X52923Y3655D01*
X54053Y3506D01*
X55184Y3655D01*
X56237Y4092D01*
X57142Y4786D01*
X57836Y5690D01*
X58273Y6744D01*
X58421Y7874D01*
X58273Y9005D01*
X57836Y10058D01*
X57142Y10963D01*
X56237Y11657D01*
X55184Y12094D01*
X54053Y12242D01*
D02*
G37*
G36*
X44054Y12242D02*
X42923Y12093D01*
X41870Y11657D01*
X40965Y10963D01*
X40271Y10058D01*
X39834Y9005D01*
X39686Y7874D01*
X39834Y6743D01*
X40271Y5690D01*
X40965Y4785D01*
X41870Y4091D01*
X42923Y3655D01*
X44054Y3506D01*
X45184Y3655D01*
X46238Y4091D01*
X47142Y4785D01*
X47837Y5690D01*
X48273Y6743D01*
X48422Y7874D01*
X48273Y9005D01*
X47837Y10058D01*
X47142Y10963D01*
X46238Y11657D01*
X45184Y12093D01*
X44054Y12242D01*
D02*
G37*
G36*
X34054D02*
X32923Y12093D01*
X31870Y11657D01*
X30965Y10963D01*
X30271Y10058D01*
X29835Y9005D01*
X29686Y7874D01*
X29835Y6743D01*
X30271Y5690D01*
X30965Y4785D01*
X31870Y4091D01*
X32923Y3655D01*
X34054Y3506D01*
X35184Y3655D01*
X36238Y4091D01*
X37143Y4785D01*
X37837Y5690D01*
X38273Y6743D01*
X38422Y7874D01*
X38273Y9005D01*
X37837Y10058D01*
X37143Y10963D01*
X36238Y11657D01*
X35184Y12093D01*
X34054Y12242D01*
D02*
G37*
G36*
X24054D02*
X22923Y12093D01*
X21870Y11657D01*
X20965Y10963D01*
X20271Y10058D01*
X19835Y9005D01*
X19686Y7874D01*
X19835Y6743D01*
X20271Y5690D01*
X20965Y4785D01*
X21870Y4091D01*
X22923Y3655D01*
X24054Y3506D01*
X25184Y3655D01*
X26238Y4091D01*
X27143Y4785D01*
X27837Y5690D01*
X28273Y6743D01*
X28422Y7874D01*
X28273Y9005D01*
X27837Y10058D01*
X27143Y10963D01*
X26238Y11657D01*
X25184Y12093D01*
X24054Y12242D01*
D02*
G37*
G36*
X84054Y12242D02*
X82923Y12093D01*
X81870Y11657D01*
X80965Y10962D01*
X80271Y10058D01*
X79835Y9004D01*
X79686Y7874D01*
X79835Y6743D01*
X80271Y5690D01*
X80965Y4785D01*
X81870Y4091D01*
X82923Y3655D01*
X84054Y3506D01*
X85185Y3655D01*
X86238Y4091D01*
X87143Y4785D01*
X87837Y5690D01*
X88273Y6743D01*
X88422Y7874D01*
X88273Y9004D01*
X87837Y10058D01*
X87143Y10962D01*
X86238Y11657D01*
X85185Y12093D01*
X84054Y12242D01*
D02*
G37*
G36*
X64054D02*
X62923Y12093D01*
X61870Y11657D01*
X60965Y10962D01*
X60271Y10058D01*
X59835Y9004D01*
X59686Y7874D01*
X59835Y6743D01*
X60271Y5690D01*
X60965Y4785D01*
X61870Y4091D01*
X62923Y3655D01*
X64054Y3506D01*
X65184Y3655D01*
X66238Y4091D01*
X67143Y4785D01*
X67837Y5690D01*
X68273Y6743D01*
X68422Y7874D01*
X68273Y9004D01*
X67837Y10058D01*
X67143Y10962D01*
X66238Y11657D01*
X65184Y12093D01*
X64054Y12242D01*
D02*
G37*
G36*
X78571Y7374D02*
X74554D01*
Y3357D01*
X75240Y3447D01*
X76345Y3905D01*
X77294Y4633D01*
X78022Y5582D01*
X78480Y6688D01*
X78571Y7374D01*
D02*
G37*
G36*
X73554D02*
X69537D01*
X69628Y6688D01*
X70085Y5582D01*
X70814Y4633D01*
X71763Y3905D01*
X72868Y3447D01*
X73554Y3357D01*
Y7374D01*
D02*
G37*
G36*
X129921Y5944D02*
X129153Y5791D01*
X128502Y5356D01*
X128067Y4705D01*
X127914Y3937D01*
X128067Y3169D01*
X128502Y2518D01*
X129153Y2083D01*
X129921Y1930D01*
X130689Y2083D01*
X131341Y2518D01*
X131776Y3169D01*
X131928Y3937D01*
X131776Y4705D01*
X131341Y5356D01*
X130689Y5791D01*
X129921Y5944D01*
D02*
G37*
G36*
X118110D02*
X117342Y5791D01*
X116691Y5356D01*
X116256Y4705D01*
X116103Y3937D01*
X116256Y3169D01*
X116691Y2518D01*
X117342Y2083D01*
X118110Y1930D01*
X118878Y2083D01*
X119529Y2518D01*
X119965Y3169D01*
X120117Y3937D01*
X119965Y4705D01*
X119529Y5356D01*
X118878Y5791D01*
X118110Y5944D01*
D02*
G37*
G36*
X106299D02*
X105531Y5791D01*
X104880Y5356D01*
X104445Y4705D01*
X104292Y3937D01*
X104445Y3169D01*
X104880Y2518D01*
X105531Y2083D01*
X106299Y1930D01*
X107067Y2083D01*
X107718Y2518D01*
X108153Y3169D01*
X108306Y3937D01*
X108153Y4705D01*
X107718Y5356D01*
X107067Y5791D01*
X106299Y5944D01*
D02*
G37*
%LPD*%
D53*
X128740Y55158D02*
D03*
X203977Y236220D02*
D03*
X74054Y7874D02*
D03*
D55*
X35236Y147638D02*
D03*
D59*
X159055Y98425D02*
D03*
X55905Y187008D02*
D03*
X60236Y90945D02*
D03*
X157480Y178740D02*
D03*
X129921Y191732D02*
D03*
X123622D02*
D03*
X119685Y183858D02*
D03*
X142126Y187402D02*
D03*
X138583D02*
D03*
X96063Y169291D02*
D03*
X89764Y175984D02*
D03*
X111417Y158661D02*
D03*
X116142Y150394D02*
D03*
X141339Y157480D02*
D03*
X144488Y161417D02*
D03*
X171653Y133465D02*
D03*
X164961D02*
D03*
X164567Y116929D02*
D03*
X168110Y112992D02*
D03*
X163779Y65748D02*
D03*
X154331Y68898D02*
D03*
X169291Y81496D02*
D03*
X178740Y77953D02*
D03*
X100394Y113386D02*
D03*
X111024Y110630D02*
D03*
X148819Y109843D02*
D03*
X118898Y83858D02*
D03*
X122047Y72835D02*
D03*
X129134D02*
D03*
X55512Y98032D02*
D03*
X54724Y86221D02*
D03*
X148819Y39370D02*
D03*
X145669Y42913D02*
D03*
X142126Y39370D02*
D03*
X19685Y120866D02*
D03*
X16142Y130709D02*
D03*
Y124409D02*
D03*
X19685Y127953D02*
D03*
X68110Y189764D02*
D03*
X61417Y176772D02*
D03*
X64173Y170472D02*
D03*
X34252Y37008D02*
D03*
X151575Y177953D02*
D03*
M02*
