G04*
G04 #@! TF.GenerationSoftware,Altium Limited,Altium Designer,20.2.6 (244)*
G04*
G04 Layer_Color=8388736*
%FSLAX25Y25*%
%MOIN*%
G70*
G04*
G04 #@! TF.SameCoordinates,23E3F134-E155-4AF0-B130-1C61D597126F*
G04*
G04*
G04 #@! TF.FilePolarity,Negative*
G04*
G01*
G75*
%ADD17R,0.05118X0.01575*%
%ADD18R,0.01575X0.05118*%
%ADD19R,0.08268X0.12205*%
%ADD20R,0.02362X0.06890*%
%ADD21R,0.01575X0.02441*%
%ADD22R,0.03937X0.03937*%
%ADD23R,0.02480X0.05551*%
%ADD24O,0.06102X0.02756*%
%ADD25R,0.03543X0.03543*%
%ADD26R,0.02480X0.01496*%
%ADD27R,0.01496X0.02480*%
%ADD28R,0.03543X0.02362*%
%ADD29R,0.08661X0.22441*%
%ADD30R,0.03937X0.03937*%
%ADD31R,0.03543X0.03543*%
%ADD32C,0.11811*%
%ADD33C,0.07480*%
%ADD34R,0.07480X0.07480*%
%ADD35R,0.07480X0.07480*%
%ADD36C,0.12205*%
%ADD37C,0.06417*%
%ADD38R,0.06417X0.06417*%
D17*
X156496Y113189D02*
D03*
Y115157D02*
D03*
Y117126D02*
D03*
Y119095D02*
D03*
Y121063D02*
D03*
Y123031D02*
D03*
Y125000D02*
D03*
Y126969D02*
D03*
Y128937D02*
D03*
Y130905D02*
D03*
Y132874D02*
D03*
Y134843D02*
D03*
Y136811D02*
D03*
Y138779D02*
D03*
Y140748D02*
D03*
Y142717D02*
D03*
X111221D02*
D03*
Y140748D02*
D03*
Y138779D02*
D03*
Y136811D02*
D03*
Y134843D02*
D03*
Y132874D02*
D03*
Y130905D02*
D03*
Y128937D02*
D03*
Y126969D02*
D03*
Y125000D02*
D03*
Y123031D02*
D03*
Y121063D02*
D03*
Y119095D02*
D03*
Y117126D02*
D03*
Y115157D02*
D03*
Y113189D02*
D03*
D18*
X148622Y150591D02*
D03*
X146654D02*
D03*
X144685D02*
D03*
X142717D02*
D03*
X140748D02*
D03*
X138780D02*
D03*
X136811D02*
D03*
X134843D02*
D03*
X132874D02*
D03*
X130906D02*
D03*
X128937D02*
D03*
X126969D02*
D03*
X125000D02*
D03*
X123032D02*
D03*
X121063D02*
D03*
X119095D02*
D03*
Y105315D02*
D03*
X121063D02*
D03*
X123032D02*
D03*
X125000D02*
D03*
X126969D02*
D03*
X128937D02*
D03*
X130906D02*
D03*
X132874D02*
D03*
X134843D02*
D03*
X136811D02*
D03*
X138780D02*
D03*
X140748D02*
D03*
X142717D02*
D03*
X144685D02*
D03*
X146654D02*
D03*
X148622D02*
D03*
D19*
X190551Y10236D02*
D03*
X165354D02*
D03*
D20*
X75591Y86228D02*
D03*
X73032D02*
D03*
X70473D02*
D03*
X67914D02*
D03*
X65355D02*
D03*
X62796D02*
D03*
X60236D02*
D03*
X57677D02*
D03*
X75591Y57685D02*
D03*
X73032D02*
D03*
X70473D02*
D03*
X67914D02*
D03*
X65355D02*
D03*
X62796D02*
D03*
X60236D02*
D03*
X57677D02*
D03*
D21*
X174705Y68866D02*
D03*
X172736D02*
D03*
X170768D02*
D03*
X168799D02*
D03*
X174705Y60008D02*
D03*
X172736D02*
D03*
X170768D02*
D03*
X168799D02*
D03*
D22*
X145472Y39370D02*
D03*
X152953D02*
D03*
X114764Y158472D02*
D03*
X107284D02*
D03*
X114764Y164961D02*
D03*
X107283D02*
D03*
X179331Y92520D02*
D03*
X171850D02*
D03*
X171851Y99434D02*
D03*
X164370D02*
D03*
X201709Y160000D02*
D03*
X209189D02*
D03*
X201709Y170500D02*
D03*
X209189D02*
D03*
X201709Y181000D02*
D03*
X209189D02*
D03*
X144685Y157685D02*
D03*
X152166D02*
D03*
X155512Y98425D02*
D03*
X148031D02*
D03*
X55315Y94693D02*
D03*
X62796D02*
D03*
X61500Y173000D02*
D03*
X54020D02*
D03*
X122047Y75984D02*
D03*
X114567D02*
D03*
X129134Y75984D02*
D03*
X136614D02*
D03*
X19685Y124409D02*
D03*
X27165D02*
D03*
X188189Y23228D02*
D03*
X180709D02*
D03*
X54020Y183000D02*
D03*
X61500D02*
D03*
X54020Y163000D02*
D03*
X61500D02*
D03*
X96000Y173000D02*
D03*
X103480D02*
D03*
X61500Y153000D02*
D03*
X54020D02*
D03*
X61500Y143000D02*
D03*
X54020D02*
D03*
X96000Y138000D02*
D03*
X103480D02*
D03*
X96000Y148000D02*
D03*
X103480D02*
D03*
D23*
X126772Y93307D02*
D03*
X131693D02*
D03*
X136614D02*
D03*
Y83858D02*
D03*
X131693D02*
D03*
X126772D02*
D03*
X121850Y93307D02*
D03*
Y83858D02*
D03*
D24*
X89567Y137992D02*
D03*
Y142992D02*
D03*
Y147992D02*
D03*
Y152992D02*
D03*
Y157992D02*
D03*
Y162992D02*
D03*
Y167992D02*
D03*
Y172992D02*
D03*
X68110Y137992D02*
D03*
Y142992D02*
D03*
Y147992D02*
D03*
Y152992D02*
D03*
Y157992D02*
D03*
Y162992D02*
D03*
Y167992D02*
D03*
Y172992D02*
D03*
D25*
X79724Y95481D02*
D03*
Y101387D02*
D03*
D26*
X135748Y182264D02*
D03*
X145354D02*
D03*
Y183957D02*
D03*
Y185650D02*
D03*
Y187343D02*
D03*
Y189035D02*
D03*
Y190728D02*
D03*
Y192421D02*
D03*
Y194114D02*
D03*
X135748D02*
D03*
Y192421D02*
D03*
Y190728D02*
D03*
Y189035D02*
D03*
Y187343D02*
D03*
Y185650D02*
D03*
Y183957D02*
D03*
D27*
X138012Y182402D02*
D03*
X139705D02*
D03*
X141398D02*
D03*
X143091D02*
D03*
Y193976D02*
D03*
X141398D02*
D03*
X139705D02*
D03*
X138012D02*
D03*
D28*
X19685Y130709D02*
D03*
X28346D02*
D03*
D29*
X199131Y106701D02*
D03*
Y144102D02*
D03*
D30*
X129921Y183465D02*
D03*
Y175984D02*
D03*
X164764Y136819D02*
D03*
Y129339D02*
D03*
X172244Y136819D02*
D03*
Y129339D02*
D03*
X185236Y114181D02*
D03*
Y106701D02*
D03*
X184843Y151583D02*
D03*
Y144102D02*
D03*
X111221Y98236D02*
D03*
Y90756D02*
D03*
X73032Y101386D02*
D03*
Y93906D02*
D03*
X104134Y113197D02*
D03*
Y105717D02*
D03*
X164370Y113197D02*
D03*
Y105717D02*
D03*
X56299Y50197D02*
D03*
Y42717D02*
D03*
X83465Y52362D02*
D03*
Y59842D02*
D03*
X62795Y50222D02*
D03*
Y42741D02*
D03*
X73032Y50222D02*
D03*
Y42741D02*
D03*
X123622Y183858D02*
D03*
Y176378D02*
D03*
X117323Y188583D02*
D03*
Y196063D02*
D03*
X163752Y68937D02*
D03*
Y61457D02*
D03*
X157752Y68937D02*
D03*
Y61457D02*
D03*
X172752Y73937D02*
D03*
Y81417D02*
D03*
X178752Y73937D02*
D03*
Y81417D02*
D03*
X165354Y81496D02*
D03*
Y74016D02*
D03*
X123622Y188583D02*
D03*
Y196063D02*
D03*
X129921Y188189D02*
D03*
Y195669D02*
D03*
D31*
X221000Y160000D02*
D03*
X215094D02*
D03*
X221000Y170500D02*
D03*
X215094D02*
D03*
X221000Y181000D02*
D03*
X215094D02*
D03*
D32*
X13780Y23228D02*
D03*
X215748Y130709D02*
D03*
X125984Y220472D02*
D03*
D33*
X24054Y248031D02*
D03*
X34054D02*
D03*
X84054Y248031D02*
D03*
X74054D02*
D03*
X64054D02*
D03*
X54053Y248032D02*
D03*
X44054Y248031D02*
D03*
X128741Y25157D02*
D03*
Y35157D02*
D03*
Y45157D02*
D03*
X128740Y55158D02*
D03*
X128740Y65158D02*
D03*
X146417Y31496D02*
D03*
X156417D02*
D03*
X166417D02*
D03*
X47047Y49213D02*
D03*
X35236Y61024D02*
D03*
X47047D02*
D03*
X35236Y72835D02*
D03*
X47047D02*
D03*
X35236Y84646D02*
D03*
X47047D02*
D03*
X35236Y96457D02*
D03*
X47047D02*
D03*
X35236Y108268D02*
D03*
X47047D02*
D03*
X47047Y147638D02*
D03*
X35236Y159449D02*
D03*
X47047D02*
D03*
X35236Y171260D02*
D03*
X47047D02*
D03*
X35236Y183071D02*
D03*
X47047D02*
D03*
X35236Y194882D02*
D03*
X47047D02*
D03*
X35236Y206693D02*
D03*
X47047D02*
D03*
X213977Y236221D02*
D03*
X203977Y236220D02*
D03*
X193976Y236221D02*
D03*
X183976D02*
D03*
X173976D02*
D03*
X24054Y7874D02*
D03*
X34054D02*
D03*
X84054Y7874D02*
D03*
X74054D02*
D03*
X64054D02*
D03*
X54053Y7874D02*
D03*
X44054Y7874D02*
D03*
X218741Y25157D02*
D03*
Y35157D02*
D03*
Y45157D02*
D03*
X218740Y55158D02*
D03*
X218740Y65158D02*
D03*
D34*
X94054Y248031D02*
D03*
X176417Y31496D02*
D03*
X163976Y236221D02*
D03*
X94054Y7874D02*
D03*
D35*
X128741Y15157D02*
D03*
X35236Y49213D02*
D03*
X35236Y147638D02*
D03*
X218741Y15157D02*
D03*
D36*
X157480Y216535D02*
D03*
X18307Y99803D02*
D03*
Y57677D02*
D03*
X206142Y208661D02*
D03*
X18307Y198228D02*
D03*
Y156102D02*
D03*
X102362Y204724D02*
D03*
Y59055D02*
D03*
X200787Y39370D02*
D03*
D37*
X177323Y202756D02*
D03*
Y214567D02*
D03*
X189134Y202756D02*
D03*
D38*
Y214567D02*
D03*
M02*
