M48
;Layer_Color=9474304
;FILE_FORMAT=2:5
INCH,LZ
;TYPE=PLATED
T1F00S00C0.01181
T2F00S00C0.02756
T3F00S00C0.04331
;TYPE=NON_PLATED
T4F00S00C0.11800
T5F00S00C0.17323
%
T01
X0007874Y0003937
X0007874Y0007874
X0019685
X0023622Y0003937
X0031496Y0007874
X0043307
X003937Y0003937
X0055118
X0025591Y0019685
X001378
X0070866Y0003937
X0086614
X0102362
X0102362Y0007874
X0114173Y0009843
X0108268Y0019685
X0102362Y0031496
X0108268Y0043307
X0096457
X0102362Y0055118
X0090551
X0096457Y0066929
X0108268
X0107874Y007874
X0102362Y007874
X0090551
X0096457Y0090551
X0108268
X0102362Y0102362
X0090551
X007874
X0066929
X0072835Y0114173
X0084646
X0096457
X0108268
X0107874Y0130709
X0108268Y0137795
X0114173Y0133858
Y0149606
X0102362Y0149606
X0090551
X007874
X0066929
X0072835Y0137795
X0084646
X007874Y0125984
X0066929
X0061024Y0137795
Y0161417
X0069095Y0172835
X0073425
Y0177165
X0069095
Y0181496
X0073425
X0066929Y019685
X0061024Y0208661
X0096457
X0108268
X0114173Y0204724
Y019685
X0102362Y019685
X0108268Y0185039
X0114173Y0181102
X0102362Y0177953
X0096063Y016811
Y0162598
X0090158
Y016811
X0079528Y0162598
X0108268Y0161417
X0114173Y0165354
X0084646Y0090551
X0072835
X0061024
Y0114173
X0069685Y0063583
X0076378
X0028346Y0069291
X002126Y0068898
X0014173
X0007087
X0007874Y007874
X0019685
X0031496
X0037402Y0090551
X0025591
X001378
X0019685Y0102362
X0031496
X0037402Y0114173
X0025591
X001378
X0019685Y0125984
X0031496
X0037402Y0137795
X0025591
X001378
X0019685Y0149606
X0031496
X0037402Y0161417
X0025591
X001378
X0019685Y0173228
X0031496
X0037402Y0185039
X0025591
X001378
X0019685Y019685
X0031496
X0037402Y0208661
X0003937Y0204724
X0007874Y019685
Y0173228
Y0149606
Y0125984
Y0102362
X0055118
Y0125984
Y0149606
X005Y0177559
X0053543Y0185433
X0055118Y0220472
Y0244094
X0043307
X0031496
X0019685
X0019685Y0251969
X0035433
X0051181
X0003937
X0007874Y0244094
X0003937Y0236221
X001378Y0232283
X0003937Y0220472
X007874Y0220472
X0090551
X0102362
X0114173Y0220472
Y0236221
X0108268Y0232283
X0096457
X0084646
X007874Y0244094
X0066929
X0066929Y0251969
X0082677
X0098425
X0114173
T02
X0114173Y0003937
Y0015748
Y0074803
Y0126772
T03
X0008622Y0031496
X0018622
X0028622
X0038622
X0036181Y0236221
X0026181
X0046181
X0056181
X0066181
X0076181
T04
X0059055Y0011811
X0094488Y0244094
T05
X0062992Y003937
X0019685Y0216535
M30
