M48
;Layer_Color=9474304
;FILE_FORMAT=4:4
METRIC,LZ
;TYPE=PLATED
T1F00S00C0.3000
T2F00S00C1.0000
T3F00S00C1.0200
T4F00S00C1.0400
T5F00S00C1.0400
T6F00S00C3.0500
;TYPE=NON_PLATED
T7F00S00C1.0200
T8F00S00C2.9972
T9F00S00C3.0000
%
T01
X00116Y00097
X0013975
X0019Y00113
X00209252Y00128849
X00244Y00129
X00248Y00206
X00245Y00227
X00283Y0022
X00291Y00205
X00302Y00213
X00319Y002
X00338
X00328Y00185
X0031
X00368Y00233
X00413Y0022975
X00430367Y00199633
X00218Y002
X0027Y0001
X003
X0033
X0036
X00352Y00026249
Y00037
Y00048
Y0006
X0039Y0001
X0044Y00208
X00495Y00193
X0056Y0019
Y0023
Y0027
Y0031
Y0035
Y0039
X00561Y00425
Y0045
X0056Y0048
Y0052
Y0056
Y006
X004953Y0045974
Y0043307
Y004064
X00469Y00395
X004572Y0034925
X00448Y00328
X00470001Y0029904
X00455Y0026
X0043688Y002667
X004504Y0048
X004Y00454
X00385Y00452
X0037846Y0045974
X0036957Y0044958
X0035941
X0035052Y0044831
X00352Y00476
X00361
X00352Y00485
X00355Y00501
X00363
X00344
X0033Y00507
X00314
X00299Y00508
X00314Y00487
X0033
X00304Y00467
X00314Y00456
X00332Y00437
X00351Y00415
X003556Y0040767
X00359Y004
X00367Y0041
X00386
X00395Y004
X0038354Y0035306
X0038227Y0033274
Y003175
X0041275Y0031877
X00427976Y00328123
X00436Y00339
X00419
X00418Y00297
X00427Y00287
X00428Y00268
X00405Y0027
X00393Y0028
X00346999Y00278999
X00338221Y002785
X00325199Y0028575
X00330647Y00291609
X0031877Y0028067
X003175Y0025019
X00293Y00256
X00282Y00281
X00256419Y00286581
X00251581Y00299419
X00257589Y0032375
X00253Y0034875
X00275306Y00368855
X00274Y00377
X00297248Y00384248
X00312808Y00368688
X00319999Y00363999
X00326999Y00357999
X00332Y00351
X00307999Y00345
X00295016Y003413
X00295999Y00349999
X00283Y00403
X00265Y00419
X00263Y0043
X00273Y00428
X00252999Y00438999
X00236Y0045
X00235081Y00409081
X00247081Y00397081
X002032Y00381
X00191419Y00368419
X00191Y00346
X00173Y00344
X00159331Y00336996
X00137Y00355
X001308Y003492
X00097Y00349999
X00065Y00315999
X00042Y0028
Y0026
X0019Y00257
X00191Y00286
X00218Y0026
X00255Y00268
X00362919Y00298919
X0037211Y0034163
X0036703Y0036576
X0035179
X00385Y00238
X00188055Y00414055
X00147Y00413
X00137Y00405
Y00429
X00163Y00433
X00154555Y00447555
X00179Y00451
X00126Y00449
X00109Y00432
X00137Y0038
X00206759Y00492241
X00206Y0051
X00215Y00535
X00223Y00595
X00230748Y00612748
X00146Y0057
X00113Y005635
X00021Y0062
X00018Y00408
X0001Y00412
X00032Y0028
Y0027
Y0026
X0029Y0064
X0033
X0037
X0041
X0045
X0049
X0053
X0056
T02
X00176Y00151
Y00227
T03
X00192Y0006
X00222
Y0009
X00192
X004504Y00515
Y00545
X004804
Y00515
X00084Y005202
Y004948
Y004694
X000586
Y004948
Y005202
Y005456
X00084
Y00571
Y005964
X000586
Y00571
T04
X00061097Y0002
X00086497
X00111896
X00137295Y00020001
X00162697Y00019999
X00188097
X00213497
X00238897
X00327001Y000385
Y000639
Y000893
Y001147
X00326999Y00140101
X00327Y001655
X003719Y0008
X003973
X004227
X004481
X00555601Y000893
Y000639
Y000385
Y001147
X00555599Y00140101
X005556Y001655
X005435Y006
X00518101Y00599999
X004927Y00600001
X004673
X004419
X004165
X00238897Y00629999
X00213497
X00188097
X00162697
X00137295Y00630001
X00111896Y0063
X00086497
X00061097
T05
X00076522Y001601
Y001875
Y002149
X00104922Y002286
Y002012
Y001738
Y001464
Y00256
Y002834
Y003108
Y003382
X00076522Y003245
Y002971
Y002697
Y002423
T06
X00091Y000758
Y00409
T07
X00162Y000994
X00252
T08
X0026Y0015
X0051Y001
X004Y0055
X0026Y0052
T09
X005236Y0053
M30
