G04*
G04 #@! TF.GenerationSoftware,Altium Limited,Altium Designer,20.2.6 (244)*
G04*
G04 Layer_Color=8421504*
%FSLAX44Y44*%
%MOMM*%
G71*
G04*
G04 #@! TF.SameCoordinates,C4BD39D4-7D46-4A15-92C5-5DF00FED93ED*
G04*
G04*
G04 #@! TF.FilePolarity,Positive*
G04*
G01*
G75*
%ADD15R,0.9000X0.9000*%
%ADD16R,4.2000X2.0000*%
%ADD17R,0.9000X0.9000*%
%ADD18R,0.5000X0.8000*%
%ADD19R,0.3000X1.2000*%
%ADD20R,1.2000X0.3000*%
G04:AMPARAMS|DCode=21|XSize=1.61mm|YSize=0.58mm|CornerRadius=0.145mm|HoleSize=0mm|Usage=FLASHONLY|Rotation=0.000|XOffset=0mm|YOffset=0mm|HoleType=Round|Shape=RoundedRectangle|*
%AMROUNDEDRECTD21*
21,1,1.6100,0.2900,0,0,0.0*
21,1,1.3200,0.5800,0,0,0.0*
1,1,0.2900,0.6600,-0.1450*
1,1,0.2900,-0.6600,-0.1450*
1,1,0.2900,-0.6600,0.1450*
1,1,0.2900,0.6600,0.1450*
%
%ADD21ROUNDEDRECTD21*%
%ADD22R,2.0000X3.0000*%
%ADD23R,0.5300X1.3100*%
%ADD24O,1.4500X0.6000*%
%ADD25R,0.5300X0.2800*%
%ADD26R,0.2800X0.5300*%
%ADD27R,2.1000X5.6000*%
%ADD28C,1.0000*%
D15*
X248500Y239000D02*
D03*
X267500D02*
D03*
X388500Y224000D02*
D03*
X369500D02*
D03*
X291501Y402520D02*
D03*
X272500D02*
D03*
X291500Y419000D02*
D03*
X272500D02*
D03*
X455500Y233958D02*
D03*
X436500D02*
D03*
X436458Y251000D02*
D03*
X455458D02*
D03*
X512340Y406400D02*
D03*
X531340D02*
D03*
X512340Y433070D02*
D03*
X531340D02*
D03*
X512340Y459740D02*
D03*
X531340D02*
D03*
X367501Y400520D02*
D03*
X386501D02*
D03*
X395000Y250000D02*
D03*
X376000D02*
D03*
X156210Y439420D02*
D03*
X137210D02*
D03*
X310000Y193000D02*
D03*
X291000D02*
D03*
X328000Y193000D02*
D03*
X347000D02*
D03*
X137210Y464820D02*
D03*
X156210D02*
D03*
X137210Y414020D02*
D03*
X156210D02*
D03*
X243840Y439420D02*
D03*
X262840D02*
D03*
X156210Y388620D02*
D03*
X137210D02*
D03*
X156210Y363220D02*
D03*
X137210D02*
D03*
X243500Y368000D02*
D03*
X262500D02*
D03*
X244500Y384000D02*
D03*
X263500D02*
D03*
D16*
X175000Y229000D02*
D03*
Y149000D02*
D03*
D17*
X248000Y196500D02*
D03*
Y215500D02*
D03*
X469000Y83500D02*
D03*
Y64500D02*
D03*
X495000Y182500D02*
D03*
Y201500D02*
D03*
X298000Y497500D02*
D03*
Y478500D02*
D03*
X330000Y466000D02*
D03*
Y447000D02*
D03*
X418501Y347520D02*
D03*
Y328520D02*
D03*
X437500Y347520D02*
D03*
Y328520D02*
D03*
X470500Y290020D02*
D03*
Y271020D02*
D03*
X469501Y385020D02*
D03*
Y366020D02*
D03*
X282501Y249520D02*
D03*
Y230520D02*
D03*
X264501Y287520D02*
D03*
Y268520D02*
D03*
X417501Y287520D02*
D03*
Y268520D02*
D03*
X314000Y467000D02*
D03*
Y448000D02*
D03*
Y479000D02*
D03*
Y498000D02*
D03*
X330000Y478000D02*
D03*
Y497000D02*
D03*
D18*
X141000Y106000D02*
D03*
Y128000D02*
D03*
D19*
X377500Y267500D02*
D03*
X372501D02*
D03*
X367501D02*
D03*
X362500D02*
D03*
X357501D02*
D03*
X352500D02*
D03*
X347500D02*
D03*
X342501D02*
D03*
X337500D02*
D03*
X332501D02*
D03*
X327500D02*
D03*
X322500D02*
D03*
X317501D02*
D03*
X312500D02*
D03*
X307501D02*
D03*
X302501D02*
D03*
Y382500D02*
D03*
X307501D02*
D03*
X312500D02*
D03*
X317501D02*
D03*
X322500D02*
D03*
X327500D02*
D03*
X332501D02*
D03*
X337500D02*
D03*
X342501D02*
D03*
X347500D02*
D03*
X352500D02*
D03*
X357501D02*
D03*
X362500D02*
D03*
X367501D02*
D03*
X372501D02*
D03*
X377500D02*
D03*
D20*
X282501Y287500D02*
D03*
Y292500D02*
D03*
Y297500D02*
D03*
Y302500D02*
D03*
Y307500D02*
D03*
Y312500D02*
D03*
Y317500D02*
D03*
Y322500D02*
D03*
Y327500D02*
D03*
Y332500D02*
D03*
Y337500D02*
D03*
Y342500D02*
D03*
Y347500D02*
D03*
Y352500D02*
D03*
Y357500D02*
D03*
Y362500D02*
D03*
X397501D02*
D03*
Y357500D02*
D03*
Y352500D02*
D03*
Y347500D02*
D03*
Y342500D02*
D03*
Y337500D02*
D03*
Y332500D02*
D03*
Y327500D02*
D03*
Y322500D02*
D03*
Y317500D02*
D03*
Y312500D02*
D03*
Y307500D02*
D03*
Y302500D02*
D03*
Y297500D02*
D03*
Y292500D02*
D03*
Y287500D02*
D03*
D21*
X393950Y203050D02*
D03*
Y190350D02*
D03*
Y177650D02*
D03*
Y164950D02*
D03*
X466050D02*
D03*
Y177650D02*
D03*
Y190350D02*
D03*
Y203050D02*
D03*
D22*
X448000Y33000D02*
D03*
X512000D02*
D03*
D23*
X322000Y237000D02*
D03*
X334500D02*
D03*
X347000D02*
D03*
Y213000D02*
D03*
X334500D02*
D03*
X322000D02*
D03*
X309500Y237000D02*
D03*
Y213000D02*
D03*
D24*
X227500Y350500D02*
D03*
Y363200D02*
D03*
Y375900D02*
D03*
Y388600D02*
D03*
Y401300D02*
D03*
Y414000D02*
D03*
Y426700D02*
D03*
Y439400D02*
D03*
X173000Y350500D02*
D03*
Y363200D02*
D03*
Y375900D02*
D03*
Y388600D02*
D03*
Y401300D02*
D03*
Y414000D02*
D03*
Y426700D02*
D03*
Y439400D02*
D03*
D25*
X344800Y462950D02*
D03*
X369200D02*
D03*
Y467250D02*
D03*
Y471550D02*
D03*
Y475850D02*
D03*
Y480150D02*
D03*
Y484450D02*
D03*
Y488750D02*
D03*
Y493050D02*
D03*
X344800D02*
D03*
Y488750D02*
D03*
Y484450D02*
D03*
Y480150D02*
D03*
Y475850D02*
D03*
Y471550D02*
D03*
Y467250D02*
D03*
D26*
X350550Y463300D02*
D03*
X354850D02*
D03*
X359150D02*
D03*
X363450D02*
D03*
Y492700D02*
D03*
X359150D02*
D03*
X354850D02*
D03*
X350550D02*
D03*
D27*
X505793Y271020D02*
D03*
Y366020D02*
D03*
D28*
X22000Y27000D02*
D03*
X548000Y332000D02*
D03*
X320000Y560000D02*
D03*
M02*
