G04*
G04 #@! TF.GenerationSoftware,Altium Limited,Altium Designer,20.2.6 (244)*
G04*
G04 Layer_Physical_Order=4*
G04 Layer_Color=16711680*
%FSLAX44Y44*%
%MOMM*%
G71*
G04*
G04 #@! TF.SameCoordinates,C4BD39D4-7D46-4A15-92C5-5DF00FED93ED*
G04*
G04*
G04 #@! TF.FilePolarity,Positive*
G04*
G01*
G75*
%ADD11C,0.2500*%
%ADD15R,0.9000X0.9000*%
%ADD18R,0.5000X0.8000*%
%ADD28C,1.0000*%
%ADD46R,1.5700X1.5700*%
%ADD47C,1.5700*%
%ADD48C,1.0200*%
%ADD57C,0.3000*%
%ADD58C,0.5000*%
%ADD59C,1.5500*%
%ADD60R,1.5500X1.5500*%
%ADD61C,3.5500*%
%ADD62C,1.8000*%
%ADD63R,1.8000X1.8000*%
%ADD64R,1.8000X1.8000*%
%ADD65C,3.0480*%
%ADD66C,1.5300*%
%ADD67R,1.5300X1.5300*%
%ADD68C,3.0000*%
%ADD69C,0.6000*%
%ADD70C,1.4000*%
G36*
X570000Y0D02*
X0D01*
Y650000D01*
X570000D01*
Y0D01*
D02*
G37*
%LPC*%
G36*
X530000Y645098D02*
X528049Y644710D01*
X526395Y643605D01*
X526201Y643314D01*
X493799D01*
X493605Y643605D01*
X491951Y644710D01*
X490000Y645098D01*
X488049Y644710D01*
X486395Y643605D01*
X485290Y641951D01*
X484902Y640000D01*
X485290Y638049D01*
X486395Y636395D01*
X488049Y635290D01*
X490000Y634902D01*
X491951Y635290D01*
X493605Y636395D01*
X493799Y636686D01*
X526201D01*
X526395Y636395D01*
X528049Y635290D01*
X530000Y634902D01*
X531951Y635290D01*
X533605Y636395D01*
X534710Y638049D01*
X535098Y640000D01*
X534710Y641951D01*
X533605Y643605D01*
X531951Y644710D01*
X530000Y645098D01*
D02*
G37*
G36*
X450000D02*
X448049Y644710D01*
X446395Y643605D01*
X446201Y643314D01*
X413799D01*
X413605Y643605D01*
X411951Y644710D01*
X410000Y645098D01*
X408049Y644710D01*
X406395Y643605D01*
X405290Y641951D01*
X404902Y640000D01*
X405290Y638049D01*
X406395Y636395D01*
X408049Y635290D01*
X410000Y634902D01*
X411951Y635290D01*
X413605Y636395D01*
X413799Y636686D01*
X446201D01*
X446395Y636395D01*
X448049Y635290D01*
X450000Y634902D01*
X451951Y635290D01*
X453605Y636395D01*
X454710Y638049D01*
X455098Y640000D01*
X454710Y641951D01*
X453605Y643605D01*
X451951Y644710D01*
X450000Y645098D01*
D02*
G37*
G36*
X370000D02*
X368049Y644710D01*
X366395Y643605D01*
X366201Y643314D01*
X333799D01*
X333605Y643605D01*
X331951Y644710D01*
X330000Y645098D01*
X328049Y644710D01*
X326395Y643605D01*
X325290Y641951D01*
X324902Y640000D01*
X325290Y638049D01*
X326395Y636395D01*
X328049Y635290D01*
X330000Y634902D01*
X331951Y635290D01*
X333605Y636395D01*
X333799Y636686D01*
X366201D01*
X366395Y636395D01*
X368049Y635290D01*
X370000Y634902D01*
X371951Y635290D01*
X373605Y636395D01*
X374710Y638049D01*
X375098Y640000D01*
X374710Y641951D01*
X373605Y643605D01*
X371951Y644710D01*
X370000Y645098D01*
D02*
G37*
G36*
X560000D02*
X558049Y644710D01*
X556395Y643605D01*
X555290Y641951D01*
X554902Y640000D01*
X555290Y638049D01*
X556395Y636395D01*
X558049Y635290D01*
X560000Y634902D01*
X561951Y635290D01*
X563605Y636395D01*
X564710Y638049D01*
X565098Y640000D01*
X564710Y641951D01*
X563605Y643605D01*
X561951Y644710D01*
X560000Y645098D01*
D02*
G37*
G36*
X290000D02*
X288049Y644710D01*
X286395Y643605D01*
X285290Y641951D01*
X284902Y640000D01*
X285290Y638049D01*
X286395Y636395D01*
X288049Y635290D01*
X290000Y634902D01*
X291951Y635290D01*
X293605Y636395D01*
X294710Y638049D01*
X295098Y640000D01*
X294710Y641951D01*
X293605Y643605D01*
X291951Y644710D01*
X290000Y645098D01*
D02*
G37*
G36*
X86497Y641095D02*
X83625Y640717D01*
X80949Y639608D01*
X78651Y637845D01*
X76888Y635547D01*
X75780Y632872D01*
X75402Y630000D01*
X75780Y627128D01*
X76888Y624453D01*
X78651Y622155D01*
X80949Y620392D01*
X83625Y619283D01*
X86497Y618905D01*
X89368Y619283D01*
X92044Y620392D01*
X94342Y622155D01*
X96105Y624453D01*
X97213Y627128D01*
X97591Y630000D01*
X97213Y632872D01*
X96105Y635547D01*
X94342Y637845D01*
X92044Y639608D01*
X89368Y640717D01*
X86497Y641095D01*
D02*
G37*
G36*
X137295Y641096D02*
X134424Y640718D01*
X131748Y639609D01*
X129450Y637846D01*
X127687Y635548D01*
X126579Y632872D01*
X126201Y630001D01*
X126579Y627129D01*
X127687Y624453D01*
X129450Y622156D01*
X131748Y620392D01*
X133846Y619523D01*
Y595630D01*
X134099Y594362D01*
X134817Y593287D01*
X213686Y514417D01*
Y495420D01*
X213939Y494152D01*
X214657Y493077D01*
X309106Y398627D01*
Y372148D01*
X308259Y370880D01*
X306869Y370474D01*
X299034Y378309D01*
X299440Y379699D01*
X300853Y380643D01*
X301958Y382297D01*
X302346Y384248D01*
X301958Y386199D01*
X300853Y387853D01*
X299199Y388958D01*
X297248Y389346D01*
X295297Y388958D01*
X293643Y387853D01*
X292699Y386440D01*
X291309Y386034D01*
X279637Y397706D01*
X280446Y398693D01*
X281049Y398290D01*
X283000Y397902D01*
X284951Y398290D01*
X286605Y399395D01*
X287710Y401049D01*
X288098Y403000D01*
X287710Y404951D01*
X286605Y406605D01*
X284951Y407710D01*
X283000Y408098D01*
X281049Y407710D01*
X279395Y406605D01*
X278290Y404951D01*
X277902Y403000D01*
X278290Y401049D01*
X278693Y400446D01*
X277707Y399637D01*
X232637Y444706D01*
X233446Y445693D01*
X234049Y445290D01*
X236000Y444902D01*
X237951Y445290D01*
X239605Y446395D01*
X240710Y448049D01*
X241098Y450000D01*
X240710Y451951D01*
X239605Y453605D01*
X237951Y454710D01*
X236000Y455098D01*
X234049Y454710D01*
X232395Y453605D01*
X231290Y451951D01*
X230902Y450000D01*
X231290Y448049D01*
X231693Y447446D01*
X230707Y446637D01*
X138098Y539245D01*
X137407Y540279D01*
X117080Y560606D01*
X117710Y561549D01*
X118098Y563500D01*
X117710Y565451D01*
X116605Y567105D01*
X114951Y568210D01*
X113000Y568598D01*
X111049Y568210D01*
X110584Y567899D01*
X109314Y568578D01*
Y574400D01*
X109061Y575668D01*
X108343Y576743D01*
X92835Y592251D01*
X93499Y593855D01*
X93834Y596400D01*
X93499Y598945D01*
X92517Y601317D01*
X90954Y603354D01*
X88917Y604917D01*
X86545Y605899D01*
X84000Y606234D01*
X81455Y605899D01*
X79083Y604917D01*
X77046Y603354D01*
X75483Y601317D01*
X74501Y598945D01*
X74166Y596400D01*
X74501Y593855D01*
X75483Y591483D01*
X77046Y589446D01*
X78170Y588584D01*
X77739Y587314D01*
X71600D01*
X70332Y587061D01*
X69257Y586343D01*
X62749Y579835D01*
X61145Y580499D01*
X59272Y580746D01*
X58816Y582087D01*
X59287Y582557D01*
X60005Y583632D01*
X60257Y584900D01*
Y586784D01*
X61145Y586901D01*
X63517Y587883D01*
X65554Y589446D01*
X67117Y591483D01*
X68099Y593855D01*
X68434Y596400D01*
X68099Y598945D01*
X67117Y601317D01*
X65554Y603354D01*
X63517Y604917D01*
X61145Y605899D01*
X58600Y606234D01*
X56055Y605899D01*
X53683Y604917D01*
X51646Y603354D01*
X50083Y601317D01*
X49101Y598945D01*
X48766Y596400D01*
X49101Y593855D01*
X50083Y591483D01*
X51646Y589446D01*
X53630Y587924D01*
Y586273D01*
X42657Y575299D01*
X41939Y574224D01*
X41686Y572956D01*
Y563000D01*
X41939Y561732D01*
X42657Y560657D01*
X49057Y554257D01*
X50132Y553539D01*
X50781Y553409D01*
X51271Y552064D01*
X50083Y550517D01*
X49101Y548145D01*
X48766Y545600D01*
X49101Y543055D01*
X50083Y540683D01*
X51646Y538646D01*
X53683Y537083D01*
X56055Y536101D01*
X58600Y535766D01*
X61145Y536101D01*
X63517Y537083D01*
X65554Y538646D01*
X67076Y540630D01*
X68727D01*
X79212Y530145D01*
X79092Y528817D01*
X79066Y528762D01*
X78974Y528633D01*
X77046Y527154D01*
X75483Y525117D01*
X74501Y522745D01*
X74166Y520200D01*
X74501Y517655D01*
X75165Y516051D01*
X70784Y511670D01*
X54356D01*
X53088Y511418D01*
X52013Y510699D01*
X35657Y494343D01*
X34939Y493268D01*
X34686Y492000D01*
Y420000D01*
X34939Y418732D01*
X35319Y418162D01*
X34333Y417352D01*
X29314Y422372D01*
Y593531D01*
X55991Y620208D01*
X58225Y619283D01*
X61097Y618905D01*
X63968Y619283D01*
X66644Y620392D01*
X68942Y622155D01*
X70705Y624453D01*
X71814Y627128D01*
X72192Y630000D01*
X71814Y632872D01*
X70705Y635547D01*
X68942Y637845D01*
X66644Y639608D01*
X63968Y640717D01*
X61097Y641095D01*
X58225Y640717D01*
X55549Y639608D01*
X53251Y637845D01*
X51488Y635547D01*
X50380Y632872D01*
X50002Y630000D01*
X50380Y627128D01*
X51305Y624895D01*
X23657Y597247D01*
X22939Y596171D01*
X22686Y594903D01*
Y420999D01*
X22939Y419731D01*
X23657Y418656D01*
X91970Y350343D01*
X91902Y349999D01*
X92290Y348048D01*
X93395Y346395D01*
X95049Y345289D01*
X97000Y344901D01*
X98951Y345289D01*
X100605Y346395D01*
X101710Y348048D01*
X102002Y349516D01*
X103289Y350025D01*
X106457Y346857D01*
X107532Y346139D01*
X107933Y346059D01*
X113579Y340413D01*
X113579Y340413D01*
X190748Y263244D01*
X190122Y262074D01*
X190000Y262098D01*
X188049Y261710D01*
X186395Y260605D01*
X185290Y258951D01*
X184902Y257000D01*
X184970Y256657D01*
X143657Y215343D01*
X142939Y214268D01*
X142686Y213000D01*
Y102463D01*
X141416Y101767D01*
X139750Y102098D01*
X137799Y101710D01*
X136145Y100605D01*
X135040Y98951D01*
X134652Y97000D01*
X135040Y95049D01*
X136145Y93395D01*
X137799Y92290D01*
X139750Y91902D01*
X141416Y92233D01*
X142686Y91537D01*
Y87496D01*
X142939Y86228D01*
X143657Y85153D01*
X203706Y25104D01*
X202780Y22871D01*
X202402Y19999D01*
X202780Y17128D01*
X203889Y14452D01*
X205652Y12154D01*
X207950Y10391D01*
X210625Y9282D01*
X213497Y8904D01*
X216369Y9282D01*
X219044Y10391D01*
X221342Y12154D01*
X223106Y14452D01*
X224214Y17128D01*
X224592Y19999D01*
X224214Y22871D01*
X223106Y25547D01*
X221342Y27845D01*
X219044Y29608D01*
X216369Y30716D01*
X213497Y31094D01*
X210625Y30716D01*
X208392Y29791D01*
X188952Y49230D01*
X189282Y50044D01*
X189597Y50381D01*
X192000Y50065D01*
X194571Y50404D01*
X196968Y51396D01*
X199025Y52975D01*
X200604Y55033D01*
X201596Y57429D01*
X201935Y60000D01*
X201596Y62571D01*
X200604Y64967D01*
X199025Y67025D01*
X196968Y68604D01*
X194571Y69597D01*
X192000Y69935D01*
X189429Y69597D01*
X187033Y68604D01*
X184975Y67025D01*
X183396Y64967D01*
X182404Y62571D01*
X182065Y60000D01*
X182381Y57597D01*
X182044Y57283D01*
X181230Y56952D01*
X149314Y88869D01*
Y211627D01*
X165786Y228100D01*
X166989Y227507D01*
X166922Y227000D01*
X167232Y224650D01*
X168139Y222461D01*
X169581Y220581D01*
X171461Y219139D01*
X173650Y218232D01*
X176000Y217922D01*
X178349Y218232D01*
X180539Y219139D01*
X182419Y220581D01*
X183862Y222461D01*
X184263Y223431D01*
X241371D01*
X241395Y223395D01*
X243049Y222290D01*
X245000Y221902D01*
X246951Y222290D01*
X248605Y223395D01*
X249710Y225049D01*
X250098Y227000D01*
X249710Y228951D01*
X248605Y230605D01*
X246951Y231710D01*
X245000Y232098D01*
X243049Y231710D01*
X241395Y230605D01*
X241371Y230569D01*
X184263D01*
X183862Y231539D01*
X182419Y233419D01*
X180539Y234862D01*
X178349Y235768D01*
X176000Y236078D01*
X175493Y236011D01*
X174900Y237214D01*
X189657Y251970D01*
X190000Y251902D01*
X191951Y252290D01*
X193605Y253395D01*
X194710Y255049D01*
X195098Y257000D01*
X195074Y257122D01*
X196244Y257748D01*
X216305Y237687D01*
X217380Y236969D01*
X218648Y236716D01*
X299720D01*
X300988Y236969D01*
X302063Y237687D01*
X310953Y246577D01*
X311671Y247652D01*
X311691Y247750D01*
X313016Y247901D01*
X313895Y246585D01*
X315549Y245480D01*
X317500Y245092D01*
X319451Y245480D01*
X321105Y246585D01*
X322210Y248239D01*
X322598Y250190D01*
X322210Y252141D01*
X321105Y253795D01*
X320814Y253989D01*
Y261676D01*
X334085Y274947D01*
X334616Y274895D01*
X336270Y273790D01*
X338221Y273402D01*
X340172Y273790D01*
X341825Y274895D01*
X342930Y276549D01*
X343318Y278500D01*
X342930Y280451D01*
X341825Y282105D01*
X340172Y283210D01*
X338221Y283598D01*
X336270Y283210D01*
X334721Y282175D01*
X333313D01*
X332045Y281923D01*
X330970Y281205D01*
X315157Y265391D01*
X314439Y264316D01*
X314186Y263048D01*
Y253989D01*
X313895Y253795D01*
X313194Y252745D01*
X311924Y253130D01*
Y274217D01*
X314807Y277101D01*
X315165Y277065D01*
X316819Y275960D01*
X318770Y275572D01*
X320721Y275960D01*
X322375Y277065D01*
X323480Y278719D01*
X323667Y279662D01*
X325062Y280679D01*
X325199Y280652D01*
X327150Y281040D01*
X328804Y282145D01*
X329909Y283799D01*
X330297Y285750D01*
X331411Y286663D01*
X332598Y286899D01*
X334252Y288004D01*
X335357Y289658D01*
X335745Y291609D01*
X335496Y292859D01*
X336666Y293485D01*
X350046Y280105D01*
X350188Y279394D01*
X350906Y278319D01*
X424686Y204539D01*
Y202000D01*
X424939Y200732D01*
X425362Y200098D01*
X425270Y199633D01*
X425658Y197682D01*
X426763Y196028D01*
X428416Y194923D01*
X430367Y194535D01*
X432318Y194923D01*
X433972Y196028D01*
X435077Y197682D01*
X435465Y199633D01*
X435077Y201583D01*
X433972Y203237D01*
X432318Y204342D01*
X431314Y204542D01*
Y205911D01*
X431061Y207179D01*
X430343Y208254D01*
X414786Y223811D01*
X415192Y225201D01*
X416605Y226145D01*
X417710Y227799D01*
X417747Y227983D01*
X418962Y228352D01*
X436120Y211193D01*
X435290Y209951D01*
X434902Y208000D01*
X435290Y206049D01*
X436395Y204395D01*
X438049Y203290D01*
X440000Y202902D01*
X441951Y203290D01*
X443605Y204395D01*
X444710Y206049D01*
X445098Y208000D01*
X444983Y208576D01*
X446005Y209952D01*
X446330Y209984D01*
X447686Y208627D01*
Y128373D01*
X407207Y87893D01*
X406975Y87547D01*
X405424Y87482D01*
X405145Y87845D01*
X402848Y89608D01*
X400172Y90717D01*
X397300Y91095D01*
X394428Y90717D01*
X391753Y89608D01*
X389455Y87845D01*
X387691Y85547D01*
X386583Y82872D01*
X386205Y80000D01*
X386583Y77128D01*
X387691Y74453D01*
X389455Y72155D01*
X391753Y70392D01*
X394428Y69283D01*
X397300Y68905D01*
X400172Y69283D01*
X402848Y70392D01*
X403113Y70595D01*
X403952Y69638D01*
X357483Y23169D01*
X356496Y23979D01*
X356710Y24298D01*
X357098Y26249D01*
X356710Y28200D01*
X355605Y29854D01*
X353951Y30959D01*
X353860Y30977D01*
Y32272D01*
X353951Y32290D01*
X355605Y33395D01*
X356710Y35049D01*
X357098Y37000D01*
X356710Y38951D01*
X355605Y40605D01*
X353951Y41710D01*
X353234Y41853D01*
Y43147D01*
X353951Y43290D01*
X355605Y44395D01*
X356710Y46049D01*
X357098Y48000D01*
X356710Y49951D01*
X355605Y51605D01*
X353951Y52710D01*
X352000Y53098D01*
X350049Y52710D01*
X348395Y51605D01*
X347290Y49951D01*
X346902Y48000D01*
X347290Y46049D01*
X348395Y44395D01*
X350049Y43290D01*
X350766Y43147D01*
Y41853D01*
X350049Y41710D01*
X348395Y40605D01*
X347290Y38951D01*
X346902Y37000D01*
X347290Y35049D01*
X348395Y33395D01*
X350049Y32290D01*
X350140Y32272D01*
Y30977D01*
X350049Y30959D01*
X348395Y29854D01*
X347290Y28200D01*
X346902Y26249D01*
X347290Y24298D01*
X348395Y22644D01*
X349983Y21584D01*
X349999Y21490D01*
X349461Y20314D01*
X249897D01*
Y30999D01*
X227897D01*
Y8999D01*
X249897D01*
Y13686D01*
X264922D01*
X265601Y12416D01*
X265290Y11951D01*
X264902Y10000D01*
X265290Y8049D01*
X266395Y6395D01*
X268049Y5290D01*
X270000Y4902D01*
X271951Y5290D01*
X273605Y6395D01*
X273799Y6686D01*
X296201D01*
X296395Y6395D01*
X298049Y5290D01*
X300000Y4902D01*
X301951Y5290D01*
X303605Y6395D01*
X304710Y8049D01*
X305098Y10000D01*
X304710Y11951D01*
X304399Y12416D01*
X305078Y13686D01*
X324922D01*
X325601Y12416D01*
X325290Y11951D01*
X324902Y10000D01*
X325290Y8049D01*
X326395Y6395D01*
X328049Y5290D01*
X330000Y4902D01*
X331951Y5290D01*
X333605Y6395D01*
X333799Y6686D01*
X356201D01*
X356395Y6395D01*
X358049Y5290D01*
X360000Y4902D01*
X361951Y5290D01*
X363605Y6395D01*
X364710Y8049D01*
X365098Y10000D01*
X364710Y11951D01*
X363605Y13605D01*
X361951Y14710D01*
X360484Y15002D01*
X359976Y16289D01*
X411893Y68207D01*
X412611Y69282D01*
X412864Y70550D01*
Y84177D01*
X453343Y124657D01*
X454061Y125732D01*
X454314Y127000D01*
Y210000D01*
X454061Y211268D01*
X453343Y212343D01*
X391850Y273836D01*
X392476Y275006D01*
X393000Y274902D01*
X394951Y275290D01*
X396605Y276395D01*
X397710Y278049D01*
X398098Y280000D01*
X397710Y281951D01*
X396605Y283605D01*
X394951Y284710D01*
X393000Y285098D01*
X391049Y284710D01*
X389395Y283605D01*
X388290Y281951D01*
X387902Y280000D01*
X388006Y279476D01*
X386836Y278850D01*
X380178Y285508D01*
X380059Y286108D01*
X379340Y287183D01*
X367948Y298575D01*
X368017Y298919D01*
X367629Y300870D01*
X366524Y302524D01*
X364870Y303629D01*
X362919Y304017D01*
X360968Y303629D01*
X359314Y302524D01*
X358370Y301111D01*
X356980Y300705D01*
X344769Y312916D01*
X345295Y314186D01*
X378471D01*
X378665Y313895D01*
X380319Y312790D01*
X382270Y312402D01*
X384221Y312790D01*
X385875Y313895D01*
X386980Y315549D01*
X387368Y317500D01*
X386980Y319451D01*
X385875Y321105D01*
X384221Y322210D01*
X382270Y322598D01*
X380319Y322210D01*
X378665Y321105D01*
X378471Y320814D01*
X345710D01*
X338271Y328253D01*
X338757Y329426D01*
X378471D01*
X378665Y329135D01*
X380319Y328030D01*
X382270Y327642D01*
X384221Y328030D01*
X385875Y329135D01*
X386980Y330789D01*
X387368Y332740D01*
X386980Y334691D01*
X385875Y336345D01*
X384221Y337450D01*
X382270Y337838D01*
X380319Y337450D01*
X378665Y336345D01*
X378471Y336054D01*
X375050D01*
X374665Y337324D01*
X375715Y338025D01*
X376820Y339679D01*
X377208Y341630D01*
X376820Y343581D01*
X375715Y345235D01*
X374061Y346340D01*
X373196Y346512D01*
Y347807D01*
X373858Y347939D01*
X374933Y348657D01*
X377593Y351316D01*
X378971Y350899D01*
X379935Y349455D01*
X381589Y348350D01*
X383540Y347962D01*
X385491Y348350D01*
X387145Y349455D01*
X387339Y349746D01*
X438047D01*
X526686Y261107D01*
Y108048D01*
X525416Y107730D01*
X524404Y109624D01*
X522249Y112249D01*
X519624Y114404D01*
X516629Y116005D01*
X513380Y116990D01*
X510000Y117323D01*
X506620Y116990D01*
X503371Y116005D01*
X500376Y114404D01*
X497751Y112249D01*
X495596Y109624D01*
X493995Y106629D01*
X493009Y103380D01*
X492677Y100000D01*
X493009Y96620D01*
X493995Y93371D01*
X495596Y90376D01*
X497751Y87751D01*
X500376Y85596D01*
X503371Y83995D01*
X506620Y83010D01*
X510000Y82677D01*
X513380Y83010D01*
X516629Y83995D01*
X519624Y85596D01*
X522249Y87751D01*
X524404Y90376D01*
X525416Y92270D01*
X526686Y91952D01*
Y64100D01*
X526939Y62832D01*
X527657Y61757D01*
X544601Y44813D01*
Y27500D01*
X566601D01*
Y49500D01*
X549287D01*
X533314Y65473D01*
Y262480D01*
X533061Y263748D01*
X532343Y264823D01*
X441763Y355403D01*
X440688Y356121D01*
X439420Y356374D01*
X387339D01*
X387145Y356665D01*
X385701Y357629D01*
X385284Y359007D01*
X429362Y403086D01*
X491501D01*
X491695Y402795D01*
X493349Y401690D01*
X495300Y401302D01*
X497251Y401690D01*
X498905Y402795D01*
X500010Y404449D01*
X500398Y406400D01*
X500010Y408351D01*
X498905Y410005D01*
X497251Y411110D01*
X495300Y411498D01*
X493349Y411110D01*
X491695Y410005D01*
X491501Y409714D01*
X430029D01*
X429543Y410887D01*
X448413Y429756D01*
X491501D01*
X491695Y429465D01*
X493349Y428360D01*
X495300Y427972D01*
X497251Y428360D01*
X498905Y429465D01*
X500010Y431119D01*
X500398Y433070D01*
X500010Y435021D01*
X498905Y436675D01*
X497251Y437780D01*
X495300Y438168D01*
X493349Y437780D01*
X491695Y436675D01*
X491501Y436384D01*
X447040D01*
X445772Y436131D01*
X444697Y435413D01*
X382947Y373663D01*
X381774Y374149D01*
Y446795D01*
X382894Y447394D01*
X383049Y447290D01*
X385000Y446902D01*
X386951Y447290D01*
X388605Y448395D01*
X389710Y450049D01*
X389837Y450686D01*
X396201D01*
X396395Y450395D01*
X398049Y449290D01*
X400000Y448902D01*
X401951Y449290D01*
X403605Y450395D01*
X404710Y452049D01*
X405098Y454000D01*
X404710Y455951D01*
X403605Y457605D01*
X401951Y458710D01*
X400000Y459098D01*
X398049Y458710D01*
X396395Y457605D01*
X396201Y457314D01*
X387677D01*
X386408Y457061D01*
X386127Y456874D01*
X385000Y457098D01*
X384118Y456923D01*
X383727Y457280D01*
X383220Y458039D01*
X383558Y459740D01*
X383170Y461691D01*
X382445Y462776D01*
X383124Y464046D01*
X486307D01*
X490270Y460083D01*
X490202Y459740D01*
X490590Y457789D01*
X491695Y456135D01*
X493349Y455030D01*
X495300Y454642D01*
X497251Y455030D01*
X498905Y456135D01*
X500010Y457789D01*
X500398Y459740D01*
X500010Y461691D01*
X498905Y463345D01*
X497251Y464450D01*
X495300Y464838D01*
X494957Y464770D01*
X490023Y469703D01*
X488948Y470421D01*
X487680Y470674D01*
X364314D01*
X363929Y471944D01*
X364605Y472395D01*
X365710Y474049D01*
X366098Y476000D01*
X365710Y477951D01*
X364605Y479605D01*
X362951Y480710D01*
X361000Y481098D01*
X359049Y480710D01*
X357395Y479605D01*
X357135Y479215D01*
X355865D01*
X355605Y479605D01*
X353951Y480710D01*
X352000Y481098D01*
X350049Y480710D01*
X348395Y479605D01*
X347290Y477951D01*
X346902Y476000D01*
X347290Y474049D01*
X348395Y472395D01*
X349793Y471461D01*
X349968Y470478D01*
X349922Y470020D01*
X349447Y469703D01*
X317656Y437912D01*
X316938Y436838D01*
X316686Y435569D01*
Y402147D01*
X316484Y402011D01*
X314763Y402343D01*
X220314Y496792D01*
Y515790D01*
X220061Y517058D01*
X219343Y518133D01*
X140474Y597002D01*
Y619411D01*
X142843Y620392D01*
X145141Y622156D01*
X146904Y624453D01*
X148012Y627129D01*
X148390Y630001D01*
X148012Y632872D01*
X146904Y635548D01*
X145141Y637846D01*
X142843Y639609D01*
X140167Y640718D01*
X137295Y641096D01*
D02*
G37*
G36*
X21000Y625098D02*
X19049Y624710D01*
X17395Y623605D01*
X16290Y621951D01*
X15902Y620000D01*
X15911Y619957D01*
X7477Y611523D01*
X6703Y610366D01*
X6431Y609000D01*
Y415629D01*
X6395Y415605D01*
X5290Y413951D01*
X4902Y412000D01*
X5290Y410049D01*
X6395Y408395D01*
X6431Y408371D01*
Y148000D01*
X6703Y146634D01*
X7477Y145477D01*
X57902Y95052D01*
X59059Y94278D01*
X60425Y94006D01*
X99678D01*
X99683Y94002D01*
X100492Y93461D01*
X133727Y60226D01*
Y30429D01*
X131748Y29609D01*
X129450Y27846D01*
X127687Y25548D01*
X126579Y22872D01*
X126201Y20001D01*
X126579Y17129D01*
X127687Y14453D01*
X129450Y12156D01*
X131748Y10392D01*
X134424Y9284D01*
X137295Y8906D01*
X140167Y9284D01*
X142843Y10392D01*
X145141Y12156D01*
X146904Y14453D01*
X148012Y17129D01*
X148390Y20001D01*
X148012Y22872D01*
X146904Y25548D01*
X145141Y27846D01*
X142843Y29609D01*
X140864Y30429D01*
Y61705D01*
X140592Y63070D01*
X139819Y64228D01*
X111743Y92303D01*
X112553Y93290D01*
X114049Y92290D01*
X116000Y91902D01*
X117951Y92290D01*
X119605Y93395D01*
X120710Y95049D01*
X121098Y97000D01*
X120710Y98951D01*
X119605Y100605D01*
X117951Y101710D01*
X116000Y102098D01*
X114049Y101710D01*
X112395Y100605D01*
X111290Y98951D01*
X110902Y97000D01*
X111290Y95049D01*
X112290Y93553D01*
X111303Y92744D01*
X104998Y99048D01*
X104189Y99589D01*
X103680Y100098D01*
X102522Y100872D01*
X101157Y101144D01*
X61903D01*
X13569Y149478D01*
Y226110D01*
X14839Y226235D01*
X14939Y225732D01*
X15657Y224657D01*
X69657Y170657D01*
X70732Y169939D01*
X71236Y169838D01*
X71458Y169104D01*
X71453Y168500D01*
X69568Y167054D01*
X68005Y165017D01*
X67023Y162645D01*
X66688Y160100D01*
X67023Y157555D01*
X68005Y155183D01*
X69568Y153146D01*
X71605Y151583D01*
X73977Y150601D01*
X76522Y150266D01*
X79067Y150601D01*
X81439Y151583D01*
X83476Y153146D01*
X85039Y155183D01*
X86021Y157555D01*
X86356Y160100D01*
X86021Y162645D01*
X85039Y165017D01*
X83476Y167054D01*
X81700Y168416D01*
X81948Y169540D01*
X82029Y169686D01*
X96073D01*
X96405Y168883D01*
X97968Y166846D01*
X100005Y165283D01*
X102377Y164301D01*
X104922Y163966D01*
X107467Y164301D01*
X109839Y165283D01*
X111876Y166846D01*
X113439Y168883D01*
X114421Y171255D01*
X114756Y173800D01*
X114421Y176345D01*
X113439Y178717D01*
X111876Y180754D01*
X109839Y182317D01*
X107467Y183299D01*
X104922Y183634D01*
X102377Y183299D01*
X100005Y182317D01*
X97968Y180754D01*
X96405Y178717D01*
X95423Y176345D01*
X95419Y176314D01*
X73373D01*
X21314Y228373D01*
Y404201D01*
X21605Y404395D01*
X22710Y406049D01*
X23098Y408000D01*
X22710Y409951D01*
X21605Y411605D01*
X19951Y412710D01*
X18000Y413098D01*
X16049Y412710D01*
X16035Y412701D01*
X14862Y413187D01*
X14710Y413951D01*
X13605Y415605D01*
X13569Y415629D01*
Y607522D01*
X20957Y614911D01*
X21000Y614902D01*
X22951Y615290D01*
X24605Y616395D01*
X25710Y618049D01*
X26098Y620000D01*
X25710Y621951D01*
X24605Y623605D01*
X22951Y624710D01*
X21000Y625098D01*
D02*
G37*
G36*
X213497Y641094D02*
X210625Y640716D01*
X207950Y639608D01*
X205652Y637845D01*
X203889Y635547D01*
X202780Y632871D01*
X202402Y629999D01*
X202780Y627128D01*
X203889Y624452D01*
X205652Y622154D01*
X207950Y620391D01*
X210625Y619282D01*
X213497Y618904D01*
X216369Y619282D01*
X218602Y620208D01*
X225718Y613092D01*
X225650Y612748D01*
X226038Y610797D01*
X227143Y609143D01*
X228797Y608038D01*
X230748Y607650D01*
X232699Y608038D01*
X234353Y609143D01*
X235458Y610797D01*
X235846Y612748D01*
X235458Y614699D01*
X234353Y616353D01*
X232699Y617458D01*
X231336Y617729D01*
X231461Y618999D01*
X249897D01*
Y640999D01*
X227897D01*
Y621945D01*
X226724Y621459D01*
X223289Y624894D01*
X224214Y627128D01*
X224592Y629999D01*
X224214Y632871D01*
X223106Y635547D01*
X221342Y637845D01*
X219044Y639608D01*
X216369Y640716D01*
X213497Y641094D01*
D02*
G37*
G36*
X188097D02*
X185226Y640716D01*
X182550Y639608D01*
X180252Y637845D01*
X178489Y635547D01*
X177380Y632871D01*
X177002Y629999D01*
X177380Y627128D01*
X178489Y624452D01*
X180252Y622154D01*
X182550Y620391D01*
X185226Y619282D01*
X188097Y618904D01*
X190969Y619282D01*
X193202Y620208D01*
X217986Y595424D01*
X217902Y595000D01*
X218290Y593049D01*
X219395Y591395D01*
X221049Y590290D01*
X223000Y589902D01*
X224951Y590290D01*
X226605Y591395D01*
X227710Y593049D01*
X228098Y595000D01*
X227710Y596951D01*
X226605Y598605D01*
X224951Y599710D01*
X223000Y600098D01*
X222737Y600046D01*
X197889Y624894D01*
X198814Y627128D01*
X199192Y629999D01*
X198814Y632871D01*
X197705Y635547D01*
X195942Y637845D01*
X193645Y639608D01*
X190969Y640716D01*
X188097Y641094D01*
D02*
G37*
G36*
X427500Y611001D02*
X405500D01*
Y589001D01*
X427500D01*
Y611001D01*
D02*
G37*
G36*
X467300Y611096D02*
X464428Y610718D01*
X461752Y609609D01*
X459454Y607846D01*
X457691Y605548D01*
X456583Y602872D01*
X456205Y600001D01*
X456583Y597129D01*
X457691Y594453D01*
X459454Y592155D01*
X461752Y590392D01*
X464428Y589284D01*
X467300Y588906D01*
X470171Y589284D01*
X472847Y590392D01*
X475145Y592155D01*
X476908Y594453D01*
X478016Y597129D01*
X478395Y600001D01*
X478016Y602872D01*
X476908Y605548D01*
X475145Y607846D01*
X472847Y609609D01*
X470171Y610718D01*
X467300Y611096D01*
D02*
G37*
G36*
X441900D02*
X439028Y610718D01*
X436352Y609609D01*
X434054Y607846D01*
X432291Y605548D01*
X431183Y602872D01*
X430805Y600001D01*
X431183Y597129D01*
X432291Y594453D01*
X434054Y592155D01*
X436352Y590392D01*
X439028Y589284D01*
X441900Y588906D01*
X444771Y589284D01*
X447447Y590392D01*
X449745Y592155D01*
X451508Y594453D01*
X452616Y597129D01*
X452994Y600001D01*
X452616Y602872D01*
X451508Y605548D01*
X449745Y607846D01*
X447447Y609609D01*
X444771Y610718D01*
X441900Y611096D01*
D02*
G37*
G36*
X518101Y611094D02*
X515230Y610716D01*
X512554Y609608D01*
X510256Y607845D01*
X508493Y605547D01*
X507384Y602871D01*
X507006Y599999D01*
X507384Y597128D01*
X508493Y594452D01*
X510256Y592154D01*
X512554Y590391D01*
X515230Y589282D01*
X518101Y588904D01*
X520973Y589282D01*
X523649Y590391D01*
X525947Y592154D01*
X527710Y594452D01*
X528818Y597128D01*
X529196Y599999D01*
X528818Y602871D01*
X527710Y605547D01*
X525947Y607845D01*
X523649Y609608D01*
X520973Y610716D01*
X518101Y611094D01*
D02*
G37*
G36*
X560000Y605098D02*
X558049Y604710D01*
X556395Y603605D01*
X555290Y601951D01*
X554902Y600000D01*
X555290Y598049D01*
X556395Y596395D01*
X556686Y596201D01*
Y563799D01*
X556395Y563605D01*
X555290Y561951D01*
X554902Y560000D01*
X555290Y558049D01*
X556395Y556395D01*
X558049Y555290D01*
X560000Y554902D01*
X561951Y555290D01*
X563605Y556395D01*
X564710Y558049D01*
X565098Y560000D01*
X564710Y561951D01*
X563605Y563605D01*
X563314Y563799D01*
Y596201D01*
X563605Y596395D01*
X564710Y598049D01*
X565098Y600000D01*
X564710Y601951D01*
X563605Y603605D01*
X561951Y604710D01*
X560000Y605098D01*
D02*
G37*
G36*
X320000Y567060D02*
X318173Y566820D01*
X316470Y566114D01*
X315007Y564992D01*
X313885Y563530D01*
X313180Y561827D01*
X312940Y560000D01*
X313180Y558173D01*
X313885Y556470D01*
X315007Y555008D01*
X316470Y553885D01*
X318173Y553180D01*
X320000Y552940D01*
X321827Y553180D01*
X323530Y553885D01*
X324992Y555008D01*
X326115Y556470D01*
X326820Y558173D01*
X327060Y560000D01*
X326820Y561827D01*
X326115Y563530D01*
X324992Y564992D01*
X323530Y566114D01*
X321827Y566820D01*
X320000Y567060D01*
D02*
G37*
G36*
X490050Y554650D02*
X470750D01*
Y535350D01*
X490050D01*
Y554650D01*
D02*
G37*
G36*
X450400Y554733D02*
X447881Y554402D01*
X445533Y553429D01*
X443517Y551883D01*
X441971Y549867D01*
X440998Y547519D01*
X440667Y545000D01*
X440998Y542481D01*
X441971Y540133D01*
X443517Y538118D01*
X445533Y536571D01*
X447881Y535598D01*
X450400Y535267D01*
X452919Y535598D01*
X455267Y536571D01*
X457282Y538118D01*
X458829Y540133D01*
X459802Y542481D01*
X460133Y545000D01*
X459802Y547519D01*
X458829Y549867D01*
X457282Y551883D01*
X455267Y553429D01*
X452919Y554402D01*
X450400Y554733D01*
D02*
G37*
G36*
X400000Y567323D02*
X396620Y566991D01*
X393371Y566005D01*
X390376Y564404D01*
X387751Y562249D01*
X385596Y559624D01*
X383995Y556629D01*
X383009Y553380D01*
X382677Y550000D01*
X383009Y546620D01*
X383995Y543371D01*
X385596Y540376D01*
X387751Y537751D01*
X390376Y535596D01*
X393371Y533995D01*
X396620Y533009D01*
X400000Y532677D01*
X403380Y533009D01*
X406629Y533995D01*
X409624Y535596D01*
X412249Y537751D01*
X414404Y540376D01*
X416005Y543371D01*
X416991Y546620D01*
X417323Y550000D01*
X416991Y553380D01*
X416005Y556629D01*
X414404Y559624D01*
X412249Y562249D01*
X409624Y564404D01*
X406629Y566005D01*
X403380Y566991D01*
X400000Y567323D01*
D02*
G37*
G36*
X162697Y641094D02*
X159825Y640716D01*
X157150Y639608D01*
X154852Y637845D01*
X153089Y635547D01*
X151980Y632871D01*
X151602Y629999D01*
X151980Y627128D01*
X153089Y624452D01*
X154852Y622154D01*
X157150Y620391D01*
X159383Y619465D01*
Y587303D01*
X159636Y586035D01*
X160354Y584960D01*
X209970Y535343D01*
X209902Y535000D01*
X210290Y533049D01*
X211395Y531395D01*
X213049Y530290D01*
X215000Y529902D01*
X216951Y530290D01*
X218605Y531395D01*
X219710Y533049D01*
X220098Y535000D01*
X219710Y536951D01*
X218605Y538605D01*
X216951Y539710D01*
X215000Y540098D01*
X214657Y540030D01*
X166011Y588675D01*
Y619465D01*
X168244Y620391D01*
X170542Y622154D01*
X172306Y624452D01*
X173414Y627128D01*
X173792Y629999D01*
X173414Y632871D01*
X172306Y635547D01*
X170542Y637845D01*
X168244Y639608D01*
X165569Y640716D01*
X162697Y641094D01*
D02*
G37*
G36*
X523600Y547082D02*
X520267Y546754D01*
X517063Y545782D01*
X514110Y544203D01*
X511521Y542079D01*
X509397Y539490D01*
X507818Y536537D01*
X506846Y533333D01*
X506518Y530000D01*
X506846Y526668D01*
X507818Y523463D01*
X509397Y520510D01*
X511521Y517921D01*
X514110Y515797D01*
X517063Y514218D01*
X520267Y513246D01*
X523600Y512918D01*
X526933Y513246D01*
X530137Y514218D01*
X533090Y515797D01*
X535679Y517921D01*
X537803Y520510D01*
X539382Y523463D01*
X540354Y526668D01*
X540682Y530000D01*
X540354Y533333D01*
X539382Y536537D01*
X537803Y539490D01*
X535679Y542079D01*
X533090Y544203D01*
X530137Y545782D01*
X526933Y546754D01*
X523600Y547082D01*
D02*
G37*
G36*
X146000Y575098D02*
X144049Y574710D01*
X142395Y573605D01*
X141290Y571951D01*
X140902Y570000D01*
X141290Y568049D01*
X142395Y566395D01*
X144049Y565290D01*
X146000Y564902D01*
X146343Y564970D01*
X200970Y510344D01*
X200902Y510000D01*
X201290Y508049D01*
X202395Y506395D01*
X204049Y505290D01*
X206000Y504902D01*
X207951Y505290D01*
X209605Y506395D01*
X210710Y508049D01*
X211098Y510000D01*
X210710Y511951D01*
X209605Y513605D01*
X207951Y514710D01*
X206000Y515098D01*
X205657Y515030D01*
X151030Y569657D01*
X151098Y570000D01*
X150710Y571951D01*
X149605Y573605D01*
X147951Y574710D01*
X146000Y575098D01*
D02*
G37*
G36*
X260000Y537323D02*
X256620Y536991D01*
X253371Y536005D01*
X250376Y534404D01*
X247750Y532249D01*
X245596Y529624D01*
X243995Y526629D01*
X243009Y523380D01*
X242677Y520000D01*
X243009Y516620D01*
X243995Y513371D01*
X245596Y510376D01*
X247750Y507751D01*
X250376Y505596D01*
X253371Y503995D01*
X256620Y503009D01*
X260000Y502677D01*
X263380Y503009D01*
X266629Y503995D01*
X269624Y505596D01*
X272250Y507751D01*
X274404Y510376D01*
X276005Y513371D01*
X276991Y516620D01*
X277323Y520000D01*
X276991Y523380D01*
X276005Y526629D01*
X274404Y529624D01*
X272250Y532249D01*
X269624Y534404D01*
X266629Y536005D01*
X263380Y536991D01*
X260000Y537323D01*
D02*
G37*
G36*
X111896Y641095D02*
X109025Y640717D01*
X106349Y639608D01*
X104051Y637845D01*
X102288Y635547D01*
X101179Y632872D01*
X100801Y630000D01*
X101179Y627128D01*
X102288Y624453D01*
X104051Y622155D01*
X106349Y620392D01*
X108583Y619466D01*
Y587104D01*
X108835Y585836D01*
X109553Y584761D01*
X201730Y492584D01*
X201661Y492241D01*
X202050Y490290D01*
X203155Y488636D01*
X204809Y487531D01*
X206759Y487143D01*
X208710Y487531D01*
X210364Y488636D01*
X211469Y490290D01*
X211857Y492241D01*
X211469Y494192D01*
X210364Y495845D01*
X208710Y496951D01*
X206759Y497339D01*
X206416Y497270D01*
X115210Y588476D01*
Y619466D01*
X117444Y620392D01*
X119741Y622155D01*
X121505Y624453D01*
X122613Y627128D01*
X122991Y630000D01*
X122613Y632872D01*
X121505Y635547D01*
X119741Y637845D01*
X117444Y639608D01*
X114768Y640717D01*
X111896Y641095D01*
D02*
G37*
G36*
X330000Y492098D02*
X328049Y491710D01*
X326395Y490605D01*
X325290Y488951D01*
X324902Y487000D01*
X325290Y485049D01*
X326395Y483395D01*
X328049Y482290D01*
X330000Y481902D01*
X331951Y482290D01*
X333605Y483395D01*
X334710Y485049D01*
X335098Y487000D01*
X334710Y488951D01*
X333605Y490605D01*
X331951Y491710D01*
X330000Y492098D01*
D02*
G37*
G36*
X314000D02*
X312049Y491710D01*
X310395Y490605D01*
X309290Y488951D01*
X308902Y487000D01*
X309290Y485049D01*
X310395Y483395D01*
X312049Y482290D01*
X314000Y481902D01*
X315951Y482290D01*
X317605Y483395D01*
X318710Y485049D01*
X319098Y487000D01*
X318710Y488951D01*
X317605Y490605D01*
X315951Y491710D01*
X314000Y492098D01*
D02*
G37*
G36*
X560000Y525098D02*
X558049Y524710D01*
X556395Y523605D01*
X555290Y521951D01*
X554902Y520000D01*
X555290Y518049D01*
X556395Y516395D01*
X556686Y516201D01*
Y483799D01*
X556395Y483605D01*
X555290Y481951D01*
X554902Y480000D01*
X555290Y478049D01*
X556395Y476395D01*
X558049Y475290D01*
X560000Y474902D01*
X561951Y475290D01*
X563605Y476395D01*
X564710Y478049D01*
X565098Y480000D01*
X564710Y481951D01*
X563605Y483605D01*
X563314Y483799D01*
Y516201D01*
X563605Y516395D01*
X564710Y518049D01*
X565098Y520000D01*
X564710Y521951D01*
X563605Y523605D01*
X561951Y524710D01*
X560000Y525098D01*
D02*
G37*
G36*
X450400Y524733D02*
X447881Y524402D01*
X445533Y523429D01*
X443517Y521883D01*
X441971Y519867D01*
X440998Y517519D01*
X440667Y515000D01*
X440998Y512481D01*
X441971Y510133D01*
X443517Y508118D01*
X445533Y506571D01*
X447086Y505928D01*
Y483799D01*
X446795Y483605D01*
X445690Y481951D01*
X445302Y480000D01*
X445690Y478049D01*
X446795Y476395D01*
X448449Y475290D01*
X450400Y474902D01*
X452351Y475290D01*
X454005Y476395D01*
X455110Y478049D01*
X455498Y480000D01*
X455110Y481951D01*
X454005Y483605D01*
X453714Y483799D01*
Y505928D01*
X455267Y506571D01*
X457282Y508118D01*
X458829Y510133D01*
X459802Y512481D01*
X460133Y515000D01*
X459802Y517519D01*
X458829Y519867D01*
X457282Y521883D01*
X455267Y523429D01*
X452919Y524402D01*
X450400Y524733D01*
D02*
G37*
G36*
X304000Y472098D02*
X302049Y471710D01*
X300395Y470605D01*
X299290Y468951D01*
X298902Y467000D01*
X299290Y465049D01*
X300395Y463395D01*
X302049Y462290D01*
X304000Y461902D01*
X305951Y462290D01*
X307605Y463395D01*
X308710Y465049D01*
X309098Y467000D01*
X308710Y468951D01*
X307605Y470605D01*
X305951Y471710D01*
X304000Y472098D01*
D02*
G37*
G36*
X252999Y444097D02*
X251049Y443709D01*
X249395Y442604D01*
X248290Y440950D01*
X247901Y438999D01*
X248290Y437048D01*
X249395Y435394D01*
X251049Y434289D01*
X252999Y433901D01*
X254950Y434289D01*
X256604Y435394D01*
X257709Y437048D01*
X258097Y438999D01*
X257709Y440950D01*
X256604Y442604D01*
X254950Y443709D01*
X252999Y444097D01*
D02*
G37*
G36*
X436000Y344098D02*
X434049Y343710D01*
X432395Y342605D01*
X431290Y340951D01*
X430902Y339000D01*
X431290Y337049D01*
X432395Y335395D01*
X434049Y334290D01*
X436000Y333902D01*
X437951Y334290D01*
X439605Y335395D01*
X440710Y337049D01*
X441098Y339000D01*
X440710Y340951D01*
X439605Y342605D01*
X437951Y343710D01*
X436000Y344098D01*
D02*
G37*
G36*
X419000D02*
X417049Y343710D01*
X415395Y342605D01*
X414290Y340951D01*
X413902Y339000D01*
X414290Y337049D01*
X415395Y335395D01*
X417049Y334290D01*
X419000Y333902D01*
X420951Y334290D01*
X422605Y335395D01*
X423710Y337049D01*
X424098Y339000D01*
X423710Y340951D01*
X422605Y342605D01*
X420951Y343710D01*
X419000Y344098D01*
D02*
G37*
G36*
X548000Y339060D02*
X546173Y338820D01*
X544470Y338115D01*
X543008Y336992D01*
X541885Y335530D01*
X541180Y333827D01*
X540940Y332000D01*
X541180Y330173D01*
X541885Y328470D01*
X543008Y327008D01*
X544470Y325886D01*
X546173Y325180D01*
X548000Y324940D01*
X549827Y325180D01*
X551530Y325886D01*
X552992Y327008D01*
X554114Y328470D01*
X554820Y330173D01*
X555060Y332000D01*
X554820Y333827D01*
X554114Y335530D01*
X552992Y336992D01*
X551530Y338115D01*
X549827Y338820D01*
X548000Y339060D01*
D02*
G37*
G36*
X76522Y334334D02*
X73977Y333999D01*
X71605Y333017D01*
X69568Y331454D01*
X68005Y329417D01*
X67023Y327045D01*
X66688Y324500D01*
X67023Y321955D01*
X68005Y319583D01*
X69568Y317546D01*
X71605Y315983D01*
X73977Y315001D01*
X76522Y314666D01*
X79067Y315001D01*
X81439Y315983D01*
X83476Y317546D01*
X85039Y319583D01*
X86021Y321955D01*
X86356Y324500D01*
X86021Y327045D01*
X85039Y329417D01*
X83476Y331454D01*
X81439Y333017D01*
X79067Y333999D01*
X76522Y334334D01*
D02*
G37*
G36*
X47040Y317540D02*
X43270D01*
Y312270D01*
X47040D01*
Y317540D01*
D02*
G37*
G36*
X40730D02*
X36960D01*
Y312270D01*
X40730D01*
Y317540D01*
D02*
G37*
G36*
X47040Y309730D02*
X43270D01*
Y304460D01*
X47040D01*
Y309730D01*
D02*
G37*
G36*
X40730D02*
X36960D01*
Y304460D01*
X40730D01*
Y309730D01*
D02*
G37*
G36*
X104922Y320634D02*
X102377Y320299D01*
X100005Y319317D01*
X97968Y317754D01*
X96405Y315717D01*
X95423Y313345D01*
X95088Y310800D01*
X95423Y308255D01*
X96405Y305883D01*
X97968Y303846D01*
X100005Y302283D01*
X102377Y301301D01*
X104922Y300966D01*
X107467Y301301D01*
X109839Y302283D01*
X111876Y303846D01*
X113439Y305883D01*
X114421Y308255D01*
X114756Y310800D01*
X114421Y313345D01*
X113439Y315717D01*
X111876Y317754D01*
X109839Y319317D01*
X107467Y320299D01*
X104922Y320634D01*
D02*
G37*
G36*
X418000Y302098D02*
X416049Y301710D01*
X414395Y300605D01*
X413290Y298951D01*
X412902Y297000D01*
X413290Y295049D01*
X414395Y293395D01*
X416049Y292290D01*
X418000Y291902D01*
X419951Y292290D01*
X421605Y293395D01*
X422710Y295049D01*
X423098Y297000D01*
X422710Y298951D01*
X421605Y300605D01*
X419951Y301710D01*
X418000Y302098D01*
D02*
G37*
G36*
X427000Y292098D02*
X425049Y291710D01*
X423395Y290605D01*
X422290Y288951D01*
X421902Y287000D01*
X422290Y285049D01*
X423395Y283395D01*
X425049Y282290D01*
X427000Y281902D01*
X428951Y282290D01*
X430605Y283395D01*
X431710Y285049D01*
X432098Y287000D01*
X431710Y288951D01*
X430605Y290605D01*
X428951Y291710D01*
X427000Y292098D01*
D02*
G37*
G36*
X104922Y293234D02*
X102377Y292899D01*
X100005Y291917D01*
X97968Y290354D01*
X96405Y288317D01*
X95423Y285945D01*
X95088Y283400D01*
X95423Y280855D01*
X96405Y278483D01*
X97968Y276446D01*
X100005Y274883D01*
X102377Y273901D01*
X104922Y273566D01*
X107467Y273901D01*
X109839Y274883D01*
X111876Y276446D01*
X113439Y278483D01*
X114421Y280855D01*
X114756Y283400D01*
X114421Y285945D01*
X113439Y288317D01*
X111876Y290354D01*
X109839Y291917D01*
X107467Y292899D01*
X104922Y293234D01*
D02*
G37*
G36*
X405000Y275098D02*
X403049Y274710D01*
X401395Y273605D01*
X400290Y271951D01*
X399902Y270000D01*
X400290Y268049D01*
X401395Y266395D01*
X403049Y265290D01*
X405000Y264902D01*
X406951Y265290D01*
X408605Y266395D01*
X409710Y268049D01*
X410098Y270000D01*
X409710Y271951D01*
X408605Y273605D01*
X406951Y274710D01*
X405000Y275098D01*
D02*
G37*
G36*
X412750Y323868D02*
X410799Y323480D01*
X409145Y322375D01*
X408040Y320721D01*
X407652Y318770D01*
X408040Y316819D01*
X409145Y315165D01*
X410799Y314060D01*
X412750Y313672D01*
X413093Y313740D01*
X433566Y293267D01*
Y270499D01*
X433275Y270305D01*
X432170Y268651D01*
X431782Y266700D01*
X432170Y264749D01*
X433275Y263095D01*
X434929Y261990D01*
X436880Y261602D01*
X438831Y261990D01*
X440485Y263095D01*
X441590Y264749D01*
X441978Y266700D01*
X441590Y268651D01*
X440485Y270305D01*
X440194Y270499D01*
Y294640D01*
X439941Y295908D01*
X439223Y296983D01*
X417780Y318427D01*
X417848Y318770D01*
X417460Y320721D01*
X416355Y322375D01*
X414701Y323480D01*
X412750Y323868D01*
D02*
G37*
G36*
X104922Y265834D02*
X102377Y265499D01*
X100005Y264517D01*
X97968Y262954D01*
X96405Y260917D01*
X95423Y258545D01*
X95088Y256000D01*
X95423Y253455D01*
X96405Y251083D01*
X97968Y249046D01*
X100005Y247483D01*
X102377Y246501D01*
X104922Y246166D01*
X107467Y246501D01*
X109839Y247483D01*
X111876Y249046D01*
X113439Y251083D01*
X114421Y253455D01*
X114756Y256000D01*
X114421Y258545D01*
X113439Y260917D01*
X111876Y262954D01*
X109839Y264517D01*
X107467Y265499D01*
X104922Y265834D01*
D02*
G37*
G36*
X368000Y238098D02*
X366049Y237710D01*
X364395Y236605D01*
X363290Y234951D01*
X362902Y233000D01*
X363290Y231049D01*
X364395Y229395D01*
X366049Y228290D01*
X368000Y227902D01*
X369951Y228290D01*
X371605Y229395D01*
X372710Y231049D01*
X373098Y233000D01*
X372710Y234951D01*
X371605Y236605D01*
X369951Y237710D01*
X368000Y238098D01*
D02*
G37*
G36*
X91139Y312278D02*
X52139D01*
X51359Y312123D01*
X50697Y311681D01*
X50255Y311019D01*
X50100Y310239D01*
Y301121D01*
X50000Y301039D01*
X25000D01*
X24220Y300884D01*
X23558Y300442D01*
X23116Y299780D01*
X22961Y299000D01*
Y248000D01*
X23116Y247220D01*
X23558Y246558D01*
X24220Y246116D01*
X25000Y245961D01*
X50000D01*
X50100Y245879D01*
Y229239D01*
X50255Y228459D01*
X50697Y227797D01*
X51359Y227355D01*
X52139Y227200D01*
X91139D01*
X91919Y227355D01*
X92581Y227797D01*
X93023Y228459D01*
X93178Y229239D01*
Y310239D01*
X93023Y311019D01*
X92581Y311681D01*
X91919Y312123D01*
X91139Y312278D01*
D02*
G37*
G36*
X302000Y218098D02*
X300049Y217710D01*
X298395Y216605D01*
X297290Y214951D01*
X296902Y213000D01*
X297290Y211049D01*
X298395Y209395D01*
X300049Y208290D01*
X302000Y207902D01*
X303951Y208290D01*
X305605Y209395D01*
X306710Y211049D01*
X307098Y213000D01*
X306710Y214951D01*
X305605Y216605D01*
X303951Y217710D01*
X302000Y218098D01*
D02*
G37*
G36*
X218000Y205098D02*
X216049Y204710D01*
X214395Y203605D01*
X213290Y201951D01*
X212902Y200000D01*
X212970Y199657D01*
X200657Y187343D01*
X199939Y186268D01*
X199686Y185000D01*
Y127373D01*
X190343Y118030D01*
X190000Y118098D01*
X188049Y117710D01*
X186395Y116605D01*
X185290Y114951D01*
X184902Y113000D01*
X185290Y111049D01*
X186395Y109395D01*
X188049Y108290D01*
X190000Y107902D01*
X191951Y108290D01*
X193605Y109395D01*
X194710Y111049D01*
X195098Y113000D01*
X195030Y113343D01*
X205343Y123657D01*
X206061Y124732D01*
X206279Y124822D01*
X207302Y124139D01*
X209252Y123751D01*
X211203Y124139D01*
X212857Y125244D01*
X212982Y125431D01*
X240371D01*
X240395Y125395D01*
X242049Y124290D01*
X244000Y123902D01*
X245951Y124290D01*
X247605Y125395D01*
X248710Y127049D01*
X249098Y129000D01*
X248710Y130951D01*
X247605Y132605D01*
X245951Y133710D01*
X244000Y134098D01*
X242049Y133710D01*
X240395Y132605D01*
X240371Y132569D01*
X212686D01*
X211203Y133559D01*
X209252Y133947D01*
X207584Y133615D01*
X206314Y134310D01*
Y183627D01*
X217657Y194970D01*
X218000Y194902D01*
X219951Y195290D01*
X221605Y196395D01*
X222710Y198049D01*
X223098Y200000D01*
X222710Y201951D01*
X221605Y203605D01*
X219951Y204710D01*
X218000Y205098D01*
D02*
G37*
G36*
X495000Y198098D02*
X493049Y197710D01*
X491395Y196605D01*
X490290Y194951D01*
X489902Y193000D01*
X490290Y191049D01*
X491395Y189395D01*
X493049Y188290D01*
X495000Y187902D01*
X496951Y188290D01*
X498605Y189395D01*
X499710Y191049D01*
X500098Y193000D01*
X499710Y194951D01*
X498605Y196605D01*
X496951Y197710D01*
X495000Y198098D01*
D02*
G37*
G36*
X328000Y190098D02*
X326049Y189710D01*
X324395Y188605D01*
X323290Y186951D01*
X322902Y185000D01*
X323290Y183049D01*
X324395Y181395D01*
X326049Y180290D01*
X328000Y179902D01*
X329951Y180290D01*
X331605Y181395D01*
X332710Y183049D01*
X333098Y185000D01*
X332710Y186951D01*
X331605Y188605D01*
X329951Y189710D01*
X328000Y190098D01*
D02*
G37*
G36*
X310000D02*
X308049Y189710D01*
X306395Y188605D01*
X305290Y186951D01*
X304902Y185000D01*
X305290Y183049D01*
X306395Y181395D01*
X308049Y180290D01*
X310000Y179902D01*
X311951Y180290D01*
X313605Y181395D01*
X314710Y183049D01*
X315098Y185000D01*
X314710Y186951D01*
X313605Y188605D01*
X311951Y189710D01*
X310000Y190098D01*
D02*
G37*
G36*
X457200Y354348D02*
X455249Y353960D01*
X453595Y352855D01*
X452490Y351201D01*
X452102Y349250D01*
X452490Y347299D01*
X453595Y345645D01*
X455249Y344540D01*
X457200Y344152D01*
X457543Y344220D01*
X538976Y262787D01*
Y77210D01*
X539229Y75942D01*
X539947Y74867D01*
X545809Y69005D01*
X544884Y66771D01*
X544506Y63900D01*
X544884Y61028D01*
X545992Y58352D01*
X547756Y56054D01*
X550053Y54291D01*
X552729Y53183D01*
X555601Y52805D01*
X558472Y53183D01*
X561148Y54291D01*
X563446Y56054D01*
X565209Y58352D01*
X566318Y61028D01*
X566696Y63900D01*
X566318Y66771D01*
X565209Y69447D01*
X563446Y71745D01*
X561148Y73508D01*
X558472Y74616D01*
X555601Y74995D01*
X552729Y74616D01*
X550495Y73691D01*
X545604Y78583D01*
Y82172D01*
X546874Y82604D01*
X547756Y81454D01*
X550053Y79691D01*
X552729Y78583D01*
X555601Y78205D01*
X558472Y78583D01*
X561148Y79691D01*
X563446Y81454D01*
X565209Y83752D01*
X566318Y86428D01*
X566696Y89300D01*
X566318Y92171D01*
X565209Y94847D01*
X563446Y97145D01*
X561148Y98908D01*
X558472Y100016D01*
X555601Y100394D01*
X552729Y100016D01*
X550053Y98908D01*
X547756Y97145D01*
X546874Y95996D01*
X545604Y96427D01*
Y107572D01*
X546874Y108004D01*
X547756Y106854D01*
X550053Y105091D01*
X552729Y103983D01*
X555601Y103605D01*
X558472Y103983D01*
X561148Y105091D01*
X563446Y106854D01*
X565209Y109152D01*
X566318Y111828D01*
X566696Y114700D01*
X566318Y117571D01*
X565209Y120247D01*
X563446Y122545D01*
X561148Y124308D01*
X558472Y125416D01*
X555601Y125794D01*
X552729Y125416D01*
X550053Y124308D01*
X547756Y122545D01*
X546874Y121396D01*
X545604Y121827D01*
Y132972D01*
X546874Y133403D01*
X547754Y132256D01*
X550052Y130493D01*
X552728Y129384D01*
X555599Y129006D01*
X558471Y129384D01*
X561147Y130493D01*
X563444Y132256D01*
X565208Y134554D01*
X566316Y137230D01*
X566694Y140101D01*
X566316Y142973D01*
X565208Y145649D01*
X563444Y147947D01*
X561147Y149710D01*
X558471Y150818D01*
X555599Y151196D01*
X552728Y150818D01*
X550052Y149710D01*
X547754Y147947D01*
X546874Y146799D01*
X545604Y147231D01*
Y158372D01*
X546874Y158803D01*
X547755Y157655D01*
X550052Y155892D01*
X552728Y154784D01*
X555600Y154405D01*
X558471Y154784D01*
X561147Y155892D01*
X563445Y157655D01*
X565208Y159953D01*
X566317Y162629D01*
X566695Y165500D01*
X566317Y168372D01*
X565208Y171048D01*
X563445Y173346D01*
X561147Y175109D01*
X558471Y176217D01*
X555600Y176595D01*
X552728Y176217D01*
X550052Y175109D01*
X547755Y173346D01*
X546874Y172197D01*
X545604Y172629D01*
Y264160D01*
X545351Y265428D01*
X544633Y266503D01*
X462230Y348907D01*
X462298Y349250D01*
X461910Y351201D01*
X460805Y352855D01*
X459151Y353960D01*
X457200Y354348D01*
D02*
G37*
G36*
X114672Y156150D02*
X95172D01*
Y136650D01*
X114672D01*
Y156150D01*
D02*
G37*
G36*
X260000Y167323D02*
X256620Y166991D01*
X253371Y166005D01*
X250376Y164404D01*
X247750Y162250D01*
X245596Y159624D01*
X243995Y156629D01*
X243009Y153380D01*
X242677Y150000D01*
X243009Y146620D01*
X243995Y143371D01*
X245596Y140376D01*
X247750Y137751D01*
X250376Y135596D01*
X253371Y133995D01*
X256620Y133010D01*
X260000Y132677D01*
X263380Y133010D01*
X266629Y133995D01*
X269624Y135596D01*
X272250Y137751D01*
X274404Y140376D01*
X276005Y143371D01*
X276991Y146620D01*
X277323Y150000D01*
X276991Y153380D01*
X276005Y156629D01*
X274404Y159624D01*
X272250Y162250D01*
X269624Y164404D01*
X266629Y166005D01*
X263380Y166991D01*
X260000Y167323D01*
D02*
G37*
G36*
X326999Y151196D02*
X324128Y150818D01*
X321452Y149710D01*
X319154Y147947D01*
X317391Y145649D01*
X316282Y142973D01*
X315904Y140101D01*
X316282Y137230D01*
X317391Y134554D01*
X319154Y132256D01*
X321452Y130493D01*
X324128Y129384D01*
X326999Y129006D01*
X329871Y129384D01*
X332547Y130493D01*
X334844Y132256D01*
X336608Y134554D01*
X337716Y137230D01*
X338094Y140101D01*
X337716Y142973D01*
X336608Y145649D01*
X334844Y147947D01*
X332547Y149710D01*
X329871Y150818D01*
X326999Y151196D01*
D02*
G37*
G36*
X327001Y125794D02*
X324129Y125416D01*
X321453Y124308D01*
X319156Y122545D01*
X317392Y120247D01*
X316284Y117571D01*
X315906Y114700D01*
X316284Y111828D01*
X317392Y109152D01*
X319156Y106854D01*
X321453Y105091D01*
X324129Y103983D01*
X327001Y103605D01*
X329872Y103983D01*
X332548Y105091D01*
X334846Y106854D01*
X336609Y109152D01*
X337718Y111828D01*
X338096Y114700D01*
X337718Y117571D01*
X336609Y120247D01*
X334846Y122545D01*
X332548Y124308D01*
X329872Y125416D01*
X327001Y125794D01*
D02*
G37*
G36*
X252000Y106561D02*
X250147Y106317D01*
X248419Y105602D01*
X246936Y104464D01*
X245798Y102981D01*
X245083Y101253D01*
X244839Y99400D01*
X245083Y97547D01*
X245798Y95819D01*
X246936Y94336D01*
X248419Y93198D01*
X250147Y92483D01*
X252000Y92239D01*
X253853Y92483D01*
X255581Y93198D01*
X257064Y94336D01*
X258202Y95819D01*
X258917Y97547D01*
X259161Y99400D01*
X258917Y101253D01*
X258202Y102981D01*
X257064Y104464D01*
X255581Y105602D01*
X253853Y106317D01*
X252000Y106561D01*
D02*
G37*
G36*
X162000D02*
X160147Y106317D01*
X158419Y105602D01*
X156936Y104464D01*
X155798Y102981D01*
X155083Y101253D01*
X154839Y99400D01*
X155083Y97547D01*
X155798Y95819D01*
X156936Y94336D01*
X158419Y93198D01*
X160147Y92483D01*
X162000Y92239D01*
X163853Y92483D01*
X165581Y93198D01*
X167064Y94336D01*
X168202Y95819D01*
X168917Y97547D01*
X169161Y99400D01*
X168917Y101253D01*
X168202Y102981D01*
X167064Y104464D01*
X165581Y105602D01*
X163853Y106317D01*
X162000Y106561D01*
D02*
G37*
G36*
X222000Y99935D02*
X219429Y99596D01*
X217033Y98604D01*
X214975Y97025D01*
X213396Y94967D01*
X212404Y92571D01*
X212065Y90000D01*
X212404Y87429D01*
X213396Y85033D01*
X214975Y82975D01*
X217033Y81396D01*
X219429Y80403D01*
X222000Y80065D01*
X224571Y80403D01*
X226968Y81396D01*
X229025Y82975D01*
X230604Y85033D01*
X231596Y87429D01*
X231935Y90000D01*
X231596Y92571D01*
X230604Y94967D01*
X229025Y97025D01*
X226968Y98604D01*
X224571Y99596D01*
X222000Y99935D01*
D02*
G37*
G36*
X192000D02*
X189429Y99596D01*
X187033Y98604D01*
X184975Y97025D01*
X183396Y94967D01*
X182404Y92571D01*
X182065Y90000D01*
X182404Y87429D01*
X183396Y85033D01*
X184975Y82975D01*
X187033Y81396D01*
X189429Y80403D01*
X192000Y80065D01*
X194571Y80403D01*
X196968Y81396D01*
X199025Y82975D01*
X200604Y85033D01*
X201596Y87429D01*
X201935Y90000D01*
X201596Y92571D01*
X200604Y94967D01*
X199025Y97025D01*
X196968Y98604D01*
X194571Y99596D01*
X192000Y99935D01*
D02*
G37*
G36*
X327001Y100394D02*
X324129Y100016D01*
X321453Y98908D01*
X319156Y97145D01*
X317392Y94847D01*
X316284Y92171D01*
X315906Y89300D01*
X316284Y86428D01*
X317392Y83752D01*
X319156Y81454D01*
X321453Y79691D01*
X324129Y78583D01*
X327001Y78205D01*
X329872Y78583D01*
X332548Y79691D01*
X334846Y81454D01*
X336609Y83752D01*
X337718Y86428D01*
X338096Y89300D01*
X337718Y92171D01*
X336609Y94847D01*
X334846Y97145D01*
X332548Y98908D01*
X329872Y100016D01*
X327001Y100394D01*
D02*
G37*
G36*
X459100Y91000D02*
X437100D01*
Y69000D01*
X459100D01*
Y91000D01*
D02*
G37*
G36*
X352000Y65098D02*
X350049Y64710D01*
X348395Y63605D01*
X347290Y61951D01*
X346902Y60000D01*
X347290Y58049D01*
X348395Y56395D01*
X350049Y55290D01*
X352000Y54902D01*
X353951Y55290D01*
X355605Y56395D01*
X356710Y58049D01*
X357098Y60000D01*
X356710Y61951D01*
X355605Y63605D01*
X353951Y64710D01*
X352000Y65098D01*
D02*
G37*
G36*
X327001Y74995D02*
X324129Y74616D01*
X321453Y73508D01*
X319156Y71745D01*
X317392Y69447D01*
X316284Y66771D01*
X315906Y63900D01*
X316284Y61028D01*
X317392Y58352D01*
X319156Y56054D01*
X321453Y54291D01*
X324129Y53183D01*
X327001Y52805D01*
X329872Y53183D01*
X332548Y54291D01*
X334846Y56054D01*
X336609Y58352D01*
X337718Y61028D01*
X338096Y63900D01*
X337718Y66771D01*
X336609Y69447D01*
X334846Y71745D01*
X332548Y73508D01*
X329872Y74616D01*
X327001Y74995D01*
D02*
G37*
G36*
X338001Y49500D02*
X316001D01*
Y27500D01*
X338001D01*
Y49500D01*
D02*
G37*
G36*
X22000Y34060D02*
X20173Y33820D01*
X18470Y33115D01*
X17008Y31992D01*
X15885Y30530D01*
X15180Y28827D01*
X14940Y27000D01*
X15180Y25173D01*
X15885Y23470D01*
X17008Y22008D01*
X18470Y20886D01*
X20173Y20180D01*
X22000Y19940D01*
X23827Y20180D01*
X25530Y20886D01*
X26992Y22008D01*
X28115Y23470D01*
X28820Y25173D01*
X29060Y27000D01*
X28820Y28827D01*
X28115Y30530D01*
X26992Y31992D01*
X25530Y33115D01*
X23827Y33820D01*
X22000Y34060D01*
D02*
G37*
G36*
X86497Y31095D02*
X83625Y30717D01*
X80949Y29609D01*
X78651Y27845D01*
X76888Y25547D01*
X75780Y22872D01*
X75402Y20000D01*
X75780Y17128D01*
X76888Y14453D01*
X78651Y12155D01*
X80949Y10391D01*
X83625Y9283D01*
X86497Y8905D01*
X89368Y9283D01*
X92044Y10391D01*
X94342Y12155D01*
X96105Y14453D01*
X97213Y17128D01*
X97591Y20000D01*
X97213Y22872D01*
X96105Y25547D01*
X94342Y27845D01*
X92044Y29609D01*
X89368Y30717D01*
X86497Y31095D01*
D02*
G37*
G36*
X188097Y31094D02*
X185226Y30716D01*
X182550Y29608D01*
X180252Y27845D01*
X178489Y25547D01*
X177380Y22871D01*
X177002Y19999D01*
X177380Y17128D01*
X178489Y14452D01*
X180252Y12154D01*
X182550Y10391D01*
X185226Y9282D01*
X188097Y8904D01*
X190969Y9282D01*
X193645Y10391D01*
X195942Y12154D01*
X197705Y14452D01*
X198814Y17128D01*
X199192Y19999D01*
X198814Y22871D01*
X197705Y25547D01*
X195942Y27845D01*
X193645Y29608D01*
X190969Y30716D01*
X188097Y31094D01*
D02*
G37*
G36*
X390000Y15098D02*
X388049Y14710D01*
X386395Y13605D01*
X385290Y11951D01*
X384902Y10000D01*
X385290Y8049D01*
X386395Y6395D01*
X388049Y5290D01*
X390000Y4902D01*
X391951Y5290D01*
X393605Y6395D01*
X394710Y8049D01*
X395098Y10000D01*
X394710Y11951D01*
X393605Y13605D01*
X391951Y14710D01*
X390000Y15098D01*
D02*
G37*
%LPD*%
G36*
X120686Y494384D02*
Y461000D01*
X120939Y459732D01*
X121657Y458657D01*
X125100Y455214D01*
X124682Y453836D01*
X124049Y453710D01*
X122395Y452605D01*
X121290Y450951D01*
X120902Y449000D01*
X121290Y447049D01*
X122395Y445395D01*
X124049Y444290D01*
X126000Y443902D01*
X127951Y444290D01*
X129605Y445395D01*
X130710Y447049D01*
X130836Y447682D01*
X132214Y448100D01*
X172686Y407627D01*
Y375000D01*
X172939Y373732D01*
X173657Y372657D01*
X246551Y299763D01*
X246483Y299419D01*
X246871Y297468D01*
X247976Y295815D01*
X249388Y294871D01*
X249794Y293480D01*
X220594Y264280D01*
X219951Y264710D01*
X218000Y265098D01*
X216049Y264710D01*
X214395Y263605D01*
X213290Y261951D01*
X212902Y260000D01*
X213017Y259424D01*
X211995Y258048D01*
X211670Y258016D01*
X189850Y279836D01*
X190476Y281006D01*
X191000Y280902D01*
X192951Y281290D01*
X194605Y282395D01*
X195710Y284049D01*
X196098Y286000D01*
X195710Y287951D01*
X194605Y289605D01*
X194314Y289799D01*
Y342201D01*
X194605Y342395D01*
X195710Y344049D01*
X196098Y346000D01*
X195710Y347951D01*
X194605Y349605D01*
X192951Y350710D01*
X191000Y351098D01*
X189049Y350710D01*
X187395Y349605D01*
X186290Y347951D01*
X185902Y346000D01*
X186290Y344049D01*
X187395Y342395D01*
X187686Y342201D01*
Y289799D01*
X187395Y289605D01*
X186290Y287951D01*
X185902Y286000D01*
X186006Y285476D01*
X184836Y284850D01*
X45314Y424373D01*
Y476827D01*
X54451Y485965D01*
X56055Y485301D01*
X58600Y484966D01*
X61145Y485301D01*
X63517Y486283D01*
X65554Y487846D01*
X67117Y489883D01*
X68099Y492255D01*
X68434Y494800D01*
X68099Y497345D01*
X67117Y499717D01*
X65554Y501754D01*
X63517Y503317D01*
X62416Y503773D01*
X62669Y505043D01*
X72156D01*
X73424Y505295D01*
X74499Y506013D01*
X79851Y511365D01*
X81455Y510701D01*
X84000Y510366D01*
X86545Y510701D01*
X88917Y511683D01*
X90954Y513246D01*
X92517Y515283D01*
X93499Y517655D01*
X93746Y519528D01*
X95087Y519983D01*
X120686Y494384D01*
D02*
G37*
G36*
X374475Y462776D02*
X373750Y461691D01*
X373362Y459740D01*
X373750Y457789D01*
X374855Y456135D01*
X375146Y455941D01*
Y452520D01*
X373876Y452135D01*
X373175Y453185D01*
X371521Y454290D01*
X369570Y454678D01*
X367619Y454290D01*
X365965Y453185D01*
X365212Y452057D01*
X363768D01*
X363015Y453185D01*
X361361Y454290D01*
X359410Y454678D01*
X357459Y454290D01*
X355805Y453185D01*
X355304Y452435D01*
X354125Y451915D01*
X353724Y452182D01*
X352471Y453020D01*
X350520Y453408D01*
X348569Y453020D01*
X346915Y451915D01*
X345810Y450261D01*
X345422Y448310D01*
X345810Y446359D01*
X346915Y444705D01*
X347206Y444511D01*
Y435893D01*
X334207Y422893D01*
X333489Y421818D01*
X333236Y420550D01*
Y374650D01*
X333489Y373382D01*
X334207Y372307D01*
X343097Y363417D01*
X344172Y362699D01*
X344753Y362583D01*
X344628Y361313D01*
X330799D01*
X330604Y361604D01*
X328950Y362709D01*
X326999Y363097D01*
X326180Y362934D01*
X325097Y363999D01*
X324709Y365950D01*
X323604Y367604D01*
X323313Y367799D01*
Y434197D01*
X353163Y464046D01*
X373797D01*
X374475Y462776D01*
D02*
G37*
G36*
X98686Y567627D02*
Y559000D01*
X98939Y557732D01*
X99657Y556657D01*
X305514Y350800D01*
X305305Y349213D01*
X304394Y348605D01*
X303859Y347805D01*
X302229Y347639D01*
X300893Y348974D01*
X301097Y349999D01*
X300709Y351950D01*
X299604Y353604D01*
X297950Y354709D01*
X295999Y355097D01*
X294049Y354709D01*
X292395Y353604D01*
X291290Y351950D01*
X290902Y349999D01*
X291290Y348048D01*
X292395Y346395D01*
Y345561D01*
X291411Y344905D01*
X290306Y343251D01*
X289918Y341300D01*
X290306Y339349D01*
X291411Y337695D01*
X293065Y336590D01*
X293685Y336467D01*
X332523Y297628D01*
X331897Y296458D01*
X330647Y296707D01*
X328696Y296319D01*
X328499Y296187D01*
X179900Y444786D01*
X180318Y446164D01*
X180951Y446290D01*
X182605Y447395D01*
X183710Y449049D01*
X184098Y451000D01*
X183710Y452951D01*
X182605Y454605D01*
X180951Y455710D01*
X179000Y456098D01*
X177049Y455710D01*
X175395Y454605D01*
X174290Y452951D01*
X174164Y452318D01*
X172786Y451900D01*
X141314Y483372D01*
Y508000D01*
X141061Y509268D01*
X140343Y510343D01*
X91743Y558943D01*
X90668Y559661D01*
X89400Y559914D01*
X84218D01*
X84135Y561184D01*
X86545Y561501D01*
X88917Y562483D01*
X90954Y564046D01*
X92517Y566083D01*
X93499Y568455D01*
X93797Y570720D01*
X94952Y571362D01*
X98686Y567627D01*
D02*
G37*
G36*
X319307Y286956D02*
X318877Y286005D01*
X318711Y285756D01*
X316819Y285380D01*
X315165Y284275D01*
X314971Y283984D01*
X313690D01*
X312422Y283731D01*
X311347Y283013D01*
X306267Y277933D01*
X305549Y276858D01*
X305296Y275590D01*
Y250293D01*
X298347Y243344D01*
X286788D01*
X286486Y243806D01*
X286300Y244614D01*
X292657Y250970D01*
X293000Y250902D01*
X294951Y251290D01*
X296605Y252395D01*
X297710Y254049D01*
X298098Y256000D01*
X297710Y257951D01*
X296605Y259605D01*
X294951Y260710D01*
X293000Y261098D01*
X291049Y260710D01*
X289395Y259605D01*
X288290Y257951D01*
X287902Y256000D01*
X287970Y255657D01*
X282377Y250064D01*
X219623D01*
X216016Y253670D01*
X216048Y253995D01*
X217424Y255017D01*
X218000Y254902D01*
X219951Y255290D01*
X221605Y256395D01*
X221922Y256870D01*
X222268Y256939D01*
X223343Y257657D01*
X250480Y284794D01*
X251871Y284388D01*
X252815Y282976D01*
X254468Y281871D01*
X256419Y281483D01*
X258370Y281871D01*
X260024Y282976D01*
X261129Y284630D01*
X261517Y286581D01*
X261129Y288531D01*
X260024Y290185D01*
X258612Y291129D01*
X258206Y292519D01*
X260174Y294487D01*
X260892Y295562D01*
X261144Y296831D01*
Y298458D01*
X266182Y303496D01*
X266901Y304571D01*
X267153Y305839D01*
Y334839D01*
X266901Y336107D01*
X266182Y337183D01*
X257548Y345817D01*
X257968Y346797D01*
X259232Y347032D01*
X319307Y286956D01*
D02*
G37*
%LPC*%
G36*
X93750Y479150D02*
X74250D01*
Y459650D01*
X93750D01*
Y479150D01*
D02*
G37*
G36*
X58600Y479234D02*
X56055Y478899D01*
X53683Y477917D01*
X51646Y476354D01*
X50083Y474317D01*
X49101Y471945D01*
X48766Y469400D01*
X49101Y466855D01*
X50083Y464483D01*
X51646Y462446D01*
X53683Y460883D01*
X56055Y459901D01*
X58600Y459566D01*
X61145Y459901D01*
X63517Y460883D01*
X65554Y462446D01*
X67117Y464483D01*
X68099Y466855D01*
X68434Y469400D01*
X68099Y471945D01*
X67117Y474317D01*
X65554Y476354D01*
X63517Y477917D01*
X61145Y478899D01*
X58600Y479234D01*
D02*
G37*
G36*
X109000Y437098D02*
X107049Y436710D01*
X105395Y435605D01*
X104290Y433951D01*
X103902Y432000D01*
X104290Y430049D01*
X105395Y428395D01*
X107049Y427290D01*
X109000Y426902D01*
X109343Y426970D01*
X125657Y410657D01*
X126732Y409939D01*
X128000Y409686D01*
X143201D01*
X143395Y409395D01*
X145049Y408290D01*
X147000Y407902D01*
X148951Y408290D01*
X150605Y409395D01*
X151710Y411049D01*
X152098Y413000D01*
X151710Y414951D01*
X150605Y416605D01*
X148951Y417710D01*
X147000Y418098D01*
X145049Y417710D01*
X143395Y416605D01*
X143201Y416314D01*
X129373D01*
X114030Y431657D01*
X114098Y432000D01*
X113710Y433951D01*
X112605Y435605D01*
X110951Y436710D01*
X109000Y437098D01*
D02*
G37*
G36*
X130800Y354298D02*
X128849Y353910D01*
X127195Y352805D01*
X126090Y351151D01*
X125702Y349200D01*
X126090Y347249D01*
X127195Y345595D01*
X128849Y344490D01*
X130800Y344102D01*
X132395Y344419D01*
X142157Y334657D01*
X143232Y333939D01*
X144500Y333686D01*
X155529D01*
X155726Y333391D01*
X157380Y332286D01*
X159331Y331898D01*
X161282Y332286D01*
X162936Y333391D01*
X164041Y335045D01*
X164429Y336996D01*
X164041Y338946D01*
X162936Y340600D01*
X161282Y341705D01*
X159331Y342093D01*
X157380Y341705D01*
X155726Y340600D01*
X155535Y340314D01*
X145872D01*
X135628Y350558D01*
X135510Y351151D01*
X134405Y352805D01*
X132751Y353910D01*
X130800Y354298D01*
D02*
G37*
G36*
X282000Y286098D02*
X280049Y285710D01*
X278395Y284605D01*
X277290Y282951D01*
X276902Y281000D01*
X277290Y279049D01*
X278395Y277395D01*
X280049Y276290D01*
X282000Y275902D01*
X283951Y276290D01*
X285605Y277395D01*
X286710Y279049D01*
X287098Y281000D01*
X286710Y282951D01*
X285605Y284605D01*
X283951Y285710D01*
X282000Y286098D01*
D02*
G37*
%LPD*%
G36*
X50000Y248000D02*
X25000D01*
Y299000D01*
X50000D01*
Y248000D01*
D02*
G37*
G36*
X91139Y229239D02*
X52139D01*
Y310239D01*
X91139D01*
Y229239D01*
D02*
G37*
%LPC*%
G36*
X61000Y273314D02*
X59732Y273061D01*
X58657Y272343D01*
X57939Y271268D01*
X57686Y270000D01*
X57939Y268732D01*
X58657Y267657D01*
X58957Y267357D01*
X60032Y266639D01*
X61300Y266386D01*
X62568Y266639D01*
X63643Y267357D01*
X64361Y268432D01*
X64614Y269700D01*
X64361Y270968D01*
X63643Y272043D01*
X63343Y272343D01*
X62268Y273061D01*
X61000Y273314D01*
D02*
G37*
%LPD*%
D11*
X32000Y270000D02*
X42000D01*
X146000Y213000D02*
X190000Y257000D01*
X146000Y87496D02*
Y213000D01*
X203000Y185000D02*
X218000Y200000D01*
X203000Y126000D02*
Y185000D01*
X283750Y246750D02*
X293000Y256000D01*
X218250Y246750D02*
X283750D01*
X317500Y250190D02*
Y263048D01*
X313690Y280670D02*
X318770D01*
X308610Y248920D02*
Y275590D01*
X299720Y240030D02*
X308610Y248920D01*
X218648Y240030D02*
X299720D01*
X308610Y275590D02*
X313690Y280670D01*
X115922Y342756D02*
X218648Y240030D01*
X146000Y87496D02*
X213497Y19999D01*
X190000Y113000D02*
X203000Y126000D01*
X104122Y173000D02*
X107946Y176824D01*
X26000Y420999D02*
Y594903D01*
X61097Y630000D01*
X26000Y420999D02*
X97000Y349999D01*
X38000Y492000D02*
X54356Y508356D01*
X38000Y420000D02*
Y492000D01*
Y420000D02*
X108800Y349200D01*
X241896Y17000D02*
X356000D01*
X409550Y70550D02*
Y85550D01*
X356000Y17000D02*
X409550Y70550D01*
X238897Y19999D02*
X241896Y17000D01*
X138000Y482000D02*
X327722Y292278D01*
X138000Y482000D02*
Y508000D01*
X327722Y292278D02*
X329977D01*
X310885Y362266D02*
X331521Y341630D01*
X312420Y369076D02*
Y400000D01*
X135064Y537593D02*
Y537936D01*
X312420Y369076D02*
X312808Y368688D01*
X135064Y537593D02*
X310391Y362266D01*
X310885D01*
X113000Y560000D02*
Y563500D01*
Y560000D02*
X135064Y537936D01*
X221000Y260000D02*
X257831Y296831D01*
X218000Y260000D02*
X221000D01*
X263839Y305839D02*
Y334839D01*
X257831Y296831D02*
Y299831D01*
X263839Y305839D01*
X176000Y375000D02*
X251581Y299419D01*
Y299419D02*
Y299419D01*
X253000Y345679D02*
Y348750D01*
Y345679D02*
X263839Y334839D01*
X191000Y286000D02*
Y346000D01*
X42000Y311000D02*
Y312500D01*
X61000Y270000D02*
X61300Y269700D01*
X42000Y280000D02*
Y289000D01*
Y270000D02*
Y280000D01*
Y260000D02*
Y270000D01*
X159005Y336996D02*
X159331D01*
X176000Y375000D02*
Y409000D01*
X72000Y173000D02*
X104122D01*
X18000Y227000D02*
Y408000D01*
Y227000D02*
X72000Y173000D01*
X54356Y508356D02*
X72156D01*
X115922Y342756D02*
Y342756D01*
X108800Y349200D02*
X109478D01*
X115922Y342756D01*
X42000Y423000D02*
X218250Y246750D01*
X42000Y423000D02*
Y478200D01*
X159000Y337000D02*
X159005Y336996D01*
X132300Y349200D02*
X144500Y337000D01*
X130800Y349200D02*
X132300D01*
X144500Y337000D02*
X159000D01*
X42000Y478200D02*
X58600Y494800D01*
X72156Y508356D02*
X84000Y520200D01*
X124000Y461000D02*
Y495756D01*
Y461000D02*
X176000Y409000D01*
X70100Y543944D02*
X82044Y532000D01*
X87756D02*
X124000Y495756D01*
X82044Y532000D02*
X87756D01*
X128000Y413000D02*
X147000D01*
X109000Y432000D02*
X128000Y413000D01*
X132000Y478949D02*
Y497600D01*
Y478949D02*
X325199Y285750D01*
Y285750D02*
Y285750D01*
X329977Y292278D02*
X330647Y291609D01*
X60256Y543944D02*
X70100D01*
X58600Y545600D02*
X60256Y543944D01*
X84000Y545600D02*
X132000Y497600D01*
X89400Y556600D02*
X138000Y508000D01*
X45000Y563000D02*
X51400Y556600D01*
X89400D01*
X56944Y594744D02*
X58600Y596400D01*
X56944Y584900D02*
Y594744D01*
X45000Y572956D02*
X56944Y584900D01*
X45000Y563000D02*
Y572956D01*
X58600Y571000D02*
X71600Y584000D01*
X87000D01*
X102000Y559000D02*
X309750Y351250D01*
X102000Y559000D02*
Y569000D01*
X87000Y584000D02*
X102000Y569000D01*
X84000Y596400D02*
X106000Y574400D01*
Y561000D02*
Y574400D01*
Y561000D02*
X308734Y358266D01*
X84000Y596400D02*
X84000D01*
X308734Y358266D02*
X309228D01*
X239580Y323750D02*
X257589D01*
X203200Y360131D02*
X239580Y323750D01*
X344338Y317500D02*
X382270D01*
X315950Y345887D02*
Y345888D01*
Y345887D02*
X344338Y317500D01*
X319950Y347544D02*
Y347544D01*
X334754Y332740D02*
X382270D01*
X319950Y347544D02*
X334754Y332740D01*
X331521Y341630D02*
X372110D01*
X332000Y351000D02*
X372590D01*
X427990Y406400D01*
X309750Y351250D02*
X310588D01*
X451000Y127000D02*
Y210000D01*
X376997Y284003D02*
Y284840D01*
Y284003D02*
X451000Y210000D01*
X440000Y208000D02*
Y212000D01*
X428000Y202000D02*
X430367Y199633D01*
X409550Y85550D02*
X451000Y127000D01*
X428000Y202000D02*
Y205911D01*
X353249Y280662D02*
X428000Y205911D01*
X353249Y280662D02*
Y281588D01*
X295999Y349182D02*
X301266Y343915D01*
Y341734D02*
Y343915D01*
Y341734D02*
X413000Y230000D01*
Y229750D02*
Y230000D01*
X395331Y256669D02*
X440000Y212000D01*
X395331Y256669D02*
Y257668D01*
X307999Y345000D02*
X395331Y257668D01*
X307999Y345000D02*
Y345000D01*
X295016Y339821D02*
Y341300D01*
Y339821D02*
X353249Y281588D01*
X295999Y349182D02*
Y349999D01*
X436880Y266700D02*
Y294640D01*
X337859Y278862D02*
X338221Y278500D01*
X333313Y278862D02*
X337859D01*
X317500Y263048D02*
X333313Y278862D01*
X310588Y351250D02*
X315950Y345888D01*
X309228Y358266D02*
X319950Y347544D01*
X326999Y357999D02*
X371969D01*
X319999Y363999D02*
Y435569D01*
X367030Y365760D02*
X373380D01*
X345440D02*
X351790D01*
X362919Y298919D02*
X376997Y284840D01*
X371969Y357999D02*
X447040Y433070D01*
X319999Y435569D02*
X351790Y467360D01*
X188055Y414055D02*
X188998D01*
X191419Y411633D01*
X203200Y360131D02*
Y381000D01*
X191419Y368419D02*
Y411633D01*
X359410Y423410D02*
Y449580D01*
X351000Y415000D02*
X359410Y423410D01*
X213497Y629999D02*
X230748Y612748D01*
X162697Y587303D02*
X215000Y535000D01*
X188097Y629999D02*
X223048Y595048D01*
X450400Y480000D02*
Y515000D01*
X270000Y10000D02*
X300000D01*
X330000D02*
X360000D01*
X330000Y640000D02*
X370000D01*
X410000D02*
X450000D01*
X490000D02*
X530000D01*
X560000Y560000D02*
Y600000D01*
Y480000D02*
Y520000D01*
X387677Y454000D02*
X400000D01*
X385676Y452000D02*
X387677Y454000D01*
X217000Y495420D02*
X312420Y400000D01*
X137160Y595630D02*
X217000Y515790D01*
Y495420D02*
Y515790D01*
X206759Y492241D02*
X206759D01*
X111896Y587104D02*
X206759Y492241D01*
X439420Y353060D02*
X530000Y262480D01*
Y64100D02*
X547851Y46250D01*
X530000Y64100D02*
Y262480D01*
X547851Y46250D02*
X555601Y38500D01*
X547851Y46250D02*
X547851D01*
X385000Y452000D02*
X385676D01*
X336550Y374650D02*
Y420550D01*
X350520Y434520D02*
Y448310D01*
X336550Y420550D02*
X350520Y434520D01*
X146000Y570000D02*
X146000D01*
X206000Y510000D01*
X111896Y587104D02*
Y630000D01*
X162697Y587303D02*
Y629999D01*
X137160Y629865D02*
X137295Y630001D01*
X137160Y595630D02*
Y629865D01*
X487680Y467360D02*
X495300Y459740D01*
X351790Y467360D02*
X487680D01*
X447040Y433070D02*
X495300D01*
X427990Y406400D02*
X495300D01*
X383540Y353060D02*
X439420D01*
X542290Y77210D02*
Y264160D01*
X457200Y349250D02*
X542290Y264160D01*
Y77210D02*
X555601Y63900D01*
X378460Y370840D02*
Y459740D01*
X373380Y365760D02*
X378460Y370840D01*
X336550Y374650D02*
X345440Y365760D01*
X355600Y407670D02*
X369570Y421640D01*
Y449580D01*
X412750Y318770D02*
X436880Y294640D01*
D15*
X42000Y270000D02*
D03*
X61000D02*
D03*
D18*
X42000Y289000D02*
D03*
Y311000D02*
D03*
D28*
X320000Y560000D02*
D03*
X22000Y27000D02*
D03*
X548000Y332000D02*
D03*
D46*
X222000Y60000D02*
D03*
D47*
X192000D02*
D03*
X222000Y90000D02*
D03*
X192000D02*
D03*
D48*
X162000Y99400D02*
D03*
X252000D02*
D03*
D57*
X102206Y96525D02*
X102475D01*
X60425Y97575D02*
X101157D01*
X102475Y96525D02*
X137295Y61705D01*
X10000Y148000D02*
X60425Y97575D01*
X101157D02*
X102206Y96525D01*
X176000Y227000D02*
X245000D01*
X10000Y148000D02*
Y412000D01*
X209403Y129000D02*
X244000D01*
X209252Y128849D02*
X209403Y129000D01*
X137295Y20001D02*
Y61705D01*
X10000Y609000D02*
X21000Y620000D01*
X10000Y412000D02*
Y609000D01*
X560000Y310000D02*
Y350000D01*
Y230000D02*
Y270000D01*
D58*
X45499Y315999D02*
X65000D01*
X42000Y312500D02*
X45499Y315999D01*
D59*
X104922Y338200D02*
D03*
Y310800D02*
D03*
Y283400D02*
D03*
Y256000D02*
D03*
Y228600D02*
D03*
Y201200D02*
D03*
Y173800D02*
D03*
X76522Y324500D02*
D03*
Y297100D02*
D03*
Y269700D02*
D03*
Y160100D02*
D03*
Y187500D02*
D03*
Y242300D02*
D03*
Y214900D02*
D03*
X84000Y494800D02*
D03*
Y520200D02*
D03*
Y545600D02*
D03*
Y571000D02*
D03*
Y596400D02*
D03*
X58600Y469400D02*
D03*
Y494800D02*
D03*
Y520200D02*
D03*
Y545600D02*
D03*
Y571000D02*
D03*
Y596400D02*
D03*
D60*
X104922Y146400D02*
D03*
X84000Y469400D02*
D03*
D61*
X91000Y409000D02*
D03*
Y75800D02*
D03*
D62*
X327000Y165500D02*
D03*
X326999Y140101D02*
D03*
X327001Y114700D02*
D03*
Y89300D02*
D03*
Y63900D02*
D03*
X422700Y80000D02*
D03*
X397300D02*
D03*
X371900D02*
D03*
X61097Y630000D02*
D03*
X86497D02*
D03*
X213497Y629999D02*
D03*
X188097D02*
D03*
X162697D02*
D03*
X137295Y630001D02*
D03*
X111896Y630000D02*
D03*
X543500Y600000D02*
D03*
X518101Y599999D02*
D03*
X492700Y600001D02*
D03*
X467300D02*
D03*
X441900D02*
D03*
X61097Y20000D02*
D03*
X86497D02*
D03*
X213497Y19999D02*
D03*
X188097D02*
D03*
X162697D02*
D03*
X137295Y20001D02*
D03*
X111896Y20000D02*
D03*
X555601Y63900D02*
D03*
Y89300D02*
D03*
Y114700D02*
D03*
X555599Y140101D02*
D03*
X555600Y165500D02*
D03*
D63*
X327001Y38500D02*
D03*
X555601D02*
D03*
D64*
X448100Y80000D02*
D03*
X238897Y629999D02*
D03*
X416500Y600001D02*
D03*
X238897Y19999D02*
D03*
D65*
X400000Y550000D02*
D03*
X510000Y100000D02*
D03*
X260000Y150000D02*
D03*
Y520000D02*
D03*
D66*
X450400Y515000D02*
D03*
Y545000D02*
D03*
X480400Y515000D02*
D03*
D67*
Y545000D02*
D03*
D68*
X523600Y530000D02*
D03*
D69*
X32000Y280000D02*
D03*
Y260000D02*
D03*
Y270000D02*
D03*
X245000Y227000D02*
D03*
X248000Y206000D02*
D03*
X190000Y257000D02*
D03*
X218000Y200000D02*
D03*
X293000Y256000D02*
D03*
X317500Y250190D02*
D03*
X139750Y97000D02*
D03*
X190000Y113000D02*
D03*
X116000Y97000D02*
D03*
X244000Y129000D02*
D03*
X209252Y128849D02*
D03*
X352000Y26249D02*
D03*
Y60000D02*
D03*
X450400Y480000D02*
D03*
X383540Y353060D02*
D03*
X382270Y332740D02*
D03*
X319999Y363999D02*
D03*
X251581Y299419D02*
D03*
X318770Y280670D02*
D03*
X351000Y415000D02*
D03*
X295016Y341300D02*
D03*
X412750Y318770D02*
D03*
X338221Y278500D02*
D03*
X307999Y345000D02*
D03*
X362919Y298919D02*
D03*
X257589Y323750D02*
D03*
X372110Y341630D02*
D03*
X326999Y357999D02*
D03*
X393000Y280000D02*
D03*
X295999Y349999D02*
D03*
X325199Y285750D02*
D03*
X346999Y278999D02*
D03*
X367030Y365760D02*
D03*
X382270Y317500D02*
D03*
X457200Y349250D02*
D03*
X312808Y368688D02*
D03*
X282000Y281000D02*
D03*
X355600Y407670D02*
D03*
X332000Y351000D02*
D03*
X330647Y291609D02*
D03*
X351790Y365760D02*
D03*
X297248Y384248D02*
D03*
X126000Y449000D02*
D03*
X179000Y451000D02*
D03*
X218000Y260000D02*
D03*
X253000Y348750D02*
D03*
X191000Y346000D02*
D03*
Y286000D02*
D03*
X173000Y344000D02*
D03*
X65000Y315999D02*
D03*
X42000Y280000D02*
D03*
Y260000D02*
D03*
X159331Y336996D02*
D03*
X97000Y349999D02*
D03*
X252999Y438999D02*
D03*
X256419Y286581D02*
D03*
X299000Y508000D02*
D03*
X130800Y349200D02*
D03*
X10000Y412000D02*
D03*
X18000Y408000D02*
D03*
X274000Y377000D02*
D03*
X109000Y432000D02*
D03*
X113000Y563500D02*
D03*
X352000Y48000D02*
D03*
X265000Y419000D02*
D03*
X236000Y450000D02*
D03*
X430367Y199633D02*
D03*
X440000Y208000D02*
D03*
X413000Y229750D02*
D03*
X455000Y260000D02*
D03*
X436880Y266700D02*
D03*
X428000Y268000D02*
D03*
X405000Y270000D02*
D03*
X495000Y193000D02*
D03*
X368000Y233000D02*
D03*
X385000Y238000D02*
D03*
X275306Y368855D02*
D03*
X247081Y397081D02*
D03*
X235081Y409081D02*
D03*
X154555Y447555D02*
D03*
X188055Y414055D02*
D03*
X255000Y268000D02*
D03*
X328000Y185000D02*
D03*
X291000Y205000D02*
D03*
X302000Y213000D02*
D03*
X338000Y200000D02*
D03*
X310000Y185000D02*
D03*
X319000Y200000D02*
D03*
X137000Y355000D02*
D03*
X191419Y368419D02*
D03*
X230748Y612748D02*
D03*
X215000Y535000D02*
D03*
X223000Y595000D02*
D03*
X270000Y10000D02*
D03*
X300000D02*
D03*
X330000D02*
D03*
X360000D02*
D03*
X390000D02*
D03*
X290000Y640000D02*
D03*
X330000D02*
D03*
X370000D02*
D03*
X410000D02*
D03*
X450000D02*
D03*
X490000D02*
D03*
X530000D02*
D03*
X560000D02*
D03*
Y600000D02*
D03*
Y560000D02*
D03*
Y520000D02*
D03*
Y480000D02*
D03*
Y390000D02*
D03*
Y350000D02*
D03*
Y310000D02*
D03*
Y270000D02*
D03*
Y230000D02*
D03*
Y190000D02*
D03*
X386000Y410000D02*
D03*
X273000Y428000D02*
D03*
X263000Y430000D02*
D03*
X137000Y429000D02*
D03*
X400000Y454000D02*
D03*
X330000Y487000D02*
D03*
X314000D02*
D03*
X304000Y467000D02*
D03*
X361000Y476000D02*
D03*
X352000D02*
D03*
X283000Y403000D02*
D03*
X359000Y400000D02*
D03*
X367000Y410000D02*
D03*
X436000Y339000D02*
D03*
X419000D02*
D03*
X418000Y297000D02*
D03*
X427000Y287000D02*
D03*
X352000Y37000D02*
D03*
X163000Y433000D02*
D03*
X314000Y456000D02*
D03*
X332000Y437000D02*
D03*
X330000Y507000D02*
D03*
X314000D02*
D03*
X206759Y492241D02*
D03*
X147000Y413000D02*
D03*
X137000Y405000D02*
D03*
X385000Y452000D02*
D03*
X21000Y620000D02*
D03*
X137000Y380000D02*
D03*
X469000Y395000D02*
D03*
X448000Y328000D02*
D03*
X427976Y328123D02*
D03*
X470001Y299040D02*
D03*
X283000Y220000D02*
D03*
X352000Y485000D02*
D03*
X363000Y501000D02*
D03*
X355000D02*
D03*
X344000D02*
D03*
X395000Y400000D02*
D03*
X561000Y425000D02*
D03*
Y450000D02*
D03*
X146000Y570000D02*
D03*
X206000Y510000D02*
D03*
X495300Y459740D02*
D03*
Y433070D02*
D03*
Y406400D02*
D03*
X203200Y381000D02*
D03*
X378460Y459740D02*
D03*
X350520Y448310D02*
D03*
X369570Y449580D02*
D03*
X359410D02*
D03*
D70*
X176000Y151000D02*
D03*
Y227000D02*
D03*
M02*
