G04*
G04 #@! TF.GenerationSoftware,Altium Limited,Altium Designer,20.2.6 (244)*
G04*
G04 Layer_Color=32896*
%FSLAX44Y44*%
%MOMM*%
G71*
G04*
G04 #@! TF.SameCoordinates,C4BD39D4-7D46-4A15-92C5-5DF00FED93ED*
G04*
G04*
G04 #@! TF.FilePolarity,Positive*
G04*
G01*
G75*
%ADD13C,0.1000*%
D13*
X48000Y275000D02*
X55000D01*
X48000Y265000D02*
X55000D01*
X46000Y287250D02*
X48500D01*
Y312750D01*
X46000D02*
X48500D01*
X35500D02*
X38000D01*
X35500Y287250D02*
Y312750D01*
Y287250D02*
X38000D01*
X463340Y67936D02*
Y92067D01*
X356660Y67936D02*
X463340D01*
X356660D02*
Y92067D01*
X463340D01*
X254135Y617936D02*
Y642066D01*
X45855D02*
X254135D01*
X45855Y617936D02*
Y642066D01*
Y617936D02*
X254135D01*
X401262Y612064D02*
X558742D01*
Y587933D02*
Y612064D01*
X401262Y587933D02*
X558742D01*
X401262D02*
Y612064D01*
X254135Y7936D02*
Y32066D01*
X45855D02*
X254135D01*
X45855Y7936D02*
Y32066D01*
Y7936D02*
X254135D01*
X178000Y87997D02*
X171336D01*
X174668D01*
Y78000D01*
X168003Y87997D02*
X161339Y78000D01*
Y87997D02*
X168003Y78000D01*
X253000D02*
Y87997D01*
X248002D01*
X246336Y86331D01*
Y82998D01*
X248002Y81332D01*
X253000D01*
X249668D02*
X246336Y78000D01*
X243003Y87997D02*
X236339Y78000D01*
Y87997D02*
X243003Y78000D01*
X182101Y62763D02*
X180435Y64429D01*
X177103D01*
X175437Y62763D01*
Y61096D01*
X177103Y59430D01*
X178769D01*
X177103D01*
X175437Y57764D01*
Y56098D01*
X177103Y54432D01*
X180435D01*
X182101Y56098D01*
X172104Y64429D02*
Y57764D01*
X168772Y54432D01*
X165440Y57764D01*
Y64429D01*
X162108Y62763D02*
X160441Y64429D01*
X157109D01*
X155443Y62763D01*
Y61096D01*
X157109Y59430D01*
X158775D01*
X157109D01*
X155443Y57764D01*
Y56098D01*
X157109Y54432D01*
X160441D01*
X162108Y56098D01*
X253335Y63331D02*
X255002Y64997D01*
X258334D01*
X260000Y63331D01*
Y56666D01*
X258334Y55000D01*
X255002D01*
X253335Y56666D01*
Y59998D01*
X256668D01*
X250003Y55000D02*
Y64997D01*
X243339Y55000D01*
Y64997D01*
X240007D02*
Y55000D01*
X235008D01*
X233342Y56666D01*
Y63331D01*
X235008Y64997D01*
X240007D01*
X134436Y342147D02*
X136102Y343813D01*
X139435D01*
X141101Y342147D01*
Y335483D01*
X139435Y333817D01*
X136102D01*
X134436Y335483D01*
Y338815D01*
X137769D01*
X131104Y333817D02*
Y343813D01*
X124440Y333817D01*
Y343813D01*
X121107D02*
Y333817D01*
X116109D01*
X114443Y335483D01*
Y342147D01*
X116109Y343813D01*
X121107D01*
X162000Y306000D02*
Y315997D01*
X157002D01*
X155336Y314331D01*
Y310998D01*
X157002Y309332D01*
X162000D01*
X152003Y306000D02*
Y315997D01*
X147005D01*
X145339Y314331D01*
Y310998D01*
X147005Y309332D01*
X152003D01*
X148671D02*
X145339Y306000D01*
X137008Y315997D02*
X140340D01*
X142006Y314331D01*
Y307666D01*
X140340Y306000D01*
X137008D01*
X135342Y307666D01*
Y314331D01*
X137008Y315997D01*
X132010Y306000D02*
Y315997D01*
X127011D01*
X125345Y314331D01*
Y310998D01*
X127011Y309332D01*
X132010D01*
X115348Y306000D02*
X122013D01*
X115348Y312665D01*
Y314331D01*
X117015Y315997D01*
X120347D01*
X122013Y314331D01*
X162000Y277000D02*
Y286997D01*
X157002D01*
X155336Y285331D01*
Y281998D01*
X157002Y280332D01*
X162000D01*
X152003Y277000D02*
Y286997D01*
X147005D01*
X145339Y285331D01*
Y281998D01*
X147005Y280332D01*
X152003D01*
X148671D02*
X145339Y277000D01*
X137008Y286997D02*
X140340D01*
X142006Y285331D01*
Y278666D01*
X140340Y277000D01*
X137008D01*
X135342Y278666D01*
Y285331D01*
X137008Y286997D01*
X132010Y277000D02*
Y286997D01*
X127011D01*
X125345Y285331D01*
Y281998D01*
X127011Y280332D01*
X132010D01*
X122013Y285331D02*
X120347Y286997D01*
X117015D01*
X115348Y285331D01*
Y283664D01*
X117015Y281998D01*
X118681D01*
X117015D01*
X115348Y280332D01*
Y278666D01*
X117015Y277000D01*
X120347D01*
X122013Y278666D01*
X190000Y260663D02*
Y250666D01*
Y253998D01*
X183335Y260663D01*
X188334Y255665D01*
X183335Y250666D01*
X180003Y260663D02*
Y250666D01*
X173339D01*
X170006Y260663D02*
Y250666D01*
X165008D01*
X163342Y252332D01*
Y253998D01*
X165008Y255665D01*
X170006D01*
X165008D01*
X163342Y257331D01*
Y258997D01*
X165008Y260663D01*
X170006D01*
X160010Y249000D02*
X153345D01*
X143348Y258997D02*
X145014Y260663D01*
X148347D01*
X150013Y258997D01*
Y252332D01*
X148347Y250666D01*
X145014D01*
X143348Y252332D01*
X140016Y260663D02*
X133352D01*
X136684D01*
Y250666D01*
X130019D02*
Y260663D01*
X125021D01*
X123355Y258997D01*
Y255665D01*
X125021Y253998D01*
X130019D01*
X126687D02*
X123355Y250666D01*
X120022Y260663D02*
Y250666D01*
X113358D01*
X135436Y232147D02*
X137102Y233813D01*
X140435D01*
X142101Y232147D01*
Y225483D01*
X140435Y223817D01*
X137102D01*
X135436Y225483D01*
Y228815D01*
X138769D01*
X132104Y223817D02*
Y233813D01*
X125440Y223817D01*
Y233813D01*
X122107D02*
Y223817D01*
X117109D01*
X115443Y225483D01*
Y232147D01*
X117109Y233813D01*
X122107D01*
X135436Y205147D02*
X137102Y206813D01*
X140435D01*
X142101Y205147D01*
Y198483D01*
X140435Y196817D01*
X137102D01*
X135436Y198483D01*
Y201815D01*
X138769D01*
X132104Y196817D02*
Y206813D01*
X125440Y196817D01*
Y206813D01*
X122107D02*
Y196817D01*
X117109D01*
X115443Y198483D01*
Y205147D01*
X117109Y206813D01*
X122107D01*
X174335Y177331D02*
X176002Y178997D01*
X179334D01*
X181000Y177331D01*
Y175665D01*
X179334Y173998D01*
X176002D01*
X174335Y172332D01*
Y170666D01*
X176002Y169000D01*
X179334D01*
X181000Y170666D01*
X166005Y178997D02*
X169337D01*
X171003Y177331D01*
Y170666D01*
X169337Y169000D01*
X166005D01*
X164339Y170666D01*
Y177331D01*
X166005Y178997D01*
X161006D02*
Y169000D01*
X154342D01*
X144345Y177331D02*
X146011Y178997D01*
X149344D01*
X151010Y177331D01*
Y170666D01*
X149344Y169000D01*
X146011D01*
X144345Y170666D01*
X141013Y178997D02*
X134348D01*
X137681D01*
Y169000D01*
X131016D02*
Y178997D01*
X126018D01*
X124352Y177331D01*
Y173998D01*
X126018Y172332D01*
X131016D01*
X127684D02*
X124352Y169000D01*
X121019Y178997D02*
Y169000D01*
X114355D01*
X180000Y142000D02*
Y151997D01*
X176668Y148665D01*
X173335Y151997D01*
Y142000D01*
X170003D02*
Y148665D01*
X166671Y151997D01*
X163339Y148665D01*
Y142000D01*
Y146998D01*
X170003D01*
X160006Y151997D02*
X156674D01*
X158340D01*
Y142000D01*
X160006D01*
X156674D01*
X151676D02*
Y151997D01*
X145011Y142000D01*
Y151997D01*
X141679D02*
Y142000D01*
X136681D01*
X135014Y143666D01*
Y145332D01*
X136681Y146998D01*
X141679D01*
X136681D01*
X135014Y148665D01*
Y150331D01*
X136681Y151997D01*
X141679D01*
X131682Y142000D02*
Y148665D01*
X128350Y151997D01*
X125018Y148665D01*
Y142000D01*
Y146998D01*
X131682D01*
X121685Y151997D02*
X115021D01*
X118353D01*
Y142000D01*
X66101Y164813D02*
Y154817D01*
X59436D01*
X56104D02*
Y161481D01*
X52772Y164813D01*
X49440Y161481D01*
Y154817D01*
Y159815D01*
X56104D01*
X46107Y164813D02*
Y156483D01*
X44441Y154817D01*
X41109D01*
X39443Y156483D01*
Y164813D01*
X36110Y154817D02*
Y164813D01*
X29446Y154817D01*
Y164813D01*
X19449Y163147D02*
X21115Y164813D01*
X24448D01*
X26114Y163147D01*
Y156483D01*
X24448Y154817D01*
X21115D01*
X19449Y156483D01*
X16117Y164813D02*
Y154817D01*
Y159815D01*
X9452D01*
Y164813D01*
Y154817D01*
X59436Y190147D02*
X61102Y191813D01*
X64435D01*
X66101Y190147D01*
Y183483D01*
X64435Y181817D01*
X61102D01*
X59436Y183483D01*
Y186815D01*
X62769D01*
X56104Y181817D02*
Y191813D01*
X49440Y181817D01*
Y191813D01*
X46107D02*
Y181817D01*
X41109D01*
X39443Y183483D01*
Y190147D01*
X41109Y191813D01*
X46107D01*
X59436Y218147D02*
X61102Y219813D01*
X64435D01*
X66101Y218147D01*
Y211483D01*
X64435Y209816D01*
X61102D01*
X59436Y211483D01*
Y214815D01*
X62769D01*
X56104Y209816D02*
Y219813D01*
X49440Y209816D01*
Y219813D01*
X46107D02*
Y209816D01*
X41109D01*
X39443Y211483D01*
Y218147D01*
X41109Y219813D01*
X46107D01*
X66000Y293000D02*
X64334D01*
X65167D01*
Y297998D01*
X66000Y297165D01*
X58502Y293000D02*
X61835D01*
X58502Y296332D01*
Y297165D01*
X59335Y297998D01*
X61002D01*
X61835Y297165D01*
X56836Y297998D02*
Y294666D01*
X55170Y293000D01*
X53504Y294666D01*
Y297998D01*
X66101Y319817D02*
Y329813D01*
X61102D01*
X59436Y328147D01*
Y324815D01*
X61102Y323149D01*
X66101D01*
X56104Y319817D02*
Y329813D01*
X51106D01*
X49440Y328147D01*
Y324815D01*
X51106Y323149D01*
X56104D01*
X52772D02*
X49440Y319817D01*
X41109Y329813D02*
X44441D01*
X46107Y328147D01*
Y321483D01*
X44441Y319817D01*
X41109D01*
X39443Y321483D01*
Y328147D01*
X41109Y329813D01*
X36110Y319817D02*
Y329813D01*
X31112D01*
X29446Y328147D01*
Y324815D01*
X31112Y323149D01*
X36110D01*
X26114Y319817D02*
X22782D01*
X24448D01*
Y329813D01*
X26114Y328147D01*
X455997Y487000D02*
Y493664D01*
Y490332D01*
X446000D01*
X455997Y496997D02*
X446000Y503661D01*
X455997D02*
X446000Y496997D01*
X445000Y557000D02*
X454997D01*
Y561998D01*
X453331Y563665D01*
X449998D01*
X448332Y561998D01*
Y557000D01*
Y560332D02*
X445000Y563665D01*
X454997Y566997D02*
X445000Y573661D01*
X454997D02*
X445000Y566997D01*
X485997Y562664D02*
Y556000D01*
X480998D01*
X482664Y559332D01*
Y560998D01*
X480998Y562664D01*
X477666D01*
X476000Y560998D01*
Y557666D01*
X477666Y556000D01*
X485997Y565997D02*
X479332D01*
X476000Y569329D01*
X479332Y572661D01*
X485997D01*
X482331Y484664D02*
X483997Y482998D01*
Y479666D01*
X482331Y478000D01*
X475666D01*
X474000Y479666D01*
Y482998D01*
X475666Y484664D01*
X478998D01*
Y481332D01*
X474000Y487997D02*
X483997D01*
X474000Y494661D01*
X483997D01*
Y497994D02*
X474000D01*
Y502992D01*
X475666Y504658D01*
X482331D01*
X483997Y502992D01*
Y497994D01*
X38000Y253998D02*
X44665D01*
Y249000D01*
X41332D01*
X44665D01*
Y244002D01*
X34668D02*
X31335D01*
X33002D01*
Y253998D01*
X34668Y252332D01*
X22002Y303664D02*
X31998D01*
Y298666D01*
X30332Y297000D01*
X23668D01*
X22002Y298666D01*
Y303664D01*
X31998Y293668D02*
Y290336D01*
Y292002D01*
X22002D01*
X23668Y293668D01*
X36586Y634247D02*
X39918D01*
X38252D01*
Y625916D01*
X39918Y624250D01*
X41584D01*
X43250Y625916D01*
X26589Y634247D02*
X29921Y632581D01*
X33253Y629248D01*
Y625916D01*
X31587Y624250D01*
X28255D01*
X26589Y625916D01*
Y627582D01*
X28255Y629248D01*
X33253D01*
X36335Y15997D02*
X39668D01*
X38002D01*
Y7666D01*
X39668Y6000D01*
X41334D01*
X43000Y7666D01*
X26339Y15997D02*
X33003D01*
Y10998D01*
X29671Y12665D01*
X28005D01*
X26339Y10998D01*
Y7666D01*
X28005Y6000D01*
X31337D01*
X33003Y7666D01*
X523835Y624497D02*
X527168D01*
X525502D01*
Y616166D01*
X527168Y614500D01*
X528834D01*
X530500Y616166D01*
X515505Y614500D02*
Y624497D01*
X520503Y619498D01*
X513839D01*
X367336Y104997D02*
X370668D01*
X369002D01*
Y96666D01*
X370668Y95000D01*
X372334D01*
X374000Y96666D01*
X364003Y103331D02*
X362337Y104997D01*
X359005D01*
X357339Y103331D01*
Y101664D01*
X359005Y99998D01*
X360671D01*
X359005D01*
X357339Y98332D01*
Y96666D01*
X359005Y95000D01*
X362337D01*
X364003Y96666D01*
M02*
