G04*
G04 #@! TF.GenerationSoftware,Altium Limited,Altium Designer,20.2.6 (244)*
G04*
G04 Layer_Physical_Order=3*
G04 Layer_Color=16440176*
%FSLAX44Y44*%
%MOMM*%
G71*
G04*
G04 #@! TF.SameCoordinates,C4BD39D4-7D46-4A15-92C5-5DF00FED93ED*
G04*
G04*
G04 #@! TF.FilePolarity,Positive*
G04*
G01*
G75*
%ADD59C,1.5500*%
%ADD62C,1.8000*%
%ADD69C,0.6000*%
G36*
X201000Y455000D02*
X201000Y394000D01*
X105713D01*
X105281Y395270D01*
X107501Y397974D01*
X109335Y401405D01*
X110464Y405128D01*
X110845Y409000D01*
X110464Y412872D01*
X109335Y416595D01*
X107501Y420026D01*
X105033Y423033D01*
X102026Y425501D01*
X98595Y427335D01*
X94872Y428464D01*
X91000Y428845D01*
X87128Y428464D01*
X83405Y427335D01*
X79974Y425501D01*
X76967Y423033D01*
X74499Y420026D01*
X72665Y416595D01*
X71536Y412872D01*
X71154Y409000D01*
X71536Y405128D01*
X72665Y401405D01*
X74499Y397974D01*
X76719Y395270D01*
X76287Y394000D01*
X60000D01*
Y316492D01*
X59902Y315999D01*
X60000Y315506D01*
X60000Y80039D01*
X70402D01*
X71447Y78769D01*
X71154Y75800D01*
X71536Y71928D01*
X72665Y68205D01*
X74499Y64774D01*
X76967Y61767D01*
X79974Y59299D01*
X83405Y57465D01*
X87128Y56336D01*
X91000Y55954D01*
X94872Y56336D01*
X98595Y57465D01*
X102026Y59299D01*
X105033Y61767D01*
X107501Y64774D01*
X109335Y68205D01*
X110464Y71928D01*
X110845Y75800D01*
X110553Y78769D01*
X111598Y80039D01*
X309987Y80039D01*
X310033Y115000D01*
X315642D01*
X315906Y114700D01*
X316284Y111828D01*
X317392Y109152D01*
X319156Y106854D01*
X321453Y105091D01*
X324129Y103983D01*
X327001Y103605D01*
X329872Y103983D01*
X332548Y105091D01*
X334846Y106854D01*
X336609Y109152D01*
X337718Y111828D01*
X338096Y114700D01*
X338359Y115000D01*
X385000Y115000D01*
X385000Y90000D01*
X376502Y90000D01*
X374772Y90717D01*
X371900Y91095D01*
X369028Y90717D01*
X367298Y90000D01*
X360000Y90000D01*
Y15098D01*
X358049Y14710D01*
X356395Y13605D01*
X355290Y11951D01*
X354902Y10000D01*
X355290Y8049D01*
X356395Y6395D01*
X358049Y5290D01*
X360000Y4902D01*
Y39D01*
X-39D01*
X-39Y455000D01*
X201000Y455000D01*
D02*
G37*
G36*
X570000Y0D02*
X370000D01*
Y68192D01*
X370955Y69029D01*
X371900Y68905D01*
X374772Y69283D01*
X377448Y70392D01*
X379745Y72155D01*
X381508Y74453D01*
X382617Y77128D01*
X382995Y80000D01*
X386205D01*
X386583Y77128D01*
X387691Y74453D01*
X389455Y72155D01*
X391753Y70392D01*
X394428Y69283D01*
X397300Y68905D01*
X400172Y69283D01*
X402848Y70392D01*
X405145Y72155D01*
X406908Y74453D01*
X408017Y77128D01*
X408395Y80000D01*
X408017Y82872D01*
X406908Y85547D01*
X405145Y87845D01*
X402848Y89608D01*
X400172Y90717D01*
X397300Y91095D01*
X395955Y90918D01*
X395000Y91755D01*
Y125000D01*
X330878D01*
X329872Y125416D01*
X327001Y125794D01*
X324129Y125416D01*
X323124Y125000D01*
X300000D01*
Y90000D01*
X231935D01*
X231596Y92571D01*
X230604Y94967D01*
X229025Y97025D01*
X226968Y98604D01*
X224571Y99596D01*
X222000Y99935D01*
X219429Y99596D01*
X217033Y98604D01*
X214975Y97025D01*
X213396Y94967D01*
X212404Y92571D01*
X212065Y90000D01*
X201935D01*
X201596Y92571D01*
X200604Y94967D01*
X199025Y97025D01*
X196968Y98604D01*
X194571Y99596D01*
X192000Y99935D01*
X189429Y99596D01*
X187033Y98604D01*
X184975Y97025D01*
X183396Y94967D01*
X182404Y92571D01*
X182065Y90000D01*
X104829D01*
X102026Y92301D01*
X98595Y94135D01*
X94872Y95264D01*
X91000Y95646D01*
X87128Y95264D01*
X83405Y94135D01*
X79974Y92301D01*
X77171Y90000D01*
X70000D01*
Y151379D01*
X71139Y151941D01*
X71605Y151583D01*
X73977Y150601D01*
X76522Y150266D01*
X79067Y150601D01*
X81439Y151583D01*
X83476Y153146D01*
X85039Y155183D01*
X86021Y157555D01*
X86356Y160100D01*
X86021Y162645D01*
X85039Y165017D01*
X83476Y167054D01*
X81439Y168617D01*
X79067Y169599D01*
X76522Y169934D01*
X73977Y169599D01*
X71605Y168617D01*
X71139Y168259D01*
X70000Y168821D01*
Y178779D01*
X71139Y179341D01*
X71605Y178983D01*
X73977Y178001D01*
X76522Y177666D01*
X79067Y178001D01*
X81439Y178983D01*
X83476Y180546D01*
X85039Y182583D01*
X86021Y184955D01*
X86356Y187500D01*
X86021Y190045D01*
X85039Y192417D01*
X83476Y194454D01*
X81439Y196017D01*
X79067Y196999D01*
X76522Y197334D01*
X73977Y196999D01*
X71605Y196017D01*
X71139Y195659D01*
X70000Y196221D01*
Y206179D01*
X71139Y206741D01*
X71605Y206383D01*
X73977Y205401D01*
X76522Y205066D01*
X79067Y205401D01*
X81439Y206383D01*
X83476Y207946D01*
X85039Y209983D01*
X86021Y212355D01*
X86356Y214900D01*
X86021Y217445D01*
X85039Y219817D01*
X83476Y221854D01*
X81439Y223417D01*
X79067Y224399D01*
X76522Y224734D01*
X73977Y224399D01*
X71605Y223417D01*
X71139Y223059D01*
X70000Y223621D01*
Y233579D01*
X71139Y234141D01*
X71605Y233783D01*
X73977Y232801D01*
X76522Y232466D01*
X79067Y232801D01*
X81439Y233783D01*
X83476Y235346D01*
X85039Y237383D01*
X86021Y239755D01*
X86356Y242300D01*
X86021Y244845D01*
X85039Y247217D01*
X83476Y249254D01*
X81439Y250817D01*
X79067Y251799D01*
X76522Y252134D01*
X73977Y251799D01*
X71605Y250817D01*
X71139Y250459D01*
X70000Y251021D01*
Y260979D01*
X71139Y261541D01*
X71605Y261183D01*
X73977Y260201D01*
X76522Y259866D01*
X79067Y260201D01*
X81439Y261183D01*
X83476Y262746D01*
X85039Y264783D01*
X86021Y267155D01*
X86356Y269700D01*
X86021Y272245D01*
X85039Y274617D01*
X83476Y276654D01*
X81439Y278217D01*
X79067Y279199D01*
X76522Y279534D01*
X73977Y279199D01*
X71605Y278217D01*
X71139Y277859D01*
X70000Y278421D01*
Y288379D01*
X71139Y288941D01*
X71605Y288583D01*
X73977Y287601D01*
X76522Y287266D01*
X79067Y287601D01*
X81439Y288583D01*
X83476Y290146D01*
X85039Y292183D01*
X86021Y294555D01*
X86356Y297100D01*
X86021Y299645D01*
X85039Y302017D01*
X83476Y304054D01*
X81439Y305617D01*
X79067Y306599D01*
X76522Y306934D01*
X73977Y306599D01*
X71605Y305617D01*
X71139Y305259D01*
X70000Y305821D01*
Y315508D01*
X70018Y315600D01*
X71024Y316144D01*
X71333Y316192D01*
X71605Y315983D01*
X73977Y315001D01*
X76522Y314666D01*
X79067Y315001D01*
X81439Y315983D01*
X83476Y317546D01*
X85039Y319583D01*
X86021Y321955D01*
X86356Y324500D01*
X86021Y327045D01*
X85039Y329417D01*
X83476Y331454D01*
X81439Y333017D01*
X79067Y333999D01*
X76522Y334334D01*
X73977Y333999D01*
X71605Y333017D01*
X71139Y332659D01*
X70000Y333221D01*
Y391000D01*
X82779D01*
X83405Y390665D01*
X87128Y389536D01*
X91000Y389154D01*
X94872Y389536D01*
X98595Y390665D01*
X99221Y391000D01*
X205000D01*
X205000Y457000D01*
X201197D01*
X201000Y457039D01*
X-0Y457039D01*
X0Y650000D01*
X570000Y650000D01*
X570000Y0D01*
D02*
G37*
%LPC*%
G36*
X109000Y437098D02*
X107049Y436710D01*
X105395Y435605D01*
X104290Y433951D01*
X103902Y432000D01*
X104290Y430049D01*
X105395Y428395D01*
X107049Y427290D01*
X109000Y426902D01*
X110951Y427290D01*
X112605Y428395D01*
X113710Y430049D01*
X114098Y432000D01*
X113710Y433951D01*
X112605Y435605D01*
X110951Y436710D01*
X109000Y437098D01*
D02*
G37*
G36*
X137000Y434098D02*
X135049Y433710D01*
X133395Y432605D01*
X132290Y430951D01*
X131902Y429000D01*
X132290Y427049D01*
X133395Y425395D01*
X135049Y424290D01*
X137000Y423902D01*
X138951Y424290D01*
X140605Y425395D01*
X141710Y427049D01*
X142098Y429000D01*
X141710Y430951D01*
X140605Y432605D01*
X138951Y433710D01*
X137000Y434098D01*
D02*
G37*
G36*
X188055Y419153D02*
X186104Y418765D01*
X184450Y417660D01*
X183345Y416006D01*
X182957Y414055D01*
X183345Y412104D01*
X184450Y410451D01*
X186104Y409345D01*
X188055Y408957D01*
X190006Y409345D01*
X191660Y410451D01*
X192765Y412104D01*
X193153Y414055D01*
X192765Y416006D01*
X191660Y417660D01*
X190006Y418765D01*
X188055Y419153D01*
D02*
G37*
G36*
X147000Y418098D02*
X145049Y417710D01*
X143395Y416605D01*
X142290Y414951D01*
X141902Y413000D01*
X142290Y411049D01*
X143395Y409395D01*
X145049Y408290D01*
X147000Y407902D01*
X148951Y408290D01*
X150605Y409395D01*
X151710Y411049D01*
X152098Y413000D01*
X151710Y414951D01*
X150605Y416605D01*
X148951Y417710D01*
X147000Y418098D01*
D02*
G37*
G36*
X10000Y417098D02*
X8049Y416710D01*
X6395Y415605D01*
X5290Y413951D01*
X4902Y412000D01*
X5290Y410049D01*
X6395Y408395D01*
X8049Y407290D01*
X10000Y406902D01*
X11951Y407290D01*
X11965Y407299D01*
X13138Y406813D01*
X13290Y406049D01*
X14395Y404395D01*
X16049Y403290D01*
X18000Y402902D01*
X19951Y403290D01*
X21605Y404395D01*
X22710Y406049D01*
X23098Y408000D01*
X22710Y409951D01*
X21605Y411605D01*
X19951Y412710D01*
X18000Y413098D01*
X16049Y412710D01*
X16035Y412701D01*
X14862Y413187D01*
X14710Y413951D01*
X13605Y415605D01*
X11951Y416710D01*
X10000Y417098D01*
D02*
G37*
G36*
X137000Y410098D02*
X135049Y409710D01*
X133395Y408605D01*
X132290Y406951D01*
X131902Y405000D01*
X132290Y403049D01*
X133395Y401395D01*
X135049Y400290D01*
X137000Y399902D01*
X138951Y400290D01*
X140605Y401395D01*
X141710Y403049D01*
X142098Y405000D01*
X141710Y406951D01*
X140605Y408605D01*
X138951Y409710D01*
X137000Y410098D01*
D02*
G37*
G36*
X327001Y100394D02*
X324129Y100016D01*
X321453Y98908D01*
X319156Y97145D01*
X317392Y94847D01*
X316284Y92171D01*
X315906Y89300D01*
X316284Y86428D01*
X317392Y83752D01*
X319156Y81454D01*
X321453Y79691D01*
X324129Y78583D01*
X327001Y78205D01*
X329872Y78583D01*
X332548Y79691D01*
X334846Y81454D01*
X336609Y83752D01*
X337718Y86428D01*
X338096Y89300D01*
X337718Y92171D01*
X336609Y94847D01*
X334846Y97145D01*
X332548Y98908D01*
X329872Y100016D01*
X327001Y100394D01*
D02*
G37*
G36*
Y74995D02*
X324129Y74616D01*
X321453Y73508D01*
X319156Y71745D01*
X317392Y69447D01*
X316284Y66771D01*
X315906Y63900D01*
X316284Y61028D01*
X317392Y58352D01*
X319156Y56054D01*
X321453Y54291D01*
X324129Y53183D01*
X327001Y52805D01*
X329872Y53183D01*
X332548Y54291D01*
X334846Y56054D01*
X336609Y58352D01*
X337718Y61028D01*
X338096Y63900D01*
X337718Y66771D01*
X336609Y69447D01*
X334846Y71745D01*
X332548Y73508D01*
X329872Y74616D01*
X327001Y74995D01*
D02*
G37*
G36*
X231850Y69850D02*
X212150D01*
Y50150D01*
X231850D01*
Y69850D01*
D02*
G37*
G36*
X192000Y69935D02*
X189429Y69597D01*
X187033Y68604D01*
X184975Y67025D01*
X183396Y64967D01*
X182404Y62571D01*
X182065Y60000D01*
X182404Y57429D01*
X183396Y55033D01*
X184975Y52975D01*
X187033Y51396D01*
X189429Y50404D01*
X192000Y50065D01*
X194571Y50404D01*
X196968Y51396D01*
X199025Y52975D01*
X200604Y55033D01*
X201596Y57429D01*
X201935Y60000D01*
X201596Y62571D01*
X200604Y64967D01*
X199025Y67025D01*
X196968Y68604D01*
X194571Y69597D01*
X192000Y69935D01*
D02*
G37*
G36*
X338001Y49500D02*
X316001D01*
Y27500D01*
X338001D01*
Y49500D01*
D02*
G37*
G36*
X249897Y30999D02*
X227897D01*
Y8999D01*
X249897D01*
Y30999D01*
D02*
G37*
G36*
X137295Y31096D02*
X134424Y30718D01*
X131748Y29609D01*
X129450Y27846D01*
X127687Y25548D01*
X126579Y22872D01*
X126201Y20001D01*
X126579Y17129D01*
X127687Y14453D01*
X129450Y12156D01*
X131748Y10392D01*
X134424Y9284D01*
X137295Y8906D01*
X140167Y9284D01*
X142843Y10392D01*
X145141Y12156D01*
X146904Y14453D01*
X148012Y17129D01*
X148390Y20001D01*
X148012Y22872D01*
X146904Y25548D01*
X145141Y27846D01*
X142843Y29609D01*
X140167Y30718D01*
X137295Y31096D01*
D02*
G37*
G36*
X111896Y31095D02*
X109025Y30717D01*
X106349Y29609D01*
X104051Y27845D01*
X102288Y25547D01*
X101179Y22872D01*
X100801Y20000D01*
X101179Y17128D01*
X102288Y14453D01*
X104051Y12155D01*
X106349Y10391D01*
X109025Y9283D01*
X111896Y8905D01*
X114768Y9283D01*
X117444Y10391D01*
X119741Y12155D01*
X121505Y14453D01*
X122613Y17128D01*
X122991Y20000D01*
X122613Y22872D01*
X121505Y25547D01*
X119741Y27845D01*
X117444Y29609D01*
X114768Y30717D01*
X111896Y31095D01*
D02*
G37*
G36*
X86497D02*
X83625Y30717D01*
X80949Y29609D01*
X78651Y27845D01*
X76888Y25547D01*
X75780Y22872D01*
X75402Y20000D01*
X75780Y17128D01*
X76888Y14453D01*
X78651Y12155D01*
X80949Y10391D01*
X83625Y9283D01*
X86497Y8905D01*
X89368Y9283D01*
X92044Y10391D01*
X94342Y12155D01*
X96105Y14453D01*
X97213Y17128D01*
X97591Y20000D01*
X97213Y22872D01*
X96105Y25547D01*
X94342Y27845D01*
X92044Y29609D01*
X89368Y30717D01*
X86497Y31095D01*
D02*
G37*
G36*
X61097D02*
X58225Y30717D01*
X55549Y29609D01*
X53251Y27845D01*
X51488Y25547D01*
X50380Y22872D01*
X50002Y20000D01*
X50380Y17128D01*
X51488Y14453D01*
X53251Y12155D01*
X55549Y10391D01*
X58225Y9283D01*
X61097Y8905D01*
X63968Y9283D01*
X66644Y10391D01*
X68942Y12155D01*
X70705Y14453D01*
X71814Y17128D01*
X72192Y20000D01*
X71814Y22872D01*
X70705Y25547D01*
X68942Y27845D01*
X66644Y29609D01*
X63968Y30717D01*
X61097Y31095D01*
D02*
G37*
G36*
X213497Y31094D02*
X210625Y30716D01*
X207950Y29608D01*
X205652Y27845D01*
X203889Y25547D01*
X202780Y22871D01*
X202402Y19999D01*
X202780Y17128D01*
X203889Y14452D01*
X205652Y12154D01*
X207950Y10391D01*
X210625Y9282D01*
X213497Y8904D01*
X216369Y9282D01*
X219044Y10391D01*
X221342Y12154D01*
X223106Y14452D01*
X224214Y17128D01*
X224592Y19999D01*
X224214Y22871D01*
X223106Y25547D01*
X221342Y27845D01*
X219044Y29608D01*
X216369Y30716D01*
X213497Y31094D01*
D02*
G37*
G36*
X162697D02*
X159825Y30716D01*
X157150Y29608D01*
X154852Y27845D01*
X153089Y25547D01*
X151980Y22871D01*
X151602Y19999D01*
X151980Y17128D01*
X153089Y14452D01*
X154852Y12154D01*
X157150Y10391D01*
X159825Y9282D01*
X162697Y8904D01*
X165569Y9282D01*
X168244Y10391D01*
X170542Y12154D01*
X172306Y14452D01*
X173414Y17128D01*
X173792Y19999D01*
X173414Y22871D01*
X172306Y25547D01*
X170542Y27845D01*
X168244Y29608D01*
X165569Y30716D01*
X162697Y31094D01*
D02*
G37*
G36*
X330000Y15098D02*
X328049Y14710D01*
X326395Y13605D01*
X325290Y11951D01*
X324902Y10000D01*
X325290Y8049D01*
X326395Y6395D01*
X328049Y5290D01*
X330000Y4902D01*
X331951Y5290D01*
X333605Y6395D01*
X334710Y8049D01*
X335098Y10000D01*
X334710Y11951D01*
X333605Y13605D01*
X331951Y14710D01*
X330000Y15098D01*
D02*
G37*
G36*
X300000D02*
X298049Y14710D01*
X296395Y13605D01*
X295290Y11951D01*
X294902Y10000D01*
X295290Y8049D01*
X296395Y6395D01*
X298049Y5290D01*
X300000Y4902D01*
X301951Y5290D01*
X303605Y6395D01*
X304710Y8049D01*
X305098Y10000D01*
X304710Y11951D01*
X303605Y13605D01*
X301951Y14710D01*
X300000Y15098D01*
D02*
G37*
G36*
X270000D02*
X268049Y14710D01*
X266395Y13605D01*
X265290Y11951D01*
X264902Y10000D01*
X265290Y8049D01*
X266395Y6395D01*
X268049Y5290D01*
X270000Y4902D01*
X271951Y5290D01*
X273605Y6395D01*
X274710Y8049D01*
X275098Y10000D01*
X274710Y11951D01*
X273605Y13605D01*
X271951Y14710D01*
X270000Y15098D01*
D02*
G37*
G36*
X560000Y645098D02*
X558049Y644710D01*
X556395Y643605D01*
X555290Y641951D01*
X554902Y640000D01*
X555290Y638049D01*
X556395Y636395D01*
X558049Y635290D01*
X560000Y634902D01*
X561951Y635290D01*
X563605Y636395D01*
X564710Y638049D01*
X565098Y640000D01*
X564710Y641951D01*
X563605Y643605D01*
X561951Y644710D01*
X560000Y645098D01*
D02*
G37*
G36*
X530000D02*
X528049Y644710D01*
X526395Y643605D01*
X525290Y641951D01*
X524902Y640000D01*
X525290Y638049D01*
X526395Y636395D01*
X528049Y635290D01*
X530000Y634902D01*
X531951Y635290D01*
X533605Y636395D01*
X534710Y638049D01*
X535098Y640000D01*
X534710Y641951D01*
X533605Y643605D01*
X531951Y644710D01*
X530000Y645098D01*
D02*
G37*
G36*
X490000D02*
X488049Y644710D01*
X486395Y643605D01*
X485290Y641951D01*
X484902Y640000D01*
X485290Y638049D01*
X486395Y636395D01*
X488049Y635290D01*
X490000Y634902D01*
X491951Y635290D01*
X493605Y636395D01*
X494710Y638049D01*
X495098Y640000D01*
X494710Y641951D01*
X493605Y643605D01*
X491951Y644710D01*
X490000Y645098D01*
D02*
G37*
G36*
X450000D02*
X448049Y644710D01*
X446395Y643605D01*
X445290Y641951D01*
X444902Y640000D01*
X445290Y638049D01*
X446395Y636395D01*
X448049Y635290D01*
X450000Y634902D01*
X451951Y635290D01*
X453605Y636395D01*
X454710Y638049D01*
X455098Y640000D01*
X454710Y641951D01*
X453605Y643605D01*
X451951Y644710D01*
X450000Y645098D01*
D02*
G37*
G36*
X410000D02*
X408049Y644710D01*
X406395Y643605D01*
X405290Y641951D01*
X404902Y640000D01*
X405290Y638049D01*
X406395Y636395D01*
X408049Y635290D01*
X410000Y634902D01*
X411951Y635290D01*
X413605Y636395D01*
X414710Y638049D01*
X415098Y640000D01*
X414710Y641951D01*
X413605Y643605D01*
X411951Y644710D01*
X410000Y645098D01*
D02*
G37*
G36*
X370000D02*
X368049Y644710D01*
X366395Y643605D01*
X365290Y641951D01*
X364902Y640000D01*
X365290Y638049D01*
X366395Y636395D01*
X368049Y635290D01*
X370000Y634902D01*
X371951Y635290D01*
X373605Y636395D01*
X374710Y638049D01*
X375098Y640000D01*
X374710Y641951D01*
X373605Y643605D01*
X371951Y644710D01*
X370000Y645098D01*
D02*
G37*
G36*
X330000D02*
X328049Y644710D01*
X326395Y643605D01*
X325290Y641951D01*
X324902Y640000D01*
X325290Y638049D01*
X326395Y636395D01*
X328049Y635290D01*
X330000Y634902D01*
X331951Y635290D01*
X333605Y636395D01*
X334710Y638049D01*
X335098Y640000D01*
X334710Y641951D01*
X333605Y643605D01*
X331951Y644710D01*
X330000Y645098D01*
D02*
G37*
G36*
X290000D02*
X288049Y644710D01*
X286395Y643605D01*
X285290Y641951D01*
X284902Y640000D01*
X285290Y638049D01*
X286395Y636395D01*
X288049Y635290D01*
X290000Y634902D01*
X291951Y635290D01*
X293605Y636395D01*
X294710Y638049D01*
X295098Y640000D01*
X294710Y641951D01*
X293605Y643605D01*
X291951Y644710D01*
X290000Y645098D01*
D02*
G37*
G36*
X137295Y641096D02*
X134424Y640718D01*
X131748Y639609D01*
X129450Y637846D01*
X127687Y635548D01*
X126579Y632872D01*
X126201Y630001D01*
X126579Y627129D01*
X127687Y624453D01*
X129450Y622156D01*
X131748Y620392D01*
X134424Y619284D01*
X137295Y618906D01*
X140167Y619284D01*
X142843Y620392D01*
X145141Y622156D01*
X146904Y624453D01*
X148012Y627129D01*
X148390Y630001D01*
X148012Y632872D01*
X146904Y635548D01*
X145141Y637846D01*
X142843Y639609D01*
X140167Y640718D01*
X137295Y641096D01*
D02*
G37*
G36*
X111896Y641095D02*
X109025Y640717D01*
X106349Y639608D01*
X104051Y637845D01*
X102288Y635547D01*
X101179Y632872D01*
X100801Y630000D01*
X101179Y627128D01*
X102288Y624453D01*
X104051Y622155D01*
X106349Y620392D01*
X109025Y619283D01*
X111896Y618905D01*
X114768Y619283D01*
X117444Y620392D01*
X119741Y622155D01*
X121505Y624453D01*
X122613Y627128D01*
X122991Y630000D01*
X122613Y632872D01*
X121505Y635547D01*
X119741Y637845D01*
X117444Y639608D01*
X114768Y640717D01*
X111896Y641095D01*
D02*
G37*
G36*
X86497D02*
X83625Y640717D01*
X80949Y639608D01*
X78651Y637845D01*
X76888Y635547D01*
X75780Y632872D01*
X75402Y630000D01*
X75780Y627128D01*
X76888Y624453D01*
X78651Y622155D01*
X80949Y620392D01*
X83625Y619283D01*
X86497Y618905D01*
X89368Y619283D01*
X92044Y620392D01*
X94342Y622155D01*
X96105Y624453D01*
X97213Y627128D01*
X97591Y630000D01*
X97213Y632872D01*
X96105Y635547D01*
X94342Y637845D01*
X92044Y639608D01*
X89368Y640717D01*
X86497Y641095D01*
D02*
G37*
G36*
X61097D02*
X58225Y640717D01*
X55549Y639608D01*
X53251Y637845D01*
X51488Y635547D01*
X50380Y632872D01*
X50002Y630000D01*
X50380Y627128D01*
X51488Y624453D01*
X53251Y622155D01*
X55549Y620392D01*
X58225Y619283D01*
X61097Y618905D01*
X63968Y619283D01*
X66644Y620392D01*
X68942Y622155D01*
X70705Y624453D01*
X71814Y627128D01*
X72192Y630000D01*
X71814Y632872D01*
X70705Y635547D01*
X68942Y637845D01*
X66644Y639608D01*
X63968Y640717D01*
X61097Y641095D01*
D02*
G37*
G36*
X213497Y641094D02*
X210625Y640716D01*
X207950Y639608D01*
X205652Y637845D01*
X203889Y635547D01*
X202780Y632871D01*
X202402Y629999D01*
X202780Y627128D01*
X203889Y624452D01*
X205652Y622154D01*
X207950Y620391D01*
X210625Y619282D01*
X213497Y618904D01*
X216369Y619282D01*
X219044Y620391D01*
X221342Y622154D01*
X223106Y624452D01*
X224214Y627128D01*
X224592Y629999D01*
X224214Y632871D01*
X223106Y635547D01*
X221342Y637845D01*
X219044Y639608D01*
X216369Y640716D01*
X213497Y641094D01*
D02*
G37*
G36*
X188097D02*
X185226Y640716D01*
X182550Y639608D01*
X180252Y637845D01*
X178489Y635547D01*
X177380Y632871D01*
X177002Y629999D01*
X177380Y627128D01*
X178489Y624452D01*
X180252Y622154D01*
X182550Y620391D01*
X185226Y619282D01*
X188097Y618904D01*
X190969Y619282D01*
X193645Y620391D01*
X195942Y622154D01*
X197705Y624452D01*
X198814Y627128D01*
X199192Y629999D01*
X198814Y632871D01*
X197705Y635547D01*
X195942Y637845D01*
X193645Y639608D01*
X190969Y640716D01*
X188097Y641094D01*
D02*
G37*
G36*
X162697D02*
X159825Y640716D01*
X157150Y639608D01*
X154852Y637845D01*
X153089Y635547D01*
X151980Y632871D01*
X151602Y629999D01*
X151980Y627128D01*
X153089Y624452D01*
X154852Y622154D01*
X157150Y620391D01*
X159825Y619282D01*
X162697Y618904D01*
X165569Y619282D01*
X168244Y620391D01*
X170542Y622154D01*
X172306Y624452D01*
X173414Y627128D01*
X173792Y629999D01*
X173414Y632871D01*
X172306Y635547D01*
X170542Y637845D01*
X168244Y639608D01*
X165569Y640716D01*
X162697Y641094D01*
D02*
G37*
G36*
X21000Y625098D02*
X19049Y624710D01*
X17395Y623605D01*
X16290Y621951D01*
X15902Y620000D01*
X16290Y618049D01*
X17395Y616395D01*
X19049Y615290D01*
X21000Y614902D01*
X22951Y615290D01*
X24605Y616395D01*
X25710Y618049D01*
X26098Y620000D01*
X25710Y621951D01*
X24605Y623605D01*
X22951Y624710D01*
X21000Y625098D01*
D02*
G37*
G36*
X249897Y640999D02*
X227897D01*
Y618999D01*
X229153D01*
X230110Y618242D01*
X230110Y618242D01*
X230110D01*
X230161Y617729D01*
X230112Y617720D01*
X228797Y617458D01*
X227143Y616353D01*
X226038Y614699D01*
X225650Y612748D01*
X226038Y610797D01*
X227143Y609143D01*
X228797Y608038D01*
X230748Y607650D01*
X232699Y608038D01*
X234353Y609143D01*
X235458Y610797D01*
X235846Y612748D01*
X235458Y614699D01*
X234353Y616353D01*
X232699Y617458D01*
X231384Y617720D01*
X231336Y617729D01*
X231386Y618242D01*
X231386D01*
X231386Y618242D01*
X232343Y618999D01*
X249897D01*
Y640999D01*
D02*
G37*
G36*
X543500Y611095D02*
X540629Y610717D01*
X537953Y609608D01*
X535655Y607845D01*
X533892Y605547D01*
X532784Y602872D01*
X532406Y600000D01*
X532784Y597128D01*
X533892Y594453D01*
X535655Y592155D01*
X537953Y590392D01*
X540629Y589283D01*
X543500Y588905D01*
X546372Y589283D01*
X549048Y590392D01*
X551346Y592155D01*
X553109Y594453D01*
X554217Y597128D01*
X554244Y597329D01*
X555565Y597637D01*
X556395Y596395D01*
X558049Y595290D01*
X560000Y594902D01*
X561951Y595290D01*
X563605Y596395D01*
X564710Y598049D01*
X565098Y600000D01*
X564710Y601951D01*
X563605Y603605D01*
X561951Y604710D01*
X560000Y605098D01*
X558049Y604710D01*
X556395Y603605D01*
X555565Y602363D01*
X554244Y602671D01*
X554217Y602872D01*
X553109Y605547D01*
X551346Y607845D01*
X549048Y609608D01*
X546372Y610717D01*
X543500Y611095D01*
D02*
G37*
G36*
X223000Y600098D02*
X221049Y599710D01*
X219395Y598605D01*
X218290Y596951D01*
X217902Y595000D01*
X218290Y593049D01*
X219395Y591395D01*
X221049Y590290D01*
X223000Y589902D01*
X224951Y590290D01*
X226605Y591395D01*
X227710Y593049D01*
X228098Y595000D01*
X227710Y596951D01*
X226605Y598605D01*
X224951Y599710D01*
X223000Y600098D01*
D02*
G37*
G36*
X427500Y611001D02*
X405500D01*
Y589001D01*
X427500D01*
Y611001D01*
D02*
G37*
G36*
X492700Y611096D02*
X489828Y610718D01*
X487152Y609609D01*
X484854Y607846D01*
X483091Y605548D01*
X481983Y602872D01*
X481605Y600001D01*
X481983Y597129D01*
X483091Y594453D01*
X484854Y592155D01*
X487152Y590392D01*
X489828Y589284D01*
X492700Y588906D01*
X495571Y589284D01*
X498247Y590392D01*
X500545Y592155D01*
X502308Y594453D01*
X503416Y597129D01*
X503795Y600001D01*
X503416Y602872D01*
X502308Y605548D01*
X500545Y607846D01*
X498247Y609609D01*
X495571Y610718D01*
X492700Y611096D01*
D02*
G37*
G36*
X467300D02*
X464428Y610718D01*
X461752Y609609D01*
X459454Y607846D01*
X457691Y605548D01*
X456583Y602872D01*
X456205Y600001D01*
X456583Y597129D01*
X457691Y594453D01*
X459454Y592155D01*
X461752Y590392D01*
X464428Y589284D01*
X467300Y588906D01*
X470171Y589284D01*
X472847Y590392D01*
X475145Y592155D01*
X476908Y594453D01*
X478016Y597129D01*
X478395Y600001D01*
X478016Y602872D01*
X476908Y605548D01*
X475145Y607846D01*
X472847Y609609D01*
X470171Y610718D01*
X467300Y611096D01*
D02*
G37*
G36*
X441900D02*
X439028Y610718D01*
X436352Y609609D01*
X434054Y607846D01*
X432291Y605548D01*
X431183Y602872D01*
X430805Y600001D01*
X431183Y597129D01*
X432291Y594453D01*
X434054Y592155D01*
X436352Y590392D01*
X439028Y589284D01*
X441900Y588906D01*
X444771Y589284D01*
X447447Y590392D01*
X449745Y592155D01*
X451508Y594453D01*
X452616Y597129D01*
X452994Y600001D01*
X452616Y602872D01*
X451508Y605548D01*
X449745Y607846D01*
X447447Y609609D01*
X444771Y610718D01*
X441900Y611096D01*
D02*
G37*
G36*
X84000Y606234D02*
X81455Y605899D01*
X79083Y604917D01*
X77046Y603354D01*
X75483Y601317D01*
X74501Y598945D01*
X74166Y596400D01*
X74501Y593855D01*
X75483Y591483D01*
X77046Y589446D01*
X79083Y587883D01*
X81455Y586901D01*
X84000Y586566D01*
X86545Y586901D01*
X88917Y587883D01*
X90954Y589446D01*
X92517Y591483D01*
X93499Y593855D01*
X93834Y596400D01*
X93499Y598945D01*
X92517Y601317D01*
X90954Y603354D01*
X88917Y604917D01*
X86545Y605899D01*
X84000Y606234D01*
D02*
G37*
G36*
X58600D02*
X56055Y605899D01*
X53683Y604917D01*
X51646Y603354D01*
X50083Y601317D01*
X49101Y598945D01*
X48766Y596400D01*
X49101Y593855D01*
X50083Y591483D01*
X51646Y589446D01*
X53683Y587883D01*
X56055Y586901D01*
X58600Y586566D01*
X61145Y586901D01*
X63517Y587883D01*
X65554Y589446D01*
X67117Y591483D01*
X68099Y593855D01*
X68434Y596400D01*
X68099Y598945D01*
X67117Y601317D01*
X65554Y603354D01*
X63517Y604917D01*
X61145Y605899D01*
X58600Y606234D01*
D02*
G37*
G36*
X146000Y575098D02*
X144049Y574710D01*
X142395Y573605D01*
X141290Y571951D01*
X140902Y570000D01*
X141290Y568049D01*
X142395Y566395D01*
X144049Y565290D01*
X146000Y564902D01*
X147951Y565290D01*
X149605Y566395D01*
X150710Y568049D01*
X151098Y570000D01*
X150710Y571951D01*
X149605Y573605D01*
X147951Y574710D01*
X146000Y575098D01*
D02*
G37*
G36*
X84000Y580834D02*
X81455Y580499D01*
X79083Y579517D01*
X77046Y577954D01*
X75483Y575917D01*
X74501Y573545D01*
X74166Y571000D01*
X74501Y568455D01*
X75483Y566083D01*
X77046Y564046D01*
X79083Y562483D01*
X81455Y561501D01*
X84000Y561166D01*
X86545Y561501D01*
X88917Y562483D01*
X90954Y564046D01*
X92517Y566083D01*
X93499Y568455D01*
X93834Y571000D01*
X93499Y573545D01*
X92517Y575917D01*
X90954Y577954D01*
X88917Y579517D01*
X86545Y580499D01*
X84000Y580834D01*
D02*
G37*
G36*
X58600D02*
X56055Y580499D01*
X53683Y579517D01*
X51646Y577954D01*
X50083Y575917D01*
X49101Y573545D01*
X48766Y571000D01*
X49101Y568455D01*
X50083Y566083D01*
X51646Y564046D01*
X53683Y562483D01*
X56055Y561501D01*
X58600Y561166D01*
X61145Y561501D01*
X63517Y562483D01*
X65554Y564046D01*
X67117Y566083D01*
X68099Y568455D01*
X68434Y571000D01*
X68099Y573545D01*
X67117Y575917D01*
X65554Y577954D01*
X63517Y579517D01*
X61145Y580499D01*
X58600Y580834D01*
D02*
G37*
G36*
X113000Y568598D02*
X111049Y568210D01*
X109395Y567105D01*
X108290Y565451D01*
X107902Y563500D01*
X108290Y561549D01*
X109395Y559895D01*
X111049Y558790D01*
X113000Y558402D01*
X114951Y558790D01*
X116605Y559895D01*
X117710Y561549D01*
X118098Y563500D01*
X117710Y565451D01*
X116605Y567105D01*
X114951Y568210D01*
X113000Y568598D01*
D02*
G37*
G36*
X560000Y565098D02*
X558049Y564710D01*
X556395Y563605D01*
X555290Y561951D01*
X554902Y560000D01*
X555290Y558049D01*
X556395Y556395D01*
X558049Y555290D01*
X560000Y554902D01*
X561951Y555290D01*
X563605Y556395D01*
X564710Y558049D01*
X565098Y560000D01*
X564710Y561951D01*
X563605Y563605D01*
X561951Y564710D01*
X560000Y565098D01*
D02*
G37*
G36*
X84000Y555434D02*
X81455Y555099D01*
X79083Y554117D01*
X77046Y552554D01*
X75483Y550517D01*
X74501Y548145D01*
X74166Y545600D01*
X74501Y543055D01*
X75483Y540683D01*
X77046Y538646D01*
X79083Y537083D01*
X81455Y536101D01*
X84000Y535766D01*
X86545Y536101D01*
X88917Y537083D01*
X90954Y538646D01*
X92517Y540683D01*
X93499Y543055D01*
X93834Y545600D01*
X93499Y548145D01*
X92517Y550517D01*
X90954Y552554D01*
X88917Y554117D01*
X86545Y555099D01*
X84000Y555434D01*
D02*
G37*
G36*
X58600D02*
X56055Y555099D01*
X53683Y554117D01*
X51646Y552554D01*
X50083Y550517D01*
X49101Y548145D01*
X48766Y545600D01*
X49101Y543055D01*
X50083Y540683D01*
X51646Y538646D01*
X53683Y537083D01*
X56055Y536101D01*
X58600Y535766D01*
X61145Y536101D01*
X63517Y537083D01*
X65554Y538646D01*
X67117Y540683D01*
X68099Y543055D01*
X68434Y545600D01*
X68099Y548145D01*
X67117Y550517D01*
X65554Y552554D01*
X63517Y554117D01*
X61145Y555099D01*
X58600Y555434D01*
D02*
G37*
G36*
X490050Y554650D02*
X470750D01*
Y535350D01*
X490050D01*
Y554650D01*
D02*
G37*
G36*
X450400Y554733D02*
X447881Y554402D01*
X445533Y553429D01*
X443517Y551883D01*
X441971Y549867D01*
X440998Y547519D01*
X440667Y545000D01*
X440998Y542481D01*
X441971Y540133D01*
X443517Y538118D01*
X445533Y536571D01*
X447881Y535598D01*
X450400Y535267D01*
X452919Y535598D01*
X455267Y536571D01*
X457282Y538118D01*
X458829Y540133D01*
X459802Y542481D01*
X460133Y545000D01*
X459802Y547519D01*
X458829Y549867D01*
X457282Y551883D01*
X455267Y553429D01*
X452919Y554402D01*
X450400Y554733D01*
D02*
G37*
G36*
X400000Y567323D02*
X396620Y566991D01*
X393371Y566005D01*
X390376Y564404D01*
X387751Y562249D01*
X385596Y559624D01*
X383995Y556629D01*
X383009Y553380D01*
X382677Y550000D01*
X383009Y546620D01*
X383995Y543371D01*
X385596Y540376D01*
X387751Y537751D01*
X390376Y535596D01*
X393371Y533995D01*
X396620Y533009D01*
X400000Y532677D01*
X403380Y533009D01*
X406629Y533995D01*
X409624Y535596D01*
X412249Y537751D01*
X414404Y540376D01*
X416005Y543371D01*
X416991Y546620D01*
X417323Y550000D01*
X416991Y553380D01*
X416005Y556629D01*
X414404Y559624D01*
X412249Y562249D01*
X409624Y564404D01*
X406629Y566005D01*
X403380Y566991D01*
X400000Y567323D01*
D02*
G37*
G36*
X215000Y540098D02*
X213049Y539710D01*
X211395Y538605D01*
X210290Y536951D01*
X209902Y535000D01*
X210290Y533049D01*
X211395Y531395D01*
X213049Y530290D01*
X215000Y529902D01*
X216951Y530290D01*
X218605Y531395D01*
X219710Y533049D01*
X220098Y535000D01*
X219710Y536951D01*
X218605Y538605D01*
X216951Y539710D01*
X215000Y540098D01*
D02*
G37*
G36*
X560000Y525098D02*
X558049Y524710D01*
X556395Y523605D01*
X555290Y521951D01*
X554902Y520000D01*
X555290Y518049D01*
X556395Y516395D01*
X558049Y515290D01*
X560000Y514902D01*
X561951Y515290D01*
X563605Y516395D01*
X564710Y518049D01*
X565098Y520000D01*
X564710Y521951D01*
X563605Y523605D01*
X561951Y524710D01*
X560000Y525098D01*
D02*
G37*
G36*
X523600Y547082D02*
X520267Y546754D01*
X517063Y545782D01*
X514110Y544203D01*
X511521Y542079D01*
X509397Y539490D01*
X507818Y536537D01*
X506846Y533333D01*
X506518Y530000D01*
X506846Y526668D01*
X507818Y523463D01*
X509397Y520510D01*
X511521Y517921D01*
X514110Y515797D01*
X517063Y514218D01*
X520267Y513246D01*
X523600Y512918D01*
X526933Y513246D01*
X530137Y514218D01*
X533090Y515797D01*
X535679Y517921D01*
X537803Y520510D01*
X539382Y523463D01*
X540354Y526668D01*
X540682Y530000D01*
X540354Y533333D01*
X539382Y536537D01*
X537803Y539490D01*
X535679Y542079D01*
X533090Y544203D01*
X530137Y545782D01*
X526933Y546754D01*
X523600Y547082D01*
D02*
G37*
G36*
X84000Y530034D02*
X81455Y529699D01*
X79083Y528717D01*
X77046Y527154D01*
X75483Y525117D01*
X74501Y522745D01*
X74166Y520200D01*
X74501Y517655D01*
X75483Y515283D01*
X77046Y513246D01*
X79083Y511683D01*
X81455Y510701D01*
X84000Y510366D01*
X86545Y510701D01*
X88917Y511683D01*
X90954Y513246D01*
X92517Y515283D01*
X93499Y517655D01*
X93834Y520200D01*
X93499Y522745D01*
X92517Y525117D01*
X90954Y527154D01*
X88917Y528717D01*
X86545Y529699D01*
X84000Y530034D01*
D02*
G37*
G36*
X58600D02*
X56055Y529699D01*
X53683Y528717D01*
X51646Y527154D01*
X50083Y525117D01*
X49101Y522745D01*
X48766Y520200D01*
X49101Y517655D01*
X50083Y515283D01*
X51646Y513246D01*
X53683Y511683D01*
X56055Y510701D01*
X58600Y510366D01*
X61145Y510701D01*
X63517Y511683D01*
X65554Y513246D01*
X67117Y515283D01*
X68099Y517655D01*
X68434Y520200D01*
X68099Y522745D01*
X67117Y525117D01*
X65554Y527154D01*
X63517Y528717D01*
X61145Y529699D01*
X58600Y530034D01*
D02*
G37*
G36*
X480400Y524733D02*
X477881Y524402D01*
X475533Y523429D01*
X473517Y521883D01*
X471971Y519867D01*
X470998Y517519D01*
X470667Y515000D01*
X470998Y512481D01*
X471971Y510133D01*
X473517Y508118D01*
X475533Y506571D01*
X477881Y505598D01*
X480400Y505267D01*
X482919Y505598D01*
X485267Y506571D01*
X487282Y508118D01*
X488829Y510133D01*
X489802Y512481D01*
X490133Y515000D01*
X489802Y517519D01*
X488829Y519867D01*
X487282Y521883D01*
X485267Y523429D01*
X482919Y524402D01*
X480400Y524733D01*
D02*
G37*
G36*
X450400D02*
X447881Y524402D01*
X445533Y523429D01*
X443517Y521883D01*
X441971Y519867D01*
X440998Y517519D01*
X440667Y515000D01*
X440998Y512481D01*
X441971Y510133D01*
X443517Y508118D01*
X445533Y506571D01*
X447881Y505598D01*
X450400Y505267D01*
X452919Y505598D01*
X455267Y506571D01*
X457282Y508118D01*
X458829Y510133D01*
X459802Y512481D01*
X460133Y515000D01*
X459802Y517519D01*
X458829Y519867D01*
X457282Y521883D01*
X455267Y523429D01*
X452919Y524402D01*
X450400Y524733D01*
D02*
G37*
G36*
X206000Y515098D02*
X204049Y514710D01*
X202395Y513605D01*
X201290Y511951D01*
X200902Y510000D01*
X201290Y508049D01*
X202395Y506395D01*
X204049Y505290D01*
X206000Y504902D01*
X207951Y505290D01*
X209605Y506395D01*
X210710Y508049D01*
X211098Y510000D01*
X210710Y511951D01*
X209605Y513605D01*
X207951Y514710D01*
X206000Y515098D01*
D02*
G37*
G36*
X363000Y506098D02*
X361049Y505710D01*
X359905Y504945D01*
X359000Y504708D01*
X358095Y504945D01*
X356951Y505710D01*
X355000Y506098D01*
X353049Y505710D01*
X351395Y504605D01*
X350290Y502951D01*
X350147Y502234D01*
X348853D01*
X348710Y502951D01*
X347605Y504605D01*
X345951Y505710D01*
X344000Y506098D01*
X342049Y505710D01*
X340395Y504605D01*
X339290Y502951D01*
X338902Y501000D01*
X339290Y499049D01*
X340395Y497395D01*
X342049Y496290D01*
X344000Y495902D01*
X345951Y496290D01*
X347605Y497395D01*
X348710Y499049D01*
X348853Y499766D01*
X350147D01*
X350290Y499049D01*
X351395Y497395D01*
X353049Y496290D01*
X355000Y495902D01*
X356951Y496290D01*
X358095Y497055D01*
X359000Y497292D01*
X359905Y497055D01*
X361049Y496290D01*
X363000Y495902D01*
X364951Y496290D01*
X366605Y497395D01*
X367710Y499049D01*
X368098Y501000D01*
X367710Y502951D01*
X366605Y504605D01*
X364951Y505710D01*
X363000Y506098D01*
D02*
G37*
G36*
X299000Y513098D02*
X297049Y512710D01*
X295395Y511605D01*
X294290Y509951D01*
X293902Y508000D01*
X294290Y506049D01*
X295395Y504395D01*
X297049Y503290D01*
X299000Y502902D01*
X300951Y503290D01*
X302605Y504395D01*
X303710Y506049D01*
X304098Y508000D01*
X303710Y509951D01*
X302605Y511605D01*
X300951Y512710D01*
X299000Y513098D01*
D02*
G37*
G36*
X260000Y537323D02*
X256620Y536991D01*
X253371Y536005D01*
X250376Y534404D01*
X247750Y532249D01*
X245596Y529624D01*
X243995Y526629D01*
X243009Y523380D01*
X242677Y520000D01*
X243009Y516620D01*
X243995Y513371D01*
X245596Y510376D01*
X247750Y507751D01*
X250376Y505596D01*
X253371Y503995D01*
X256620Y503009D01*
X260000Y502677D01*
X263380Y503009D01*
X266629Y503995D01*
X269624Y505596D01*
X272250Y507751D01*
X274404Y510376D01*
X276005Y513371D01*
X276991Y516620D01*
X277323Y520000D01*
X276991Y523380D01*
X276005Y526629D01*
X274404Y529624D01*
X272250Y532249D01*
X269624Y534404D01*
X266629Y536005D01*
X263380Y536991D01*
X260000Y537323D01*
D02*
G37*
G36*
X330000Y512098D02*
X328049Y511710D01*
X326395Y510605D01*
X325290Y508951D01*
X324902Y507000D01*
X325290Y505049D01*
X326395Y503395D01*
X328049Y502290D01*
X330000Y501902D01*
X331951Y502290D01*
X333605Y503395D01*
X334710Y505049D01*
X335098Y507000D01*
X334710Y508951D01*
X333605Y510605D01*
X331951Y511710D01*
X330000Y512098D01*
D02*
G37*
G36*
X314000D02*
X312049Y511710D01*
X310395Y510605D01*
X309290Y508951D01*
X308902Y507000D01*
X309290Y505049D01*
X310395Y503395D01*
X312049Y502290D01*
X314000Y501902D01*
X315951Y502290D01*
X317605Y503395D01*
X318710Y505049D01*
X319098Y507000D01*
X318710Y508951D01*
X317605Y510605D01*
X315951Y511710D01*
X314000Y512098D01*
D02*
G37*
G36*
X206759Y497339D02*
X204809Y496951D01*
X203155Y495845D01*
X202050Y494192D01*
X201661Y492241D01*
X202050Y490290D01*
X203155Y488636D01*
X204809Y487531D01*
X206759Y487143D01*
X208710Y487531D01*
X210364Y488636D01*
X211469Y490290D01*
X211857Y492241D01*
X211469Y494192D01*
X210364Y495845D01*
X208710Y496951D01*
X206759Y497339D01*
D02*
G37*
G36*
X84000Y504634D02*
X81455Y504299D01*
X79083Y503317D01*
X77046Y501754D01*
X75483Y499717D01*
X74501Y497345D01*
X74166Y494800D01*
X74501Y492255D01*
X75483Y489883D01*
X77046Y487846D01*
X79083Y486283D01*
X81455Y485301D01*
X84000Y484966D01*
X86545Y485301D01*
X88917Y486283D01*
X90954Y487846D01*
X92517Y489883D01*
X93499Y492255D01*
X93834Y494800D01*
X93499Y497345D01*
X92517Y499717D01*
X90954Y501754D01*
X88917Y503317D01*
X86545Y504299D01*
X84000Y504634D01*
D02*
G37*
G36*
X58600D02*
X56055Y504299D01*
X53683Y503317D01*
X51646Y501754D01*
X50083Y499717D01*
X49101Y497345D01*
X48766Y494800D01*
X49101Y492255D01*
X50083Y489883D01*
X51646Y487846D01*
X53683Y486283D01*
X56055Y485301D01*
X58600Y484966D01*
X61145Y485301D01*
X63517Y486283D01*
X65554Y487846D01*
X67117Y489883D01*
X68099Y492255D01*
X68434Y494800D01*
X68099Y497345D01*
X67117Y499717D01*
X65554Y501754D01*
X63517Y503317D01*
X61145Y504299D01*
X58600Y504634D01*
D02*
G37*
G36*
X352000Y490098D02*
X350049Y489710D01*
X348395Y488605D01*
X347290Y486951D01*
X346902Y485000D01*
X347290Y483049D01*
X348395Y481395D01*
X350049Y480290D01*
X352000Y479902D01*
X353951Y480290D01*
X355605Y481395D01*
X356710Y483049D01*
X357098Y485000D01*
X356710Y486951D01*
X355605Y488605D01*
X353951Y489710D01*
X352000Y490098D01*
D02*
G37*
G36*
X560000Y485098D02*
X558049Y484710D01*
X556395Y483605D01*
X555290Y481951D01*
X554902Y480000D01*
X555290Y478049D01*
X556395Y476395D01*
X558049Y475290D01*
X560000Y474902D01*
X561951Y475290D01*
X563605Y476395D01*
X564710Y478049D01*
X565098Y480000D01*
X564710Y481951D01*
X563605Y483605D01*
X561951Y484710D01*
X560000Y485098D01*
D02*
G37*
G36*
X450400Y485098D02*
X448449Y484710D01*
X446795Y483605D01*
X445690Y481951D01*
X445302Y480000D01*
X445690Y478049D01*
X446795Y476395D01*
X448449Y475290D01*
X450400Y474902D01*
X452351Y475290D01*
X454005Y476395D01*
X455110Y478049D01*
X455498Y480000D01*
X455110Y481951D01*
X454005Y483605D01*
X452351Y484710D01*
X450400Y485098D01*
D02*
G37*
G36*
X93750Y479150D02*
X74250D01*
Y459650D01*
X93750D01*
Y479150D01*
D02*
G37*
G36*
X495300Y464838D02*
X493349Y464450D01*
X491695Y463345D01*
X490590Y461691D01*
X490202Y459740D01*
X490590Y457789D01*
X491695Y456135D01*
X493349Y455030D01*
X495300Y454642D01*
X497251Y455030D01*
X498905Y456135D01*
X500010Y457789D01*
X500398Y459740D01*
X500010Y461691D01*
X498905Y463345D01*
X497251Y464450D01*
X495300Y464838D01*
D02*
G37*
G36*
X378460D02*
X376509Y464450D01*
X374855Y463345D01*
X373750Y461691D01*
X373362Y459740D01*
X373750Y457789D01*
X374855Y456135D01*
X376509Y455030D01*
X378460Y454642D01*
X380411Y455030D01*
X382065Y456135D01*
X383170Y457789D01*
X383558Y459740D01*
X383170Y461691D01*
X382065Y463345D01*
X380411Y464450D01*
X378460Y464838D01*
D02*
G37*
G36*
X369570Y454678D02*
X367619Y454290D01*
X365965Y453185D01*
X365212Y452057D01*
X363768D01*
X363015Y453185D01*
X361361Y454290D01*
X359410Y454678D01*
X357459Y454290D01*
X355805Y453185D01*
X355304Y452435D01*
X354125Y451915D01*
X353724Y452182D01*
X352471Y453020D01*
X350520Y453408D01*
X348569Y453020D01*
X346915Y451915D01*
X345810Y450261D01*
X345422Y448310D01*
X345810Y446359D01*
X346915Y444705D01*
X348569Y443600D01*
X350520Y443212D01*
X352471Y443600D01*
X354125Y444705D01*
X354626Y445455D01*
X355805Y445975D01*
X356206Y445708D01*
X357459Y444870D01*
X359410Y444482D01*
X361361Y444870D01*
X363015Y445975D01*
X363768Y447103D01*
X365212D01*
X365965Y445975D01*
X367619Y444870D01*
X369570Y444482D01*
X371521Y444870D01*
X373175Y445975D01*
X374280Y447629D01*
X374668Y449580D01*
X374280Y451531D01*
X373175Y453185D01*
X371521Y454290D01*
X369570Y454678D01*
D02*
G37*
G36*
X314000Y461098D02*
X312049Y460710D01*
X310395Y459605D01*
X309290Y457951D01*
X308902Y456000D01*
X309290Y454049D01*
X310395Y452395D01*
X312049Y451290D01*
X314000Y450902D01*
X315951Y451290D01*
X317605Y452395D01*
X318710Y454049D01*
X319098Y456000D01*
X318710Y457951D01*
X317605Y459605D01*
X315951Y460710D01*
X314000Y461098D01*
D02*
G37*
G36*
X561000Y455098D02*
X559049Y454710D01*
X557395Y453605D01*
X556290Y451951D01*
X555902Y450000D01*
X556290Y448049D01*
X557395Y446395D01*
X559049Y445290D01*
X561000Y444902D01*
X562951Y445290D01*
X564605Y446395D01*
X565710Y448049D01*
X566098Y450000D01*
X565710Y451951D01*
X564605Y453605D01*
X562951Y454710D01*
X561000Y455098D01*
D02*
G37*
G36*
X332000Y442098D02*
X330049Y441710D01*
X328395Y440605D01*
X327290Y438951D01*
X326902Y437000D01*
X327290Y435049D01*
X328395Y433395D01*
X330049Y432290D01*
X332000Y431902D01*
X333951Y432290D01*
X335605Y433395D01*
X336710Y435049D01*
X337098Y437000D01*
X336710Y438951D01*
X335605Y440605D01*
X333951Y441710D01*
X332000Y442098D01*
D02*
G37*
G36*
X495300Y438168D02*
X493349Y437780D01*
X491695Y436675D01*
X490590Y435021D01*
X490202Y433070D01*
X490590Y431119D01*
X491695Y429465D01*
X493349Y428360D01*
X495300Y427972D01*
X497251Y428360D01*
X498905Y429465D01*
X500010Y431119D01*
X500398Y433070D01*
X500010Y435021D01*
X498905Y436675D01*
X497251Y437780D01*
X495300Y438168D01*
D02*
G37*
G36*
X263000Y435098D02*
X261049Y434710D01*
X259395Y433605D01*
X258290Y431951D01*
X257902Y430000D01*
X258290Y428049D01*
X259395Y426395D01*
X261049Y425290D01*
X263000Y424902D01*
X263049Y423710D01*
X261395Y422605D01*
X260290Y420951D01*
X259902Y419000D01*
X260290Y417049D01*
X261395Y415395D01*
X263049Y414290D01*
X265000Y413902D01*
X266951Y414290D01*
X268605Y415395D01*
X269710Y417049D01*
X270098Y419000D01*
X269710Y420951D01*
X268605Y422605D01*
X266951Y423710D01*
X265000Y424098D01*
X264951Y425290D01*
X266605Y426395D01*
X266853Y426766D01*
X268201Y426498D01*
X268290Y426049D01*
X269395Y424395D01*
X271049Y423290D01*
X273000Y422902D01*
X274951Y423290D01*
X276605Y424395D01*
X277710Y426049D01*
X278098Y428000D01*
X277710Y429951D01*
X276605Y431605D01*
X274951Y432710D01*
X273000Y433098D01*
X271049Y432710D01*
X269395Y431605D01*
X269147Y431234D01*
X267799Y431502D01*
X267710Y431951D01*
X266605Y433605D01*
X264951Y434710D01*
X263000Y435098D01*
D02*
G37*
G36*
X561000Y430098D02*
X559049Y429710D01*
X557395Y428605D01*
X556290Y426951D01*
X555902Y425000D01*
X556290Y423049D01*
X557395Y421395D01*
X559049Y420290D01*
X561000Y419902D01*
X562951Y420290D01*
X564605Y421395D01*
X565710Y423049D01*
X566098Y425000D01*
X565710Y426951D01*
X564605Y428605D01*
X562951Y429710D01*
X561000Y430098D01*
D02*
G37*
G36*
X386000Y415098D02*
X384049Y414710D01*
X382395Y413605D01*
X381290Y411951D01*
X380902Y410000D01*
X381290Y408049D01*
X382395Y406395D01*
X384049Y405290D01*
X386000Y404902D01*
X387951Y405290D01*
X389605Y406395D01*
X390710Y408049D01*
X391098Y410000D01*
X390710Y411951D01*
X389605Y413605D01*
X387951Y414710D01*
X386000Y415098D01*
D02*
G37*
G36*
X235081Y414179D02*
X233130Y413791D01*
X231476Y412685D01*
X230371Y411031D01*
X229983Y409081D01*
X230371Y407130D01*
X231476Y405476D01*
X233130Y404371D01*
X235081Y403983D01*
X237031Y404371D01*
X238685Y405476D01*
X239790Y407130D01*
X240179Y409081D01*
X239790Y411031D01*
X238685Y412685D01*
X237031Y413791D01*
X235081Y414179D01*
D02*
G37*
G36*
X351000Y420098D02*
X349049Y419710D01*
X347395Y418605D01*
X346290Y416951D01*
X345902Y415000D01*
X346290Y413049D01*
X347395Y411395D01*
X349049Y410290D01*
X349797Y410141D01*
X350890Y409621D01*
X350719Y408762D01*
X350502Y407670D01*
X350890Y405719D01*
X351995Y404065D01*
X353649Y402960D01*
X355600Y402572D01*
X357551Y402960D01*
X359205Y404065D01*
X360310Y405719D01*
X360698Y407670D01*
X360310Y409621D01*
X359205Y411275D01*
X357551Y412380D01*
X356803Y412529D01*
X355710Y413049D01*
X355881Y413908D01*
X356098Y415000D01*
X355710Y416951D01*
X354605Y418605D01*
X352951Y419710D01*
X351000Y420098D01*
D02*
G37*
G36*
X495300Y411498D02*
X493349Y411110D01*
X491695Y410005D01*
X490590Y408351D01*
X490202Y406400D01*
X490590Y404449D01*
X491695Y402795D01*
X493349Y401690D01*
X495300Y401302D01*
X497251Y401690D01*
X498905Y402795D01*
X500010Y404449D01*
X500398Y406400D01*
X500010Y408351D01*
X498905Y410005D01*
X497251Y411110D01*
X495300Y411498D01*
D02*
G37*
G36*
X395000Y405098D02*
X393049Y404710D01*
X391395Y403605D01*
X390290Y401951D01*
X389902Y400000D01*
X390290Y398049D01*
X391395Y396395D01*
X393049Y395290D01*
X395000Y394902D01*
X396951Y395290D01*
X398605Y396395D01*
X399710Y398049D01*
X400098Y400000D01*
X399710Y401951D01*
X398605Y403605D01*
X396951Y404710D01*
X395000Y405098D01*
D02*
G37*
G36*
X247081Y402178D02*
X245130Y401791D01*
X243476Y400685D01*
X242371Y399031D01*
X241983Y397081D01*
X242371Y395130D01*
X243476Y393476D01*
X245130Y392371D01*
X247081Y391983D01*
X249032Y392371D01*
X250685Y393476D01*
X251791Y395130D01*
X252178Y397081D01*
X251791Y399031D01*
X250685Y400685D01*
X249032Y401791D01*
X247081Y402178D01*
D02*
G37*
G36*
X469000Y400098D02*
X467049Y399710D01*
X465395Y398605D01*
X464290Y396951D01*
X463902Y395000D01*
X464290Y393049D01*
X465395Y391395D01*
X467049Y390290D01*
X469000Y389902D01*
X470951Y390290D01*
X472605Y391395D01*
X473710Y393049D01*
X474098Y395000D01*
X473710Y396951D01*
X472605Y398605D01*
X470951Y399710D01*
X469000Y400098D01*
D02*
G37*
G36*
X560000Y395098D02*
X558049Y394710D01*
X556395Y393605D01*
X555290Y391951D01*
X554902Y390000D01*
X555290Y388049D01*
X556395Y386395D01*
X558049Y385290D01*
X560000Y384902D01*
X561951Y385290D01*
X563605Y386395D01*
X564710Y388049D01*
X565098Y390000D01*
X564710Y391951D01*
X563605Y393605D01*
X561951Y394710D01*
X560000Y395098D01*
D02*
G37*
G36*
X203200Y386098D02*
X201249Y385710D01*
X199595Y384605D01*
X198490Y382951D01*
X198102Y381000D01*
X198490Y379049D01*
X199595Y377395D01*
X201249Y376290D01*
X203200Y375902D01*
X205151Y376290D01*
X206805Y377395D01*
X207910Y379049D01*
X208298Y381000D01*
X207910Y382951D01*
X206805Y384605D01*
X205151Y385710D01*
X203200Y386098D01*
D02*
G37*
G36*
X137000Y385098D02*
X135049Y384710D01*
X133395Y383605D01*
X132290Y381951D01*
X131902Y380000D01*
X132290Y378049D01*
X133395Y376395D01*
X135049Y375290D01*
X137000Y374902D01*
X138951Y375290D01*
X140605Y376395D01*
X141710Y378049D01*
X142098Y380000D01*
X141710Y381951D01*
X140605Y383605D01*
X138951Y384710D01*
X137000Y385098D01*
D02*
G37*
G36*
X274000Y382098D02*
X272049Y381710D01*
X270395Y380605D01*
X269290Y378951D01*
X268902Y377000D01*
X269290Y375049D01*
X270395Y373395D01*
X270692Y373197D01*
X271033Y371459D01*
X270596Y370806D01*
X270208Y368855D01*
X270596Y366904D01*
X271701Y365250D01*
X273355Y364145D01*
X275306Y363757D01*
X277257Y364145D01*
X278911Y365250D01*
X280016Y366904D01*
X280404Y368855D01*
X280016Y370806D01*
X278911Y372460D01*
X278614Y372658D01*
X278273Y374396D01*
X278710Y375049D01*
X279098Y377000D01*
X278710Y378951D01*
X277605Y380605D01*
X275951Y381710D01*
X274000Y382098D01*
D02*
G37*
G36*
X191419Y373517D02*
X189468Y373129D01*
X187815Y372024D01*
X186709Y370370D01*
X186321Y368419D01*
X186709Y366469D01*
X187815Y364815D01*
X189468Y363709D01*
X191419Y363321D01*
X193370Y363709D01*
X195024Y364815D01*
X196129Y366469D01*
X196517Y368419D01*
X196129Y370370D01*
X195024Y372024D01*
X193370Y373129D01*
X191419Y373517D01*
D02*
G37*
G36*
X367030Y370858D02*
X365079Y370470D01*
X363425Y369365D01*
X362320Y367711D01*
X361932Y365760D01*
X362320Y363809D01*
X363425Y362155D01*
X365079Y361050D01*
X367030Y360662D01*
X368981Y361050D01*
X370635Y362155D01*
X371740Y363809D01*
X372128Y365760D01*
X371740Y367711D01*
X370635Y369365D01*
X368981Y370470D01*
X367030Y370858D01*
D02*
G37*
G36*
X351790D02*
X349839Y370470D01*
X348185Y369365D01*
X347080Y367711D01*
X346692Y365760D01*
X347080Y363809D01*
X348185Y362155D01*
X349839Y361050D01*
X351790Y360662D01*
X353741Y361050D01*
X355395Y362155D01*
X356500Y363809D01*
X356888Y365760D01*
X356500Y367711D01*
X355395Y369365D01*
X353741Y370470D01*
X351790Y370858D01*
D02*
G37*
G36*
X137000Y360098D02*
X135049Y359710D01*
X133395Y358605D01*
X132290Y356951D01*
X131902Y355000D01*
X131134Y354232D01*
X130800Y354298D01*
X128849Y353910D01*
X127195Y352805D01*
X126090Y351151D01*
X125702Y349200D01*
X126090Y347249D01*
X127195Y345595D01*
X128849Y344490D01*
X130800Y344102D01*
X132751Y344490D01*
X134405Y345595D01*
X135510Y347249D01*
X135898Y349200D01*
X136666Y349968D01*
X137000Y349902D01*
X138951Y350290D01*
X140605Y351395D01*
X141710Y353049D01*
X142098Y355000D01*
X141710Y356951D01*
X140605Y358605D01*
X138951Y359710D01*
X137000Y360098D01*
D02*
G37*
G36*
X383540Y358158D02*
X381589Y357770D01*
X379935Y356665D01*
X378830Y355011D01*
X378442Y353060D01*
X378830Y351109D01*
X379935Y349455D01*
X381589Y348350D01*
X383540Y347962D01*
X385491Y348350D01*
X387145Y349455D01*
X388250Y351109D01*
X388638Y353060D01*
X388250Y355011D01*
X387145Y356665D01*
X385491Y357770D01*
X383540Y358158D01*
D02*
G37*
G36*
X312808Y373786D02*
X310857Y373398D01*
X309203Y372293D01*
X308098Y370639D01*
X307710Y368688D01*
X308098Y366737D01*
X309203Y365083D01*
X310857Y363978D01*
X312808Y363590D01*
X313749Y363777D01*
X314761Y363972D01*
X315129Y362855D01*
X315289Y362048D01*
X316395Y360395D01*
X318048Y359289D01*
X319999Y358901D01*
X320818Y359064D01*
X321901Y357999D01*
X322289Y356048D01*
X323395Y354394D01*
X325048Y353289D01*
X326999Y352901D01*
X327041Y351697D01*
X326902Y351000D01*
X327290Y349049D01*
X328395Y347395D01*
X330049Y346290D01*
X332000Y345902D01*
X333951Y346290D01*
X335605Y347395D01*
X336710Y349049D01*
X337098Y351000D01*
X336710Y352951D01*
X335605Y354605D01*
X333951Y355710D01*
X332000Y356098D01*
X331959Y357303D01*
X332097Y357999D01*
X331709Y359950D01*
X330604Y361604D01*
X328950Y362709D01*
X326999Y363097D01*
X326180Y362934D01*
X325097Y363999D01*
X324709Y365950D01*
X323604Y367604D01*
X321950Y368709D01*
X319999Y369097D01*
X319058Y368910D01*
X318047Y368715D01*
X317678Y369832D01*
X317518Y370639D01*
X316413Y372293D01*
X314759Y373398D01*
X312808Y373786D01*
D02*
G37*
G36*
X560000Y355098D02*
X558049Y354710D01*
X556395Y353605D01*
X555290Y351951D01*
X554902Y350000D01*
X555290Y348049D01*
X556395Y346395D01*
X558049Y345290D01*
X560000Y344902D01*
X561951Y345290D01*
X563605Y346395D01*
X564710Y348049D01*
X565098Y350000D01*
X564710Y351951D01*
X563605Y353605D01*
X561951Y354710D01*
X560000Y355098D01*
D02*
G37*
G36*
X457200Y354348D02*
X455249Y353960D01*
X453595Y352855D01*
X452490Y351201D01*
X452102Y349250D01*
X452490Y347299D01*
X453595Y345645D01*
X455249Y344540D01*
X457200Y344152D01*
X459151Y344540D01*
X460805Y345645D01*
X461910Y347299D01*
X462298Y349250D01*
X461910Y351201D01*
X460805Y352855D01*
X459151Y353960D01*
X457200Y354348D01*
D02*
G37*
G36*
X253000Y353848D02*
X251049Y353460D01*
X249395Y352355D01*
X248290Y350701D01*
X247902Y348750D01*
X248290Y346799D01*
X249395Y345145D01*
X251049Y344040D01*
X253000Y343652D01*
X254951Y344040D01*
X256605Y345145D01*
X257710Y346799D01*
X258098Y348750D01*
X257710Y350701D01*
X256605Y352355D01*
X254951Y353460D01*
X253000Y353848D01*
D02*
G37*
G36*
X191000Y351098D02*
X189049Y350710D01*
X187395Y349605D01*
X186290Y347951D01*
X185902Y346000D01*
X186290Y344049D01*
X187395Y342395D01*
X189049Y341290D01*
X191000Y340902D01*
X192951Y341290D01*
X194605Y342395D01*
X195710Y344049D01*
X196098Y346000D01*
X195710Y347951D01*
X194605Y349605D01*
X192951Y350710D01*
X191000Y351098D01*
D02*
G37*
G36*
X307999Y350098D02*
X306048Y349710D01*
X304394Y348605D01*
X303289Y346951D01*
X302901Y345000D01*
X303289Y343049D01*
X304394Y341395D01*
X306048Y340290D01*
X307999Y339902D01*
X309950Y340290D01*
X311604Y341395D01*
X312709Y343049D01*
X313097Y345000D01*
X312709Y346951D01*
X311604Y348605D01*
X309950Y349710D01*
X307999Y350098D01*
D02*
G37*
G36*
X173000Y349098D02*
X171049Y348710D01*
X169395Y347605D01*
X168290Y345951D01*
X167902Y344000D01*
X168290Y342049D01*
X169395Y340395D01*
X171049Y339290D01*
X173000Y338902D01*
X174951Y339290D01*
X176605Y340395D01*
X177710Y342049D01*
X178098Y344000D01*
X177710Y345951D01*
X176605Y347605D01*
X174951Y348710D01*
X173000Y349098D01*
D02*
G37*
G36*
X372110Y346728D02*
X370159Y346340D01*
X368505Y345235D01*
X367400Y343581D01*
X367012Y341630D01*
X367400Y339679D01*
X368505Y338025D01*
X370159Y336920D01*
X372110Y336532D01*
X374061Y336920D01*
X375715Y338025D01*
X376820Y339679D01*
X377208Y341630D01*
X376820Y343581D01*
X375715Y345235D01*
X374061Y346340D01*
X372110Y346728D01*
D02*
G37*
G36*
X295999Y355097D02*
X294049Y354709D01*
X292395Y353604D01*
X291290Y351950D01*
X290902Y349999D01*
X291290Y348048D01*
X292395Y346395D01*
Y345561D01*
X291411Y344905D01*
X290306Y343251D01*
X289918Y341300D01*
X290306Y339349D01*
X291411Y337695D01*
X293065Y336590D01*
X295016Y336202D01*
X296967Y336590D01*
X298621Y337695D01*
X299726Y339349D01*
X300114Y341300D01*
X299726Y343251D01*
X298621Y344905D01*
Y345738D01*
X299604Y346395D01*
X300709Y348048D01*
X301097Y349999D01*
X300709Y351950D01*
X299604Y353604D01*
X297950Y354709D01*
X295999Y355097D01*
D02*
G37*
G36*
X159331Y342093D02*
X157380Y341705D01*
X155726Y340600D01*
X154621Y338946D01*
X154233Y336996D01*
X154621Y335045D01*
X155726Y333391D01*
X157380Y332286D01*
X159331Y331898D01*
X161282Y332286D01*
X162936Y333391D01*
X164041Y335045D01*
X164429Y336996D01*
X164041Y338946D01*
X162936Y340600D01*
X161282Y341705D01*
X159331Y342093D01*
D02*
G37*
G36*
X97000Y355097D02*
X95049Y354709D01*
X93395Y353604D01*
X92290Y351950D01*
X91902Y349999D01*
X92290Y348048D01*
X93395Y346395D01*
X95049Y345289D01*
X96283Y345044D01*
X96831Y343671D01*
X96405Y343117D01*
X95423Y340745D01*
X95088Y338200D01*
X95423Y335655D01*
X96405Y333283D01*
X97968Y331246D01*
X100005Y329683D01*
X102377Y328701D01*
X104922Y328366D01*
X107467Y328701D01*
X109839Y329683D01*
X111876Y331246D01*
X113439Y333283D01*
X114421Y335655D01*
X114756Y338200D01*
X114421Y340745D01*
X113439Y343117D01*
X111876Y345154D01*
X109839Y346717D01*
X107467Y347699D01*
X104922Y348034D01*
X102937Y347773D01*
X101968Y348642D01*
X101872Y348865D01*
X102098Y349999D01*
X101710Y351950D01*
X100605Y353604D01*
X98951Y354709D01*
X97000Y355097D01*
D02*
G37*
G36*
X382270Y337838D02*
X380319Y337450D01*
X378665Y336345D01*
X377560Y334691D01*
X377172Y332740D01*
X377560Y330789D01*
X378665Y329135D01*
X380319Y328030D01*
X382270Y327642D01*
X384221Y328030D01*
X385875Y329135D01*
X386980Y330789D01*
X387368Y332740D01*
X386980Y334691D01*
X385875Y336345D01*
X384221Y337450D01*
X382270Y337838D01*
D02*
G37*
G36*
X427976Y333221D02*
X426026Y332833D01*
X424372Y331728D01*
X423266Y330074D01*
X422878Y328123D01*
X423266Y326172D01*
X424372Y324518D01*
X426026Y323413D01*
X427976Y323025D01*
X429927Y323413D01*
X431581Y324518D01*
X432686Y326172D01*
X433074Y328123D01*
X432686Y330074D01*
X431581Y331728D01*
X429927Y332833D01*
X427976Y333221D01*
D02*
G37*
G36*
X448000Y333098D02*
X446049Y332710D01*
X444395Y331605D01*
X443290Y329951D01*
X442902Y328000D01*
X443290Y326049D01*
X444395Y324395D01*
X446049Y323290D01*
X448000Y322902D01*
X449951Y323290D01*
X451605Y324395D01*
X452710Y326049D01*
X453098Y328000D01*
X452710Y329951D01*
X451605Y331605D01*
X449951Y332710D01*
X448000Y333098D01*
D02*
G37*
G36*
X257589Y328848D02*
X255639Y328460D01*
X253985Y327355D01*
X252880Y325701D01*
X252491Y323750D01*
X252880Y321799D01*
X253985Y320145D01*
X255639Y319040D01*
X257589Y318652D01*
X259540Y319040D01*
X261194Y320145D01*
X262299Y321799D01*
X262687Y323750D01*
X262299Y325701D01*
X261194Y327355D01*
X259540Y328460D01*
X257589Y328848D01*
D02*
G37*
G36*
X412750Y323868D02*
X410799Y323480D01*
X409145Y322375D01*
X408040Y320721D01*
X407652Y318770D01*
X408040Y316819D01*
X409145Y315165D01*
X410799Y314060D01*
X412750Y313672D01*
X414701Y314060D01*
X416355Y315165D01*
X417460Y316819D01*
X417848Y318770D01*
X417460Y320721D01*
X416355Y322375D01*
X414701Y323480D01*
X412750Y323868D01*
D02*
G37*
G36*
X382270Y322598D02*
X380319Y322210D01*
X378665Y321105D01*
X377560Y319451D01*
X377172Y317500D01*
X377560Y315549D01*
X378665Y313895D01*
X380319Y312790D01*
X382270Y312402D01*
X384221Y312790D01*
X385875Y313895D01*
X386980Y315549D01*
X387368Y317500D01*
X386980Y319451D01*
X385875Y321105D01*
X384221Y322210D01*
X382270Y322598D01*
D02*
G37*
G36*
X560000Y315098D02*
X558049Y314710D01*
X556395Y313605D01*
X555290Y311951D01*
X554902Y310000D01*
X555290Y308049D01*
X556395Y306395D01*
X558049Y305290D01*
X560000Y304902D01*
X561951Y305290D01*
X563605Y306395D01*
X564710Y308049D01*
X565098Y310000D01*
X564710Y311951D01*
X563605Y313605D01*
X561951Y314710D01*
X560000Y315098D01*
D02*
G37*
G36*
X104922Y320634D02*
X102377Y320299D01*
X100005Y319317D01*
X97968Y317754D01*
X96405Y315717D01*
X95423Y313345D01*
X95088Y310800D01*
X95423Y308255D01*
X96405Y305883D01*
X97968Y303846D01*
X100005Y302283D01*
X102377Y301301D01*
X104922Y300966D01*
X107467Y301301D01*
X109839Y302283D01*
X111876Y303846D01*
X113439Y305883D01*
X114421Y308255D01*
X114756Y310800D01*
X114421Y313345D01*
X113439Y315717D01*
X111876Y317754D01*
X109839Y319317D01*
X107467Y320299D01*
X104922Y320634D01*
D02*
G37*
G36*
X251581Y304517D02*
X249630Y304129D01*
X247976Y303024D01*
X246871Y301370D01*
X246483Y299419D01*
X246871Y297468D01*
X247976Y295815D01*
X249630Y294709D01*
X251581Y294321D01*
X253531Y294709D01*
X255185Y295815D01*
X256290Y297468D01*
X256679Y299419D01*
X256290Y301370D01*
X255185Y303024D01*
X253531Y304129D01*
X251581Y304517D01*
D02*
G37*
G36*
X470001Y304138D02*
X468050Y303750D01*
X466396Y302645D01*
X465291Y300991D01*
X464903Y299040D01*
X465291Y297089D01*
X466396Y295435D01*
X468050Y294330D01*
X470001Y293942D01*
X471952Y294330D01*
X473606Y295435D01*
X474711Y297089D01*
X475099Y299040D01*
X474711Y300991D01*
X473606Y302645D01*
X471952Y303750D01*
X470001Y304138D01*
D02*
G37*
G36*
X362919Y304017D02*
X360968Y303629D01*
X359314Y302524D01*
X358209Y300870D01*
X357821Y298919D01*
X358209Y296968D01*
X359314Y295314D01*
X360968Y294209D01*
X362919Y293821D01*
X364870Y294209D01*
X366524Y295314D01*
X367629Y296968D01*
X368017Y298919D01*
X367629Y300870D01*
X366524Y302524D01*
X364870Y303629D01*
X362919Y304017D01*
D02*
G37*
G36*
X330647Y296707D02*
X328696Y296319D01*
X327042Y295214D01*
X325937Y293560D01*
X325549Y291609D01*
X324435Y290696D01*
X323248Y290460D01*
X321595Y289355D01*
X320490Y287701D01*
X320302Y286758D01*
X318907Y285741D01*
X318770Y285768D01*
X316819Y285380D01*
X315165Y284275D01*
X314060Y282621D01*
X313672Y280670D01*
X314060Y278719D01*
X315165Y277065D01*
X316819Y275960D01*
X318770Y275572D01*
X320721Y275960D01*
X322375Y277065D01*
X323480Y278719D01*
X323667Y279662D01*
X325062Y280679D01*
X325199Y280652D01*
X327150Y281040D01*
X328804Y282145D01*
X329909Y283799D01*
X330297Y285750D01*
X331411Y286663D01*
X332598Y286899D01*
X334252Y288004D01*
X335357Y289658D01*
X335745Y291609D01*
X335357Y293560D01*
X334252Y295214D01*
X332598Y296319D01*
X330647Y296707D01*
D02*
G37*
G36*
X346999Y284097D02*
X345048Y283709D01*
X343395Y282604D01*
X343061Y282105D01*
X341825D01*
X340172Y283210D01*
X338221Y283598D01*
X336270Y283210D01*
X334616Y282105D01*
X333511Y280451D01*
X333123Y278500D01*
X333511Y276549D01*
X334616Y274895D01*
X336270Y273790D01*
X338221Y273402D01*
X340172Y273790D01*
X341825Y274895D01*
X342159Y275395D01*
X342742D01*
X343596Y275260D01*
X345048Y274289D01*
X346999Y273902D01*
X348950Y274289D01*
X350604Y275395D01*
X351709Y277048D01*
X352097Y278999D01*
X351709Y280950D01*
X350604Y282604D01*
X348950Y283709D01*
X346999Y284097D01*
D02*
G37*
G36*
X191000Y291098D02*
X189049Y290710D01*
X187395Y289605D01*
X186290Y287951D01*
X185902Y286000D01*
X186290Y284049D01*
X187395Y282395D01*
X189049Y281290D01*
X191000Y280902D01*
X192951Y281290D01*
X194605Y282395D01*
X195710Y284049D01*
X196098Y286000D01*
X195710Y287951D01*
X194605Y289605D01*
X192951Y290710D01*
X191000Y291098D01*
D02*
G37*
G36*
X104922Y293234D02*
X102377Y292899D01*
X100005Y291917D01*
X97968Y290354D01*
X96405Y288317D01*
X95423Y285945D01*
X95088Y283400D01*
X95423Y280855D01*
X96405Y278483D01*
X97968Y276446D01*
X100005Y274883D01*
X102377Y273901D01*
X104922Y273566D01*
X107467Y273901D01*
X109839Y274883D01*
X111876Y276446D01*
X113439Y278483D01*
X114421Y280855D01*
X114756Y283400D01*
X114421Y285945D01*
X113439Y288317D01*
X111876Y290354D01*
X109839Y291917D01*
X107467Y292899D01*
X104922Y293234D01*
D02*
G37*
G36*
X560000Y275098D02*
X558049Y274710D01*
X556395Y273605D01*
X555290Y271951D01*
X554902Y270000D01*
X555290Y268049D01*
X556395Y266395D01*
X558049Y265290D01*
X560000Y264902D01*
X561951Y265290D01*
X563605Y266395D01*
X564710Y268049D01*
X565098Y270000D01*
X564710Y271951D01*
X563605Y273605D01*
X561951Y274710D01*
X560000Y275098D01*
D02*
G37*
G36*
X255000Y273098D02*
X253049Y272710D01*
X251395Y271605D01*
X250290Y269951D01*
X249902Y268000D01*
X250290Y266049D01*
X251395Y264395D01*
X253049Y263290D01*
X255000Y262902D01*
X256951Y263290D01*
X258605Y264395D01*
X259710Y266049D01*
X260098Y268000D01*
X259710Y269951D01*
X258605Y271605D01*
X256951Y272710D01*
X255000Y273098D01*
D02*
G37*
G36*
X428000D02*
X426049Y272710D01*
X424395Y271605D01*
X423290Y269951D01*
X422902Y268000D01*
X423290Y266049D01*
X424395Y264395D01*
X426049Y263290D01*
X428000Y262902D01*
X429951Y263290D01*
X431184Y264114D01*
X431614Y264391D01*
X432769Y263852D01*
X433275Y263095D01*
X434929Y261990D01*
X436880Y261602D01*
X438831Y261990D01*
X440485Y263095D01*
X441590Y264749D01*
X441978Y266700D01*
X441590Y268651D01*
X440485Y270305D01*
X438831Y271410D01*
X436880Y271798D01*
X434929Y271410D01*
X433697Y270586D01*
X433266Y270309D01*
X432111Y270848D01*
X431605Y271605D01*
X429951Y272710D01*
X428000Y273098D01*
D02*
G37*
G36*
X455000Y265098D02*
X453049Y264710D01*
X451395Y263605D01*
X450290Y261951D01*
X449902Y260000D01*
X450290Y258049D01*
X451395Y256395D01*
X453049Y255290D01*
X455000Y254902D01*
X456951Y255290D01*
X458605Y256395D01*
X459710Y258049D01*
X460098Y260000D01*
X459710Y261951D01*
X458605Y263605D01*
X456951Y264710D01*
X455000Y265098D01*
D02*
G37*
G36*
X218000D02*
X216049Y264710D01*
X214395Y263605D01*
X213290Y261951D01*
X212902Y260000D01*
X213290Y258049D01*
X214395Y256395D01*
X216049Y255290D01*
X218000Y254902D01*
X219951Y255290D01*
X221605Y256395D01*
X222710Y258049D01*
X223098Y260000D01*
X222710Y261951D01*
X221605Y263605D01*
X219951Y264710D01*
X218000Y265098D01*
D02*
G37*
G36*
X190000Y262098D02*
X188049Y261710D01*
X186395Y260605D01*
X185290Y258951D01*
X184902Y257000D01*
X185290Y255049D01*
X186395Y253395D01*
X188049Y252290D01*
X190000Y251902D01*
X191951Y252290D01*
X193605Y253395D01*
X194710Y255049D01*
X195098Y257000D01*
X194710Y258951D01*
X193605Y260605D01*
X191951Y261710D01*
X190000Y262098D01*
D02*
G37*
G36*
X293000Y261098D02*
X291049Y260710D01*
X289395Y259605D01*
X288290Y257951D01*
X287902Y256000D01*
X288290Y254049D01*
X289395Y252395D01*
X291049Y251290D01*
X293000Y250902D01*
X294951Y251290D01*
X296605Y252395D01*
X297710Y254049D01*
X298098Y256000D01*
X297710Y257951D01*
X296605Y259605D01*
X294951Y260710D01*
X293000Y261098D01*
D02*
G37*
G36*
X104922Y265834D02*
X102377Y265499D01*
X100005Y264517D01*
X97968Y262954D01*
X96405Y260917D01*
X95423Y258545D01*
X95088Y256000D01*
X95423Y253455D01*
X96405Y251083D01*
X97968Y249046D01*
X100005Y247483D01*
X102377Y246501D01*
X104922Y246166D01*
X107467Y246501D01*
X109839Y247483D01*
X111876Y249046D01*
X113439Y251083D01*
X114421Y253455D01*
X114756Y256000D01*
X114421Y258545D01*
X113439Y260917D01*
X111876Y262954D01*
X109839Y264517D01*
X107467Y265499D01*
X104922Y265834D01*
D02*
G37*
G36*
X317500Y255288D02*
X315549Y254900D01*
X313895Y253795D01*
X312790Y252141D01*
X312402Y250190D01*
X312790Y248239D01*
X313895Y246585D01*
X315549Y245480D01*
X317500Y245092D01*
X319451Y245480D01*
X321105Y246585D01*
X322210Y248239D01*
X322598Y250190D01*
X322210Y252141D01*
X321105Y253795D01*
X319451Y254900D01*
X317500Y255288D01*
D02*
G37*
G36*
X385000Y243098D02*
X383049Y242710D01*
X381395Y241605D01*
X380290Y239951D01*
X379902Y238000D01*
X380290Y236049D01*
X381395Y234395D01*
X383049Y233290D01*
X385000Y232902D01*
X386951Y233290D01*
X388605Y234395D01*
X389710Y236049D01*
X390098Y238000D01*
X389710Y239951D01*
X388605Y241605D01*
X386951Y242710D01*
X385000Y243098D01*
D02*
G37*
G36*
X560000Y235098D02*
X558049Y234710D01*
X556395Y233605D01*
X555290Y231951D01*
X554902Y230000D01*
X555290Y228049D01*
X556395Y226395D01*
X558049Y225290D01*
X560000Y224902D01*
X561951Y225290D01*
X563605Y226395D01*
X564710Y228049D01*
X565098Y230000D01*
X564710Y231951D01*
X563605Y233605D01*
X561951Y234710D01*
X560000Y235098D01*
D02*
G37*
G36*
X413000Y234848D02*
X411049Y234460D01*
X409395Y233355D01*
X408290Y231701D01*
X407902Y229750D01*
X408290Y227799D01*
X409395Y226145D01*
X411049Y225040D01*
X413000Y224652D01*
X414951Y225040D01*
X416605Y226145D01*
X417710Y227799D01*
X418098Y229750D01*
X417710Y231701D01*
X416605Y233355D01*
X414951Y234460D01*
X413000Y234848D01*
D02*
G37*
G36*
X245000Y232098D02*
X243049Y231710D01*
X241395Y230605D01*
X240290Y228951D01*
X239902Y227000D01*
X240290Y225049D01*
X241395Y223395D01*
X243049Y222290D01*
X245000Y221902D01*
X246951Y222290D01*
X248605Y223395D01*
X249710Y225049D01*
X250098Y227000D01*
X249710Y228951D01*
X248605Y230605D01*
X246951Y231710D01*
X245000Y232098D01*
D02*
G37*
G36*
X104922Y238434D02*
X102377Y238099D01*
X100005Y237117D01*
X97968Y235554D01*
X96405Y233517D01*
X95423Y231145D01*
X95088Y228600D01*
X95423Y226055D01*
X96405Y223683D01*
X97968Y221646D01*
X100005Y220083D01*
X102377Y219101D01*
X104922Y218766D01*
X107467Y219101D01*
X109839Y220083D01*
X111876Y221646D01*
X113439Y223683D01*
X114421Y226055D01*
X114756Y228600D01*
X114421Y231145D01*
X113439Y233517D01*
X111876Y235554D01*
X109839Y237117D01*
X107467Y238099D01*
X104922Y238434D01*
D02*
G37*
G36*
X176000Y236078D02*
X173650Y235768D01*
X171461Y234862D01*
X169581Y233419D01*
X168139Y231539D01*
X167232Y229349D01*
X166922Y227000D01*
X167232Y224650D01*
X168139Y222461D01*
X169581Y220581D01*
X171461Y219139D01*
X173650Y218232D01*
X176000Y217922D01*
X178349Y218232D01*
X180539Y219139D01*
X182419Y220581D01*
X183862Y222461D01*
X184768Y224650D01*
X185078Y227000D01*
X184768Y229349D01*
X183862Y231539D01*
X182419Y233419D01*
X180539Y234862D01*
X178349Y235768D01*
X176000Y236078D01*
D02*
G37*
G36*
X283000Y225098D02*
X281049Y224710D01*
X279395Y223605D01*
X278290Y221951D01*
X277902Y220000D01*
X278290Y218049D01*
X279395Y216395D01*
X281049Y215290D01*
X283000Y214902D01*
X284951Y215290D01*
X286605Y216395D01*
X287710Y218049D01*
X288098Y220000D01*
X287710Y221951D01*
X286605Y223605D01*
X284951Y224710D01*
X283000Y225098D01*
D02*
G37*
G36*
X440000Y213098D02*
X438049Y212710D01*
X436395Y211605D01*
X435290Y209951D01*
X434902Y208000D01*
X435290Y206049D01*
X436395Y204395D01*
X438049Y203290D01*
X440000Y202902D01*
X441951Y203290D01*
X443605Y204395D01*
X444710Y206049D01*
X445098Y208000D01*
X444710Y209951D01*
X443605Y211605D01*
X441951Y212710D01*
X440000Y213098D01*
D02*
G37*
G36*
X248000Y211098D02*
X246049Y210710D01*
X244395Y209605D01*
X243290Y207951D01*
X242902Y206000D01*
X243290Y204049D01*
X244395Y202395D01*
X246049Y201290D01*
X248000Y200902D01*
X249951Y201290D01*
X251605Y202395D01*
X252710Y204049D01*
X253098Y206000D01*
X252710Y207951D01*
X251605Y209605D01*
X249951Y210710D01*
X248000Y211098D01*
D02*
G37*
G36*
X291000Y210098D02*
X289049Y209710D01*
X287395Y208605D01*
X286290Y206951D01*
X285902Y205000D01*
X286290Y203049D01*
X287395Y201395D01*
X289049Y200290D01*
X291000Y199902D01*
X292951Y200290D01*
X294605Y201395D01*
X295710Y203049D01*
X296098Y205000D01*
X295710Y206951D01*
X294605Y208605D01*
X292951Y209710D01*
X291000Y210098D01*
D02*
G37*
G36*
X338000Y205098D02*
X336049Y204710D01*
X334395Y203605D01*
X333290Y201951D01*
X332902Y200000D01*
X333290Y198049D01*
X334395Y196395D01*
X336049Y195290D01*
X338000Y194902D01*
X339951Y195290D01*
X341605Y196395D01*
X342710Y198049D01*
X343098Y200000D01*
X342710Y201951D01*
X341605Y203605D01*
X339951Y204710D01*
X338000Y205098D01*
D02*
G37*
G36*
X319000D02*
X317049Y204710D01*
X315395Y203605D01*
X314290Y201951D01*
X313902Y200000D01*
X314290Y198049D01*
X315395Y196395D01*
X317049Y195290D01*
X319000Y194902D01*
X320951Y195290D01*
X322605Y196395D01*
X323710Y198049D01*
X324098Y200000D01*
X323710Y201951D01*
X322605Y203605D01*
X320951Y204710D01*
X319000Y205098D01*
D02*
G37*
G36*
X218000D02*
X216049Y204710D01*
X214395Y203605D01*
X213290Y201951D01*
X212902Y200000D01*
X213290Y198049D01*
X214395Y196395D01*
X216049Y195290D01*
X218000Y194902D01*
X219951Y195290D01*
X221605Y196395D01*
X222710Y198049D01*
X223098Y200000D01*
X222710Y201951D01*
X221605Y203605D01*
X219951Y204710D01*
X218000Y205098D01*
D02*
G37*
G36*
X430367Y204731D02*
X428416Y204342D01*
X426763Y203237D01*
X425658Y201583D01*
X425270Y199633D01*
X425658Y197682D01*
X426763Y196028D01*
X428416Y194923D01*
X430367Y194535D01*
X432318Y194923D01*
X433972Y196028D01*
X435077Y197682D01*
X435465Y199633D01*
X435077Y201583D01*
X433972Y203237D01*
X432318Y204342D01*
X430367Y204731D01*
D02*
G37*
G36*
X104922Y211034D02*
X102377Y210699D01*
X100005Y209717D01*
X97968Y208154D01*
X96405Y206117D01*
X95423Y203745D01*
X95088Y201200D01*
X95423Y198655D01*
X96405Y196283D01*
X97968Y194246D01*
X100005Y192683D01*
X102377Y191701D01*
X104922Y191366D01*
X107467Y191701D01*
X109839Y192683D01*
X111876Y194246D01*
X113439Y196283D01*
X114421Y198655D01*
X114756Y201200D01*
X114421Y203745D01*
X113439Y206117D01*
X111876Y208154D01*
X109839Y209717D01*
X107467Y210699D01*
X104922Y211034D01*
D02*
G37*
G36*
X560000Y195098D02*
X558049Y194710D01*
X556395Y193605D01*
X555290Y191951D01*
X554902Y190000D01*
X555290Y188049D01*
X556395Y186395D01*
X558049Y185290D01*
X560000Y184902D01*
X561951Y185290D01*
X563605Y186395D01*
X564710Y188049D01*
X565098Y190000D01*
X564710Y191951D01*
X563605Y193605D01*
X561951Y194710D01*
X560000Y195098D01*
D02*
G37*
G36*
X104922Y183634D02*
X102377Y183299D01*
X100005Y182317D01*
X97968Y180754D01*
X96405Y178717D01*
X95423Y176345D01*
X95088Y173800D01*
X95423Y171255D01*
X96405Y168883D01*
X97968Y166846D01*
X100005Y165283D01*
X102377Y164301D01*
X104922Y163966D01*
X107467Y164301D01*
X109839Y165283D01*
X111876Y166846D01*
X113439Y168883D01*
X114421Y171255D01*
X114756Y173800D01*
X114421Y176345D01*
X113439Y178717D01*
X111876Y180754D01*
X109839Y182317D01*
X107467Y183299D01*
X104922Y183634D01*
D02*
G37*
G36*
X555600Y176595D02*
X552728Y176217D01*
X550052Y175109D01*
X547755Y173346D01*
X545992Y171048D01*
X544883Y168372D01*
X544505Y165500D01*
X544883Y162629D01*
X545992Y159953D01*
X547755Y157655D01*
X550052Y155892D01*
X552728Y154784D01*
X555600Y154405D01*
X558471Y154784D01*
X561147Y155892D01*
X563445Y157655D01*
X565208Y159953D01*
X566317Y162629D01*
X566695Y165500D01*
X566317Y168372D01*
X565208Y171048D01*
X563445Y173346D01*
X561147Y175109D01*
X558471Y176217D01*
X555600Y176595D01*
D02*
G37*
G36*
X327000D02*
X324128Y176217D01*
X321452Y175109D01*
X319155Y173346D01*
X317391Y171048D01*
X316283Y168372D01*
X315905Y165500D01*
X316283Y162629D01*
X317391Y159953D01*
X319155Y157655D01*
X321452Y155892D01*
X324128Y154784D01*
X327000Y154405D01*
X329871Y154784D01*
X332547Y155892D01*
X334845Y157655D01*
X336608Y159953D01*
X337717Y162629D01*
X338095Y165500D01*
X337717Y168372D01*
X336608Y171048D01*
X334845Y173346D01*
X332547Y175109D01*
X329871Y176217D01*
X327000Y176595D01*
D02*
G37*
G36*
X176000Y160078D02*
X173650Y159768D01*
X171461Y158862D01*
X169581Y157419D01*
X168139Y155539D01*
X167232Y153350D01*
X166922Y151000D01*
X167232Y148651D01*
X168139Y146461D01*
X169581Y144581D01*
X171461Y143139D01*
X173650Y142232D01*
X176000Y141922D01*
X178349Y142232D01*
X180539Y143139D01*
X182419Y144581D01*
X183862Y146461D01*
X184768Y148651D01*
X185078Y151000D01*
X184768Y153350D01*
X183862Y155539D01*
X182419Y157419D01*
X180539Y158862D01*
X178349Y159768D01*
X176000Y160078D01*
D02*
G37*
G36*
X114672Y156150D02*
X95172D01*
Y136650D01*
X114672D01*
Y156150D01*
D02*
G37*
G36*
X260000Y167323D02*
X256620Y166991D01*
X253371Y166005D01*
X250376Y164404D01*
X247750Y162250D01*
X245596Y159624D01*
X243995Y156629D01*
X243009Y153380D01*
X242677Y150000D01*
X243009Y146620D01*
X243995Y143371D01*
X245596Y140376D01*
X247750Y137751D01*
X250376Y135596D01*
X253371Y133995D01*
X256620Y133010D01*
X260000Y132677D01*
X263380Y133010D01*
X266629Y133995D01*
X269624Y135596D01*
X272250Y137751D01*
X274404Y140376D01*
X276005Y143371D01*
X276991Y146620D01*
X277323Y150000D01*
X276991Y153380D01*
X276005Y156629D01*
X274404Y159624D01*
X272250Y162250D01*
X269624Y164404D01*
X266629Y166005D01*
X263380Y166991D01*
X260000Y167323D01*
D02*
G37*
G36*
X555599Y151196D02*
X552728Y150818D01*
X550052Y149710D01*
X547754Y147947D01*
X545991Y145649D01*
X544882Y142973D01*
X544504Y140101D01*
X544882Y137230D01*
X545991Y134554D01*
X547754Y132256D01*
X550052Y130493D01*
X552728Y129384D01*
X555599Y129006D01*
X558471Y129384D01*
X561147Y130493D01*
X563444Y132256D01*
X565208Y134554D01*
X566316Y137230D01*
X566694Y140101D01*
X566316Y142973D01*
X565208Y145649D01*
X563444Y147947D01*
X561147Y149710D01*
X558471Y150818D01*
X555599Y151196D01*
D02*
G37*
G36*
X244000Y134098D02*
X242049Y133710D01*
X240395Y132605D01*
X239290Y130951D01*
X238902Y129000D01*
X239290Y127049D01*
X240395Y125395D01*
X242049Y124290D01*
X244000Y123902D01*
X245951Y124290D01*
X247605Y125395D01*
X248710Y127049D01*
X249098Y129000D01*
X248710Y130951D01*
X247605Y132605D01*
X245951Y133710D01*
X244000Y134098D01*
D02*
G37*
G36*
X209252Y133947D02*
X207302Y133559D01*
X205648Y132454D01*
X204543Y130800D01*
X204154Y128849D01*
X204543Y126898D01*
X205648Y125244D01*
X207302Y124139D01*
X209252Y123751D01*
X211203Y124139D01*
X212857Y125244D01*
X213962Y126898D01*
X214350Y128849D01*
X213962Y130800D01*
X212857Y132454D01*
X211203Y133559D01*
X209252Y133947D01*
D02*
G37*
G36*
X190000Y118098D02*
X188049Y117710D01*
X186395Y116605D01*
X185290Y114951D01*
X184902Y113000D01*
X185290Y111049D01*
X186395Y109395D01*
X188049Y108290D01*
X190000Y107902D01*
X191951Y108290D01*
X193605Y109395D01*
X194710Y111049D01*
X195098Y113000D01*
X194710Y114951D01*
X193605Y116605D01*
X191951Y117710D01*
X190000Y118098D01*
D02*
G37*
G36*
X555601Y125794D02*
X552729Y125416D01*
X550053Y124308D01*
X547756Y122545D01*
X545992Y120247D01*
X544884Y117571D01*
X544506Y114700D01*
X544884Y111828D01*
X545992Y109152D01*
X547756Y106854D01*
X550053Y105091D01*
X552729Y103983D01*
X555601Y103605D01*
X558472Y103983D01*
X561148Y105091D01*
X563446Y106854D01*
X565209Y109152D01*
X566318Y111828D01*
X566696Y114700D01*
X566318Y117571D01*
X565209Y120247D01*
X563446Y122545D01*
X561148Y124308D01*
X558472Y125416D01*
X555601Y125794D01*
D02*
G37*
G36*
X252000Y106561D02*
X250147Y106317D01*
X248419Y105602D01*
X246936Y104464D01*
X245798Y102981D01*
X245083Y101253D01*
X244839Y99400D01*
X245083Y97547D01*
X245798Y95819D01*
X246936Y94336D01*
X248419Y93198D01*
X250147Y92483D01*
X252000Y92239D01*
X253853Y92483D01*
X255581Y93198D01*
X257064Y94336D01*
X258202Y95819D01*
X258917Y97547D01*
X259161Y99400D01*
X258917Y101253D01*
X258202Y102981D01*
X257064Y104464D01*
X255581Y105602D01*
X253853Y106317D01*
X252000Y106561D01*
D02*
G37*
G36*
X162000D02*
X160147Y106317D01*
X158419Y105602D01*
X156936Y104464D01*
X155798Y102981D01*
X155083Y101253D01*
X154839Y99400D01*
X155083Y97547D01*
X155798Y95819D01*
X156936Y94336D01*
X158419Y93198D01*
X160147Y92483D01*
X162000Y92239D01*
X163853Y92483D01*
X165581Y93198D01*
X167064Y94336D01*
X168202Y95819D01*
X168917Y97547D01*
X169161Y99400D01*
X168917Y101253D01*
X168202Y102981D01*
X167064Y104464D01*
X165581Y105602D01*
X163853Y106317D01*
X162000Y106561D01*
D02*
G37*
G36*
X510000Y117323D02*
X506620Y116990D01*
X503371Y116005D01*
X500376Y114404D01*
X497751Y112249D01*
X495596Y109624D01*
X493995Y106629D01*
X493009Y103380D01*
X492677Y100000D01*
X493009Y96620D01*
X493995Y93371D01*
X495596Y90376D01*
X497751Y87751D01*
X500376Y85596D01*
X503371Y83995D01*
X506620Y83010D01*
X510000Y82677D01*
X513380Y83010D01*
X516629Y83995D01*
X519624Y85596D01*
X522249Y87751D01*
X524404Y90376D01*
X526005Y93371D01*
X526991Y96620D01*
X527323Y100000D01*
X526991Y103380D01*
X526005Y106629D01*
X524404Y109624D01*
X522249Y112249D01*
X519624Y114404D01*
X516629Y116005D01*
X513380Y116990D01*
X510000Y117323D01*
D02*
G37*
G36*
X555601Y100394D02*
X552729Y100016D01*
X550053Y98908D01*
X547756Y97145D01*
X545992Y94847D01*
X544884Y92171D01*
X544506Y89300D01*
X544884Y86428D01*
X545992Y83752D01*
X547756Y81454D01*
X550053Y79691D01*
X552729Y78583D01*
X555601Y78205D01*
X558472Y78583D01*
X561148Y79691D01*
X563446Y81454D01*
X565209Y83752D01*
X566318Y86428D01*
X566696Y89300D01*
X566318Y92171D01*
X565209Y94847D01*
X563446Y97145D01*
X561148Y98908D01*
X558472Y100016D01*
X555601Y100394D01*
D02*
G37*
G36*
X459100Y91000D02*
X437100D01*
Y69000D01*
X459100D01*
Y91000D01*
D02*
G37*
G36*
X422700Y91095D02*
X419828Y90717D01*
X417152Y89608D01*
X414855Y87845D01*
X413092Y85547D01*
X411983Y82872D01*
X411605Y80000D01*
X411983Y77128D01*
X413092Y74453D01*
X414855Y72155D01*
X417152Y70392D01*
X419828Y69283D01*
X422700Y68905D01*
X425572Y69283D01*
X428247Y70392D01*
X430545Y72155D01*
X432309Y74453D01*
X433417Y77128D01*
X433795Y80000D01*
X433417Y82872D01*
X432309Y85547D01*
X430545Y87845D01*
X428247Y89608D01*
X425572Y90717D01*
X422700Y91095D01*
D02*
G37*
G36*
X555601Y74995D02*
X552729Y74616D01*
X550053Y73508D01*
X547756Y71745D01*
X545992Y69447D01*
X544884Y66771D01*
X544506Y63900D01*
X544884Y61028D01*
X545992Y58352D01*
X547756Y56054D01*
X550053Y54291D01*
X552729Y53183D01*
X555601Y52805D01*
X558472Y53183D01*
X561148Y54291D01*
X563446Y56054D01*
X565209Y58352D01*
X566318Y61028D01*
X566696Y63900D01*
X566318Y66771D01*
X565209Y69447D01*
X563446Y71745D01*
X561148Y73508D01*
X558472Y74616D01*
X555601Y74995D01*
D02*
G37*
G36*
X566601Y49500D02*
X544601D01*
Y27500D01*
X566601D01*
Y49500D01*
D02*
G37*
G36*
X390000Y15098D02*
X388049Y14710D01*
X386395Y13605D01*
X385290Y11951D01*
X384902Y10000D01*
X385290Y8049D01*
X386395Y6395D01*
X388049Y5290D01*
X390000Y4902D01*
X391951Y5290D01*
X393605Y6395D01*
X394710Y8049D01*
X395098Y10000D01*
X394710Y11951D01*
X393605Y13605D01*
X391951Y14710D01*
X390000Y15098D01*
D02*
G37*
%LPD*%
D59*
X58600Y469400D02*
D03*
D62*
X326999Y140101D02*
D03*
X518101Y599999D02*
D03*
X188097Y19999D02*
D03*
D69*
X32000Y280000D02*
D03*
Y260000D02*
D03*
Y270000D02*
D03*
X139750Y97000D02*
D03*
X116000D02*
D03*
X352000Y26249D02*
D03*
Y60000D02*
D03*
X393000Y280000D02*
D03*
X282000Y281000D02*
D03*
X297248Y384248D02*
D03*
X126000Y449000D02*
D03*
X179000Y451000D02*
D03*
X42000Y280000D02*
D03*
Y260000D02*
D03*
X252999Y438999D02*
D03*
X256419Y286581D02*
D03*
X352000Y48000D02*
D03*
X236000Y450000D02*
D03*
X405000Y270000D02*
D03*
X495000Y193000D02*
D03*
X368000Y233000D02*
D03*
X154555Y447555D02*
D03*
X328000Y185000D02*
D03*
X302000Y213000D02*
D03*
X310000Y185000D02*
D03*
X400000Y454000D02*
D03*
X330000Y487000D02*
D03*
X314000D02*
D03*
X304000Y467000D02*
D03*
X361000Y476000D02*
D03*
X352000D02*
D03*
X283000Y403000D02*
D03*
X359000Y400000D02*
D03*
X367000Y410000D02*
D03*
X436000Y339000D02*
D03*
X419000D02*
D03*
X418000Y297000D02*
D03*
X427000Y287000D02*
D03*
X352000Y37000D02*
D03*
X163000Y433000D02*
D03*
X385000Y452000D02*
D03*
M02*
