G04*
G04 #@! TF.GenerationSoftware,Altium Limited,Altium Designer,20.2.6 (244)*
G04*
G04 Layer_Physical_Order=1*
G04 Layer_Color=255*
%FSLAX44Y44*%
%MOMM*%
G71*
G04*
G04 #@! TF.SameCoordinates,C4BD39D4-7D46-4A15-92C5-5DF00FED93ED*
G04*
G04*
G04 #@! TF.FilePolarity,Positive*
G04*
G01*
G75*
%ADD10C,0.2000*%
%ADD11C,0.2500*%
%ADD15R,0.9000X0.9000*%
%ADD16R,4.2000X2.0000*%
%ADD17R,0.9000X0.9000*%
%ADD18R,0.5000X0.8000*%
%ADD19R,0.3000X1.2000*%
%ADD20R,1.2000X0.3000*%
G04:AMPARAMS|DCode=21|XSize=1.61mm|YSize=0.58mm|CornerRadius=0.145mm|HoleSize=0mm|Usage=FLASHONLY|Rotation=0.000|XOffset=0mm|YOffset=0mm|HoleType=Round|Shape=RoundedRectangle|*
%AMROUNDEDRECTD21*
21,1,1.6100,0.2900,0,0,0.0*
21,1,1.3200,0.5800,0,0,0.0*
1,1,0.2900,0.6600,-0.1450*
1,1,0.2900,-0.6600,-0.1450*
1,1,0.2900,-0.6600,0.1450*
1,1,0.2900,0.6600,0.1450*
%
%ADD21ROUNDEDRECTD21*%
%ADD22R,2.0000X3.0000*%
%ADD23R,0.5300X1.3100*%
%ADD24O,1.4500X0.6000*%
%ADD25R,0.5300X0.2800*%
%ADD26R,0.2800X0.5300*%
%ADD27R,2.1000X5.6000*%
%ADD28C,1.0000*%
%ADD46R,1.5700X1.5700*%
%ADD47C,1.5700*%
%ADD48C,1.0200*%
%ADD56R,0.8000X0.8000*%
%ADD57C,0.3000*%
%ADD58C,0.5000*%
%ADD59C,1.5500*%
%ADD60R,1.5500X1.5500*%
%ADD61C,3.5500*%
%ADD62C,1.8000*%
%ADD63R,1.8000X1.8000*%
%ADD64R,1.8000X1.8000*%
%ADD65C,3.0480*%
%ADD66C,1.5300*%
%ADD67R,1.5300X1.5300*%
%ADD68C,3.0000*%
%ADD69C,0.6000*%
%ADD70C,1.4000*%
G36*
X570000Y0D02*
X492270D01*
X491000Y0D01*
X491000Y1409D01*
Y2540D01*
X491000Y3186D01*
X491000Y115000D01*
X491000Y3810D01*
X491000Y1912D01*
X491000Y1270D01*
Y-0D01*
X0Y0D01*
Y220000D01*
Y335000D01*
Y650000D01*
X570000Y650000D01*
X570000Y0D01*
D02*
G37*
%LPC*%
G36*
X490000Y645098D02*
X488049Y644710D01*
X486395Y643605D01*
X486201Y643314D01*
X453799D01*
X453605Y643605D01*
X451951Y644710D01*
X450000Y645098D01*
X448049Y644710D01*
X446395Y643605D01*
X445290Y641951D01*
X444902Y640000D01*
X445290Y638049D01*
X446395Y636395D01*
X448049Y635290D01*
X450000Y634902D01*
X451951Y635290D01*
X453605Y636395D01*
X453799Y636686D01*
X486201D01*
X486395Y636395D01*
X488049Y635290D01*
X490000Y634902D01*
X491951Y635290D01*
X493605Y636395D01*
X494710Y638049D01*
X495098Y640000D01*
X494710Y641951D01*
X493605Y643605D01*
X491951Y644710D01*
X490000Y645098D01*
D02*
G37*
G36*
X410000D02*
X408049Y644710D01*
X406395Y643605D01*
X406201Y643314D01*
X373799D01*
X373605Y643605D01*
X371951Y644710D01*
X370000Y645098D01*
X368049Y644710D01*
X366395Y643605D01*
X365290Y641951D01*
X364902Y640000D01*
X365290Y638049D01*
X366395Y636395D01*
X368049Y635290D01*
X370000Y634902D01*
X371951Y635290D01*
X373605Y636395D01*
X373799Y636686D01*
X406201D01*
X406395Y636395D01*
X408049Y635290D01*
X410000Y634902D01*
X411951Y635290D01*
X413605Y636395D01*
X414710Y638049D01*
X415098Y640000D01*
X414710Y641951D01*
X413605Y643605D01*
X411951Y644710D01*
X410000Y645098D01*
D02*
G37*
G36*
X330000D02*
X328049Y644710D01*
X326395Y643605D01*
X326201Y643314D01*
X293799D01*
X293605Y643605D01*
X291951Y644710D01*
X290000Y645098D01*
X288049Y644710D01*
X286395Y643605D01*
X285290Y641951D01*
X284902Y640000D01*
X285290Y638049D01*
X286395Y636395D01*
X288049Y635290D01*
X290000Y634902D01*
X291951Y635290D01*
X293605Y636395D01*
X293799Y636686D01*
X326201D01*
X326395Y636395D01*
X328049Y635290D01*
X330000Y634902D01*
X331951Y635290D01*
X333605Y636395D01*
X334710Y638049D01*
X335098Y640000D01*
X334710Y641951D01*
X333605Y643605D01*
X331951Y644710D01*
X330000Y645098D01*
D02*
G37*
G36*
X530000D02*
X528049Y644710D01*
X526395Y643605D01*
X525290Y641951D01*
X524902Y640000D01*
X525290Y638049D01*
X526395Y636395D01*
X528049Y635290D01*
X530000Y634902D01*
X531951Y635290D01*
X533605Y636395D01*
X534710Y638049D01*
X535098Y640000D01*
X534710Y641951D01*
X533605Y643605D01*
X531951Y644710D01*
X530000Y645098D01*
D02*
G37*
G36*
X560000D02*
X558049Y644710D01*
X556395Y643605D01*
X555290Y641951D01*
X554902Y640000D01*
X555290Y638049D01*
X556395Y636395D01*
X556686Y636201D01*
Y603799D01*
X556395Y603605D01*
X555290Y601951D01*
X554902Y600000D01*
X555290Y598049D01*
X556395Y596395D01*
X558049Y595290D01*
X560000Y594902D01*
X561951Y595290D01*
X563605Y596395D01*
X564710Y598049D01*
X565098Y600000D01*
X564710Y601951D01*
X563605Y603605D01*
X563314Y603799D01*
Y636201D01*
X563605Y636395D01*
X564710Y638049D01*
X565098Y640000D01*
X564710Y641951D01*
X563605Y643605D01*
X561951Y644710D01*
X560000Y645098D01*
D02*
G37*
G36*
X257000Y646569D02*
X44000D01*
X42634Y646297D01*
X41477Y645523D01*
X21043Y625089D01*
X21000Y625098D01*
X19049Y624710D01*
X17395Y623605D01*
X16290Y621951D01*
X15902Y620000D01*
X16290Y618049D01*
X17395Y616395D01*
X19049Y615290D01*
X21000Y614902D01*
X22951Y615290D01*
X24605Y616395D01*
X25710Y618049D01*
X26098Y620000D01*
X26089Y620043D01*
X45478Y639431D01*
X53343D01*
X53751Y638229D01*
X53251Y637845D01*
X51488Y635547D01*
X50380Y632872D01*
X50002Y630000D01*
X50380Y627128D01*
X51488Y624453D01*
X53251Y622155D01*
X55549Y620392D01*
X58225Y619283D01*
X61097Y618905D01*
X63968Y619283D01*
X66644Y620392D01*
X68942Y622155D01*
X70705Y624453D01*
X71814Y627128D01*
X72192Y630000D01*
X71814Y632872D01*
X70705Y635547D01*
X68942Y637845D01*
X68442Y638229D01*
X68850Y639431D01*
X78743D01*
X79151Y638229D01*
X78651Y637845D01*
X76888Y635547D01*
X75780Y632872D01*
X75402Y630000D01*
X75780Y627128D01*
X76888Y624453D01*
X78651Y622155D01*
X80949Y620392D01*
X83625Y619283D01*
X86497Y618905D01*
X89368Y619283D01*
X91602Y620208D01*
X141053Y570758D01*
X140902Y570000D01*
X141290Y568049D01*
X142395Y566395D01*
X144049Y565290D01*
X146000Y564902D01*
X147951Y565290D01*
X149605Y566395D01*
X150710Y568049D01*
X151098Y570000D01*
X150710Y571951D01*
X149605Y573605D01*
X147951Y574710D01*
X146106Y575077D01*
X96288Y624895D01*
X97213Y627128D01*
X97591Y630000D01*
X97213Y632872D01*
X96105Y635547D01*
X94342Y637845D01*
X93842Y638229D01*
X94250Y639431D01*
X104143D01*
X104551Y638229D01*
X104051Y637845D01*
X102288Y635547D01*
X101179Y632872D01*
X100801Y630000D01*
X101179Y627128D01*
X102288Y624453D01*
X104051Y622155D01*
X106349Y620392D01*
X109025Y619283D01*
X111896Y618905D01*
X114768Y619283D01*
X117444Y620392D01*
X119741Y622155D01*
X121505Y624453D01*
X122613Y627128D01*
X122991Y630000D01*
X122613Y632872D01*
X121505Y635547D01*
X119741Y637845D01*
X119242Y638229D01*
X119650Y639431D01*
X129541D01*
X129949Y638229D01*
X129450Y637846D01*
X127687Y635548D01*
X126579Y632872D01*
X126201Y630001D01*
X126579Y627129D01*
X127687Y624453D01*
X129450Y622156D01*
X131748Y620392D01*
X134424Y619284D01*
X137295Y618906D01*
X140167Y619284D01*
X142843Y620392D01*
X145141Y622156D01*
X146904Y624453D01*
X148012Y627129D01*
X148390Y630001D01*
X148012Y632872D01*
X146904Y635548D01*
X145141Y637846D01*
X144642Y638229D01*
X145050Y639431D01*
X154944D01*
X155353Y638229D01*
X154852Y637845D01*
X153089Y635547D01*
X151980Y632871D01*
X151602Y629999D01*
X151980Y627128D01*
X153089Y624452D01*
X154852Y622154D01*
X157150Y620391D01*
X159825Y619282D01*
X162697Y618904D01*
X165569Y619282D01*
X168244Y620391D01*
X170542Y622154D01*
X172306Y624452D01*
X173414Y627128D01*
X173792Y629999D01*
X173414Y632871D01*
X172306Y635547D01*
X170542Y637845D01*
X170041Y638229D01*
X170450Y639431D01*
X180344D01*
X180753Y638229D01*
X180252Y637845D01*
X178489Y635547D01*
X177380Y632871D01*
X177002Y629999D01*
X177380Y627128D01*
X178489Y624452D01*
X180252Y622154D01*
X182550Y620391D01*
X185226Y619282D01*
X188097Y618904D01*
X190969Y619282D01*
X193645Y620391D01*
X195942Y622154D01*
X197705Y624452D01*
X198814Y627128D01*
X199192Y629999D01*
X198814Y632871D01*
X197705Y635547D01*
X195942Y637845D01*
X195441Y638229D01*
X195850Y639431D01*
X205744D01*
X206153Y638229D01*
X205652Y637845D01*
X203889Y635547D01*
X202780Y632871D01*
X202402Y629999D01*
X202780Y627128D01*
X203889Y624452D01*
X205652Y622154D01*
X207950Y620391D01*
X210625Y619282D01*
X213497Y618904D01*
X216369Y619282D01*
X219044Y620391D01*
X221342Y622154D01*
X223106Y624452D01*
X224214Y627128D01*
X224592Y629999D01*
X224214Y632871D01*
X223106Y635547D01*
X221342Y637845D01*
X220841Y638229D01*
X221250Y639431D01*
X227897D01*
Y618999D01*
X229153D01*
X230110Y618242D01*
X230110Y618242D01*
X230110D01*
X230161Y617729D01*
X230112Y617720D01*
X228797Y617458D01*
X227143Y616353D01*
X226038Y614699D01*
X225650Y612748D01*
X226038Y610797D01*
X227143Y609143D01*
X228797Y608038D01*
X230748Y607650D01*
X231686Y606705D01*
Y592796D01*
X230416Y592270D01*
X228030Y594657D01*
X228098Y595000D01*
X227710Y596951D01*
X226605Y598605D01*
X224951Y599710D01*
X223000Y600098D01*
X221049Y599710D01*
X219395Y598605D01*
X218290Y596951D01*
X217902Y595000D01*
X218290Y593049D01*
X219395Y591395D01*
X221049Y590290D01*
X223000Y589902D01*
X223343Y589970D01*
X225686Y587627D01*
Y530796D01*
X224416Y530270D01*
X220030Y534657D01*
X220098Y535000D01*
X219710Y536951D01*
X218605Y538605D01*
X216951Y539710D01*
X215000Y540098D01*
X213049Y539710D01*
X211395Y538605D01*
X210290Y536951D01*
X209902Y535000D01*
X210290Y533049D01*
X211395Y531395D01*
X213049Y530290D01*
X215000Y529902D01*
X215343Y529970D01*
X219686Y525627D01*
Y501000D01*
X219939Y499732D01*
X220657Y498657D01*
X292640Y426673D01*
X292155Y425500D01*
X285000D01*
Y412500D01*
X293314D01*
X295620Y410193D01*
X295135Y409020D01*
X285001D01*
Y408995D01*
X283731Y407953D01*
X283000Y408098D01*
X281049Y407710D01*
X280661Y407450D01*
X279541Y408049D01*
Y409560D01*
X273771D01*
Y402520D01*
Y395480D01*
X279541D01*
Y397951D01*
X280661Y398550D01*
X281049Y398290D01*
X283000Y397902D01*
X283731Y398047D01*
X285001Y397005D01*
Y396020D01*
X288187D01*
Y393500D01*
X288439Y392232D01*
X289158Y391157D01*
X293170Y387145D01*
X292538Y386199D01*
X292150Y384248D01*
X292538Y382297D01*
X293643Y380643D01*
X295297Y379538D01*
X297248Y379150D01*
X298019Y379303D01*
X299001Y378498D01*
Y374500D01*
X309340D01*
Y372384D01*
X309203Y372293D01*
X308098Y370639D01*
X307710Y368688D01*
X308098Y366737D01*
X309203Y365083D01*
X310857Y363978D01*
X312808Y363590D01*
X313749Y363777D01*
X314761Y363972D01*
X315129Y362855D01*
X315289Y362048D01*
X316395Y360395D01*
X316636Y360233D01*
Y341323D01*
X309627Y334314D01*
X298076D01*
X296991Y335398D01*
X297344Y336842D01*
X298621Y337695D01*
X299726Y339349D01*
X300114Y341300D01*
X299726Y343251D01*
X298621Y344905D01*
Y345738D01*
X299604Y346395D01*
X300613Y347905D01*
X301271Y348219D01*
X301903Y348411D01*
X303319Y346995D01*
X303289Y346951D01*
X302901Y345000D01*
X303289Y343049D01*
X304394Y341395D01*
X306048Y340290D01*
X307999Y339902D01*
X309950Y340290D01*
X311604Y341395D01*
X312709Y343049D01*
X313097Y345000D01*
X312709Y346951D01*
X311604Y348605D01*
X309950Y349710D01*
X309864Y349727D01*
X309672Y350014D01*
X300093Y359593D01*
X299018Y360311D01*
X297750Y360564D01*
X290501D01*
Y366000D01*
X274501D01*
Y354000D01*
Y345814D01*
X258463D01*
X257766Y347084D01*
X258098Y348750D01*
X257710Y350701D01*
X256605Y352355D01*
X256314Y352549D01*
Y360960D01*
X261230D01*
Y368000D01*
Y375040D01*
X257301D01*
X256959Y375769D01*
X257031Y376007D01*
X257734Y376960D01*
X262230D01*
Y382730D01*
X256460D01*
Y378457D01*
X255815Y378103D01*
X255190Y377996D01*
X251000Y382186D01*
Y390500D01*
X238000D01*
Y390172D01*
X237187Y389238D01*
X237187Y389238D01*
Y389238D01*
X236730Y389193D01*
X236723Y389231D01*
X236460Y390551D01*
X235355Y392205D01*
X233701Y393310D01*
X231750Y393698D01*
X223250D01*
X221299Y393310D01*
X219645Y392205D01*
X219451Y391914D01*
X210800D01*
X210346Y391823D01*
X209720Y392994D01*
X216343Y399617D01*
X216573Y399961D01*
X217757Y399789D01*
X217921Y399693D01*
X218031Y399138D01*
X219256Y397306D01*
X221088Y396082D01*
X223250Y395652D01*
X226230D01*
Y401300D01*
Y406949D01*
X223250D01*
X221088Y406519D01*
X219256Y405294D01*
X218584Y404288D01*
X217314Y404673D01*
Y410627D01*
X218584Y411012D01*
X219256Y410006D01*
X221088Y408782D01*
X223250Y408352D01*
X226230D01*
Y414000D01*
Y419649D01*
X223250D01*
X221088Y419219D01*
X219256Y417994D01*
X218584Y416988D01*
X217314Y417373D01*
Y424177D01*
X218489Y424700D01*
X218584Y424684D01*
X219645Y423095D01*
X221299Y421990D01*
X223250Y421602D01*
X231750D01*
X233701Y421990D01*
X235355Y423095D01*
X236460Y424749D01*
X236848Y426700D01*
X236460Y428651D01*
X235355Y430305D01*
X233701Y431410D01*
X231750Y431798D01*
X223250D01*
X221299Y431410D01*
X219645Y430305D01*
X218584Y428716D01*
X218489Y428700D01*
X217314Y429223D01*
Y436877D01*
X218489Y437400D01*
X218584Y437384D01*
X219645Y435795D01*
X221299Y434690D01*
X223250Y434302D01*
X231750D01*
X233701Y434690D01*
X235355Y435795D01*
X235392Y435851D01*
X237340D01*
Y432920D01*
X250340D01*
Y433352D01*
X251610Y434178D01*
X252999Y433901D01*
X254530Y434206D01*
X255800Y433446D01*
Y432380D01*
X261570D01*
Y439420D01*
Y446460D01*
X255800D01*
Y444552D01*
X254530Y443793D01*
X252999Y444097D01*
X251610Y443821D01*
X250340Y444647D01*
Y445920D01*
X240815D01*
X240136Y447190D01*
X240710Y448049D01*
X241098Y450000D01*
X240710Y451951D01*
X239605Y453605D01*
X237951Y454710D01*
X236000Y455098D01*
X234049Y454710D01*
X232395Y453605D01*
X232371Y453569D01*
X231224D01*
X229858Y453297D01*
X228700Y452523D01*
X224977Y448800D01*
X224203Y447642D01*
X223931Y446276D01*
Y444498D01*
X223250D01*
X221299Y444110D01*
X219645Y443005D01*
X218584Y441416D01*
X218489Y441400D01*
X217314Y441923D01*
Y502000D01*
X217061Y503268D01*
X216343Y504343D01*
X211030Y509657D01*
X211098Y510000D01*
X210710Y511951D01*
X209605Y513605D01*
X207951Y514710D01*
X206000Y515098D01*
X204049Y514710D01*
X202395Y513605D01*
X201290Y511951D01*
X200902Y510000D01*
X201290Y508049D01*
X202395Y506395D01*
X204049Y505290D01*
X206000Y504902D01*
X206343Y504970D01*
X210686Y500628D01*
Y497158D01*
X209416Y496479D01*
X208710Y496951D01*
X206759Y497339D01*
X204809Y496951D01*
X203155Y495845D01*
X202050Y494192D01*
X201661Y492241D01*
X202050Y490290D01*
X203155Y488636D01*
X203696Y488274D01*
Y424283D01*
X194286Y414872D01*
X192908Y415290D01*
X192765Y416006D01*
X191660Y417660D01*
X190868Y418190D01*
X190568Y418639D01*
X182309Y426898D01*
X181960Y428651D01*
X180855Y430305D01*
X179201Y431410D01*
X177250Y431798D01*
X176654D01*
X175976Y433068D01*
X176061Y433196D01*
X176281Y434302D01*
X177250D01*
X179201Y434690D01*
X180855Y435795D01*
X181960Y437449D01*
X182348Y439400D01*
X181960Y441351D01*
X180855Y443005D01*
X179201Y444110D01*
X177250Y444498D01*
X176042D01*
X175343Y445543D01*
X169543Y451343D01*
X168468Y452061D01*
X167200Y452314D01*
X156263D01*
X154555Y452653D01*
X152604Y452265D01*
X150950Y451160D01*
X149845Y449506D01*
X149457Y447555D01*
X149768Y445991D01*
X149710Y445920D01*
X149710D01*
Y432920D01*
X157918D01*
X158290Y431049D01*
X159395Y429395D01*
X161049Y428290D01*
X162849Y427932D01*
X163680Y426841D01*
X163652Y426700D01*
X164040Y424749D01*
X165145Y423095D01*
X166799Y421990D01*
X168750Y421602D01*
X177250D01*
X178069Y421765D01*
X180393Y419441D01*
X179583Y418454D01*
X179201Y418710D01*
X177250Y419098D01*
X168750D01*
X166799Y418710D01*
X165145Y417605D01*
X164964Y417334D01*
X162710D01*
Y420520D01*
X149710D01*
Y418614D01*
X148440Y417812D01*
X147000Y418098D01*
X145520Y417804D01*
X144250Y418587D01*
Y421060D01*
X138480D01*
Y414020D01*
Y406980D01*
X144250D01*
Y407413D01*
X145520Y408196D01*
X147000Y407902D01*
X148440Y408189D01*
X149710Y407520D01*
Y407520D01*
X162710D01*
Y410706D01*
X164937D01*
X165145Y410395D01*
X166799Y409290D01*
X168750Y408902D01*
X177250D01*
X179201Y409290D01*
X180855Y410395D01*
X181960Y412049D01*
X182011Y412304D01*
X183306D01*
X183345Y412104D01*
X184450Y410451D01*
X186104Y409345D01*
X186821Y409203D01*
X187239Y407825D01*
X184028Y404614D01*
X181049D01*
X180855Y404905D01*
X179201Y406010D01*
X177250Y406398D01*
X168750D01*
X166799Y406010D01*
X165145Y404905D01*
X164040Y403251D01*
X163652Y401300D01*
X164040Y399349D01*
X165145Y397695D01*
X166799Y396590D01*
X168750Y396202D01*
X177250D01*
X179201Y396590D01*
X180855Y397695D01*
X181049Y397986D01*
X185400D01*
X186668Y398239D01*
X187743Y398957D01*
X209353Y420567D01*
X209416Y420662D01*
X210686Y420276D01*
Y403333D01*
X186567Y379214D01*
X181049D01*
X180855Y379505D01*
X179201Y380610D01*
X177250Y380998D01*
X168750D01*
X166799Y380610D01*
X165145Y379505D01*
X164040Y377851D01*
X163652Y375900D01*
X164040Y373949D01*
X165145Y372295D01*
X166799Y371190D01*
X168750Y370802D01*
X177250D01*
X179201Y371190D01*
X180855Y372295D01*
X181049Y372586D01*
X186663D01*
X187342Y371316D01*
X186709Y370370D01*
X186321Y368419D01*
X186709Y366469D01*
X187686Y365007D01*
Y349799D01*
X187395Y349605D01*
X186290Y347951D01*
X185902Y346000D01*
X186290Y344049D01*
X187395Y342395D01*
X188610Y341584D01*
X188225Y340314D01*
X163127D01*
X162936Y340600D01*
X161282Y341705D01*
X159331Y342093D01*
X157380Y341705D01*
X155726Y340600D01*
X154621Y338946D01*
X154233Y336996D01*
X154621Y335045D01*
X155726Y333391D01*
X157380Y332286D01*
X159331Y331898D01*
X161282Y332286D01*
X162936Y333391D01*
X163134Y333686D01*
X193000D01*
X194268Y333939D01*
X195343Y334657D01*
X220027Y359340D01*
X221299Y358490D01*
X223250Y358102D01*
X231750D01*
X233148Y358380D01*
X233773Y357210D01*
X232093Y355530D01*
X231750Y355598D01*
X223250D01*
X221299Y355210D01*
X219645Y354105D01*
X218876Y352954D01*
X218562Y352892D01*
X217487Y352174D01*
X153628Y288314D01*
X113440D01*
X113439Y288317D01*
X111876Y290354D01*
X109839Y291917D01*
X107467Y292899D01*
X104922Y293234D01*
X102377Y292899D01*
X100005Y291917D01*
X97968Y290354D01*
X96405Y288317D01*
X95423Y285945D01*
X95088Y283400D01*
X95423Y280855D01*
X96405Y278483D01*
X97968Y276446D01*
X100005Y274883D01*
X102377Y273901D01*
X104922Y273566D01*
X107467Y273901D01*
X109839Y274883D01*
X111876Y276446D01*
X113439Y278483D01*
X114421Y280855D01*
X114530Y281686D01*
X150998D01*
X151484Y280513D01*
X130284Y259314D01*
X114103D01*
X113439Y260917D01*
X111876Y262954D01*
X109839Y264517D01*
X107467Y265499D01*
X104922Y265834D01*
X102377Y265499D01*
X100005Y264517D01*
X97968Y262954D01*
X96405Y260917D01*
X95423Y258545D01*
X95088Y256000D01*
X95423Y253455D01*
X96405Y251083D01*
X97968Y249046D01*
X100005Y247483D01*
X102377Y246501D01*
X104922Y246166D01*
X107467Y246501D01*
X109839Y247483D01*
X111876Y249046D01*
X113439Y251083D01*
X114103Y252686D01*
X131657D01*
X132925Y252939D01*
X134000Y253657D01*
X173309Y292966D01*
X174343Y293657D01*
X219873Y339186D01*
X274501D01*
Y327900D01*
X274385Y327726D01*
X273230Y326968D01*
X272750Y327064D01*
X261389D01*
X261194Y327355D01*
X259540Y328460D01*
X257589Y328848D01*
X255639Y328460D01*
X253985Y327355D01*
X252880Y325701D01*
X252491Y323750D01*
X252823Y322084D01*
X252127Y320814D01*
X248500D01*
X247232Y320561D01*
X246157Y319843D01*
X224657Y298343D01*
X223939Y297268D01*
X223686Y296000D01*
Y262775D01*
X222416Y262390D01*
X221605Y263605D01*
X219951Y264710D01*
X218000Y265098D01*
X216049Y264710D01*
X214395Y263605D01*
X213290Y261951D01*
X212902Y260000D01*
X213290Y258049D01*
X214395Y256395D01*
X214686Y256201D01*
Y203799D01*
X214395Y203605D01*
X213290Y201951D01*
X212902Y200000D01*
X213290Y198049D01*
X214395Y196395D01*
X216049Y195290D01*
X218000Y194902D01*
X219951Y195290D01*
X221605Y196395D01*
X222416Y197610D01*
X223686Y197225D01*
Y126373D01*
X196225Y98911D01*
X194571Y99596D01*
X192000Y99935D01*
X189429Y99596D01*
X187033Y98604D01*
X184975Y97025D01*
X183396Y94967D01*
X182404Y92571D01*
X182065Y90000D01*
X182404Y87429D01*
X183396Y85033D01*
X184975Y82975D01*
X187033Y81396D01*
X189429Y80403D01*
X192000Y80065D01*
X194571Y80403D01*
X196968Y81396D01*
X199025Y82975D01*
X200604Y85033D01*
X201596Y87429D01*
X201935Y90000D01*
X201596Y92571D01*
X200911Y94225D01*
X229343Y122657D01*
X230061Y123732D01*
X230314Y125000D01*
Y294627D01*
X249873Y314186D01*
X251163D01*
X251649Y313013D01*
X234657Y296021D01*
X233939Y294946D01*
X233686Y293678D01*
Y106373D01*
X226225Y98911D01*
X224571Y99596D01*
X222000Y99935D01*
X219429Y99596D01*
X217033Y98604D01*
X214975Y97025D01*
X213396Y94967D01*
X212404Y92571D01*
X212065Y90000D01*
X212404Y87429D01*
X213396Y85033D01*
X214975Y82975D01*
X217033Y81396D01*
X219429Y80403D01*
X222000Y80065D01*
X224571Y80403D01*
X226968Y81396D01*
X229025Y82975D01*
X230604Y85033D01*
X231596Y87429D01*
X231935Y90000D01*
X231596Y92571D01*
X230911Y94225D01*
X239343Y102657D01*
X240061Y103732D01*
X240314Y105000D01*
Y123922D01*
X241584Y124601D01*
X242049Y124290D01*
X244000Y123902D01*
X244885Y124078D01*
X245446Y123703D01*
X246812Y123431D01*
X318344D01*
X318861Y122161D01*
X317392Y120247D01*
X316284Y117571D01*
X315906Y114700D01*
X316284Y111828D01*
X317392Y109152D01*
X319156Y106854D01*
X321453Y105091D01*
X324129Y103983D01*
X327001Y103605D01*
X329872Y103983D01*
X332548Y105091D01*
X334846Y106854D01*
X336609Y109152D01*
X337718Y111828D01*
X338096Y114700D01*
X337718Y117571D01*
X336609Y120247D01*
X335140Y122161D01*
X335657Y123431D01*
X370343D01*
X371709Y123703D01*
X372867Y124477D01*
X404916Y156527D01*
X404917Y156527D01*
X420583Y172193D01*
X421357Y173351D01*
X421628Y174716D01*
Y195039D01*
X424430Y197840D01*
X425821Y197436D01*
X426384Y196594D01*
Y194302D01*
X426636Y193034D01*
X427355Y191959D01*
X455180Y164133D01*
X455932Y163631D01*
Y163500D01*
X456200Y162154D01*
X456963Y161013D01*
X458104Y160250D01*
X459450Y159982D01*
X472650D01*
X473996Y160250D01*
X475137Y161013D01*
X475900Y162154D01*
X476168Y163500D01*
Y166400D01*
X475900Y167746D01*
X475137Y168887D01*
X473996Y169650D01*
X472650Y169918D01*
X459450D01*
X458882Y169804D01*
X433854Y194832D01*
X433972Y196028D01*
X435077Y197682D01*
X435260Y198601D01*
X435528Y198735D01*
X436617Y198913D01*
X436686Y198839D01*
X436708Y198730D01*
X436939Y197571D01*
X437657Y196496D01*
X455932Y178220D01*
Y176200D01*
X456200Y174854D01*
X456963Y173713D01*
X458104Y172950D01*
X459450Y172682D01*
X472650D01*
X473996Y172950D01*
X475137Y173713D01*
X475900Y174854D01*
X476168Y176200D01*
Y178900D01*
X476644Y179247D01*
X477388Y179476D01*
X478207Y178657D01*
X479282Y177939D01*
X480550Y177686D01*
X488500D01*
Y176000D01*
X501500D01*
Y189000D01*
X499868D01*
X499189Y190270D01*
X499710Y191049D01*
X500098Y193000D01*
X499953Y193730D01*
X500995Y195000D01*
X501500D01*
Y208000D01*
X488500D01*
Y206619D01*
X475384D01*
X475137Y206987D01*
X473996Y207750D01*
X472650Y208018D01*
X459450D01*
X458104Y207750D01*
X456963Y206987D01*
X456200Y205846D01*
X455932Y204500D01*
Y201600D01*
X456200Y200254D01*
X456963Y199113D01*
X458104Y198350D01*
X459450Y198082D01*
X472650D01*
X473996Y198350D01*
X475137Y199113D01*
X475384Y199481D01*
X488500D01*
Y195000D01*
X489005D01*
X490047Y193730D01*
X489902Y193000D01*
X490290Y191049D01*
X490811Y190270D01*
X490132Y189000D01*
X488500D01*
Y184314D01*
X481923D01*
X476168Y190069D01*
Y191800D01*
X475900Y193146D01*
X475137Y194287D01*
X473996Y195050D01*
X472650Y195318D01*
X459450D01*
X458104Y195050D01*
X456963Y194287D01*
X456200Y193146D01*
X455932Y191800D01*
Y189389D01*
X454689Y188836D01*
X443314Y200211D01*
Y204201D01*
X443605Y204395D01*
X444710Y206049D01*
X445098Y208000D01*
X444710Y209951D01*
X443605Y211605D01*
X441951Y212710D01*
X441237Y212852D01*
X440819Y214230D01*
X454047Y227458D01*
X462000D01*
Y240457D01*
X449000D01*
Y232504D01*
X444270Y227774D01*
X443000Y228300D01*
Y240457D01*
X440069D01*
Y244500D01*
X442958D01*
Y257500D01*
X440194D01*
Y262901D01*
X440485Y263095D01*
X441590Y264749D01*
X441978Y266700D01*
X441590Y268651D01*
X440485Y270305D01*
X438831Y271410D01*
X436880Y271798D01*
X434929Y271410D01*
X433275Y270305D01*
X432170Y268651D01*
X431782Y266700D01*
X432170Y264749D01*
X433275Y263095D01*
X433566Y262901D01*
Y257500D01*
X429958D01*
Y244500D01*
X432931D01*
Y240457D01*
X430000D01*
Y227458D01*
X442157D01*
X442683Y226187D01*
X427519Y211023D01*
X427519Y211023D01*
X417388Y200893D01*
X416218Y201518D01*
X416314Y202000D01*
Y225951D01*
X416605Y226145D01*
X417710Y227799D01*
X418098Y229750D01*
X417710Y231701D01*
X416605Y233355D01*
X414951Y234460D01*
X413000Y234848D01*
X411049Y234460D01*
X409395Y233355D01*
X408290Y231701D01*
X407902Y229750D01*
X408290Y227799D01*
X409395Y226145D01*
X409686Y225951D01*
Y203373D01*
X401479Y195166D01*
X401314D01*
X400550Y195318D01*
X387350D01*
X386004Y195050D01*
X384863Y194287D01*
X384100Y193146D01*
X383832Y191800D01*
Y189100D01*
X383356Y188753D01*
X382612Y188524D01*
X362314Y208822D01*
Y216514D01*
X363000Y217500D01*
X376000D01*
Y229518D01*
X377270Y230044D01*
X382000Y225314D01*
Y217500D01*
X386007D01*
Y207750D01*
X386004Y207750D01*
X384863Y206987D01*
X384100Y205846D01*
X383832Y204500D01*
Y201600D01*
X384100Y200254D01*
X384863Y199113D01*
X386004Y198350D01*
X387350Y198082D01*
X400550D01*
X401896Y198350D01*
X403037Y199113D01*
X403800Y200254D01*
X404068Y201600D01*
Y204500D01*
X403800Y205846D01*
X403037Y206987D01*
X401896Y207750D01*
X400550Y208018D01*
X392634D01*
Y217500D01*
X395000D01*
Y230500D01*
X386186D01*
X374899Y241787D01*
X375386Y242960D01*
X383040D01*
Y248730D01*
X376000D01*
Y251270D01*
X383040D01*
Y255254D01*
X384213Y255741D01*
X388500Y251454D01*
Y243500D01*
X401500D01*
Y246614D01*
X407523Y252638D01*
X408297Y253796D01*
X408569Y255161D01*
Y266264D01*
X409191Y266870D01*
X410461Y266428D01*
Y261480D01*
X416231D01*
Y268520D01*
Y275560D01*
X410461D01*
Y273113D01*
X409191Y272728D01*
X408605Y273605D01*
X406951Y274710D01*
X405000Y275098D01*
X403049Y274710D01*
X401395Y273605D01*
X400290Y271951D01*
X399902Y270000D01*
X400290Y268049D01*
X401395Y266395D01*
X401431Y266371D01*
Y256639D01*
X401292Y256500D01*
X393547D01*
X383956Y266091D01*
X382798Y266865D01*
X381432Y267137D01*
X381069D01*
Y267500D01*
X381001Y267845D01*
Y275500D01*
X381001Y275500D01*
X381001D01*
X381803Y276384D01*
X382105Y276686D01*
X389201D01*
X389395Y276395D01*
X391049Y275290D01*
X393000Y274902D01*
X394951Y275290D01*
X396605Y276395D01*
X397710Y278049D01*
X398098Y280000D01*
X397710Y281951D01*
X397189Y282730D01*
X397868Y284000D01*
X405500D01*
Y284186D01*
X411001D01*
Y281020D01*
X424001D01*
Y281580D01*
X425271Y282246D01*
X427000Y281902D01*
X428951Y282290D01*
X430605Y283395D01*
X431710Y285049D01*
X432098Y287000D01*
X431710Y288951D01*
X430605Y290605D01*
X428951Y291710D01*
X427000Y292098D01*
X425271Y291754D01*
X424001Y292420D01*
Y294020D01*
X423433D01*
X422758Y295290D01*
X423098Y297000D01*
X422710Y298951D01*
X421605Y300605D01*
X419951Y301710D01*
X418000Y302098D01*
X416049Y301710D01*
X414395Y300605D01*
X413290Y298951D01*
X412902Y297000D01*
X413242Y295290D01*
X412567Y294020D01*
X411001D01*
Y290814D01*
X405500D01*
Y304186D01*
X432648D01*
X464001Y272834D01*
Y264520D01*
X477001D01*
Y267706D01*
X493293D01*
Y241020D01*
X518293D01*
Y301020D01*
X493293D01*
Y274334D01*
X477001D01*
Y277520D01*
X468687D01*
X464497Y281710D01*
X465023Y282980D01*
X469230D01*
Y288750D01*
X463461D01*
Y284542D01*
X462191Y284016D01*
X438194Y308013D01*
X438680Y309186D01*
X445850D01*
X447118Y309439D01*
X448193Y310157D01*
X471844Y333807D01*
X472562Y334882D01*
X472814Y336151D01*
Y359520D01*
X476001D01*
Y362706D01*
X493293D01*
Y336020D01*
X518293D01*
Y396020D01*
X493293D01*
Y369334D01*
X476001D01*
Y372520D01*
X463000D01*
Y359520D01*
X466187D01*
Y337523D01*
X444478Y315814D01*
X418199D01*
X417513Y317084D01*
X417848Y318770D01*
X417561Y320210D01*
X418364Y321480D01*
X425541D01*
Y327250D01*
X418501D01*
Y329790D01*
X425541D01*
Y335560D01*
X424062D01*
X423463Y336680D01*
X423710Y337049D01*
X424098Y339000D01*
X423949Y339750D01*
X424991Y341020D01*
X425000D01*
Y344206D01*
X431001D01*
Y341020D01*
X431001Y341020D01*
X431001D01*
X431051Y339750D01*
X430902Y339000D01*
X431290Y337049D01*
X431537Y336680D01*
X430938Y335560D01*
X430461D01*
Y329790D01*
X437500D01*
X444540D01*
Y335560D01*
X441062D01*
X440463Y336680D01*
X440710Y337049D01*
X441098Y339000D01*
X440949Y339750D01*
X441846Y341020D01*
X444001D01*
Y354020D01*
X445202Y354186D01*
X447578D01*
X452170Y349593D01*
X452102Y349250D01*
X452490Y347299D01*
X453595Y345645D01*
X455249Y344540D01*
X457200Y344152D01*
X459151Y344540D01*
X460805Y345645D01*
X461910Y347299D01*
X462298Y349250D01*
X461910Y351201D01*
X460805Y352855D01*
X459151Y353960D01*
X457200Y354348D01*
X456857Y354280D01*
X451293Y359843D01*
X450218Y360561D01*
X448950Y360814D01*
X426849D01*
X426363Y361987D01*
X452743Y388367D01*
X453461Y389442D01*
X453714Y390710D01*
Y476201D01*
X454005Y476395D01*
X455110Y478049D01*
X455498Y480000D01*
X455110Y481951D01*
X454005Y483605D01*
X452351Y484710D01*
X450400Y485098D01*
X448449Y484710D01*
X446795Y483605D01*
X445690Y481951D01*
X445302Y480000D01*
X445690Y478049D01*
X446795Y476395D01*
X447086Y476201D01*
Y392082D01*
X420817Y365814D01*
X405500D01*
Y366000D01*
X389501D01*
Y355814D01*
X387714D01*
X387145Y356665D01*
X385491Y357770D01*
X383540Y358158D01*
X381589Y357770D01*
X379935Y356665D01*
X378830Y355011D01*
X378442Y353060D01*
X378830Y351109D01*
X379935Y349455D01*
X381589Y348350D01*
X383540Y347962D01*
X385491Y348350D01*
X386742Y349186D01*
X389501D01*
Y346540D01*
X388961D01*
Y342555D01*
X387787Y342069D01*
X385883Y343973D01*
X384808Y344691D01*
X383540Y344944D01*
X375909D01*
X375715Y345235D01*
X374061Y346340D01*
X372110Y346728D01*
X370159Y346340D01*
X368505Y345235D01*
X367400Y343581D01*
X367012Y341630D01*
X367400Y339679D01*
X368505Y338025D01*
X370159Y336920D01*
X372110Y336532D01*
X374061Y336920D01*
X375715Y338025D01*
X375909Y338316D01*
X379330D01*
X379715Y337046D01*
X378665Y336345D01*
X377560Y334691D01*
X377172Y332740D01*
X377560Y330789D01*
X378665Y329135D01*
X380319Y328030D01*
X382270Y327642D01*
X384221Y328030D01*
X385875Y329135D01*
X385909Y329186D01*
X389501D01*
Y320814D01*
X386069D01*
X385875Y321105D01*
X384221Y322210D01*
X382270Y322598D01*
X380319Y322210D01*
X378665Y321105D01*
X377560Y319451D01*
X377172Y317500D01*
X377560Y315549D01*
X378665Y313895D01*
X380319Y312790D01*
X382270Y312402D01*
X384221Y312790D01*
X385875Y313895D01*
X386069Y314186D01*
X389501D01*
Y301069D01*
X378978D01*
X363569Y316478D01*
Y344522D01*
X424523Y405477D01*
X425297Y406634D01*
X425569Y408000D01*
Y503522D01*
X439750Y517703D01*
X440943Y517100D01*
X440667Y515000D01*
X440998Y512481D01*
X441971Y510133D01*
X443517Y508118D01*
X445533Y506571D01*
X447881Y505598D01*
X450400Y505267D01*
X452919Y505598D01*
X455267Y506571D01*
X457282Y508118D01*
X458829Y510133D01*
X459802Y512481D01*
X460133Y515000D01*
X459802Y517519D01*
X458829Y519867D01*
X457282Y521883D01*
X455267Y523429D01*
X452919Y524402D01*
X452217Y524494D01*
X451868Y525821D01*
X457034Y530988D01*
X457542Y531327D01*
X462788Y536572D01*
X463961Y536086D01*
Y531000D01*
X464116Y530220D01*
X464558Y529558D01*
X465220Y529116D01*
X466000Y528961D01*
X495000Y528961D01*
X495780Y529116D01*
X496442Y529558D01*
X496884Y530220D01*
X497039Y531000D01*
X497039Y574440D01*
X496968Y574799D01*
X496908Y575160D01*
X496890Y575188D01*
X496884Y575220D01*
X496680Y575525D01*
X496487Y575835D01*
X483039Y590158D01*
Y615500D01*
X482884Y616280D01*
X482442Y616942D01*
X481780Y617384D01*
X481000Y617539D01*
X454808D01*
X454324Y618023D01*
X453166Y618797D01*
X451800Y619069D01*
X285978D01*
X259523Y645523D01*
X258366Y646297D01*
X257000Y646569D01*
D02*
G37*
G36*
X518101Y611094D02*
X515230Y610716D01*
X512554Y609608D01*
X510256Y607845D01*
X508493Y605547D01*
X507384Y602871D01*
X507006Y599999D01*
X507384Y597128D01*
X508493Y594452D01*
X510256Y592154D01*
X512554Y590391D01*
X515230Y589282D01*
X518101Y588904D01*
X520973Y589282D01*
X523649Y590391D01*
X525947Y592154D01*
X527710Y594452D01*
X528818Y597128D01*
X529196Y599999D01*
X528818Y602871D01*
X527710Y605547D01*
X525947Y607845D01*
X523649Y609608D01*
X520973Y610716D01*
X518101Y611094D01*
D02*
G37*
G36*
X84000Y606234D02*
X81455Y605899D01*
X79083Y604917D01*
X77046Y603354D01*
X75483Y601317D01*
X74501Y598945D01*
X74166Y596400D01*
X74501Y593855D01*
X75483Y591483D01*
X77046Y589446D01*
X79083Y587883D01*
X81455Y586901D01*
X84000Y586566D01*
X86545Y586901D01*
X88917Y587883D01*
X90954Y589446D01*
X92517Y591483D01*
X93499Y593855D01*
X93834Y596400D01*
X93499Y598945D01*
X92517Y601317D01*
X90954Y603354D01*
X88917Y604917D01*
X86545Y605899D01*
X84000Y606234D01*
D02*
G37*
G36*
X58600D02*
X56055Y605899D01*
X53683Y604917D01*
X51646Y603354D01*
X50083Y601317D01*
X49101Y598945D01*
X48766Y596400D01*
X49101Y593855D01*
X50083Y591483D01*
X51646Y589446D01*
X53683Y587883D01*
X56055Y586901D01*
X58600Y586566D01*
X61145Y586901D01*
X63517Y587883D01*
X65554Y589446D01*
X67117Y591483D01*
X68099Y593855D01*
X68434Y596400D01*
X68099Y598945D01*
X67117Y601317D01*
X65554Y603354D01*
X63517Y604917D01*
X61145Y605899D01*
X58600Y606234D01*
D02*
G37*
G36*
Y580834D02*
X56055Y580499D01*
X53683Y579517D01*
X51646Y577954D01*
X50083Y575917D01*
X49101Y573545D01*
X48766Y571000D01*
X49101Y568455D01*
X50083Y566083D01*
X51646Y564046D01*
X53683Y562483D01*
X56055Y561501D01*
X58600Y561166D01*
X61145Y561501D01*
X63517Y562483D01*
X65554Y564046D01*
X67117Y566083D01*
X68099Y568455D01*
X68434Y571000D01*
X68099Y573545D01*
X67117Y575917D01*
X65554Y577954D01*
X63517Y579517D01*
X61145Y580499D01*
X58600Y580834D01*
D02*
G37*
G36*
X84000D02*
X81455Y580499D01*
X79083Y579517D01*
X77046Y577954D01*
X75483Y575917D01*
X74501Y573545D01*
X74166Y571000D01*
X74501Y568455D01*
X75483Y566083D01*
X77046Y564046D01*
X79083Y562483D01*
X81455Y561501D01*
X84000Y561166D01*
X86545Y561501D01*
X88917Y562483D01*
X90954Y564046D01*
X92517Y566083D01*
X92713Y566556D01*
X105258D01*
X107970Y563843D01*
X107902Y563500D01*
X108290Y561549D01*
X109395Y559895D01*
X111049Y558790D01*
X113000Y558402D01*
X114951Y558790D01*
X116605Y559895D01*
X117710Y561549D01*
X118098Y563500D01*
X117710Y565451D01*
X116605Y567105D01*
X114951Y568210D01*
X113000Y568598D01*
X112657Y568530D01*
X108973Y572213D01*
X107898Y572931D01*
X106630Y573183D01*
X93547D01*
X93499Y573545D01*
X92517Y575917D01*
X90954Y577954D01*
X88917Y579517D01*
X86545Y580499D01*
X84000Y580834D01*
D02*
G37*
G36*
Y555434D02*
X81455Y555099D01*
X79083Y554117D01*
X77046Y552554D01*
X75483Y550517D01*
X74501Y548145D01*
X74166Y545600D01*
X74501Y543055D01*
X75483Y540683D01*
X77046Y538646D01*
X79083Y537083D01*
X81455Y536101D01*
X84000Y535766D01*
X86545Y536101D01*
X88917Y537083D01*
X90954Y538646D01*
X92517Y540683D01*
X93499Y543055D01*
X93834Y545600D01*
X93499Y548145D01*
X92517Y550517D01*
X90954Y552554D01*
X88917Y554117D01*
X86545Y555099D01*
X84000Y555434D01*
D02*
G37*
G36*
X58600D02*
X56055Y555099D01*
X53683Y554117D01*
X51646Y552554D01*
X50083Y550517D01*
X49101Y548145D01*
X48766Y545600D01*
X49101Y543055D01*
X50083Y540683D01*
X51646Y538646D01*
X53683Y537083D01*
X56055Y536101D01*
X58600Y535766D01*
X61145Y536101D01*
X63517Y537083D01*
X65554Y538646D01*
X67117Y540683D01*
X68099Y543055D01*
X68434Y545600D01*
X68099Y548145D01*
X67117Y550517D01*
X65554Y552554D01*
X63517Y554117D01*
X61145Y555099D01*
X58600Y555434D01*
D02*
G37*
G36*
X560000Y565098D02*
X558049Y564710D01*
X556395Y563605D01*
X555290Y561951D01*
X554902Y560000D01*
X555290Y558049D01*
X556395Y556395D01*
X556686Y556201D01*
Y523799D01*
X556395Y523605D01*
X555290Y521951D01*
X554902Y520000D01*
X555290Y518049D01*
X556395Y516395D01*
X558049Y515290D01*
X560000Y514902D01*
X561951Y515290D01*
X563605Y516395D01*
X564710Y518049D01*
X565098Y520000D01*
X564710Y521951D01*
X563605Y523605D01*
X563314Y523799D01*
Y556201D01*
X563605Y556395D01*
X564710Y558049D01*
X565098Y560000D01*
X564710Y561951D01*
X563605Y563605D01*
X561951Y564710D01*
X560000Y565098D01*
D02*
G37*
G36*
X523600Y547082D02*
X520267Y546754D01*
X517063Y545782D01*
X514110Y544203D01*
X511521Y542079D01*
X509397Y539490D01*
X507818Y536537D01*
X506846Y533333D01*
X506518Y530000D01*
X506846Y526668D01*
X507818Y523463D01*
X509397Y520510D01*
X511521Y517921D01*
X514110Y515797D01*
X517063Y514218D01*
X520267Y513246D01*
X523600Y512918D01*
X526933Y513246D01*
X530137Y514218D01*
X533090Y515797D01*
X535679Y517921D01*
X537803Y520510D01*
X539382Y523463D01*
X540354Y526668D01*
X540682Y530000D01*
X540354Y533333D01*
X539382Y536537D01*
X537803Y539490D01*
X535679Y542079D01*
X533090Y544203D01*
X530137Y545782D01*
X526933Y546754D01*
X523600Y547082D01*
D02*
G37*
G36*
X84000Y530034D02*
X81455Y529699D01*
X79083Y528717D01*
X77046Y527154D01*
X75483Y525117D01*
X74501Y522745D01*
X74166Y520200D01*
X74501Y517655D01*
X75483Y515283D01*
X77046Y513246D01*
X79083Y511683D01*
X81455Y510701D01*
X84000Y510366D01*
X86545Y510701D01*
X88917Y511683D01*
X90954Y513246D01*
X92517Y515283D01*
X93499Y517655D01*
X93834Y520200D01*
X93499Y522745D01*
X92517Y525117D01*
X90954Y527154D01*
X88917Y528717D01*
X86545Y529699D01*
X84000Y530034D01*
D02*
G37*
G36*
X58600Y504634D02*
X56055Y504299D01*
X53683Y503317D01*
X51646Y501754D01*
X50083Y499717D01*
X49101Y497345D01*
X48766Y494800D01*
X49101Y492255D01*
X50083Y489883D01*
X51646Y487846D01*
X53683Y486283D01*
X56055Y485301D01*
X58600Y484966D01*
X61145Y485301D01*
X63517Y486283D01*
X65554Y487846D01*
X67117Y489883D01*
X68099Y492255D01*
X68434Y494800D01*
X68099Y497345D01*
X67117Y499717D01*
X65554Y501754D01*
X63517Y503317D01*
X61145Y504299D01*
X58600Y504634D01*
D02*
G37*
G36*
X560000Y485098D02*
X558049Y484710D01*
X556395Y483605D01*
X555290Y481951D01*
X554902Y480000D01*
X555290Y478049D01*
X556395Y476395D01*
X558049Y475290D01*
X560000Y474902D01*
X561951Y475290D01*
X563605Y476395D01*
X564710Y478049D01*
X565098Y480000D01*
X564710Y481951D01*
X563605Y483605D01*
X561951Y484710D01*
X560000Y485098D01*
D02*
G37*
G36*
X144250Y471860D02*
X138480D01*
Y466090D01*
X144250D01*
Y471860D01*
D02*
G37*
G36*
X135940D02*
X130170D01*
Y466090D01*
X135940D01*
Y471860D01*
D02*
G37*
G36*
X518840Y466240D02*
X505840D01*
Y463054D01*
X499099D01*
X498905Y463345D01*
X497251Y464450D01*
X495300Y464838D01*
X493349Y464450D01*
X491695Y463345D01*
X490590Y461691D01*
X490202Y459740D01*
X490590Y457789D01*
X491695Y456135D01*
X493349Y455030D01*
X495300Y454642D01*
X497251Y455030D01*
X498905Y456135D01*
X499099Y456426D01*
X505840D01*
Y453240D01*
X518840D01*
Y466240D01*
D02*
G37*
G36*
X567880Y466280D02*
X562610D01*
Y461010D01*
X567880D01*
Y466280D01*
D02*
G37*
G36*
X560070D02*
X554800D01*
Y461010D01*
X560070D01*
Y466280D01*
D02*
G37*
G36*
X58600Y479234D02*
X56055Y478899D01*
X53683Y477917D01*
X51646Y476354D01*
X50083Y474317D01*
X49101Y471945D01*
X48766Y469400D01*
X49101Y466855D01*
X50083Y464483D01*
X51646Y462446D01*
X53683Y460883D01*
X56055Y459901D01*
X58600Y459566D01*
X61145Y459901D01*
X63517Y460883D01*
X65554Y462446D01*
X67117Y464483D01*
X68099Y466855D01*
X68434Y469400D01*
X68099Y471945D01*
X67117Y474317D01*
X65554Y476354D01*
X63517Y477917D01*
X61145Y478899D01*
X58600Y479234D01*
D02*
G37*
G36*
X162710Y471320D02*
X149710D01*
Y463006D01*
X145520Y458816D01*
X144250Y459342D01*
Y463550D01*
X138480D01*
Y457780D01*
X142688D01*
X143214Y456510D01*
X139017Y452314D01*
X129799D01*
X129605Y452605D01*
X127951Y453710D01*
X126000Y454098D01*
X124049Y453710D01*
X122395Y452605D01*
X121290Y450951D01*
X120902Y449000D01*
X121290Y447049D01*
X122395Y445395D01*
X124049Y444290D01*
X126000Y443902D01*
X127951Y444290D01*
X128900Y444924D01*
X130170Y444245D01*
Y440690D01*
X137210D01*
X144250D01*
Y446460D01*
X144250D01*
X143806Y447730D01*
X154396Y458320D01*
X162710D01*
Y461090D01*
X163980Y461334D01*
X173970Y451343D01*
X173902Y451000D01*
X174290Y449049D01*
X175395Y447395D01*
X177049Y446290D01*
X179000Y445902D01*
X180951Y446290D01*
X182605Y447395D01*
X183710Y449049D01*
X184098Y451000D01*
X183710Y452951D01*
X182605Y454605D01*
X180951Y455710D01*
X179000Y456098D01*
X178657Y456030D01*
X167523Y467163D01*
X166448Y467881D01*
X165180Y468134D01*
X162710D01*
Y471320D01*
D02*
G37*
G36*
X135940Y463550D02*
X130170D01*
Y457780D01*
X135940D01*
Y463550D01*
D02*
G37*
G36*
X537840Y466240D02*
X524840D01*
Y453240D01*
X537840D01*
Y456426D01*
X540340D01*
Y453740D01*
X552340D01*
Y465740D01*
X540340D01*
Y463054D01*
X537840D01*
Y466240D01*
D02*
G37*
G36*
X567880Y458470D02*
X562610D01*
Y453200D01*
X567880D01*
Y458470D01*
D02*
G37*
G36*
X560070D02*
X554800D01*
Y453200D01*
X560070D01*
Y458470D01*
D02*
G37*
G36*
X269880Y446460D02*
X264110D01*
Y440690D01*
X269880D01*
Y446460D01*
D02*
G37*
G36*
X518840Y439570D02*
X505840D01*
Y436384D01*
X499099D01*
X498905Y436675D01*
X497251Y437780D01*
X495300Y438168D01*
X493349Y437780D01*
X491695Y436675D01*
X490590Y435021D01*
X490202Y433070D01*
X490590Y431119D01*
X491695Y429465D01*
X493349Y428360D01*
X495300Y427972D01*
X497251Y428360D01*
X498905Y429465D01*
X499099Y429756D01*
X505840D01*
Y426570D01*
X518840D01*
Y439570D01*
D02*
G37*
G36*
X567880Y439610D02*
X562610D01*
Y434340D01*
X567880D01*
Y439610D01*
D02*
G37*
G36*
X560070D02*
X554800D01*
Y434340D01*
X560070D01*
Y439610D01*
D02*
G37*
G36*
X269880Y438150D02*
X264110D01*
Y432380D01*
X269880D01*
Y438150D01*
D02*
G37*
G36*
X144250D02*
X138480D01*
Y432380D01*
X144250D01*
Y438150D01*
D02*
G37*
G36*
X135940D02*
X130170D01*
Y432380D01*
X135940D01*
Y438150D01*
D02*
G37*
G36*
X537840Y439570D02*
X524840D01*
Y426570D01*
X537840D01*
Y429756D01*
X540340D01*
Y427070D01*
X552340D01*
Y439070D01*
X540340D01*
Y436384D01*
X537840D01*
Y439570D01*
D02*
G37*
G36*
X93750Y479150D02*
X74250D01*
Y466391D01*
X73176Y465673D01*
X68477Y460974D01*
X68255Y460643D01*
X56181Y448569D01*
X43000D01*
X41634Y448297D01*
X40477Y447523D01*
X10043Y417089D01*
X10000Y417098D01*
X8049Y416710D01*
X6395Y415605D01*
X5290Y413951D01*
X4902Y412000D01*
X5290Y410049D01*
X6395Y408395D01*
X8049Y407290D01*
X10000Y406902D01*
X11951Y407290D01*
X11965Y407299D01*
X13138Y406813D01*
X13290Y406049D01*
X14395Y404395D01*
X16049Y403290D01*
X18000Y402902D01*
X19951Y403290D01*
X21605Y404395D01*
X22710Y406049D01*
X23098Y408000D01*
X23030Y408343D01*
X43373Y428686D01*
X105201D01*
X105395Y428395D01*
X107049Y427290D01*
X109000Y426902D01*
X110951Y427290D01*
X112605Y428395D01*
X113710Y430049D01*
X114098Y432000D01*
X113710Y433951D01*
X112605Y435605D01*
X110951Y436710D01*
X109000Y437098D01*
X107049Y436710D01*
X105395Y435605D01*
X105201Y435314D01*
X42000D01*
X40732Y435061D01*
X39657Y434343D01*
X19029Y413715D01*
X18618Y413776D01*
X18172Y415126D01*
X44478Y441431D01*
X57659D01*
X59025Y441703D01*
X60183Y442477D01*
X73523Y455817D01*
X73745Y456148D01*
X77178Y459581D01*
X77750D01*
X78095Y459650D01*
X93750D01*
Y479150D01*
D02*
G37*
G36*
X567880Y431800D02*
X562610D01*
Y426530D01*
X567880D01*
Y431800D01*
D02*
G37*
G36*
X560070D02*
X554800D01*
Y426530D01*
X560070D01*
Y431800D01*
D02*
G37*
G36*
X279540Y426040D02*
X273770D01*
Y420270D01*
X279540D01*
Y426040D01*
D02*
G37*
G36*
X271230D02*
X265460D01*
Y420270D01*
X271230D01*
Y426040D01*
D02*
G37*
G36*
X135940Y421060D02*
X130170D01*
Y415290D01*
X135940D01*
Y421060D01*
D02*
G37*
G36*
X231750Y419649D02*
X228770D01*
Y415270D01*
X237146D01*
X236969Y416162D01*
X235744Y417994D01*
X233912Y419219D01*
X231750Y419649D01*
D02*
G37*
G36*
X279540Y417730D02*
X273770D01*
Y411960D01*
X279540D01*
Y417730D01*
D02*
G37*
G36*
X271230D02*
X265460D01*
Y411960D01*
X271230D01*
Y417730D01*
D02*
G37*
G36*
X518840Y412900D02*
X505840D01*
Y409714D01*
X499099D01*
X498905Y410005D01*
X497251Y411110D01*
X495300Y411498D01*
X493349Y411110D01*
X491695Y410005D01*
X490590Y408351D01*
X490202Y406400D01*
X490590Y404449D01*
X491695Y402795D01*
X493349Y401690D01*
X495300Y401302D01*
X497251Y401690D01*
X498905Y402795D01*
X499099Y403086D01*
X505840D01*
Y399900D01*
X518840D01*
Y412900D01*
D02*
G37*
G36*
X237146Y412730D02*
X228770D01*
Y408352D01*
X231750D01*
X233912Y408782D01*
X235744Y410006D01*
X236969Y411838D01*
X237146Y412730D01*
D02*
G37*
G36*
X567880Y412940D02*
X562610D01*
Y407670D01*
X567880D01*
Y412940D01*
D02*
G37*
G36*
X560070D02*
X554800D01*
Y407670D01*
X560070D01*
Y412940D01*
D02*
G37*
G36*
X135940Y412750D02*
X130170D01*
Y406980D01*
X135940D01*
Y412750D01*
D02*
G37*
G36*
X271231Y409560D02*
X265461D01*
Y403790D01*
X271231D01*
Y409560D01*
D02*
G37*
G36*
X231750Y406949D02*
X228770D01*
Y402570D01*
X237146D01*
X236969Y403462D01*
X235744Y405294D01*
X233912Y406519D01*
X231750Y406949D01*
D02*
G37*
G36*
X537840Y412900D02*
X524840D01*
Y399900D01*
X537840D01*
Y403086D01*
X540340D01*
Y400400D01*
X552340D01*
Y412400D01*
X540340D01*
Y409714D01*
X537840D01*
Y412900D01*
D02*
G37*
G36*
X567880Y405130D02*
X562610D01*
Y399860D01*
X567880D01*
Y405130D01*
D02*
G37*
G36*
X560070D02*
X554800D01*
Y399860D01*
X560070D01*
Y405130D01*
D02*
G37*
G36*
X237146Y400030D02*
X228770D01*
Y395652D01*
X231750D01*
X233912Y396082D01*
X235744Y397306D01*
X236969Y399138D01*
X237146Y400030D01*
D02*
G37*
G36*
X271231Y401250D02*
X265461D01*
Y395480D01*
X271231D01*
Y401250D01*
D02*
G37*
G36*
X476540Y392060D02*
X470770D01*
Y386290D01*
X476540D01*
Y392060D01*
D02*
G37*
G36*
X468230D02*
X462461D01*
Y386290D01*
X468230D01*
Y392060D01*
D02*
G37*
G36*
X270540Y391040D02*
X264770D01*
Y385270D01*
X270540D01*
Y391040D01*
D02*
G37*
G36*
X262230D02*
X256460D01*
Y385270D01*
X262230D01*
Y391040D01*
D02*
G37*
G36*
X148960Y399184D02*
X131571D01*
X130303Y398931D01*
X129228Y398213D01*
X74179Y343164D01*
X73461Y342089D01*
X73208Y340821D01*
Y333681D01*
X71605Y333017D01*
X69568Y331454D01*
X68005Y329417D01*
X67023Y327045D01*
X66688Y324500D01*
X67023Y321955D01*
X68005Y319583D01*
X69568Y317546D01*
X71605Y315983D01*
X73977Y315001D01*
X76522Y314666D01*
X79067Y315001D01*
X81439Y315983D01*
X83476Y317546D01*
X85039Y319583D01*
X86021Y321955D01*
X86356Y324500D01*
X86021Y327045D01*
X85039Y329417D01*
X83476Y331454D01*
X81439Y333017D01*
X79836Y333681D01*
Y339449D01*
X90785Y350398D01*
X91948Y349765D01*
X92290Y348048D01*
X93395Y346395D01*
X95049Y345289D01*
X97000Y344901D01*
X98951Y345289D01*
X99844Y345886D01*
X127001D01*
X127195Y345595D01*
X128849Y344490D01*
X130800Y344102D01*
X132751Y344490D01*
X134405Y345595D01*
X135510Y347249D01*
X135898Y349200D01*
X135510Y351151D01*
X134405Y352805D01*
X132751Y353910D01*
X130800Y354298D01*
X128849Y353910D01*
X127195Y352805D01*
X127001Y352514D01*
X101333D01*
X100605Y353604D01*
X98951Y354709D01*
X97234Y355051D01*
X96601Y356214D01*
X128997Y388610D01*
X130170Y388124D01*
Y381580D01*
X135940D01*
Y388620D01*
X137210D01*
Y389890D01*
X144250D01*
Y392556D01*
X147587D01*
X149710Y390434D01*
Y382120D01*
X162710D01*
Y385306D01*
X164937D01*
X165145Y384995D01*
X166799Y383890D01*
X168750Y383502D01*
X177250D01*
X179201Y383890D01*
X180855Y384995D01*
X181960Y386649D01*
X182348Y388600D01*
X181960Y390551D01*
X180855Y392205D01*
X179201Y393310D01*
X177250Y393698D01*
X168750D01*
X166799Y393310D01*
X165145Y392205D01*
X164964Y391934D01*
X162710D01*
Y395120D01*
X154396D01*
X151303Y398213D01*
X150228Y398931D01*
X150018Y398973D01*
X148960Y399184D01*
D02*
G37*
G36*
X144250Y387350D02*
X138480D01*
Y381580D01*
X144250D01*
Y387350D01*
D02*
G37*
G36*
X476540Y383750D02*
X470770D01*
Y377980D01*
X476540D01*
Y383750D01*
D02*
G37*
G36*
X468230D02*
X462461D01*
Y377980D01*
X468230D01*
Y383750D01*
D02*
G37*
G36*
X270540Y382730D02*
X264770D01*
Y376960D01*
X270540D01*
Y382730D01*
D02*
G37*
G36*
X269540Y375040D02*
X263770D01*
Y369270D01*
X269540D01*
Y375040D01*
D02*
G37*
G36*
X144250Y370260D02*
X138480D01*
Y364490D01*
X144250D01*
Y370260D01*
D02*
G37*
G36*
X135940D02*
X130170D01*
Y364490D01*
X135940D01*
Y370260D01*
D02*
G37*
G36*
X269540Y366730D02*
X263770D01*
Y360960D01*
X269540D01*
Y366730D01*
D02*
G37*
G36*
X162710Y369720D02*
X149710D01*
Y356720D01*
X152896D01*
Y350583D01*
X139657Y337343D01*
X139657Y337343D01*
X116427Y314114D01*
X114103D01*
X113439Y315717D01*
X111876Y317754D01*
X109839Y319317D01*
X107467Y320299D01*
X104922Y320634D01*
X102377Y320299D01*
X100005Y319317D01*
X97968Y317754D01*
X96405Y315717D01*
X95423Y313345D01*
X95088Y310800D01*
X95423Y308255D01*
X96405Y305883D01*
X97968Y303846D01*
X100005Y302283D01*
X102377Y301301D01*
X104922Y300966D01*
X107467Y301301D01*
X109839Y302283D01*
X111876Y303846D01*
X113439Y305883D01*
X114103Y307486D01*
X117800D01*
X119068Y307739D01*
X120143Y308457D01*
X144343Y332657D01*
X158553Y346867D01*
X159271Y347942D01*
X159524Y349210D01*
Y356720D01*
X162710D01*
Y359891D01*
X164948D01*
X165145Y359595D01*
X166799Y358490D01*
X168750Y358102D01*
X177250D01*
X179201Y358490D01*
X180855Y359595D01*
X181960Y361249D01*
X182348Y363200D01*
X181960Y365151D01*
X180855Y366805D01*
X179201Y367910D01*
X177250Y368298D01*
X168750D01*
X166799Y367910D01*
X165145Y366805D01*
X164954Y366518D01*
X162710D01*
Y369720D01*
D02*
G37*
G36*
X144250Y361950D02*
X138480D01*
Y356180D01*
X144250D01*
Y361950D01*
D02*
G37*
G36*
X135940D02*
X130170D01*
Y356180D01*
X135940D01*
Y361950D01*
D02*
G37*
G36*
X177250Y356148D02*
X174270D01*
Y351770D01*
X182646D01*
X182469Y352662D01*
X181244Y354494D01*
X179412Y355719D01*
X177250Y356148D01*
D02*
G37*
G36*
X171730D02*
X168750D01*
X166588Y355719D01*
X164756Y354494D01*
X163531Y352662D01*
X163354Y351770D01*
X171730D01*
Y356148D01*
D02*
G37*
G36*
X182646Y349230D02*
X174270D01*
Y344851D01*
X177250D01*
X179412Y345281D01*
X181244Y346506D01*
X182469Y348338D01*
X182646Y349230D01*
D02*
G37*
G36*
X171730D02*
X163354D01*
X163531Y348338D01*
X164756Y346506D01*
X166588Y345281D01*
X168750Y344851D01*
X171730D01*
Y349230D01*
D02*
G37*
G36*
X548000Y339060D02*
X546173Y338820D01*
X544470Y338115D01*
X543008Y336992D01*
X541885Y335530D01*
X541180Y333827D01*
X540940Y332000D01*
X541180Y330173D01*
X541885Y328470D01*
X543008Y327008D01*
X544470Y325886D01*
X546173Y325180D01*
X548000Y324940D01*
X549827Y325180D01*
X551530Y325886D01*
X552992Y327008D01*
X554114Y328470D01*
X554820Y330173D01*
X555060Y332000D01*
X554820Y333827D01*
X554114Y335530D01*
X552992Y336992D01*
X551530Y338115D01*
X549827Y338820D01*
X548000Y339060D01*
D02*
G37*
G36*
X444540Y327250D02*
X438770D01*
Y321480D01*
X444540D01*
Y327250D01*
D02*
G37*
G36*
X436231D02*
X430461D01*
Y321480D01*
X436231D01*
Y327250D01*
D02*
G37*
G36*
X477541Y297060D02*
X471771D01*
Y291290D01*
X477541D01*
Y297060D01*
D02*
G37*
G36*
X469230D02*
X463461D01*
Y291290D01*
X469230D01*
Y297060D01*
D02*
G37*
G36*
X76522Y306934D02*
X73977Y306599D01*
X71605Y305617D01*
X69568Y304054D01*
X68005Y302017D01*
X67023Y299645D01*
X66688Y297100D01*
X67023Y294555D01*
X68005Y292183D01*
X69568Y290146D01*
X71605Y288583D01*
X73977Y287601D01*
X76522Y287266D01*
X79067Y287601D01*
X81439Y288583D01*
X83476Y290146D01*
X85039Y292183D01*
X86021Y294555D01*
X86356Y297100D01*
X86021Y299645D01*
X85039Y302017D01*
X83476Y304054D01*
X81439Y305617D01*
X79067Y306599D01*
X76522Y306934D01*
D02*
G37*
G36*
X477541Y288750D02*
X471771D01*
Y282980D01*
X477541D01*
Y288750D01*
D02*
G37*
G36*
X42000Y285098D02*
X40049Y284710D01*
X38395Y283605D01*
X37764Y282660D01*
X36236D01*
X35605Y283605D01*
X33951Y284710D01*
X32000Y285098D01*
X30049Y284710D01*
X28395Y283605D01*
X27290Y281951D01*
X26902Y280000D01*
X27290Y278049D01*
X28395Y276395D01*
X29340Y275764D01*
Y274236D01*
X28395Y273605D01*
X27290Y271951D01*
X26902Y270000D01*
X27290Y268049D01*
X28395Y266395D01*
X29340Y265764D01*
Y264236D01*
X28395Y263605D01*
X27290Y261951D01*
X26902Y260000D01*
X27290Y258049D01*
X28395Y256395D01*
X30049Y255290D01*
X32000Y254902D01*
X33951Y255290D01*
X35605Y256395D01*
X36236Y257340D01*
X37764D01*
X38395Y256395D01*
X40049Y255290D01*
X42000Y254902D01*
X43951Y255290D01*
X45605Y256395D01*
X46710Y258049D01*
X47098Y260000D01*
X46710Y261951D01*
X45605Y263605D01*
X43951Y264710D01*
X42000Y265098D01*
X40049Y264710D01*
X38395Y263605D01*
X37764Y262660D01*
X36236D01*
X35605Y263605D01*
X34660Y264236D01*
Y265764D01*
X35605Y266395D01*
X36710Y268049D01*
X37098Y270000D01*
X36710Y271951D01*
X35605Y273605D01*
X34660Y274236D01*
Y275764D01*
X35605Y276395D01*
X36236Y277340D01*
X37764D01*
X38395Y276395D01*
X40049Y275290D01*
X42000Y274902D01*
X43951Y275290D01*
X45605Y276395D01*
X46710Y278049D01*
X47098Y280000D01*
X46710Y281951D01*
X45605Y283605D01*
X43951Y284710D01*
X42000Y285098D01*
D02*
G37*
G36*
X424541Y275560D02*
X418771D01*
Y269790D01*
X424541D01*
Y275560D01*
D02*
G37*
G36*
Y267250D02*
X418771D01*
Y261480D01*
X424541D01*
Y267250D01*
D02*
G37*
G36*
X76522Y279534D02*
X73977Y279199D01*
X71605Y278217D01*
X69568Y276654D01*
X68005Y274617D01*
X67023Y272245D01*
X66688Y269700D01*
X67023Y267155D01*
X68005Y264783D01*
X69568Y262746D01*
X71605Y261183D01*
X73977Y260201D01*
X76522Y259866D01*
X79067Y260201D01*
X81439Y261183D01*
X83476Y262746D01*
X85039Y264783D01*
X86021Y267155D01*
X86356Y269700D01*
X86021Y272245D01*
X85039Y274617D01*
X83476Y276654D01*
X81439Y278217D01*
X79067Y279199D01*
X76522Y279534D01*
D02*
G37*
G36*
X462498Y258040D02*
X456728D01*
Y252270D01*
X462498D01*
Y258040D01*
D02*
G37*
G36*
X454188D02*
X448418D01*
Y252270D01*
X454188D01*
Y258040D01*
D02*
G37*
G36*
X191000Y291098D02*
X189049Y290710D01*
X187395Y289605D01*
X186290Y287951D01*
X185902Y286000D01*
X186290Y284049D01*
X186686Y283456D01*
Y260799D01*
X186395Y260605D01*
X185290Y258951D01*
X184902Y257000D01*
X185290Y255049D01*
X186395Y253395D01*
X188049Y252290D01*
X190000Y251902D01*
X191951Y252290D01*
X193605Y253395D01*
X194710Y255049D01*
X195098Y257000D01*
X194710Y258951D01*
X193605Y260605D01*
X193314Y260799D01*
Y281532D01*
X194605Y282395D01*
X195710Y284049D01*
X196098Y286000D01*
X195710Y287951D01*
X194605Y289605D01*
X192951Y290710D01*
X191000Y291098D01*
D02*
G37*
G36*
X462498Y249730D02*
X456728D01*
Y243960D01*
X462498D01*
Y249730D01*
D02*
G37*
G36*
X454188D02*
X448418D01*
Y243960D01*
X454188D01*
Y249730D01*
D02*
G37*
G36*
X76522Y252134D02*
X73977Y251799D01*
X71605Y250817D01*
X69568Y249254D01*
X68005Y247217D01*
X67023Y244845D01*
X66688Y242300D01*
X67023Y239755D01*
X68005Y237383D01*
X69568Y235346D01*
X71605Y233783D01*
X73977Y232801D01*
X76522Y232466D01*
X79067Y232801D01*
X81439Y233783D01*
X83476Y235346D01*
X85039Y237383D01*
X86021Y239755D01*
X86356Y242300D01*
X86021Y244845D01*
X85039Y247217D01*
X83476Y249254D01*
X81439Y250817D01*
X79067Y251799D01*
X76522Y252134D01*
D02*
G37*
G36*
X198000Y241000D02*
X152000D01*
Y217000D01*
X198000D01*
Y241000D01*
D02*
G37*
G36*
X104922Y183634D02*
X102377Y183299D01*
X100005Y182317D01*
X97968Y180754D01*
X96405Y178717D01*
X95423Y176345D01*
X95088Y173800D01*
X95423Y171255D01*
X96405Y168883D01*
X97968Y166846D01*
X100005Y165283D01*
X102377Y164301D01*
X104922Y163966D01*
X107467Y164301D01*
X109839Y165283D01*
X111876Y166846D01*
X113439Y168883D01*
X114421Y171255D01*
X114756Y173800D01*
X114421Y176345D01*
X113439Y178717D01*
X111876Y180754D01*
X109839Y182317D01*
X107467Y183299D01*
X104922Y183634D01*
D02*
G37*
G36*
X555600Y176595D02*
X552728Y176217D01*
X550052Y175109D01*
X547755Y173346D01*
X545992Y171048D01*
X544883Y168372D01*
X544505Y165500D01*
X544883Y162629D01*
X545992Y159953D01*
X547755Y157655D01*
X550052Y155892D01*
X552728Y154784D01*
X555600Y154405D01*
X558471Y154784D01*
X561147Y155892D01*
X563445Y157655D01*
X565208Y159953D01*
X566317Y162629D01*
X566695Y165500D01*
X566317Y168372D01*
X565208Y171048D01*
X563445Y173346D01*
X561147Y175109D01*
X558471Y176217D01*
X555600Y176595D01*
D02*
G37*
G36*
X198540Y161540D02*
X176270D01*
Y150270D01*
X198540D01*
Y161540D01*
D02*
G37*
G36*
X173730D02*
X151460D01*
Y150270D01*
X173730D01*
Y161540D01*
D02*
G37*
G36*
X198540Y147730D02*
X176270D01*
Y136460D01*
X198540D01*
Y147730D01*
D02*
G37*
G36*
X173730D02*
X151460D01*
Y136460D01*
X173730D01*
Y147730D01*
D02*
G37*
G36*
X555599Y151196D02*
X552728Y150818D01*
X550052Y149710D01*
X547754Y147947D01*
X545991Y145649D01*
X544882Y142973D01*
X544504Y140101D01*
X544882Y137230D01*
X545991Y134554D01*
X547754Y132256D01*
X550052Y130493D01*
X552728Y129384D01*
X555599Y129006D01*
X558471Y129384D01*
X561147Y130493D01*
X563444Y132256D01*
X565208Y134554D01*
X566316Y137230D01*
X566694Y140101D01*
X566316Y142973D01*
X565208Y145649D01*
X563444Y147947D01*
X561147Y149710D01*
X558471Y150818D01*
X555599Y151196D01*
D02*
G37*
G36*
X114672Y156150D02*
X95172D01*
Y136650D01*
X109625D01*
X119950Y126326D01*
X121107Y125552D01*
X122473Y125281D01*
X136500D01*
Y122000D01*
X145500D01*
Y125281D01*
X205623D01*
X205648Y125244D01*
X207302Y124139D01*
X209252Y123751D01*
X211203Y124139D01*
X212857Y125244D01*
X213962Y126898D01*
X214350Y128849D01*
X213962Y130800D01*
X212857Y132454D01*
X211203Y133559D01*
X209252Y133947D01*
X207302Y133559D01*
X205648Y132454D01*
X205623Y132418D01*
X145500D01*
Y134000D01*
X136500D01*
Y132418D01*
X123951D01*
X114672Y141697D01*
Y156150D01*
D02*
G37*
G36*
X76522Y169934D02*
X73977Y169599D01*
X71605Y168617D01*
X69568Y167054D01*
X68005Y165017D01*
X67023Y162645D01*
X66688Y160100D01*
X67023Y157555D01*
X68005Y155183D01*
X69568Y153146D01*
X71605Y151583D01*
X73977Y150601D01*
X76522Y150266D01*
X79067Y150601D01*
X80107Y151032D01*
X80941Y150197D01*
Y130246D01*
X81194Y128977D01*
X81912Y127902D01*
X99157Y110657D01*
X100232Y109939D01*
X101501Y109686D01*
X135960D01*
Y107270D01*
X141000D01*
X146040D01*
Y109686D01*
X186201D01*
X186395Y109395D01*
X188049Y108290D01*
X190000Y107902D01*
X191951Y108290D01*
X193605Y109395D01*
X194710Y111049D01*
X195098Y113000D01*
X194710Y114951D01*
X193605Y116605D01*
X191951Y117710D01*
X190000Y118098D01*
X188049Y117710D01*
X186395Y116605D01*
X186201Y116314D01*
X102873D01*
X87569Y131618D01*
Y151570D01*
X87316Y152838D01*
X86598Y153913D01*
X85123Y155387D01*
X86021Y157555D01*
X86356Y160100D01*
X86021Y162645D01*
X85039Y165017D01*
X83476Y167054D01*
X81439Y168617D01*
X79067Y169599D01*
X76522Y169934D01*
D02*
G37*
G36*
X555601Y125794D02*
X552729Y125416D01*
X550053Y124308D01*
X547756Y122545D01*
X545992Y120247D01*
X544884Y117571D01*
X544506Y114700D01*
X544884Y111828D01*
X545992Y109152D01*
X547756Y106854D01*
X550053Y105091D01*
X552729Y103983D01*
X555601Y103605D01*
X558472Y103983D01*
X561148Y105091D01*
X563446Y106854D01*
X565209Y109152D01*
X566318Y111828D01*
X566696Y114700D01*
X566318Y117571D01*
X565209Y120247D01*
X563446Y122545D01*
X561148Y124308D01*
X558472Y125416D01*
X555601Y125794D01*
D02*
G37*
G36*
X252000Y106561D02*
X250147Y106317D01*
X248419Y105602D01*
X246936Y104464D01*
X245798Y102981D01*
X245083Y101253D01*
X244839Y99400D01*
X245083Y97547D01*
X245798Y95819D01*
X246936Y94336D01*
X248419Y93198D01*
X250147Y92483D01*
X252000Y92239D01*
X253853Y92483D01*
X255581Y93198D01*
X257064Y94336D01*
X258202Y95819D01*
X258917Y97547D01*
X259161Y99400D01*
X258917Y101253D01*
X258202Y102981D01*
X257064Y104464D01*
X255581Y105602D01*
X253853Y106317D01*
X252000Y106561D01*
D02*
G37*
G36*
X162000D02*
X160147Y106317D01*
X158419Y105602D01*
X156936Y104464D01*
X155798Y102981D01*
X155083Y101253D01*
X154839Y99400D01*
X155083Y97547D01*
X155798Y95819D01*
X156936Y94336D01*
X158419Y93198D01*
X160147Y92483D01*
X162000Y92239D01*
X163853Y92483D01*
X165581Y93198D01*
X167064Y94336D01*
X168202Y95819D01*
X168917Y97547D01*
X169161Y99400D01*
X168917Y101253D01*
X168202Y102981D01*
X167064Y104464D01*
X165581Y105602D01*
X163853Y106317D01*
X162000Y106561D01*
D02*
G37*
G36*
X510000Y117323D02*
X506620Y116990D01*
X503371Y116005D01*
X500376Y114404D01*
X497751Y112249D01*
X495596Y109624D01*
X493995Y106629D01*
X493009Y103380D01*
X492677Y100000D01*
X493009Y96620D01*
X493995Y93371D01*
X495596Y90376D01*
X497751Y87751D01*
X500376Y85596D01*
X503371Y83995D01*
X506620Y83010D01*
X510000Y82677D01*
X513380Y83010D01*
X516629Y83995D01*
X519624Y85596D01*
X522249Y87751D01*
X524404Y90376D01*
X526005Y93371D01*
X526991Y96620D01*
X527323Y100000D01*
X526991Y103380D01*
X526005Y106629D01*
X524404Y109624D01*
X522249Y112249D01*
X519624Y114404D01*
X516629Y116005D01*
X513380Y116990D01*
X510000Y117323D01*
D02*
G37*
G36*
X555601Y100394D02*
X552729Y100016D01*
X550053Y98908D01*
X547756Y97145D01*
X545992Y94847D01*
X544884Y92171D01*
X544506Y89300D01*
X544884Y86428D01*
X545992Y83752D01*
X547756Y81454D01*
X550053Y79691D01*
X552729Y78583D01*
X555601Y78205D01*
X558472Y78583D01*
X561148Y79691D01*
X563446Y81454D01*
X565209Y83752D01*
X566318Y86428D01*
X566696Y89300D01*
X566318Y92171D01*
X565209Y94847D01*
X563446Y97145D01*
X561148Y98908D01*
X558472Y100016D01*
X555601Y100394D01*
D02*
G37*
G36*
X327001D02*
X324129Y100016D01*
X321453Y98908D01*
X319156Y97145D01*
X317392Y94847D01*
X316284Y92171D01*
X315906Y89300D01*
X316284Y86428D01*
X317392Y83752D01*
X319156Y81454D01*
X321453Y79691D01*
X324129Y78583D01*
X327001Y78205D01*
X329872Y78583D01*
X332548Y79691D01*
X334846Y81454D01*
X336609Y83752D01*
X337718Y86428D01*
X338096Y89300D01*
X337718Y92171D01*
X336609Y94847D01*
X334846Y97145D01*
X332548Y98908D01*
X329872Y100016D01*
X327001Y100394D01*
D02*
G37*
G36*
X478000Y105000D02*
X384000D01*
X383220Y104845D01*
X382558Y104403D01*
X382116Y103741D01*
X381961Y102961D01*
Y74961D01*
X382116Y74180D01*
X382558Y73519D01*
X383220Y73077D01*
X384000Y72922D01*
X388866D01*
X389455Y72155D01*
X390557Y71309D01*
X390126Y70039D01*
X342000Y70039D01*
X341220Y69884D01*
X340558Y69442D01*
X340116Y68780D01*
X339961Y68000D01*
X339961Y16000D01*
X340116Y15220D01*
X340558Y14558D01*
X341220Y14116D01*
X342000Y13961D01*
X355106D01*
X355784Y12691D01*
X355290Y11951D01*
X354902Y10000D01*
X355290Y8049D01*
X356395Y6395D01*
X358049Y5290D01*
X360000Y4902D01*
X361951Y5290D01*
X363605Y6395D01*
X363799Y6686D01*
X386201D01*
X386395Y6395D01*
X388049Y5290D01*
X390000Y4902D01*
X391951Y5290D01*
X393605Y6395D01*
X394710Y8049D01*
X395098Y10000D01*
X394710Y11951D01*
X394216Y12691D01*
X394894Y13961D01*
X480000Y13961D01*
X480780Y14116D01*
X481442Y14558D01*
X481884Y15220D01*
X482039Y16000D01*
X482039Y68000D01*
X481884Y68780D01*
X481442Y69442D01*
X480780Y69884D01*
X480000Y70039D01*
X475500D01*
Y71000D01*
X462500D01*
Y70039D01*
X459100D01*
Y72922D01*
X478000D01*
X478780Y73077D01*
X479442Y73519D01*
X479884Y74180D01*
X480039Y74961D01*
X480039Y102961D01*
X479884Y103741D01*
X479442Y104403D01*
X478780Y104845D01*
X478000Y105000D01*
D02*
G37*
G36*
X555601Y74995D02*
X552729Y74616D01*
X550053Y73508D01*
X547756Y71745D01*
X545992Y69447D01*
X544884Y66771D01*
X544506Y63900D01*
X544884Y61028D01*
X545992Y58352D01*
X547756Y56054D01*
X550053Y54291D01*
X552729Y53183D01*
X555601Y52805D01*
X558472Y53183D01*
X561148Y54291D01*
X563446Y56054D01*
X565209Y58352D01*
X566318Y61028D01*
X566696Y63900D01*
X566318Y66771D01*
X565209Y69447D01*
X563446Y71745D01*
X561148Y73508D01*
X558472Y74616D01*
X555601Y74995D01*
D02*
G37*
G36*
X327001D02*
X324129Y74616D01*
X321453Y73508D01*
X319156Y71745D01*
X317392Y69447D01*
X316284Y66771D01*
X315906Y63900D01*
X316284Y61028D01*
X317392Y58352D01*
X319156Y56054D01*
X321453Y54291D01*
X324129Y53183D01*
X327001Y52805D01*
X329872Y53183D01*
X332548Y54291D01*
X334846Y56054D01*
X336609Y58352D01*
X337718Y61028D01*
X338096Y63900D01*
X337718Y66771D01*
X336609Y69447D01*
X334846Y71745D01*
X332548Y73508D01*
X329872Y74616D01*
X327001Y74995D01*
D02*
G37*
G36*
X146040Y104730D02*
X141000D01*
X135960D01*
Y100328D01*
X135040Y98951D01*
X134652Y97000D01*
X135040Y95049D01*
X135162Y94867D01*
Y76250D01*
X135511Y74494D01*
X136506Y73006D01*
X152756Y56756D01*
X154244Y55761D01*
X156000Y55412D01*
X183239D01*
X183396Y55033D01*
X184975Y52975D01*
X187033Y51396D01*
X189429Y50404D01*
X192000Y50065D01*
X194571Y50404D01*
X196968Y51396D01*
X199025Y52975D01*
X200604Y55033D01*
X201596Y57429D01*
X201935Y60000D01*
X201596Y62571D01*
X200604Y64967D01*
X199025Y67025D01*
X196968Y68604D01*
X194571Y69597D01*
X192000Y69935D01*
X189429Y69597D01*
X187033Y68604D01*
X184975Y67025D01*
X183396Y64967D01*
X183239Y64588D01*
X157900D01*
X144338Y78151D01*
Y94867D01*
X144460Y95049D01*
X144848Y97000D01*
X144611Y98190D01*
X145531Y99460D01*
X146040D01*
Y104730D01*
D02*
G37*
G36*
X524540Y50540D02*
X513270D01*
Y34270D01*
X524540D01*
Y50540D01*
D02*
G37*
G36*
X510730D02*
X499460D01*
Y34270D01*
X510730D01*
Y50540D01*
D02*
G37*
G36*
X116000Y102098D02*
X114049Y101710D01*
X112395Y100605D01*
X111290Y98951D01*
X110902Y97000D01*
X111290Y95049D01*
X111412Y94867D01*
Y49171D01*
X91906Y29666D01*
X89368Y30717D01*
X86497Y31095D01*
X83625Y30717D01*
X80949Y29609D01*
X78651Y27845D01*
X76888Y25547D01*
X75780Y22872D01*
X75402Y20000D01*
X75780Y17128D01*
X76888Y14453D01*
X78651Y12155D01*
X80949Y10391D01*
X83625Y9283D01*
X86497Y8905D01*
X89368Y9283D01*
X92044Y10391D01*
X94342Y12155D01*
X96105Y14453D01*
X97213Y17128D01*
X97591Y20000D01*
X97315Y22098D01*
X119244Y44027D01*
X120239Y45515D01*
X120588Y47271D01*
Y94867D01*
X120710Y95049D01*
X121098Y97000D01*
X120710Y98951D01*
X119605Y100605D01*
X117951Y101710D01*
X116000Y102098D01*
D02*
G37*
G36*
X566601Y49500D02*
X544601D01*
Y27500D01*
X566601D01*
Y49500D01*
D02*
G37*
G36*
X338001D02*
X316001D01*
Y27500D01*
X338001D01*
Y49500D01*
D02*
G37*
G36*
X22000Y34060D02*
X20173Y33820D01*
X18470Y33115D01*
X17008Y31992D01*
X15885Y30530D01*
X15180Y28827D01*
X14940Y27000D01*
X15180Y25173D01*
X15885Y23470D01*
X17008Y22008D01*
X18470Y20886D01*
X20173Y20180D01*
X22000Y19940D01*
X23827Y20180D01*
X25530Y20886D01*
X26992Y22008D01*
X28115Y23470D01*
X28820Y25173D01*
X29060Y27000D01*
X28820Y28827D01*
X28115Y30530D01*
X26992Y31992D01*
X25530Y33115D01*
X23827Y33820D01*
X22000Y34060D01*
D02*
G37*
G36*
X524540Y31730D02*
X513270D01*
Y15460D01*
X524540D01*
Y31730D01*
D02*
G37*
G36*
X510730D02*
X499460D01*
Y15460D01*
X510730D01*
Y31730D01*
D02*
G37*
G36*
X330000Y15098D02*
X328049Y14710D01*
X326395Y13605D01*
X326201Y13314D01*
X303799D01*
X303605Y13605D01*
X301951Y14710D01*
X300000Y15098D01*
X298049Y14710D01*
X296395Y13605D01*
X295290Y11951D01*
X294902Y10000D01*
X295290Y8049D01*
X296395Y6395D01*
X298049Y5290D01*
X300000Y4902D01*
X301951Y5290D01*
X303605Y6395D01*
X303799Y6686D01*
X326201D01*
X326395Y6395D01*
X328049Y5290D01*
X330000Y4902D01*
X331951Y5290D01*
X333605Y6395D01*
X334710Y8049D01*
X335098Y10000D01*
X334710Y11951D01*
X333605Y13605D01*
X331951Y14710D01*
X330000Y15098D01*
D02*
G37*
G36*
X249897Y30999D02*
X227897D01*
Y8999D01*
X249897D01*
Y30999D01*
D02*
G37*
G36*
X137295Y31096D02*
X134424Y30718D01*
X131748Y29609D01*
X129450Y27846D01*
X127687Y25548D01*
X126579Y22872D01*
X126201Y20001D01*
X126579Y17129D01*
X127687Y14453D01*
X129450Y12156D01*
X131748Y10392D01*
X134424Y9284D01*
X137295Y8906D01*
X140167Y9284D01*
X142843Y10392D01*
X145141Y12156D01*
X146904Y14453D01*
X148012Y17129D01*
X148390Y20001D01*
X148012Y22872D01*
X146904Y25548D01*
X145141Y27846D01*
X142843Y29609D01*
X140167Y30718D01*
X137295Y31096D01*
D02*
G37*
G36*
X213497Y31094D02*
X210625Y30716D01*
X207950Y29608D01*
X205652Y27845D01*
X203889Y25547D01*
X202780Y22871D01*
X202402Y19999D01*
X202780Y17128D01*
X203889Y14452D01*
X205652Y12154D01*
X207950Y10391D01*
X210625Y9282D01*
X213497Y8904D01*
X216369Y9282D01*
X219044Y10391D01*
X221342Y12154D01*
X223106Y14452D01*
X224214Y17128D01*
X224592Y19999D01*
X224214Y22871D01*
X223106Y25547D01*
X221342Y27845D01*
X219044Y29608D01*
X216369Y30716D01*
X213497Y31094D01*
D02*
G37*
G36*
X188097D02*
X185226Y30716D01*
X182550Y29608D01*
X180252Y27845D01*
X178489Y25547D01*
X177380Y22871D01*
X177002Y19999D01*
X177380Y17128D01*
X178489Y14452D01*
X180252Y12154D01*
X182550Y10391D01*
X185226Y9282D01*
X188097Y8904D01*
X190969Y9282D01*
X193645Y10391D01*
X195942Y12154D01*
X197705Y14452D01*
X198814Y17128D01*
X199192Y19999D01*
X198814Y22871D01*
X197705Y25547D01*
X195942Y27845D01*
X193645Y29608D01*
X190969Y30716D01*
X188097Y31094D01*
D02*
G37*
G36*
X270000Y15098D02*
X268049Y14710D01*
X266395Y13605D01*
X265290Y11951D01*
X264902Y10000D01*
X265290Y8049D01*
X266395Y6395D01*
X268049Y5290D01*
X270000Y4902D01*
X271951Y5290D01*
X273605Y6395D01*
X274710Y8049D01*
X275098Y10000D01*
X274710Y11951D01*
X273605Y13605D01*
X271951Y14710D01*
X270000Y15098D01*
D02*
G37*
%LPD*%
G36*
X481000Y589351D02*
X495000Y574440D01*
X495000Y531000D01*
X466000Y531000D01*
X466000Y574440D01*
X453000Y588286D01*
X453000Y615500D01*
X481000D01*
Y589351D01*
D02*
G37*
G36*
X334941Y507733D02*
Y504040D01*
X331270D01*
Y497000D01*
X330000D01*
Y495730D01*
X322960D01*
Y489960D01*
X324553D01*
X325238Y488690D01*
X324902Y487000D01*
X325147Y485770D01*
X324246Y484500D01*
X323500D01*
Y482569D01*
X320500D01*
Y485500D01*
X319801D01*
X318995Y486482D01*
X319098Y487000D01*
X318710Y488951D01*
X318216Y489690D01*
X318895Y490960D01*
X321040D01*
Y496730D01*
X314000D01*
Y498000D01*
X312730D01*
Y505040D01*
X309059D01*
Y506733D01*
X313267Y510941D01*
X331733D01*
X334941Y507733D01*
D02*
G37*
G36*
X281977Y612977D02*
X283134Y612203D01*
X284500Y611931D01*
X404680D01*
X405500Y611001D01*
Y589001D01*
X419731D01*
Y587868D01*
X420003Y586503D01*
X420777Y585345D01*
X450141Y555980D01*
X449686Y554639D01*
X447881Y554402D01*
X445533Y553429D01*
X443517Y551883D01*
X441971Y549867D01*
X440998Y547519D01*
X440667Y545000D01*
X440998Y542481D01*
X441642Y540928D01*
X404657Y503943D01*
X403939Y502868D01*
X403686Y501600D01*
Y459078D01*
X402416Y458399D01*
X401951Y458710D01*
X400000Y459098D01*
X398049Y458710D01*
X396584Y457731D01*
X395314Y458098D01*
Y461000D01*
X395061Y462268D01*
X394343Y463343D01*
X383793Y473893D01*
X382718Y474611D01*
X381450Y474864D01*
X373850D01*
Y485350D01*
Y496450D01*
X367390D01*
Y497890D01*
X364720D01*
Y496451D01*
X364549D01*
Y492700D01*
X362180D01*
Y497890D01*
X360420D01*
Y492700D01*
X357880D01*
Y497890D01*
X356120D01*
Y492700D01*
X353580D01*
Y497890D01*
X351820D01*
Y492700D01*
X349280D01*
Y497890D01*
X346610D01*
Y496990D01*
X346070D01*
Y493050D01*
X343530D01*
Y496990D01*
X341059D01*
Y509000D01*
X341059Y509000D01*
X340826Y510171D01*
X340163Y511163D01*
X340163Y511163D01*
X335163Y516163D01*
X334171Y516826D01*
X333000Y517059D01*
X333000Y517059D01*
X312000D01*
X312000Y517059D01*
X310830Y516826D01*
X309837Y516163D01*
X309837Y516163D01*
X303837Y510163D01*
X303174Y509170D01*
X302941Y508000D01*
X302941Y508000D01*
Y504540D01*
X299270D01*
Y497500D01*
Y490460D01*
X302941D01*
Y488267D01*
X299674Y485000D01*
X291500D01*
Y472000D01*
X300197D01*
X300583Y470730D01*
X300395Y470605D01*
X299290Y468951D01*
X298902Y467000D01*
X299290Y465049D01*
X300395Y463395D01*
X302049Y462290D01*
X304000Y461902D01*
X305951Y462290D01*
X306380Y462577D01*
X307500Y461978D01*
Y460500D01*
X315814D01*
X320004Y456310D01*
X319478Y455040D01*
X315270D01*
Y449270D01*
X321040D01*
Y452863D01*
X322310Y453465D01*
X322960Y452994D01*
Y448270D01*
X330000D01*
X337040D01*
Y454040D01*
X337040Y454040D01*
X337040D01*
X337699Y455013D01*
X340216Y457530D01*
X340743Y457456D01*
X341486Y457082D01*
Y454173D01*
X339657Y452343D01*
X338939Y451268D01*
X338686Y450000D01*
Y444000D01*
X338939Y442732D01*
X339657Y441657D01*
X346657Y434657D01*
X347732Y433939D01*
X349000Y433686D01*
X370000D01*
X371268Y433939D01*
X372343Y434657D01*
X384657Y446970D01*
X385000Y446902D01*
X385576Y447017D01*
X386952Y445995D01*
X386984Y445670D01*
X372627Y431314D01*
X353000D01*
X351732Y431061D01*
X350657Y430343D01*
X340158Y419844D01*
X339439Y418769D01*
X339187Y417500D01*
Y390500D01*
X335814D01*
Y415499D01*
X335562Y416768D01*
X334844Y417843D01*
X312900Y439787D01*
X313386Y440960D01*
X321040D01*
Y446730D01*
X314000D01*
Y448000D01*
X312730D01*
Y455040D01*
X306960D01*
Y447385D01*
X305787Y446899D01*
X244314Y508372D01*
Y510162D01*
X245546Y510470D01*
X245596Y510376D01*
X247750Y507751D01*
X250376Y505596D01*
X253371Y503995D01*
X256620Y503009D01*
X260000Y502677D01*
X263380Y503009D01*
X266629Y503995D01*
X269624Y505596D01*
X272250Y507751D01*
X274404Y510376D01*
X276005Y513371D01*
X276991Y516620D01*
X277323Y520000D01*
X276991Y523380D01*
X276005Y526629D01*
X274404Y529624D01*
X272250Y532249D01*
X269624Y534404D01*
X266629Y536005D01*
X263380Y536991D01*
X260000Y537323D01*
X256620Y536991D01*
X253371Y536005D01*
X250376Y534404D01*
X247750Y532249D01*
X245596Y529624D01*
X245546Y529530D01*
X244314Y529838D01*
Y618999D01*
X249897D01*
Y639431D01*
X255522D01*
X281977Y612977D01*
D02*
G37*
G36*
X398049Y449290D02*
X400000Y448902D01*
X401951Y449290D01*
X402416Y449601D01*
X403686Y448922D01*
Y401373D01*
X388127Y385814D01*
X381001D01*
Y390500D01*
X376540D01*
Y391040D01*
X373770D01*
Y382500D01*
X371230D01*
Y391040D01*
X370814D01*
Y394020D01*
X374001D01*
Y407020D01*
X372433D01*
X371758Y408290D01*
X372098Y410000D01*
X371710Y411951D01*
X370605Y413605D01*
X368951Y414710D01*
X367000Y415098D01*
X365049Y414710D01*
X363395Y413605D01*
X362290Y411951D01*
X361902Y410000D01*
X362114Y408933D01*
X361245Y408099D01*
X360546Y408433D01*
X360310Y409621D01*
X359205Y411275D01*
X357551Y412380D01*
X356803Y412529D01*
X355710Y413049D01*
X355881Y413908D01*
X356098Y415000D01*
X355710Y416951D01*
X354605Y418605D01*
X352951Y419710D01*
X351484Y420002D01*
X350976Y421289D01*
X354373Y424686D01*
X374000D01*
X375268Y424939D01*
X376343Y425657D01*
X394343Y443657D01*
X395061Y444732D01*
X395314Y446000D01*
Y449902D01*
X396584Y450269D01*
X398049Y449290D01*
D02*
G37*
G36*
X334936Y337140D02*
Y322750D01*
X335189Y321482D01*
X335907Y320407D01*
X357926Y298387D01*
X358209Y296968D01*
X359314Y295314D01*
X360968Y294209D01*
X362919Y293821D01*
X364870Y294209D01*
X366524Y295314D01*
X367629Y296968D01*
X368017Y298919D01*
X367713Y300444D01*
X368884Y301070D01*
X374977Y294977D01*
X376134Y294203D01*
X377500Y293931D01*
X389501D01*
Y284000D01*
X388515Y283314D01*
X380733D01*
X379465Y283061D01*
X378390Y282343D01*
X375157Y279111D01*
X374439Y278036D01*
X374187Y276768D01*
Y276040D01*
X373770D01*
Y267500D01*
X371230D01*
Y276040D01*
X368461D01*
Y275500D01*
X361541D01*
Y276040D01*
X358771D01*
Y267500D01*
X356231D01*
Y276040D01*
X353461D01*
Y275500D01*
X344893D01*
X344812Y275907D01*
X344094Y276982D01*
X343195Y277880D01*
X343318Y278500D01*
X342930Y280451D01*
X341825Y282105D01*
X340172Y283210D01*
X338221Y283598D01*
X336270Y283210D01*
X335934Y282986D01*
X334814Y283584D01*
Y288288D01*
X334729Y288718D01*
X335357Y289658D01*
X335745Y291609D01*
X335357Y293560D01*
X334252Y295214D01*
X332598Y296319D01*
X330647Y296707D01*
X328696Y296319D01*
X327042Y295214D01*
X325937Y293560D01*
X325549Y291609D01*
X324435Y290696D01*
X323248Y290460D01*
X321595Y289355D01*
X320490Y287701D01*
X320302Y286758D01*
X318907Y285741D01*
X318770Y285768D01*
X316819Y285380D01*
X315165Y284275D01*
X314060Y282621D01*
X313672Y280670D01*
X314060Y278719D01*
X315165Y277065D01*
X315607Y276770D01*
X315222Y275500D01*
X299001D01*
Y267570D01*
X298937Y267250D01*
Y263623D01*
X295594Y260280D01*
X294951Y260710D01*
X293000Y261098D01*
X291049Y260710D01*
X289395Y259605D01*
X288889Y258847D01*
X287619Y259233D01*
Y264933D01*
X295343Y272657D01*
X296061Y273732D01*
X296314Y275000D01*
Y288390D01*
X296061Y289658D01*
X295343Y290733D01*
X291483Y294593D01*
X290501Y295249D01*
Y299000D01*
Y309000D01*
Y319494D01*
X291770Y320173D01*
X292122Y319939D01*
X293390Y319686D01*
X314314D01*
X315582Y319939D01*
X316657Y320657D01*
X333666Y337667D01*
X334936Y337140D01*
D02*
G37*
G36*
X247032Y297227D02*
X247976Y295815D01*
X249630Y294709D01*
X251581Y294321D01*
X252714Y294547D01*
X252854Y294407D01*
X253929Y293689D01*
X255197Y293436D01*
X257490D01*
X257682Y292527D01*
X256710Y291621D01*
X256419Y291679D01*
X254468Y291290D01*
X252815Y290185D01*
X251709Y288531D01*
X251321Y286581D01*
X251709Y284630D01*
X252815Y282976D01*
X254468Y281871D01*
X256419Y281483D01*
X257238Y281646D01*
X258001Y281020D01*
Y281020D01*
X271001D01*
Y284186D01*
X274501D01*
Y284000D01*
X276580D01*
X277246Y282730D01*
X276902Y281000D01*
X277290Y279049D01*
X278395Y277395D01*
X280049Y276290D01*
X282000Y275902D01*
X283951Y276290D01*
X285605Y277395D01*
X286710Y279049D01*
X287098Y281000D01*
X286754Y282730D01*
X287420Y284000D01*
X289686D01*
Y276373D01*
X281962Y268649D01*
X281244Y267574D01*
X280992Y266306D01*
Y256020D01*
X276001D01*
Y243655D01*
X274757Y242955D01*
X274000Y243310D01*
Y245500D01*
X261000D01*
Y232500D01*
X274000D01*
Y235431D01*
X275461D01*
Y231790D01*
X282501D01*
X289541D01*
Y235820D01*
X290523Y236477D01*
X305013Y250966D01*
X306186Y250480D01*
Y245550D01*
X304850D01*
Y228450D01*
X314150D01*
Y244888D01*
X315411Y245573D01*
X315549Y245480D01*
X317350Y245122D01*
Y228450D01*
X326650D01*
Y243584D01*
X327823Y244070D01*
X329786Y242108D01*
Y238400D01*
X329850Y238080D01*
Y228450D01*
X339150D01*
Y245550D01*
X335626D01*
X335443Y245823D01*
X322939Y258327D01*
X323425Y259500D01*
X334187D01*
Y255590D01*
X334439Y254321D01*
X335157Y253246D01*
X341805Y246599D01*
X342350Y245550D01*
X342350D01*
X342350Y245550D01*
Y228450D01*
X343686D01*
Y221550D01*
X342350D01*
Y204450D01*
X343686D01*
Y199500D01*
X340500D01*
Y186500D01*
X353500D01*
Y199500D01*
X350314D01*
Y204450D01*
X351650D01*
Y221550D01*
X350314D01*
Y228450D01*
X351650D01*
Y242005D01*
X352823Y242491D01*
X355686Y239627D01*
Y207450D01*
X355939Y206182D01*
X356657Y205107D01*
X383832Y177931D01*
Y176200D01*
X384100Y174854D01*
X384863Y173713D01*
X386004Y172950D01*
X387350Y172682D01*
X400550D01*
X401896Y172950D01*
X403037Y173713D01*
X403800Y174854D01*
X404068Y176200D01*
Y179100D01*
X403800Y180446D01*
X403037Y181587D01*
X401896Y182350D01*
X400550Y182618D01*
X388519D01*
X386974Y184162D01*
X387203Y184906D01*
X387550Y185382D01*
X400550D01*
X401896Y185650D01*
X403037Y186413D01*
X403800Y187554D01*
X404043Y188775D01*
X404120Y188790D01*
X405195Y189509D01*
X413443Y197757D01*
X414613Y197131D01*
X414491Y196517D01*
Y176195D01*
X405711Y167415D01*
X404333Y167833D01*
X404309Y167957D01*
X403427Y169277D01*
X402107Y170159D01*
X400550Y170468D01*
X395220D01*
Y164950D01*
Y159432D01*
X396069D01*
X396555Y158258D01*
X368865Y130569D01*
X334732D01*
X334300Y131839D01*
X334844Y132256D01*
X336608Y134554D01*
X337716Y137230D01*
X338094Y140101D01*
X337716Y142973D01*
X336608Y145649D01*
X334844Y147947D01*
X332547Y149710D01*
X329871Y150818D01*
X326999Y151196D01*
X324128Y150818D01*
X321452Y149710D01*
X319154Y147947D01*
X317391Y145649D01*
X316282Y142973D01*
X315904Y140101D01*
X316282Y137230D01*
X317391Y134554D01*
X319154Y132256D01*
X319698Y131839D01*
X319267Y130569D01*
X248786D01*
X248710Y130951D01*
X247605Y132605D01*
X245951Y133710D01*
X244000Y134098D01*
X242049Y133710D01*
X241584Y133399D01*
X240314Y134078D01*
Y188458D01*
X240960Y189460D01*
X241584Y189460D01*
X246730D01*
Y196500D01*
Y203540D01*
X241584D01*
X240960Y203540D01*
X240314Y204542D01*
Y208798D01*
X241500Y209000D01*
Y209000D01*
X254500D01*
Y222000D01*
X248569D01*
Y223371D01*
X248605Y223395D01*
X249710Y225049D01*
X250098Y227000D01*
X250089Y227043D01*
X251023Y227977D01*
X251797Y229134D01*
X252069Y230500D01*
Y232500D01*
X255000D01*
Y245500D01*
X242000D01*
Y232500D01*
X242000D01*
X242197Y231742D01*
X241584Y231229D01*
X240314Y231810D01*
Y292305D01*
X245642Y297633D01*
X247032Y297227D01*
D02*
G37*
%LPC*%
G36*
X321040Y505040D02*
X315270D01*
Y499270D01*
X321040D01*
Y505040D01*
D02*
G37*
G36*
X328730Y504040D02*
X322960D01*
Y498270D01*
X328730D01*
Y504040D01*
D02*
G37*
G36*
X320000Y567060D02*
X318173Y566820D01*
X316470Y566114D01*
X315007Y564992D01*
X313885Y563530D01*
X313180Y561827D01*
X312940Y560000D01*
X313180Y558173D01*
X313885Y556470D01*
X315007Y555008D01*
X316470Y553885D01*
X318173Y553180D01*
X320000Y552940D01*
X321827Y553180D01*
X323530Y553885D01*
X324992Y555008D01*
X326115Y556470D01*
X326820Y558173D01*
X327060Y560000D01*
X326820Y561827D01*
X326115Y563530D01*
X324992Y564992D01*
X323530Y566114D01*
X321827Y566820D01*
X320000Y567060D01*
D02*
G37*
G36*
X400000Y567323D02*
X396620Y566991D01*
X393371Y566005D01*
X390376Y564404D01*
X387751Y562249D01*
X385596Y559624D01*
X383995Y556629D01*
X383009Y553380D01*
X382677Y550000D01*
X383009Y546620D01*
X383995Y543371D01*
X385596Y540376D01*
X387751Y537751D01*
X390376Y535596D01*
X393371Y533995D01*
X396620Y533009D01*
X400000Y532677D01*
X403380Y533009D01*
X406629Y533995D01*
X409624Y535596D01*
X412249Y537751D01*
X414404Y540376D01*
X416005Y543371D01*
X416991Y546620D01*
X417323Y550000D01*
X416991Y553380D01*
X416005Y556629D01*
X414404Y559624D01*
X412249Y562249D01*
X409624Y564404D01*
X406629Y566005D01*
X403380Y566991D01*
X400000Y567323D01*
D02*
G37*
G36*
X296730Y504540D02*
X290960D01*
Y498770D01*
X296730D01*
Y504540D01*
D02*
G37*
G36*
Y496230D02*
X290960D01*
Y490460D01*
X296730D01*
Y496230D01*
D02*
G37*
G36*
X337040Y445730D02*
X331270D01*
Y439960D01*
X337040D01*
Y445730D01*
D02*
G37*
G36*
X328730D02*
X322960D01*
Y439960D01*
X328730D01*
Y445730D01*
D02*
G37*
G36*
X393541Y407560D02*
X387771D01*
Y401790D01*
X393541D01*
Y407560D01*
D02*
G37*
G36*
X385231D02*
X379461D01*
Y401790D01*
X385231D01*
Y407560D01*
D02*
G37*
G36*
X393541Y399250D02*
X387771D01*
Y393480D01*
X393541D01*
Y399250D01*
D02*
G37*
G36*
X385231D02*
X379461D01*
Y393480D01*
X385231D01*
Y399250D01*
D02*
G37*
G36*
X271541Y275560D02*
X265770D01*
Y269790D01*
X271541D01*
Y275560D01*
D02*
G37*
G36*
X263230D02*
X257461D01*
Y269790D01*
X263230D01*
Y275560D01*
D02*
G37*
G36*
X271541Y267250D02*
X265770D01*
Y261480D01*
X271541D01*
Y267250D01*
D02*
G37*
G36*
X263230D02*
X257461D01*
Y261480D01*
X263230D01*
Y267250D01*
D02*
G37*
G36*
X289541Y229250D02*
X283771D01*
Y223480D01*
X289541D01*
Y229250D01*
D02*
G37*
G36*
X281231D02*
X275461D01*
Y223480D01*
X281231D01*
Y229250D01*
D02*
G37*
G36*
X314150Y221550D02*
X304850D01*
Y218520D01*
X303580Y217784D01*
X302000Y218098D01*
X300049Y217710D01*
X298395Y216605D01*
X297290Y214951D01*
X296902Y213000D01*
X297290Y211049D01*
X298395Y209395D01*
X300049Y208290D01*
X302000Y207902D01*
X303580Y208216D01*
X304850Y207480D01*
Y204450D01*
X305931D01*
Y199500D01*
X303500D01*
Y186500D01*
X304199D01*
X305005Y185518D01*
X304902Y185000D01*
X305290Y183049D01*
X306395Y181395D01*
X308049Y180290D01*
X310000Y179902D01*
X311951Y180290D01*
X313605Y181395D01*
X314710Y183049D01*
X315098Y185000D01*
X314995Y185518D01*
X315800Y186500D01*
X316500D01*
Y189431D01*
X321500D01*
Y186500D01*
X322200D01*
X323005Y185518D01*
X322902Y185000D01*
X323290Y183049D01*
X324395Y181395D01*
X326049Y180290D01*
X328000Y179902D01*
X329951Y180290D01*
X331605Y181395D01*
X332710Y183049D01*
X333098Y185000D01*
X332995Y185518D01*
X333801Y186500D01*
X334500D01*
Y199500D01*
X321500D01*
Y196569D01*
X316500D01*
Y199500D01*
X313069D01*
Y204450D01*
X314150D01*
Y221550D01*
D02*
G37*
G36*
X339690Y222090D02*
X335770D01*
Y214270D01*
X339690D01*
Y222090D01*
D02*
G37*
G36*
X333230D02*
X329310D01*
Y214270D01*
X333230D01*
Y222090D01*
D02*
G37*
G36*
X327190D02*
X323270D01*
Y214270D01*
X327190D01*
Y222090D01*
D02*
G37*
G36*
X320730D02*
X316810D01*
Y214270D01*
X320730D01*
Y222090D01*
D02*
G37*
G36*
X339690Y211730D02*
X335770D01*
Y203910D01*
X339690D01*
Y211730D01*
D02*
G37*
G36*
X333230D02*
X329310D01*
Y203910D01*
X333230D01*
Y211730D01*
D02*
G37*
G36*
X327190Y211730D02*
X323270D01*
Y203910D01*
X327190D01*
Y211730D01*
D02*
G37*
G36*
X320730D02*
X316810D01*
Y203910D01*
X320730D01*
Y211730D01*
D02*
G37*
G36*
X249270Y203540D02*
Y197770D01*
X255040D01*
Y203540D01*
X249270D01*
D02*
G37*
G36*
X298040Y200040D02*
X292270D01*
Y194270D01*
X298040D01*
Y200040D01*
D02*
G37*
G36*
X289730D02*
X283960D01*
Y194270D01*
X289730D01*
Y200040D01*
D02*
G37*
G36*
X255040Y195230D02*
X249270D01*
Y189460D01*
X255040D01*
Y195230D01*
D02*
G37*
G36*
X298040Y191730D02*
X292270D01*
Y185960D01*
X298040D01*
Y191730D01*
D02*
G37*
G36*
X289730D02*
X283960D01*
Y185960D01*
X289730D01*
Y191730D01*
D02*
G37*
G36*
X392680Y170468D02*
X387350D01*
X385793Y170159D01*
X384473Y169277D01*
X383591Y167957D01*
X383282Y166400D01*
Y166220D01*
X392680D01*
Y170468D01*
D02*
G37*
G36*
Y163680D02*
X383282D01*
Y163500D01*
X383591Y161943D01*
X384473Y160623D01*
X385793Y159741D01*
X387350Y159432D01*
X392680D01*
Y163680D01*
D02*
G37*
G36*
X260000Y167323D02*
X256620Y166991D01*
X253371Y166005D01*
X250376Y164404D01*
X247750Y162250D01*
X245596Y159624D01*
X243995Y156629D01*
X243009Y153380D01*
X242677Y150000D01*
X243009Y146620D01*
X243995Y143371D01*
X245596Y140376D01*
X247750Y137751D01*
X250376Y135596D01*
X253371Y133995D01*
X256620Y133010D01*
X260000Y132677D01*
X263380Y133010D01*
X266629Y133995D01*
X269624Y135596D01*
X272250Y137751D01*
X274404Y140376D01*
X276005Y143371D01*
X276991Y146620D01*
X277323Y150000D01*
X276991Y153380D01*
X276005Y156629D01*
X274404Y159624D01*
X272250Y162250D01*
X269624Y164404D01*
X266629Y166005D01*
X263380Y166991D01*
X260000Y167323D01*
D02*
G37*
%LPD*%
G36*
X478000Y74961D02*
X433662D01*
X432956Y76017D01*
X433417Y77128D01*
X433795Y80000D01*
X433417Y82872D01*
X432309Y85547D01*
X430545Y87845D01*
X428247Y89608D01*
X425572Y90717D01*
X422700Y91095D01*
X419828Y90717D01*
X417152Y89608D01*
X414855Y87845D01*
X413092Y85547D01*
X411983Y82872D01*
X411605Y80000D01*
X411983Y77128D01*
X412444Y76017D01*
X411738Y74961D01*
X384000D01*
Y102961D01*
X478000D01*
X478000Y74961D01*
D02*
G37*
G36*
X425039Y88730D02*
X427219Y87827D01*
X429091Y86391D01*
X430527Y84519D01*
X431430Y82339D01*
X431738Y80000D01*
X431430Y77661D01*
X431072Y76797D01*
X431033Y76600D01*
X430956Y76415D01*
Y76214D01*
X430917Y76017D01*
X430956Y75820D01*
Y75619D01*
X431033Y75433D01*
X431072Y75236D01*
X431184Y75069D01*
X431261Y74884D01*
X431966Y73828D01*
X432108Y73686D01*
X432220Y73519D01*
X432387Y73407D01*
X432529Y73265D01*
X432715Y73188D01*
X432882Y73077D01*
X433078Y73038D01*
X433264Y72961D01*
X433465D01*
X433662Y72922D01*
X437100D01*
Y70039D01*
X404474Y70039D01*
X404043Y71309D01*
X405145Y72155D01*
X405734Y72922D01*
X411738D01*
X411935Y72961D01*
X412136D01*
X412322Y73038D01*
X412518Y73077D01*
X412685Y73188D01*
X412871Y73265D01*
X413013Y73407D01*
X413180Y73519D01*
X413292Y73686D01*
X413434Y73828D01*
X414139Y74884D01*
X414216Y75069D01*
X414328Y75236D01*
X414367Y75433D01*
X414444Y75619D01*
Y75820D01*
X414483Y76017D01*
X414444Y76214D01*
Y76415D01*
X414367Y76600D01*
X414328Y76797D01*
X413970Y77661D01*
X413662Y80000D01*
X413970Y82339D01*
X414873Y84519D01*
X416309Y86391D01*
X418181Y87827D01*
X420361Y88730D01*
X422700Y89038D01*
X425039Y88730D01*
D02*
G37*
G36*
X480000Y68000D02*
X480000Y16000D01*
X342000Y16000D01*
X342000Y68000D01*
X480000Y68000D01*
D02*
G37*
D10*
X296000Y479000D02*
X298000D01*
X306000Y487000D01*
Y508000D01*
X312000Y514000D02*
X333000D01*
X306000Y508000D02*
X312000Y514000D01*
X333000D02*
X338000Y509000D01*
Y483000D02*
Y509000D01*
Y483000D02*
X340679Y480321D01*
X354850Y463300D02*
Y469850D01*
X361000Y476000D01*
X344800Y475850D02*
X351850D01*
X352000Y476000D01*
X332150Y475850D02*
X344800D01*
X330000Y478000D02*
X332150Y475850D01*
X344629Y480321D02*
X344800Y480150D01*
X340679Y480321D02*
X344629D01*
X344800Y471550D02*
Y475850D01*
D11*
X248000Y196500D02*
Y206000D01*
X372501Y259501D02*
X379001Y253001D01*
X296250Y498000D02*
X299000Y500750D01*
X262000Y368000D02*
X263000Y369000D01*
X190000Y257000D02*
Y284053D01*
X218000Y200000D02*
Y260000D01*
X302251Y267250D02*
X302501Y267500D01*
X293000Y256000D02*
X293670Y256670D01*
X302251Y262251D02*
Y267250D01*
X296670Y256670D02*
X302251Y262251D01*
X293670Y256670D02*
X296670D01*
X284305Y251325D02*
Y266306D01*
X293000Y275000D02*
Y288390D01*
X284305Y266306D02*
X293000Y275000D01*
X282501Y249520D02*
X284305Y251325D01*
X289140Y292250D02*
X293000Y288390D01*
X312500Y256621D02*
Y267500D01*
X309500Y237000D02*
Y253620D01*
X312500Y256621D01*
X321855Y237146D02*
X322000Y237000D01*
X317500Y250190D02*
X321855Y245835D01*
Y237146D02*
Y245835D01*
X101501Y113000D02*
X190000D01*
X84255Y130246D02*
X101501Y113000D01*
X104922Y228600D02*
X106322Y230000D01*
X227000Y125000D02*
Y296000D01*
X248500Y317500D02*
X282501D01*
X227000Y296000D02*
X248500Y317500D01*
X222000Y90000D02*
X237000Y105000D01*
Y293678D01*
X192000Y90000D02*
X227000Y125000D01*
X337751Y376785D02*
Y382250D01*
X422190Y362500D02*
X450400Y390710D01*
X311000Y331000D02*
X319950Y339950D01*
X290997Y331050D02*
X295047Y327000D01*
X325199Y285352D02*
X327500Y283050D01*
X347500Y411501D02*
X351000Y415000D01*
X282750Y347250D02*
X289140D01*
X252528Y299419D02*
X255197Y296750D01*
X352500Y404571D02*
X355600Y407670D01*
X332000Y340686D02*
Y351000D01*
X357251Y267750D02*
X357501Y267500D01*
X450400Y390710D02*
Y480000D01*
X383540Y341630D02*
X387670Y337500D01*
X292654Y335050D02*
X296703Y331000D01*
X282501Y282177D02*
Y287500D01*
X331501Y276381D02*
Y288288D01*
X341750Y268250D02*
X342501Y267500D01*
X384216Y353060D02*
X384776Y352500D01*
X282501Y337500D02*
X282750Y337250D01*
X382270Y317500D02*
X397501D01*
X362081Y298919D02*
X362919D01*
X312500Y382500D02*
X312654Y382346D01*
X290227Y337250D02*
X292427Y335050D01*
X255197Y296750D02*
X281751D01*
X330647Y291609D02*
X331316Y290939D01*
X332251Y267750D02*
X332501Y267500D01*
X397501Y322500D02*
X409020D01*
X297750Y357250D02*
X307329Y347671D01*
X289140Y347250D02*
X291251Y345139D01*
X377500Y267500D02*
Y276768D01*
X337500Y382500D02*
X337751Y382250D01*
X397501Y357500D02*
X448950D01*
X296703Y331000D02*
X311000D01*
X289340Y327050D02*
X293390Y323000D01*
X325199Y285352D02*
Y285750D01*
X347500Y382500D02*
Y411501D01*
X307329Y345670D02*
Y347671D01*
X352500Y382500D02*
Y404571D01*
X351790Y365760D02*
X357501Y371471D01*
X314314Y323000D02*
X332000Y340686D01*
X357501Y371471D02*
Y382500D01*
X382270Y332740D02*
X382510Y332500D01*
X312654Y368842D02*
X312808Y368688D01*
X285750Y327250D02*
X285950Y327050D01*
X331501Y276381D02*
X332251Y275631D01*
X353001Y278999D02*
X357000Y275000D01*
X384776Y352500D02*
X397501D01*
X307329Y345670D02*
X307999Y345000D01*
X372110Y341630D02*
X383540D01*
X338250Y322750D02*
X362081Y298919D01*
X285000Y332000D02*
X289820D01*
X282000Y281677D02*
X282501Y282177D01*
X331316Y288472D02*
X331501Y288288D01*
X341750Y268250D02*
Y274639D01*
X337751Y376785D02*
X338250Y376286D01*
X362500Y370289D02*
Y382500D01*
X397501Y362500D02*
X422190D01*
X290771Y331050D02*
X290997D01*
X323950Y338293D02*
Y354003D01*
X327500Y267500D02*
Y283050D01*
X357000Y275000D02*
X357251D01*
X302501Y382500D02*
Y383998D01*
X282501Y347500D02*
X282750Y347250D01*
X251581Y299419D02*
X252528D01*
X387670Y337500D02*
X397501D01*
X297248Y384248D02*
X302251D01*
X292427Y335050D02*
X292654D01*
X282000Y281000D02*
Y281677D01*
X338221Y278169D02*
X341750Y274639D01*
X338221Y278169D02*
Y278500D01*
X257589Y323750D02*
X272750D01*
X383540Y353060D02*
X384216D01*
X319950Y363950D02*
X319999Y363999D01*
X293390Y323000D02*
X314314D01*
X409020Y322500D02*
X412750Y318770D01*
X282750Y352250D02*
X291803D01*
X295047Y327000D02*
X312657D01*
X274000Y322500D02*
X282501D01*
X338250Y322750D02*
Y376286D01*
X319950Y339950D02*
Y363950D01*
X289820Y332000D02*
X290771Y331050D01*
X331316Y288472D02*
Y290939D01*
X357251Y267750D02*
Y275000D01*
X382510Y332500D02*
X397501D01*
X312654Y368842D02*
Y382346D01*
X285950Y327050D02*
X289340D01*
X332251Y267750D02*
Y275631D01*
X346999Y278999D02*
X353001D01*
X323950Y354003D02*
X326999Y357052D01*
X272750Y323750D02*
X274000Y322500D01*
X294054Y349999D02*
X295999D01*
X291251Y345092D02*
X295000Y341343D01*
X380733Y280000D02*
X393000D01*
X362500Y370289D02*
X367030Y365760D01*
X322500Y267500D02*
Y276940D01*
X448950Y357500D02*
X457200Y349250D01*
X312657Y327000D02*
X323950Y338293D01*
X291803Y352250D02*
X294054Y349999D01*
X291251Y345092D02*
Y345139D01*
X377500Y276768D02*
X380733Y280000D01*
X282501Y352500D02*
X282750Y352250D01*
X302251Y384248D02*
X302501Y383998D01*
X326999Y357052D02*
Y357999D01*
X318770Y280670D02*
X322500Y276940D01*
X282750Y357250D02*
X297750D01*
X281751Y296750D02*
X282501Y297500D01*
X295000Y341316D02*
Y341343D01*
Y341316D02*
X295016Y341300D01*
X282750Y337250D02*
X290227D01*
X126000Y449000D02*
X140390D01*
X156210Y464820D01*
X165180D02*
X179000Y451000D01*
X156210Y464820D02*
X165180D01*
X84255Y130246D02*
Y151570D01*
X76522Y159303D02*
X84255Y151570D01*
X76522Y159303D02*
Y160100D01*
X190000Y284053D02*
X191000Y285053D01*
Y286000D01*
X171657Y296000D02*
X172000D01*
X218500Y342500D02*
X282501D01*
X172000Y296000D02*
X218500Y342500D01*
X104922Y283400D02*
X106522Y285000D01*
X155000D02*
X219830Y349830D01*
X106522Y285000D02*
X155000D01*
X131657Y256000D02*
X171657Y296000D01*
X104922Y256000D02*
X131657D01*
X253000Y348750D02*
Y375500D01*
X191000Y368000D02*
X191419Y368419D01*
X191000Y346000D02*
Y368000D01*
X219830Y349830D02*
X231080D01*
X243000Y361750D01*
X159336Y337000D02*
X193000D01*
X218952Y362952D01*
X227252D02*
X227500Y363200D01*
X218952Y362952D02*
X227252D01*
X173000Y344000D02*
Y350500D01*
X76522Y340821D02*
X131571Y395870D01*
X76522Y324500D02*
Y340821D01*
X131571Y395870D02*
X148960D01*
X104922Y310800D02*
X117800D01*
X142000Y335000D02*
X142000D01*
X117800Y310800D02*
X142000Y335000D01*
X156210Y349210D02*
Y363220D01*
X142000Y335000D02*
X156210Y349210D01*
X159331Y336996D02*
X159336Y337000D01*
X97799Y349200D02*
X130800D01*
X97000Y349999D02*
X97799Y349200D01*
X148960Y395870D02*
X156210Y388620D01*
X302501Y383998D02*
Y386035D01*
X256419Y286581D02*
X263561D01*
X264501Y287520D01*
X244500Y384000D02*
X253000Y375500D01*
X299000Y500750D02*
Y508000D01*
X296000Y498000D02*
X296250D01*
X237000Y293678D02*
X255822Y312500D01*
X282501D01*
X42000Y432000D02*
X109000D01*
X18000Y408000D02*
X42000Y432000D01*
X263500Y384000D02*
X270500Y377000D01*
X274000D01*
X106630Y569870D02*
X113000Y563500D01*
X85130Y569870D02*
X106630D01*
X84000Y571000D02*
X85130Y569870D01*
X265000Y419000D02*
X265046Y418954D01*
Y409975D02*
Y418954D01*
Y409975D02*
X272500Y402520D01*
X440000Y198839D02*
Y208000D01*
X464524Y166476D02*
X466050Y164950D01*
X429698Y198963D02*
X430367Y199633D01*
X429698Y194302D02*
Y198963D01*
X440000Y198839D02*
X460250Y178589D01*
X457523Y166476D02*
X464524D01*
X429698Y194302D02*
X457523Y166476D01*
X413000Y202000D02*
Y229750D01*
X402852Y191852D02*
X413000Y202000D01*
X460250Y178300D02*
X460900Y177650D01*
X393950Y190350D02*
X395452Y191852D01*
X460250Y178300D02*
Y178589D01*
X460900Y177650D02*
X466050D01*
X395452Y191852D02*
X402852D01*
X455000Y251458D02*
X455458Y251000D01*
X455000Y251458D02*
Y260000D01*
X436880Y252942D02*
Y266700D01*
X427480Y268520D02*
X428000Y268000D01*
X434021Y307500D02*
X470500Y271020D01*
X493500Y181000D02*
X495000Y182500D01*
X466050Y190350D02*
X471200D01*
X480550Y181000D01*
X493500D01*
X389321Y204685D02*
Y223179D01*
X390955Y203050D02*
X393950D01*
X389321Y204685D02*
X390955Y203050D01*
X385250Y227250D02*
X389321Y223179D01*
X359000Y207450D02*
X388800Y177650D01*
X347500Y252499D02*
X359000Y241000D01*
Y207450D02*
Y241000D01*
X347500Y252499D02*
Y267500D01*
X352500Y259499D02*
Y267500D01*
Y259499D02*
X384750Y227250D01*
X385250D01*
X388800Y177650D02*
X393950D01*
X368000Y227350D02*
Y233000D01*
X385000Y238000D02*
Y241875D01*
X380125Y246750D02*
X385000Y241875D01*
X376000Y250000D02*
X379250Y246750D01*
X380125D01*
X172996Y363204D02*
X173000Y363200D01*
X156226Y363204D02*
X172996D01*
X156210Y363220D02*
X156226Y363204D01*
X241914Y401300D02*
X246133Y397081D01*
X235081Y409081D02*
Y409875D01*
X246133Y397081D02*
X247081D01*
X275161Y369000D02*
X275306Y368855D01*
X227500Y414000D02*
X230956D01*
X263000Y369000D02*
X275161D01*
X227500Y401300D02*
X241914D01*
X230956Y414000D02*
X235081Y409875D01*
X227500Y401300D02*
Y414000D01*
X154555Y447555D02*
X156000Y449000D01*
X177820Y426700D02*
X188225Y416296D01*
X188055Y414055D02*
X188225Y414225D01*
Y416296D01*
X282750Y292250D02*
X289140D01*
X282501Y292500D02*
X282750Y292250D01*
X255000Y268000D02*
X263981D01*
X264501Y268520D01*
X291000Y205000D02*
X291000Y205000D01*
X291000Y193000D02*
Y205000D01*
X334500Y203500D02*
X338000Y200000D01*
X334500Y203500D02*
Y213000D01*
X322000Y203000D02*
Y213000D01*
X319000Y200000D02*
X322000Y203000D01*
X137210Y355210D02*
Y363220D01*
X137000Y355000D02*
X137210Y355210D01*
X243000Y367500D02*
X243500Y368000D01*
X243000Y361750D02*
Y367500D01*
X242215Y381715D02*
X244500Y384000D01*
X237715Y381715D02*
X242215D01*
X227500Y375900D02*
X231900D01*
X237715Y381715D01*
X342501Y382500D02*
Y417500D01*
X353000Y428000D02*
X374000D01*
X342501Y417500D02*
X353000Y428000D01*
X374000D02*
X392000Y446000D01*
X381450Y471550D02*
X392000Y461000D01*
Y446000D02*
Y461000D01*
X235000Y505000D02*
Y608496D01*
X230748Y612748D02*
X235000Y608496D01*
X215000Y535000D02*
X223000Y527000D01*
Y501000D02*
Y527000D01*
X229000Y503000D02*
Y589000D01*
X223000Y595000D02*
X229000Y589000D01*
Y503000D02*
X322500Y409499D01*
X389500Y382500D02*
X407000Y400000D01*
Y501600D02*
X450400Y545000D01*
X407000Y400000D02*
Y501600D01*
X377500Y382500D02*
X389500D01*
X300000Y10000D02*
X330000D01*
X360000D02*
X390000D01*
X290000Y640000D02*
X330000D01*
X370000D02*
X410000D01*
X450000D02*
X490000D01*
X560000Y600000D02*
Y640000D01*
Y520000D02*
Y560000D01*
X561340Y392016D02*
Y406400D01*
X560000Y390676D02*
X561340Y392016D01*
X560000Y390000D02*
Y390676D01*
X386501Y400520D02*
Y408823D01*
X386000Y409324D02*
X386501Y408823D01*
X386000Y409324D02*
Y410000D01*
X272500Y419000D02*
X272553Y419053D01*
Y427553D01*
X273000Y428000D01*
X262840Y430160D02*
X263000Y430000D01*
X262840Y430160D02*
Y439420D01*
X137000Y429000D02*
X137210Y429210D01*
Y439420D01*
X291021Y403000D02*
X291501Y402520D01*
X283000Y403000D02*
X291021D01*
X302251Y386286D02*
X302501Y386035D01*
X298715Y386286D02*
X302251D01*
X291501Y393500D02*
X298715Y386286D01*
X291501Y393500D02*
Y402520D01*
X367501Y382500D02*
Y400520D01*
X359000Y400000D02*
X366981D01*
X367501Y400520D01*
X367000Y410000D02*
X367501Y409499D01*
Y400520D02*
Y409499D01*
X436000Y339000D02*
X437500Y340501D01*
Y347520D01*
X418501Y339499D02*
X419000Y339000D01*
X418501Y339499D02*
Y347520D01*
X437500D01*
X417501Y287520D02*
Y295824D01*
X418000Y296324D01*
Y297000D01*
X417501Y287520D02*
X425804D01*
X426324Y287000D01*
X427000D01*
X397501Y287500D02*
X417481D01*
X417501Y287520D01*
X264520Y287500D02*
X282501D01*
X264501Y287520D02*
X264520Y287500D01*
X173000Y434464D02*
Y439400D01*
X163000Y433000D02*
X171535D01*
X173000Y434464D01*
X156000Y449000D02*
X167200D01*
X173000Y439400D02*
Y443200D01*
X167200Y449000D02*
X173000Y443200D01*
X156210Y439420D02*
X162630Y433000D01*
X163000D01*
X314000Y448000D02*
Y456000D01*
X330000Y439619D02*
Y447000D01*
Y439619D02*
X332000Y437619D01*
Y437000D02*
Y437619D01*
X330000Y497000D02*
Y507000D01*
X314000Y498000D02*
Y507000D01*
Y467000D02*
X325000Y456000D01*
X334000D01*
X338000Y460000D01*
Y465000D01*
X340250Y467250D02*
X344800D01*
X338000Y465000D02*
X340250Y467250D01*
X238897Y629999D02*
X241000Y627896D01*
Y507000D02*
Y627896D01*
Y507000D02*
X332501Y415499D01*
Y382500D02*
Y415499D01*
X327500Y382500D02*
Y412500D01*
X235000Y505000D02*
X327500Y412500D01*
X322500Y382500D02*
Y409499D01*
X317501Y382500D02*
Y406499D01*
X223000Y501000D02*
X317501Y406499D01*
X291500Y419000D02*
X307501Y402999D01*
Y382500D02*
Y402999D01*
X214000Y401960D02*
Y502000D01*
X187940Y375900D02*
X214000Y401960D01*
X206000Y510000D02*
X214000Y502000D01*
X207010Y422910D02*
Y491990D01*
X206759Y492241D02*
X207010Y491990D01*
X147000Y413000D02*
X147676D01*
X155847Y413657D02*
X156210Y414020D01*
X148333Y413657D02*
X155847D01*
X147676Y413000D02*
X148333Y413657D01*
X137210Y405210D02*
Y414020D01*
X137000Y405000D02*
X137210Y405210D01*
X370000Y437000D02*
X385000Y452000D01*
X349000Y437000D02*
X370000D01*
X342000Y444000D02*
Y450000D01*
Y444000D02*
X349000Y437000D01*
X344800Y452800D02*
Y462950D01*
X342000Y450000D02*
X344800Y452800D01*
X369200Y471550D02*
X381450D01*
X397501Y347500D02*
X418481D01*
X418501Y347520D01*
X137067Y388477D02*
X137210Y388620D01*
X137067Y380067D02*
Y388477D01*
X137000Y380000D02*
X137067Y380067D01*
X397501Y342500D02*
X397751Y342250D01*
X404771D01*
X418501Y328520D01*
X469000Y395000D02*
X469501Y394500D01*
Y385020D02*
Y394500D01*
X447480Y328520D02*
X448000Y328000D01*
X437500Y328520D02*
X447480D01*
X427579D02*
X427976Y328123D01*
X418501Y328520D02*
X427579D01*
X470468Y290053D02*
X470500Y290020D01*
X470468Y290053D02*
Y298573D01*
X470001Y299040D02*
X470468Y298573D01*
X372501Y259501D02*
Y267500D01*
X417501Y268520D02*
X427480D01*
X322000Y213000D02*
X334500D01*
X282501Y220499D02*
X283000Y220000D01*
X282501Y220499D02*
Y230520D01*
X351450Y484450D02*
X352000Y485000D01*
X344800Y484450D02*
X351450D01*
X363000Y501000D02*
X363450Y500550D01*
Y492700D02*
Y500550D01*
X354850Y500850D02*
X355000Y501000D01*
X354850Y492700D02*
Y500850D01*
X344150Y493050D02*
X344800D01*
X344000Y493200D02*
X344150Y493050D01*
X344000Y493200D02*
Y501000D01*
X344800Y493050D02*
X344950Y492900D01*
X350400D01*
X350550Y492750D01*
Y492700D02*
Y492750D01*
X344800Y488750D02*
Y493050D01*
Y484450D02*
Y488750D01*
X359150Y492700D02*
X363450D01*
X354850D02*
X359150D01*
X350550D02*
X354850D01*
X385981Y400000D02*
X386501Y400520D01*
X381000Y400000D02*
X385981D01*
X372501Y391501D02*
X381000Y400000D01*
X372501Y382500D02*
Y391501D01*
X394480Y400520D02*
X395000Y400000D01*
X386501Y400520D02*
X394480D01*
X561000Y425000D02*
X561340Y425340D01*
Y433070D01*
Y450340D02*
Y459740D01*
X561000Y450000D02*
X561340Y450340D01*
X86497Y630000D02*
X146000Y570497D01*
Y570000D02*
Y570497D01*
X495300Y459740D02*
X512340D01*
X495300Y433070D02*
X512340D01*
X495300Y406400D02*
X512340D01*
X203200Y381000D02*
X210800Y388600D01*
X227500D01*
X173000Y426700D02*
X177820D01*
X185400Y401300D02*
X207010Y422910D01*
X173000Y375900D02*
X187940D01*
X173000Y401300D02*
X185400D01*
X137160Y629865D02*
X137295Y630001D01*
X378460Y459740D02*
Y464820D01*
X369200Y467250D02*
X376030D01*
X378460Y464820D01*
X350520Y463270D02*
X350550Y463300D01*
X350520Y448310D02*
Y463270D01*
X369050Y463100D02*
X369200Y462950D01*
X363600Y463100D02*
X369050D01*
X363450Y463250D02*
X363600Y463100D01*
X363450Y463250D02*
Y463300D01*
X369200Y462950D02*
X369420D01*
X369570Y462800D01*
Y449580D02*
Y462800D01*
X359150Y449840D02*
Y463300D01*
Y449840D02*
X359410Y449580D01*
X531340Y406400D02*
X546340D01*
X531340Y433070D02*
X546340D01*
X531340Y459740D02*
X546340D01*
X469501Y336151D02*
Y366020D01*
X445850Y312500D02*
X469501Y336151D01*
X397501Y312500D02*
X445850D01*
X469501Y366020D02*
X505793D01*
X469501Y366020D02*
X469501Y366020D01*
X470500Y271020D02*
X505793D01*
X505793Y271020D01*
X397501Y307500D02*
X434021D01*
X347000Y193000D02*
Y213000D01*
Y237000D01*
X333100Y238400D02*
Y243480D01*
Y238400D02*
X334500Y237000D01*
X317750Y258829D02*
X333100Y243480D01*
X317750Y258829D02*
Y267250D01*
X317501Y267500D02*
X317750Y267250D01*
X337500Y255590D02*
Y267500D01*
X347000Y237000D02*
Y246090D01*
X337500Y255590D02*
X347000Y246090D01*
X156210Y414020D02*
X172980D01*
X173000Y414000D01*
X156210Y388620D02*
X172980D01*
X173000Y388600D01*
D15*
X248500Y239000D02*
D03*
X267500D02*
D03*
X388500Y224000D02*
D03*
X369500D02*
D03*
X291501Y402520D02*
D03*
X272500D02*
D03*
X291500Y419000D02*
D03*
X272500D02*
D03*
X455500Y233958D02*
D03*
X436500D02*
D03*
X436458Y251000D02*
D03*
X455458D02*
D03*
X512340Y406400D02*
D03*
X531340D02*
D03*
X512340Y433070D02*
D03*
X531340D02*
D03*
X512340Y459740D02*
D03*
X531340D02*
D03*
X367501Y400520D02*
D03*
X386501D02*
D03*
X395000Y250000D02*
D03*
X376000D02*
D03*
X156210Y439420D02*
D03*
X137210D02*
D03*
X310000Y193000D02*
D03*
X291000D02*
D03*
X328000Y193000D02*
D03*
X347000D02*
D03*
X137210Y464820D02*
D03*
X156210D02*
D03*
X137210Y414020D02*
D03*
X156210D02*
D03*
X243840Y439420D02*
D03*
X262840D02*
D03*
X156210Y388620D02*
D03*
X137210D02*
D03*
X156210Y363220D02*
D03*
X137210D02*
D03*
X243500Y368000D02*
D03*
X262500D02*
D03*
X244500Y384000D02*
D03*
X263500D02*
D03*
D16*
X175000Y229000D02*
D03*
Y149000D02*
D03*
D17*
X248000Y196500D02*
D03*
Y215500D02*
D03*
X469000Y83500D02*
D03*
Y64500D02*
D03*
X495000Y182500D02*
D03*
Y201500D02*
D03*
X298000Y497500D02*
D03*
Y478500D02*
D03*
X330000Y466000D02*
D03*
Y447000D02*
D03*
X418501Y347520D02*
D03*
Y328520D02*
D03*
X437500Y347520D02*
D03*
Y328520D02*
D03*
X470500Y290020D02*
D03*
Y271020D02*
D03*
X469501Y385020D02*
D03*
Y366020D02*
D03*
X282501Y249520D02*
D03*
Y230520D02*
D03*
X264501Y287520D02*
D03*
Y268520D02*
D03*
X417501Y287520D02*
D03*
Y268520D02*
D03*
X314000Y467000D02*
D03*
Y448000D02*
D03*
Y479000D02*
D03*
Y498000D02*
D03*
X330000Y478000D02*
D03*
Y497000D02*
D03*
D18*
X141000Y106000D02*
D03*
Y128000D02*
D03*
D19*
X377500Y267500D02*
D03*
X372501D02*
D03*
X367501D02*
D03*
X362500D02*
D03*
X357501D02*
D03*
X352500D02*
D03*
X347500D02*
D03*
X342501D02*
D03*
X337500D02*
D03*
X332501D02*
D03*
X327500D02*
D03*
X322500D02*
D03*
X317501D02*
D03*
X312500D02*
D03*
X307501D02*
D03*
X302501D02*
D03*
Y382500D02*
D03*
X307501D02*
D03*
X312500D02*
D03*
X317501D02*
D03*
X322500D02*
D03*
X327500D02*
D03*
X332501D02*
D03*
X337500D02*
D03*
X342501D02*
D03*
X347500D02*
D03*
X352500D02*
D03*
X357501D02*
D03*
X362500D02*
D03*
X367501D02*
D03*
X372501D02*
D03*
X377500D02*
D03*
D20*
X282501Y287500D02*
D03*
Y292500D02*
D03*
Y297500D02*
D03*
Y302500D02*
D03*
Y307500D02*
D03*
Y312500D02*
D03*
Y317500D02*
D03*
Y322500D02*
D03*
Y327500D02*
D03*
Y332500D02*
D03*
Y337500D02*
D03*
Y342500D02*
D03*
Y347500D02*
D03*
Y352500D02*
D03*
Y357500D02*
D03*
Y362500D02*
D03*
X397501D02*
D03*
Y357500D02*
D03*
Y352500D02*
D03*
Y347500D02*
D03*
Y342500D02*
D03*
Y337500D02*
D03*
Y332500D02*
D03*
Y327500D02*
D03*
Y322500D02*
D03*
Y317500D02*
D03*
Y312500D02*
D03*
Y307500D02*
D03*
Y302500D02*
D03*
Y297500D02*
D03*
Y292500D02*
D03*
Y287500D02*
D03*
D21*
X393950Y203050D02*
D03*
Y190350D02*
D03*
Y177650D02*
D03*
Y164950D02*
D03*
X466050D02*
D03*
Y177650D02*
D03*
Y190350D02*
D03*
Y203050D02*
D03*
D22*
X448000Y33000D02*
D03*
X512000D02*
D03*
D23*
X322000Y237000D02*
D03*
X334500D02*
D03*
X347000D02*
D03*
Y213000D02*
D03*
X334500D02*
D03*
X322000D02*
D03*
X309500Y237000D02*
D03*
Y213000D02*
D03*
D24*
X227500Y350500D02*
D03*
Y363200D02*
D03*
Y375900D02*
D03*
Y388600D02*
D03*
Y401300D02*
D03*
Y414000D02*
D03*
Y426700D02*
D03*
Y439400D02*
D03*
X173000Y350500D02*
D03*
Y363200D02*
D03*
Y375900D02*
D03*
Y388600D02*
D03*
Y401300D02*
D03*
Y414000D02*
D03*
Y426700D02*
D03*
Y439400D02*
D03*
D25*
X344800Y462950D02*
D03*
X369200D02*
D03*
Y467250D02*
D03*
Y471550D02*
D03*
Y475850D02*
D03*
Y480150D02*
D03*
Y484450D02*
D03*
Y488750D02*
D03*
Y493050D02*
D03*
X344800D02*
D03*
Y488750D02*
D03*
Y484450D02*
D03*
Y480150D02*
D03*
Y475850D02*
D03*
Y471550D02*
D03*
Y467250D02*
D03*
D26*
X350550Y463300D02*
D03*
X354850D02*
D03*
X359150D02*
D03*
X363450D02*
D03*
Y492700D02*
D03*
X359150D02*
D03*
X354850D02*
D03*
X350550D02*
D03*
D27*
X505793Y271020D02*
D03*
Y366020D02*
D03*
D28*
X22000Y27000D02*
D03*
X548000Y332000D02*
D03*
X320000Y560000D02*
D03*
D46*
X222000Y60000D02*
D03*
D47*
X192000D02*
D03*
X222000Y90000D02*
D03*
X192000D02*
D03*
D48*
X162000Y99400D02*
D03*
X252000D02*
D03*
D56*
X561340Y406400D02*
D03*
X546340D02*
D03*
X561340Y433070D02*
D03*
X546340D02*
D03*
X561340Y459740D02*
D03*
X546340D02*
D03*
D57*
X245000Y227000D02*
X248500Y230500D01*
X245000Y218500D02*
Y227000D01*
X248500Y230500D02*
Y239000D01*
X245000Y218500D02*
X248000Y215500D01*
X307501Y258500D02*
Y267500D01*
X288000Y239000D02*
X307501Y258500D01*
X267500Y239000D02*
X288000D01*
X86497Y20000D02*
X88729D01*
X397419Y247581D02*
X405000Y255161D01*
X377500Y263568D02*
X381432D01*
X245630Y437630D02*
X246999Y438999D01*
X245154Y437154D02*
X245630Y437630D01*
X321623Y127000D02*
X321823Y127200D01*
X244000Y129000D02*
X244812D01*
X246812Y127000D01*
X321623D01*
X321823Y127200D02*
X332178D01*
X332378Y127000D01*
X122473Y128849D02*
X209252D01*
X104922Y146400D02*
X122473Y128849D01*
X332378Y127000D02*
X370343D01*
X402393Y159050D01*
X461550Y540382D02*
Y549618D01*
X417200Y598800D02*
X423300Y592700D01*
Y587868D02*
X461550Y549618D01*
X423300Y587868D02*
Y592700D01*
X395000Y250000D02*
X397419Y247581D01*
X392000Y253000D02*
X395000Y250000D01*
X243840Y439420D02*
X245630Y437630D01*
X246999Y438999D02*
X252999D01*
X455018Y533850D02*
X461550Y540382D01*
X445000Y528000D02*
X449000D01*
X454850Y533850D01*
X455018D01*
X71000Y458341D02*
Y458451D01*
X57659Y445000D02*
X71000Y458341D01*
X43000Y445000D02*
X57659D01*
X75700Y463150D02*
X77750D01*
X84000Y469400D01*
X71000Y458451D02*
X75700Y463150D01*
X10000Y412000D02*
X43000Y445000D01*
X227500Y446276D02*
X231224Y450000D01*
X236000D01*
X402393Y159050D02*
X418060Y174716D01*
Y196517D01*
X430042Y208500D02*
X455500Y233958D01*
X418060Y196517D02*
X430042Y208500D01*
X430042D01*
X402393Y159050D02*
X402393D01*
X436500Y233958D02*
Y250958D01*
X436458Y251000D02*
X436500Y250958D01*
X405000Y255161D02*
Y270000D01*
X377500Y263568D02*
Y267500D01*
X381432Y263568D02*
X392000Y253001D01*
Y253000D02*
Y253001D01*
X495000Y193000D02*
Y201500D01*
X466050Y203050D02*
X493450D01*
X495000Y201500D01*
X227500Y439400D02*
Y446276D01*
X328000Y185000D02*
X328000Y185000D01*
X328000Y185000D02*
Y193000D01*
X302000Y213000D02*
X309500D01*
X310000Y185000D02*
Y193000D01*
X360000Y315000D02*
Y346000D01*
X422000Y408000D02*
Y505000D01*
X360000Y346000D02*
X422000Y408000D01*
Y505000D02*
X445000Y528000D01*
X377500Y297500D02*
X397501D01*
X360000Y315000D02*
X377500Y297500D01*
X257000Y643000D02*
X284500Y615500D01*
X451800D02*
X467300Y600001D01*
X284500Y615500D02*
X451800D01*
X44000Y643000D02*
X257000D01*
X560000Y350000D02*
Y390000D01*
Y270000D02*
Y310000D01*
Y190000D02*
Y230000D01*
X330000Y478000D02*
Y487000D01*
X314000Y479000D02*
Y487000D01*
X304000Y467000D02*
X306000Y469000D01*
Y476000D02*
X309000Y479000D01*
X306000Y469000D02*
Y476000D01*
X309000Y479000D02*
X314000D01*
X329000D01*
X330000Y478000D01*
Y466000D02*
Y478000D01*
X310000Y193000D02*
X328000D01*
X328000Y193000D01*
X309500Y193500D02*
Y213000D01*
Y193500D02*
X310000Y193000D01*
X21000Y620000D02*
X44000Y643000D01*
X227520Y439420D02*
X243840D01*
X227500Y439400D02*
X227520Y439420D01*
D58*
X139750Y76250D02*
Y97000D01*
Y76250D02*
X156000Y60000D01*
X116000Y47271D02*
Y97000D01*
X88729Y20000D02*
X116000Y47271D01*
X156000Y60000D02*
X192000D01*
D59*
X104922Y338200D02*
D03*
Y310800D02*
D03*
Y283400D02*
D03*
Y256000D02*
D03*
Y228600D02*
D03*
Y201200D02*
D03*
Y173800D02*
D03*
X76522Y324500D02*
D03*
Y297100D02*
D03*
Y269700D02*
D03*
Y160100D02*
D03*
Y187500D02*
D03*
Y242300D02*
D03*
Y214900D02*
D03*
X84000Y494800D02*
D03*
Y520200D02*
D03*
Y545600D02*
D03*
Y571000D02*
D03*
Y596400D02*
D03*
X58600Y469400D02*
D03*
Y494800D02*
D03*
Y520200D02*
D03*
Y545600D02*
D03*
Y571000D02*
D03*
Y596400D02*
D03*
D60*
X104922Y146400D02*
D03*
X84000Y469400D02*
D03*
D61*
X91000Y409000D02*
D03*
Y75800D02*
D03*
D62*
X327000Y165500D02*
D03*
X326999Y140101D02*
D03*
X327001Y114700D02*
D03*
Y89300D02*
D03*
Y63900D02*
D03*
X422700Y80000D02*
D03*
X397300D02*
D03*
X371900D02*
D03*
X61097Y630000D02*
D03*
X86497D02*
D03*
X213497Y629999D02*
D03*
X188097D02*
D03*
X162697D02*
D03*
X137295Y630001D02*
D03*
X111896Y630000D02*
D03*
X543500Y600000D02*
D03*
X518101Y599999D02*
D03*
X492700Y600001D02*
D03*
X467300D02*
D03*
X441900D02*
D03*
X61097Y20000D02*
D03*
X86497D02*
D03*
X213497Y19999D02*
D03*
X188097D02*
D03*
X162697D02*
D03*
X137295Y20001D02*
D03*
X111896Y20000D02*
D03*
X555601Y63900D02*
D03*
Y89300D02*
D03*
Y114700D02*
D03*
X555599Y140101D02*
D03*
X555600Y165500D02*
D03*
D63*
X327001Y38500D02*
D03*
X555601D02*
D03*
D64*
X448100Y80000D02*
D03*
X238897Y629999D02*
D03*
X416500Y600001D02*
D03*
X238897Y19999D02*
D03*
D65*
X400000Y550000D02*
D03*
X510000Y100000D02*
D03*
X260000Y150000D02*
D03*
Y520000D02*
D03*
D66*
X450400Y515000D02*
D03*
Y545000D02*
D03*
X480400Y515000D02*
D03*
D67*
Y545000D02*
D03*
D68*
X523600Y530000D02*
D03*
D69*
X32000Y280000D02*
D03*
Y260000D02*
D03*
Y270000D02*
D03*
X245000Y227000D02*
D03*
X248000Y206000D02*
D03*
X190000Y257000D02*
D03*
X218000Y200000D02*
D03*
X293000Y256000D02*
D03*
X317500Y250190D02*
D03*
X139750Y97000D02*
D03*
X190000Y113000D02*
D03*
X116000Y97000D02*
D03*
X244000Y129000D02*
D03*
X209252Y128849D02*
D03*
X352000Y26249D02*
D03*
Y60000D02*
D03*
X450400Y480000D02*
D03*
X383540Y353060D02*
D03*
X382270Y332740D02*
D03*
X319999Y363999D02*
D03*
X251581Y299419D02*
D03*
X318770Y280670D02*
D03*
X351000Y415000D02*
D03*
X295016Y341300D02*
D03*
X412750Y318770D02*
D03*
X338221Y278500D02*
D03*
X307999Y345000D02*
D03*
X362919Y298919D02*
D03*
X257589Y323750D02*
D03*
X372110Y341630D02*
D03*
X326999Y357999D02*
D03*
X393000Y280000D02*
D03*
X295999Y349999D02*
D03*
X325199Y285750D02*
D03*
X346999Y278999D02*
D03*
X367030Y365760D02*
D03*
X382270Y317500D02*
D03*
X457200Y349250D02*
D03*
X312808Y368688D02*
D03*
X282000Y281000D02*
D03*
X355600Y407670D02*
D03*
X332000Y351000D02*
D03*
X330647Y291609D02*
D03*
X351790Y365760D02*
D03*
X297248Y384248D02*
D03*
X126000Y449000D02*
D03*
X179000Y451000D02*
D03*
X218000Y260000D02*
D03*
X253000Y348750D02*
D03*
X191000Y346000D02*
D03*
Y286000D02*
D03*
X173000Y344000D02*
D03*
X65000Y315999D02*
D03*
X42000Y280000D02*
D03*
Y260000D02*
D03*
X159331Y336996D02*
D03*
X97000Y349999D02*
D03*
X252999Y438999D02*
D03*
X256419Y286581D02*
D03*
X299000Y508000D02*
D03*
X130800Y349200D02*
D03*
X10000Y412000D02*
D03*
X18000Y408000D02*
D03*
X274000Y377000D02*
D03*
X109000Y432000D02*
D03*
X113000Y563500D02*
D03*
X352000Y48000D02*
D03*
X265000Y419000D02*
D03*
X236000Y450000D02*
D03*
X430367Y199633D02*
D03*
X440000Y208000D02*
D03*
X413000Y229750D02*
D03*
X455000Y260000D02*
D03*
X436880Y266700D02*
D03*
X428000Y268000D02*
D03*
X405000Y270000D02*
D03*
X495000Y193000D02*
D03*
X368000Y233000D02*
D03*
X385000Y238000D02*
D03*
X275306Y368855D02*
D03*
X247081Y397081D02*
D03*
X235081Y409081D02*
D03*
X154555Y447555D02*
D03*
X188055Y414055D02*
D03*
X255000Y268000D02*
D03*
X328000Y185000D02*
D03*
X291000Y205000D02*
D03*
X302000Y213000D02*
D03*
X338000Y200000D02*
D03*
X310000Y185000D02*
D03*
X319000Y200000D02*
D03*
X137000Y355000D02*
D03*
X191419Y368419D02*
D03*
X230748Y612748D02*
D03*
X215000Y535000D02*
D03*
X223000Y595000D02*
D03*
X270000Y10000D02*
D03*
X300000D02*
D03*
X330000D02*
D03*
X360000D02*
D03*
X390000D02*
D03*
X290000Y640000D02*
D03*
X330000D02*
D03*
X370000D02*
D03*
X410000D02*
D03*
X450000D02*
D03*
X490000D02*
D03*
X530000D02*
D03*
X560000D02*
D03*
Y600000D02*
D03*
Y560000D02*
D03*
Y520000D02*
D03*
Y480000D02*
D03*
Y390000D02*
D03*
Y350000D02*
D03*
Y310000D02*
D03*
Y270000D02*
D03*
Y230000D02*
D03*
Y190000D02*
D03*
X386000Y410000D02*
D03*
X273000Y428000D02*
D03*
X263000Y430000D02*
D03*
X137000Y429000D02*
D03*
X400000Y454000D02*
D03*
X330000Y487000D02*
D03*
X314000D02*
D03*
X304000Y467000D02*
D03*
X361000Y476000D02*
D03*
X352000D02*
D03*
X283000Y403000D02*
D03*
X359000Y400000D02*
D03*
X367000Y410000D02*
D03*
X436000Y339000D02*
D03*
X419000D02*
D03*
X418000Y297000D02*
D03*
X427000Y287000D02*
D03*
X352000Y37000D02*
D03*
X163000Y433000D02*
D03*
X314000Y456000D02*
D03*
X332000Y437000D02*
D03*
X330000Y507000D02*
D03*
X314000D02*
D03*
X206759Y492241D02*
D03*
X147000Y413000D02*
D03*
X137000Y405000D02*
D03*
X385000Y452000D02*
D03*
X21000Y620000D02*
D03*
X137000Y380000D02*
D03*
X469000Y395000D02*
D03*
X448000Y328000D02*
D03*
X427976Y328123D02*
D03*
X470001Y299040D02*
D03*
X283000Y220000D02*
D03*
X352000Y485000D02*
D03*
X363000Y501000D02*
D03*
X355000D02*
D03*
X344000D02*
D03*
X395000Y400000D02*
D03*
X561000Y425000D02*
D03*
Y450000D02*
D03*
X146000Y570000D02*
D03*
X206000Y510000D02*
D03*
X495300Y459740D02*
D03*
Y433070D02*
D03*
Y406400D02*
D03*
X203200Y381000D02*
D03*
X378460Y459740D02*
D03*
X350520Y448310D02*
D03*
X369570Y449580D02*
D03*
X359410D02*
D03*
D70*
X176000Y151000D02*
D03*
Y227000D02*
D03*
M02*
