G04*
G04 #@! TF.GenerationSoftware,Altium Limited,Altium Designer,20.2.6 (244)*
G04*
G04 Layer_Physical_Order=2*
G04 Layer_Color=36540*
%FSLAX44Y44*%
%MOMM*%
G71*
G04*
G04 #@! TF.SameCoordinates,C4BD39D4-7D46-4A15-92C5-5DF00FED93ED*
G04*
G04*
G04 #@! TF.FilePolarity,Positive*
G04*
G01*
G75*
%ADD46R,1.5700X1.5700*%
%ADD59C,1.5500*%
%ADD61C,3.5500*%
%ADD62C,1.8000*%
%ADD66C,1.5300*%
%ADD69C,0.6000*%
%ADD70C,1.4000*%
G36*
X570000Y0D02*
X0D01*
Y650000D01*
X570000Y650000D01*
Y0D01*
D02*
G37*
%LPC*%
G36*
X560000Y645098D02*
X558049Y644710D01*
X556395Y643605D01*
X555290Y641951D01*
X554902Y640000D01*
X555290Y638049D01*
X556395Y636395D01*
X558049Y635290D01*
X560000Y634902D01*
X561951Y635290D01*
X563605Y636395D01*
X564710Y638049D01*
X565098Y640000D01*
X564710Y641951D01*
X563605Y643605D01*
X561951Y644710D01*
X560000Y645098D01*
D02*
G37*
G36*
X530000D02*
X528049Y644710D01*
X526395Y643605D01*
X525290Y641951D01*
X524902Y640000D01*
X525290Y638049D01*
X526395Y636395D01*
X528049Y635290D01*
X530000Y634902D01*
X531951Y635290D01*
X533605Y636395D01*
X534710Y638049D01*
X535098Y640000D01*
X534710Y641951D01*
X533605Y643605D01*
X531951Y644710D01*
X530000Y645098D01*
D02*
G37*
G36*
X490000D02*
X488049Y644710D01*
X486395Y643605D01*
X485290Y641951D01*
X484902Y640000D01*
X485290Y638049D01*
X486395Y636395D01*
X488049Y635290D01*
X490000Y634902D01*
X491951Y635290D01*
X493605Y636395D01*
X494710Y638049D01*
X495098Y640000D01*
X494710Y641951D01*
X493605Y643605D01*
X491951Y644710D01*
X490000Y645098D01*
D02*
G37*
G36*
X450000D02*
X448049Y644710D01*
X446395Y643605D01*
X445290Y641951D01*
X444902Y640000D01*
X445290Y638049D01*
X446395Y636395D01*
X448049Y635290D01*
X450000Y634902D01*
X451951Y635290D01*
X453605Y636395D01*
X454710Y638049D01*
X455098Y640000D01*
X454710Y641951D01*
X453605Y643605D01*
X451951Y644710D01*
X450000Y645098D01*
D02*
G37*
G36*
X410000D02*
X408049Y644710D01*
X406395Y643605D01*
X405290Y641951D01*
X404902Y640000D01*
X405290Y638049D01*
X406395Y636395D01*
X408049Y635290D01*
X410000Y634902D01*
X411951Y635290D01*
X413605Y636395D01*
X414710Y638049D01*
X415098Y640000D01*
X414710Y641951D01*
X413605Y643605D01*
X411951Y644710D01*
X410000Y645098D01*
D02*
G37*
G36*
X370000D02*
X368049Y644710D01*
X366395Y643605D01*
X365290Y641951D01*
X364902Y640000D01*
X365290Y638049D01*
X366395Y636395D01*
X368049Y635290D01*
X370000Y634902D01*
X371951Y635290D01*
X373605Y636395D01*
X374710Y638049D01*
X375098Y640000D01*
X374710Y641951D01*
X373605Y643605D01*
X371951Y644710D01*
X370000Y645098D01*
D02*
G37*
G36*
X330000D02*
X328049Y644710D01*
X326395Y643605D01*
X325290Y641951D01*
X324902Y640000D01*
X325290Y638049D01*
X326395Y636395D01*
X328049Y635290D01*
X330000Y634902D01*
X331951Y635290D01*
X333605Y636395D01*
X334710Y638049D01*
X335098Y640000D01*
X334710Y641951D01*
X333605Y643605D01*
X331951Y644710D01*
X330000Y645098D01*
D02*
G37*
G36*
X290000D02*
X288049Y644710D01*
X286395Y643605D01*
X285290Y641951D01*
X284902Y640000D01*
X285290Y638049D01*
X286395Y636395D01*
X288049Y635290D01*
X290000Y634902D01*
X291951Y635290D01*
X293605Y636395D01*
X294710Y638049D01*
X295098Y640000D01*
X294710Y641951D01*
X293605Y643605D01*
X291951Y644710D01*
X290000Y645098D01*
D02*
G37*
G36*
X137295Y641096D02*
X134424Y640718D01*
X131748Y639609D01*
X129450Y637846D01*
X127687Y635548D01*
X126579Y632872D01*
X126201Y630001D01*
X126579Y627129D01*
X127687Y624453D01*
X129450Y622156D01*
X131748Y620392D01*
X134424Y619284D01*
X137295Y618906D01*
X140167Y619284D01*
X142843Y620392D01*
X145141Y622156D01*
X146904Y624453D01*
X148012Y627129D01*
X148390Y630001D01*
X148012Y632872D01*
X146904Y635548D01*
X145141Y637846D01*
X142843Y639609D01*
X140167Y640718D01*
X137295Y641096D01*
D02*
G37*
G36*
X111896Y641095D02*
X109025Y640717D01*
X106349Y639608D01*
X104051Y637845D01*
X102288Y635547D01*
X101179Y632872D01*
X100801Y630000D01*
X101179Y627128D01*
X102288Y624453D01*
X104051Y622155D01*
X106349Y620392D01*
X109025Y619283D01*
X111896Y618905D01*
X114768Y619283D01*
X117444Y620392D01*
X119741Y622155D01*
X121505Y624453D01*
X122613Y627128D01*
X122991Y630000D01*
X122613Y632872D01*
X121505Y635547D01*
X119741Y637845D01*
X117444Y639608D01*
X114768Y640717D01*
X111896Y641095D01*
D02*
G37*
G36*
X86497D02*
X83625Y640717D01*
X80949Y639608D01*
X78651Y637845D01*
X76888Y635547D01*
X75780Y632872D01*
X75402Y630000D01*
X75780Y627128D01*
X76888Y624453D01*
X78651Y622155D01*
X80949Y620392D01*
X83625Y619283D01*
X86497Y618905D01*
X89368Y619283D01*
X92044Y620392D01*
X94342Y622155D01*
X96105Y624453D01*
X97213Y627128D01*
X97591Y630000D01*
X97213Y632872D01*
X96105Y635547D01*
X94342Y637845D01*
X92044Y639608D01*
X89368Y640717D01*
X86497Y641095D01*
D02*
G37*
G36*
X61097D02*
X58225Y640717D01*
X55549Y639608D01*
X53251Y637845D01*
X51488Y635547D01*
X50380Y632872D01*
X50002Y630000D01*
X50380Y627128D01*
X51488Y624453D01*
X53251Y622155D01*
X55549Y620392D01*
X58225Y619283D01*
X61097Y618905D01*
X63968Y619283D01*
X66644Y620392D01*
X68942Y622155D01*
X70705Y624453D01*
X71814Y627128D01*
X72192Y630000D01*
X71814Y632872D01*
X70705Y635547D01*
X68942Y637845D01*
X66644Y639608D01*
X63968Y640717D01*
X61097Y641095D01*
D02*
G37*
G36*
X213497Y641094D02*
X210625Y640716D01*
X207950Y639608D01*
X205652Y637845D01*
X203889Y635547D01*
X202780Y632871D01*
X202402Y629999D01*
X202780Y627128D01*
X203889Y624452D01*
X205652Y622154D01*
X207950Y620391D01*
X210625Y619282D01*
X213497Y618904D01*
X216369Y619282D01*
X219044Y620391D01*
X221342Y622154D01*
X223106Y624452D01*
X224214Y627128D01*
X224592Y629999D01*
X224214Y632871D01*
X223106Y635547D01*
X221342Y637845D01*
X219044Y639608D01*
X216369Y640716D01*
X213497Y641094D01*
D02*
G37*
G36*
X188097D02*
X185226Y640716D01*
X182550Y639608D01*
X180252Y637845D01*
X178489Y635547D01*
X177380Y632871D01*
X177002Y629999D01*
X177380Y627128D01*
X178489Y624452D01*
X180252Y622154D01*
X182550Y620391D01*
X185226Y619282D01*
X188097Y618904D01*
X190969Y619282D01*
X193645Y620391D01*
X195942Y622154D01*
X197705Y624452D01*
X198814Y627128D01*
X199192Y629999D01*
X198814Y632871D01*
X197705Y635547D01*
X195942Y637845D01*
X193645Y639608D01*
X190969Y640716D01*
X188097Y641094D01*
D02*
G37*
G36*
X162697D02*
X159825Y640716D01*
X157150Y639608D01*
X154852Y637845D01*
X153089Y635547D01*
X151980Y632871D01*
X151602Y629999D01*
X151980Y627128D01*
X153089Y624452D01*
X154852Y622154D01*
X157150Y620391D01*
X159825Y619282D01*
X162697Y618904D01*
X165569Y619282D01*
X168244Y620391D01*
X170542Y622154D01*
X172306Y624452D01*
X173414Y627128D01*
X173792Y629999D01*
X173414Y632871D01*
X172306Y635547D01*
X170542Y637845D01*
X168244Y639608D01*
X165569Y640716D01*
X162697Y641094D01*
D02*
G37*
G36*
X21000Y625098D02*
X19049Y624710D01*
X17395Y623605D01*
X16290Y621951D01*
X15902Y620000D01*
X16290Y618049D01*
X17395Y616395D01*
X19049Y615290D01*
X21000Y614902D01*
X22951Y615290D01*
X24605Y616395D01*
X25710Y618049D01*
X26098Y620000D01*
X25710Y621951D01*
X24605Y623605D01*
X22951Y624710D01*
X21000Y625098D01*
D02*
G37*
G36*
X249897Y640999D02*
X227897D01*
Y618999D01*
X229153D01*
X230110Y618242D01*
X230110Y618242D01*
X230110D01*
X230161Y617729D01*
X230112Y617720D01*
X228797Y617458D01*
X227143Y616353D01*
X226038Y614699D01*
X225650Y612748D01*
X226038Y610797D01*
X227143Y609143D01*
X228797Y608038D01*
X230748Y607650D01*
X232699Y608038D01*
X234353Y609143D01*
X235458Y610797D01*
X235846Y612748D01*
X235458Y614699D01*
X234353Y616353D01*
X232699Y617458D01*
X231384Y617720D01*
X231336Y617729D01*
X231386Y618242D01*
X231386D01*
X231386Y618242D01*
X232343Y618999D01*
X249897D01*
Y640999D01*
D02*
G37*
G36*
X560000Y605098D02*
X558049Y604710D01*
X556395Y603605D01*
X555290Y601951D01*
X554902Y600000D01*
X555290Y598049D01*
X556395Y596395D01*
X558049Y595290D01*
X560000Y594902D01*
X561951Y595290D01*
X563605Y596395D01*
X564710Y598049D01*
X565098Y600000D01*
X564710Y601951D01*
X563605Y603605D01*
X561951Y604710D01*
X560000Y605098D01*
D02*
G37*
G36*
X223000Y600098D02*
X221049Y599710D01*
X219395Y598605D01*
X218290Y596951D01*
X217902Y595000D01*
X218290Y593049D01*
X219395Y591395D01*
X221049Y590290D01*
X223000Y589902D01*
X224951Y590290D01*
X226605Y591395D01*
X227710Y593049D01*
X228098Y595000D01*
X227710Y596951D01*
X226605Y598605D01*
X224951Y599710D01*
X223000Y600098D01*
D02*
G37*
G36*
X427500Y611001D02*
X405500D01*
Y589001D01*
X427500D01*
Y611001D01*
D02*
G37*
G36*
X467300Y611096D02*
X464428Y610718D01*
X461752Y609609D01*
X459454Y607846D01*
X457691Y605548D01*
X456583Y602872D01*
X456205Y600001D01*
X456583Y597129D01*
X457691Y594453D01*
X459454Y592155D01*
X461752Y590392D01*
X464428Y589284D01*
X467300Y588906D01*
X470171Y589284D01*
X472847Y590392D01*
X475145Y592155D01*
X476908Y594453D01*
X478016Y597129D01*
X478395Y600001D01*
X478016Y602872D01*
X476908Y605548D01*
X475145Y607846D01*
X472847Y609609D01*
X470171Y610718D01*
X467300Y611096D01*
D02*
G37*
G36*
X441900D02*
X439028Y610718D01*
X436352Y609609D01*
X434054Y607846D01*
X432291Y605548D01*
X431183Y602872D01*
X430805Y600001D01*
X431183Y597129D01*
X432291Y594453D01*
X434054Y592155D01*
X436352Y590392D01*
X439028Y589284D01*
X441900Y588906D01*
X444771Y589284D01*
X447447Y590392D01*
X449745Y592155D01*
X451508Y594453D01*
X452616Y597129D01*
X452994Y600001D01*
X452616Y602872D01*
X451508Y605548D01*
X449745Y607846D01*
X447447Y609609D01*
X444771Y610718D01*
X441900Y611096D01*
D02*
G37*
G36*
X518101Y611094D02*
X515230Y610716D01*
X512554Y609608D01*
X510256Y607845D01*
X508493Y605547D01*
X507384Y602871D01*
X507006Y599999D01*
X507384Y597128D01*
X508493Y594452D01*
X510256Y592154D01*
X512554Y590391D01*
X515230Y589282D01*
X518101Y588904D01*
X520973Y589282D01*
X523649Y590391D01*
X525947Y592154D01*
X527710Y594452D01*
X528818Y597128D01*
X529196Y599999D01*
X528818Y602871D01*
X527710Y605547D01*
X525947Y607845D01*
X523649Y609608D01*
X520973Y610716D01*
X518101Y611094D01*
D02*
G37*
G36*
X84000Y606234D02*
X81455Y605899D01*
X79083Y604917D01*
X77046Y603354D01*
X75483Y601317D01*
X74501Y598945D01*
X74166Y596400D01*
X74501Y593855D01*
X75483Y591483D01*
X77046Y589446D01*
X79083Y587883D01*
X81455Y586901D01*
X84000Y586566D01*
X86545Y586901D01*
X88917Y587883D01*
X90954Y589446D01*
X92517Y591483D01*
X93499Y593855D01*
X93834Y596400D01*
X93499Y598945D01*
X92517Y601317D01*
X90954Y603354D01*
X88917Y604917D01*
X86545Y605899D01*
X84000Y606234D01*
D02*
G37*
G36*
X58600D02*
X56055Y605899D01*
X53683Y604917D01*
X51646Y603354D01*
X50083Y601317D01*
X49101Y598945D01*
X48766Y596400D01*
X49101Y593855D01*
X50083Y591483D01*
X51646Y589446D01*
X53683Y587883D01*
X56055Y586901D01*
X58600Y586566D01*
X61145Y586901D01*
X63517Y587883D01*
X65554Y589446D01*
X67117Y591483D01*
X68099Y593855D01*
X68434Y596400D01*
X68099Y598945D01*
X67117Y601317D01*
X65554Y603354D01*
X63517Y604917D01*
X61145Y605899D01*
X58600Y606234D01*
D02*
G37*
G36*
X146000Y575098D02*
X144049Y574710D01*
X142395Y573605D01*
X141290Y571951D01*
X140902Y570000D01*
X141290Y568049D01*
X142395Y566395D01*
X144049Y565290D01*
X146000Y564902D01*
X147951Y565290D01*
X149605Y566395D01*
X150710Y568049D01*
X151098Y570000D01*
X150710Y571951D01*
X149605Y573605D01*
X147951Y574710D01*
X146000Y575098D01*
D02*
G37*
G36*
X84000Y580834D02*
X81455Y580499D01*
X79083Y579517D01*
X77046Y577954D01*
X75483Y575917D01*
X74501Y573545D01*
X74166Y571000D01*
X74501Y568455D01*
X75483Y566083D01*
X77046Y564046D01*
X79083Y562483D01*
X81455Y561501D01*
X84000Y561166D01*
X86545Y561501D01*
X88917Y562483D01*
X90954Y564046D01*
X92517Y566083D01*
X93499Y568455D01*
X93834Y571000D01*
X93499Y573545D01*
X92517Y575917D01*
X90954Y577954D01*
X88917Y579517D01*
X86545Y580499D01*
X84000Y580834D01*
D02*
G37*
G36*
X58600D02*
X56055Y580499D01*
X53683Y579517D01*
X51646Y577954D01*
X50083Y575917D01*
X49101Y573545D01*
X48766Y571000D01*
X49101Y568455D01*
X50083Y566083D01*
X51646Y564046D01*
X53683Y562483D01*
X56055Y561501D01*
X58600Y561166D01*
X61145Y561501D01*
X63517Y562483D01*
X65554Y564046D01*
X67117Y566083D01*
X68099Y568455D01*
X68434Y571000D01*
X68099Y573545D01*
X67117Y575917D01*
X65554Y577954D01*
X63517Y579517D01*
X61145Y580499D01*
X58600Y580834D01*
D02*
G37*
G36*
X113000Y568598D02*
X111049Y568210D01*
X109395Y567105D01*
X108290Y565451D01*
X107902Y563500D01*
X108290Y561549D01*
X109395Y559895D01*
X111049Y558790D01*
X113000Y558402D01*
X114951Y558790D01*
X116605Y559895D01*
X117710Y561549D01*
X118098Y563500D01*
X117710Y565451D01*
X116605Y567105D01*
X114951Y568210D01*
X113000Y568598D01*
D02*
G37*
G36*
X560000Y565098D02*
X558049Y564710D01*
X556395Y563605D01*
X555290Y561951D01*
X554902Y560000D01*
X555290Y558049D01*
X556395Y556395D01*
X558049Y555290D01*
X560000Y554902D01*
X561951Y555290D01*
X563605Y556395D01*
X564710Y558049D01*
X565098Y560000D01*
X564710Y561951D01*
X563605Y563605D01*
X561951Y564710D01*
X560000Y565098D01*
D02*
G37*
G36*
X84000Y555434D02*
X81455Y555099D01*
X79083Y554117D01*
X77046Y552554D01*
X75483Y550517D01*
X74501Y548145D01*
X74166Y545600D01*
X74501Y543055D01*
X75483Y540683D01*
X77046Y538646D01*
X79083Y537083D01*
X81455Y536101D01*
X84000Y535766D01*
X86545Y536101D01*
X88917Y537083D01*
X90954Y538646D01*
X92517Y540683D01*
X93499Y543055D01*
X93834Y545600D01*
X93499Y548145D01*
X92517Y550517D01*
X90954Y552554D01*
X88917Y554117D01*
X86545Y555099D01*
X84000Y555434D01*
D02*
G37*
G36*
X58600D02*
X56055Y555099D01*
X53683Y554117D01*
X51646Y552554D01*
X50083Y550517D01*
X49101Y548145D01*
X48766Y545600D01*
X49101Y543055D01*
X50083Y540683D01*
X51646Y538646D01*
X53683Y537083D01*
X56055Y536101D01*
X58600Y535766D01*
X61145Y536101D01*
X63517Y537083D01*
X65554Y538646D01*
X67117Y540683D01*
X68099Y543055D01*
X68434Y545600D01*
X68099Y548145D01*
X67117Y550517D01*
X65554Y552554D01*
X63517Y554117D01*
X61145Y555099D01*
X58600Y555434D01*
D02*
G37*
G36*
X490050Y554650D02*
X470750D01*
Y535350D01*
X490050D01*
Y554650D01*
D02*
G37*
G36*
X450400Y554733D02*
X447881Y554402D01*
X445533Y553429D01*
X443517Y551883D01*
X441971Y549867D01*
X440998Y547519D01*
X440667Y545000D01*
X440998Y542481D01*
X441971Y540133D01*
X443517Y538118D01*
X445533Y536571D01*
X447881Y535598D01*
X450400Y535267D01*
X452919Y535598D01*
X455267Y536571D01*
X457282Y538118D01*
X458829Y540133D01*
X459802Y542481D01*
X460133Y545000D01*
X459802Y547519D01*
X458829Y549867D01*
X457282Y551883D01*
X455267Y553429D01*
X452919Y554402D01*
X450400Y554733D01*
D02*
G37*
G36*
X400000Y567323D02*
X396620Y566991D01*
X393371Y566005D01*
X390376Y564404D01*
X387751Y562249D01*
X385596Y559624D01*
X383995Y556629D01*
X383009Y553380D01*
X382677Y550000D01*
X383009Y546620D01*
X383995Y543371D01*
X385596Y540376D01*
X387751Y537751D01*
X390376Y535596D01*
X393371Y533995D01*
X396620Y533009D01*
X400000Y532677D01*
X403380Y533009D01*
X406629Y533995D01*
X409624Y535596D01*
X412249Y537751D01*
X414404Y540376D01*
X416005Y543371D01*
X416991Y546620D01*
X417323Y550000D01*
X416991Y553380D01*
X416005Y556629D01*
X414404Y559624D01*
X412249Y562249D01*
X409624Y564404D01*
X406629Y566005D01*
X403380Y566991D01*
X400000Y567323D01*
D02*
G37*
G36*
X215000Y540098D02*
X213049Y539710D01*
X211395Y538605D01*
X210290Y536951D01*
X209902Y535000D01*
X210290Y533049D01*
X211395Y531395D01*
X213049Y530290D01*
X215000Y529902D01*
X216951Y530290D01*
X218605Y531395D01*
X219710Y533049D01*
X220098Y535000D01*
X219710Y536951D01*
X218605Y538605D01*
X216951Y539710D01*
X215000Y540098D01*
D02*
G37*
G36*
X560000Y525098D02*
X558049Y524710D01*
X556395Y523605D01*
X555290Y521951D01*
X554902Y520000D01*
X555290Y518049D01*
X556395Y516395D01*
X558049Y515290D01*
X560000Y514902D01*
X561951Y515290D01*
X563605Y516395D01*
X564710Y518049D01*
X565098Y520000D01*
X564710Y521951D01*
X563605Y523605D01*
X561951Y524710D01*
X560000Y525098D01*
D02*
G37*
G36*
X523600Y547082D02*
X520267Y546754D01*
X517063Y545782D01*
X514110Y544203D01*
X511521Y542079D01*
X509397Y539490D01*
X507818Y536537D01*
X506846Y533333D01*
X506518Y530000D01*
X506846Y526668D01*
X507818Y523463D01*
X509397Y520510D01*
X511521Y517921D01*
X514110Y515797D01*
X517063Y514218D01*
X520267Y513246D01*
X523600Y512918D01*
X526933Y513246D01*
X530137Y514218D01*
X533090Y515797D01*
X535679Y517921D01*
X537803Y520510D01*
X539382Y523463D01*
X540354Y526668D01*
X540682Y530000D01*
X540354Y533333D01*
X539382Y536537D01*
X537803Y539490D01*
X535679Y542079D01*
X533090Y544203D01*
X530137Y545782D01*
X526933Y546754D01*
X523600Y547082D01*
D02*
G37*
G36*
X84000Y530034D02*
X81455Y529699D01*
X79083Y528717D01*
X77046Y527154D01*
X75483Y525117D01*
X74501Y522745D01*
X74166Y520200D01*
X74501Y517655D01*
X75483Y515283D01*
X77046Y513246D01*
X79083Y511683D01*
X81455Y510701D01*
X84000Y510366D01*
X86545Y510701D01*
X88917Y511683D01*
X90954Y513246D01*
X92517Y515283D01*
X93499Y517655D01*
X93834Y520200D01*
X93499Y522745D01*
X92517Y525117D01*
X90954Y527154D01*
X88917Y528717D01*
X86545Y529699D01*
X84000Y530034D01*
D02*
G37*
G36*
X450400Y524733D02*
X447881Y524402D01*
X445533Y523429D01*
X443517Y521883D01*
X441971Y519867D01*
X440998Y517519D01*
X440667Y515000D01*
X440998Y512481D01*
X441971Y510133D01*
X443517Y508118D01*
X445533Y506571D01*
X447881Y505598D01*
X450400Y505267D01*
X452919Y505598D01*
X455267Y506571D01*
X457282Y508118D01*
X458829Y510133D01*
X459802Y512481D01*
X460133Y515000D01*
X459802Y517519D01*
X458829Y519867D01*
X457282Y521883D01*
X455267Y523429D01*
X452919Y524402D01*
X450400Y524733D01*
D02*
G37*
G36*
X206000Y515098D02*
X204049Y514710D01*
X202395Y513605D01*
X201290Y511951D01*
X200902Y510000D01*
X201290Y508049D01*
X202395Y506395D01*
X204049Y505290D01*
X206000Y504902D01*
X207951Y505290D01*
X209605Y506395D01*
X210710Y508049D01*
X211098Y510000D01*
X210710Y511951D01*
X209605Y513605D01*
X207951Y514710D01*
X206000Y515098D01*
D02*
G37*
G36*
X260000Y537323D02*
X256620Y536991D01*
X253371Y536005D01*
X250376Y534404D01*
X247750Y532249D01*
X245596Y529624D01*
X243995Y526629D01*
X243009Y523380D01*
X242677Y520000D01*
X243009Y516620D01*
X243995Y513371D01*
X245596Y510376D01*
X247750Y507751D01*
X250376Y505596D01*
X253371Y503995D01*
X256620Y503009D01*
X260000Y502677D01*
X263380Y503009D01*
X266629Y503995D01*
X269624Y505596D01*
X272250Y507751D01*
X274404Y510376D01*
X276005Y513371D01*
X276991Y516620D01*
X277323Y520000D01*
X276991Y523380D01*
X276005Y526629D01*
X274404Y529624D01*
X272250Y532249D01*
X269624Y534404D01*
X266629Y536005D01*
X263380Y536991D01*
X260000Y537323D01*
D02*
G37*
G36*
X206759Y497339D02*
X204809Y496951D01*
X203155Y495845D01*
X202050Y494192D01*
X201661Y492241D01*
X202050Y490290D01*
X203155Y488636D01*
X204809Y487531D01*
X206759Y487143D01*
X208710Y487531D01*
X210364Y488636D01*
X211469Y490290D01*
X211857Y492241D01*
X211469Y494192D01*
X210364Y495845D01*
X208710Y496951D01*
X206759Y497339D01*
D02*
G37*
G36*
X58600Y504634D02*
X56055Y504299D01*
X53683Y503317D01*
X51646Y501754D01*
X50083Y499717D01*
X49101Y497345D01*
X48766Y494800D01*
X49101Y492255D01*
X50083Y489883D01*
X51646Y487846D01*
X53683Y486283D01*
X56055Y485301D01*
X58600Y484966D01*
X61145Y485301D01*
X63517Y486283D01*
X65554Y487846D01*
X67117Y489883D01*
X68099Y492255D01*
X68434Y494800D01*
X68099Y497345D01*
X67117Y499717D01*
X65554Y501754D01*
X63517Y503317D01*
X61145Y504299D01*
X58600Y504634D01*
D02*
G37*
G36*
X330000Y492098D02*
X328049Y491710D01*
X326395Y490605D01*
X325290Y488951D01*
X324902Y487000D01*
X325290Y485049D01*
X326395Y483395D01*
X328049Y482290D01*
X330000Y481902D01*
X331951Y482290D01*
X333605Y483395D01*
X334710Y485049D01*
X335098Y487000D01*
X334710Y488951D01*
X333605Y490605D01*
X331951Y491710D01*
X330000Y492098D01*
D02*
G37*
G36*
X314000D02*
X312049Y491710D01*
X310395Y490605D01*
X309290Y488951D01*
X308902Y487000D01*
X309290Y485049D01*
X310395Y483395D01*
X312049Y482290D01*
X314000Y481902D01*
X315951Y482290D01*
X317605Y483395D01*
X318710Y485049D01*
X319098Y487000D01*
X318710Y488951D01*
X317605Y490605D01*
X315951Y491710D01*
X314000Y492098D01*
D02*
G37*
G36*
X361000Y481098D02*
X359049Y480710D01*
X357395Y479605D01*
X357135Y479215D01*
X355865D01*
X355605Y479605D01*
X353951Y480710D01*
X352000Y481098D01*
X350049Y480710D01*
X348395Y479605D01*
X347290Y477951D01*
X346902Y476000D01*
X347290Y474049D01*
X348395Y472395D01*
X350049Y471290D01*
X352000Y470902D01*
X353951Y471290D01*
X355605Y472395D01*
X355865Y472785D01*
X357135D01*
X357395Y472395D01*
X359049Y471290D01*
X361000Y470902D01*
X362951Y471290D01*
X364605Y472395D01*
X365710Y474049D01*
X366098Y476000D01*
X365710Y477951D01*
X364605Y479605D01*
X362951Y480710D01*
X361000Y481098D01*
D02*
G37*
G36*
X560000Y485098D02*
X558049Y484710D01*
X556395Y483605D01*
X555290Y481951D01*
X554902Y480000D01*
X555290Y478049D01*
X556395Y476395D01*
X558049Y475290D01*
X560000Y474902D01*
X561951Y475290D01*
X563605Y476395D01*
X564710Y478049D01*
X565098Y480000D01*
X564710Y481951D01*
X563605Y483605D01*
X561951Y484710D01*
X560000Y485098D01*
D02*
G37*
G36*
X450400Y485098D02*
X448449Y484710D01*
X446795Y483605D01*
X445690Y481951D01*
X445302Y480000D01*
X445690Y478049D01*
X446795Y476395D01*
X448449Y475290D01*
X450400Y474902D01*
X452351Y475290D01*
X454005Y476395D01*
X455110Y478049D01*
X455498Y480000D01*
X455110Y481951D01*
X454005Y483605D01*
X452351Y484710D01*
X450400Y485098D01*
D02*
G37*
G36*
X304000Y472098D02*
X302049Y471710D01*
X300395Y470605D01*
X299290Y468951D01*
X298902Y467000D01*
X299290Y465049D01*
X300395Y463395D01*
X302049Y462290D01*
X304000Y461902D01*
X305951Y462290D01*
X307605Y463395D01*
X308710Y465049D01*
X309098Y467000D01*
X308710Y468951D01*
X307605Y470605D01*
X305951Y471710D01*
X304000Y472098D01*
D02*
G37*
G36*
X93750Y479150D02*
X74250D01*
Y459650D01*
X93750D01*
Y479150D01*
D02*
G37*
G36*
X58600Y479234D02*
X56055Y478899D01*
X53683Y477917D01*
X51646Y476354D01*
X50083Y474317D01*
X49101Y471945D01*
X48766Y469400D01*
X49101Y466855D01*
X50083Y464483D01*
X51646Y462446D01*
X53683Y460883D01*
X56055Y459901D01*
X58600Y459566D01*
X61145Y459901D01*
X63517Y460883D01*
X65554Y462446D01*
X67117Y464483D01*
X68099Y466855D01*
X68434Y469400D01*
X68099Y471945D01*
X67117Y474317D01*
X65554Y476354D01*
X63517Y477917D01*
X61145Y478899D01*
X58600Y479234D01*
D02*
G37*
G36*
X495300Y464838D02*
X493349Y464450D01*
X491695Y463345D01*
X490590Y461691D01*
X490202Y459740D01*
X490590Y457789D01*
X491695Y456135D01*
X493349Y455030D01*
X495300Y454642D01*
X497251Y455030D01*
X498905Y456135D01*
X500010Y457789D01*
X500398Y459740D01*
X500010Y461691D01*
X498905Y463345D01*
X497251Y464450D01*
X495300Y464838D01*
D02*
G37*
G36*
X369570Y454678D02*
X367619Y454290D01*
X365965Y453185D01*
X365212Y452057D01*
X363768D01*
X363015Y453185D01*
X361361Y454290D01*
X359410Y454678D01*
X357459Y454290D01*
X355805Y453185D01*
X355304Y452435D01*
X354125Y451915D01*
X353724Y452182D01*
X352471Y453020D01*
X350520Y453408D01*
X348569Y453020D01*
X346915Y451915D01*
X345810Y450261D01*
X345422Y448310D01*
X345810Y446359D01*
X346915Y444705D01*
X348569Y443600D01*
X350520Y443212D01*
X352471Y443600D01*
X354125Y444705D01*
X354626Y445455D01*
X355805Y445975D01*
X356206Y445708D01*
X357459Y444870D01*
X359410Y444482D01*
X361361Y444870D01*
X363015Y445975D01*
X363768Y447103D01*
X365212D01*
X365965Y445975D01*
X367619Y444870D01*
X369570Y444482D01*
X371521Y444870D01*
X373175Y445975D01*
X374280Y447629D01*
X374668Y449580D01*
X374280Y451531D01*
X373175Y453185D01*
X371521Y454290D01*
X369570Y454678D01*
D02*
G37*
G36*
X400000Y459098D02*
X398049Y458710D01*
X396395Y457605D01*
X395290Y455951D01*
X394902Y454000D01*
X395290Y452049D01*
X396395Y450395D01*
X398049Y449290D01*
X400000Y448902D01*
X401951Y449290D01*
X403605Y450395D01*
X404710Y452049D01*
X405098Y454000D01*
X404710Y455951D01*
X403605Y457605D01*
X401951Y458710D01*
X400000Y459098D01*
D02*
G37*
G36*
X378460Y464838D02*
X376509Y464450D01*
X374855Y463345D01*
X373750Y461691D01*
X373362Y459740D01*
X373750Y457789D01*
X374855Y456135D01*
X376509Y455030D01*
X378460Y454642D01*
X379342Y454817D01*
X379733Y454460D01*
X380240Y453701D01*
X379902Y452000D01*
X380290Y450049D01*
X381395Y448395D01*
X383049Y447290D01*
X385000Y446902D01*
X386951Y447290D01*
X388605Y448395D01*
X389710Y450049D01*
X390098Y452000D01*
X389710Y453951D01*
X388605Y455605D01*
X386951Y456710D01*
X385000Y457098D01*
X384118Y456923D01*
X383727Y457280D01*
X383220Y458039D01*
X383558Y459740D01*
X383170Y461691D01*
X382065Y463345D01*
X380411Y464450D01*
X378460Y464838D01*
D02*
G37*
G36*
X179000Y456098D02*
X177049Y455710D01*
X175395Y454605D01*
X174290Y452951D01*
X173902Y451000D01*
X174290Y449049D01*
X175395Y447395D01*
X177049Y446290D01*
X179000Y445902D01*
X180951Y446290D01*
X182605Y447395D01*
X183710Y449049D01*
X184098Y451000D01*
X183710Y452951D01*
X182605Y454605D01*
X180951Y455710D01*
X179000Y456098D01*
D02*
G37*
G36*
X236000Y455098D02*
X234049Y454710D01*
X232395Y453605D01*
X231290Y451951D01*
X230902Y450000D01*
X231290Y448049D01*
X232395Y446395D01*
X234049Y445290D01*
X236000Y444902D01*
X237951Y445290D01*
X239605Y446395D01*
X240710Y448049D01*
X241098Y450000D01*
X240710Y451951D01*
X239605Y453605D01*
X237951Y454710D01*
X236000Y455098D01*
D02*
G37*
G36*
X126000Y454098D02*
X124049Y453710D01*
X122395Y452605D01*
X121290Y450951D01*
X120902Y449000D01*
X121290Y447049D01*
X122395Y445395D01*
X124049Y444290D01*
X126000Y443902D01*
X127951Y444290D01*
X129605Y445395D01*
X130710Y447049D01*
X131098Y449000D01*
X130710Y450951D01*
X129605Y452605D01*
X127951Y453710D01*
X126000Y454098D01*
D02*
G37*
G36*
X154555Y452653D02*
X152604Y452265D01*
X150950Y451160D01*
X149845Y449506D01*
X149457Y447555D01*
X149845Y445604D01*
X150950Y443951D01*
X152604Y442845D01*
X154555Y442457D01*
X156506Y442845D01*
X158160Y443951D01*
X159265Y445604D01*
X159653Y447555D01*
X159265Y449506D01*
X158160Y451160D01*
X156506Y452265D01*
X154555Y452653D01*
D02*
G37*
G36*
X252999Y444097D02*
X251049Y443709D01*
X249395Y442604D01*
X248290Y440950D01*
X247901Y438999D01*
X248290Y437048D01*
X249395Y435394D01*
X251049Y434289D01*
X252999Y433901D01*
X254950Y434289D01*
X256604Y435394D01*
X257709Y437048D01*
X258097Y438999D01*
X257709Y440950D01*
X256604Y442604D01*
X254950Y443709D01*
X252999Y444097D01*
D02*
G37*
G36*
X495300Y438168D02*
X493349Y437780D01*
X491695Y436675D01*
X490590Y435021D01*
X490202Y433070D01*
X490590Y431119D01*
X491695Y429465D01*
X493349Y428360D01*
X495300Y427972D01*
X497251Y428360D01*
X498905Y429465D01*
X500010Y431119D01*
X500398Y433070D01*
X500010Y435021D01*
X498905Y436675D01*
X497251Y437780D01*
X495300Y438168D01*
D02*
G37*
G36*
X163000Y438098D02*
X161049Y437710D01*
X159395Y436605D01*
X158290Y434951D01*
X157902Y433000D01*
X158290Y431049D01*
X159395Y429395D01*
X161049Y428290D01*
X163000Y427902D01*
X164951Y428290D01*
X166605Y429395D01*
X167710Y431049D01*
X168098Y433000D01*
X167710Y434951D01*
X166605Y436605D01*
X164951Y437710D01*
X163000Y438098D01*
D02*
G37*
G36*
X109000Y437098D02*
X107049Y436710D01*
X105395Y435605D01*
X104290Y433951D01*
X103902Y432000D01*
X104290Y430049D01*
X105395Y428395D01*
X107049Y427290D01*
X109000Y426902D01*
X110951Y427290D01*
X112605Y428395D01*
X113710Y430049D01*
X114098Y432000D01*
X113710Y433951D01*
X112605Y435605D01*
X110951Y436710D01*
X109000Y437098D01*
D02*
G37*
G36*
X188055Y419153D02*
X186104Y418765D01*
X184450Y417660D01*
X183345Y416006D01*
X182957Y414055D01*
X183345Y412104D01*
X184450Y410451D01*
X186104Y409345D01*
X188055Y408957D01*
X190006Y409345D01*
X191660Y410451D01*
X192765Y412104D01*
X193153Y414055D01*
X192765Y416006D01*
X191660Y417660D01*
X190006Y418765D01*
X188055Y419153D01*
D02*
G37*
G36*
X147000Y418098D02*
X145049Y417710D01*
X143395Y416605D01*
X142290Y414951D01*
X141902Y413000D01*
X142290Y411049D01*
X143395Y409395D01*
X145049Y408290D01*
X147000Y407902D01*
X148951Y408290D01*
X150605Y409395D01*
X151710Y411049D01*
X152098Y413000D01*
X151710Y414951D01*
X150605Y416605D01*
X148951Y417710D01*
X147000Y418098D01*
D02*
G37*
G36*
X367000Y415098D02*
X365049Y414710D01*
X363395Y413605D01*
X362290Y411951D01*
X361902Y410000D01*
X362290Y408049D01*
X363395Y406395D01*
X365049Y405290D01*
X367000Y404902D01*
X368951Y405290D01*
X370605Y406395D01*
X371710Y408049D01*
X372098Y410000D01*
X371710Y411951D01*
X370605Y413605D01*
X368951Y414710D01*
X367000Y415098D01*
D02*
G37*
G36*
X10000Y417098D02*
X8049Y416710D01*
X6395Y415605D01*
X5290Y413951D01*
X4902Y412000D01*
X5290Y410049D01*
X6395Y408395D01*
X8049Y407290D01*
X10000Y406902D01*
X11951Y407290D01*
X11965Y407299D01*
X13138Y406813D01*
X13290Y406049D01*
X14395Y404395D01*
X16049Y403290D01*
X18000Y402902D01*
X19951Y403290D01*
X21605Y404395D01*
X22710Y406049D01*
X23098Y408000D01*
X22710Y409951D01*
X21605Y411605D01*
X19951Y412710D01*
X18000Y413098D01*
X16049Y412710D01*
X16035Y412701D01*
X14862Y413187D01*
X14710Y413951D01*
X13605Y415605D01*
X11951Y416710D01*
X10000Y417098D01*
D02*
G37*
G36*
X495300Y411498D02*
X493349Y411110D01*
X491695Y410005D01*
X490590Y408351D01*
X490202Y406400D01*
X490590Y404449D01*
X491695Y402795D01*
X493349Y401690D01*
X495300Y401302D01*
X497251Y401690D01*
X498905Y402795D01*
X500010Y404449D01*
X500398Y406400D01*
X500010Y408351D01*
X498905Y410005D01*
X497251Y411110D01*
X495300Y411498D01*
D02*
G37*
G36*
X283000Y408098D02*
X281049Y407710D01*
X279395Y406605D01*
X278290Y404951D01*
X277902Y403000D01*
X278290Y401049D01*
X279395Y399395D01*
X281049Y398290D01*
X283000Y397902D01*
X284951Y398290D01*
X286605Y399395D01*
X287710Y401049D01*
X288098Y403000D01*
X287710Y404951D01*
X286605Y406605D01*
X284951Y407710D01*
X283000Y408098D01*
D02*
G37*
G36*
X351000Y420098D02*
X349049Y419710D01*
X347395Y418605D01*
X346290Y416951D01*
X345902Y415000D01*
X346290Y413049D01*
X347395Y411395D01*
X349049Y410290D01*
X349797Y410141D01*
X350890Y409621D01*
X350719Y408762D01*
X350502Y407670D01*
X350890Y405719D01*
X351995Y404065D01*
X353649Y402960D01*
X353892Y402912D01*
X354290Y401951D01*
X353902Y400000D01*
X354290Y398049D01*
X355395Y396395D01*
X357049Y395290D01*
X359000Y394902D01*
X360951Y395290D01*
X362605Y396395D01*
X363710Y398049D01*
X364098Y400000D01*
X363710Y401951D01*
X362605Y403605D01*
X360951Y404710D01*
X360708Y404758D01*
X360310Y405719D01*
X360698Y407670D01*
X360310Y409621D01*
X359205Y411275D01*
X357551Y412380D01*
X356803Y412529D01*
X355710Y413049D01*
X355881Y413908D01*
X356098Y415000D01*
X355710Y416951D01*
X354605Y418605D01*
X352951Y419710D01*
X351000Y420098D01*
D02*
G37*
G36*
X297248Y389346D02*
X295297Y388958D01*
X293643Y387853D01*
X292538Y386199D01*
X292150Y384248D01*
X292538Y382297D01*
X293643Y380643D01*
X295297Y379538D01*
X297248Y379150D01*
X299199Y379538D01*
X300853Y380643D01*
X301958Y382297D01*
X302346Y384248D01*
X301958Y386199D01*
X300853Y387853D01*
X299199Y388958D01*
X297248Y389346D01*
D02*
G37*
G36*
X203200Y386098D02*
X201249Y385710D01*
X199595Y384605D01*
X198490Y382951D01*
X198102Y381000D01*
X198490Y379049D01*
X199595Y377395D01*
X201249Y376290D01*
X203200Y375902D01*
X205151Y376290D01*
X206805Y377395D01*
X207910Y379049D01*
X208298Y381000D01*
X207910Y382951D01*
X206805Y384605D01*
X205151Y385710D01*
X203200Y386098D01*
D02*
G37*
G36*
X191419Y373517D02*
X189468Y373129D01*
X187815Y372024D01*
X186709Y370370D01*
X186321Y368419D01*
X186709Y366469D01*
X187815Y364815D01*
X189468Y363709D01*
X191419Y363321D01*
X193370Y363709D01*
X195024Y364815D01*
X196129Y366469D01*
X196517Y368419D01*
X196129Y370370D01*
X195024Y372024D01*
X193370Y373129D01*
X191419Y373517D01*
D02*
G37*
G36*
X367030Y370858D02*
X365079Y370470D01*
X363425Y369365D01*
X362320Y367711D01*
X361932Y365760D01*
X362320Y363809D01*
X363425Y362155D01*
X365079Y361050D01*
X367030Y360662D01*
X368981Y361050D01*
X370635Y362155D01*
X371740Y363809D01*
X372128Y365760D01*
X371740Y367711D01*
X370635Y369365D01*
X368981Y370470D01*
X367030Y370858D01*
D02*
G37*
G36*
X351790D02*
X349839Y370470D01*
X348185Y369365D01*
X347080Y367711D01*
X346692Y365760D01*
X347080Y363809D01*
X348185Y362155D01*
X349839Y361050D01*
X351790Y360662D01*
X353741Y361050D01*
X355395Y362155D01*
X356500Y363809D01*
X356888Y365760D01*
X356500Y367711D01*
X355395Y369365D01*
X353741Y370470D01*
X351790Y370858D01*
D02*
G37*
G36*
X383540Y358158D02*
X381589Y357770D01*
X379935Y356665D01*
X378830Y355011D01*
X378442Y353060D01*
X378830Y351109D01*
X379935Y349455D01*
X381589Y348350D01*
X383540Y347962D01*
X385491Y348350D01*
X387145Y349455D01*
X388250Y351109D01*
X388638Y353060D01*
X388250Y355011D01*
X387145Y356665D01*
X385491Y357770D01*
X383540Y358158D01*
D02*
G37*
G36*
X312808Y373786D02*
X310857Y373398D01*
X309203Y372293D01*
X308098Y370639D01*
X307710Y368688D01*
X308098Y366737D01*
X309203Y365083D01*
X310857Y363978D01*
X312808Y363590D01*
X313749Y363777D01*
X314761Y363972D01*
X315129Y362855D01*
X315289Y362048D01*
X316395Y360395D01*
X318048Y359289D01*
X319999Y358901D01*
X320818Y359064D01*
X321901Y357999D01*
X322289Y356048D01*
X323395Y354394D01*
X325048Y353289D01*
X326999Y352901D01*
X327041Y351697D01*
X326902Y351000D01*
X327290Y349049D01*
X328395Y347395D01*
X330049Y346290D01*
X332000Y345902D01*
X333951Y346290D01*
X335605Y347395D01*
X336710Y349049D01*
X337098Y351000D01*
X336710Y352951D01*
X335605Y354605D01*
X333951Y355710D01*
X332000Y356098D01*
X331959Y357303D01*
X332097Y357999D01*
X331709Y359950D01*
X330604Y361604D01*
X328950Y362709D01*
X326999Y363097D01*
X326180Y362934D01*
X325097Y363999D01*
X324709Y365950D01*
X323604Y367604D01*
X321950Y368709D01*
X319999Y369097D01*
X319058Y368910D01*
X318047Y368715D01*
X317678Y369832D01*
X317518Y370639D01*
X316413Y372293D01*
X314759Y373398D01*
X312808Y373786D01*
D02*
G37*
G36*
X97000Y355097D02*
X95049Y354709D01*
X93395Y353604D01*
X92290Y351950D01*
X91902Y349999D01*
X92290Y348048D01*
X93395Y346395D01*
X95049Y345289D01*
X97000Y344901D01*
X98951Y345289D01*
X100605Y346395D01*
X101710Y348048D01*
X102098Y349999D01*
X101710Y351950D01*
X100605Y353604D01*
X98951Y354709D01*
X97000Y355097D01*
D02*
G37*
G36*
X457200Y354348D02*
X455249Y353960D01*
X453595Y352855D01*
X452490Y351201D01*
X452102Y349250D01*
X452490Y347299D01*
X453595Y345645D01*
X455249Y344540D01*
X457200Y344152D01*
X459151Y344540D01*
X460805Y345645D01*
X461910Y347299D01*
X462298Y349250D01*
X461910Y351201D01*
X460805Y352855D01*
X459151Y353960D01*
X457200Y354348D01*
D02*
G37*
G36*
X130800Y354298D02*
X128849Y353910D01*
X127195Y352805D01*
X126090Y351151D01*
X125702Y349200D01*
X126090Y347249D01*
X127195Y345595D01*
X128849Y344490D01*
X130800Y344102D01*
X132751Y344490D01*
X134405Y345595D01*
X135510Y347249D01*
X135898Y349200D01*
X135510Y351151D01*
X134405Y352805D01*
X132751Y353910D01*
X130800Y354298D01*
D02*
G37*
G36*
X253000Y353848D02*
X251049Y353460D01*
X249395Y352355D01*
X248290Y350701D01*
X247902Y348750D01*
X248290Y346799D01*
X249395Y345145D01*
X251049Y344040D01*
X253000Y343652D01*
X254951Y344040D01*
X256605Y345145D01*
X257710Y346799D01*
X258098Y348750D01*
X257710Y350701D01*
X256605Y352355D01*
X254951Y353460D01*
X253000Y353848D01*
D02*
G37*
G36*
X191000Y351098D02*
X189049Y350710D01*
X187395Y349605D01*
X186290Y347951D01*
X185902Y346000D01*
X186290Y344049D01*
X187395Y342395D01*
X189049Y341290D01*
X191000Y340902D01*
X192951Y341290D01*
X194605Y342395D01*
X195710Y344049D01*
X196098Y346000D01*
X195710Y347951D01*
X194605Y349605D01*
X192951Y350710D01*
X191000Y351098D01*
D02*
G37*
G36*
X307999Y350098D02*
X306048Y349710D01*
X304394Y348605D01*
X303289Y346951D01*
X302901Y345000D01*
X303289Y343049D01*
X304394Y341395D01*
X306048Y340290D01*
X307999Y339902D01*
X309950Y340290D01*
X311604Y341395D01*
X312709Y343049D01*
X313097Y345000D01*
X312709Y346951D01*
X311604Y348605D01*
X309950Y349710D01*
X307999Y350098D01*
D02*
G37*
G36*
X372110Y346728D02*
X370159Y346340D01*
X368505Y345235D01*
X367400Y343581D01*
X367012Y341630D01*
X367400Y339679D01*
X368505Y338025D01*
X370159Y336920D01*
X372110Y336532D01*
X374061Y336920D01*
X375715Y338025D01*
X376820Y339679D01*
X377208Y341630D01*
X376820Y343581D01*
X375715Y345235D01*
X374061Y346340D01*
X372110Y346728D01*
D02*
G37*
G36*
X295999Y355097D02*
X294049Y354709D01*
X292395Y353604D01*
X291290Y351950D01*
X290902Y349999D01*
X291290Y348048D01*
X292395Y346395D01*
Y345561D01*
X291411Y344905D01*
X290306Y343251D01*
X289918Y341300D01*
X290306Y339349D01*
X291411Y337695D01*
X293065Y336590D01*
X295016Y336202D01*
X296967Y336590D01*
X298621Y337695D01*
X299726Y339349D01*
X300114Y341300D01*
X299726Y343251D01*
X298621Y344905D01*
Y345738D01*
X299604Y346395D01*
X300709Y348048D01*
X301097Y349999D01*
X300709Y351950D01*
X299604Y353604D01*
X297950Y354709D01*
X295999Y355097D01*
D02*
G37*
G36*
X436000Y344098D02*
X434049Y343710D01*
X432395Y342605D01*
X431290Y340951D01*
X430902Y339000D01*
X431290Y337049D01*
X432395Y335395D01*
X434049Y334290D01*
X436000Y333902D01*
X437951Y334290D01*
X439605Y335395D01*
X440710Y337049D01*
X441098Y339000D01*
X440710Y340951D01*
X439605Y342605D01*
X437951Y343710D01*
X436000Y344098D01*
D02*
G37*
G36*
X419000D02*
X417049Y343710D01*
X415395Y342605D01*
X414290Y340951D01*
X413902Y339000D01*
X414290Y337049D01*
X415395Y335395D01*
X417049Y334290D01*
X419000Y333902D01*
X420951Y334290D01*
X422605Y335395D01*
X423710Y337049D01*
X424098Y339000D01*
X423710Y340951D01*
X422605Y342605D01*
X420951Y343710D01*
X419000Y344098D01*
D02*
G37*
G36*
X159331Y342093D02*
X157380Y341705D01*
X155726Y340600D01*
X154621Y338946D01*
X154233Y336996D01*
X154621Y335045D01*
X155726Y333391D01*
X157380Y332286D01*
X159331Y331898D01*
X161282Y332286D01*
X162936Y333391D01*
X164041Y335045D01*
X164429Y336996D01*
X164041Y338946D01*
X162936Y340600D01*
X161282Y341705D01*
X159331Y342093D01*
D02*
G37*
G36*
X382270Y337838D02*
X380319Y337450D01*
X378665Y336345D01*
X377560Y334691D01*
X377172Y332740D01*
X377560Y330789D01*
X378665Y329135D01*
X380319Y328030D01*
X382270Y327642D01*
X384221Y328030D01*
X385875Y329135D01*
X386980Y330789D01*
X387368Y332740D01*
X386980Y334691D01*
X385875Y336345D01*
X384221Y337450D01*
X382270Y337838D01*
D02*
G37*
G36*
X257589Y328848D02*
X255639Y328460D01*
X253985Y327355D01*
X252880Y325701D01*
X252491Y323750D01*
X252880Y321799D01*
X253985Y320145D01*
X255639Y319040D01*
X257589Y318652D01*
X259540Y319040D01*
X261194Y320145D01*
X262299Y321799D01*
X262687Y323750D01*
X262299Y325701D01*
X261194Y327355D01*
X259540Y328460D01*
X257589Y328848D01*
D02*
G37*
G36*
X76522Y334334D02*
X73977Y333999D01*
X71605Y333017D01*
X69568Y331454D01*
X68005Y329417D01*
X67023Y327045D01*
X66688Y324500D01*
X67023Y321955D01*
X68005Y319583D01*
X69568Y317546D01*
X71605Y315983D01*
X73977Y315001D01*
X76522Y314666D01*
X79067Y315001D01*
X81439Y315983D01*
X83476Y317546D01*
X85039Y319583D01*
X86021Y321955D01*
X86356Y324500D01*
X86021Y327045D01*
X85039Y329417D01*
X83476Y331454D01*
X81439Y333017D01*
X79067Y333999D01*
X76522Y334334D01*
D02*
G37*
G36*
X412750Y323868D02*
X410799Y323480D01*
X409145Y322375D01*
X408040Y320721D01*
X407652Y318770D01*
X408040Y316819D01*
X409145Y315165D01*
X410799Y314060D01*
X412750Y313672D01*
X414701Y314060D01*
X416355Y315165D01*
X417460Y316819D01*
X417848Y318770D01*
X417460Y320721D01*
X416355Y322375D01*
X414701Y323480D01*
X412750Y323868D01*
D02*
G37*
G36*
X382270Y322598D02*
X380319Y322210D01*
X378665Y321105D01*
X377560Y319451D01*
X377172Y317500D01*
X377560Y315549D01*
X378665Y313895D01*
X380319Y312790D01*
X382270Y312402D01*
X384221Y312790D01*
X385875Y313895D01*
X386980Y315549D01*
X387368Y317500D01*
X386980Y319451D01*
X385875Y321105D01*
X384221Y322210D01*
X382270Y322598D01*
D02*
G37*
G36*
X104922Y320634D02*
X102377Y320299D01*
X100005Y319317D01*
X97968Y317754D01*
X96405Y315717D01*
X95423Y313345D01*
X95088Y310800D01*
X95423Y308255D01*
X96405Y305883D01*
X97968Y303846D01*
X100005Y302283D01*
X102377Y301301D01*
X104922Y300966D01*
X107467Y301301D01*
X109839Y302283D01*
X111876Y303846D01*
X113439Y305883D01*
X114421Y308255D01*
X114756Y310800D01*
X114421Y313345D01*
X113439Y315717D01*
X111876Y317754D01*
X109839Y319317D01*
X107467Y320299D01*
X104922Y320634D01*
D02*
G37*
G36*
X251581Y304517D02*
X249630Y304129D01*
X247976Y303024D01*
X246871Y301370D01*
X246483Y299419D01*
X246871Y297468D01*
X247976Y295815D01*
X249630Y294709D01*
X251581Y294321D01*
X253531Y294709D01*
X255185Y295815D01*
X256290Y297468D01*
X256679Y299419D01*
X256290Y301370D01*
X255185Y303024D01*
X253531Y304129D01*
X251581Y304517D01*
D02*
G37*
G36*
X362919Y304017D02*
X360968Y303629D01*
X359314Y302524D01*
X358209Y300870D01*
X357821Y298919D01*
X358209Y296968D01*
X359314Y295314D01*
X360968Y294209D01*
X362919Y293821D01*
X364870Y294209D01*
X366524Y295314D01*
X367629Y296968D01*
X368017Y298919D01*
X367629Y300870D01*
X366524Y302524D01*
X364870Y303629D01*
X362919Y304017D01*
D02*
G37*
G36*
X418000Y302098D02*
X416049Y301710D01*
X414395Y300605D01*
X413290Y298951D01*
X412902Y297000D01*
X413290Y295049D01*
X414395Y293395D01*
X416049Y292290D01*
X418000Y291902D01*
X419951Y292290D01*
X421605Y293395D01*
X422710Y295049D01*
X423098Y297000D01*
X422710Y298951D01*
X421605Y300605D01*
X419951Y301710D01*
X418000Y302098D01*
D02*
G37*
G36*
X76522Y306934D02*
X73977Y306599D01*
X71605Y305617D01*
X69568Y304054D01*
X68005Y302017D01*
X67023Y299645D01*
X66688Y297100D01*
X67023Y294555D01*
X68005Y292183D01*
X69568Y290146D01*
X71605Y288583D01*
X73977Y287601D01*
X76522Y287266D01*
X79067Y287601D01*
X81439Y288583D01*
X83476Y290146D01*
X85039Y292183D01*
X86021Y294555D01*
X86356Y297100D01*
X86021Y299645D01*
X85039Y302017D01*
X83476Y304054D01*
X81439Y305617D01*
X79067Y306599D01*
X76522Y306934D01*
D02*
G37*
G36*
X330647Y296707D02*
X328696Y296319D01*
X327042Y295214D01*
X325937Y293560D01*
X325549Y291609D01*
X324435Y290696D01*
X323248Y290460D01*
X321595Y289355D01*
X320490Y287701D01*
X320302Y286758D01*
X318907Y285741D01*
X318770Y285768D01*
X316819Y285380D01*
X315165Y284275D01*
X314060Y282621D01*
X313672Y280670D01*
X314060Y278719D01*
X315165Y277065D01*
X316819Y275960D01*
X318770Y275572D01*
X320721Y275960D01*
X322375Y277065D01*
X323480Y278719D01*
X323667Y279662D01*
X325062Y280679D01*
X325199Y280652D01*
X327150Y281040D01*
X328804Y282145D01*
X329909Y283799D01*
X330297Y285750D01*
X331411Y286663D01*
X332598Y286899D01*
X334252Y288004D01*
X335357Y289658D01*
X335745Y291609D01*
X335357Y293560D01*
X334252Y295214D01*
X332598Y296319D01*
X330647Y296707D01*
D02*
G37*
G36*
X42000Y285098D02*
X40049Y284710D01*
X38395Y283605D01*
X37764Y282660D01*
X36236D01*
X35605Y283605D01*
X33951Y284710D01*
X32000Y285098D01*
X30049Y284710D01*
X28395Y283605D01*
X27290Y281951D01*
X26902Y280000D01*
X27290Y278049D01*
X28395Y276395D01*
X29340Y275764D01*
Y274236D01*
X28395Y273605D01*
X27290Y271951D01*
X26902Y270000D01*
X27290Y268049D01*
X28395Y266395D01*
X29340Y265764D01*
Y264236D01*
X28395Y263605D01*
X27290Y261951D01*
X26902Y260000D01*
X27290Y258049D01*
X28395Y256395D01*
X30049Y255290D01*
X32000Y254902D01*
X33951Y255290D01*
X35605Y256395D01*
X36236Y257340D01*
X37764D01*
X38395Y256395D01*
X40049Y255290D01*
X42000Y254902D01*
X43951Y255290D01*
X45605Y256395D01*
X46710Y258049D01*
X47098Y260000D01*
X46710Y261951D01*
X45605Y263605D01*
X43951Y264710D01*
X42000Y265098D01*
X40049Y264710D01*
X38395Y263605D01*
X37764Y262660D01*
X36236D01*
X35605Y263605D01*
X34660Y264236D01*
Y265764D01*
X35605Y266395D01*
X36710Y268049D01*
X37098Y270000D01*
X36710Y271951D01*
X35605Y273605D01*
X34660Y274236D01*
Y275764D01*
X35605Y276395D01*
X36236Y277340D01*
X37764D01*
X38395Y276395D01*
X40049Y275290D01*
X42000Y274902D01*
X43951Y275290D01*
X45605Y276395D01*
X46710Y278049D01*
X47098Y280000D01*
X46710Y281951D01*
X45605Y283605D01*
X43951Y284710D01*
X42000Y285098D01*
D02*
G37*
G36*
X427000Y292098D02*
X425049Y291710D01*
X423395Y290605D01*
X422290Y288951D01*
X421902Y287000D01*
X422290Y285049D01*
X423395Y283395D01*
X425049Y282290D01*
X427000Y281902D01*
X428951Y282290D01*
X430605Y283395D01*
X431710Y285049D01*
X432098Y287000D01*
X431710Y288951D01*
X430605Y290605D01*
X428951Y291710D01*
X427000Y292098D01*
D02*
G37*
G36*
X256419Y291679D02*
X254468Y291290D01*
X252815Y290185D01*
X251709Y288531D01*
X251321Y286581D01*
X251709Y284630D01*
X252815Y282976D01*
X254468Y281871D01*
X256419Y281483D01*
X258370Y281871D01*
X260024Y282976D01*
X261129Y284630D01*
X261517Y286581D01*
X261129Y288531D01*
X260024Y290185D01*
X258370Y291290D01*
X256419Y291679D01*
D02*
G37*
G36*
X191000Y291098D02*
X189049Y290710D01*
X187395Y289605D01*
X186290Y287951D01*
X185902Y286000D01*
X186290Y284049D01*
X187395Y282395D01*
X189049Y281290D01*
X191000Y280902D01*
X192951Y281290D01*
X194605Y282395D01*
X195710Y284049D01*
X196098Y286000D01*
X195710Y287951D01*
X194605Y289605D01*
X192951Y290710D01*
X191000Y291098D01*
D02*
G37*
G36*
X282000Y286098D02*
X280049Y285710D01*
X278395Y284605D01*
X277290Y282951D01*
X276902Y281000D01*
X277290Y279049D01*
X278395Y277395D01*
X280049Y276290D01*
X282000Y275902D01*
X283951Y276290D01*
X285605Y277395D01*
X286710Y279049D01*
X287098Y281000D01*
X286710Y282951D01*
X285605Y284605D01*
X283951Y285710D01*
X282000Y286098D01*
D02*
G37*
G36*
X393000Y285098D02*
X391049Y284710D01*
X389395Y283605D01*
X388290Y281951D01*
X387902Y280000D01*
X388290Y278049D01*
X389395Y276395D01*
X391049Y275290D01*
X393000Y274902D01*
X394951Y275290D01*
X396605Y276395D01*
X397710Y278049D01*
X398098Y280000D01*
X397710Y281951D01*
X396605Y283605D01*
X394951Y284710D01*
X393000Y285098D01*
D02*
G37*
G36*
X104922Y293234D02*
X102377Y292899D01*
X100005Y291917D01*
X97968Y290354D01*
X96405Y288317D01*
X95423Y285945D01*
X95088Y283400D01*
X95423Y280855D01*
X96405Y278483D01*
X97968Y276446D01*
X100005Y274883D01*
X102377Y273901D01*
X104922Y273566D01*
X107467Y273901D01*
X109839Y274883D01*
X111876Y276446D01*
X113439Y278483D01*
X114421Y280855D01*
X114756Y283400D01*
X114421Y285945D01*
X113439Y288317D01*
X111876Y290354D01*
X109839Y291917D01*
X107467Y292899D01*
X104922Y293234D01*
D02*
G37*
G36*
X338221Y283598D02*
X336270Y283210D01*
X334616Y282105D01*
X333511Y280451D01*
X333123Y278500D01*
X333511Y276549D01*
X334616Y274895D01*
X336270Y273790D01*
X338221Y273402D01*
X340172Y273790D01*
X341825Y274895D01*
X342930Y276549D01*
X343318Y278500D01*
X342930Y280451D01*
X341825Y282105D01*
X340172Y283210D01*
X338221Y283598D01*
D02*
G37*
G36*
X405000Y275098D02*
X403049Y274710D01*
X401395Y273605D01*
X400290Y271951D01*
X399902Y270000D01*
X400290Y268049D01*
X401395Y266395D01*
X403049Y265290D01*
X405000Y264902D01*
X406951Y265290D01*
X408605Y266395D01*
X409710Y268049D01*
X410098Y270000D01*
X409710Y271951D01*
X408605Y273605D01*
X406951Y274710D01*
X405000Y275098D01*
D02*
G37*
G36*
X436880Y271798D02*
X434929Y271410D01*
X433275Y270305D01*
X432170Y268651D01*
X431782Y266700D01*
X432170Y264749D01*
X433275Y263095D01*
X434929Y261990D01*
X436880Y261602D01*
X438831Y261990D01*
X440485Y263095D01*
X441590Y264749D01*
X441978Y266700D01*
X441590Y268651D01*
X440485Y270305D01*
X438831Y271410D01*
X436880Y271798D01*
D02*
G37*
G36*
X76522Y279534D02*
X73977Y279199D01*
X71605Y278217D01*
X69568Y276654D01*
X68005Y274617D01*
X67023Y272245D01*
X66688Y269700D01*
X67023Y267155D01*
X68005Y264783D01*
X69568Y262746D01*
X71605Y261183D01*
X73977Y260201D01*
X76522Y259866D01*
X79067Y260201D01*
X81439Y261183D01*
X83476Y262746D01*
X85039Y264783D01*
X86021Y267155D01*
X86356Y269700D01*
X86021Y272245D01*
X85039Y274617D01*
X83476Y276654D01*
X81439Y278217D01*
X79067Y279199D01*
X76522Y279534D01*
D02*
G37*
G36*
X218000Y265098D02*
X216049Y264710D01*
X214395Y263605D01*
X213290Y261951D01*
X212902Y260000D01*
X213290Y258049D01*
X214395Y256395D01*
X216049Y255290D01*
X218000Y254902D01*
X219951Y255290D01*
X221605Y256395D01*
X222710Y258049D01*
X223098Y260000D01*
X222710Y261951D01*
X221605Y263605D01*
X219951Y264710D01*
X218000Y265098D01*
D02*
G37*
G36*
X190000Y262098D02*
X188049Y261710D01*
X186395Y260605D01*
X185290Y258951D01*
X184902Y257000D01*
X185290Y255049D01*
X186395Y253395D01*
X188049Y252290D01*
X190000Y251902D01*
X191951Y252290D01*
X193605Y253395D01*
X194710Y255049D01*
X195098Y257000D01*
X194710Y258951D01*
X193605Y260605D01*
X191951Y261710D01*
X190000Y262098D01*
D02*
G37*
G36*
X293000Y261098D02*
X291049Y260710D01*
X289395Y259605D01*
X288290Y257951D01*
X287902Y256000D01*
X288290Y254049D01*
X289395Y252395D01*
X291049Y251290D01*
X293000Y250902D01*
X294951Y251290D01*
X296605Y252395D01*
X297710Y254049D01*
X298098Y256000D01*
X297710Y257951D01*
X296605Y259605D01*
X294951Y260710D01*
X293000Y261098D01*
D02*
G37*
G36*
X104922Y265834D02*
X102377Y265499D01*
X100005Y264517D01*
X97968Y262954D01*
X96405Y260917D01*
X95423Y258545D01*
X95088Y256000D01*
X95423Y253455D01*
X96405Y251083D01*
X97968Y249046D01*
X100005Y247483D01*
X102377Y246501D01*
X104922Y246166D01*
X107467Y246501D01*
X109839Y247483D01*
X111876Y249046D01*
X113439Y251083D01*
X114421Y253455D01*
X114756Y256000D01*
X114421Y258545D01*
X113439Y260917D01*
X111876Y262954D01*
X109839Y264517D01*
X107467Y265499D01*
X104922Y265834D01*
D02*
G37*
G36*
X317500Y255288D02*
X315549Y254900D01*
X313895Y253795D01*
X312790Y252141D01*
X312402Y250190D01*
X312790Y248239D01*
X313895Y246585D01*
X315549Y245480D01*
X317500Y245092D01*
X319451Y245480D01*
X321105Y246585D01*
X322210Y248239D01*
X322598Y250190D01*
X322210Y252141D01*
X321105Y253795D01*
X319451Y254900D01*
X317500Y255288D01*
D02*
G37*
G36*
X76522Y252134D02*
X73977Y251799D01*
X71605Y250817D01*
X69568Y249254D01*
X68005Y247217D01*
X67023Y244845D01*
X66688Y242300D01*
X67023Y239755D01*
X68005Y237383D01*
X69568Y235346D01*
X71605Y233783D01*
X73977Y232801D01*
X76522Y232466D01*
X79067Y232801D01*
X81439Y233783D01*
X83476Y235346D01*
X85039Y237383D01*
X86021Y239755D01*
X86356Y242300D01*
X86021Y244845D01*
X85039Y247217D01*
X83476Y249254D01*
X81439Y250817D01*
X79067Y251799D01*
X76522Y252134D01*
D02*
G37*
G36*
X368000Y238098D02*
X366049Y237710D01*
X364395Y236605D01*
X363290Y234951D01*
X362902Y233000D01*
X363290Y231049D01*
X364395Y229395D01*
X366049Y228290D01*
X368000Y227902D01*
X369951Y228290D01*
X371605Y229395D01*
X372710Y231049D01*
X373098Y233000D01*
X372710Y234951D01*
X371605Y236605D01*
X369951Y237710D01*
X368000Y238098D01*
D02*
G37*
G36*
X413000Y234848D02*
X411049Y234460D01*
X409395Y233355D01*
X408290Y231701D01*
X407902Y229750D01*
X408290Y227799D01*
X409395Y226145D01*
X411049Y225040D01*
X413000Y224652D01*
X414951Y225040D01*
X416605Y226145D01*
X417710Y227799D01*
X418098Y229750D01*
X417710Y231701D01*
X416605Y233355D01*
X414951Y234460D01*
X413000Y234848D01*
D02*
G37*
G36*
X245000Y232098D02*
X243049Y231710D01*
X241395Y230605D01*
X240290Y228951D01*
X239902Y227000D01*
X240290Y225049D01*
X241395Y223395D01*
X243049Y222290D01*
X245000Y221902D01*
X246951Y222290D01*
X248605Y223395D01*
X249710Y225049D01*
X250098Y227000D01*
X249710Y228951D01*
X248605Y230605D01*
X246951Y231710D01*
X245000Y232098D01*
D02*
G37*
G36*
X176000Y236078D02*
X173650Y235768D01*
X171461Y234862D01*
X169581Y233419D01*
X168139Y231539D01*
X167232Y229349D01*
X166922Y227000D01*
X167232Y224650D01*
X168139Y222461D01*
X169581Y220581D01*
X171461Y219139D01*
X173650Y218232D01*
X176000Y217922D01*
X178349Y218232D01*
X180539Y219139D01*
X182419Y220581D01*
X183862Y222461D01*
X184768Y224650D01*
X185078Y227000D01*
X184768Y229349D01*
X183862Y231539D01*
X182419Y233419D01*
X180539Y234862D01*
X178349Y235768D01*
X176000Y236078D01*
D02*
G37*
G36*
X302000Y218098D02*
X300049Y217710D01*
X298395Y216605D01*
X297290Y214951D01*
X296902Y213000D01*
X297290Y211049D01*
X298395Y209395D01*
X300049Y208290D01*
X302000Y207902D01*
X303951Y208290D01*
X305605Y209395D01*
X306710Y211049D01*
X307098Y213000D01*
X306710Y214951D01*
X305605Y216605D01*
X303951Y217710D01*
X302000Y218098D01*
D02*
G37*
G36*
X440000Y213098D02*
X438049Y212710D01*
X436395Y211605D01*
X435290Y209951D01*
X434902Y208000D01*
X435290Y206049D01*
X436395Y204395D01*
X438049Y203290D01*
X440000Y202902D01*
X441951Y203290D01*
X443605Y204395D01*
X444710Y206049D01*
X445098Y208000D01*
X444710Y209951D01*
X443605Y211605D01*
X441951Y212710D01*
X440000Y213098D01*
D02*
G37*
G36*
X218000Y205098D02*
X216049Y204710D01*
X214395Y203605D01*
X213290Y201951D01*
X212902Y200000D01*
X213290Y198049D01*
X214395Y196395D01*
X216049Y195290D01*
X218000Y194902D01*
X219951Y195290D01*
X221605Y196395D01*
X222710Y198049D01*
X223098Y200000D01*
X222710Y201951D01*
X221605Y203605D01*
X219951Y204710D01*
X218000Y205098D01*
D02*
G37*
G36*
X430367Y204731D02*
X428416Y204342D01*
X426763Y203237D01*
X425658Y201583D01*
X425270Y199633D01*
X425658Y197682D01*
X426763Y196028D01*
X428416Y194923D01*
X430367Y194535D01*
X432318Y194923D01*
X433972Y196028D01*
X435077Y197682D01*
X435465Y199633D01*
X435077Y201583D01*
X433972Y203237D01*
X432318Y204342D01*
X430367Y204731D01*
D02*
G37*
G36*
X495000Y198098D02*
X493049Y197710D01*
X491395Y196605D01*
X490290Y194951D01*
X489902Y193000D01*
X490290Y191049D01*
X491395Y189395D01*
X493049Y188290D01*
X495000Y187902D01*
X496951Y188290D01*
X498605Y189395D01*
X499710Y191049D01*
X500098Y193000D01*
X499710Y194951D01*
X498605Y196605D01*
X496951Y197710D01*
X495000Y198098D01*
D02*
G37*
G36*
X328000Y190098D02*
X326049Y189710D01*
X324395Y188605D01*
X323290Y186951D01*
X322902Y185000D01*
X323290Y183049D01*
X324395Y181395D01*
X326049Y180290D01*
X328000Y179902D01*
X329951Y180290D01*
X331605Y181395D01*
X332710Y183049D01*
X333098Y185000D01*
X332710Y186951D01*
X331605Y188605D01*
X329951Y189710D01*
X328000Y190098D01*
D02*
G37*
G36*
X310000D02*
X308049Y189710D01*
X306395Y188605D01*
X305290Y186951D01*
X304902Y185000D01*
X305290Y183049D01*
X306395Y181395D01*
X308049Y180290D01*
X310000Y179902D01*
X311951Y180290D01*
X313605Y181395D01*
X314710Y183049D01*
X315098Y185000D01*
X314710Y186951D01*
X313605Y188605D01*
X311951Y189710D01*
X310000Y190098D01*
D02*
G37*
G36*
X104922Y183634D02*
X102377Y183299D01*
X100005Y182317D01*
X97968Y180754D01*
X96405Y178717D01*
X95423Y176345D01*
X95088Y173800D01*
X95423Y171255D01*
X96405Y168883D01*
X97968Y166846D01*
X100005Y165283D01*
X102377Y164301D01*
X104922Y163966D01*
X107467Y164301D01*
X109839Y165283D01*
X111876Y166846D01*
X113439Y168883D01*
X114421Y171255D01*
X114756Y173800D01*
X114421Y176345D01*
X113439Y178717D01*
X111876Y180754D01*
X109839Y182317D01*
X107467Y183299D01*
X104922Y183634D01*
D02*
G37*
G36*
X555600Y176595D02*
X552728Y176217D01*
X550052Y175109D01*
X547755Y173346D01*
X545992Y171048D01*
X544883Y168372D01*
X544505Y165500D01*
X544883Y162629D01*
X545992Y159953D01*
X547755Y157655D01*
X550052Y155892D01*
X552728Y154784D01*
X555600Y154405D01*
X558471Y154784D01*
X561147Y155892D01*
X563445Y157655D01*
X565208Y159953D01*
X566317Y162629D01*
X566695Y165500D01*
X566317Y168372D01*
X565208Y171048D01*
X563445Y173346D01*
X561147Y175109D01*
X558471Y176217D01*
X555600Y176595D01*
D02*
G37*
G36*
X76522Y169934D02*
X73977Y169599D01*
X71605Y168617D01*
X69568Y167054D01*
X68005Y165017D01*
X67023Y162645D01*
X66688Y160100D01*
X67023Y157555D01*
X68005Y155183D01*
X69568Y153146D01*
X71605Y151583D01*
X73977Y150601D01*
X76522Y150266D01*
X79067Y150601D01*
X81439Y151583D01*
X83476Y153146D01*
X85039Y155183D01*
X86021Y157555D01*
X86356Y160100D01*
X86021Y162645D01*
X85039Y165017D01*
X83476Y167054D01*
X81439Y168617D01*
X79067Y169599D01*
X76522Y169934D01*
D02*
G37*
G36*
X114672Y156150D02*
X95172D01*
Y136650D01*
X114672D01*
Y156150D01*
D02*
G37*
G36*
X260000Y167323D02*
X256620Y166991D01*
X253371Y166005D01*
X250376Y164404D01*
X247750Y162250D01*
X245596Y159624D01*
X243995Y156629D01*
X243009Y153380D01*
X242677Y150000D01*
X243009Y146620D01*
X243995Y143371D01*
X245596Y140376D01*
X247750Y137751D01*
X250376Y135596D01*
X253371Y133995D01*
X256620Y133010D01*
X260000Y132677D01*
X263380Y133010D01*
X266629Y133995D01*
X269624Y135596D01*
X272250Y137751D01*
X274404Y140376D01*
X276005Y143371D01*
X276991Y146620D01*
X277323Y150000D01*
X276991Y153380D01*
X276005Y156629D01*
X274404Y159624D01*
X272250Y162250D01*
X269624Y164404D01*
X266629Y166005D01*
X263380Y166991D01*
X260000Y167323D01*
D02*
G37*
G36*
X555599Y151196D02*
X552728Y150818D01*
X550052Y149710D01*
X547754Y147947D01*
X545991Y145649D01*
X544882Y142973D01*
X544504Y140101D01*
X544882Y137230D01*
X545991Y134554D01*
X547754Y132256D01*
X550052Y130493D01*
X552728Y129384D01*
X555599Y129006D01*
X558471Y129384D01*
X561147Y130493D01*
X563444Y132256D01*
X565208Y134554D01*
X566316Y137230D01*
X566694Y140101D01*
X566316Y142973D01*
X565208Y145649D01*
X563444Y147947D01*
X561147Y149710D01*
X558471Y150818D01*
X555599Y151196D01*
D02*
G37*
G36*
X326999D02*
X324128Y150818D01*
X321452Y149710D01*
X319154Y147947D01*
X317391Y145649D01*
X316282Y142973D01*
X315904Y140101D01*
X316282Y137230D01*
X317391Y134554D01*
X319154Y132256D01*
X321452Y130493D01*
X324128Y129384D01*
X326999Y129006D01*
X329871Y129384D01*
X332547Y130493D01*
X334844Y132256D01*
X336608Y134554D01*
X337716Y137230D01*
X338094Y140101D01*
X337716Y142973D01*
X336608Y145649D01*
X334844Y147947D01*
X332547Y149710D01*
X329871Y150818D01*
X326999Y151196D01*
D02*
G37*
G36*
X244000Y134098D02*
X242049Y133710D01*
X240395Y132605D01*
X239290Y130951D01*
X238902Y129000D01*
X239290Y127049D01*
X240395Y125395D01*
X242049Y124290D01*
X244000Y123902D01*
X245951Y124290D01*
X247605Y125395D01*
X248710Y127049D01*
X249098Y129000D01*
X248710Y130951D01*
X247605Y132605D01*
X245951Y133710D01*
X244000Y134098D01*
D02*
G37*
G36*
X209252Y133947D02*
X207302Y133559D01*
X205648Y132454D01*
X204543Y130800D01*
X204154Y128849D01*
X204543Y126898D01*
X205648Y125244D01*
X207302Y124139D01*
X209252Y123751D01*
X211203Y124139D01*
X212857Y125244D01*
X213962Y126898D01*
X214350Y128849D01*
X213962Y130800D01*
X212857Y132454D01*
X211203Y133559D01*
X209252Y133947D01*
D02*
G37*
G36*
X190000Y118098D02*
X188049Y117710D01*
X186395Y116605D01*
X185290Y114951D01*
X184902Y113000D01*
X185290Y111049D01*
X186395Y109395D01*
X188049Y108290D01*
X190000Y107902D01*
X191951Y108290D01*
X193605Y109395D01*
X194710Y111049D01*
X195098Y113000D01*
X194710Y114951D01*
X193605Y116605D01*
X191951Y117710D01*
X190000Y118098D01*
D02*
G37*
G36*
X555601Y125794D02*
X552729Y125416D01*
X550053Y124308D01*
X547756Y122545D01*
X545992Y120247D01*
X544884Y117571D01*
X544506Y114700D01*
X544884Y111828D01*
X545992Y109152D01*
X547756Y106854D01*
X550053Y105091D01*
X552729Y103983D01*
X555601Y103605D01*
X558472Y103983D01*
X561148Y105091D01*
X563446Y106854D01*
X565209Y109152D01*
X566318Y111828D01*
X566696Y114700D01*
X566318Y117571D01*
X565209Y120247D01*
X563446Y122545D01*
X561148Y124308D01*
X558472Y125416D01*
X555601Y125794D01*
D02*
G37*
G36*
X327001D02*
X324129Y125416D01*
X321453Y124308D01*
X319156Y122545D01*
X317392Y120247D01*
X316284Y117571D01*
X315906Y114700D01*
X316284Y111828D01*
X317392Y109152D01*
X319156Y106854D01*
X321453Y105091D01*
X324129Y103983D01*
X327001Y103605D01*
X329872Y103983D01*
X332548Y105091D01*
X334846Y106854D01*
X336609Y109152D01*
X337718Y111828D01*
X338096Y114700D01*
X337718Y117571D01*
X336609Y120247D01*
X334846Y122545D01*
X332548Y124308D01*
X329872Y125416D01*
X327001Y125794D01*
D02*
G37*
G36*
X252000Y106561D02*
X250147Y106317D01*
X248419Y105602D01*
X246936Y104464D01*
X245798Y102981D01*
X245083Y101253D01*
X244839Y99400D01*
X245083Y97547D01*
X245798Y95819D01*
X246936Y94336D01*
X248419Y93198D01*
X250147Y92483D01*
X252000Y92239D01*
X253853Y92483D01*
X255581Y93198D01*
X257064Y94336D01*
X258202Y95819D01*
X258917Y97547D01*
X259161Y99400D01*
X258917Y101253D01*
X258202Y102981D01*
X257064Y104464D01*
X255581Y105602D01*
X253853Y106317D01*
X252000Y106561D01*
D02*
G37*
G36*
X162000D02*
X160147Y106317D01*
X158419Y105602D01*
X156936Y104464D01*
X155798Y102981D01*
X155083Y101253D01*
X154839Y99400D01*
X155083Y97547D01*
X155798Y95819D01*
X156936Y94336D01*
X158419Y93198D01*
X160147Y92483D01*
X162000Y92239D01*
X163853Y92483D01*
X165581Y93198D01*
X167064Y94336D01*
X168202Y95819D01*
X168917Y97547D01*
X169161Y99400D01*
X168917Y101253D01*
X168202Y102981D01*
X167064Y104464D01*
X165581Y105602D01*
X163853Y106317D01*
X162000Y106561D01*
D02*
G37*
G36*
X139750Y102098D02*
X137799Y101710D01*
X136145Y100605D01*
X135040Y98951D01*
X134652Y97000D01*
X135040Y95049D01*
X136145Y93395D01*
X137799Y92290D01*
X139750Y91902D01*
X141701Y92290D01*
X143355Y93395D01*
X144460Y95049D01*
X144848Y97000D01*
X144460Y98951D01*
X143355Y100605D01*
X141701Y101710D01*
X139750Y102098D01*
D02*
G37*
G36*
X116000D02*
X114049Y101710D01*
X112395Y100605D01*
X111290Y98951D01*
X110902Y97000D01*
X111290Y95049D01*
X112395Y93395D01*
X114049Y92290D01*
X116000Y91902D01*
X117951Y92290D01*
X119605Y93395D01*
X120710Y95049D01*
X121098Y97000D01*
X120710Y98951D01*
X119605Y100605D01*
X117951Y101710D01*
X116000Y102098D01*
D02*
G37*
G36*
X510000Y117323D02*
X506620Y116990D01*
X503371Y116005D01*
X500376Y114404D01*
X497751Y112249D01*
X495596Y109624D01*
X493995Y106629D01*
X493009Y103380D01*
X492677Y100000D01*
X493009Y96620D01*
X493995Y93371D01*
X495596Y90376D01*
X497751Y87751D01*
X500376Y85596D01*
X503371Y83995D01*
X506620Y83010D01*
X510000Y82677D01*
X513380Y83010D01*
X516629Y83995D01*
X519624Y85596D01*
X522249Y87751D01*
X524404Y90376D01*
X526005Y93371D01*
X526991Y96620D01*
X527323Y100000D01*
X526991Y103380D01*
X526005Y106629D01*
X524404Y109624D01*
X522249Y112249D01*
X519624Y114404D01*
X516629Y116005D01*
X513380Y116990D01*
X510000Y117323D01*
D02*
G37*
G36*
X222000Y99935D02*
X219429Y99596D01*
X217033Y98604D01*
X214975Y97025D01*
X213396Y94967D01*
X212404Y92571D01*
X212065Y90000D01*
X212404Y87429D01*
X213396Y85033D01*
X214975Y82975D01*
X217033Y81396D01*
X219429Y80403D01*
X222000Y80065D01*
X224571Y80403D01*
X226968Y81396D01*
X229025Y82975D01*
X230604Y85033D01*
X231596Y87429D01*
X231935Y90000D01*
X231596Y92571D01*
X230604Y94967D01*
X229025Y97025D01*
X226968Y98604D01*
X224571Y99596D01*
X222000Y99935D01*
D02*
G37*
G36*
X192000D02*
X189429Y99596D01*
X187033Y98604D01*
X184975Y97025D01*
X183396Y94967D01*
X182404Y92571D01*
X182065Y90000D01*
X182404Y87429D01*
X183396Y85033D01*
X184975Y82975D01*
X187033Y81396D01*
X189429Y80403D01*
X192000Y80065D01*
X194571Y80403D01*
X196968Y81396D01*
X199025Y82975D01*
X200604Y85033D01*
X201596Y87429D01*
X201935Y90000D01*
X201596Y92571D01*
X200604Y94967D01*
X199025Y97025D01*
X196968Y98604D01*
X194571Y99596D01*
X192000Y99935D01*
D02*
G37*
G36*
X555601Y100394D02*
X552729Y100016D01*
X550053Y98908D01*
X547756Y97145D01*
X545992Y94847D01*
X544884Y92171D01*
X544506Y89300D01*
X544884Y86428D01*
X545992Y83752D01*
X547756Y81454D01*
X550053Y79691D01*
X552729Y78583D01*
X555601Y78205D01*
X558472Y78583D01*
X561148Y79691D01*
X563446Y81454D01*
X565209Y83752D01*
X566318Y86428D01*
X566696Y89300D01*
X566318Y92171D01*
X565209Y94847D01*
X563446Y97145D01*
X561148Y98908D01*
X558472Y100016D01*
X555601Y100394D01*
D02*
G37*
G36*
X327001D02*
X324129Y100016D01*
X321453Y98908D01*
X319156Y97145D01*
X317392Y94847D01*
X316284Y92171D01*
X315906Y89300D01*
X316284Y86428D01*
X317392Y83752D01*
X319156Y81454D01*
X321453Y79691D01*
X324129Y78583D01*
X327001Y78205D01*
X329872Y78583D01*
X332548Y79691D01*
X334846Y81454D01*
X336609Y83752D01*
X337718Y86428D01*
X338096Y89300D01*
X337718Y92171D01*
X336609Y94847D01*
X334846Y97145D01*
X332548Y98908D01*
X329872Y100016D01*
X327001Y100394D01*
D02*
G37*
G36*
X459100Y91000D02*
X437100D01*
Y69000D01*
X459100D01*
Y91000D01*
D02*
G37*
G36*
X397300Y91095D02*
X394428Y90717D01*
X391753Y89608D01*
X389455Y87845D01*
X387691Y85547D01*
X386583Y82872D01*
X386205Y80000D01*
X386583Y77128D01*
X387691Y74453D01*
X389455Y72155D01*
X391753Y70392D01*
X394428Y69283D01*
X397300Y68905D01*
X400172Y69283D01*
X402848Y70392D01*
X405145Y72155D01*
X406908Y74453D01*
X408017Y77128D01*
X408395Y80000D01*
X408017Y82872D01*
X406908Y85547D01*
X405145Y87845D01*
X402848Y89608D01*
X400172Y90717D01*
X397300Y91095D01*
D02*
G37*
G36*
X352000Y65098D02*
X350049Y64710D01*
X348395Y63605D01*
X347290Y61951D01*
X346902Y60000D01*
X347290Y58049D01*
X348395Y56395D01*
X350049Y55290D01*
X352000Y54902D01*
X353951Y55290D01*
X355605Y56395D01*
X356710Y58049D01*
X357098Y60000D01*
X356710Y61951D01*
X355605Y63605D01*
X353951Y64710D01*
X352000Y65098D01*
D02*
G37*
G36*
X555601Y74995D02*
X552729Y74616D01*
X550053Y73508D01*
X547756Y71745D01*
X545992Y69447D01*
X544884Y66771D01*
X544506Y63900D01*
X544884Y61028D01*
X545992Y58352D01*
X547756Y56054D01*
X550053Y54291D01*
X552729Y53183D01*
X555601Y52805D01*
X558472Y53183D01*
X561148Y54291D01*
X563446Y56054D01*
X565209Y58352D01*
X566318Y61028D01*
X566696Y63900D01*
X566318Y66771D01*
X565209Y69447D01*
X563446Y71745D01*
X561148Y73508D01*
X558472Y74616D01*
X555601Y74995D01*
D02*
G37*
G36*
X327001D02*
X324129Y74616D01*
X321453Y73508D01*
X319156Y71745D01*
X317392Y69447D01*
X316284Y66771D01*
X315906Y63900D01*
X316284Y61028D01*
X317392Y58352D01*
X319156Y56054D01*
X321453Y54291D01*
X324129Y53183D01*
X327001Y52805D01*
X329872Y53183D01*
X332548Y54291D01*
X334846Y56054D01*
X336609Y58352D01*
X337718Y61028D01*
X338096Y63900D01*
X337718Y66771D01*
X336609Y69447D01*
X334846Y71745D01*
X332548Y73508D01*
X329872Y74616D01*
X327001Y74995D01*
D02*
G37*
G36*
X192000Y69935D02*
X189429Y69597D01*
X187033Y68604D01*
X184975Y67025D01*
X183396Y64967D01*
X182404Y62571D01*
X182065Y60000D01*
X182404Y57429D01*
X183396Y55033D01*
X184975Y52975D01*
X187033Y51396D01*
X189429Y50404D01*
X192000Y50065D01*
X194571Y50404D01*
X196968Y51396D01*
X199025Y52975D01*
X200604Y55033D01*
X201596Y57429D01*
X201935Y60000D01*
X201596Y62571D01*
X200604Y64967D01*
X199025Y67025D01*
X196968Y68604D01*
X194571Y69597D01*
X192000Y69935D01*
D02*
G37*
G36*
X566601Y49500D02*
X544601D01*
Y27500D01*
X566601D01*
Y49500D01*
D02*
G37*
G36*
X338001D02*
X316001D01*
Y27500D01*
X338001D01*
Y49500D01*
D02*
G37*
G36*
X352000Y53098D02*
X350049Y52710D01*
X348395Y51605D01*
X347290Y49951D01*
X346902Y48000D01*
X347290Y46049D01*
X348395Y44395D01*
X350049Y43290D01*
X350766Y43147D01*
Y41853D01*
X350049Y41710D01*
X348395Y40605D01*
X347290Y38951D01*
X346902Y37000D01*
X347290Y35049D01*
X348395Y33395D01*
X350049Y32290D01*
X350140Y32272D01*
Y30977D01*
X350049Y30959D01*
X348395Y29854D01*
X347290Y28200D01*
X346902Y26249D01*
X347290Y24298D01*
X348395Y22644D01*
X350049Y21539D01*
X352000Y21151D01*
X353951Y21539D01*
X355605Y22644D01*
X356710Y24298D01*
X357098Y26249D01*
X356710Y28200D01*
X355605Y29854D01*
X353951Y30959D01*
X353860Y30977D01*
Y32272D01*
X353951Y32290D01*
X355605Y33395D01*
X356710Y35049D01*
X357098Y37000D01*
X356710Y38951D01*
X355605Y40605D01*
X353951Y41710D01*
X353234Y41853D01*
Y43147D01*
X353951Y43290D01*
X355605Y44395D01*
X356710Y46049D01*
X357098Y48000D01*
X356710Y49951D01*
X355605Y51605D01*
X353951Y52710D01*
X352000Y53098D01*
D02*
G37*
G36*
X249897Y30999D02*
X227897D01*
Y8999D01*
X249897D01*
Y30999D01*
D02*
G37*
G36*
X137295Y31096D02*
X134424Y30718D01*
X131748Y29609D01*
X129450Y27846D01*
X127687Y25548D01*
X126579Y22872D01*
X126201Y20001D01*
X126579Y17129D01*
X127687Y14453D01*
X129450Y12156D01*
X131748Y10392D01*
X134424Y9284D01*
X137295Y8906D01*
X140167Y9284D01*
X142843Y10392D01*
X145141Y12156D01*
X146904Y14453D01*
X148012Y17129D01*
X148390Y20001D01*
X148012Y22872D01*
X146904Y25548D01*
X145141Y27846D01*
X142843Y29609D01*
X140167Y30718D01*
X137295Y31096D01*
D02*
G37*
G36*
X86497Y31095D02*
X83625Y30717D01*
X80949Y29609D01*
X78651Y27845D01*
X76888Y25547D01*
X75780Y22872D01*
X75402Y20000D01*
X75780Y17128D01*
X76888Y14453D01*
X78651Y12155D01*
X80949Y10391D01*
X83625Y9283D01*
X86497Y8905D01*
X89368Y9283D01*
X92044Y10391D01*
X94342Y12155D01*
X96105Y14453D01*
X97213Y17128D01*
X97591Y20000D01*
X97213Y22872D01*
X96105Y25547D01*
X94342Y27845D01*
X92044Y29609D01*
X89368Y30717D01*
X86497Y31095D01*
D02*
G37*
G36*
X213497Y31094D02*
X210625Y30716D01*
X207950Y29608D01*
X205652Y27845D01*
X203889Y25547D01*
X202780Y22871D01*
X202402Y19999D01*
X202780Y17128D01*
X203889Y14452D01*
X205652Y12154D01*
X207950Y10391D01*
X210625Y9282D01*
X213497Y8904D01*
X216369Y9282D01*
X219044Y10391D01*
X221342Y12154D01*
X223106Y14452D01*
X224214Y17128D01*
X224592Y19999D01*
X224214Y22871D01*
X223106Y25547D01*
X221342Y27845D01*
X219044Y29608D01*
X216369Y30716D01*
X213497Y31094D01*
D02*
G37*
G36*
X188097D02*
X185226Y30716D01*
X182550Y29608D01*
X180252Y27845D01*
X178489Y25547D01*
X177380Y22871D01*
X177002Y19999D01*
X177380Y17128D01*
X178489Y14452D01*
X180252Y12154D01*
X182550Y10391D01*
X185226Y9282D01*
X188097Y8904D01*
X190969Y9282D01*
X193645Y10391D01*
X195942Y12154D01*
X197705Y14452D01*
X198814Y17128D01*
X199192Y19999D01*
X198814Y22871D01*
X197705Y25547D01*
X195942Y27845D01*
X193645Y29608D01*
X190969Y30716D01*
X188097Y31094D01*
D02*
G37*
G36*
X390000Y15098D02*
X388049Y14710D01*
X386395Y13605D01*
X385290Y11951D01*
X384902Y10000D01*
X385290Y8049D01*
X386395Y6395D01*
X388049Y5290D01*
X390000Y4902D01*
X391951Y5290D01*
X393605Y6395D01*
X394710Y8049D01*
X395098Y10000D01*
X394710Y11951D01*
X393605Y13605D01*
X391951Y14710D01*
X390000Y15098D01*
D02*
G37*
G36*
X360000D02*
X358049Y14710D01*
X356395Y13605D01*
X355290Y11951D01*
X354902Y10000D01*
X355290Y8049D01*
X356395Y6395D01*
X358049Y5290D01*
X360000Y4902D01*
X361951Y5290D01*
X363605Y6395D01*
X364710Y8049D01*
X365098Y10000D01*
X364710Y11951D01*
X363605Y13605D01*
X361951Y14710D01*
X360000Y15098D01*
D02*
G37*
G36*
X330000D02*
X328049Y14710D01*
X326395Y13605D01*
X325290Y11951D01*
X324902Y10000D01*
X325290Y8049D01*
X326395Y6395D01*
X328049Y5290D01*
X330000Y4902D01*
X331951Y5290D01*
X333605Y6395D01*
X334710Y8049D01*
X335098Y10000D01*
X334710Y11951D01*
X333605Y13605D01*
X331951Y14710D01*
X330000Y15098D01*
D02*
G37*
G36*
X300000D02*
X298049Y14710D01*
X296395Y13605D01*
X295290Y11951D01*
X294902Y10000D01*
X295290Y8049D01*
X296395Y6395D01*
X298049Y5290D01*
X300000Y4902D01*
X301951Y5290D01*
X303605Y6395D01*
X304710Y8049D01*
X305098Y10000D01*
X304710Y11951D01*
X303605Y13605D01*
X301951Y14710D01*
X300000Y15098D01*
D02*
G37*
G36*
X270000D02*
X268049Y14710D01*
X266395Y13605D01*
X265290Y11951D01*
X264902Y10000D01*
X265290Y8049D01*
X266395Y6395D01*
X268049Y5290D01*
X270000Y4902D01*
X271951Y5290D01*
X273605Y6395D01*
X274710Y8049D01*
X275098Y10000D01*
X274710Y11951D01*
X273605Y13605D01*
X271951Y14710D01*
X270000Y15098D01*
D02*
G37*
%LPD*%
D46*
X222000Y60000D02*
D03*
D59*
X104922Y338200D02*
D03*
Y228600D02*
D03*
Y201200D02*
D03*
X76522Y187500D02*
D03*
Y214900D02*
D03*
X84000Y494800D02*
D03*
X58600Y520200D02*
D03*
D61*
X91000Y409000D02*
D03*
Y75800D02*
D03*
D62*
X327000Y165500D02*
D03*
X422700Y80000D02*
D03*
X371900D02*
D03*
X543500Y600000D02*
D03*
X492700Y600001D02*
D03*
X61097Y20000D02*
D03*
X162697Y19999D02*
D03*
X111896Y20000D02*
D03*
D66*
X480400Y515000D02*
D03*
D69*
X248000Y206000D02*
D03*
X346999Y278999D02*
D03*
X173000Y344000D02*
D03*
X65000Y315999D02*
D03*
X299000Y508000D02*
D03*
X274000Y377000D02*
D03*
X265000Y419000D02*
D03*
X455000Y260000D02*
D03*
X428000Y268000D02*
D03*
X385000Y238000D02*
D03*
X275306Y368855D02*
D03*
X247081Y397081D02*
D03*
X235081Y409081D02*
D03*
X255000Y268000D02*
D03*
X291000Y205000D02*
D03*
X338000Y200000D02*
D03*
X319000D02*
D03*
X137000Y355000D02*
D03*
X560000Y390000D02*
D03*
Y350000D02*
D03*
Y310000D02*
D03*
Y270000D02*
D03*
Y230000D02*
D03*
Y190000D02*
D03*
X386000Y410000D02*
D03*
X273000Y428000D02*
D03*
X263000Y430000D02*
D03*
X137000Y429000D02*
D03*
X314000Y456000D02*
D03*
X332000Y437000D02*
D03*
X330000Y507000D02*
D03*
X314000D02*
D03*
X137000Y405000D02*
D03*
Y380000D02*
D03*
X469000Y395000D02*
D03*
X448000Y328000D02*
D03*
X427976Y328123D02*
D03*
X470001Y299040D02*
D03*
X283000Y220000D02*
D03*
X352000Y485000D02*
D03*
X363000Y501000D02*
D03*
X355000D02*
D03*
X344000D02*
D03*
X395000Y400000D02*
D03*
X561000Y425000D02*
D03*
Y450000D02*
D03*
D70*
X176000Y151000D02*
D03*
M02*
