M48
;Layer_Color=9474304
;FILE_FORMAT=4:4
METRIC,LZ
;TYPE=PLATED
T1F00S00C0.3000
T2F00S00C1.0200
T3F00S00C1.0200
T4F00S00C1.0400
T5F00S00C3.0000
;TYPE=NON_PLATED
T6F00S00C2.9972
T7F00S00C3.0000
%
T01
X00087Y00094
X00116271Y0009789
X00165Y00089
X00178
X00196Y00109
X0016Y00117
X00141448Y00146941
X0017145Y0017145
Y0019177
X0017907Y002032
X00157Y00205
X00152Y00198
X00153Y00231
X00139Y00219
X00209205Y00219365
X00203Y00227
X0022225Y0023368
X002286Y002286
X00216Y00206
X00242Y00193
X00291Y00205
X00302Y00213
X00283Y0022
X00319Y002
X00338
X00328Y00185
X0031
X00368Y00168
X0037211Y00109728
X00381254Y00100584
X00360172
X0036Y0001
X0033
X003
X0027
X0039
X00192Y00161
X0056Y0019
Y0023
Y0027
Y0031
Y0035
Y0039
X00561Y00425
Y0045
X0056Y0048
Y0052
Y0056
Y006
X004953Y0045974
Y0043307
Y004064
X00469Y00395
X004572Y0034925
X00448Y00328
X00470001Y0029904
X0043688Y002667
X004504Y0048
X004Y00454
X00385Y00452
X0037846Y0045974
X0036957Y0044958
X0035941
X0035052Y0044831
X00352Y00476
X00361
X00352Y00485
X00355Y00501
X00363
X00344
X0033Y00507
X00314
Y00487
X0033
X00314Y00456
X00302Y0046
X00332Y00437
X00351Y00415
X003556Y0040767
X00359Y004
X00367Y0041
X00386
X00395Y004
X0038354Y0035306
X0038227Y0033274
Y003175
X0041275Y0031877
X00427976Y00328123
X00436Y00339
X00419
X00418Y00297
X00427Y00287
X00428Y00268
X00418Y00242
X00404Y0025
X00385
X00378Y00279
X00358Y0028
X00343745Y00281746
X00325199Y0028575
X0031877Y0028067
X0033125Y002921
X003Y00294
X00302Y00302
X00282Y00281
X00255Y00288
Y00296
Y00268
X00253Y00253
X00227
Y00261
X00216Y00253
X00172Y00246
X0014Y00246999
X0013875Y00256
X0014295Y002787
X00176Y00287
X00182852Y00307127
X00189Y00345
X00173Y00344
X0014605Y0033655
X00137Y00355
Y0038
Y00405
X00147Y00413
X00137Y00429
X00163Y00433
X00156Y00449
X00142Y00475
X00173Y00482
X00206759Y00492241
X00206Y0051
X00215Y00535
X00223Y00595
X00230748Y00612748
X00146Y0057
X0014Y00515
X00102353Y00418478
X00189Y00415
X002032Y00381
X00191419Y00368419
X00204Y00339
X00228092Y00330454
X00240665Y00331504
X00240065Y00344004
X00244581Y00353419
X00257589Y0032375
X00278Y00376
X00284999Y00369999
X00295Y00382
X0031242Y003683
X003175Y0036195
X0032385Y003556
X003302Y0034925
X0035179Y0036576
X0036703
X0037211Y0034163
X00361Y00297
X003175Y0025019
X0030226Y0025527
X00283Y00403
X00264Y00411
X00263Y0043
X00273Y00428
X00244Y0043
X0024Y00414
X00252Y00402
X00228Y00447
X00295Y00509
X001143Y0033655
X00115Y00302501
X00092Y00321
X00081Y00332
X0008Y00341
X00072Y00349
X00061Y0034
X0005Y00325
X00041Y00332
Y00316
X0005Y00307
X00048Y00373
X0001Y00357
X00019Y0042
X000325Y004335
X00021Y0062
X0029Y0064
X0033
X0037
X0041
X0045
X0049
X0053
X0056
T02
X00089501Y00125
X00119501
Y00155
Y00185
X00089501
Y00155
Y00215
X00119501
Y00245
Y00275
X00089501
Y00245
X000895Y00375
X001195
Y00405
Y00435
X000895
Y00405
Y00465
Y00495
Y00525
X001195
Y00495
Y00465
T03
X004504Y00515
Y00545
X004804
Y00515
T04
X00061097Y0002
X00086497
X00111896
X00137295Y00020001
X00162697Y00019999
X00188097
X00213497
X00238897
X00327001Y000385
Y000639
Y000893
Y001147
X00326999Y00140101
X00327Y001655
X003719Y0008
X003973
X004227
X004481
X00555601Y000893
Y001147
X00555599Y00140101
X005556Y001655
X00555601Y000639
Y000385
X005435Y006
X00518101Y00599999
X004927Y00600001
X004673
X004419
X004165
X00238897Y00629999
X00213497
X00188097
X00162697
X00137295Y00630001
X00111896Y0063
X00086497
X00061097
T05
X00046501Y001465
Y002535
X000465Y003965
Y005035
T06
X0026Y0015
X0051Y001
X004Y0055
X0026Y0052
T07
X005236Y0053
M30
