G04*
G04 #@! TF.GenerationSoftware,Altium Limited,Altium Designer,20.2.6 (244)*
G04*
G04 Layer_Color=8421504*
%FSLAX25Y25*%
%MOIN*%
G70*
G04*
G04 #@! TF.SameCoordinates,4CC05358-3F16-40D4-8D58-78DA4269A7D2*
G04*
G04*
G04 #@! TF.FilePolarity,Positive*
G04*
G01*
G75*
%ADD14R,0.03543X0.03543*%
%ADD15R,0.03543X0.03543*%
%ADD16R,0.10669X0.13386*%
%ADD17R,0.06102X0.02362*%
%ADD18R,0.04331X0.02362*%
%ADD19R,0.08740X0.04724*%
%ADD20C,0.03937*%
D14*
X101969Y181693D02*
D03*
Y174213D02*
D03*
X83071Y68701D02*
D03*
Y61221D02*
D03*
X53543Y188976D02*
D03*
Y181496D02*
D03*
X96063Y174213D02*
D03*
Y181693D02*
D03*
X90158Y174213D02*
D03*
Y181693D02*
D03*
X53543Y169685D02*
D03*
Y177165D02*
D03*
X7087Y57874D02*
D03*
Y65354D02*
D03*
X14173Y57874D02*
D03*
Y65354D02*
D03*
X76378Y76181D02*
D03*
Y68701D02*
D03*
X69685Y76181D02*
D03*
Y68701D02*
D03*
X83071Y53740D02*
D03*
Y46260D02*
D03*
X21260Y57874D02*
D03*
Y65354D02*
D03*
X48031Y67913D02*
D03*
Y60433D02*
D03*
D15*
X83661Y162598D02*
D03*
X76181D02*
D03*
X88976Y126772D02*
D03*
X96457D02*
D03*
X26575Y50787D02*
D03*
X34055D02*
D03*
X89370Y15748D02*
D03*
X96850D02*
D03*
X88976Y74803D02*
D03*
X96457D02*
D03*
D16*
X71260Y177165D02*
D03*
D17*
X81890Y169665D02*
D03*
Y174665D02*
D03*
Y179665D02*
D03*
Y184665D02*
D03*
X60630Y169665D02*
D03*
Y174665D02*
D03*
Y179665D02*
D03*
Y184665D02*
D03*
D18*
X28346Y65354D02*
D03*
Y61614D02*
D03*
Y57874D02*
D03*
X38976D02*
D03*
Y61614D02*
D03*
Y65354D02*
D03*
D19*
X57874Y74843D02*
D03*
Y66102D02*
D03*
D20*
X11811Y11811D02*
D03*
X7874Y181102D02*
D03*
X106299Y228346D02*
D03*
M02*
