G04*
G04 #@! TF.GenerationSoftware,Altium Limited,Altium Designer,20.2.6 (244)*
G04*
G04 Layer_Physical_Order=1*
G04 Layer_Color=255*
%FSLAX25Y25*%
%MOIN*%
G70*
G04*
G04 #@! TF.SameCoordinates,4CC05358-3F16-40D4-8D58-78DA4269A7D2*
G04*
G04*
G04 #@! TF.FilePolarity,Positive*
G04*
G01*
G75*
%ADD12C,0.01181*%
%ADD14R,0.03543X0.03543*%
%ADD15R,0.03543X0.03543*%
%ADD16R,0.10669X0.13386*%
%ADD17R,0.06102X0.02362*%
%ADD18R,0.04331X0.02362*%
%ADD19R,0.08740X0.04724*%
%ADD20C,0.03937*%
%ADD34R,0.03150X0.03150*%
%ADD35C,0.00984*%
%ADD36C,0.01968*%
%ADD37C,0.24410*%
%ADD38C,0.07087*%
%ADD39R,0.07087X0.07087*%
%ADD40P,0.05114X8X292.5*%
%ADD41C,0.12000*%
%ADD42P,0.05114X8X202.5*%
%ADD43C,0.02362*%
G36*
X98819Y164551D02*
Y160310D01*
X98473Y159906D01*
X98352Y159843D01*
X86857Y159843D01*
X86841Y159869D01*
X86614Y160310D01*
X86614Y171087D01*
X86925Y171398D01*
X87386Y171441D01*
X87386Y171441D01*
X87386Y171441D01*
X92803D01*
X92929Y171441D01*
X92929Y171441D01*
X93291Y171441D01*
X93291Y171441D01*
X93418Y171441D01*
X98819D01*
Y164551D01*
D02*
G37*
G36*
X81102Y160039D02*
X85865D01*
X85872Y160003D01*
X85891Y159975D01*
X85900Y159943D01*
X86127Y159502D01*
X86145Y159479D01*
X86155Y159452D01*
X86171Y159426D01*
X86236Y159355D01*
X86289Y159275D01*
X86340Y159240D01*
X86382Y159195D01*
X86470Y159154D01*
X86550Y159101D01*
X86610Y159089D01*
X86666Y159063D01*
X86762Y159058D01*
X86857Y159040D01*
X94658Y159040D01*
Y134440D01*
X89548Y129331D01*
X86417D01*
Y124213D01*
X89691D01*
X91991Y121912D01*
X92414Y121629D01*
X92913Y121530D01*
X110236D01*
X110735Y121629D01*
X111159Y121912D01*
X112869Y123622D01*
X115748D01*
X116732Y124606D01*
X118110Y124036D01*
Y77539D01*
X116732Y76968D01*
X115748Y77953D01*
X112598D01*
X111827Y77181D01*
X110449Y77378D01*
X110449Y77378D01*
X108374D01*
Y74803D01*
X107374D01*
Y77378D01*
X105621D01*
X105299Y77378D01*
X104009Y77165D01*
X99606D01*
X99606Y77165D01*
X99016Y77362D01*
Y77362D01*
X98310Y77362D01*
X93898D01*
Y73676D01*
X92520Y73105D01*
X91535Y74089D01*
Y77362D01*
X86417D01*
Y76108D01*
X81118D01*
X81118Y83071D01*
X81057Y83378D01*
X80883Y83639D01*
X80622Y83813D01*
X80315Y83874D01*
X49824Y83874D01*
X49323Y136828D01*
X49231Y163575D01*
X50204Y164551D01*
X73409D01*
Y163098D01*
X78953D01*
Y164551D01*
X81102D01*
Y160039D01*
D02*
G37*
G36*
X118110Y129508D02*
X116732Y128937D01*
X115748Y129921D01*
X112598D01*
X111827Y129150D01*
X110449Y129347D01*
X110449Y129347D01*
X108374D01*
Y126772D01*
X107374D01*
Y129347D01*
X105621D01*
X105299Y129347D01*
X104009Y129134D01*
X99606D01*
X99606Y129134D01*
X99016Y129331D01*
Y129331D01*
X98310Y129331D01*
X95471D01*
X94900Y130709D01*
X97056Y132865D01*
X97361Y133321D01*
X97468Y133858D01*
Y158098D01*
X98421Y159043D01*
X98539Y159077D01*
X98659Y159101D01*
X98688Y159120D01*
X98721Y159130D01*
X98843Y159193D01*
X98963Y159289D01*
X99084Y159384D01*
X99429Y159788D01*
X99491Y159898D01*
X99561Y160003D01*
X99567Y160034D01*
X99582Y160061D01*
X99597Y160186D01*
X99622Y160310D01*
Y164551D01*
X105512D01*
Y185827D01*
X85728D01*
Y186634D01*
X81435D01*
X81299Y186661D01*
X79496D01*
X75400Y190757D01*
X74944Y191062D01*
X74406Y191169D01*
X60406D01*
X49228Y202347D01*
Y229523D01*
X52180Y230328D01*
X52225Y230351D01*
X52276Y230361D01*
X52364Y230420D01*
X52460Y230468D01*
X52494Y230506D01*
X52536Y230535D01*
X52595Y230624D01*
X52665Y230704D01*
X52682Y230753D01*
X52710Y230795D01*
X52731Y230900D01*
X52765Y231001D01*
X52761Y231052D01*
X52771Y231102D01*
Y235074D01*
X52755Y235155D01*
X52758Y235195D01*
X52623Y236221D01*
X52758Y237246D01*
X52755Y237286D01*
X52771Y237367D01*
Y241732D01*
X52710Y242039D01*
X52536Y242300D01*
X52276Y242474D01*
X51968Y242535D01*
X40945D01*
X40638Y242474D01*
X40377Y242300D01*
X40261Y242126D01*
X39764D01*
Y240667D01*
X38386Y239987D01*
X38365Y240003D01*
X37312Y240440D01*
X36181Y240588D01*
X35051Y240440D01*
X33997Y240003D01*
X33092Y239309D01*
X32398Y238404D01*
X31962Y237351D01*
X31912Y236975D01*
X31890Y236803D01*
X30512Y236894D01*
Y240551D01*
X21850D01*
Y231890D01*
X30512D01*
Y235547D01*
X31890Y235638D01*
X31912Y235467D01*
X31962Y235090D01*
X32398Y234036D01*
X33092Y233132D01*
X33997Y232438D01*
X35051Y232001D01*
X36181Y231852D01*
X37312Y232001D01*
X38365Y232438D01*
X38386Y232453D01*
X39764Y231774D01*
Y70329D01*
X37814D01*
X37719Y70310D01*
X35011D01*
X34320Y70173D01*
X33734Y69781D01*
X32581Y68628D01*
X32492Y68495D01*
X31512Y67535D01*
X28846D01*
Y65354D01*
X27847D01*
Y67535D01*
X25181D01*
X24032Y68087D01*
Y68126D01*
X21760D01*
Y65354D01*
X20760D01*
Y68126D01*
X18488D01*
Y64961D01*
X16945D01*
Y68126D01*
X14673D01*
Y65354D01*
X13673D01*
Y68126D01*
X11402D01*
Y64961D01*
X9858D01*
Y68126D01*
X7587D01*
Y65354D01*
X6587D01*
Y68126D01*
X4315D01*
Y64961D01*
X0D01*
Y255906D01*
X118110D01*
Y129508D01*
D02*
G37*
G36*
X51968Y237367D02*
X51962Y237351D01*
X51813Y236221D01*
X51962Y235090D01*
X51968Y235074D01*
Y231102D01*
X47638Y229921D01*
X48127Y178235D01*
X47993Y177559D01*
X48141Y176815D01*
X48167Y174016D01*
X54331D01*
X54331Y165354D01*
X48249D01*
X49029Y83071D01*
X80315Y83071D01*
X80315Y72835D01*
X79921Y72441D01*
X51968D01*
X40945Y72441D01*
X40945Y241732D01*
X51968D01*
Y237367D01*
D02*
G37*
G36*
X118110Y72067D02*
Y18484D01*
X116732Y17913D01*
X115748Y18898D01*
X112598D01*
X112163Y18462D01*
X110843Y18323D01*
X110843Y18323D01*
X108768D01*
Y15748D01*
X107768D01*
Y18323D01*
X106015D01*
X105693Y18323D01*
X105693Y18323D01*
X104724Y18110D01*
X104724Y18110D01*
X100000D01*
X100000Y18110D01*
X99409Y18307D01*
Y18307D01*
X98704Y18307D01*
X96457D01*
Y33465D01*
X76772D01*
X76772Y52632D01*
X80512D01*
Y51181D01*
X85630D01*
Y56299D01*
X84376D01*
Y58661D01*
X85630D01*
Y63779D01*
X80512D01*
Y58661D01*
X81766D01*
Y56299D01*
X80512D01*
Y55242D01*
X49600D01*
X49595Y56898D01*
X50568Y57874D01*
X50591D01*
Y62992D01*
X50591D01*
X50477Y63379D01*
X51517Y64729D01*
X52716D01*
Y62953D01*
X63032D01*
Y69252D01*
X52716D01*
Y68342D01*
X50591D01*
Y70472D01*
X50591D01*
X51103Y71638D01*
X65604D01*
X66913Y71472D01*
X66913Y70260D01*
Y69201D01*
X69685D01*
Y68701D01*
X70185D01*
Y65929D01*
X72228D01*
X72457Y65929D01*
X73606D01*
X73835Y65929D01*
X75878D01*
Y68701D01*
X76878D01*
Y65929D01*
X79150D01*
Y66104D01*
X80512Y66142D01*
Y66142D01*
X85630D01*
Y71192D01*
X85855Y71493D01*
X86580Y72244D01*
X89691D01*
X93172Y68763D01*
X93595Y68480D01*
X94095Y68380D01*
X109055D01*
X109554Y68480D01*
X109978Y68763D01*
X112869Y71654D01*
X115748D01*
X116732Y72638D01*
X118110Y72067D01*
D02*
G37*
G36*
X27559Y17717D02*
X53380D01*
X53676Y17341D01*
X53990Y16339D01*
X53384Y15600D01*
X52754Y14421D01*
X52366Y13142D01*
X52235Y11811D01*
X52366Y10481D01*
X52754Y9201D01*
X53384Y8022D01*
X54233Y6988D01*
X55266Y6140D01*
X56445Y5510D01*
X57725Y5122D01*
X59055Y4991D01*
X60386Y5122D01*
X61665Y5510D01*
X62844Y6140D01*
X63583Y6746D01*
X64585Y6432D01*
X64961Y6136D01*
Y3937D01*
X96457D01*
Y9325D01*
X109055D01*
X109554Y9425D01*
X109978Y9707D01*
X112869Y12598D01*
X115748D01*
X116732Y13583D01*
X118110Y13012D01*
Y0D01*
X-0Y-0D01*
X0Y35433D01*
X14457D01*
X15127Y34055D01*
X14839Y33680D01*
X14403Y32627D01*
X14254Y31496D01*
X14403Y30365D01*
X14839Y29312D01*
X15533Y28407D01*
X16438Y27713D01*
X17492Y27277D01*
X18622Y27128D01*
X19753Y27277D01*
X20806Y27713D01*
X21711Y28407D01*
X22405Y29312D01*
X22841Y30365D01*
X22990Y31496D01*
X22841Y32627D01*
X22405Y33680D01*
X22117Y34055D01*
X22787Y35433D01*
X27559D01*
Y17717D01*
D02*
G37*
G36*
X25394Y59646D02*
X31299D01*
X31299Y59646D01*
X32540Y59314D01*
X32902Y58935D01*
X32947Y58830D01*
Y53347D01*
X31496D01*
Y48228D01*
X36614D01*
Y53347D01*
X35557D01*
Y54721D01*
X36024Y55905D01*
X40084D01*
X41339Y54651D01*
Y52756D01*
X43362D01*
X43398Y52732D01*
X43898Y52632D01*
X57459D01*
X57734Y51254D01*
X57076Y50982D01*
X55332Y49913D01*
X53777Y48585D01*
X52449Y47030D01*
X51380Y45287D01*
X50598Y43397D01*
X50120Y41409D01*
X49960Y39370D01*
X50120Y37331D01*
X50598Y35343D01*
X51380Y33454D01*
X52449Y31710D01*
X53777Y30155D01*
X55332Y28827D01*
X57076Y27758D01*
X58965Y26976D01*
X60953Y26498D01*
X62992Y26338D01*
X65031Y26498D01*
X67019Y26976D01*
X68909Y27758D01*
X70652Y28827D01*
X72207Y30155D01*
X73353Y31496D01*
X94488Y31496D01*
Y18307D01*
X94291D01*
Y13189D01*
X94488D01*
Y5906D01*
X86808D01*
X86614Y5944D01*
X86420Y5906D01*
X71060D01*
X70866Y5944D01*
X70672Y5906D01*
X66929D01*
Y19685D01*
X29528D01*
Y27247D01*
X29753Y27277D01*
X30806Y27713D01*
X31711Y28407D01*
X32405Y29312D01*
X32841Y30365D01*
X32990Y31496D01*
X32841Y32627D01*
X32405Y33680D01*
X31711Y34585D01*
X30806Y35279D01*
X29753Y35715D01*
X29528Y35745D01*
Y37402D01*
X0D01*
X-0Y62795D01*
X9843Y62795D01*
X25394D01*
Y59646D01*
D02*
G37*
%LPC*%
G36*
X78953Y162098D02*
X76681D01*
Y159827D01*
X78953D01*
Y162098D01*
D02*
G37*
G36*
X75681D02*
X73409D01*
Y159827D01*
X75681D01*
Y162098D01*
D02*
G37*
G36*
X94488Y250915D02*
X93158Y250784D01*
X91878Y250396D01*
X90699Y249765D01*
X89666Y248917D01*
X88817Y247884D01*
X88187Y246705D01*
X87799Y245425D01*
X87668Y244094D01*
X87799Y242764D01*
X88187Y241484D01*
X88817Y240305D01*
X89666Y239272D01*
X90699Y238424D01*
X91878Y237793D01*
X93158Y237405D01*
X94488Y237274D01*
X95819Y237405D01*
X97098Y237793D01*
X98277Y238424D01*
X99311Y239272D01*
X100159Y240305D01*
X100789Y241484D01*
X101177Y242764D01*
X101308Y244094D01*
X101177Y245425D01*
X100789Y246705D01*
X100159Y247884D01*
X99311Y248917D01*
X98277Y249765D01*
X97098Y250396D01*
X95819Y250784D01*
X94488Y250915D01*
D02*
G37*
G36*
X66181Y240588D02*
X65051Y240440D01*
X63997Y240003D01*
X63092Y239309D01*
X62398Y238404D01*
X61962Y237351D01*
X61813Y236221D01*
X61962Y235090D01*
X62398Y234036D01*
X63092Y233132D01*
X63997Y232438D01*
X65051Y232001D01*
X66181Y231852D01*
X67312Y232001D01*
X68365Y232438D01*
X69270Y233132D01*
X69964Y234036D01*
X70400Y235090D01*
X70549Y236221D01*
X70400Y237351D01*
X69964Y238404D01*
X69270Y239309D01*
X68365Y240003D01*
X67312Y240440D01*
X66181Y240588D01*
D02*
G37*
G36*
X106299Y231126D02*
X105580Y231031D01*
X104909Y230754D01*
X104334Y230312D01*
X103892Y229736D01*
X103614Y229066D01*
X103519Y228346D01*
X103614Y227627D01*
X103892Y226957D01*
X104334Y226381D01*
X104909Y225939D01*
X105580Y225661D01*
X106299Y225567D01*
X107019Y225661D01*
X107689Y225939D01*
X108265Y226381D01*
X108706Y226957D01*
X108984Y227627D01*
X109079Y228346D01*
X108984Y229066D01*
X108706Y229736D01*
X108265Y230312D01*
X107689Y230754D01*
X107019Y231031D01*
X106299Y231126D01*
D02*
G37*
G36*
X19685Y229568D02*
X17646Y229407D01*
X15658Y228930D01*
X13769Y228147D01*
X12025Y227079D01*
X10470Y225751D01*
X9142Y224196D01*
X8073Y222452D01*
X7291Y220563D01*
X6813Y218574D01*
X6653Y216535D01*
X6813Y214497D01*
X7291Y212508D01*
X8073Y210619D01*
X9142Y208875D01*
X10470Y207320D01*
X12025Y205992D01*
X13769Y204924D01*
X15658Y204141D01*
X17646Y203664D01*
X19685Y203503D01*
X21724Y203664D01*
X23712Y204141D01*
X25602Y204924D01*
X27345Y205992D01*
X28900Y207320D01*
X30228Y208875D01*
X31297Y210619D01*
X32079Y212508D01*
X32557Y214497D01*
X32717Y216535D01*
X32557Y218574D01*
X32079Y220563D01*
X31297Y222452D01*
X30228Y224196D01*
X28900Y225751D01*
X27345Y227079D01*
X25602Y228147D01*
X23712Y228930D01*
X21724Y229407D01*
X19685Y229568D01*
D02*
G37*
G36*
X7874Y183882D02*
X7155Y183787D01*
X6484Y183510D01*
X5909Y183068D01*
X5467Y182492D01*
X5189Y181822D01*
X5094Y181102D01*
X5189Y180383D01*
X5467Y179712D01*
X5909Y179137D01*
X6484Y178695D01*
X7155Y178417D01*
X7874Y178323D01*
X8593Y178417D01*
X9264Y178695D01*
X9839Y179137D01*
X10281Y179712D01*
X10559Y180383D01*
X10654Y181102D01*
X10559Y181822D01*
X10281Y182492D01*
X9839Y183068D01*
X9264Y183510D01*
X8593Y183787D01*
X7874Y183882D01*
D02*
G37*
G36*
X69185Y68201D02*
X66913D01*
Y65929D01*
X69185D01*
Y68201D01*
D02*
G37*
G36*
X85843Y49031D02*
X83571D01*
Y46760D01*
X85843D01*
Y49031D01*
D02*
G37*
G36*
X82571D02*
X80299D01*
Y46760D01*
X82571D01*
Y49031D01*
D02*
G37*
G36*
X85843Y45760D02*
X83571D01*
Y43488D01*
X85843D01*
Y45760D01*
D02*
G37*
G36*
X82571D02*
X80299D01*
Y43488D01*
X82571D01*
Y45760D01*
D02*
G37*
G36*
X11811Y14591D02*
X11092Y14496D01*
X10421Y14218D01*
X9845Y13777D01*
X9404Y13201D01*
X9126Y12530D01*
X9031Y11811D01*
X9126Y11092D01*
X9404Y10421D01*
X9845Y9845D01*
X10421Y9404D01*
X11092Y9126D01*
X11811Y9031D01*
X12530Y9126D01*
X13201Y9404D01*
X13777Y9845D01*
X14218Y10421D01*
X14496Y11092D01*
X14591Y11811D01*
X14496Y12530D01*
X14218Y13201D01*
X13777Y13777D01*
X13201Y14218D01*
X12530Y14496D01*
X11811Y14591D01*
D02*
G37*
%LPD*%
D12*
X88976Y126772D02*
X96063Y133858D01*
Y162598D01*
X77559Y74213D02*
X83071Y68701D01*
X59055Y189764D02*
X74406D01*
X78914Y185256D01*
X81299D01*
X81890Y184665D01*
X45477Y203342D02*
X59055Y189764D01*
X53543Y185433D02*
Y188976D01*
X60312Y184347D02*
X60630Y184665D01*
X56395Y184347D02*
X60312D01*
X53543Y181496D02*
X56395Y184347D01*
X96063Y181693D02*
X101969D01*
X84350Y175256D02*
Y175886D01*
X83760Y174665D02*
X84350Y175256D01*
X81890Y174665D02*
X83760D01*
X84350Y175886D02*
X90158Y181693D01*
X96063D01*
X90158Y170039D02*
X90531Y169665D01*
X96063Y173622D02*
X96063Y173622D01*
X60610Y169685D02*
X60630Y169665D01*
X46063Y236102D02*
X46181Y236221D01*
X114173Y181102D02*
Y196850D01*
Y149606D02*
Y165354D01*
Y204724D02*
Y220472D01*
Y236221D02*
Y251969D01*
X82677D02*
X98425D01*
X51181D02*
X66929D01*
X19685D02*
X35433D01*
X3937Y236221D02*
Y251969D01*
Y204724D02*
Y220472D01*
X86614Y3937D02*
X102362D01*
X55118D02*
X70866D01*
X23622D02*
X39370D01*
D14*
X101969Y181693D02*
D03*
Y174213D02*
D03*
X83071Y68701D02*
D03*
Y61221D02*
D03*
X53543Y188976D02*
D03*
Y181496D02*
D03*
X96063Y174213D02*
D03*
Y181693D02*
D03*
X90158Y174213D02*
D03*
Y181693D02*
D03*
X53543Y169685D02*
D03*
Y177165D02*
D03*
X7087Y57874D02*
D03*
Y65354D02*
D03*
X14173Y57874D02*
D03*
Y65354D02*
D03*
X76378Y76181D02*
D03*
Y68701D02*
D03*
X69685Y76181D02*
D03*
Y68701D02*
D03*
X83071Y53740D02*
D03*
Y46260D02*
D03*
X21260Y57874D02*
D03*
Y65354D02*
D03*
X48031Y67913D02*
D03*
Y60433D02*
D03*
D15*
X83661Y162598D02*
D03*
X76181D02*
D03*
X88976Y126772D02*
D03*
X96457D02*
D03*
X26575Y50787D02*
D03*
X34055D02*
D03*
X89370Y15748D02*
D03*
X96850D02*
D03*
X88976Y74803D02*
D03*
X96457D02*
D03*
D16*
X71260Y177165D02*
D03*
D17*
X81890Y169665D02*
D03*
Y174665D02*
D03*
Y179665D02*
D03*
Y184665D02*
D03*
X60630Y169665D02*
D03*
Y174665D02*
D03*
Y179665D02*
D03*
Y184665D02*
D03*
D18*
X28346Y65354D02*
D03*
Y61614D02*
D03*
Y57874D02*
D03*
X38976D02*
D03*
Y61614D02*
D03*
Y65354D02*
D03*
D19*
X57874Y74843D02*
D03*
Y66102D02*
D03*
D20*
X11811Y11811D02*
D03*
X7874Y181102D02*
D03*
X106299Y228346D02*
D03*
D34*
X107874Y126772D02*
D03*
X101969D02*
D03*
X108268Y15748D02*
D03*
X102362D02*
D03*
X107874Y74803D02*
D03*
X101969D02*
D03*
D35*
X77559Y74213D02*
X78150Y74803D01*
X88976D01*
X28346Y65354D02*
Y69291D01*
X92913Y122835D02*
X110236D01*
X88976Y126772D02*
X92913Y122835D01*
X110236D02*
X114173Y126772D01*
X43898Y53937D02*
X83071D01*
Y53740D02*
X83268Y53937D01*
X83071D02*
Y61221D01*
Y53740D02*
Y53937D01*
X102362Y174756D02*
Y177953D01*
X50000Y177559D02*
X53150D01*
X53543Y177165D01*
X53543Y177165D02*
X53543Y177165D01*
X101893Y174288D02*
X102362Y174756D01*
X100689Y172933D02*
X101969Y174213D01*
X76181Y162598D02*
X79528D01*
X39961Y57874D02*
X40650Y57185D01*
Y57185D02*
Y57185D01*
Y57185D02*
X43898Y53937D01*
X38976Y57874D02*
X39961D01*
X34252Y52067D02*
Y58888D01*
X36289Y60925D02*
X38287D01*
X34252Y58888D02*
X36289Y60925D01*
X38287D02*
X38976Y61614D01*
X33957Y51772D02*
X34252Y52067D01*
X38976Y65354D02*
X43110D01*
X48031Y60433D01*
X69685Y63583D02*
Y68701D01*
X76378D01*
Y63583D02*
Y68701D01*
X56043Y174665D02*
X60630D01*
X53543Y177165D02*
X56043Y174665D01*
X109055Y10630D02*
X114173Y15748D01*
X107874Y130709D02*
X107874Y130709D01*
X107874Y126772D02*
Y130709D01*
Y78740D02*
X107874Y78740D01*
X107874Y74803D02*
Y78740D01*
X96457Y126772D02*
X101969D01*
X96457Y74803D02*
X101969D01*
X108268Y19685D02*
X108268Y19685D01*
X108268Y15748D02*
Y19685D01*
X96850Y15748D02*
X102362D01*
X21260Y65354D02*
X28346D01*
X28346Y65354D01*
X14173Y65354D02*
X21260D01*
X7087D02*
X14173D01*
X7087D02*
Y68898D01*
X14173Y65354D02*
Y68898D01*
X21260Y65354D02*
Y68898D01*
X109055Y69685D02*
X114173Y74803D01*
X94095Y69685D02*
X109055D01*
X88976Y74803D02*
X94095Y69685D01*
X89370Y15748D02*
X94488Y10630D01*
X109055D01*
D36*
X96063Y170079D02*
Y174213D01*
X90158Y170039D02*
Y174213D01*
X83661Y162598D02*
X90158D01*
X81890Y169665D02*
X90531D01*
X47422Y68523D02*
X49409Y66535D01*
X57441D02*
X57874Y66102D01*
X49409Y66535D02*
X57441D01*
X35011Y68504D02*
X37795D01*
X33858Y63779D02*
Y67351D01*
X28346Y61614D02*
X28466Y61734D01*
X31812D01*
X33858Y63779D01*
Y67351D02*
X35011Y68504D01*
X37814Y68523D02*
X47422D01*
X37795Y68504D02*
X37814Y68523D01*
X53543Y169685D02*
X60610D01*
D37*
X19685Y216535D02*
D03*
X62992Y39370D02*
D03*
D38*
X76181Y236221D02*
D03*
X66181D02*
D03*
X36181D02*
D03*
X46181D02*
D03*
X56181D02*
D03*
X8622Y31496D02*
D03*
X18622D02*
D03*
X28622D02*
D03*
D39*
X26181Y236221D02*
D03*
X38622Y31496D02*
D03*
D40*
X114173Y15748D02*
D03*
Y126772D02*
D03*
Y3937D02*
D03*
D41*
X94488Y244094D02*
D03*
X59055Y11811D02*
D03*
D42*
X114173Y74803D02*
D03*
D43*
X28346Y69291D02*
D03*
X108268Y232283D02*
D03*
X102362Y220472D02*
D03*
X108268Y208661D02*
D03*
X102362Y196850D02*
D03*
X108268Y185039D02*
D03*
Y161417D02*
D03*
X102362Y149606D02*
D03*
X108268Y137795D02*
D03*
Y114173D02*
D03*
X102362Y102362D02*
D03*
X108268Y90551D02*
D03*
X102362Y78740D02*
D03*
X108268Y66929D02*
D03*
X102362Y55118D02*
D03*
X108268Y43307D02*
D03*
X102362Y31496D02*
D03*
Y7874D02*
D03*
X96457Y232283D02*
D03*
X90551Y220472D02*
D03*
X96457Y208661D02*
D03*
X90551Y149606D02*
D03*
X96457Y114173D02*
D03*
X90551Y102362D02*
D03*
X96457Y90551D02*
D03*
X90551Y78740D02*
D03*
X96457Y66929D02*
D03*
X90551Y55118D02*
D03*
X96457Y43307D02*
D03*
X78740Y244094D02*
D03*
X84646Y232283D02*
D03*
X78740Y220472D02*
D03*
Y149606D02*
D03*
X84646Y137795D02*
D03*
X78740Y125984D02*
D03*
X84646Y114173D02*
D03*
X78740Y102362D02*
D03*
X84646Y90551D02*
D03*
X66929Y244094D02*
D03*
Y196850D02*
D03*
Y149606D02*
D03*
X72835Y137795D02*
D03*
X66929Y125984D02*
D03*
X72835Y114173D02*
D03*
X66929Y102362D02*
D03*
X72835Y90551D02*
D03*
X55118Y244094D02*
D03*
Y220472D02*
D03*
X61024Y208661D02*
D03*
Y161417D02*
D03*
X55118Y149606D02*
D03*
X61024Y137795D02*
D03*
X55118Y125984D02*
D03*
X61024Y114173D02*
D03*
X55118Y102362D02*
D03*
X61024Y90551D02*
D03*
X43307Y244094D02*
D03*
Y7874D02*
D03*
X31496Y244094D02*
D03*
X37402Y208661D02*
D03*
X31496Y196850D02*
D03*
X37402Y185039D02*
D03*
X31496Y173228D02*
D03*
X37402Y161417D02*
D03*
X31496Y149606D02*
D03*
X37402Y137795D02*
D03*
X31496Y125984D02*
D03*
X37402Y114173D02*
D03*
X31496Y102362D02*
D03*
X37402Y90551D02*
D03*
X31496Y78740D02*
D03*
Y7874D02*
D03*
X19685Y244094D02*
D03*
Y196850D02*
D03*
X25591Y185039D02*
D03*
X19685Y173228D02*
D03*
X25591Y161417D02*
D03*
X19685Y149606D02*
D03*
X25591Y137795D02*
D03*
X19685Y125984D02*
D03*
X25591Y114173D02*
D03*
X19685Y102362D02*
D03*
X25591Y90551D02*
D03*
X19685Y78740D02*
D03*
X25591Y19685D02*
D03*
X19685Y7874D02*
D03*
X7874Y244094D02*
D03*
X13780Y232283D02*
D03*
X7874Y196850D02*
D03*
X13780Y185039D02*
D03*
X7874Y173228D02*
D03*
X13780Y161417D02*
D03*
X7874Y149606D02*
D03*
X13780Y137795D02*
D03*
X7874Y125984D02*
D03*
X13780Y114173D02*
D03*
X7874Y102362D02*
D03*
X13780Y90551D02*
D03*
X7874Y78740D02*
D03*
X13780Y19685D02*
D03*
X7874Y7874D02*
D03*
X53543Y185433D02*
D03*
X90158Y168110D02*
D03*
X102362Y177953D02*
D03*
X50000Y177559D02*
D03*
X96063Y162598D02*
D03*
X90158D02*
D03*
X96063Y168110D02*
D03*
X79528Y162598D02*
D03*
X69685Y63583D02*
D03*
X76378D02*
D03*
X73425Y172835D02*
D03*
X69095D02*
D03*
X73425Y177165D02*
D03*
X69095D02*
D03*
X73425Y181496D02*
D03*
X69095D02*
D03*
X114173Y196850D02*
D03*
Y181102D02*
D03*
Y165354D02*
D03*
Y149606D02*
D03*
Y133858D02*
D03*
Y9843D02*
D03*
Y204724D02*
D03*
Y220472D02*
D03*
Y236221D02*
D03*
Y251969D02*
D03*
X98425D02*
D03*
X82677D02*
D03*
X66929D02*
D03*
X51181D02*
D03*
X35433D02*
D03*
X19685D02*
D03*
X3937D02*
D03*
Y236221D02*
D03*
Y220472D02*
D03*
Y204724D02*
D03*
X102362Y3937D02*
D03*
X86614D02*
D03*
X70866D02*
D03*
X55118D02*
D03*
X39370D02*
D03*
X23622D02*
D03*
X7874D02*
D03*
X107874Y130709D02*
D03*
Y78740D02*
D03*
X108268Y19685D02*
D03*
X7087Y68898D02*
D03*
X14173D02*
D03*
X21260D02*
D03*
M02*
