G04*
G04 #@! TF.GenerationSoftware,Altium Limited,Altium Designer,20.2.6 (244)*
G04*
G04 Layer_Color=16711935*
%FSLAX44Y44*%
%MOMM*%
G71*
G04*
G04 #@! TF.SameCoordinates,D8BAA703-6470-441F-A09B-1F1B88CACBC1*
G04*
G04*
G04 #@! TF.FilePolarity,Negative*
G04*
G01*
G75*
%ADD44C,3.0000*%
%ADD45C,1.9000*%
%ADD46R,1.9000X1.9000*%
%ADD47R,1.9000X1.9000*%
%ADD48C,3.1480*%
%ADD49C,3.1000*%
%ADD50R,1.6300X1.6300*%
%ADD51C,1.6300*%
D44*
X320000Y560000D02*
D03*
X35000Y59000D02*
D03*
X548000Y332000D02*
D03*
D45*
X111896Y630000D02*
D03*
X137295Y630001D02*
D03*
X162697Y629999D02*
D03*
X188097D02*
D03*
X213497D02*
D03*
X86497Y630000D02*
D03*
X61097D02*
D03*
X327000Y165500D02*
D03*
X326999Y140101D02*
D03*
X327001Y114700D02*
D03*
Y89300D02*
D03*
Y63900D02*
D03*
X422700Y80000D02*
D03*
X397300D02*
D03*
X371900D02*
D03*
X119501Y275000D02*
D03*
X89501D02*
D03*
X119501Y245000D02*
D03*
X89501D02*
D03*
X119501Y215000D02*
D03*
X89501D02*
D03*
X119501Y185000D02*
D03*
X89501D02*
D03*
X119501Y155000D02*
D03*
X89501D02*
D03*
X119501Y125000D02*
D03*
X119500Y525000D02*
D03*
X89500D02*
D03*
X119500Y495000D02*
D03*
X89500D02*
D03*
X119500Y465000D02*
D03*
X89500D02*
D03*
X119500Y435000D02*
D03*
X89500D02*
D03*
X119500Y405000D02*
D03*
X89500D02*
D03*
X119500Y375000D02*
D03*
X441900Y600001D02*
D03*
X467300D02*
D03*
X492700D02*
D03*
X518101Y599999D02*
D03*
X543500Y600000D02*
D03*
X111896Y20000D02*
D03*
X137295Y20001D02*
D03*
X162697Y19999D02*
D03*
X188097D02*
D03*
X213497D02*
D03*
X86497Y20000D02*
D03*
X61097D02*
D03*
X555600Y165500D02*
D03*
X555599Y140101D02*
D03*
X555601Y114700D02*
D03*
Y89300D02*
D03*
Y63900D02*
D03*
D46*
X238897Y629999D02*
D03*
X448100Y80000D02*
D03*
X416500Y600001D02*
D03*
X238897Y19999D02*
D03*
D47*
X327001Y38500D02*
D03*
X89501Y125000D02*
D03*
X89500Y375000D02*
D03*
X555601Y38500D02*
D03*
D48*
X400000Y550000D02*
D03*
X260000Y520000D02*
D03*
Y150000D02*
D03*
X510000Y100000D02*
D03*
D49*
X46501Y146500D02*
D03*
Y253500D02*
D03*
X523600Y530000D02*
D03*
X46500Y396500D02*
D03*
Y503500D02*
D03*
D50*
X480400Y545000D02*
D03*
D51*
Y515000D02*
D03*
X450400Y545000D02*
D03*
Y515000D02*
D03*
M02*
