G04*
G04 #@! TF.GenerationSoftware,Altium Limited,Altium Designer,20.2.6 (244)*
G04*
G04 Layer_Color=8388736*
%FSLAX44Y44*%
%MOMM*%
G71*
G04*
G04 #@! TF.SameCoordinates,D8BAA703-6470-441F-A09B-1F1B88CACBC1*
G04*
G04*
G04 #@! TF.FilePolarity,Negative*
G04*
G01*
G75*
%ADD22R,0.9000X0.9000*%
%ADD29R,0.9000X0.9000*%
G04:AMPARAMS|DCode=31|XSize=1.71mm|YSize=0.68mm|CornerRadius=0.195mm|HoleSize=0mm|Usage=FLASHONLY|Rotation=180.000|XOffset=0mm|YOffset=0mm|HoleType=Round|Shape=RoundedRectangle|*
%AMROUNDEDRECTD31*
21,1,1.7100,0.2900,0,0,180.0*
21,1,1.3200,0.6800,0,0,180.0*
1,1,0.3900,-0.6600,0.1450*
1,1,0.3900,0.6600,0.1450*
1,1,0.3900,0.6600,-0.1450*
1,1,0.3900,-0.6600,-0.1450*
%
%ADD31ROUNDEDRECTD31*%
%ADD32R,0.4000X1.3000*%
%ADD33R,1.3000X0.4000*%
%ADD34R,3.1000X2.1000*%
%ADD35R,0.6000X1.7500*%
%ADD36R,1.0000X1.0000*%
%ADD37R,0.6300X1.4100*%
%ADD38O,1.5500X0.7000*%
%ADD39R,0.6300X0.3800*%
%ADD40R,0.3800X0.6300*%
%ADD41R,0.9000X0.6000*%
%ADD42R,2.2000X5.7000*%
%ADD43R,1.0000X1.0000*%
%ADD44C,3.0000*%
%ADD45C,1.9000*%
%ADD46R,1.9000X1.9000*%
%ADD47R,1.9000X1.9000*%
%ADD48C,3.1480*%
%ADD49C,3.1000*%
%ADD50R,1.6300X1.6300*%
%ADD51C,1.6300*%
D22*
X546340Y406400D02*
D03*
X561340D02*
D03*
X546340Y433070D02*
D03*
X561340D02*
D03*
X546340Y459740D02*
D03*
X561340D02*
D03*
D29*
X202500Y257522D02*
D03*
Y242522D02*
D03*
D31*
X142950Y287950D02*
D03*
Y300650D02*
D03*
Y313350D02*
D03*
Y326050D02*
D03*
X215050D02*
D03*
Y313350D02*
D03*
Y300650D02*
D03*
Y287950D02*
D03*
D32*
X377500Y267500D02*
D03*
X372501D02*
D03*
X367501D02*
D03*
X362500D02*
D03*
X357501D02*
D03*
X352500D02*
D03*
X347500D02*
D03*
X342501D02*
D03*
X337500D02*
D03*
X332501D02*
D03*
X327500D02*
D03*
X322500D02*
D03*
X317501D02*
D03*
X312500D02*
D03*
X307501D02*
D03*
X302501D02*
D03*
Y382500D02*
D03*
X307501D02*
D03*
X312500D02*
D03*
X317501D02*
D03*
X322500D02*
D03*
X327500D02*
D03*
X332501D02*
D03*
X337500D02*
D03*
X342501D02*
D03*
X347500D02*
D03*
X352500D02*
D03*
X357501D02*
D03*
X362500D02*
D03*
X367501D02*
D03*
X372501D02*
D03*
X377500D02*
D03*
D33*
X282501Y287500D02*
D03*
Y292500D02*
D03*
Y297500D02*
D03*
Y302500D02*
D03*
Y307500D02*
D03*
Y312500D02*
D03*
Y317500D02*
D03*
Y322500D02*
D03*
Y327500D02*
D03*
Y332500D02*
D03*
Y337500D02*
D03*
Y342500D02*
D03*
Y347500D02*
D03*
Y352500D02*
D03*
Y357500D02*
D03*
Y362500D02*
D03*
X397501D02*
D03*
Y357500D02*
D03*
Y352500D02*
D03*
Y347500D02*
D03*
Y342500D02*
D03*
Y337500D02*
D03*
Y332500D02*
D03*
Y327500D02*
D03*
Y322500D02*
D03*
Y317500D02*
D03*
Y312500D02*
D03*
Y307500D02*
D03*
Y302500D02*
D03*
Y297500D02*
D03*
Y292500D02*
D03*
Y287500D02*
D03*
D34*
X445516Y168906D02*
D03*
Y104906D02*
D03*
D35*
X146501Y146520D02*
D03*
X153000D02*
D03*
X159501D02*
D03*
X166000D02*
D03*
X172500D02*
D03*
X179000D02*
D03*
X185501D02*
D03*
X192001D02*
D03*
X146501Y219020D02*
D03*
X153000D02*
D03*
X159501D02*
D03*
X166000D02*
D03*
X172500D02*
D03*
X179000D02*
D03*
X185501D02*
D03*
X192001D02*
D03*
D36*
X371754Y100838D02*
D03*
X390754D02*
D03*
X474828Y58674D02*
D03*
X455828D02*
D03*
X272500Y402520D02*
D03*
X291501D02*
D03*
X272500Y419000D02*
D03*
X291500D02*
D03*
X436848Y238017D02*
D03*
X455848D02*
D03*
X417501Y252563D02*
D03*
X436501D02*
D03*
X531340Y406400D02*
D03*
X512340D02*
D03*
X531340Y433070D02*
D03*
X512340D02*
D03*
X531340Y459740D02*
D03*
X512340D02*
D03*
X386501Y400520D02*
D03*
X367501D02*
D03*
X376000Y250000D02*
D03*
X395000D02*
D03*
X159501Y240520D02*
D03*
X140500D02*
D03*
X137210Y439420D02*
D03*
X156210D02*
D03*
X291000Y193000D02*
D03*
X310000D02*
D03*
X347000Y193000D02*
D03*
X328000D02*
D03*
X69000Y316000D02*
D03*
X50000D02*
D03*
X156210Y464820D02*
D03*
X137210D02*
D03*
X156210Y414020D02*
D03*
X137210D02*
D03*
X262840Y439420D02*
D03*
X243840D02*
D03*
X137210Y388620D02*
D03*
X156210D02*
D03*
X137210Y363220D02*
D03*
X156210D02*
D03*
X262500Y368000D02*
D03*
X243500D02*
D03*
X244500Y384000D02*
D03*
X263500D02*
D03*
X122500Y321000D02*
D03*
X103500D02*
D03*
D37*
X309500Y213000D02*
D03*
Y237000D02*
D03*
X322000Y213000D02*
D03*
X334500D02*
D03*
X347000D02*
D03*
Y237000D02*
D03*
X334500D02*
D03*
X322000D02*
D03*
D38*
X173000Y439400D02*
D03*
Y426700D02*
D03*
Y414000D02*
D03*
Y401300D02*
D03*
Y388600D02*
D03*
Y375900D02*
D03*
Y363200D02*
D03*
Y350500D02*
D03*
X227500Y439400D02*
D03*
Y426700D02*
D03*
Y414000D02*
D03*
Y401300D02*
D03*
Y388600D02*
D03*
Y375900D02*
D03*
Y363200D02*
D03*
Y350500D02*
D03*
D39*
X344800Y467250D02*
D03*
Y471550D02*
D03*
Y475850D02*
D03*
Y480150D02*
D03*
Y484450D02*
D03*
Y488750D02*
D03*
Y493050D02*
D03*
X369200D02*
D03*
Y488750D02*
D03*
Y484450D02*
D03*
Y480150D02*
D03*
Y475850D02*
D03*
Y471550D02*
D03*
Y467250D02*
D03*
Y462950D02*
D03*
X344800D02*
D03*
D40*
X350550Y492700D02*
D03*
X354850D02*
D03*
X359150D02*
D03*
X363450D02*
D03*
Y463300D02*
D03*
X359150D02*
D03*
X354850D02*
D03*
X350550D02*
D03*
D41*
X72000Y332000D02*
D03*
X50000D02*
D03*
D42*
X505793Y366020D02*
D03*
Y271020D02*
D03*
D43*
X418501Y328520D02*
D03*
Y347520D02*
D03*
X437500Y328520D02*
D03*
Y347520D02*
D03*
X470500Y271020D02*
D03*
Y290020D02*
D03*
X469501Y366020D02*
D03*
Y385020D02*
D03*
X282501Y230520D02*
D03*
Y249520D02*
D03*
X185501Y238520D02*
D03*
Y257520D02*
D03*
X264501Y268520D02*
D03*
Y287520D02*
D03*
X417501Y268520D02*
D03*
Y287520D02*
D03*
X143000Y108500D02*
D03*
Y127500D02*
D03*
X212000Y152000D02*
D03*
Y133000D02*
D03*
X159500Y108562D02*
D03*
Y127563D02*
D03*
X185501Y108562D02*
D03*
Y127563D02*
D03*
X314000Y448000D02*
D03*
Y467000D02*
D03*
Y498000D02*
D03*
Y479000D02*
D03*
X330000Y497000D02*
D03*
Y478000D02*
D03*
Y447000D02*
D03*
Y466000D02*
D03*
X297674Y473500D02*
D03*
Y492500D02*
D03*
X242000Y221500D02*
D03*
Y202500D02*
D03*
X151000Y253500D02*
D03*
Y272500D02*
D03*
X163000D02*
D03*
Y253500D02*
D03*
D44*
X35000Y59000D02*
D03*
X548000Y332000D02*
D03*
X320000Y560000D02*
D03*
D45*
X111896Y630000D02*
D03*
X137295Y630001D02*
D03*
X162697Y629999D02*
D03*
X188097D02*
D03*
X213497D02*
D03*
X86497Y630000D02*
D03*
X61097D02*
D03*
X327000Y165500D02*
D03*
X326999Y140101D02*
D03*
X327001Y114700D02*
D03*
Y89300D02*
D03*
Y63900D02*
D03*
X422700Y80000D02*
D03*
X397300D02*
D03*
X371900D02*
D03*
X119501Y275000D02*
D03*
X89501D02*
D03*
X119501Y245000D02*
D03*
X89501D02*
D03*
X119501Y215000D02*
D03*
X89501D02*
D03*
X119501Y185000D02*
D03*
X89501D02*
D03*
X119501Y155000D02*
D03*
X89501D02*
D03*
X119501Y125000D02*
D03*
X119500Y525000D02*
D03*
X89500D02*
D03*
X119500Y495000D02*
D03*
X89500D02*
D03*
X119500Y465000D02*
D03*
X89500D02*
D03*
X119500Y435000D02*
D03*
X89500D02*
D03*
X119500Y405000D02*
D03*
X89500D02*
D03*
X119500Y375000D02*
D03*
X441900Y600001D02*
D03*
X467300D02*
D03*
X492700D02*
D03*
X518101Y599999D02*
D03*
X543500Y600000D02*
D03*
X111896Y20000D02*
D03*
X137295Y20001D02*
D03*
X162697Y19999D02*
D03*
X188097D02*
D03*
X213497D02*
D03*
X86497Y20000D02*
D03*
X61097D02*
D03*
X555600Y165500D02*
D03*
X555599Y140101D02*
D03*
X555601Y114700D02*
D03*
Y89300D02*
D03*
Y63900D02*
D03*
D46*
X238897Y629999D02*
D03*
X448100Y80000D02*
D03*
X416500Y600001D02*
D03*
X238897Y19999D02*
D03*
D47*
X327001Y38500D02*
D03*
X89501Y125000D02*
D03*
X89500Y375000D02*
D03*
X555601Y38500D02*
D03*
D48*
X400000Y550000D02*
D03*
X260000Y520000D02*
D03*
Y150000D02*
D03*
X510000Y100000D02*
D03*
D49*
X46501Y146500D02*
D03*
Y253500D02*
D03*
X523600Y530000D02*
D03*
X46500Y396500D02*
D03*
Y503500D02*
D03*
D50*
X480400Y545000D02*
D03*
D51*
Y515000D02*
D03*
X450400Y545000D02*
D03*
Y515000D02*
D03*
M02*
