G04*
G04 #@! TF.GenerationSoftware,Altium Limited,Altium Designer,20.2.6 (244)*
G04*
G04 Layer_Physical_Order=2*
G04 Layer_Color=36540*
%FSLAX44Y44*%
%MOMM*%
G71*
G04*
G04 #@! TF.SameCoordinates,D8BAA703-6470-441F-A09B-1F1B88CACBC1*
G04*
G04*
G04 #@! TF.FilePolarity,Positive*
G04*
G01*
G75*
%ADD54C,1.8000*%
%ADD56R,1.8000X1.8000*%
%ADD60C,1.5300*%
%ADD61C,0.6000*%
G36*
X570000Y0D02*
X0D01*
Y650000D01*
X570000Y650000D01*
Y0D01*
D02*
G37*
%LPC*%
G36*
X560000Y645098D02*
X558049Y644710D01*
X556395Y643605D01*
X555290Y641951D01*
X554902Y640000D01*
X555290Y638049D01*
X556395Y636395D01*
X558049Y635290D01*
X560000Y634902D01*
X561951Y635290D01*
X563605Y636395D01*
X564710Y638049D01*
X565098Y640000D01*
X564710Y641951D01*
X563605Y643605D01*
X561951Y644710D01*
X560000Y645098D01*
D02*
G37*
G36*
X530000D02*
X528049Y644710D01*
X526395Y643605D01*
X525290Y641951D01*
X524902Y640000D01*
X525290Y638049D01*
X526395Y636395D01*
X528049Y635290D01*
X530000Y634902D01*
X531951Y635290D01*
X533605Y636395D01*
X534710Y638049D01*
X535098Y640000D01*
X534710Y641951D01*
X533605Y643605D01*
X531951Y644710D01*
X530000Y645098D01*
D02*
G37*
G36*
X490000D02*
X488049Y644710D01*
X486395Y643605D01*
X485290Y641951D01*
X484902Y640000D01*
X485290Y638049D01*
X486395Y636395D01*
X488049Y635290D01*
X490000Y634902D01*
X491951Y635290D01*
X493605Y636395D01*
X494710Y638049D01*
X495098Y640000D01*
X494710Y641951D01*
X493605Y643605D01*
X491951Y644710D01*
X490000Y645098D01*
D02*
G37*
G36*
X450000D02*
X448049Y644710D01*
X446395Y643605D01*
X445290Y641951D01*
X444902Y640000D01*
X445290Y638049D01*
X446395Y636395D01*
X448049Y635290D01*
X450000Y634902D01*
X451951Y635290D01*
X453605Y636395D01*
X454710Y638049D01*
X455098Y640000D01*
X454710Y641951D01*
X453605Y643605D01*
X451951Y644710D01*
X450000Y645098D01*
D02*
G37*
G36*
X410000D02*
X408049Y644710D01*
X406395Y643605D01*
X405290Y641951D01*
X404902Y640000D01*
X405290Y638049D01*
X406395Y636395D01*
X408049Y635290D01*
X410000Y634902D01*
X411951Y635290D01*
X413605Y636395D01*
X414710Y638049D01*
X415098Y640000D01*
X414710Y641951D01*
X413605Y643605D01*
X411951Y644710D01*
X410000Y645098D01*
D02*
G37*
G36*
X370000D02*
X368049Y644710D01*
X366395Y643605D01*
X365290Y641951D01*
X364902Y640000D01*
X365290Y638049D01*
X366395Y636395D01*
X368049Y635290D01*
X370000Y634902D01*
X371951Y635290D01*
X373605Y636395D01*
X374710Y638049D01*
X375098Y640000D01*
X374710Y641951D01*
X373605Y643605D01*
X371951Y644710D01*
X370000Y645098D01*
D02*
G37*
G36*
X330000D02*
X328049Y644710D01*
X326395Y643605D01*
X325290Y641951D01*
X324902Y640000D01*
X325290Y638049D01*
X326395Y636395D01*
X328049Y635290D01*
X330000Y634902D01*
X331951Y635290D01*
X333605Y636395D01*
X334710Y638049D01*
X335098Y640000D01*
X334710Y641951D01*
X333605Y643605D01*
X331951Y644710D01*
X330000Y645098D01*
D02*
G37*
G36*
X290000D02*
X288049Y644710D01*
X286395Y643605D01*
X285290Y641951D01*
X284902Y640000D01*
X285290Y638049D01*
X286395Y636395D01*
X288049Y635290D01*
X290000Y634902D01*
X291951Y635290D01*
X293605Y636395D01*
X294710Y638049D01*
X295098Y640000D01*
X294710Y641951D01*
X293605Y643605D01*
X291951Y644710D01*
X290000Y645098D01*
D02*
G37*
G36*
X137295Y641096D02*
X134424Y640718D01*
X131748Y639609D01*
X129450Y637846D01*
X127687Y635548D01*
X126579Y632872D01*
X126201Y630001D01*
X126579Y627129D01*
X127687Y624453D01*
X129450Y622156D01*
X131748Y620392D01*
X134424Y619284D01*
X137295Y618906D01*
X140167Y619284D01*
X142843Y620392D01*
X145141Y622156D01*
X146904Y624453D01*
X148012Y627129D01*
X148390Y630001D01*
X148012Y632872D01*
X146904Y635548D01*
X145141Y637846D01*
X142843Y639609D01*
X140167Y640718D01*
X137295Y641096D01*
D02*
G37*
G36*
X111896Y641095D02*
X109025Y640717D01*
X106349Y639608D01*
X104051Y637845D01*
X102288Y635547D01*
X101179Y632872D01*
X100801Y630000D01*
X101179Y627128D01*
X102288Y624453D01*
X104051Y622155D01*
X106349Y620392D01*
X109025Y619283D01*
X111896Y618905D01*
X114768Y619283D01*
X117444Y620392D01*
X119741Y622155D01*
X121505Y624453D01*
X122613Y627128D01*
X122991Y630000D01*
X122613Y632872D01*
X121505Y635547D01*
X119741Y637845D01*
X117444Y639608D01*
X114768Y640717D01*
X111896Y641095D01*
D02*
G37*
G36*
X86497D02*
X83625Y640717D01*
X80949Y639608D01*
X78651Y637845D01*
X76888Y635547D01*
X75780Y632872D01*
X75402Y630000D01*
X75780Y627128D01*
X76888Y624453D01*
X78651Y622155D01*
X80949Y620392D01*
X83625Y619283D01*
X86497Y618905D01*
X89368Y619283D01*
X92044Y620392D01*
X94342Y622155D01*
X96105Y624453D01*
X97213Y627128D01*
X97591Y630000D01*
X97213Y632872D01*
X96105Y635547D01*
X94342Y637845D01*
X92044Y639608D01*
X89368Y640717D01*
X86497Y641095D01*
D02*
G37*
G36*
X61097D02*
X58225Y640717D01*
X55549Y639608D01*
X53251Y637845D01*
X51488Y635547D01*
X50380Y632872D01*
X50002Y630000D01*
X50380Y627128D01*
X51488Y624453D01*
X53251Y622155D01*
X55549Y620392D01*
X58225Y619283D01*
X61097Y618905D01*
X63968Y619283D01*
X66644Y620392D01*
X68942Y622155D01*
X70705Y624453D01*
X71814Y627128D01*
X72192Y630000D01*
X71814Y632872D01*
X70705Y635547D01*
X68942Y637845D01*
X66644Y639608D01*
X63968Y640717D01*
X61097Y641095D01*
D02*
G37*
G36*
X213497Y641094D02*
X210625Y640716D01*
X207950Y639608D01*
X205652Y637845D01*
X203889Y635547D01*
X202780Y632871D01*
X202402Y629999D01*
X202780Y627128D01*
X203889Y624452D01*
X205652Y622154D01*
X207950Y620391D01*
X210625Y619282D01*
X213497Y618904D01*
X216369Y619282D01*
X219044Y620391D01*
X221342Y622154D01*
X223106Y624452D01*
X224214Y627128D01*
X224592Y629999D01*
X224214Y632871D01*
X223106Y635547D01*
X221342Y637845D01*
X219044Y639608D01*
X216369Y640716D01*
X213497Y641094D01*
D02*
G37*
G36*
X188097D02*
X185226Y640716D01*
X182550Y639608D01*
X180252Y637845D01*
X178489Y635547D01*
X177380Y632871D01*
X177002Y629999D01*
X177380Y627128D01*
X178489Y624452D01*
X180252Y622154D01*
X182550Y620391D01*
X185226Y619282D01*
X188097Y618904D01*
X190969Y619282D01*
X193645Y620391D01*
X195942Y622154D01*
X197705Y624452D01*
X198814Y627128D01*
X199192Y629999D01*
X198814Y632871D01*
X197705Y635547D01*
X195942Y637845D01*
X193645Y639608D01*
X190969Y640716D01*
X188097Y641094D01*
D02*
G37*
G36*
X162697D02*
X159825Y640716D01*
X157150Y639608D01*
X154852Y637845D01*
X153089Y635547D01*
X151980Y632871D01*
X151602Y629999D01*
X151980Y627128D01*
X153089Y624452D01*
X154852Y622154D01*
X157150Y620391D01*
X159825Y619282D01*
X162697Y618904D01*
X165569Y619282D01*
X168244Y620391D01*
X170542Y622154D01*
X172306Y624452D01*
X173414Y627128D01*
X173792Y629999D01*
X173414Y632871D01*
X172306Y635547D01*
X170542Y637845D01*
X168244Y639608D01*
X165569Y640716D01*
X162697Y641094D01*
D02*
G37*
G36*
X21000Y625098D02*
X19049Y624710D01*
X17395Y623605D01*
X16290Y621951D01*
X15902Y620000D01*
X16290Y618049D01*
X17395Y616395D01*
X19049Y615290D01*
X21000Y614902D01*
X22951Y615290D01*
X24605Y616395D01*
X25710Y618049D01*
X26098Y620000D01*
X25710Y621951D01*
X24605Y623605D01*
X22951Y624710D01*
X21000Y625098D01*
D02*
G37*
G36*
X249897Y640999D02*
X227897D01*
Y618999D01*
X229153D01*
X230110Y618242D01*
X230110Y618242D01*
X230110D01*
X230161Y617729D01*
X230112Y617720D01*
X228797Y617458D01*
X227143Y616353D01*
X226038Y614699D01*
X225650Y612748D01*
X226038Y610797D01*
X227143Y609143D01*
X228797Y608038D01*
X230748Y607650D01*
X232699Y608038D01*
X234353Y609143D01*
X235458Y610797D01*
X235846Y612748D01*
X235458Y614699D01*
X234353Y616353D01*
X232699Y617458D01*
X231384Y617720D01*
X231336Y617729D01*
X231386Y618242D01*
X231386D01*
X231386Y618242D01*
X232343Y618999D01*
X249897D01*
Y640999D01*
D02*
G37*
G36*
X493970Y611473D02*
Y601271D01*
X504172D01*
X503943Y603013D01*
X502780Y605821D01*
X500930Y608231D01*
X498519Y610081D01*
X495712Y611244D01*
X493970Y611473D01*
D02*
G37*
G36*
X491430D02*
X489687Y611244D01*
X486880Y610081D01*
X484469Y608231D01*
X482620Y605821D01*
X481457Y603013D01*
X481227Y601271D01*
X491430D01*
Y611473D01*
D02*
G37*
G36*
X542230Y611472D02*
X540488Y611243D01*
X537681Y610080D01*
X535270Y608230D01*
X533420Y605820D01*
X532257Y603013D01*
X532028Y601270D01*
X542230D01*
Y611472D01*
D02*
G37*
G36*
X544770D02*
Y600000D01*
Y588528D01*
X546513Y588757D01*
X549320Y589920D01*
X551731Y591770D01*
X553581Y594180D01*
X554640Y596737D01*
X555437Y596971D01*
X556020Y596956D01*
X556395Y596395D01*
X558049Y595290D01*
X560000Y594902D01*
X561951Y595290D01*
X563605Y596395D01*
X564710Y598049D01*
X565098Y600000D01*
X564710Y601951D01*
X563605Y603605D01*
X561951Y604710D01*
X560000Y605098D01*
X558049Y604710D01*
X556395Y603605D01*
X556020Y603044D01*
X555437Y603029D01*
X554640Y603263D01*
X553581Y605820D01*
X551731Y608230D01*
X549320Y610080D01*
X546513Y611243D01*
X544770Y611472D01*
D02*
G37*
G36*
X223000Y600098D02*
X221049Y599710D01*
X219395Y598605D01*
X218290Y596951D01*
X217902Y595000D01*
X218290Y593049D01*
X219395Y591395D01*
X221049Y590290D01*
X223000Y589902D01*
X224951Y590290D01*
X226605Y591395D01*
X227710Y593049D01*
X228098Y595000D01*
X227710Y596951D01*
X226605Y598605D01*
X224951Y599710D01*
X223000Y600098D01*
D02*
G37*
G36*
X427500Y611001D02*
X405500D01*
Y589001D01*
X427500D01*
Y611001D01*
D02*
G37*
G36*
X467300Y611096D02*
X464428Y610718D01*
X461752Y609609D01*
X459454Y607846D01*
X457691Y605548D01*
X456583Y602872D01*
X456205Y600001D01*
X456583Y597129D01*
X457691Y594453D01*
X459454Y592155D01*
X461752Y590392D01*
X464428Y589284D01*
X467300Y588906D01*
X470171Y589284D01*
X472847Y590392D01*
X475145Y592155D01*
X476908Y594453D01*
X478016Y597129D01*
X478395Y600001D01*
X478016Y602872D01*
X476908Y605548D01*
X475145Y607846D01*
X472847Y609609D01*
X470171Y610718D01*
X467300Y611096D01*
D02*
G37*
G36*
X441900D02*
X439028Y610718D01*
X436352Y609609D01*
X434054Y607846D01*
X432291Y605548D01*
X431183Y602872D01*
X430805Y600001D01*
X431183Y597129D01*
X432291Y594453D01*
X434054Y592155D01*
X436352Y590392D01*
X439028Y589284D01*
X441900Y588906D01*
X444771Y589284D01*
X447447Y590392D01*
X449745Y592155D01*
X451508Y594453D01*
X452616Y597129D01*
X452994Y600001D01*
X452616Y602872D01*
X451508Y605548D01*
X449745Y607846D01*
X447447Y609609D01*
X444771Y610718D01*
X441900Y611096D01*
D02*
G37*
G36*
X518101Y611094D02*
X515230Y610716D01*
X512554Y609608D01*
X510256Y607845D01*
X508493Y605547D01*
X507384Y602871D01*
X507006Y599999D01*
X507384Y597128D01*
X508493Y594452D01*
X510256Y592154D01*
X512554Y590391D01*
X515230Y589282D01*
X518101Y588904D01*
X520973Y589282D01*
X523649Y590391D01*
X525947Y592154D01*
X527710Y594452D01*
X528818Y597128D01*
X529196Y599999D01*
X528818Y602871D01*
X527710Y605547D01*
X525947Y607845D01*
X523649Y609608D01*
X520973Y610716D01*
X518101Y611094D01*
D02*
G37*
G36*
X504172Y598731D02*
X493970D01*
Y588528D01*
X495712Y588758D01*
X498519Y589921D01*
X500930Y591770D01*
X502780Y594181D01*
X503943Y596988D01*
X504172Y598731D01*
D02*
G37*
G36*
X491430D02*
X481227D01*
X481457Y596988D01*
X482620Y594181D01*
X484469Y591770D01*
X486880Y589921D01*
X489687Y588758D01*
X491430Y588528D01*
Y598731D01*
D02*
G37*
G36*
X542230Y598730D02*
X532028D01*
X532257Y596987D01*
X533420Y594180D01*
X535270Y591770D01*
X537681Y589920D01*
X540488Y588757D01*
X542230Y588528D01*
Y598730D01*
D02*
G37*
G36*
X146000Y575098D02*
X144049Y574710D01*
X142395Y573605D01*
X141290Y571951D01*
X140902Y570000D01*
X141290Y568049D01*
X142395Y566395D01*
X144049Y565290D01*
X146000Y564902D01*
X147951Y565290D01*
X149605Y566395D01*
X150710Y568049D01*
X151098Y570000D01*
X150710Y571951D01*
X149605Y573605D01*
X147951Y574710D01*
X146000Y575098D01*
D02*
G37*
G36*
X560000Y565098D02*
X558049Y564710D01*
X556395Y563605D01*
X555290Y561951D01*
X554902Y560000D01*
X555290Y558049D01*
X556395Y556395D01*
X558049Y555290D01*
X560000Y554902D01*
X561951Y555290D01*
X563605Y556395D01*
X564710Y558049D01*
X565098Y560000D01*
X564710Y561951D01*
X563605Y563605D01*
X561951Y564710D01*
X560000Y565098D01*
D02*
G37*
G36*
X490050Y554650D02*
X470750D01*
Y535350D01*
X490050D01*
Y554650D01*
D02*
G37*
G36*
X450400Y554733D02*
X447881Y554402D01*
X445533Y553429D01*
X443517Y551883D01*
X441971Y549867D01*
X440998Y547519D01*
X440667Y545000D01*
X440998Y542481D01*
X441971Y540133D01*
X443517Y538118D01*
X445533Y536571D01*
X447881Y535598D01*
X450400Y535267D01*
X452919Y535598D01*
X455267Y536571D01*
X457282Y538118D01*
X458829Y540133D01*
X459802Y542481D01*
X460133Y545000D01*
X459802Y547519D01*
X458829Y549867D01*
X457282Y551883D01*
X455267Y553429D01*
X452919Y554402D01*
X450400Y554733D01*
D02*
G37*
G36*
X400000Y567323D02*
X396620Y566991D01*
X393371Y566005D01*
X390376Y564404D01*
X387751Y562249D01*
X385596Y559624D01*
X383995Y556629D01*
X383009Y553380D01*
X382677Y550000D01*
X383009Y546620D01*
X383995Y543371D01*
X385596Y540376D01*
X387751Y537751D01*
X390376Y535596D01*
X393371Y533995D01*
X396620Y533009D01*
X400000Y532677D01*
X403380Y533009D01*
X406629Y533995D01*
X409624Y535596D01*
X412249Y537751D01*
X414404Y540376D01*
X416005Y543371D01*
X416991Y546620D01*
X417323Y550000D01*
X416991Y553380D01*
X416005Y556629D01*
X414404Y559624D01*
X412249Y562249D01*
X409624Y564404D01*
X406629Y566005D01*
X403380Y566991D01*
X400000Y567323D01*
D02*
G37*
G36*
X215000Y540098D02*
X213049Y539710D01*
X211395Y538605D01*
X210290Y536951D01*
X209902Y535000D01*
X210290Y533049D01*
X211395Y531395D01*
X213049Y530290D01*
X215000Y529902D01*
X216951Y530290D01*
X218605Y531395D01*
X219710Y533049D01*
X220098Y535000D01*
X219710Y536951D01*
X218605Y538605D01*
X216951Y539710D01*
X215000Y540098D01*
D02*
G37*
G36*
X481670Y525111D02*
Y516270D01*
X490511D01*
X490328Y517660D01*
X489301Y520139D01*
X487668Y522268D01*
X485539Y523901D01*
X483060Y524928D01*
X481670Y525111D01*
D02*
G37*
G36*
X479130D02*
X477740Y524928D01*
X475261Y523901D01*
X473132Y522268D01*
X471499Y520139D01*
X470472Y517660D01*
X470289Y516270D01*
X479130D01*
Y525111D01*
D02*
G37*
G36*
X560000Y525098D02*
X558049Y524710D01*
X556395Y523605D01*
X555290Y521951D01*
X554902Y520000D01*
X555290Y518049D01*
X556395Y516395D01*
X558049Y515290D01*
X560000Y514902D01*
X561951Y515290D01*
X563605Y516395D01*
X564710Y518049D01*
X565098Y520000D01*
X564710Y521951D01*
X563605Y523605D01*
X561951Y524710D01*
X560000Y525098D01*
D02*
G37*
G36*
X119500Y536095D02*
X116628Y535717D01*
X113953Y534608D01*
X111655Y532845D01*
X109892Y530547D01*
X108783Y527872D01*
X108405Y525000D01*
X108783Y522128D01*
X109892Y519453D01*
X111655Y517155D01*
X113953Y515392D01*
X116628Y514283D01*
X119500Y513905D01*
X122372Y514283D01*
X125048Y515392D01*
X127345Y517155D01*
X129108Y519453D01*
X130217Y522128D01*
X130595Y525000D01*
X130217Y527872D01*
X129108Y530547D01*
X127345Y532845D01*
X125048Y534608D01*
X122372Y535717D01*
X119500Y536095D01*
D02*
G37*
G36*
X89500D02*
X86629Y535717D01*
X83953Y534608D01*
X81655Y532845D01*
X79892Y530547D01*
X78783Y527872D01*
X78405Y525000D01*
X78783Y522128D01*
X79892Y519453D01*
X81655Y517155D01*
X83953Y515392D01*
X86629Y514283D01*
X89500Y513905D01*
X92372Y514283D01*
X95048Y515392D01*
X97345Y517155D01*
X99108Y519453D01*
X100217Y522128D01*
X100595Y525000D01*
X100217Y527872D01*
X99108Y530547D01*
X97345Y532845D01*
X95048Y534608D01*
X92372Y535717D01*
X89500Y536095D01*
D02*
G37*
G36*
X523600Y547082D02*
X520267Y546754D01*
X517063Y545782D01*
X514110Y544203D01*
X511521Y542079D01*
X509397Y539490D01*
X507818Y536537D01*
X506846Y533333D01*
X506518Y530000D01*
X506846Y526668D01*
X507818Y523463D01*
X509397Y520510D01*
X511521Y517921D01*
X514110Y515797D01*
X517063Y514218D01*
X520267Y513246D01*
X523600Y512918D01*
X526933Y513246D01*
X530137Y514218D01*
X533090Y515797D01*
X535679Y517921D01*
X537803Y520510D01*
X539382Y523463D01*
X540354Y526668D01*
X540682Y530000D01*
X540354Y533333D01*
X539382Y536537D01*
X537803Y539490D01*
X535679Y542079D01*
X533090Y544203D01*
X530137Y545782D01*
X526933Y546754D01*
X523600Y547082D01*
D02*
G37*
G36*
X140000Y520098D02*
X138049Y519710D01*
X136395Y518605D01*
X135290Y516951D01*
X134902Y515000D01*
X135290Y513049D01*
X136395Y511395D01*
X138049Y510290D01*
X140000Y509902D01*
X141951Y510290D01*
X143605Y511395D01*
X144710Y513049D01*
X145098Y515000D01*
X144710Y516951D01*
X143605Y518605D01*
X141951Y519710D01*
X140000Y520098D01*
D02*
G37*
G36*
X450400Y524733D02*
X447881Y524402D01*
X445533Y523429D01*
X443517Y521883D01*
X441971Y519867D01*
X440998Y517519D01*
X440667Y515000D01*
X440998Y512481D01*
X441971Y510133D01*
X443517Y508118D01*
X445533Y506571D01*
X447881Y505598D01*
X450400Y505267D01*
X452919Y505598D01*
X455267Y506571D01*
X457282Y508118D01*
X458829Y510133D01*
X459802Y512481D01*
X460133Y515000D01*
X459802Y517519D01*
X458829Y519867D01*
X457282Y521883D01*
X455267Y523429D01*
X452919Y524402D01*
X450400Y524733D01*
D02*
G37*
G36*
X206000Y515098D02*
X204049Y514710D01*
X202395Y513605D01*
X201290Y511951D01*
X200902Y510000D01*
X201290Y508049D01*
X202395Y506395D01*
X204049Y505290D01*
X206000Y504902D01*
X207951Y505290D01*
X209605Y506395D01*
X210710Y508049D01*
X211098Y510000D01*
X210710Y511951D01*
X209605Y513605D01*
X207951Y514710D01*
X206000Y515098D01*
D02*
G37*
G36*
X479130Y513730D02*
X470289D01*
X470472Y512340D01*
X471499Y509861D01*
X473132Y507732D01*
X475261Y506099D01*
X477740Y505072D01*
X479130Y504889D01*
Y513730D01*
D02*
G37*
G36*
X490511D02*
X481670D01*
Y504889D01*
X483060Y505072D01*
X485539Y506099D01*
X487668Y507732D01*
X489301Y509861D01*
X490328Y512340D01*
X490511Y513730D01*
D02*
G37*
G36*
X260000Y537323D02*
X256620Y536991D01*
X253371Y536005D01*
X250376Y534404D01*
X247750Y532249D01*
X245596Y529624D01*
X243995Y526629D01*
X243009Y523380D01*
X242677Y520000D01*
X243009Y516620D01*
X243995Y513371D01*
X245596Y510376D01*
X247750Y507751D01*
X250376Y505596D01*
X253371Y503995D01*
X256620Y503009D01*
X260000Y502677D01*
X263380Y503009D01*
X266629Y503995D01*
X269624Y505596D01*
X272250Y507751D01*
X274404Y510376D01*
X276005Y513371D01*
X276991Y516620D01*
X277323Y520000D01*
X276991Y523380D01*
X276005Y526629D01*
X274404Y529624D01*
X272250Y532249D01*
X269624Y534404D01*
X266629Y536005D01*
X263380Y536991D01*
X260000Y537323D01*
D02*
G37*
G36*
X206759Y497339D02*
X204809Y496951D01*
X203155Y495845D01*
X202050Y494192D01*
X201661Y492241D01*
X202050Y490290D01*
X203155Y488636D01*
X204809Y487531D01*
X206759Y487143D01*
X208710Y487531D01*
X210364Y488636D01*
X211469Y490290D01*
X211857Y492241D01*
X211469Y494192D01*
X210364Y495845D01*
X208710Y496951D01*
X206759Y497339D01*
D02*
G37*
G36*
X46500Y520582D02*
X43168Y520254D01*
X39963Y519282D01*
X37010Y517703D01*
X34421Y515579D01*
X32297Y512990D01*
X30718Y510037D01*
X29746Y506833D01*
X29418Y503500D01*
X29746Y500167D01*
X30718Y496963D01*
X32297Y494010D01*
X34421Y491421D01*
X37010Y489297D01*
X39963Y487718D01*
X43168Y486746D01*
X46500Y486418D01*
X49833Y486746D01*
X53037Y487718D01*
X55990Y489297D01*
X58579Y491421D01*
X60703Y494010D01*
X62282Y496963D01*
X63254Y500167D01*
X63582Y503500D01*
X63254Y506833D01*
X62282Y510037D01*
X60703Y512990D01*
X58579Y515579D01*
X55990Y517703D01*
X53037Y519282D01*
X49833Y520254D01*
X46500Y520582D01*
D02*
G37*
G36*
X119500Y506095D02*
X116628Y505717D01*
X113953Y504608D01*
X111655Y502845D01*
X109892Y500547D01*
X108783Y497872D01*
X108405Y495000D01*
X108783Y492128D01*
X109892Y489453D01*
X111655Y487155D01*
X113953Y485392D01*
X116628Y484283D01*
X119500Y483905D01*
X122372Y484283D01*
X125048Y485392D01*
X127345Y487155D01*
X129108Y489453D01*
X130217Y492128D01*
X130595Y495000D01*
X130217Y497872D01*
X129108Y500547D01*
X127345Y502845D01*
X125048Y504608D01*
X122372Y505717D01*
X119500Y506095D01*
D02*
G37*
G36*
X89500D02*
X86629Y505717D01*
X83953Y504608D01*
X81655Y502845D01*
X79892Y500547D01*
X78783Y497872D01*
X78405Y495000D01*
X78783Y492128D01*
X79892Y489453D01*
X81655Y487155D01*
X83953Y485392D01*
X86629Y484283D01*
X89500Y483905D01*
X92372Y484283D01*
X95048Y485392D01*
X97345Y487155D01*
X99108Y489453D01*
X100217Y492128D01*
X100595Y495000D01*
X100217Y497872D01*
X99108Y500547D01*
X97345Y502845D01*
X95048Y504608D01*
X92372Y505717D01*
X89500Y506095D01*
D02*
G37*
G36*
X330000Y492098D02*
X328049Y491710D01*
X326395Y490605D01*
X325290Y488951D01*
X324902Y487000D01*
X325290Y485049D01*
X326395Y483395D01*
X328049Y482290D01*
X330000Y481902D01*
X331951Y482290D01*
X333605Y483395D01*
X334710Y485049D01*
X335098Y487000D01*
X334710Y488951D01*
X333605Y490605D01*
X331951Y491710D01*
X330000Y492098D01*
D02*
G37*
G36*
X314000D02*
X312049Y491710D01*
X310395Y490605D01*
X309290Y488951D01*
X308902Y487000D01*
X309290Y485049D01*
X310395Y483395D01*
X312049Y482290D01*
X314000Y481902D01*
X315951Y482290D01*
X317605Y483395D01*
X318710Y485049D01*
X319098Y487000D01*
X318710Y488951D01*
X317605Y490605D01*
X315951Y491710D01*
X314000Y492098D01*
D02*
G37*
G36*
X361000Y481098D02*
X359049Y480710D01*
X357395Y479605D01*
X357135Y479215D01*
X355865D01*
X355605Y479605D01*
X353951Y480710D01*
X352000Y481098D01*
X350049Y480710D01*
X348395Y479605D01*
X347290Y477951D01*
X346902Y476000D01*
X347290Y474049D01*
X348395Y472395D01*
X350049Y471290D01*
X352000Y470902D01*
X353951Y471290D01*
X355605Y472395D01*
X355865Y472785D01*
X357135D01*
X357395Y472395D01*
X359049Y471290D01*
X361000Y470902D01*
X362951Y471290D01*
X364605Y472395D01*
X365710Y474049D01*
X366098Y476000D01*
X365710Y477951D01*
X364605Y479605D01*
X362951Y480710D01*
X361000Y481098D01*
D02*
G37*
G36*
X173000Y487098D02*
X171049Y486710D01*
X169395Y485605D01*
X168290Y483951D01*
X167902Y482000D01*
X168290Y480049D01*
X169395Y478395D01*
X171049Y477290D01*
X173000Y476902D01*
X174951Y477290D01*
X176605Y478395D01*
X177710Y480049D01*
X178098Y482000D01*
X177710Y483951D01*
X176605Y485605D01*
X174951Y486710D01*
X173000Y487098D01*
D02*
G37*
G36*
X560000Y485098D02*
X558049Y484710D01*
X556395Y483605D01*
X555290Y481951D01*
X554902Y480000D01*
X555290Y478049D01*
X556395Y476395D01*
X558049Y475290D01*
X560000Y474902D01*
X561951Y475290D01*
X563605Y476395D01*
X564710Y478049D01*
X565098Y480000D01*
X564710Y481951D01*
X563605Y483605D01*
X561951Y484710D01*
X560000Y485098D01*
D02*
G37*
G36*
X450400Y485098D02*
X448449Y484710D01*
X446795Y483605D01*
X445690Y481951D01*
X445302Y480000D01*
X445690Y478049D01*
X446795Y476395D01*
X448449Y475290D01*
X450400Y474902D01*
X452351Y475290D01*
X454005Y476395D01*
X455110Y478049D01*
X455498Y480000D01*
X455110Y481951D01*
X454005Y483605D01*
X452351Y484710D01*
X450400Y485098D01*
D02*
G37*
G36*
X142000Y480098D02*
X140049Y479710D01*
X138395Y478605D01*
X137290Y476951D01*
X136902Y475000D01*
X137290Y473049D01*
X138395Y471395D01*
X140049Y470290D01*
X142000Y469902D01*
X143951Y470290D01*
X145605Y471395D01*
X146710Y473049D01*
X147098Y475000D01*
X146710Y476951D01*
X145605Y478605D01*
X143951Y479710D01*
X142000Y480098D01*
D02*
G37*
G36*
X302000Y465098D02*
X300049Y464710D01*
X298395Y463605D01*
X297290Y461951D01*
X296902Y460000D01*
X297290Y458049D01*
X298395Y456395D01*
X300049Y455290D01*
X302000Y454902D01*
X303951Y455290D01*
X305605Y456395D01*
X306710Y458049D01*
X307098Y460000D01*
X306710Y461951D01*
X305605Y463605D01*
X303951Y464710D01*
X302000Y465098D01*
D02*
G37*
G36*
X495300Y464838D02*
X493349Y464450D01*
X491695Y463345D01*
X490590Y461691D01*
X490202Y459740D01*
X490590Y457789D01*
X491695Y456135D01*
X493349Y455030D01*
X495300Y454642D01*
X497251Y455030D01*
X498905Y456135D01*
X500010Y457789D01*
X500398Y459740D01*
X500010Y461691D01*
X498905Y463345D01*
X497251Y464450D01*
X495300Y464838D01*
D02*
G37*
G36*
X119500Y476095D02*
X116628Y475717D01*
X113953Y474608D01*
X111655Y472845D01*
X109892Y470547D01*
X108783Y467872D01*
X108405Y465000D01*
X108783Y462128D01*
X109892Y459453D01*
X111655Y457155D01*
X113953Y455392D01*
X116628Y454283D01*
X119500Y453905D01*
X122372Y454283D01*
X125048Y455392D01*
X127345Y457155D01*
X129108Y459453D01*
X130217Y462128D01*
X130595Y465000D01*
X130217Y467872D01*
X129108Y470547D01*
X127345Y472845D01*
X125048Y474608D01*
X122372Y475717D01*
X119500Y476095D01*
D02*
G37*
G36*
X89500D02*
X86629Y475717D01*
X83953Y474608D01*
X81655Y472845D01*
X79892Y470547D01*
X78783Y467872D01*
X78405Y465000D01*
X78783Y462128D01*
X79892Y459453D01*
X81655Y457155D01*
X83953Y455392D01*
X86629Y454283D01*
X89500Y453905D01*
X92372Y454283D01*
X95048Y455392D01*
X97345Y457155D01*
X99108Y459453D01*
X100217Y462128D01*
X100595Y465000D01*
X100217Y467872D01*
X99108Y470547D01*
X97345Y472845D01*
X95048Y474608D01*
X92372Y475717D01*
X89500Y476095D01*
D02*
G37*
G36*
X369570Y454678D02*
X367619Y454290D01*
X365965Y453185D01*
X365212Y452057D01*
X363768D01*
X363015Y453185D01*
X361361Y454290D01*
X359410Y454678D01*
X357459Y454290D01*
X355805Y453185D01*
X355304Y452435D01*
X354125Y451915D01*
X353724Y452182D01*
X352471Y453020D01*
X350520Y453408D01*
X348569Y453020D01*
X346915Y451915D01*
X345810Y450261D01*
X345422Y448310D01*
X345810Y446359D01*
X346915Y444705D01*
X348569Y443600D01*
X350520Y443212D01*
X352471Y443600D01*
X354125Y444705D01*
X354626Y445455D01*
X355805Y445975D01*
X356206Y445708D01*
X357459Y444870D01*
X359410Y444482D01*
X361361Y444870D01*
X363015Y445975D01*
X363768Y447103D01*
X365212D01*
X365965Y445975D01*
X367619Y444870D01*
X369570Y444482D01*
X371521Y444870D01*
X373175Y445975D01*
X374280Y447629D01*
X374668Y449580D01*
X374280Y451531D01*
X373175Y453185D01*
X371521Y454290D01*
X369570Y454678D01*
D02*
G37*
G36*
X400000Y459098D02*
X398049Y458710D01*
X396395Y457605D01*
X395290Y455951D01*
X394902Y454000D01*
X395290Y452049D01*
X396395Y450395D01*
X398049Y449290D01*
X400000Y448902D01*
X401951Y449290D01*
X403605Y450395D01*
X404710Y452049D01*
X405098Y454000D01*
X404710Y455951D01*
X403605Y457605D01*
X401951Y458710D01*
X400000Y459098D01*
D02*
G37*
G36*
X378460Y464838D02*
X376509Y464450D01*
X374855Y463345D01*
X373750Y461691D01*
X373362Y459740D01*
X373750Y457789D01*
X374855Y456135D01*
X376509Y455030D01*
X378460Y454642D01*
X379342Y454817D01*
X379733Y454460D01*
X380240Y453701D01*
X379902Y452000D01*
X380290Y450049D01*
X381395Y448395D01*
X383049Y447290D01*
X385000Y446902D01*
X386951Y447290D01*
X388605Y448395D01*
X389710Y450049D01*
X390098Y452000D01*
X389710Y453951D01*
X388605Y455605D01*
X386951Y456710D01*
X385000Y457098D01*
X384118Y456923D01*
X383727Y457280D01*
X383220Y458039D01*
X383558Y459740D01*
X383170Y461691D01*
X382065Y463345D01*
X380411Y464450D01*
X378460Y464838D01*
D02*
G37*
G36*
X156000Y454098D02*
X154049Y453710D01*
X152395Y452605D01*
X151290Y450951D01*
X150902Y449000D01*
X151290Y447049D01*
X152395Y445395D01*
X154049Y444290D01*
X156000Y443902D01*
X157951Y444290D01*
X159605Y445395D01*
X160710Y447049D01*
X161098Y449000D01*
X160710Y450951D01*
X159605Y452605D01*
X157951Y453710D01*
X156000Y454098D01*
D02*
G37*
G36*
X228000Y452098D02*
X226049Y451710D01*
X224395Y450605D01*
X223290Y448951D01*
X222902Y447000D01*
X223290Y445049D01*
X224395Y443395D01*
X226049Y442290D01*
X228000Y441902D01*
X229951Y442290D01*
X231605Y443395D01*
X232710Y445049D01*
X233098Y447000D01*
X232710Y448951D01*
X231605Y450605D01*
X229951Y451710D01*
X228000Y452098D01*
D02*
G37*
G36*
X90770Y446472D02*
Y436270D01*
X100972D01*
X100743Y438013D01*
X99580Y440820D01*
X97730Y443230D01*
X95320Y445080D01*
X92513Y446243D01*
X90770Y446472D01*
D02*
G37*
G36*
X88230Y446472D02*
X86488Y446243D01*
X83680Y445080D01*
X81270Y443230D01*
X79420Y440820D01*
X78257Y438013D01*
X78028Y436270D01*
X88230D01*
Y446472D01*
D02*
G37*
G36*
X32500Y438598D02*
X30549Y438210D01*
X28895Y437105D01*
X27790Y435451D01*
X27402Y433500D01*
X27790Y431549D01*
X28895Y429895D01*
X30549Y428790D01*
X32500Y428402D01*
X34451Y428790D01*
X36105Y429895D01*
X37210Y431549D01*
X37598Y433500D01*
X37210Y435451D01*
X36105Y437105D01*
X34451Y438210D01*
X32500Y438598D01*
D02*
G37*
G36*
X495300Y438168D02*
X493349Y437780D01*
X491695Y436675D01*
X490590Y435021D01*
X490202Y433070D01*
X490590Y431119D01*
X491695Y429465D01*
X493349Y428360D01*
X495300Y427972D01*
X497251Y428360D01*
X498905Y429465D01*
X500010Y431119D01*
X500398Y433070D01*
X500010Y435021D01*
X498905Y436675D01*
X497251Y437780D01*
X495300Y438168D01*
D02*
G37*
G36*
X163000Y438098D02*
X161049Y437710D01*
X159395Y436605D01*
X158290Y434951D01*
X157902Y433000D01*
X158290Y431049D01*
X159395Y429395D01*
X161049Y428290D01*
X163000Y427902D01*
X164951Y428290D01*
X166605Y429395D01*
X167710Y431049D01*
X168098Y433000D01*
X167710Y434951D01*
X166605Y436605D01*
X164951Y437710D01*
X163000Y438098D01*
D02*
G37*
G36*
X244000Y435098D02*
X242049Y434710D01*
X240395Y433605D01*
X239290Y431951D01*
X238902Y430000D01*
X239290Y428049D01*
X240395Y426395D01*
X242049Y425290D01*
X244000Y424902D01*
X245951Y425290D01*
X247605Y426395D01*
X248710Y428049D01*
X249098Y430000D01*
X248710Y431951D01*
X247605Y433605D01*
X245951Y434710D01*
X244000Y435098D01*
D02*
G37*
G36*
X119500Y446095D02*
X116628Y445717D01*
X113953Y444608D01*
X111655Y442845D01*
X109892Y440547D01*
X108783Y437872D01*
X108405Y435000D01*
X108783Y432128D01*
X109892Y429453D01*
X111655Y427155D01*
X113953Y425392D01*
X116628Y424283D01*
X119500Y423905D01*
X122372Y424283D01*
X125048Y425392D01*
X127345Y427155D01*
X129108Y429453D01*
X130217Y432128D01*
X130595Y435000D01*
X130217Y437872D01*
X129108Y440547D01*
X127345Y442845D01*
X125048Y444608D01*
X122372Y445717D01*
X119500Y446095D01*
D02*
G37*
G36*
X88230Y433730D02*
X78028D01*
X78257Y431987D01*
X79420Y429180D01*
X81270Y426770D01*
X83680Y424920D01*
X86488Y423757D01*
X88230Y423528D01*
Y433730D01*
D02*
G37*
G36*
X100972D02*
X90770D01*
Y423528D01*
X92513Y423757D01*
X95320Y424920D01*
X97730Y426770D01*
X99580Y429180D01*
X100743Y431987D01*
X100972Y433730D01*
D02*
G37*
G36*
X19000Y425098D02*
X17049Y424710D01*
X15395Y423605D01*
X14290Y421951D01*
X13902Y420000D01*
X14290Y418049D01*
X15395Y416395D01*
X17049Y415290D01*
X19000Y414902D01*
X20951Y415290D01*
X22605Y416395D01*
X23710Y418049D01*
X24098Y420000D01*
X23710Y421951D01*
X22605Y423605D01*
X20951Y424710D01*
X19000Y425098D01*
D02*
G37*
G36*
X102353Y423576D02*
X100402Y423188D01*
X98749Y422083D01*
X97643Y420429D01*
X97255Y418478D01*
X97643Y416527D01*
X98749Y414874D01*
X100402Y413768D01*
X102353Y413380D01*
X104304Y413768D01*
X105958Y414874D01*
X107063Y416527D01*
X107451Y418478D01*
X107063Y420429D01*
X105958Y422083D01*
X104304Y423188D01*
X102353Y423576D01*
D02*
G37*
G36*
X189000Y420098D02*
X187049Y419710D01*
X185395Y418605D01*
X184290Y416951D01*
X183902Y415000D01*
X184290Y413049D01*
X185395Y411395D01*
X187049Y410290D01*
X189000Y409902D01*
X190951Y410290D01*
X192605Y411395D01*
X193710Y413049D01*
X194098Y415000D01*
X193710Y416951D01*
X192605Y418605D01*
X190951Y419710D01*
X189000Y420098D01*
D02*
G37*
G36*
X147000Y418098D02*
X145049Y417710D01*
X143395Y416605D01*
X142290Y414951D01*
X141902Y413000D01*
X142290Y411049D01*
X143395Y409395D01*
X145049Y408290D01*
X147000Y407902D01*
X148951Y408290D01*
X150605Y409395D01*
X151710Y411049D01*
X152098Y413000D01*
X151710Y414951D01*
X150605Y416605D01*
X148951Y417710D01*
X147000Y418098D01*
D02*
G37*
G36*
X120770Y416472D02*
Y406270D01*
X130972D01*
X130743Y408013D01*
X129580Y410820D01*
X127730Y413230D01*
X125320Y415080D01*
X122513Y416243D01*
X120770Y416472D01*
D02*
G37*
G36*
X118230Y416472D02*
X116488Y416243D01*
X113680Y415080D01*
X111270Y413230D01*
X109420Y410820D01*
X108257Y408013D01*
X108028Y406270D01*
X118230D01*
Y416472D01*
D02*
G37*
G36*
X367000Y415098D02*
X365049Y414710D01*
X363395Y413605D01*
X362290Y411951D01*
X361902Y410000D01*
X362290Y408049D01*
X363395Y406395D01*
X365049Y405290D01*
X367000Y404902D01*
X368951Y405290D01*
X370605Y406395D01*
X371710Y408049D01*
X372098Y410000D01*
X371710Y411951D01*
X370605Y413605D01*
X368951Y414710D01*
X367000Y415098D01*
D02*
G37*
G36*
X495300Y411498D02*
X493349Y411110D01*
X491695Y410005D01*
X490590Y408351D01*
X490202Y406400D01*
X490590Y404449D01*
X491695Y402795D01*
X493349Y401690D01*
X495300Y401302D01*
X497251Y401690D01*
X498905Y402795D01*
X500010Y404449D01*
X500398Y406400D01*
X500010Y408351D01*
X498905Y410005D01*
X497251Y411110D01*
X495300Y411498D01*
D02*
G37*
G36*
X283000Y408098D02*
X281049Y407710D01*
X279395Y406605D01*
X278290Y404951D01*
X277902Y403000D01*
X278290Y401049D01*
X279395Y399395D01*
X281049Y398290D01*
X283000Y397902D01*
X284951Y398290D01*
X286605Y399395D01*
X287710Y401049D01*
X288098Y403000D01*
X287710Y404951D01*
X286605Y406605D01*
X284951Y407710D01*
X283000Y408098D01*
D02*
G37*
G36*
X351000Y420098D02*
X349049Y419710D01*
X347395Y418605D01*
X346290Y416951D01*
X345902Y415000D01*
X346290Y413049D01*
X347395Y411395D01*
X349049Y410290D01*
X349797Y410141D01*
X350890Y409621D01*
X350719Y408762D01*
X350502Y407670D01*
X350890Y405719D01*
X351995Y404065D01*
X353649Y402960D01*
X353892Y402912D01*
X354290Y401951D01*
X353902Y400000D01*
X354290Y398049D01*
X355395Y396395D01*
X357049Y395290D01*
X359000Y394902D01*
X360951Y395290D01*
X362605Y396395D01*
X363710Y398049D01*
X364098Y400000D01*
X363710Y401951D01*
X362605Y403605D01*
X360951Y404710D01*
X360389Y406117D01*
X360698Y407670D01*
X360310Y409621D01*
X359205Y411275D01*
X357551Y412380D01*
X356803Y412529D01*
X355710Y413049D01*
X355881Y413908D01*
X356098Y415000D01*
X355710Y416951D01*
X354605Y418605D01*
X352951Y419710D01*
X351000Y420098D01*
D02*
G37*
G36*
X89500Y416095D02*
X86629Y415717D01*
X83953Y414608D01*
X81655Y412845D01*
X79892Y410547D01*
X78783Y407872D01*
X78405Y405000D01*
X78783Y402128D01*
X79892Y399453D01*
X81655Y397155D01*
X83953Y395392D01*
X86629Y394283D01*
X89500Y393905D01*
X92372Y394283D01*
X95048Y395392D01*
X97345Y397155D01*
X99108Y399453D01*
X100217Y402128D01*
X100595Y405000D01*
X100217Y407872D01*
X99108Y410547D01*
X97345Y412845D01*
X95048Y414608D01*
X92372Y415717D01*
X89500Y416095D01*
D02*
G37*
G36*
X130972Y403730D02*
X120770D01*
Y393528D01*
X122513Y393757D01*
X125320Y394920D01*
X127730Y396770D01*
X129580Y399180D01*
X130743Y401987D01*
X130972Y403730D01*
D02*
G37*
G36*
X118230D02*
X108028D01*
X108257Y401987D01*
X109420Y399180D01*
X111270Y396770D01*
X113680Y394920D01*
X116488Y393757D01*
X118230Y393528D01*
Y403730D01*
D02*
G37*
G36*
X46500Y413582D02*
X43168Y413254D01*
X39963Y412282D01*
X37010Y410703D01*
X34421Y408579D01*
X32297Y405990D01*
X30718Y403037D01*
X29746Y399833D01*
X29418Y396500D01*
X29746Y393167D01*
X30718Y389963D01*
X32297Y387010D01*
X34421Y384421D01*
X37010Y382297D01*
X39963Y380718D01*
X43168Y379746D01*
X46500Y379418D01*
X49833Y379746D01*
X53037Y380718D01*
X55990Y382297D01*
X58579Y384421D01*
X60703Y387010D01*
X62282Y389963D01*
X63254Y393167D01*
X63582Y396500D01*
X63254Y399833D01*
X62282Y403037D01*
X60703Y405990D01*
X58579Y408579D01*
X55990Y410703D01*
X53037Y412282D01*
X49833Y413254D01*
X46500Y413582D01*
D02*
G37*
G36*
X295000Y387098D02*
X293049Y386710D01*
X291395Y385605D01*
X290290Y383951D01*
X289902Y382000D01*
X290290Y380049D01*
X291395Y378395D01*
X293049Y377290D01*
X295000Y376902D01*
X296951Y377290D01*
X298605Y378395D01*
X299710Y380049D01*
X300098Y382000D01*
X299710Y383951D01*
X298605Y385605D01*
X296951Y386710D01*
X295000Y387098D01*
D02*
G37*
G36*
X203200Y386098D02*
X201249Y385710D01*
X199595Y384605D01*
X198490Y382951D01*
X198102Y381000D01*
X198490Y379049D01*
X199595Y377395D01*
X201249Y376290D01*
X203200Y375902D01*
X205151Y376290D01*
X206805Y377395D01*
X207910Y379049D01*
X208298Y381000D01*
X207910Y382951D01*
X206805Y384605D01*
X205151Y385710D01*
X203200Y386098D01*
D02*
G37*
G36*
X48000Y378098D02*
X46049Y377710D01*
X44395Y376605D01*
X43290Y374951D01*
X42902Y373000D01*
X43290Y371049D01*
X44395Y369395D01*
X46049Y368290D01*
X48000Y367902D01*
X49951Y368290D01*
X51605Y369395D01*
X52710Y371049D01*
X53098Y373000D01*
X52710Y374951D01*
X51605Y376605D01*
X49951Y377710D01*
X48000Y378098D01*
D02*
G37*
G36*
X100500Y386000D02*
X78500D01*
Y364000D01*
X100500D01*
Y386000D01*
D02*
G37*
G36*
X119500Y386095D02*
X116628Y385717D01*
X113953Y384608D01*
X111655Y382845D01*
X109892Y380547D01*
X108783Y377872D01*
X108405Y375000D01*
X108783Y372128D01*
X109892Y369453D01*
X111655Y367155D01*
X113953Y365392D01*
X116628Y364283D01*
X119500Y363905D01*
X122372Y364283D01*
X125048Y365392D01*
X127345Y367155D01*
X129108Y369453D01*
X130217Y372128D01*
X130595Y375000D01*
X130217Y377872D01*
X129108Y380547D01*
X127345Y382845D01*
X125048Y384608D01*
X122372Y385717D01*
X119500Y386095D01*
D02*
G37*
G36*
X191419Y373517D02*
X189468Y373129D01*
X187815Y372024D01*
X186709Y370370D01*
X186321Y368419D01*
X186709Y366469D01*
X187815Y364815D01*
X189468Y363709D01*
X191419Y363321D01*
X193370Y363709D01*
X195024Y364815D01*
X196129Y366469D01*
X196517Y368419D01*
X196129Y370370D01*
X195024Y372024D01*
X193370Y373129D01*
X191419Y373517D01*
D02*
G37*
G36*
X367030Y370858D02*
X365079Y370470D01*
X363425Y369365D01*
X362320Y367711D01*
X361932Y365760D01*
X362320Y363809D01*
X363425Y362155D01*
X365079Y361050D01*
X367030Y360662D01*
X368981Y361050D01*
X370635Y362155D01*
X371740Y363809D01*
X372128Y365760D01*
X371740Y367711D01*
X370635Y369365D01*
X368981Y370470D01*
X367030Y370858D01*
D02*
G37*
G36*
X351790D02*
X349839Y370470D01*
X348185Y369365D01*
X347080Y367711D01*
X346692Y365760D01*
X347080Y363809D01*
X348185Y362155D01*
X349839Y361050D01*
X351790Y360662D01*
X353741Y361050D01*
X355395Y362155D01*
X356500Y363809D01*
X356888Y365760D01*
X356500Y367711D01*
X355395Y369365D01*
X353741Y370470D01*
X351790Y370858D01*
D02*
G37*
G36*
X10000Y362098D02*
X8049Y361710D01*
X6395Y360605D01*
X5290Y358951D01*
X4902Y357000D01*
X5290Y355049D01*
X6395Y353395D01*
X8049Y352290D01*
X10000Y351902D01*
X11951Y352290D01*
X13605Y353395D01*
X14710Y355049D01*
X15098Y357000D01*
X14710Y358951D01*
X13605Y360605D01*
X11951Y361710D01*
X10000Y362098D01*
D02*
G37*
G36*
X383540Y358158D02*
X381589Y357770D01*
X379935Y356665D01*
X378830Y355011D01*
X378442Y353060D01*
X378830Y351109D01*
X379935Y349455D01*
X381589Y348350D01*
X383540Y347962D01*
X385491Y348350D01*
X387145Y349455D01*
X388250Y351109D01*
X388638Y353060D01*
X388250Y355011D01*
X387145Y356665D01*
X385491Y357770D01*
X383540Y358158D01*
D02*
G37*
G36*
X457200Y354348D02*
X455249Y353960D01*
X453595Y352855D01*
X452490Y351201D01*
X452102Y349250D01*
X452490Y347299D01*
X453595Y345645D01*
X455249Y344540D01*
X457200Y344152D01*
X459151Y344540D01*
X460805Y345645D01*
X461910Y347299D01*
X462298Y349250D01*
X461910Y351201D01*
X460805Y352855D01*
X459151Y353960D01*
X457200Y354348D01*
D02*
G37*
G36*
X312420Y373398D02*
X310469Y373010D01*
X308815Y371905D01*
X307710Y370251D01*
X307322Y368300D01*
X307710Y366349D01*
X308815Y364695D01*
X310469Y363590D01*
X311397Y363406D01*
X312413Y362004D01*
X312402Y361950D01*
X312790Y359999D01*
X313895Y358345D01*
X315549Y357240D01*
X317500Y356852D01*
X317942Y356940D01*
X318840Y356042D01*
X318752Y355600D01*
X319140Y353649D01*
X320245Y351995D01*
X321899Y350890D01*
X323850Y350502D01*
X324292Y350590D01*
X325190Y349692D01*
X325102Y349250D01*
X325490Y347299D01*
X326595Y345645D01*
X328249Y344540D01*
X330200Y344152D01*
X332151Y344540D01*
X333805Y345645D01*
X334910Y347299D01*
X335298Y349250D01*
X334910Y351201D01*
X333805Y352855D01*
X332151Y353960D01*
X330200Y354348D01*
X329758Y354260D01*
X328860Y355158D01*
X328948Y355600D01*
X328560Y357551D01*
X327455Y359205D01*
X325801Y360310D01*
X323850Y360698D01*
X323408Y360610D01*
X322510Y361508D01*
X322598Y361950D01*
X322210Y363901D01*
X321105Y365555D01*
X319451Y366660D01*
X318523Y366844D01*
X317507Y368246D01*
X317518Y368300D01*
X317130Y370251D01*
X316025Y371905D01*
X314371Y373010D01*
X312420Y373398D01*
D02*
G37*
G36*
X189000Y350098D02*
X187049Y349710D01*
X185395Y348605D01*
X184290Y346951D01*
X183902Y345000D01*
X184290Y343049D01*
X185395Y341395D01*
X187049Y340290D01*
X189000Y339902D01*
X190951Y340290D01*
X192605Y341395D01*
X193710Y343049D01*
X194098Y345000D01*
X193710Y346951D01*
X192605Y348605D01*
X190951Y349710D01*
X189000Y350098D01*
D02*
G37*
G36*
X244581Y358517D02*
X242630Y358129D01*
X240976Y357024D01*
X239871Y355370D01*
X239483Y353419D01*
X239871Y351469D01*
X240667Y350277D01*
X240281Y349524D01*
X239961Y349081D01*
X238114Y348714D01*
X236460Y347609D01*
X235355Y345955D01*
X234967Y344004D01*
X235355Y342053D01*
X236460Y340399D01*
X238114Y339294D01*
X240065Y338906D01*
X242016Y339294D01*
X243669Y340399D01*
X244775Y342053D01*
X245163Y344004D01*
X244775Y345955D01*
X243979Y347146D01*
X244364Y347899D01*
X244684Y348342D01*
X246532Y348709D01*
X248185Y349815D01*
X249291Y351469D01*
X249678Y353419D01*
X249291Y355370D01*
X248185Y357024D01*
X246532Y358129D01*
X244581Y358517D01*
D02*
G37*
G36*
X372110Y346728D02*
X370159Y346340D01*
X368505Y345235D01*
X367400Y343581D01*
X367012Y341630D01*
X367400Y339679D01*
X368505Y338025D01*
X370159Y336920D01*
X372110Y336532D01*
X374061Y336920D01*
X375715Y338025D01*
X376820Y339679D01*
X377208Y341630D01*
X376820Y343581D01*
X375715Y345235D01*
X374061Y346340D01*
X372110Y346728D01*
D02*
G37*
G36*
X72000Y354098D02*
X70049Y353710D01*
X68395Y352605D01*
X67290Y350951D01*
X66902Y349000D01*
X67290Y347049D01*
X68395Y345395D01*
X70049Y344290D01*
X72000Y343902D01*
X73951Y344290D01*
X74930Y344944D01*
X75227Y345143D01*
X76143Y344227D01*
X75944Y343930D01*
X75290Y342951D01*
X74902Y341000D01*
X75290Y339049D01*
X76395Y337395D01*
X78049Y336290D01*
X80000Y335902D01*
X81951Y336290D01*
X83605Y337395D01*
X84710Y339049D01*
X85098Y341000D01*
X84710Y342951D01*
X83605Y344605D01*
X81951Y345710D01*
X80000Y346098D01*
X78049Y345710D01*
X77070Y345056D01*
X76773Y344857D01*
X75857Y345773D01*
X76056Y346070D01*
X76710Y347049D01*
X77098Y349000D01*
X76710Y350951D01*
X75605Y352605D01*
X73951Y353710D01*
X72000Y354098D01*
D02*
G37*
G36*
X61000Y345098D02*
X59049Y344710D01*
X57395Y343605D01*
X56290Y341951D01*
X55902Y340000D01*
X56290Y338049D01*
X57395Y336395D01*
X59049Y335290D01*
X61000Y334902D01*
X62951Y335290D01*
X64605Y336395D01*
X65710Y338049D01*
X66098Y340000D01*
X65710Y341951D01*
X64605Y343605D01*
X62951Y344710D01*
X61000Y345098D01*
D02*
G37*
G36*
X436000Y344098D02*
X434049Y343710D01*
X432395Y342605D01*
X431290Y340951D01*
X430902Y339000D01*
X431290Y337049D01*
X432395Y335395D01*
X434049Y334290D01*
X436000Y333902D01*
X437951Y334290D01*
X439605Y335395D01*
X440710Y337049D01*
X441098Y339000D01*
X440710Y340951D01*
X439605Y342605D01*
X437951Y343710D01*
X436000Y344098D01*
D02*
G37*
G36*
X419000D02*
X417049Y343710D01*
X415395Y342605D01*
X414290Y340951D01*
X413902Y339000D01*
X414290Y337049D01*
X415395Y335395D01*
X417049Y334290D01*
X419000Y333902D01*
X420951Y334290D01*
X422605Y335395D01*
X423710Y337049D01*
X424098Y339000D01*
X423710Y340951D01*
X422605Y342605D01*
X420951Y343710D01*
X419000Y344098D01*
D02*
G37*
G36*
X204000D02*
X202049Y343710D01*
X200395Y342605D01*
X199290Y340951D01*
X198902Y339000D01*
X199290Y337049D01*
X200395Y335395D01*
X202049Y334290D01*
X204000Y333902D01*
X205951Y334290D01*
X207605Y335395D01*
X208710Y337049D01*
X209098Y339000D01*
X208710Y340951D01*
X207605Y342605D01*
X205951Y343710D01*
X204000Y344098D01*
D02*
G37*
G36*
X146050Y341648D02*
X144099Y341260D01*
X142445Y340155D01*
X141340Y338501D01*
X140952Y336550D01*
X141340Y334599D01*
X142445Y332945D01*
X144099Y331840D01*
X146050Y331452D01*
X148001Y331840D01*
X149655Y332945D01*
X150760Y334599D01*
X151148Y336550D01*
X150760Y338501D01*
X149655Y340155D01*
X148001Y341260D01*
X146050Y341648D01*
D02*
G37*
G36*
X114300D02*
X112349Y341260D01*
X110695Y340155D01*
X109590Y338501D01*
X109202Y336550D01*
X109590Y334599D01*
X110695Y332945D01*
X112349Y331840D01*
X114300Y331452D01*
X116251Y331840D01*
X117905Y332945D01*
X119010Y334599D01*
X119398Y336550D01*
X119010Y338501D01*
X117905Y340155D01*
X116251Y341260D01*
X114300Y341648D01*
D02*
G37*
G36*
X382270Y337838D02*
X380319Y337450D01*
X378665Y336345D01*
X377560Y334691D01*
X377172Y332740D01*
X377560Y330789D01*
X378665Y329135D01*
X380319Y328030D01*
X382270Y327642D01*
X384221Y328030D01*
X385875Y329135D01*
X386980Y330789D01*
X387368Y332740D01*
X386980Y334691D01*
X385875Y336345D01*
X384221Y337450D01*
X382270Y337838D01*
D02*
G37*
G36*
X41000Y337098D02*
X39049Y336710D01*
X37395Y335605D01*
X36290Y333951D01*
X35902Y332000D01*
X36290Y330049D01*
X37395Y328395D01*
X39049Y327290D01*
X41000Y326902D01*
X42951Y327290D01*
X44605Y328395D01*
X45710Y330049D01*
X46098Y332000D01*
X45710Y333951D01*
X44605Y335605D01*
X42951Y336710D01*
X41000Y337098D01*
D02*
G37*
G36*
X240665Y336602D02*
X238714Y336214D01*
X237061Y335109D01*
X235955Y333455D01*
X235567Y331504D01*
X235955Y329553D01*
X237061Y327899D01*
X238714Y326794D01*
X240665Y326406D01*
X242616Y326794D01*
X244270Y327899D01*
X245375Y329553D01*
X245763Y331504D01*
X245375Y333455D01*
X244270Y335109D01*
X242616Y336214D01*
X240665Y336602D01*
D02*
G37*
G36*
X50000Y330098D02*
X48049Y329710D01*
X46395Y328605D01*
X45290Y326951D01*
X44902Y325000D01*
X45290Y323049D01*
X46395Y321395D01*
X48049Y320290D01*
X50000Y319902D01*
X51951Y320290D01*
X53605Y321395D01*
X54710Y323049D01*
X55098Y325000D01*
X54710Y326951D01*
X53605Y328605D01*
X51951Y329710D01*
X50000Y330098D01*
D02*
G37*
G36*
X257589Y328848D02*
X255639Y328460D01*
X253985Y327355D01*
X252880Y325701D01*
X252491Y323750D01*
X252880Y321799D01*
X253985Y320145D01*
X255639Y319040D01*
X257589Y318652D01*
X259540Y319040D01*
X261194Y320145D01*
X262299Y321799D01*
X262687Y323750D01*
X262299Y325701D01*
X261194Y327355D01*
X259540Y328460D01*
X257589Y328848D01*
D02*
G37*
G36*
X92000Y326098D02*
X90049Y325710D01*
X88395Y324605D01*
X87290Y322951D01*
X86902Y321000D01*
X87290Y319049D01*
X88395Y317395D01*
X90049Y316290D01*
X92000Y315902D01*
X93951Y316290D01*
X95605Y317395D01*
X96710Y319049D01*
X97098Y321000D01*
X96710Y322951D01*
X95605Y324605D01*
X93951Y325710D01*
X92000Y326098D01*
D02*
G37*
G36*
X412750Y323868D02*
X410799Y323480D01*
X409145Y322375D01*
X408040Y320721D01*
X407652Y318770D01*
X408040Y316819D01*
X409145Y315165D01*
X410799Y314060D01*
X412750Y313672D01*
X414701Y314060D01*
X416355Y315165D01*
X417460Y316819D01*
X417848Y318770D01*
X417460Y320721D01*
X416355Y322375D01*
X414701Y323480D01*
X412750Y323868D01*
D02*
G37*
G36*
X382270Y322598D02*
X380319Y322210D01*
X378665Y321105D01*
X377560Y319451D01*
X377172Y317500D01*
X377560Y315549D01*
X378665Y313895D01*
X380319Y312790D01*
X382270Y312402D01*
X384221Y312790D01*
X385875Y313895D01*
X386980Y315549D01*
X387368Y317500D01*
X386980Y319451D01*
X385875Y321105D01*
X384221Y322210D01*
X382270Y322598D01*
D02*
G37*
G36*
X41000Y321098D02*
X39049Y320710D01*
X37395Y319605D01*
X36290Y317951D01*
X35902Y316000D01*
X36290Y314049D01*
X37395Y312395D01*
X39049Y311290D01*
X41000Y310902D01*
X42951Y311290D01*
X44605Y312395D01*
X45710Y314049D01*
X46098Y316000D01*
X45710Y317951D01*
X44605Y319605D01*
X42951Y320710D01*
X41000Y321098D01*
D02*
G37*
G36*
X182852Y312225D02*
X180902Y311837D01*
X179248Y310732D01*
X178143Y309078D01*
X177754Y307127D01*
X178143Y305176D01*
X179248Y303522D01*
X180902Y302417D01*
X182852Y302029D01*
X184803Y302417D01*
X186457Y303522D01*
X187562Y305176D01*
X187950Y307127D01*
X187562Y309078D01*
X186457Y310732D01*
X184803Y311837D01*
X182852Y312225D01*
D02*
G37*
G36*
X50000Y312098D02*
X48049Y311710D01*
X46395Y310605D01*
X45290Y308951D01*
X44902Y307000D01*
X45290Y305049D01*
X46395Y303395D01*
X48049Y302290D01*
X50000Y301902D01*
X51951Y302290D01*
X53605Y303395D01*
X54710Y305049D01*
X55098Y307000D01*
X54710Y308951D01*
X53605Y310605D01*
X51951Y311710D01*
X50000Y312098D01*
D02*
G37*
G36*
X115000Y307599D02*
X113049Y307211D01*
X111395Y306106D01*
X110290Y304452D01*
X109902Y302501D01*
X110290Y300550D01*
X111395Y298896D01*
X113049Y297791D01*
X115000Y297403D01*
X116951Y297791D01*
X118605Y298896D01*
X119710Y300550D01*
X120098Y302501D01*
X119710Y304452D01*
X118605Y306106D01*
X116951Y307211D01*
X115000Y307599D01*
D02*
G37*
G36*
X361000Y302098D02*
X359049Y301710D01*
X357395Y300605D01*
X356290Y298951D01*
X355902Y297000D01*
X356290Y295049D01*
X357395Y293395D01*
X359049Y292290D01*
X361000Y291902D01*
X362951Y292290D01*
X364605Y293395D01*
X365710Y295049D01*
X366098Y297000D01*
X365710Y298951D01*
X364605Y300605D01*
X362951Y301710D01*
X361000Y302098D01*
D02*
G37*
G36*
X418000Y302098D02*
X416049Y301710D01*
X414395Y300605D01*
X413290Y298951D01*
X412902Y297000D01*
X413290Y295049D01*
X414395Y293395D01*
X416049Y292290D01*
X418000Y291902D01*
X419951Y292290D01*
X421605Y293395D01*
X422710Y295049D01*
X423098Y297000D01*
X422710Y298951D01*
X421605Y300605D01*
X419951Y301710D01*
X418000Y302098D01*
D02*
G37*
G36*
X302000Y307098D02*
X300049Y306710D01*
X298395Y305605D01*
X297290Y303951D01*
X296902Y302000D01*
X297290Y300049D01*
X297463Y299790D01*
X297087Y298067D01*
X296395Y297605D01*
X295290Y295951D01*
X294902Y294000D01*
X295290Y292049D01*
X296395Y290395D01*
X298049Y289290D01*
X300000Y288902D01*
X301951Y289290D01*
X303605Y290395D01*
X304710Y292049D01*
X305098Y294000D01*
X304710Y295951D01*
X304537Y296210D01*
X304913Y297933D01*
X305605Y298395D01*
X306710Y300049D01*
X307098Y302000D01*
X306710Y303951D01*
X305605Y305605D01*
X303951Y306710D01*
X302000Y307098D01*
D02*
G37*
G36*
X331250Y297198D02*
X329300Y296810D01*
X327646Y295705D01*
X326541Y294051D01*
X326153Y292100D01*
X326228Y291720D01*
X325481Y290973D01*
X325110Y290830D01*
X323248Y290460D01*
X321595Y289355D01*
X320490Y287701D01*
X320302Y286758D01*
X318907Y285741D01*
X318770Y285768D01*
X316819Y285380D01*
X315165Y284275D01*
X314060Y282621D01*
X313672Y280670D01*
X314060Y278719D01*
X315165Y277065D01*
X316819Y275960D01*
X318770Y275572D01*
X320721Y275960D01*
X322375Y277065D01*
X323480Y278719D01*
X323667Y279662D01*
X325062Y280679D01*
X325199Y280652D01*
X327150Y281040D01*
X328804Y282145D01*
X329909Y283799D01*
X330297Y285750D01*
X330222Y286130D01*
X330969Y286877D01*
X331340Y287020D01*
X333201Y287390D01*
X334855Y288495D01*
X335960Y290149D01*
X336348Y292100D01*
X335960Y294051D01*
X334855Y295705D01*
X333201Y296810D01*
X331250Y297198D01*
D02*
G37*
G36*
X255000Y301098D02*
X253049Y300710D01*
X251395Y299605D01*
X250290Y297951D01*
X249902Y296000D01*
X250290Y294049D01*
X251055Y292905D01*
X251292Y292000D01*
X251055Y291095D01*
X250290Y289951D01*
X249902Y288000D01*
X250290Y286049D01*
X251395Y284395D01*
X253049Y283290D01*
X255000Y282902D01*
X256951Y283290D01*
X258605Y284395D01*
X259710Y286049D01*
X260098Y288000D01*
X259710Y289951D01*
X258945Y291095D01*
X258708Y292000D01*
X258945Y292905D01*
X259710Y294049D01*
X260098Y296000D01*
X259710Y297951D01*
X258605Y299605D01*
X256951Y300710D01*
X255000Y301098D01*
D02*
G37*
G36*
X427000Y292098D02*
X425049Y291710D01*
X423395Y290605D01*
X422290Y288951D01*
X421902Y287000D01*
X422290Y285049D01*
X423395Y283395D01*
X425049Y282290D01*
X427000Y281902D01*
X428951Y282290D01*
X430605Y283395D01*
X431710Y285049D01*
X432098Y287000D01*
X431710Y288951D01*
X430605Y290605D01*
X428951Y291710D01*
X427000Y292098D01*
D02*
G37*
G36*
X176000D02*
X174049Y291710D01*
X172395Y290605D01*
X171290Y288951D01*
X170902Y287000D01*
X171290Y285049D01*
X172395Y283395D01*
X174049Y282290D01*
X176000Y281902D01*
X177951Y282290D01*
X179605Y283395D01*
X180710Y285049D01*
X181098Y287000D01*
X180710Y288951D01*
X179605Y290605D01*
X177951Y291710D01*
X176000Y292098D01*
D02*
G37*
G36*
X343745Y286844D02*
X341794Y286455D01*
X340140Y285350D01*
X339035Y283696D01*
X338647Y281746D01*
X339035Y279795D01*
X340140Y278141D01*
X341794Y277036D01*
X343745Y276648D01*
X345696Y277036D01*
X347350Y278141D01*
X348455Y279795D01*
X348843Y281746D01*
X348455Y283696D01*
X347350Y285350D01*
X345696Y286455D01*
X343745Y286844D01*
D02*
G37*
G36*
X90771Y286472D02*
Y276270D01*
X100973D01*
X100744Y278013D01*
X99581Y280820D01*
X97731Y283230D01*
X95320Y285080D01*
X92513Y286243D01*
X90771Y286472D01*
D02*
G37*
G36*
X88231D02*
X86488Y286243D01*
X83681Y285080D01*
X81270Y283230D01*
X79420Y280820D01*
X78258Y278013D01*
X78028Y276270D01*
X88231D01*
Y286472D01*
D02*
G37*
G36*
X282000Y286098D02*
X280049Y285710D01*
X278395Y284605D01*
X277290Y282951D01*
X276902Y281000D01*
X277290Y279049D01*
X278395Y277395D01*
X280049Y276290D01*
X282000Y275902D01*
X283951Y276290D01*
X285605Y277395D01*
X286710Y279049D01*
X287098Y281000D01*
X286710Y282951D01*
X285605Y284605D01*
X283951Y285710D01*
X282000Y286098D01*
D02*
G37*
G36*
X378000Y284098D02*
X376049Y283710D01*
X374395Y282605D01*
X373290Y280951D01*
X372902Y279000D01*
X373290Y277049D01*
X374395Y275395D01*
X376049Y274290D01*
X378000Y273902D01*
X379951Y274290D01*
X381605Y275395D01*
X382710Y277049D01*
X383098Y279000D01*
X382710Y280951D01*
X381605Y282605D01*
X379951Y283710D01*
X378000Y284098D01*
D02*
G37*
G36*
X142950Y283798D02*
X140999Y283410D01*
X139345Y282305D01*
X138240Y280651D01*
X137852Y278700D01*
X138240Y276749D01*
X139345Y275095D01*
X140999Y273990D01*
X142950Y273602D01*
X144901Y273990D01*
X146555Y275095D01*
X147660Y276749D01*
X148048Y278700D01*
X147660Y280651D01*
X146555Y282305D01*
X144901Y283410D01*
X142950Y283798D01*
D02*
G37*
G36*
X119501Y286095D02*
X116629Y285717D01*
X113953Y284608D01*
X111655Y282845D01*
X109892Y280547D01*
X108784Y277872D01*
X108406Y275000D01*
X108784Y272128D01*
X109892Y269453D01*
X111655Y267155D01*
X113953Y265392D01*
X116629Y264283D01*
X119501Y263905D01*
X122372Y264283D01*
X125048Y265392D01*
X127346Y267155D01*
X129109Y269453D01*
X130217Y272128D01*
X130596Y275000D01*
X130217Y277872D01*
X129109Y280547D01*
X127346Y282845D01*
X125048Y284608D01*
X122372Y285717D01*
X119501Y286095D01*
D02*
G37*
G36*
X100973Y273730D02*
X90771D01*
Y263528D01*
X92513Y263757D01*
X95320Y264920D01*
X97731Y266770D01*
X99581Y269180D01*
X100744Y271987D01*
X100973Y273730D01*
D02*
G37*
G36*
X88231D02*
X78028D01*
X78258Y271987D01*
X79420Y269180D01*
X81270Y266770D01*
X83681Y264920D01*
X86488Y263757D01*
X88231Y263528D01*
Y273730D01*
D02*
G37*
G36*
X436880Y271798D02*
X434929Y271410D01*
X433275Y270305D01*
X432170Y268651D01*
X431782Y266700D01*
X432170Y264749D01*
X433275Y263095D01*
X434929Y261990D01*
X436880Y261602D01*
X438831Y261990D01*
X440485Y263095D01*
X441590Y264749D01*
X441978Y266700D01*
X441590Y268651D01*
X440485Y270305D01*
X438831Y271410D01*
X436880Y271798D01*
D02*
G37*
G36*
X227000Y266098D02*
X225049Y265710D01*
X223395Y264605D01*
X222290Y262951D01*
X221902Y261000D01*
X222290Y259049D01*
X223055Y257905D01*
X223292Y257000D01*
X223055Y256095D01*
X222290Y254951D01*
X222147Y254234D01*
X220853D01*
X220710Y254951D01*
X219605Y256605D01*
X217951Y257710D01*
X216000Y258098D01*
X214049Y257710D01*
X212395Y256605D01*
X211290Y254951D01*
X210902Y253000D01*
X211290Y251049D01*
X212395Y249395D01*
X214049Y248290D01*
X216000Y247902D01*
X217951Y248290D01*
X219605Y249395D01*
X220710Y251049D01*
X220853Y251766D01*
X222147D01*
X222290Y251049D01*
X223395Y249395D01*
X225049Y248290D01*
X227000Y247902D01*
X228951Y248290D01*
X230605Y249395D01*
X231710Y251049D01*
X232098Y253000D01*
X231710Y254951D01*
X230945Y256095D01*
X230708Y257000D01*
X230945Y257905D01*
X231710Y259049D01*
X232098Y261000D01*
X231710Y262951D01*
X230605Y264605D01*
X228951Y265710D01*
X227000Y266098D01*
D02*
G37*
G36*
X302260Y260368D02*
X300309Y259980D01*
X298655Y258875D01*
X297550Y257221D01*
X297162Y255270D01*
X297550Y253319D01*
X298655Y251665D01*
X300309Y250560D01*
X302260Y250172D01*
X304211Y250560D01*
X305865Y251665D01*
X306970Y253319D01*
X307358Y255270D01*
X306970Y257221D01*
X305865Y258875D01*
X304211Y259980D01*
X302260Y260368D01*
D02*
G37*
G36*
X253000Y258098D02*
X251049Y257710D01*
X249395Y256605D01*
X248290Y254951D01*
X247902Y253000D01*
X248290Y251049D01*
X249395Y249395D01*
X251049Y248290D01*
X253000Y247902D01*
X254951Y248290D01*
X256605Y249395D01*
X257710Y251049D01*
X258098Y253000D01*
X257710Y254951D01*
X256605Y256605D01*
X254951Y257710D01*
X253000Y258098D01*
D02*
G37*
G36*
X317500Y255288D02*
X315549Y254900D01*
X313895Y253795D01*
X312790Y252141D01*
X312402Y250190D01*
X312790Y248239D01*
X313895Y246585D01*
X315549Y245480D01*
X317500Y245092D01*
X319451Y245480D01*
X321105Y246585D01*
X322210Y248239D01*
X322598Y250190D01*
X322210Y252141D01*
X321105Y253795D01*
X319451Y254900D01*
X317500Y255288D01*
D02*
G37*
G36*
X404000Y255098D02*
X402049Y254710D01*
X400395Y253605D01*
X399290Y251951D01*
X398902Y250000D01*
X399290Y248049D01*
X400395Y246395D01*
X402049Y245290D01*
X404000Y244902D01*
X405951Y245290D01*
X407605Y246395D01*
X408710Y248049D01*
X409098Y250000D01*
X408710Y251951D01*
X407605Y253605D01*
X405951Y254710D01*
X404000Y255098D01*
D02*
G37*
G36*
X140000Y252097D02*
X138049Y251709D01*
X136395Y250604D01*
X135290Y248950D01*
X134902Y246999D01*
X135290Y245049D01*
X136395Y243395D01*
X138049Y242290D01*
X140000Y241901D01*
X141951Y242290D01*
X143604Y243395D01*
X144710Y245049D01*
X145098Y246999D01*
X144710Y248950D01*
X143604Y250604D01*
X141951Y251709D01*
X140000Y252097D01*
D02*
G37*
G36*
X172000Y251098D02*
X170049Y250710D01*
X168395Y249605D01*
X167290Y247951D01*
X166902Y246000D01*
X167290Y244049D01*
X168395Y242395D01*
X170049Y241290D01*
X172000Y240902D01*
X173951Y241290D01*
X175605Y242395D01*
X176710Y244049D01*
X177098Y246000D01*
X176710Y247951D01*
X175605Y249605D01*
X173951Y250710D01*
X172000Y251098D01*
D02*
G37*
G36*
X46501Y270582D02*
X43168Y270254D01*
X39964Y269282D01*
X37010Y267703D01*
X34422Y265579D01*
X32297Y262990D01*
X30719Y260037D01*
X29747Y256833D01*
X29418Y253500D01*
X29747Y250167D01*
X30719Y246963D01*
X32297Y244010D01*
X34422Y241421D01*
X37010Y239297D01*
X39964Y237718D01*
X43168Y236746D01*
X46501Y236418D01*
X49833Y236746D01*
X53038Y237718D01*
X55991Y239297D01*
X58580Y241421D01*
X60704Y244010D01*
X62283Y246963D01*
X63255Y250167D01*
X63583Y253500D01*
X63255Y256833D01*
X62283Y260037D01*
X60704Y262990D01*
X58580Y265579D01*
X55991Y267703D01*
X53038Y269282D01*
X49833Y270254D01*
X46501Y270582D01*
D02*
G37*
G36*
X119501Y256095D02*
X116629Y255717D01*
X113953Y254608D01*
X111655Y252845D01*
X109892Y250548D01*
X108784Y247872D01*
X108406Y245000D01*
X108784Y242128D01*
X109892Y239453D01*
X111655Y237155D01*
X113953Y235392D01*
X116629Y234283D01*
X119501Y233905D01*
X122372Y234283D01*
X125048Y235392D01*
X127346Y237155D01*
X129109Y239453D01*
X130217Y242128D01*
X130596Y245000D01*
X130217Y247872D01*
X129109Y250548D01*
X127346Y252845D01*
X125048Y254608D01*
X122372Y255717D01*
X119501Y256095D01*
D02*
G37*
G36*
X89501D02*
X86629Y255717D01*
X83953Y254608D01*
X81655Y252845D01*
X79892Y250548D01*
X78784Y247872D01*
X78406Y245000D01*
X78784Y242128D01*
X79892Y239453D01*
X81655Y237155D01*
X83953Y235392D01*
X86629Y234283D01*
X89501Y233905D01*
X92372Y234283D01*
X95048Y235392D01*
X97346Y237155D01*
X99109Y239453D01*
X100217Y242128D01*
X100596Y245000D01*
X100217Y247872D01*
X99109Y250548D01*
X97346Y252845D01*
X95048Y254608D01*
X92372Y255717D01*
X89501Y256095D01*
D02*
G37*
G36*
X153000Y236098D02*
X151049Y235710D01*
X149395Y234605D01*
X148290Y232951D01*
X147902Y231000D01*
X148290Y229049D01*
X149395Y227395D01*
X151049Y226290D01*
X153000Y225902D01*
X154951Y226290D01*
X156605Y227395D01*
X157710Y229049D01*
X158098Y231000D01*
X157710Y232951D01*
X156605Y234605D01*
X154951Y235710D01*
X153000Y236098D01*
D02*
G37*
G36*
X222250Y238778D02*
X220299Y238390D01*
X218645Y237285D01*
X217540Y235631D01*
X217152Y233680D01*
X217540Y231729D01*
X218645Y230075D01*
X220299Y228970D01*
X222250Y228582D01*
X222304Y228593D01*
X223706Y227577D01*
X223890Y226649D01*
X224995Y224995D01*
X226649Y223890D01*
X228600Y223502D01*
X230551Y223890D01*
X232205Y224995D01*
X233310Y226649D01*
X233698Y228600D01*
X233310Y230551D01*
X232205Y232205D01*
X230551Y233310D01*
X228600Y233698D01*
X228546Y233687D01*
X227144Y234703D01*
X226960Y235631D01*
X225855Y237285D01*
X224201Y238390D01*
X222250Y238778D01*
D02*
G37*
G36*
X209205Y224463D02*
X207254Y224075D01*
X205600Y222970D01*
X204495Y221316D01*
X204107Y219365D01*
X204495Y217414D01*
X205600Y215760D01*
X207254Y214655D01*
X209205Y214267D01*
X211156Y214655D01*
X212810Y215760D01*
X213915Y217414D01*
X214303Y219365D01*
X213915Y221316D01*
X212810Y222970D01*
X211156Y224075D01*
X209205Y224463D01*
D02*
G37*
G36*
X139000Y224098D02*
X137049Y223710D01*
X135395Y222605D01*
X134290Y220951D01*
X133902Y219000D01*
X134290Y217049D01*
X135395Y215395D01*
X137049Y214290D01*
X139000Y213902D01*
X140951Y214290D01*
X142605Y215395D01*
X143710Y217049D01*
X144098Y219000D01*
X143710Y220951D01*
X142605Y222605D01*
X140951Y223710D01*
X139000Y224098D01*
D02*
G37*
G36*
X302000Y218098D02*
X300049Y217710D01*
X298395Y216605D01*
X297290Y214951D01*
X296902Y213000D01*
X297290Y211049D01*
X298395Y209395D01*
X300049Y208290D01*
X302000Y207902D01*
X303951Y208290D01*
X305605Y209395D01*
X306710Y211049D01*
X307098Y213000D01*
X306710Y214951D01*
X305605Y216605D01*
X303951Y217710D01*
X302000Y218098D01*
D02*
G37*
G36*
X119501Y226095D02*
X116629Y225717D01*
X113953Y224608D01*
X111655Y222845D01*
X109892Y220548D01*
X108784Y217872D01*
X108406Y215000D01*
X108784Y212129D01*
X109892Y209453D01*
X111655Y207155D01*
X113953Y205392D01*
X116629Y204283D01*
X119501Y203905D01*
X122372Y204283D01*
X125048Y205392D01*
X127346Y207155D01*
X129109Y209453D01*
X130217Y212129D01*
X130596Y215000D01*
X130217Y217872D01*
X129109Y220548D01*
X127346Y222845D01*
X125048Y224608D01*
X122372Y225717D01*
X119501Y226095D01*
D02*
G37*
G36*
X89501D02*
X86629Y225717D01*
X83953Y224608D01*
X81655Y222845D01*
X79892Y220548D01*
X78784Y217872D01*
X78406Y215000D01*
X78784Y212129D01*
X79892Y209453D01*
X81655Y207155D01*
X83953Y205392D01*
X86629Y204283D01*
X89501Y203905D01*
X92372Y204283D01*
X95048Y205392D01*
X97346Y207155D01*
X99109Y209453D01*
X100217Y212129D01*
X100596Y215000D01*
X100217Y217872D01*
X99109Y220548D01*
X97346Y222845D01*
X95048Y224608D01*
X92372Y225717D01*
X89501Y226095D01*
D02*
G37*
G36*
X216000Y211098D02*
X214049Y210710D01*
X212395Y209605D01*
X211290Y207951D01*
X210902Y206000D01*
X211290Y204049D01*
X212395Y202395D01*
X214049Y201290D01*
X216000Y200902D01*
X217951Y201290D01*
X219605Y202395D01*
X220710Y204049D01*
X221098Y206000D01*
X220710Y207951D01*
X219605Y209605D01*
X217951Y210710D01*
X216000Y211098D01*
D02*
G37*
G36*
X179070Y208298D02*
X177119Y207910D01*
X175465Y206805D01*
X174360Y205151D01*
X173972Y203200D01*
X174360Y201249D01*
X175465Y199595D01*
X177119Y198490D01*
X179070Y198102D01*
X181021Y198490D01*
X182675Y199595D01*
X183780Y201249D01*
X184168Y203200D01*
X183780Y205151D01*
X182675Y206805D01*
X181021Y207910D01*
X179070Y208298D01*
D02*
G37*
G36*
X152000Y203098D02*
X150049Y202710D01*
X148395Y201605D01*
X147290Y199951D01*
X146902Y198000D01*
X147290Y196049D01*
X148395Y194395D01*
X150049Y193290D01*
X152000Y192902D01*
X153951Y193290D01*
X155605Y194395D01*
X156710Y196049D01*
X157098Y198000D01*
X156710Y199951D01*
X155605Y201605D01*
X153951Y202710D01*
X152000Y203098D01*
D02*
G37*
G36*
X242000Y198098D02*
X240049Y197710D01*
X238395Y196605D01*
X237290Y194951D01*
X236902Y193000D01*
X237290Y191049D01*
X238395Y189395D01*
X240049Y188290D01*
X242000Y187902D01*
X243951Y188290D01*
X245605Y189395D01*
X246710Y191049D01*
X247098Y193000D01*
X246710Y194951D01*
X245605Y196605D01*
X243951Y197710D01*
X242000Y198098D01*
D02*
G37*
G36*
X171450Y196868D02*
X169499Y196480D01*
X167845Y195375D01*
X166740Y193721D01*
X166352Y191770D01*
X166740Y189819D01*
X167845Y188165D01*
X169499Y187060D01*
X171450Y186672D01*
X173401Y187060D01*
X175055Y188165D01*
X176160Y189819D01*
X176548Y191770D01*
X176160Y193721D01*
X175055Y195375D01*
X173401Y196480D01*
X171450Y196868D01*
D02*
G37*
G36*
X328000Y190098D02*
X326049Y189710D01*
X324395Y188605D01*
X323290Y186951D01*
X322902Y185000D01*
X323290Y183049D01*
X324395Y181395D01*
X326049Y180290D01*
X328000Y179902D01*
X329951Y180290D01*
X331605Y181395D01*
X332710Y183049D01*
X333098Y185000D01*
X332710Y186951D01*
X331605Y188605D01*
X329951Y189710D01*
X328000Y190098D01*
D02*
G37*
G36*
X310000D02*
X308049Y189710D01*
X306395Y188605D01*
X305290Y186951D01*
X304902Y185000D01*
X305290Y183049D01*
X306395Y181395D01*
X308049Y180290D01*
X310000Y179902D01*
X311951Y180290D01*
X313605Y181395D01*
X314710Y183049D01*
X315098Y185000D01*
X314710Y186951D01*
X313605Y188605D01*
X311951Y189710D01*
X310000Y190098D01*
D02*
G37*
G36*
X119501Y196095D02*
X116629Y195717D01*
X113953Y194608D01*
X111655Y192845D01*
X109892Y190547D01*
X108784Y187872D01*
X108406Y185000D01*
X108784Y182128D01*
X109892Y179453D01*
X111655Y177155D01*
X113953Y175392D01*
X116629Y174283D01*
X119501Y173905D01*
X122372Y174283D01*
X125048Y175392D01*
X127346Y177155D01*
X129109Y179453D01*
X130217Y182128D01*
X130596Y185000D01*
X130217Y187872D01*
X129109Y190547D01*
X127346Y192845D01*
X125048Y194608D01*
X122372Y195717D01*
X119501Y196095D01*
D02*
G37*
G36*
X89501D02*
X86629Y195717D01*
X83953Y194608D01*
X81655Y192845D01*
X79892Y190547D01*
X78784Y187872D01*
X78406Y185000D01*
X78784Y182128D01*
X79892Y179453D01*
X81655Y177155D01*
X83953Y175392D01*
X86629Y174283D01*
X89501Y173905D01*
X92372Y174283D01*
X95048Y175392D01*
X97346Y177155D01*
X99109Y179453D01*
X100217Y182128D01*
X100596Y185000D01*
X100217Y187872D01*
X99109Y190547D01*
X97346Y192845D01*
X95048Y194608D01*
X92372Y195717D01*
X89501Y196095D01*
D02*
G37*
G36*
X171450Y176548D02*
X169499Y176160D01*
X167845Y175055D01*
X166740Y173401D01*
X166352Y171450D01*
X166740Y169499D01*
X167845Y167845D01*
X169499Y166740D01*
X171450Y166352D01*
X173401Y166740D01*
X175055Y167845D01*
X176160Y169499D01*
X176548Y171450D01*
X176160Y173401D01*
X175055Y175055D01*
X173401Y176160D01*
X171450Y176548D01*
D02*
G37*
G36*
X368000Y173098D02*
X366049Y172710D01*
X364395Y171605D01*
X363290Y169951D01*
X362902Y168000D01*
X363290Y166049D01*
X364395Y164395D01*
X366049Y163290D01*
X368000Y162902D01*
X369951Y163290D01*
X371605Y164395D01*
X372710Y166049D01*
X373098Y168000D01*
X372710Y169951D01*
X371605Y171605D01*
X369951Y172710D01*
X368000Y173098D01*
D02*
G37*
G36*
X192000Y166098D02*
X190049Y165710D01*
X188395Y164605D01*
X187290Y162951D01*
X186902Y161000D01*
X187290Y159049D01*
X188395Y157395D01*
X190049Y156290D01*
X192000Y155902D01*
X193951Y156290D01*
X195605Y157395D01*
X196710Y159049D01*
X197098Y161000D01*
X196710Y162951D01*
X195605Y164605D01*
X193951Y165710D01*
X192000Y166098D01*
D02*
G37*
G36*
X555600Y176595D02*
X552728Y176217D01*
X550052Y175109D01*
X547755Y173346D01*
X545992Y171048D01*
X544883Y168372D01*
X544505Y165500D01*
X544883Y162629D01*
X545992Y159953D01*
X547755Y157655D01*
X550052Y155892D01*
X552728Y154784D01*
X555600Y154405D01*
X558471Y154784D01*
X561147Y155892D01*
X563445Y157655D01*
X565208Y159953D01*
X566317Y162629D01*
X566695Y165500D01*
X566317Y168372D01*
X565208Y171048D01*
X563445Y173346D01*
X561147Y175109D01*
X558471Y176217D01*
X555600Y176595D01*
D02*
G37*
G36*
X327000D02*
X324128Y176217D01*
X321452Y175109D01*
X319155Y173346D01*
X317391Y171048D01*
X316283Y168372D01*
X315905Y165500D01*
X316283Y162629D01*
X317391Y159953D01*
X319155Y157655D01*
X321452Y155892D01*
X324128Y154784D01*
X327000Y154405D01*
X329871Y154784D01*
X332547Y155892D01*
X334845Y157655D01*
X336608Y159953D01*
X337717Y162629D01*
X338095Y165500D01*
X337717Y168372D01*
X336608Y171048D01*
X334845Y173346D01*
X332547Y175109D01*
X329871Y176217D01*
X327000Y176595D01*
D02*
G37*
G36*
X119501Y166095D02*
X116629Y165717D01*
X113953Y164608D01*
X111655Y162845D01*
X109892Y160548D01*
X108784Y157872D01*
X108406Y155000D01*
X108784Y152128D01*
X109892Y149453D01*
X111655Y147155D01*
X113953Y145392D01*
X116629Y144283D01*
X119501Y143905D01*
X122372Y144283D01*
X125048Y145392D01*
X127346Y147155D01*
X129109Y149453D01*
X130217Y152128D01*
X130596Y155000D01*
X130217Y157872D01*
X129109Y160548D01*
X127346Y162845D01*
X125048Y164608D01*
X122372Y165717D01*
X119501Y166095D01*
D02*
G37*
G36*
X89501D02*
X86629Y165717D01*
X83953Y164608D01*
X81655Y162845D01*
X79892Y160548D01*
X78784Y157872D01*
X78406Y155000D01*
X78784Y152128D01*
X79892Y149453D01*
X81655Y147155D01*
X83953Y145392D01*
X86629Y144283D01*
X89501Y143905D01*
X92372Y144283D01*
X95048Y145392D01*
X97346Y147155D01*
X99109Y149453D01*
X100217Y152128D01*
X100596Y155000D01*
X100217Y157872D01*
X99109Y160548D01*
X97346Y162845D01*
X95048Y164608D01*
X92372Y165717D01*
X89501Y166095D01*
D02*
G37*
G36*
X260000Y167323D02*
X256620Y166991D01*
X253371Y166005D01*
X250376Y164404D01*
X247750Y162250D01*
X245596Y159624D01*
X243995Y156629D01*
X243009Y153380D01*
X242677Y150000D01*
X243009Y146620D01*
X243995Y143371D01*
X245596Y140376D01*
X247750Y137751D01*
X250376Y135596D01*
X253371Y133995D01*
X256620Y133010D01*
X260000Y132677D01*
X263380Y133010D01*
X266629Y133995D01*
X269624Y135596D01*
X272250Y137751D01*
X274404Y140376D01*
X276005Y143371D01*
X276991Y146620D01*
X277323Y150000D01*
X276991Y153380D01*
X276005Y156629D01*
X274404Y159624D01*
X272250Y162250D01*
X269624Y164404D01*
X266629Y166005D01*
X263380Y166991D01*
X260000Y167323D01*
D02*
G37*
G36*
X46501Y163582D02*
X43168Y163254D01*
X39964Y162282D01*
X37010Y160703D01*
X34422Y158579D01*
X32297Y155990D01*
X30719Y153037D01*
X29747Y149833D01*
X29418Y146500D01*
X29747Y143167D01*
X30719Y139963D01*
X32297Y137010D01*
X34422Y134421D01*
X37010Y132297D01*
X39964Y130718D01*
X43168Y129746D01*
X46501Y129418D01*
X49833Y129746D01*
X53038Y130718D01*
X55991Y132297D01*
X58580Y134421D01*
X60704Y137010D01*
X62283Y139963D01*
X63255Y143167D01*
X63583Y146500D01*
X63255Y149833D01*
X62283Y153037D01*
X60704Y155990D01*
X58580Y158579D01*
X55991Y160703D01*
X53038Y162282D01*
X49833Y163254D01*
X46501Y163582D01*
D02*
G37*
G36*
X555599Y151196D02*
X552728Y150818D01*
X550052Y149710D01*
X547754Y147947D01*
X545991Y145649D01*
X544882Y142973D01*
X544504Y140101D01*
X544882Y137230D01*
X545991Y134554D01*
X547754Y132256D01*
X550052Y130493D01*
X552728Y129384D01*
X555599Y129006D01*
X558471Y129384D01*
X561147Y130493D01*
X563444Y132256D01*
X565208Y134554D01*
X566316Y137230D01*
X566694Y140101D01*
X566316Y142973D01*
X565208Y145649D01*
X563444Y147947D01*
X561147Y149710D01*
X558471Y150818D01*
X555599Y151196D01*
D02*
G37*
G36*
X326999D02*
X324128Y150818D01*
X321452Y149710D01*
X319154Y147947D01*
X317391Y145649D01*
X316282Y142973D01*
X315904Y140101D01*
X316282Y137230D01*
X317391Y134554D01*
X319154Y132256D01*
X321452Y130493D01*
X324128Y129384D01*
X326999Y129006D01*
X329871Y129384D01*
X332547Y130493D01*
X334844Y132256D01*
X336608Y134554D01*
X337716Y137230D01*
X338094Y140101D01*
X337716Y142973D01*
X336608Y145649D01*
X334844Y147947D01*
X332547Y149710D01*
X329871Y150818D01*
X326999Y151196D01*
D02*
G37*
G36*
X100501Y136000D02*
X78501D01*
Y114000D01*
X100501D01*
Y136000D01*
D02*
G37*
G36*
X119501Y136095D02*
X116629Y135717D01*
X113953Y134608D01*
X111655Y132845D01*
X109892Y130547D01*
X108784Y127872D01*
X108406Y125000D01*
X108784Y122128D01*
X109892Y119453D01*
X111655Y117155D01*
X113953Y115392D01*
X116629Y114283D01*
X119501Y113905D01*
X122372Y114283D01*
X125048Y115392D01*
X127346Y117155D01*
X129109Y119453D01*
X130217Y122128D01*
X130596Y125000D01*
X130217Y127872D01*
X129109Y130547D01*
X127346Y132845D01*
X125048Y134608D01*
X122372Y135717D01*
X119501Y136095D01*
D02*
G37*
G36*
X372110Y114826D02*
X370159Y114438D01*
X368505Y113333D01*
X367400Y111679D01*
X367012Y109728D01*
X367400Y107777D01*
X368505Y106123D01*
X370159Y105018D01*
X372110Y104630D01*
X374061Y105018D01*
X375715Y106123D01*
X376820Y107777D01*
X377208Y109728D01*
X376820Y111679D01*
X375715Y113333D01*
X374061Y114438D01*
X372110Y114826D01*
D02*
G37*
G36*
X555601Y125794D02*
X552729Y125416D01*
X550053Y124308D01*
X547756Y122545D01*
X545992Y120247D01*
X544884Y117571D01*
X544506Y114700D01*
X544884Y111828D01*
X545992Y109152D01*
X547756Y106854D01*
X550053Y105091D01*
X552729Y103983D01*
X555601Y103605D01*
X558472Y103983D01*
X561148Y105091D01*
X563446Y106854D01*
X565209Y109152D01*
X566318Y111828D01*
X566696Y114700D01*
X566318Y117571D01*
X565209Y120247D01*
X563446Y122545D01*
X561148Y124308D01*
X558472Y125416D01*
X555601Y125794D01*
D02*
G37*
G36*
X327001D02*
X324129Y125416D01*
X321453Y124308D01*
X319156Y122545D01*
X317392Y120247D01*
X316284Y117571D01*
X315906Y114700D01*
X316284Y111828D01*
X317392Y109152D01*
X319156Y106854D01*
X321453Y105091D01*
X324129Y103983D01*
X327001Y103605D01*
X329872Y103983D01*
X332548Y105091D01*
X334846Y106854D01*
X336609Y109152D01*
X337718Y111828D01*
X338096Y114700D01*
X337718Y117571D01*
X336609Y120247D01*
X334846Y122545D01*
X332548Y124308D01*
X329872Y125416D01*
X327001Y125794D01*
D02*
G37*
G36*
X381254Y105682D02*
X379303Y105294D01*
X377649Y104189D01*
X376544Y102535D01*
X376156Y100584D01*
X376544Y98633D01*
X377649Y96979D01*
X379303Y95874D01*
X381254Y95486D01*
X383205Y95874D01*
X384859Y96979D01*
X385964Y98633D01*
X386352Y100584D01*
X385964Y102535D01*
X384859Y104189D01*
X383205Y105294D01*
X381254Y105682D01*
D02*
G37*
G36*
X360172D02*
X358221Y105294D01*
X356567Y104189D01*
X355462Y102535D01*
X355074Y100584D01*
X355462Y98633D01*
X356567Y96979D01*
X358221Y95874D01*
X360172Y95486D01*
X362123Y95874D01*
X363777Y96979D01*
X364882Y98633D01*
X365270Y100584D01*
X364882Y102535D01*
X363777Y104189D01*
X362123Y105294D01*
X360172Y105682D01*
D02*
G37*
G36*
X116271Y102988D02*
X114320Y102600D01*
X112666Y101495D01*
X111561Y99841D01*
X111173Y97890D01*
X111561Y95939D01*
X112666Y94285D01*
X114320Y93180D01*
X116271Y92792D01*
X118222Y93180D01*
X119876Y94285D01*
X120981Y95939D01*
X121369Y97890D01*
X120981Y99841D01*
X119876Y101495D01*
X118222Y102600D01*
X116271Y102988D01*
D02*
G37*
G36*
X87000Y99098D02*
X85049Y98710D01*
X83395Y97605D01*
X82290Y95951D01*
X81902Y94000D01*
X82290Y92049D01*
X83395Y90395D01*
X85049Y89290D01*
X87000Y88902D01*
X88951Y89290D01*
X90605Y90395D01*
X91710Y92049D01*
X92098Y94000D01*
X91710Y95951D01*
X90605Y97605D01*
X88951Y98710D01*
X87000Y99098D01*
D02*
G37*
G36*
X178000Y94098D02*
X176049Y93710D01*
X174395Y92605D01*
X173290Y90951D01*
X172902Y89000D01*
X173290Y87049D01*
X174395Y85395D01*
X176049Y84290D01*
X178000Y83902D01*
X179951Y84290D01*
X181605Y85395D01*
X182710Y87049D01*
X183098Y89000D01*
X182710Y90951D01*
X181605Y92605D01*
X179951Y93710D01*
X178000Y94098D01*
D02*
G37*
G36*
X165000D02*
X163049Y93710D01*
X161395Y92605D01*
X160290Y90951D01*
X159902Y89000D01*
X160290Y87049D01*
X161395Y85395D01*
X163049Y84290D01*
X165000Y83902D01*
X166951Y84290D01*
X168605Y85395D01*
X169710Y87049D01*
X170098Y89000D01*
X169710Y90951D01*
X168605Y92605D01*
X166951Y93710D01*
X165000Y94098D01*
D02*
G37*
G36*
X510000Y117323D02*
X506620Y116990D01*
X503371Y116005D01*
X500376Y114404D01*
X497751Y112249D01*
X495596Y109624D01*
X493995Y106629D01*
X493009Y103380D01*
X492677Y100000D01*
X493009Y96620D01*
X493995Y93371D01*
X495596Y90376D01*
X497751Y87751D01*
X500376Y85596D01*
X503371Y83995D01*
X506620Y83010D01*
X510000Y82677D01*
X513380Y83010D01*
X516629Y83995D01*
X519624Y85596D01*
X522249Y87751D01*
X524404Y90376D01*
X526005Y93371D01*
X526991Y96620D01*
X527323Y100000D01*
X526991Y103380D01*
X526005Y106629D01*
X524404Y109624D01*
X522249Y112249D01*
X519624Y114404D01*
X516629Y116005D01*
X513380Y116990D01*
X510000Y117323D01*
D02*
G37*
G36*
X423970Y91472D02*
Y81270D01*
X434172D01*
X433943Y83013D01*
X432780Y85820D01*
X430930Y88230D01*
X428520Y90080D01*
X425713Y91243D01*
X423970Y91472D01*
D02*
G37*
G36*
X421430D02*
X419688Y91243D01*
X416880Y90080D01*
X414470Y88230D01*
X412620Y85820D01*
X411457Y83013D01*
X411228Y81270D01*
X421430D01*
Y91472D01*
D02*
G37*
G36*
X373170D02*
Y81270D01*
X383372D01*
X383143Y83013D01*
X381980Y85820D01*
X380130Y88230D01*
X377720Y90080D01*
X374912Y91243D01*
X373170Y91472D01*
D02*
G37*
G36*
X370630D02*
X368887Y91243D01*
X366080Y90080D01*
X363670Y88230D01*
X361820Y85820D01*
X360657Y83013D01*
X360428Y81270D01*
X370630D01*
Y91472D01*
D02*
G37*
G36*
X555601Y100394D02*
X552729Y100016D01*
X550053Y98908D01*
X547756Y97145D01*
X545992Y94847D01*
X544884Y92171D01*
X544506Y89300D01*
X544884Y86428D01*
X545992Y83752D01*
X547756Y81454D01*
X550053Y79691D01*
X552729Y78583D01*
X555601Y78205D01*
X558472Y78583D01*
X561148Y79691D01*
X563446Y81454D01*
X565209Y83752D01*
X566318Y86428D01*
X566696Y89300D01*
X566318Y92171D01*
X565209Y94847D01*
X563446Y97145D01*
X561148Y98908D01*
X558472Y100016D01*
X555601Y100394D01*
D02*
G37*
G36*
X327001D02*
X324129Y100016D01*
X321453Y98908D01*
X319156Y97145D01*
X317392Y94847D01*
X316284Y92171D01*
X315906Y89300D01*
X316284Y86428D01*
X317392Y83752D01*
X319156Y81454D01*
X321453Y79691D01*
X324129Y78583D01*
X327001Y78205D01*
X329872Y78583D01*
X332548Y79691D01*
X334846Y81454D01*
X336609Y83752D01*
X337718Y86428D01*
X338096Y89300D01*
X337718Y92171D01*
X336609Y94847D01*
X334846Y97145D01*
X332548Y98908D01*
X329872Y100016D01*
X327001Y100394D01*
D02*
G37*
G36*
X459100Y91000D02*
X437100D01*
Y69000D01*
X459100D01*
Y91000D01*
D02*
G37*
G36*
X397300Y91095D02*
X394428Y90717D01*
X391753Y89608D01*
X389455Y87845D01*
X387691Y85547D01*
X386583Y82872D01*
X386205Y80000D01*
X386583Y77128D01*
X387691Y74453D01*
X389455Y72155D01*
X391753Y70392D01*
X394428Y69283D01*
X397300Y68905D01*
X400172Y69283D01*
X402848Y70392D01*
X405145Y72155D01*
X406908Y74453D01*
X408017Y77128D01*
X408395Y80000D01*
X408017Y82872D01*
X406908Y85547D01*
X405145Y87845D01*
X402848Y89608D01*
X400172Y90717D01*
X397300Y91095D01*
D02*
G37*
G36*
X434172Y78730D02*
X423970D01*
Y68528D01*
X425713Y68757D01*
X428520Y69920D01*
X430930Y71770D01*
X432780Y74180D01*
X433943Y76988D01*
X434172Y78730D01*
D02*
G37*
G36*
X421430D02*
X411228D01*
X411457Y76988D01*
X412620Y74180D01*
X414470Y71770D01*
X416880Y69920D01*
X419688Y68757D01*
X421430Y68528D01*
Y78730D01*
D02*
G37*
G36*
X383372D02*
X373170D01*
Y68528D01*
X374912Y68757D01*
X377720Y69920D01*
X380130Y71770D01*
X381980Y74180D01*
X383143Y76988D01*
X383372Y78730D01*
D02*
G37*
G36*
X370630D02*
X360428D01*
X360657Y76988D01*
X361820Y74180D01*
X363670Y71770D01*
X366080Y69920D01*
X368887Y68757D01*
X370630Y68528D01*
Y78730D01*
D02*
G37*
G36*
X555601Y74995D02*
X552729Y74616D01*
X550053Y73508D01*
X547756Y71745D01*
X545992Y69447D01*
X544884Y66771D01*
X544506Y63900D01*
X544884Y61028D01*
X545992Y58352D01*
X547756Y56054D01*
X550053Y54291D01*
X552729Y53183D01*
X555601Y52805D01*
X558472Y53183D01*
X561148Y54291D01*
X563446Y56054D01*
X565209Y58352D01*
X566318Y61028D01*
X566696Y63900D01*
X566318Y66771D01*
X565209Y69447D01*
X563446Y71745D01*
X561148Y73508D01*
X558472Y74616D01*
X555601Y74995D01*
D02*
G37*
G36*
X327001D02*
X324129Y74616D01*
X321453Y73508D01*
X319156Y71745D01*
X317392Y69447D01*
X316284Y66771D01*
X315906Y63900D01*
X316284Y61028D01*
X317392Y58352D01*
X319156Y56054D01*
X321453Y54291D01*
X324129Y53183D01*
X327001Y52805D01*
X329872Y53183D01*
X332548Y54291D01*
X334846Y56054D01*
X336609Y58352D01*
X337718Y61028D01*
X338096Y63900D01*
X337718Y66771D01*
X336609Y69447D01*
X334846Y71745D01*
X332548Y73508D01*
X329872Y74616D01*
X327001Y74995D01*
D02*
G37*
G36*
X567141Y50040D02*
X556871D01*
Y39770D01*
X567141D01*
Y50040D01*
D02*
G37*
G36*
X338541D02*
X328271D01*
Y39770D01*
X338541D01*
Y50040D01*
D02*
G37*
G36*
X325731D02*
X315461D01*
Y39770D01*
X325731D01*
Y50040D01*
D02*
G37*
G36*
X554331D02*
X544061D01*
Y39770D01*
X554331D01*
Y50040D01*
D02*
G37*
G36*
X567141Y37230D02*
X556871D01*
Y26960D01*
X567141D01*
Y37230D01*
D02*
G37*
G36*
X554331D02*
X544061D01*
Y26960D01*
X554331D01*
Y37230D01*
D02*
G37*
G36*
X338541D02*
X328271D01*
Y26960D01*
X338541D01*
Y37230D01*
D02*
G37*
G36*
X325731D02*
X315461D01*
Y26960D01*
X325731D01*
Y37230D01*
D02*
G37*
G36*
X113166Y31472D02*
Y21270D01*
X123369D01*
X123139Y23013D01*
X121976Y25820D01*
X120127Y28230D01*
X117716Y30080D01*
X114909Y31243D01*
X113166Y31472D01*
D02*
G37*
G36*
X110626D02*
X108884Y31243D01*
X106076Y30080D01*
X103666Y28230D01*
X101816Y25820D01*
X100653Y23013D01*
X100424Y21270D01*
X110626D01*
Y31472D01*
D02*
G37*
G36*
X62367D02*
Y21270D01*
X72569D01*
X72340Y23013D01*
X71177Y25820D01*
X69327Y28230D01*
X66916Y30080D01*
X64109Y31243D01*
X62367Y31472D01*
D02*
G37*
G36*
X59827D02*
X58084Y31243D01*
X55277Y30080D01*
X52866Y28230D01*
X51017Y25820D01*
X49854Y23013D01*
X49624Y21270D01*
X59827D01*
Y31472D01*
D02*
G37*
G36*
X163967Y31472D02*
Y21269D01*
X174169D01*
X173940Y23012D01*
X172777Y25819D01*
X170928Y28230D01*
X168517Y30079D01*
X165710Y31242D01*
X163967Y31472D01*
D02*
G37*
G36*
X161427D02*
X159684Y31242D01*
X156877Y30079D01*
X154467Y28230D01*
X152617Y25819D01*
X151454Y23012D01*
X151225Y21269D01*
X161427D01*
Y31472D01*
D02*
G37*
G36*
X249897Y30999D02*
X227897D01*
Y8999D01*
X249897D01*
Y30999D01*
D02*
G37*
G36*
X137295Y31096D02*
X134424Y30718D01*
X131748Y29609D01*
X129450Y27846D01*
X127687Y25548D01*
X126579Y22872D01*
X126201Y20001D01*
X126579Y17129D01*
X127687Y14453D01*
X129450Y12156D01*
X131748Y10392D01*
X134424Y9284D01*
X137295Y8906D01*
X140167Y9284D01*
X142843Y10392D01*
X145141Y12156D01*
X146904Y14453D01*
X148012Y17129D01*
X148390Y20001D01*
X148012Y22872D01*
X146904Y25548D01*
X145141Y27846D01*
X142843Y29609D01*
X140167Y30718D01*
X137295Y31096D01*
D02*
G37*
G36*
X86497Y31095D02*
X83625Y30717D01*
X80949Y29609D01*
X78651Y27845D01*
X76888Y25547D01*
X75780Y22872D01*
X75402Y20000D01*
X75780Y17128D01*
X76888Y14453D01*
X78651Y12155D01*
X80949Y10391D01*
X83625Y9283D01*
X86497Y8905D01*
X89368Y9283D01*
X92044Y10391D01*
X94342Y12155D01*
X96105Y14453D01*
X97213Y17128D01*
X97591Y20000D01*
X97213Y22872D01*
X96105Y25547D01*
X94342Y27845D01*
X92044Y29609D01*
X89368Y30717D01*
X86497Y31095D01*
D02*
G37*
G36*
X213497Y31094D02*
X210625Y30716D01*
X207950Y29608D01*
X205652Y27845D01*
X203889Y25547D01*
X202780Y22871D01*
X202402Y19999D01*
X202780Y17128D01*
X203889Y14452D01*
X205652Y12154D01*
X207950Y10391D01*
X210625Y9282D01*
X213497Y8904D01*
X216369Y9282D01*
X219044Y10391D01*
X221342Y12154D01*
X223106Y14452D01*
X224214Y17128D01*
X224592Y19999D01*
X224214Y22871D01*
X223106Y25547D01*
X221342Y27845D01*
X219044Y29608D01*
X216369Y30716D01*
X213497Y31094D01*
D02*
G37*
G36*
X188097D02*
X185226Y30716D01*
X182550Y29608D01*
X180252Y27845D01*
X178489Y25547D01*
X177380Y22871D01*
X177002Y19999D01*
X177380Y17128D01*
X178489Y14452D01*
X180252Y12154D01*
X182550Y10391D01*
X185226Y9282D01*
X188097Y8904D01*
X190969Y9282D01*
X193645Y10391D01*
X195942Y12154D01*
X197705Y14452D01*
X198814Y17128D01*
X199192Y19999D01*
X198814Y22871D01*
X197705Y25547D01*
X195942Y27845D01*
X193645Y29608D01*
X190969Y30716D01*
X188097Y31094D01*
D02*
G37*
G36*
X72569Y18730D02*
X62367D01*
Y8528D01*
X64109Y8757D01*
X66916Y9920D01*
X69327Y11770D01*
X71177Y14180D01*
X72340Y16988D01*
X72569Y18730D01*
D02*
G37*
G36*
X59827D02*
X49624D01*
X49854Y16988D01*
X51017Y14180D01*
X52866Y11770D01*
X55277Y9920D01*
X58084Y8757D01*
X59827Y8528D01*
Y18730D01*
D02*
G37*
G36*
X123369D02*
X113166D01*
Y8528D01*
X114909Y8757D01*
X117716Y9920D01*
X120127Y11770D01*
X121976Y14180D01*
X123139Y16988D01*
X123369Y18730D01*
D02*
G37*
G36*
X110626D02*
X100424D01*
X100653Y16988D01*
X101816Y14180D01*
X103666Y11770D01*
X106076Y9920D01*
X108884Y8757D01*
X110626Y8528D01*
Y18730D01*
D02*
G37*
G36*
X174169Y18729D02*
X163967D01*
Y8527D01*
X165710Y8756D01*
X168517Y9919D01*
X170928Y11769D01*
X172777Y14179D01*
X173940Y16987D01*
X174169Y18729D01*
D02*
G37*
G36*
X161427D02*
X151225D01*
X151454Y16987D01*
X152617Y14179D01*
X154467Y11769D01*
X156877Y9919D01*
X159684Y8756D01*
X161427Y8527D01*
Y18729D01*
D02*
G37*
G36*
X390000Y15098D02*
X388049Y14710D01*
X386395Y13605D01*
X385290Y11951D01*
X384902Y10000D01*
X385290Y8049D01*
X386395Y6395D01*
X388049Y5290D01*
X390000Y4902D01*
X391951Y5290D01*
X393605Y6395D01*
X394710Y8049D01*
X395098Y10000D01*
X394710Y11951D01*
X393605Y13605D01*
X391951Y14710D01*
X390000Y15098D01*
D02*
G37*
G36*
X360000D02*
X358049Y14710D01*
X356395Y13605D01*
X355290Y11951D01*
X354902Y10000D01*
X355290Y8049D01*
X356395Y6395D01*
X358049Y5290D01*
X360000Y4902D01*
X361951Y5290D01*
X363605Y6395D01*
X364710Y8049D01*
X365098Y10000D01*
X364710Y11951D01*
X363605Y13605D01*
X361951Y14710D01*
X360000Y15098D01*
D02*
G37*
G36*
X330000D02*
X328049Y14710D01*
X326395Y13605D01*
X325290Y11951D01*
X324902Y10000D01*
X325290Y8049D01*
X326395Y6395D01*
X328049Y5290D01*
X330000Y4902D01*
X331951Y5290D01*
X333605Y6395D01*
X334710Y8049D01*
X335098Y10000D01*
X334710Y11951D01*
X333605Y13605D01*
X331951Y14710D01*
X330000Y15098D01*
D02*
G37*
G36*
X300000D02*
X298049Y14710D01*
X296395Y13605D01*
X295290Y11951D01*
X294902Y10000D01*
X295290Y8049D01*
X296395Y6395D01*
X298049Y5290D01*
X300000Y4902D01*
X301951Y5290D01*
X303605Y6395D01*
X304710Y8049D01*
X305098Y10000D01*
X304710Y11951D01*
X303605Y13605D01*
X301951Y14710D01*
X300000Y15098D01*
D02*
G37*
G36*
X270000D02*
X268049Y14710D01*
X266395Y13605D01*
X265290Y11951D01*
X264902Y10000D01*
X265290Y8049D01*
X266395Y6395D01*
X268049Y5290D01*
X270000Y4902D01*
X271951Y5290D01*
X273605Y6395D01*
X274710Y8049D01*
X275098Y10000D01*
X274710Y11951D01*
X273605Y13605D01*
X271951Y14710D01*
X270000Y15098D01*
D02*
G37*
%LPD*%
D54*
X422700Y80000D02*
D03*
X371900D02*
D03*
X89501Y275000D02*
D03*
X89500Y435000D02*
D03*
X119500Y405000D02*
D03*
X492700Y600001D02*
D03*
X543500Y600000D02*
D03*
X111896Y20000D02*
D03*
X162697Y19999D02*
D03*
X61097Y20000D02*
D03*
D56*
X327001Y38500D02*
D03*
X555601D02*
D03*
D60*
X480400Y515000D02*
D03*
D61*
X228092Y330454D02*
D03*
X138750Y256000D02*
D03*
X295000Y509000D02*
D03*
X255000Y268000D02*
D03*
X291000Y205000D02*
D03*
X358000Y280000D02*
D03*
X338000Y200000D02*
D03*
X319000D02*
D03*
X137000Y355000D02*
D03*
X284999Y369999D02*
D03*
X278000Y376000D02*
D03*
X203000Y227000D02*
D03*
X385000Y250000D02*
D03*
X252000Y402000D02*
D03*
X560000Y390000D02*
D03*
Y350000D02*
D03*
Y310000D02*
D03*
Y270000D02*
D03*
Y230000D02*
D03*
Y190000D02*
D03*
X386000Y410000D02*
D03*
X264000Y411000D02*
D03*
X273000Y428000D02*
D03*
X263000Y430000D02*
D03*
X137000Y429000D02*
D03*
X157000Y205000D02*
D03*
X314000Y456000D02*
D03*
X332000Y437000D02*
D03*
X330000Y507000D02*
D03*
X314000D02*
D03*
X81000Y332000D02*
D03*
X240000Y414000D02*
D03*
X137000Y405000D02*
D03*
X141448Y146941D02*
D03*
X137000Y380000D02*
D03*
X173000Y344000D02*
D03*
X196000Y109000D02*
D03*
X160000Y117000D02*
D03*
X469000Y395000D02*
D03*
X448000Y328000D02*
D03*
X427976Y328123D02*
D03*
X470001Y299040D02*
D03*
X418000Y242000D02*
D03*
X428000Y268000D02*
D03*
X283000Y220000D02*
D03*
X352000Y485000D02*
D03*
X363000Y501000D02*
D03*
X355000D02*
D03*
X344000D02*
D03*
X395000Y400000D02*
D03*
X561000Y425000D02*
D03*
Y450000D02*
D03*
M02*
