G04*
G04 #@! TF.GenerationSoftware,Altium Limited,Altium Designer,20.2.6 (244)*
G04*
G04 Layer_Physical_Order=3*
G04 Layer_Color=16440176*
%FSLAX44Y44*%
%MOMM*%
G71*
G04*
G04 #@! TF.SameCoordinates,D8BAA703-6470-441F-A09B-1F1B88CACBC1*
G04*
G04*
G04 #@! TF.FilePolarity,Positive*
G04*
G01*
G75*
%ADD54C,1.8000*%
%ADD56R,1.8000X1.8000*%
%ADD61C,0.6000*%
G36*
X570000Y0D02*
X370000D01*
Y68192D01*
X370955Y69029D01*
X371900Y68905D01*
X374772Y69283D01*
X377448Y70392D01*
X379745Y72155D01*
X381508Y74453D01*
X382617Y77128D01*
X382995Y80000D01*
X386205D01*
X386583Y77128D01*
X387691Y74453D01*
X389455Y72155D01*
X391753Y70392D01*
X394428Y69283D01*
X397300Y68905D01*
X400172Y69283D01*
X402848Y70392D01*
X405145Y72155D01*
X406908Y74453D01*
X408017Y77128D01*
X408395Y80000D01*
X408017Y82872D01*
X406908Y85547D01*
X405145Y87845D01*
X402848Y89608D01*
X400172Y90717D01*
X397300Y91095D01*
X395955Y90918D01*
X395000Y91755D01*
Y125000D01*
X330878D01*
X329872Y125416D01*
X327001Y125794D01*
X324129Y125416D01*
X323124Y125000D01*
X300000D01*
Y90000D01*
X182899D01*
X182710Y90951D01*
X181605Y92605D01*
X179951Y93710D01*
X178000Y94098D01*
X176049Y93710D01*
X174395Y92605D01*
X173290Y90951D01*
X173101Y90000D01*
X169899D01*
X169710Y90951D01*
X168605Y92605D01*
X166951Y93710D01*
X165000Y94098D01*
X163049Y93710D01*
X161395Y92605D01*
X160290Y90951D01*
X160101Y90000D01*
X70000D01*
Y343005D01*
X71270Y344047D01*
X72000Y343902D01*
X73951Y344290D01*
X74930Y344944D01*
X75227Y345143D01*
X76143Y344227D01*
X75944Y343930D01*
X75290Y342951D01*
X74902Y341000D01*
X75290Y339049D01*
X76395Y337395D01*
X77092Y336930D01*
X77395Y335605D01*
X76290Y333951D01*
X75902Y332000D01*
X76290Y330049D01*
X77395Y328395D01*
X79049Y327290D01*
X81000Y326902D01*
X82951Y327290D01*
X84605Y328395D01*
X85710Y330049D01*
X86098Y332000D01*
X85710Y333951D01*
X84605Y335605D01*
X83908Y336070D01*
X83605Y337395D01*
X84710Y339049D01*
X85098Y341000D01*
X84710Y342951D01*
X83605Y344605D01*
X81951Y345710D01*
X80000Y346098D01*
X78049Y345710D01*
X77070Y345056D01*
X76773Y344857D01*
X75857Y345773D01*
X76056Y346070D01*
X76710Y347049D01*
X77098Y349000D01*
X76710Y350951D01*
X75605Y352605D01*
X73951Y353710D01*
X72000Y354098D01*
X71270Y353953D01*
X70000Y354995D01*
Y415000D01*
X82377D01*
X82808Y413730D01*
X81655Y412845D01*
X79892Y410547D01*
X78783Y407872D01*
X78405Y405000D01*
X78783Y402128D01*
X79892Y399453D01*
X81655Y397155D01*
X83953Y395392D01*
X86629Y394283D01*
X89500Y393905D01*
X92372Y394283D01*
X95048Y395392D01*
X97345Y397155D01*
X99108Y399453D01*
X100217Y402128D01*
X100595Y405000D01*
X100217Y407872D01*
X99108Y410547D01*
X97345Y412845D01*
X96192Y413730D01*
X96623Y415000D01*
X98664D01*
X98749Y414874D01*
X100402Y413768D01*
X102353Y413380D01*
X104304Y413768D01*
X105958Y414874D01*
X106043Y415000D01*
X112377D01*
X112808Y413730D01*
X111655Y412845D01*
X109892Y410547D01*
X108783Y407872D01*
X108405Y405000D01*
X108783Y402128D01*
X109892Y399453D01*
X111655Y397155D01*
X113953Y395392D01*
X116628Y394283D01*
X119500Y393905D01*
X122372Y394283D01*
X125048Y395392D01*
X127345Y397155D01*
X129108Y399453D01*
X130217Y402128D01*
X130595Y405000D01*
X130217Y407872D01*
X129108Y410547D01*
X127345Y412845D01*
X126192Y413730D01*
X126623Y415000D01*
X141005D01*
X142047Y413730D01*
X141902Y413000D01*
X142290Y411049D01*
X143395Y409395D01*
X145049Y408290D01*
X147000Y407902D01*
X148951Y408290D01*
X150605Y409395D01*
X151710Y411049D01*
X152098Y413000D01*
X151953Y413730D01*
X152995Y415000D01*
X183902D01*
X184290Y413049D01*
X185395Y411395D01*
X187049Y410290D01*
X189000Y409902D01*
X190951Y410290D01*
X192605Y411395D01*
X193710Y413049D01*
X194098Y415000D01*
X205000D01*
Y486492D01*
X205982Y487297D01*
X206759Y487143D01*
X208710Y487531D01*
X210364Y488636D01*
X211469Y490290D01*
X211857Y492241D01*
X211469Y494192D01*
X210364Y495845D01*
X208710Y496951D01*
X206759Y497339D01*
X205982Y497184D01*
X205000Y497990D01*
Y504100D01*
X205982Y504906D01*
X206000Y504902D01*
X207951Y505290D01*
X209605Y506395D01*
X210710Y508049D01*
X211098Y510000D01*
X210710Y511951D01*
X209605Y513605D01*
X207951Y514710D01*
X206000Y515098D01*
X205982Y515094D01*
X205000Y515900D01*
Y520000D01*
X140492D01*
X140000Y520098D01*
X139508Y520000D01*
X130478D01*
X129773Y521056D01*
X130217Y522128D01*
X130595Y525000D01*
X130217Y527872D01*
X129108Y530547D01*
X127345Y532845D01*
X125048Y534608D01*
X122372Y535717D01*
X119500Y536095D01*
X116628Y535717D01*
X113953Y534608D01*
X111655Y532845D01*
X109892Y530547D01*
X108783Y527872D01*
X108405Y525000D01*
X108783Y522128D01*
X109227Y521056D01*
X108522Y520000D01*
X100478D01*
X99773Y521056D01*
X100217Y522128D01*
X100595Y525000D01*
X100217Y527872D01*
X99108Y530547D01*
X97345Y532845D01*
X95048Y534608D01*
X92372Y535717D01*
X89500Y536095D01*
X86629Y535717D01*
X83953Y534608D01*
X81655Y532845D01*
X79892Y530547D01*
X78783Y527872D01*
X78405Y525000D01*
X78783Y522128D01*
X79227Y521056D01*
X78522Y520000D01*
X50670D01*
X49833Y520254D01*
X46500Y520582D01*
X43168Y520254D01*
X42330Y520000D01*
X0D01*
Y650000D01*
X570000Y650000D01*
X570000Y0D01*
D02*
G37*
G36*
X29641Y510000D02*
X30397Y508980D01*
X29746Y506833D01*
X29418Y503500D01*
X29746Y500167D01*
X30718Y496963D01*
X32297Y494010D01*
X34421Y491421D01*
X37010Y489297D01*
X39963Y487718D01*
X43168Y486746D01*
X46500Y486418D01*
X49833Y486746D01*
X53037Y487718D01*
X55990Y489297D01*
X58579Y491421D01*
X60703Y494010D01*
X62282Y496963D01*
X63254Y500167D01*
X63582Y503500D01*
X63254Y506833D01*
X62603Y508980D01*
X63359Y510000D01*
X139508Y510000D01*
X140000Y509902D01*
X140492Y510000D01*
X195000D01*
X195000Y425000D01*
X141868D01*
X141189Y426270D01*
X141710Y427049D01*
X142098Y429000D01*
X141710Y430951D01*
X140605Y432605D01*
X138951Y433710D01*
X137000Y434098D01*
X135049Y433710D01*
X133395Y432605D01*
X132290Y430951D01*
X131902Y429000D01*
X132290Y427049D01*
X132811Y426270D01*
X132132Y425000D01*
X126623Y425000D01*
X126192Y426270D01*
X127345Y427155D01*
X129108Y429453D01*
X130217Y432128D01*
X130595Y435000D01*
X130217Y437872D01*
X129108Y440547D01*
X127345Y442845D01*
X125048Y444608D01*
X122372Y445717D01*
X119500Y446095D01*
X116628Y445717D01*
X113953Y444608D01*
X111655Y442845D01*
X109892Y440547D01*
X108783Y437872D01*
X108405Y435000D01*
X108783Y432128D01*
X109892Y429453D01*
X111655Y427155D01*
X112808Y426270D01*
X112377Y425000D01*
X96623D01*
X96192Y426270D01*
X97345Y427155D01*
X99108Y429453D01*
X100217Y432128D01*
X100595Y435000D01*
X100217Y437872D01*
X99108Y440547D01*
X97345Y442845D01*
X95048Y444608D01*
X92372Y445717D01*
X89500Y446095D01*
X86629Y445717D01*
X83953Y444608D01*
X81655Y442845D01*
X79892Y440547D01*
X78783Y437872D01*
X78405Y435000D01*
X78783Y432128D01*
X79892Y429453D01*
X81655Y427155D01*
X82808Y426270D01*
X82377Y425000D01*
X59961D01*
Y408780D01*
X58765Y408352D01*
X58579Y408579D01*
X55990Y410703D01*
X53037Y412282D01*
X49833Y413254D01*
X46500Y413582D01*
X43168Y413254D01*
X39963Y412282D01*
X37010Y410703D01*
X34421Y408579D01*
X32297Y405990D01*
X30718Y403037D01*
X29746Y399833D01*
X29418Y396500D01*
X29746Y393167D01*
X30718Y389963D01*
X32297Y387010D01*
X34421Y384421D01*
X37010Y382297D01*
X39963Y380718D01*
X43168Y379746D01*
X46500Y379418D01*
X49833Y379746D01*
X53037Y380718D01*
X55990Y382297D01*
X58579Y384421D01*
X58765Y384648D01*
X59961Y384220D01*
Y344891D01*
X59049Y344710D01*
X57395Y343605D01*
X56290Y341951D01*
X55902Y340000D01*
X56290Y338049D01*
X57395Y336395D01*
X59049Y335290D01*
X59961Y335109D01*
Y265781D01*
X58765Y265353D01*
X58580Y265579D01*
X55991Y267703D01*
X53038Y269282D01*
X49833Y270254D01*
X46501Y270582D01*
X43168Y270254D01*
X39964Y269282D01*
X37010Y267703D01*
X34422Y265579D01*
X32297Y262990D01*
X30719Y260037D01*
X29747Y256833D01*
X29418Y253500D01*
X29747Y250167D01*
X30719Y246963D01*
X32297Y244010D01*
X34422Y241421D01*
X37010Y239297D01*
X39964Y237718D01*
X43168Y236746D01*
X46501Y236418D01*
X49833Y236746D01*
X53038Y237718D01*
X55991Y239297D01*
X58580Y241421D01*
X58765Y241647D01*
X59961Y241219D01*
Y158781D01*
X58765Y158353D01*
X58580Y158579D01*
X55991Y160703D01*
X53038Y162282D01*
X49833Y163254D01*
X46501Y163582D01*
X43168Y163254D01*
X39964Y162282D01*
X37010Y160703D01*
X34422Y158579D01*
X32297Y155990D01*
X30719Y153037D01*
X29747Y149833D01*
X29418Y146500D01*
X29747Y143167D01*
X30719Y139963D01*
X32297Y137010D01*
X34422Y134421D01*
X37010Y132297D01*
X39964Y130718D01*
X43168Y129746D01*
X46501Y129418D01*
X49833Y129746D01*
X53038Y130718D01*
X55991Y132297D01*
X58580Y134421D01*
X58765Y134647D01*
X59961Y134219D01*
Y80039D01*
X309987Y80039D01*
X310033Y115000D01*
X315642D01*
X315906Y114700D01*
X316284Y111828D01*
X317392Y109152D01*
X319156Y106854D01*
X321453Y105091D01*
X324129Y103983D01*
X327001Y103605D01*
X329872Y103983D01*
X332548Y105091D01*
X334846Y106854D01*
X336609Y109152D01*
X337718Y111828D01*
X338096Y114700D01*
X338359Y115000D01*
X385000Y115000D01*
X385000Y90000D01*
X376502Y90000D01*
X374772Y90717D01*
X371900Y91095D01*
X369028Y90717D01*
X367298Y90000D01*
X360000Y90000D01*
Y15098D01*
X358049Y14710D01*
X356395Y13605D01*
X355290Y11951D01*
X354902Y10000D01*
X355290Y8049D01*
X356395Y6395D01*
X358049Y5290D01*
X360000Y4902D01*
Y39D01*
X-39D01*
Y510000D01*
X29641D01*
D02*
G37*
%LPC*%
G36*
X560000Y645098D02*
X558049Y644710D01*
X556395Y643605D01*
X555290Y641951D01*
X554902Y640000D01*
X555290Y638049D01*
X556395Y636395D01*
X558049Y635290D01*
X560000Y634902D01*
X561951Y635290D01*
X563605Y636395D01*
X564710Y638049D01*
X565098Y640000D01*
X564710Y641951D01*
X563605Y643605D01*
X561951Y644710D01*
X560000Y645098D01*
D02*
G37*
G36*
X530000D02*
X528049Y644710D01*
X526395Y643605D01*
X525290Y641951D01*
X524902Y640000D01*
X525290Y638049D01*
X526395Y636395D01*
X528049Y635290D01*
X530000Y634902D01*
X531951Y635290D01*
X533605Y636395D01*
X534710Y638049D01*
X535098Y640000D01*
X534710Y641951D01*
X533605Y643605D01*
X531951Y644710D01*
X530000Y645098D01*
D02*
G37*
G36*
X490000D02*
X488049Y644710D01*
X486395Y643605D01*
X485290Y641951D01*
X484902Y640000D01*
X485290Y638049D01*
X486395Y636395D01*
X488049Y635290D01*
X490000Y634902D01*
X491951Y635290D01*
X493605Y636395D01*
X494710Y638049D01*
X495098Y640000D01*
X494710Y641951D01*
X493605Y643605D01*
X491951Y644710D01*
X490000Y645098D01*
D02*
G37*
G36*
X450000D02*
X448049Y644710D01*
X446395Y643605D01*
X445290Y641951D01*
X444902Y640000D01*
X445290Y638049D01*
X446395Y636395D01*
X448049Y635290D01*
X450000Y634902D01*
X451951Y635290D01*
X453605Y636395D01*
X454710Y638049D01*
X455098Y640000D01*
X454710Y641951D01*
X453605Y643605D01*
X451951Y644710D01*
X450000Y645098D01*
D02*
G37*
G36*
X410000D02*
X408049Y644710D01*
X406395Y643605D01*
X405290Y641951D01*
X404902Y640000D01*
X405290Y638049D01*
X406395Y636395D01*
X408049Y635290D01*
X410000Y634902D01*
X411951Y635290D01*
X413605Y636395D01*
X414710Y638049D01*
X415098Y640000D01*
X414710Y641951D01*
X413605Y643605D01*
X411951Y644710D01*
X410000Y645098D01*
D02*
G37*
G36*
X370000D02*
X368049Y644710D01*
X366395Y643605D01*
X365290Y641951D01*
X364902Y640000D01*
X365290Y638049D01*
X366395Y636395D01*
X368049Y635290D01*
X370000Y634902D01*
X371951Y635290D01*
X373605Y636395D01*
X374710Y638049D01*
X375098Y640000D01*
X374710Y641951D01*
X373605Y643605D01*
X371951Y644710D01*
X370000Y645098D01*
D02*
G37*
G36*
X330000D02*
X328049Y644710D01*
X326395Y643605D01*
X325290Y641951D01*
X324902Y640000D01*
X325290Y638049D01*
X326395Y636395D01*
X328049Y635290D01*
X330000Y634902D01*
X331951Y635290D01*
X333605Y636395D01*
X334710Y638049D01*
X335098Y640000D01*
X334710Y641951D01*
X333605Y643605D01*
X331951Y644710D01*
X330000Y645098D01*
D02*
G37*
G36*
X290000D02*
X288049Y644710D01*
X286395Y643605D01*
X285290Y641951D01*
X284902Y640000D01*
X285290Y638049D01*
X286395Y636395D01*
X288049Y635290D01*
X290000Y634902D01*
X291951Y635290D01*
X293605Y636395D01*
X294710Y638049D01*
X295098Y640000D01*
X294710Y641951D01*
X293605Y643605D01*
X291951Y644710D01*
X290000Y645098D01*
D02*
G37*
G36*
X137295Y641096D02*
X134424Y640718D01*
X131748Y639609D01*
X129450Y637846D01*
X127687Y635548D01*
X126579Y632872D01*
X126201Y630001D01*
X126579Y627129D01*
X127687Y624453D01*
X129450Y622156D01*
X131748Y620392D01*
X134424Y619284D01*
X137295Y618906D01*
X140167Y619284D01*
X142843Y620392D01*
X145141Y622156D01*
X146904Y624453D01*
X148012Y627129D01*
X148390Y630001D01*
X148012Y632872D01*
X146904Y635548D01*
X145141Y637846D01*
X142843Y639609D01*
X140167Y640718D01*
X137295Y641096D01*
D02*
G37*
G36*
X111896Y641095D02*
X109025Y640717D01*
X106349Y639608D01*
X104051Y637845D01*
X102288Y635547D01*
X101179Y632872D01*
X100801Y630000D01*
X101179Y627128D01*
X102288Y624453D01*
X104051Y622155D01*
X106349Y620392D01*
X109025Y619283D01*
X111896Y618905D01*
X114768Y619283D01*
X117444Y620392D01*
X119741Y622155D01*
X121505Y624453D01*
X122613Y627128D01*
X122991Y630000D01*
X122613Y632872D01*
X121505Y635547D01*
X119741Y637845D01*
X117444Y639608D01*
X114768Y640717D01*
X111896Y641095D01*
D02*
G37*
G36*
X86497D02*
X83625Y640717D01*
X80949Y639608D01*
X78651Y637845D01*
X76888Y635547D01*
X75780Y632872D01*
X75402Y630000D01*
X75780Y627128D01*
X76888Y624453D01*
X78651Y622155D01*
X80949Y620392D01*
X83625Y619283D01*
X86497Y618905D01*
X89368Y619283D01*
X92044Y620392D01*
X94342Y622155D01*
X96105Y624453D01*
X97213Y627128D01*
X97591Y630000D01*
X97213Y632872D01*
X96105Y635547D01*
X94342Y637845D01*
X92044Y639608D01*
X89368Y640717D01*
X86497Y641095D01*
D02*
G37*
G36*
X61097D02*
X58225Y640717D01*
X55549Y639608D01*
X53251Y637845D01*
X51488Y635547D01*
X50380Y632872D01*
X50002Y630000D01*
X50380Y627128D01*
X51488Y624453D01*
X53251Y622155D01*
X55549Y620392D01*
X58225Y619283D01*
X61097Y618905D01*
X63968Y619283D01*
X66644Y620392D01*
X68942Y622155D01*
X70705Y624453D01*
X71814Y627128D01*
X72192Y630000D01*
X71814Y632872D01*
X70705Y635547D01*
X68942Y637845D01*
X66644Y639608D01*
X63968Y640717D01*
X61097Y641095D01*
D02*
G37*
G36*
X213497Y641094D02*
X210625Y640716D01*
X207950Y639608D01*
X205652Y637845D01*
X203889Y635547D01*
X202780Y632871D01*
X202402Y629999D01*
X202780Y627128D01*
X203889Y624452D01*
X205652Y622154D01*
X207950Y620391D01*
X210625Y619282D01*
X213497Y618904D01*
X216369Y619282D01*
X219044Y620391D01*
X221342Y622154D01*
X223106Y624452D01*
X224214Y627128D01*
X224592Y629999D01*
X224214Y632871D01*
X223106Y635547D01*
X221342Y637845D01*
X219044Y639608D01*
X216369Y640716D01*
X213497Y641094D01*
D02*
G37*
G36*
X188097D02*
X185226Y640716D01*
X182550Y639608D01*
X180252Y637845D01*
X178489Y635547D01*
X177380Y632871D01*
X177002Y629999D01*
X177380Y627128D01*
X178489Y624452D01*
X180252Y622154D01*
X182550Y620391D01*
X185226Y619282D01*
X188097Y618904D01*
X190969Y619282D01*
X193645Y620391D01*
X195942Y622154D01*
X197705Y624452D01*
X198814Y627128D01*
X199192Y629999D01*
X198814Y632871D01*
X197705Y635547D01*
X195942Y637845D01*
X193645Y639608D01*
X190969Y640716D01*
X188097Y641094D01*
D02*
G37*
G36*
X162697D02*
X159825Y640716D01*
X157150Y639608D01*
X154852Y637845D01*
X153089Y635547D01*
X151980Y632871D01*
X151602Y629999D01*
X151980Y627128D01*
X153089Y624452D01*
X154852Y622154D01*
X157150Y620391D01*
X159825Y619282D01*
X162697Y618904D01*
X165569Y619282D01*
X168244Y620391D01*
X170542Y622154D01*
X172306Y624452D01*
X173414Y627128D01*
X173792Y629999D01*
X173414Y632871D01*
X172306Y635547D01*
X170542Y637845D01*
X168244Y639608D01*
X165569Y640716D01*
X162697Y641094D01*
D02*
G37*
G36*
X21000Y625098D02*
X19049Y624710D01*
X17395Y623605D01*
X16290Y621951D01*
X15902Y620000D01*
X16290Y618049D01*
X17395Y616395D01*
X19049Y615290D01*
X21000Y614902D01*
X22951Y615290D01*
X24605Y616395D01*
X25710Y618049D01*
X26098Y620000D01*
X25710Y621951D01*
X24605Y623605D01*
X22951Y624710D01*
X21000Y625098D01*
D02*
G37*
G36*
X249897Y640999D02*
X227897D01*
Y618999D01*
X229153D01*
X230110Y618242D01*
X230110Y618242D01*
X230110D01*
X230161Y617729D01*
X230112Y617720D01*
X228797Y617458D01*
X227143Y616353D01*
X226038Y614699D01*
X225650Y612748D01*
X226038Y610797D01*
X227143Y609143D01*
X228797Y608038D01*
X230748Y607650D01*
X232699Y608038D01*
X234353Y609143D01*
X235458Y610797D01*
X235846Y612748D01*
X235458Y614699D01*
X234353Y616353D01*
X232699Y617458D01*
X231384Y617720D01*
X231336Y617729D01*
X231386Y618242D01*
X231386D01*
X231386Y618242D01*
X232343Y618999D01*
X249897D01*
Y640999D01*
D02*
G37*
G36*
X519371Y611471D02*
Y601269D01*
X529574D01*
X529344Y603012D01*
X528181Y605819D01*
X526332Y608230D01*
X523921Y610079D01*
X521114Y611242D01*
X519371Y611471D01*
D02*
G37*
G36*
X516831D02*
X515089Y611242D01*
X512281Y610079D01*
X509871Y608230D01*
X508021Y605819D01*
X506858Y603012D01*
X506629Y601269D01*
X516831D01*
Y611471D01*
D02*
G37*
G36*
X543500Y611095D02*
X540629Y610717D01*
X537953Y609608D01*
X535655Y607845D01*
X533892Y605547D01*
X532784Y602872D01*
X532406Y600000D01*
X532784Y597128D01*
X533892Y594453D01*
X535655Y592155D01*
X537953Y590392D01*
X540629Y589283D01*
X543500Y588905D01*
X546372Y589283D01*
X549048Y590392D01*
X551346Y592155D01*
X553109Y594453D01*
X554217Y597128D01*
X554244Y597329D01*
X555565Y597637D01*
X556395Y596395D01*
X558049Y595290D01*
X560000Y594902D01*
X561951Y595290D01*
X563605Y596395D01*
X564710Y598049D01*
X565098Y600000D01*
X564710Y601951D01*
X563605Y603605D01*
X561951Y604710D01*
X560000Y605098D01*
X558049Y604710D01*
X556395Y603605D01*
X555565Y602363D01*
X554244Y602671D01*
X554217Y602872D01*
X553109Y605547D01*
X551346Y607845D01*
X549048Y609608D01*
X546372Y610717D01*
X543500Y611095D01*
D02*
G37*
G36*
X223000Y600098D02*
X221049Y599710D01*
X219395Y598605D01*
X218290Y596951D01*
X217902Y595000D01*
X218290Y593049D01*
X219395Y591395D01*
X221049Y590290D01*
X223000Y589902D01*
X224951Y590290D01*
X226605Y591395D01*
X227710Y593049D01*
X228098Y595000D01*
X227710Y596951D01*
X226605Y598605D01*
X224951Y599710D01*
X223000Y600098D01*
D02*
G37*
G36*
X427500Y611001D02*
X405500D01*
Y589001D01*
X427500D01*
Y611001D01*
D02*
G37*
G36*
X492700Y611096D02*
X489828Y610718D01*
X487152Y609609D01*
X484854Y607846D01*
X483091Y605548D01*
X481983Y602872D01*
X481605Y600001D01*
X481983Y597129D01*
X483091Y594453D01*
X484854Y592155D01*
X487152Y590392D01*
X489828Y589284D01*
X492700Y588906D01*
X495571Y589284D01*
X498247Y590392D01*
X500545Y592155D01*
X502308Y594453D01*
X503416Y597129D01*
X503795Y600001D01*
X503416Y602872D01*
X502308Y605548D01*
X500545Y607846D01*
X498247Y609609D01*
X495571Y610718D01*
X492700Y611096D01*
D02*
G37*
G36*
X467300D02*
X464428Y610718D01*
X461752Y609609D01*
X459454Y607846D01*
X457691Y605548D01*
X456583Y602872D01*
X456205Y600001D01*
X456583Y597129D01*
X457691Y594453D01*
X459454Y592155D01*
X461752Y590392D01*
X464428Y589284D01*
X467300Y588906D01*
X470171Y589284D01*
X472847Y590392D01*
X475145Y592155D01*
X476908Y594453D01*
X478016Y597129D01*
X478395Y600001D01*
X478016Y602872D01*
X476908Y605548D01*
X475145Y607846D01*
X472847Y609609D01*
X470171Y610718D01*
X467300Y611096D01*
D02*
G37*
G36*
X441900D02*
X439028Y610718D01*
X436352Y609609D01*
X434054Y607846D01*
X432291Y605548D01*
X431183Y602872D01*
X430805Y600001D01*
X431183Y597129D01*
X432291Y594453D01*
X434054Y592155D01*
X436352Y590392D01*
X439028Y589284D01*
X441900Y588906D01*
X444771Y589284D01*
X447447Y590392D01*
X449745Y592155D01*
X451508Y594453D01*
X452616Y597129D01*
X452994Y600001D01*
X452616Y602872D01*
X451508Y605548D01*
X449745Y607846D01*
X447447Y609609D01*
X444771Y610718D01*
X441900Y611096D01*
D02*
G37*
G36*
X529574Y598729D02*
X519371D01*
Y588527D01*
X521114Y588756D01*
X523921Y589919D01*
X526332Y591769D01*
X528181Y594179D01*
X529344Y596987D01*
X529574Y598729D01*
D02*
G37*
G36*
X516831D02*
X506629D01*
X506858Y596987D01*
X508021Y594179D01*
X509871Y591769D01*
X512281Y589919D01*
X515089Y588756D01*
X516831Y588527D01*
Y598729D01*
D02*
G37*
G36*
X146000Y575098D02*
X144049Y574710D01*
X142395Y573605D01*
X141290Y571951D01*
X140902Y570000D01*
X141290Y568049D01*
X142395Y566395D01*
X144049Y565290D01*
X146000Y564902D01*
X147951Y565290D01*
X149605Y566395D01*
X150710Y568049D01*
X151098Y570000D01*
X150710Y571951D01*
X149605Y573605D01*
X147951Y574710D01*
X146000Y575098D01*
D02*
G37*
G36*
X560000Y565098D02*
X558049Y564710D01*
X556395Y563605D01*
X555290Y561951D01*
X554902Y560000D01*
X555290Y558049D01*
X556395Y556395D01*
X558049Y555290D01*
X560000Y554902D01*
X561951Y555290D01*
X563605Y556395D01*
X564710Y558049D01*
X565098Y560000D01*
X564710Y561951D01*
X563605Y563605D01*
X561951Y564710D01*
X560000Y565098D01*
D02*
G37*
G36*
X490050Y554650D02*
X470750D01*
Y535350D01*
X490050D01*
Y554650D01*
D02*
G37*
G36*
X450400Y554733D02*
X447881Y554402D01*
X445533Y553429D01*
X443517Y551883D01*
X441971Y549867D01*
X440998Y547519D01*
X440667Y545000D01*
X440998Y542481D01*
X441971Y540133D01*
X443517Y538118D01*
X445533Y536571D01*
X447881Y535598D01*
X450400Y535267D01*
X452919Y535598D01*
X455267Y536571D01*
X457282Y538118D01*
X458829Y540133D01*
X459802Y542481D01*
X460133Y545000D01*
X459802Y547519D01*
X458829Y549867D01*
X457282Y551883D01*
X455267Y553429D01*
X452919Y554402D01*
X450400Y554733D01*
D02*
G37*
G36*
X400000Y567323D02*
X396620Y566991D01*
X393371Y566005D01*
X390376Y564404D01*
X387751Y562249D01*
X385596Y559624D01*
X383995Y556629D01*
X383009Y553380D01*
X382677Y550000D01*
X383009Y546620D01*
X383995Y543371D01*
X385596Y540376D01*
X387751Y537751D01*
X390376Y535596D01*
X393371Y533995D01*
X396620Y533009D01*
X400000Y532677D01*
X403380Y533009D01*
X406629Y533995D01*
X409624Y535596D01*
X412249Y537751D01*
X414404Y540376D01*
X416005Y543371D01*
X416991Y546620D01*
X417323Y550000D01*
X416991Y553380D01*
X416005Y556629D01*
X414404Y559624D01*
X412249Y562249D01*
X409624Y564404D01*
X406629Y566005D01*
X403380Y566991D01*
X400000Y567323D01*
D02*
G37*
G36*
X215000Y540098D02*
X213049Y539710D01*
X211395Y538605D01*
X210290Y536951D01*
X209902Y535000D01*
X210290Y533049D01*
X211395Y531395D01*
X213049Y530290D01*
X215000Y529902D01*
X216951Y530290D01*
X218605Y531395D01*
X219710Y533049D01*
X220098Y535000D01*
X219710Y536951D01*
X218605Y538605D01*
X216951Y539710D01*
X215000Y540098D01*
D02*
G37*
G36*
X560000Y525098D02*
X558049Y524710D01*
X556395Y523605D01*
X555290Y521951D01*
X554902Y520000D01*
X555290Y518049D01*
X556395Y516395D01*
X558049Y515290D01*
X560000Y514902D01*
X561951Y515290D01*
X563605Y516395D01*
X564710Y518049D01*
X565098Y520000D01*
X564710Y521951D01*
X563605Y523605D01*
X561951Y524710D01*
X560000Y525098D01*
D02*
G37*
G36*
X523600Y547082D02*
X520267Y546754D01*
X517063Y545782D01*
X514110Y544203D01*
X511521Y542079D01*
X509397Y539490D01*
X507818Y536537D01*
X506846Y533333D01*
X506518Y530000D01*
X506846Y526668D01*
X507818Y523463D01*
X509397Y520510D01*
X511521Y517921D01*
X514110Y515797D01*
X517063Y514218D01*
X520267Y513246D01*
X523600Y512918D01*
X526933Y513246D01*
X530137Y514218D01*
X533090Y515797D01*
X535679Y517921D01*
X537803Y520510D01*
X539382Y523463D01*
X540354Y526668D01*
X540682Y530000D01*
X540354Y533333D01*
X539382Y536537D01*
X537803Y539490D01*
X535679Y542079D01*
X533090Y544203D01*
X530137Y545782D01*
X526933Y546754D01*
X523600Y547082D01*
D02*
G37*
G36*
X480400Y524733D02*
X477881Y524402D01*
X475533Y523429D01*
X473517Y521883D01*
X471971Y519867D01*
X470998Y517519D01*
X470667Y515000D01*
X470998Y512481D01*
X471971Y510133D01*
X473517Y508118D01*
X475533Y506571D01*
X477881Y505598D01*
X480400Y505267D01*
X482919Y505598D01*
X485267Y506571D01*
X487282Y508118D01*
X488829Y510133D01*
X489802Y512481D01*
X490133Y515000D01*
X489802Y517519D01*
X488829Y519867D01*
X487282Y521883D01*
X485267Y523429D01*
X482919Y524402D01*
X480400Y524733D01*
D02*
G37*
G36*
X450400D02*
X447881Y524402D01*
X445533Y523429D01*
X443517Y521883D01*
X441971Y519867D01*
X440998Y517519D01*
X440667Y515000D01*
X440998Y512481D01*
X441971Y510133D01*
X443517Y508118D01*
X445533Y506571D01*
X447881Y505598D01*
X450400Y505267D01*
X452919Y505598D01*
X455267Y506571D01*
X457282Y508118D01*
X458829Y510133D01*
X459802Y512481D01*
X460133Y515000D01*
X459802Y517519D01*
X458829Y519867D01*
X457282Y521883D01*
X455267Y523429D01*
X452919Y524402D01*
X450400Y524733D01*
D02*
G37*
G36*
X363000Y506098D02*
X361049Y505710D01*
X359905Y504945D01*
X359000Y504708D01*
X358095Y504945D01*
X356951Y505710D01*
X355000Y506098D01*
X353049Y505710D01*
X351395Y504605D01*
X350290Y502951D01*
X350147Y502234D01*
X348853D01*
X348710Y502951D01*
X347605Y504605D01*
X345951Y505710D01*
X344000Y506098D01*
X342049Y505710D01*
X340395Y504605D01*
X339290Y502951D01*
X338902Y501000D01*
X339290Y499049D01*
X340395Y497395D01*
X342049Y496290D01*
X344000Y495902D01*
X345951Y496290D01*
X347605Y497395D01*
X348710Y499049D01*
X348853Y499766D01*
X350147D01*
X350290Y499049D01*
X351395Y497395D01*
X353049Y496290D01*
X355000Y495902D01*
X356951Y496290D01*
X358095Y497055D01*
X359000Y497292D01*
X359905Y497055D01*
X361049Y496290D01*
X363000Y495902D01*
X364951Y496290D01*
X366605Y497395D01*
X367710Y499049D01*
X368098Y501000D01*
X367710Y502951D01*
X366605Y504605D01*
X364951Y505710D01*
X363000Y506098D01*
D02*
G37*
G36*
X295000Y514098D02*
X293049Y513710D01*
X291395Y512605D01*
X290290Y510951D01*
X289902Y509000D01*
X290290Y507049D01*
X291395Y505395D01*
X293049Y504290D01*
X295000Y503902D01*
X296951Y504290D01*
X298605Y505395D01*
X299710Y507049D01*
X300098Y509000D01*
X299710Y510951D01*
X298605Y512605D01*
X296951Y513710D01*
X295000Y514098D01*
D02*
G37*
G36*
X260000Y537323D02*
X256620Y536991D01*
X253371Y536005D01*
X250376Y534404D01*
X247750Y532249D01*
X245596Y529624D01*
X243995Y526629D01*
X243009Y523380D01*
X242677Y520000D01*
X243009Y516620D01*
X243995Y513371D01*
X245596Y510376D01*
X247750Y507751D01*
X250376Y505596D01*
X253371Y503995D01*
X256620Y503009D01*
X260000Y502677D01*
X263380Y503009D01*
X266629Y503995D01*
X269624Y505596D01*
X272250Y507751D01*
X274404Y510376D01*
X276005Y513371D01*
X276991Y516620D01*
X277323Y520000D01*
X276991Y523380D01*
X276005Y526629D01*
X274404Y529624D01*
X272250Y532249D01*
X269624Y534404D01*
X266629Y536005D01*
X263380Y536991D01*
X260000Y537323D01*
D02*
G37*
G36*
X330000Y512098D02*
X328049Y511710D01*
X326395Y510605D01*
X325290Y508951D01*
X324902Y507000D01*
X325290Y505049D01*
X326395Y503395D01*
X328049Y502290D01*
X330000Y501902D01*
X331951Y502290D01*
X333605Y503395D01*
X334710Y505049D01*
X335098Y507000D01*
X334710Y508951D01*
X333605Y510605D01*
X331951Y511710D01*
X330000Y512098D01*
D02*
G37*
G36*
X314000D02*
X312049Y511710D01*
X310395Y510605D01*
X309290Y508951D01*
X308902Y507000D01*
X309290Y505049D01*
X310395Y503395D01*
X312049Y502290D01*
X314000Y501902D01*
X315951Y502290D01*
X317605Y503395D01*
X318710Y505049D01*
X319098Y507000D01*
X318710Y508951D01*
X317605Y510605D01*
X315951Y511710D01*
X314000Y512098D01*
D02*
G37*
G36*
X352000Y490098D02*
X350049Y489710D01*
X348395Y488605D01*
X347290Y486951D01*
X346902Y485000D01*
X347290Y483049D01*
X348395Y481395D01*
X350049Y480290D01*
X352000Y479902D01*
X353951Y480290D01*
X355605Y481395D01*
X356710Y483049D01*
X357098Y485000D01*
X356710Y486951D01*
X355605Y488605D01*
X353951Y489710D01*
X352000Y490098D01*
D02*
G37*
G36*
X560000Y485098D02*
X558049Y484710D01*
X556395Y483605D01*
X555290Y481951D01*
X554902Y480000D01*
X555290Y478049D01*
X556395Y476395D01*
X558049Y475290D01*
X560000Y474902D01*
X561951Y475290D01*
X563605Y476395D01*
X564710Y478049D01*
X565098Y480000D01*
X564710Y481951D01*
X563605Y483605D01*
X561951Y484710D01*
X560000Y485098D01*
D02*
G37*
G36*
X450400Y485098D02*
X448449Y484710D01*
X446795Y483605D01*
X445690Y481951D01*
X445302Y480000D01*
X445690Y478049D01*
X446795Y476395D01*
X448449Y475290D01*
X450400Y474902D01*
X452351Y475290D01*
X454005Y476395D01*
X455110Y478049D01*
X455498Y480000D01*
X455110Y481951D01*
X454005Y483605D01*
X452351Y484710D01*
X450400Y485098D01*
D02*
G37*
G36*
X495300Y464838D02*
X493349Y464450D01*
X491695Y463345D01*
X490590Y461691D01*
X490202Y459740D01*
X490590Y457789D01*
X491695Y456135D01*
X493349Y455030D01*
X495300Y454642D01*
X497251Y455030D01*
X498905Y456135D01*
X500010Y457789D01*
X500398Y459740D01*
X500010Y461691D01*
X498905Y463345D01*
X497251Y464450D01*
X495300Y464838D01*
D02*
G37*
G36*
X378460D02*
X376509Y464450D01*
X374855Y463345D01*
X373750Y461691D01*
X373362Y459740D01*
X373750Y457789D01*
X374855Y456135D01*
X376509Y455030D01*
X378460Y454642D01*
X380411Y455030D01*
X382065Y456135D01*
X383170Y457789D01*
X383558Y459740D01*
X383170Y461691D01*
X382065Y463345D01*
X380411Y464450D01*
X378460Y464838D01*
D02*
G37*
G36*
X369570Y454678D02*
X367619Y454290D01*
X365965Y453185D01*
X365212Y452057D01*
X363768D01*
X363015Y453185D01*
X361361Y454290D01*
X359410Y454678D01*
X357459Y454290D01*
X355805Y453185D01*
X355304Y452435D01*
X354125Y451915D01*
X353724Y452182D01*
X352471Y453020D01*
X350520Y453408D01*
X348569Y453020D01*
X346915Y451915D01*
X345810Y450261D01*
X345422Y448310D01*
X345810Y446359D01*
X346915Y444705D01*
X348569Y443600D01*
X350520Y443212D01*
X352471Y443600D01*
X354125Y444705D01*
X354626Y445455D01*
X355805Y445975D01*
X356206Y445708D01*
X357459Y444870D01*
X359410Y444482D01*
X361361Y444870D01*
X363015Y445975D01*
X363768Y447103D01*
X365212D01*
X365965Y445975D01*
X367619Y444870D01*
X369570Y444482D01*
X371521Y444870D01*
X373175Y445975D01*
X374280Y447629D01*
X374668Y449580D01*
X374280Y451531D01*
X373175Y453185D01*
X371521Y454290D01*
X369570Y454678D01*
D02*
G37*
G36*
X314000Y461098D02*
X312049Y460710D01*
X310395Y459605D01*
X309290Y457951D01*
X308902Y456000D01*
X309290Y454049D01*
X310395Y452395D01*
X312049Y451290D01*
X314000Y450902D01*
X315951Y451290D01*
X317605Y452395D01*
X318710Y454049D01*
X319098Y456000D01*
X318710Y457951D01*
X317605Y459605D01*
X315951Y460710D01*
X314000Y461098D01*
D02*
G37*
G36*
X561000Y455098D02*
X559049Y454710D01*
X557395Y453605D01*
X556290Y451951D01*
X555902Y450000D01*
X556290Y448049D01*
X557395Y446395D01*
X559049Y445290D01*
X561000Y444902D01*
X562951Y445290D01*
X564605Y446395D01*
X565710Y448049D01*
X566098Y450000D01*
X565710Y451951D01*
X564605Y453605D01*
X562951Y454710D01*
X561000Y455098D01*
D02*
G37*
G36*
X332000Y442098D02*
X330049Y441710D01*
X328395Y440605D01*
X327290Y438951D01*
X326902Y437000D01*
X327290Y435049D01*
X328395Y433395D01*
X330049Y432290D01*
X332000Y431902D01*
X333951Y432290D01*
X335605Y433395D01*
X336710Y435049D01*
X337098Y437000D01*
X336710Y438951D01*
X335605Y440605D01*
X333951Y441710D01*
X332000Y442098D01*
D02*
G37*
G36*
X495300Y438168D02*
X493349Y437780D01*
X491695Y436675D01*
X490590Y435021D01*
X490202Y433070D01*
X490590Y431119D01*
X491695Y429465D01*
X493349Y428360D01*
X495300Y427972D01*
X497251Y428360D01*
X498905Y429465D01*
X500010Y431119D01*
X500398Y433070D01*
X500010Y435021D01*
X498905Y436675D01*
X497251Y437780D01*
X495300Y438168D01*
D02*
G37*
G36*
X263000Y435098D02*
X261049Y434710D01*
X259395Y433605D01*
X258290Y431951D01*
X257902Y430000D01*
X258290Y428049D01*
X259395Y426395D01*
X261049Y425290D01*
X263000Y424902D01*
X264951Y425290D01*
X266605Y426395D01*
X266853Y426766D01*
X268201Y426498D01*
X268290Y426049D01*
X269395Y424395D01*
X271049Y423290D01*
X273000Y422902D01*
X274951Y423290D01*
X276605Y424395D01*
X277710Y426049D01*
X278098Y428000D01*
X277710Y429951D01*
X276605Y431605D01*
X274951Y432710D01*
X273000Y433098D01*
X271049Y432710D01*
X269395Y431605D01*
X269147Y431234D01*
X267799Y431502D01*
X267710Y431951D01*
X266605Y433605D01*
X264951Y434710D01*
X263000Y435098D01*
D02*
G37*
G36*
X561000Y430098D02*
X559049Y429710D01*
X557395Y428605D01*
X556290Y426951D01*
X555902Y425000D01*
X556290Y423049D01*
X557395Y421395D01*
X559049Y420290D01*
X561000Y419902D01*
X562951Y420290D01*
X564605Y421395D01*
X565710Y423049D01*
X566098Y425000D01*
X565710Y426951D01*
X564605Y428605D01*
X562951Y429710D01*
X561000Y430098D01*
D02*
G37*
G36*
X240000Y419098D02*
X238049Y418710D01*
X236395Y417605D01*
X235290Y415951D01*
X234902Y414000D01*
X235290Y412049D01*
X236395Y410395D01*
X238049Y409290D01*
X240000Y408902D01*
X241951Y409290D01*
X243605Y410395D01*
X244710Y412049D01*
X245098Y414000D01*
X244710Y415951D01*
X243605Y417605D01*
X241951Y418710D01*
X240000Y419098D01*
D02*
G37*
G36*
X264000Y416098D02*
X262049Y415710D01*
X260395Y414605D01*
X259290Y412951D01*
X258902Y411000D01*
X259290Y409049D01*
X260395Y407395D01*
X262049Y406290D01*
X264000Y405902D01*
X265951Y406290D01*
X267605Y407395D01*
X268710Y409049D01*
X269098Y411000D01*
X268710Y412951D01*
X267605Y414605D01*
X265951Y415710D01*
X264000Y416098D01*
D02*
G37*
G36*
X386000Y415098D02*
X384049Y414710D01*
X382395Y413605D01*
X381290Y411951D01*
X380902Y410000D01*
X381290Y408049D01*
X382395Y406395D01*
X384049Y405290D01*
X386000Y404902D01*
X387951Y405290D01*
X389605Y406395D01*
X390710Y408049D01*
X391098Y410000D01*
X390710Y411951D01*
X389605Y413605D01*
X387951Y414710D01*
X386000Y415098D01*
D02*
G37*
G36*
X351000Y420098D02*
X349049Y419710D01*
X347395Y418605D01*
X346290Y416951D01*
X345902Y415000D01*
X346290Y413049D01*
X347395Y411395D01*
X349049Y410290D01*
X349797Y410141D01*
X350890Y409621D01*
X350719Y408762D01*
X350502Y407670D01*
X350890Y405719D01*
X351995Y404065D01*
X353649Y402960D01*
X355600Y402572D01*
X357551Y402960D01*
X359205Y404065D01*
X360310Y405719D01*
X360698Y407670D01*
X360310Y409621D01*
X359205Y411275D01*
X357551Y412380D01*
X356803Y412529D01*
X355710Y413049D01*
X355881Y413908D01*
X356098Y415000D01*
X355710Y416951D01*
X354605Y418605D01*
X352951Y419710D01*
X351000Y420098D01*
D02*
G37*
G36*
X495300Y411498D02*
X493349Y411110D01*
X491695Y410005D01*
X490590Y408351D01*
X490202Y406400D01*
X490590Y404449D01*
X491695Y402795D01*
X493349Y401690D01*
X495300Y401302D01*
X497251Y401690D01*
X498905Y402795D01*
X500010Y404449D01*
X500398Y406400D01*
X500010Y408351D01*
X498905Y410005D01*
X497251Y411110D01*
X495300Y411498D01*
D02*
G37*
G36*
X137000Y410098D02*
X135049Y409710D01*
X133395Y408605D01*
X132290Y406951D01*
X131902Y405000D01*
X132290Y403049D01*
X133395Y401395D01*
X135049Y400290D01*
X137000Y399902D01*
X138951Y400290D01*
X140605Y401395D01*
X141710Y403049D01*
X142098Y405000D01*
X141710Y406951D01*
X140605Y408605D01*
X138951Y409710D01*
X137000Y410098D01*
D02*
G37*
G36*
X252000Y407098D02*
X250049Y406710D01*
X248395Y405605D01*
X247290Y403951D01*
X246902Y402000D01*
X247290Y400049D01*
X248395Y398395D01*
X250049Y397290D01*
X252000Y396902D01*
X253951Y397290D01*
X255605Y398395D01*
X256710Y400049D01*
X257098Y402000D01*
X256710Y403951D01*
X255605Y405605D01*
X253951Y406710D01*
X252000Y407098D01*
D02*
G37*
G36*
X395000Y405098D02*
X393049Y404710D01*
X391395Y403605D01*
X390290Y401951D01*
X389902Y400000D01*
X390290Y398049D01*
X391395Y396395D01*
X393049Y395290D01*
X395000Y394902D01*
X396951Y395290D01*
X398605Y396395D01*
X399710Y398049D01*
X400098Y400000D01*
X399710Y401951D01*
X398605Y403605D01*
X396951Y404710D01*
X395000Y405098D01*
D02*
G37*
G36*
X469000Y400098D02*
X467049Y399710D01*
X465395Y398605D01*
X464290Y396951D01*
X463902Y395000D01*
X464290Y393049D01*
X465395Y391395D01*
X467049Y390290D01*
X469000Y389902D01*
X470951Y390290D01*
X472605Y391395D01*
X473710Y393049D01*
X474098Y395000D01*
X473710Y396951D01*
X472605Y398605D01*
X470951Y399710D01*
X469000Y400098D01*
D02*
G37*
G36*
X560000Y395098D02*
X558049Y394710D01*
X556395Y393605D01*
X555290Y391951D01*
X554902Y390000D01*
X555290Y388049D01*
X556395Y386395D01*
X558049Y385290D01*
X560000Y384902D01*
X561951Y385290D01*
X563605Y386395D01*
X564710Y388049D01*
X565098Y390000D01*
X564710Y391951D01*
X563605Y393605D01*
X561951Y394710D01*
X560000Y395098D01*
D02*
G37*
G36*
X101040Y386540D02*
X90770D01*
Y376270D01*
X101040D01*
Y386540D01*
D02*
G37*
G36*
X88230D02*
X77960D01*
Y376270D01*
X88230D01*
Y386540D01*
D02*
G37*
G36*
X203200Y386098D02*
X201249Y385710D01*
X199595Y384605D01*
X198490Y382951D01*
X198102Y381000D01*
X198490Y379049D01*
X199595Y377395D01*
X201249Y376290D01*
X203200Y375902D01*
X205151Y376290D01*
X206805Y377395D01*
X207910Y379049D01*
X208298Y381000D01*
X207910Y382951D01*
X206805Y384605D01*
X205151Y385710D01*
X203200Y386098D01*
D02*
G37*
G36*
X137000Y385098D02*
X135049Y384710D01*
X133395Y383605D01*
X132290Y381951D01*
X131902Y380000D01*
X132290Y378049D01*
X133395Y376395D01*
X135049Y375290D01*
X137000Y374902D01*
X138951Y375290D01*
X140605Y376395D01*
X141710Y378049D01*
X142098Y380000D01*
X141710Y381951D01*
X140605Y383605D01*
X138951Y384710D01*
X137000Y385098D01*
D02*
G37*
G36*
X278000Y381098D02*
X276049Y380710D01*
X274395Y379605D01*
X273290Y377951D01*
X272902Y376000D01*
X273290Y374049D01*
X274395Y372395D01*
X276049Y371290D01*
X278000Y370902D01*
X278818Y371065D01*
X279902Y369999D01*
X280289Y368048D01*
X281395Y366395D01*
X283048Y365289D01*
X284999Y364901D01*
X286950Y365289D01*
X288604Y366395D01*
X289709Y368048D01*
X290097Y369999D01*
X289709Y371950D01*
X288604Y373604D01*
X286950Y374709D01*
X284999Y375097D01*
X284181Y374934D01*
X283098Y376000D01*
X282710Y377951D01*
X281605Y379605D01*
X279951Y380710D01*
X278000Y381098D01*
D02*
G37*
G36*
X119500Y386095D02*
X116628Y385717D01*
X113953Y384608D01*
X111655Y382845D01*
X109892Y380547D01*
X108783Y377872D01*
X108405Y375000D01*
X108783Y372128D01*
X109892Y369453D01*
X111655Y367155D01*
X113953Y365392D01*
X116628Y364283D01*
X119500Y363905D01*
X122372Y364283D01*
X125048Y365392D01*
X127345Y367155D01*
X129108Y369453D01*
X130217Y372128D01*
X130595Y375000D01*
X130217Y377872D01*
X129108Y380547D01*
X127345Y382845D01*
X125048Y384608D01*
X122372Y385717D01*
X119500Y386095D01*
D02*
G37*
G36*
X101040Y373730D02*
X90770D01*
Y363460D01*
X101040D01*
Y373730D01*
D02*
G37*
G36*
X88230D02*
X77960D01*
Y363460D01*
X88230D01*
Y373730D01*
D02*
G37*
G36*
X191419Y373517D02*
X189468Y373129D01*
X187815Y372024D01*
X186709Y370370D01*
X186321Y368419D01*
X186709Y366469D01*
X187815Y364815D01*
X189468Y363709D01*
X191419Y363321D01*
X193370Y363709D01*
X195024Y364815D01*
X196129Y366469D01*
X196517Y368419D01*
X196129Y370370D01*
X195024Y372024D01*
X193370Y373129D01*
X191419Y373517D01*
D02*
G37*
G36*
X367030Y370858D02*
X365079Y370470D01*
X363425Y369365D01*
X362320Y367711D01*
X361932Y365760D01*
X362320Y363809D01*
X363425Y362155D01*
X365079Y361050D01*
X367030Y360662D01*
X368981Y361050D01*
X370635Y362155D01*
X371740Y363809D01*
X372128Y365760D01*
X371740Y367711D01*
X370635Y369365D01*
X368981Y370470D01*
X367030Y370858D01*
D02*
G37*
G36*
X351790D02*
X349839Y370470D01*
X348185Y369365D01*
X347080Y367711D01*
X346692Y365760D01*
X347080Y363809D01*
X348185Y362155D01*
X349839Y361050D01*
X351790Y360662D01*
X353741Y361050D01*
X355395Y362155D01*
X356500Y363809D01*
X356888Y365760D01*
X356500Y367711D01*
X355395Y369365D01*
X353741Y370470D01*
X351790Y370858D01*
D02*
G37*
G36*
X137000Y360098D02*
X135049Y359710D01*
X133395Y358605D01*
X132290Y356951D01*
X131902Y355000D01*
X132290Y353049D01*
X133395Y351395D01*
X135049Y350290D01*
X137000Y349902D01*
X138951Y350290D01*
X140605Y351395D01*
X141710Y353049D01*
X142098Y355000D01*
X141710Y356951D01*
X140605Y358605D01*
X138951Y359710D01*
X137000Y360098D01*
D02*
G37*
G36*
X383540Y358158D02*
X381589Y357770D01*
X379935Y356665D01*
X378830Y355011D01*
X378442Y353060D01*
X378830Y351109D01*
X379935Y349455D01*
X381589Y348350D01*
X383540Y347962D01*
X385491Y348350D01*
X387145Y349455D01*
X388250Y351109D01*
X388638Y353060D01*
X388250Y355011D01*
X387145Y356665D01*
X385491Y357770D01*
X383540Y358158D01*
D02*
G37*
G36*
X560000Y355098D02*
X558049Y354710D01*
X556395Y353605D01*
X555290Y351951D01*
X554902Y350000D01*
X555290Y348049D01*
X556395Y346395D01*
X558049Y345290D01*
X560000Y344902D01*
X561951Y345290D01*
X563605Y346395D01*
X564710Y348049D01*
X565098Y350000D01*
X564710Y351951D01*
X563605Y353605D01*
X561951Y354710D01*
X560000Y355098D01*
D02*
G37*
G36*
X457200Y354348D02*
X455249Y353960D01*
X453595Y352855D01*
X452490Y351201D01*
X452102Y349250D01*
X452490Y347299D01*
X453595Y345645D01*
X455249Y344540D01*
X457200Y344152D01*
X459151Y344540D01*
X460805Y345645D01*
X461910Y347299D01*
X462298Y349250D01*
X461910Y351201D01*
X460805Y352855D01*
X459151Y353960D01*
X457200Y354348D01*
D02*
G37*
G36*
X312420Y373398D02*
X310469Y373010D01*
X308815Y371905D01*
X307710Y370251D01*
X307322Y368300D01*
X307710Y366349D01*
X308815Y364695D01*
X310469Y363590D01*
X311397Y363406D01*
X312413Y362004D01*
X312402Y361950D01*
X312790Y359999D01*
X313895Y358345D01*
X315549Y357240D01*
X317500Y356852D01*
X317942Y356940D01*
X318840Y356042D01*
X318752Y355600D01*
X319140Y353649D01*
X320245Y351995D01*
X321899Y350890D01*
X323850Y350502D01*
X324292Y350590D01*
X325190Y349692D01*
X325102Y349250D01*
X325490Y347299D01*
X326595Y345645D01*
X328249Y344540D01*
X330200Y344152D01*
X332151Y344540D01*
X333805Y345645D01*
X334910Y347299D01*
X335298Y349250D01*
X334910Y351201D01*
X333805Y352855D01*
X332151Y353960D01*
X330200Y354348D01*
X329758Y354260D01*
X328860Y355158D01*
X328948Y355600D01*
X328560Y357551D01*
X327455Y359205D01*
X325801Y360310D01*
X323850Y360698D01*
X323408Y360610D01*
X322510Y361508D01*
X322598Y361950D01*
X322210Y363901D01*
X321105Y365555D01*
X319451Y366660D01*
X318523Y366844D01*
X317507Y368246D01*
X317518Y368300D01*
X317130Y370251D01*
X316025Y371905D01*
X314371Y373010D01*
X312420Y373398D01*
D02*
G37*
G36*
X189000Y350098D02*
X187049Y349710D01*
X185395Y348605D01*
X184290Y346951D01*
X183902Y345000D01*
X184290Y343049D01*
X185395Y341395D01*
X187049Y340290D01*
X189000Y339902D01*
X190951Y340290D01*
X192605Y341395D01*
X193710Y343049D01*
X194098Y345000D01*
X193710Y346951D01*
X192605Y348605D01*
X190951Y349710D01*
X189000Y350098D01*
D02*
G37*
G36*
X244581Y358517D02*
X242630Y358129D01*
X240976Y357024D01*
X239871Y355370D01*
X239483Y353419D01*
X239871Y351469D01*
X240667Y350277D01*
X240281Y349524D01*
X239961Y349081D01*
X238114Y348714D01*
X236460Y347609D01*
X235355Y345955D01*
X234967Y344004D01*
X235355Y342053D01*
X236460Y340399D01*
X238114Y339294D01*
X240065Y338906D01*
X242016Y339294D01*
X243669Y340399D01*
X244775Y342053D01*
X245163Y344004D01*
X244775Y345955D01*
X243979Y347146D01*
X244364Y347899D01*
X244684Y348342D01*
X246532Y348709D01*
X248185Y349815D01*
X249291Y351469D01*
X249678Y353419D01*
X249291Y355370D01*
X248185Y357024D01*
X246532Y358129D01*
X244581Y358517D01*
D02*
G37*
G36*
X173000Y349098D02*
X171049Y348710D01*
X169395Y347605D01*
X168290Y345951D01*
X167902Y344000D01*
X168290Y342049D01*
X169395Y340395D01*
X171049Y339290D01*
X173000Y338902D01*
X174951Y339290D01*
X176605Y340395D01*
X177710Y342049D01*
X178098Y344000D01*
X177710Y345951D01*
X176605Y347605D01*
X174951Y348710D01*
X173000Y349098D01*
D02*
G37*
G36*
X372110Y346728D02*
X370159Y346340D01*
X368505Y345235D01*
X367400Y343581D01*
X367012Y341630D01*
X367400Y339679D01*
X368505Y338025D01*
X370159Y336920D01*
X372110Y336532D01*
X374061Y336920D01*
X375715Y338025D01*
X376820Y339679D01*
X377208Y341630D01*
X376820Y343581D01*
X375715Y345235D01*
X374061Y346340D01*
X372110Y346728D01*
D02*
G37*
G36*
X204000Y344098D02*
X202049Y343710D01*
X200395Y342605D01*
X199290Y340951D01*
X198902Y339000D01*
X199290Y337049D01*
X200395Y335395D01*
X202049Y334290D01*
X204000Y333902D01*
X205951Y334290D01*
X207605Y335395D01*
X208710Y337049D01*
X209098Y339000D01*
X208710Y340951D01*
X207605Y342605D01*
X205951Y343710D01*
X204000Y344098D01*
D02*
G37*
G36*
X146050Y341648D02*
X144099Y341260D01*
X142445Y340155D01*
X141340Y338501D01*
X140952Y336550D01*
X141340Y334599D01*
X142445Y332945D01*
X144099Y331840D01*
X146050Y331452D01*
X148001Y331840D01*
X149655Y332945D01*
X150760Y334599D01*
X151148Y336550D01*
X150760Y338501D01*
X149655Y340155D01*
X148001Y341260D01*
X146050Y341648D01*
D02*
G37*
G36*
X114300D02*
X112349Y341260D01*
X110695Y340155D01*
X109590Y338501D01*
X109202Y336550D01*
X109590Y334599D01*
X110695Y332945D01*
X112349Y331840D01*
X114300Y331452D01*
X116251Y331840D01*
X117905Y332945D01*
X119010Y334599D01*
X119398Y336550D01*
X119010Y338501D01*
X117905Y340155D01*
X116251Y341260D01*
X114300Y341648D01*
D02*
G37*
G36*
X382270Y337838D02*
X380319Y337450D01*
X378665Y336345D01*
X377560Y334691D01*
X377172Y332740D01*
X377560Y330789D01*
X378665Y329135D01*
X380319Y328030D01*
X382270Y327642D01*
X384221Y328030D01*
X385875Y329135D01*
X386980Y330789D01*
X387368Y332740D01*
X386980Y334691D01*
X385875Y336345D01*
X384221Y337450D01*
X382270Y337838D01*
D02*
G37*
G36*
X240665Y336602D02*
X238714Y336214D01*
X237061Y335109D01*
X235955Y333455D01*
X235567Y331504D01*
X235955Y329553D01*
X237061Y327899D01*
X238714Y326794D01*
X240665Y326406D01*
X242616Y326794D01*
X244270Y327899D01*
X245375Y329553D01*
X245763Y331504D01*
X245375Y333455D01*
X244270Y335109D01*
X242616Y336214D01*
X240665Y336602D01*
D02*
G37*
G36*
X228092Y335552D02*
X226141Y335164D01*
X224487Y334059D01*
X223382Y332405D01*
X222994Y330454D01*
X223382Y328503D01*
X224487Y326849D01*
X226141Y325744D01*
X228092Y325356D01*
X230043Y325744D01*
X231697Y326849D01*
X232802Y328503D01*
X233190Y330454D01*
X232802Y332405D01*
X231697Y334059D01*
X230043Y335164D01*
X228092Y335552D01*
D02*
G37*
G36*
X427976Y333221D02*
X426026Y332833D01*
X424372Y331728D01*
X423266Y330074D01*
X422878Y328123D01*
X423266Y326172D01*
X424372Y324518D01*
X426026Y323413D01*
X427976Y323025D01*
X429927Y323413D01*
X431581Y324518D01*
X432686Y326172D01*
X433074Y328123D01*
X432686Y330074D01*
X431581Y331728D01*
X429927Y332833D01*
X427976Y333221D01*
D02*
G37*
G36*
X448000Y333098D02*
X446049Y332710D01*
X444395Y331605D01*
X443290Y329951D01*
X442902Y328000D01*
X443290Y326049D01*
X444395Y324395D01*
X446049Y323290D01*
X448000Y322902D01*
X449951Y323290D01*
X451605Y324395D01*
X452710Y326049D01*
X453098Y328000D01*
X452710Y329951D01*
X451605Y331605D01*
X449951Y332710D01*
X448000Y333098D01*
D02*
G37*
G36*
X257589Y328848D02*
X255639Y328460D01*
X253985Y327355D01*
X252880Y325701D01*
X252491Y323750D01*
X252880Y321799D01*
X253985Y320145D01*
X255639Y319040D01*
X257589Y318652D01*
X259540Y319040D01*
X261194Y320145D01*
X262299Y321799D01*
X262687Y323750D01*
X262299Y325701D01*
X261194Y327355D01*
X259540Y328460D01*
X257589Y328848D01*
D02*
G37*
G36*
X412750Y323868D02*
X410799Y323480D01*
X409145Y322375D01*
X408040Y320721D01*
X407652Y318770D01*
X408040Y316819D01*
X409145Y315165D01*
X410799Y314060D01*
X412750Y313672D01*
X414701Y314060D01*
X416355Y315165D01*
X417460Y316819D01*
X417848Y318770D01*
X417460Y320721D01*
X416355Y322375D01*
X414701Y323480D01*
X412750Y323868D01*
D02*
G37*
G36*
X382270Y322598D02*
X380319Y322210D01*
X378665Y321105D01*
X377560Y319451D01*
X377172Y317500D01*
X377560Y315549D01*
X378665Y313895D01*
X380319Y312790D01*
X382270Y312402D01*
X384221Y312790D01*
X385875Y313895D01*
X386980Y315549D01*
X387368Y317500D01*
X386980Y319451D01*
X385875Y321105D01*
X384221Y322210D01*
X382270Y322598D01*
D02*
G37*
G36*
X560000Y315098D02*
X558049Y314710D01*
X556395Y313605D01*
X555290Y311951D01*
X554902Y310000D01*
X555290Y308049D01*
X556395Y306395D01*
X558049Y305290D01*
X560000Y304902D01*
X561951Y305290D01*
X563605Y306395D01*
X564710Y308049D01*
X565098Y310000D01*
X564710Y311951D01*
X563605Y313605D01*
X561951Y314710D01*
X560000Y315098D01*
D02*
G37*
G36*
X182852Y312225D02*
X180902Y311837D01*
X179248Y310732D01*
X178143Y309078D01*
X177754Y307127D01*
X178143Y305176D01*
X179248Y303522D01*
X180902Y302417D01*
X182852Y302029D01*
X184803Y302417D01*
X186457Y303522D01*
X187562Y305176D01*
X187950Y307127D01*
X187562Y309078D01*
X186457Y310732D01*
X184803Y311837D01*
X182852Y312225D01*
D02*
G37*
G36*
X115000Y307599D02*
X113049Y307211D01*
X111395Y306106D01*
X110290Y304452D01*
X109902Y302501D01*
X110290Y300550D01*
X111395Y298896D01*
X113049Y297791D01*
X115000Y297403D01*
X116951Y297791D01*
X118605Y298896D01*
X119710Y300550D01*
X120098Y302501D01*
X119710Y304452D01*
X118605Y306106D01*
X116951Y307211D01*
X115000Y307599D01*
D02*
G37*
G36*
X470001Y304138D02*
X468050Y303750D01*
X466396Y302645D01*
X465291Y300991D01*
X464903Y299040D01*
X465291Y297089D01*
X466396Y295435D01*
X468050Y294330D01*
X470001Y293942D01*
X471952Y294330D01*
X473606Y295435D01*
X474711Y297089D01*
X475099Y299040D01*
X474711Y300991D01*
X473606Y302645D01*
X471952Y303750D01*
X470001Y304138D01*
D02*
G37*
G36*
X361000Y302098D02*
X359049Y301710D01*
X357395Y300605D01*
X356290Y298951D01*
X355902Y297000D01*
X356290Y295049D01*
X357395Y293395D01*
X359049Y292290D01*
X361000Y291902D01*
X362951Y292290D01*
X364605Y293395D01*
X365710Y295049D01*
X366098Y297000D01*
X365710Y298951D01*
X364605Y300605D01*
X362951Y301710D01*
X361000Y302098D01*
D02*
G37*
G36*
X255000Y301098D02*
X253049Y300710D01*
X251395Y299605D01*
X250290Y297951D01*
X249902Y296000D01*
X250290Y294049D01*
X251395Y292395D01*
X253049Y291290D01*
X255000Y290902D01*
X256951Y291290D01*
X258605Y292395D01*
X259710Y294049D01*
X260098Y296000D01*
X259710Y297951D01*
X258605Y299605D01*
X256951Y300710D01*
X255000Y301098D01*
D02*
G37*
G36*
X302000Y307098D02*
X300049Y306710D01*
X298395Y305605D01*
X297290Y303951D01*
X296902Y302000D01*
X297290Y300049D01*
X297463Y299790D01*
X297087Y298067D01*
X296395Y297605D01*
X295290Y295951D01*
X294902Y294000D01*
X295290Y292049D01*
X296395Y290395D01*
X298049Y289290D01*
X300000Y288902D01*
X301951Y289290D01*
X303605Y290395D01*
X304710Y292049D01*
X305098Y294000D01*
X304710Y295951D01*
X304537Y296210D01*
X304913Y297933D01*
X305605Y298395D01*
X306710Y300049D01*
X307098Y302000D01*
X306710Y303951D01*
X305605Y305605D01*
X303951Y306710D01*
X302000Y307098D01*
D02*
G37*
G36*
X331250Y297198D02*
X329300Y296810D01*
X327646Y295705D01*
X326541Y294051D01*
X326153Y292100D01*
X326228Y291720D01*
X325481Y290973D01*
X325110Y290830D01*
X323248Y290460D01*
X321595Y289355D01*
X320490Y287701D01*
X320302Y286758D01*
X318907Y285741D01*
X318770Y285768D01*
X316819Y285380D01*
X315165Y284275D01*
X314060Y282621D01*
X313672Y280670D01*
X314060Y278719D01*
X315165Y277065D01*
X316819Y275960D01*
X318770Y275572D01*
X320721Y275960D01*
X322375Y277065D01*
X323480Y278719D01*
X323667Y279662D01*
X325062Y280679D01*
X325199Y280652D01*
X327150Y281040D01*
X328804Y282145D01*
X329909Y283799D01*
X330297Y285750D01*
X330222Y286130D01*
X330969Y286877D01*
X331340Y287020D01*
X333201Y287390D01*
X334855Y288495D01*
X335960Y290149D01*
X336348Y292100D01*
X335960Y294051D01*
X334855Y295705D01*
X333201Y296810D01*
X331250Y297198D01*
D02*
G37*
G36*
X176000Y292098D02*
X174049Y291710D01*
X172395Y290605D01*
X171290Y288951D01*
X170902Y287000D01*
X171290Y285049D01*
X172395Y283395D01*
X174049Y282290D01*
X176000Y281902D01*
X177951Y282290D01*
X179605Y283395D01*
X180710Y285049D01*
X181098Y287000D01*
X180710Y288951D01*
X179605Y290605D01*
X177951Y291710D01*
X176000Y292098D01*
D02*
G37*
G36*
X343745Y286844D02*
X341794Y286455D01*
X340140Y285350D01*
X339035Y283696D01*
X338647Y281746D01*
X339035Y279795D01*
X340140Y278141D01*
X341794Y277036D01*
X343745Y276648D01*
X345696Y277036D01*
X347350Y278141D01*
X348455Y279795D01*
X348843Y281746D01*
X348455Y283696D01*
X347350Y285350D01*
X345696Y286455D01*
X343745Y286844D01*
D02*
G37*
G36*
X358000Y285098D02*
X356049Y284710D01*
X354395Y283605D01*
X353290Y281951D01*
X352902Y280000D01*
X353290Y278049D01*
X354395Y276395D01*
X356049Y275290D01*
X358000Y274902D01*
X359951Y275290D01*
X361605Y276395D01*
X362710Y278049D01*
X363098Y280000D01*
X362710Y281951D01*
X361605Y283605D01*
X359951Y284710D01*
X358000Y285098D01*
D02*
G37*
G36*
X560000Y275098D02*
X558049Y274710D01*
X556395Y273605D01*
X555290Y271951D01*
X554902Y270000D01*
X555290Y268049D01*
X556395Y266395D01*
X558049Y265290D01*
X560000Y264902D01*
X561951Y265290D01*
X563605Y266395D01*
X564710Y268049D01*
X565098Y270000D01*
X564710Y271951D01*
X563605Y273605D01*
X561951Y274710D01*
X560000Y275098D01*
D02*
G37*
G36*
X119501Y286095D02*
X116629Y285717D01*
X113953Y284608D01*
X111655Y282845D01*
X109892Y280547D01*
X108784Y277872D01*
X108406Y275000D01*
X108784Y272128D01*
X109892Y269453D01*
X111655Y267155D01*
X113953Y265392D01*
X116629Y264283D01*
X119501Y263905D01*
X122372Y264283D01*
X125048Y265392D01*
X127346Y267155D01*
X129109Y269453D01*
X130217Y272128D01*
X130596Y275000D01*
X130217Y277872D01*
X129109Y280547D01*
X127346Y282845D01*
X125048Y284608D01*
X122372Y285717D01*
X119501Y286095D01*
D02*
G37*
G36*
X89501D02*
X86629Y285717D01*
X83953Y284608D01*
X81655Y282845D01*
X79892Y280547D01*
X78784Y277872D01*
X78406Y275000D01*
X78784Y272128D01*
X79892Y269453D01*
X81655Y267155D01*
X83953Y265392D01*
X86629Y264283D01*
X89501Y263905D01*
X92372Y264283D01*
X95048Y265392D01*
X97346Y267155D01*
X99109Y269453D01*
X100217Y272128D01*
X100596Y275000D01*
X100217Y277872D01*
X99109Y280547D01*
X97346Y282845D01*
X95048Y284608D01*
X92372Y285717D01*
X89501Y286095D01*
D02*
G37*
G36*
X255000Y273098D02*
X253049Y272710D01*
X251395Y271605D01*
X250290Y269951D01*
X249902Y268000D01*
X250290Y266049D01*
X251395Y264395D01*
X253049Y263290D01*
X255000Y262902D01*
X256951Y263290D01*
X258605Y264395D01*
X259710Y266049D01*
X260098Y268000D01*
X259710Y269951D01*
X258605Y271605D01*
X256951Y272710D01*
X255000Y273098D01*
D02*
G37*
G36*
X428000D02*
X426049Y272710D01*
X424395Y271605D01*
X423290Y269951D01*
X422902Y268000D01*
X423290Y266049D01*
X424395Y264395D01*
X426049Y263290D01*
X428000Y262902D01*
X429951Y263290D01*
X431184Y264114D01*
X431614Y264391D01*
X432769Y263852D01*
X433275Y263095D01*
X434929Y261990D01*
X436880Y261602D01*
X438831Y261990D01*
X440485Y263095D01*
X441590Y264749D01*
X441978Y266700D01*
X441590Y268651D01*
X440485Y270305D01*
X438831Y271410D01*
X436880Y271798D01*
X434929Y271410D01*
X433697Y270586D01*
X433266Y270309D01*
X432111Y270848D01*
X431605Y271605D01*
X429951Y272710D01*
X428000Y273098D01*
D02*
G37*
G36*
X227000Y266098D02*
X225049Y265710D01*
X223395Y264605D01*
X222290Y262951D01*
X221902Y261000D01*
X222290Y259049D01*
X223055Y257905D01*
X223292Y257000D01*
X223055Y256095D01*
X222290Y254951D01*
X222147Y254234D01*
X220853D01*
X220710Y254951D01*
X219605Y256605D01*
X217951Y257710D01*
X216000Y258098D01*
X214049Y257710D01*
X212395Y256605D01*
X211290Y254951D01*
X210902Y253000D01*
X211290Y251049D01*
X212395Y249395D01*
X214049Y248290D01*
X216000Y247902D01*
X217951Y248290D01*
X219605Y249395D01*
X220710Y251049D01*
X220853Y251766D01*
X222147D01*
X222290Y251049D01*
X223395Y249395D01*
X225049Y248290D01*
X227000Y247902D01*
X228951Y248290D01*
X230605Y249395D01*
X231710Y251049D01*
X232098Y253000D01*
X231710Y254951D01*
X230945Y256095D01*
X230708Y257000D01*
X230945Y257905D01*
X231710Y259049D01*
X232098Y261000D01*
X231710Y262951D01*
X230605Y264605D01*
X228951Y265710D01*
X227000Y266098D01*
D02*
G37*
G36*
X138750Y261098D02*
X136799Y260710D01*
X135145Y259605D01*
X134040Y257951D01*
X133652Y256000D01*
X134040Y254049D01*
X135145Y252395D01*
X136799Y251290D01*
X138750Y250902D01*
X140701Y251290D01*
X142354Y252395D01*
X143460Y254049D01*
X143848Y256000D01*
X143460Y257951D01*
X142354Y259605D01*
X140701Y260710D01*
X138750Y261098D01*
D02*
G37*
G36*
X302260Y260368D02*
X300309Y259980D01*
X298655Y258875D01*
X297550Y257221D01*
X297162Y255270D01*
X297550Y253319D01*
X298655Y251665D01*
X300309Y250560D01*
X302260Y250172D01*
X304211Y250560D01*
X305865Y251665D01*
X306970Y253319D01*
X307358Y255270D01*
X306970Y257221D01*
X305865Y258875D01*
X304211Y259980D01*
X302260Y260368D01*
D02*
G37*
G36*
X253000Y258098D02*
X251049Y257710D01*
X249395Y256605D01*
X248290Y254951D01*
X247902Y253000D01*
X248290Y251049D01*
X249395Y249395D01*
X251049Y248290D01*
X253000Y247902D01*
X254951Y248290D01*
X256605Y249395D01*
X257710Y251049D01*
X258098Y253000D01*
X257710Y254951D01*
X256605Y256605D01*
X254951Y257710D01*
X253000Y258098D01*
D02*
G37*
G36*
X317500Y255288D02*
X315549Y254900D01*
X313895Y253795D01*
X312790Y252141D01*
X312402Y250190D01*
X312790Y248239D01*
X313895Y246585D01*
X315549Y245480D01*
X317500Y245092D01*
X319451Y245480D01*
X321105Y246585D01*
X322210Y248239D01*
X322598Y250190D01*
X322210Y252141D01*
X321105Y253795D01*
X319451Y254900D01*
X317500Y255288D01*
D02*
G37*
G36*
X385000Y255098D02*
X383049Y254710D01*
X381395Y253605D01*
X380290Y251951D01*
X379902Y250000D01*
X380290Y248049D01*
X381395Y246395D01*
X383049Y245290D01*
X385000Y244902D01*
X386951Y245290D01*
X388605Y246395D01*
X389710Y248049D01*
X390098Y250000D01*
X389710Y251951D01*
X388605Y253605D01*
X386951Y254710D01*
X385000Y255098D01*
D02*
G37*
G36*
X172000Y251098D02*
X170049Y250710D01*
X168395Y249605D01*
X167290Y247951D01*
X166902Y246000D01*
X167290Y244049D01*
X168395Y242395D01*
X170049Y241290D01*
X172000Y240902D01*
X173951Y241290D01*
X175605Y242395D01*
X176710Y244049D01*
X177098Y246000D01*
X176710Y247951D01*
X175605Y249605D01*
X173951Y250710D01*
X172000Y251098D01*
D02*
G37*
G36*
X418000Y247098D02*
X416049Y246710D01*
X414395Y245605D01*
X413290Y243951D01*
X412902Y242000D01*
X413290Y240049D01*
X414395Y238395D01*
X416049Y237290D01*
X418000Y236902D01*
X419951Y237290D01*
X421605Y238395D01*
X422710Y240049D01*
X423098Y242000D01*
X422710Y243951D01*
X421605Y245605D01*
X419951Y246710D01*
X418000Y247098D01*
D02*
G37*
G36*
X119501Y256095D02*
X116629Y255717D01*
X113953Y254608D01*
X111655Y252845D01*
X109892Y250548D01*
X108784Y247872D01*
X108406Y245000D01*
X108784Y242128D01*
X109892Y239453D01*
X111655Y237155D01*
X113953Y235392D01*
X116629Y234283D01*
X119501Y233905D01*
X122372Y234283D01*
X125048Y235392D01*
X127346Y237155D01*
X129109Y239453D01*
X130217Y242128D01*
X130596Y245000D01*
X130217Y247872D01*
X129109Y250548D01*
X127346Y252845D01*
X125048Y254608D01*
X122372Y255717D01*
X119501Y256095D01*
D02*
G37*
G36*
X89501D02*
X86629Y255717D01*
X83953Y254608D01*
X81655Y252845D01*
X79892Y250548D01*
X78784Y247872D01*
X78406Y245000D01*
X78784Y242128D01*
X79892Y239453D01*
X81655Y237155D01*
X83953Y235392D01*
X86629Y234283D01*
X89501Y233905D01*
X92372Y234283D01*
X95048Y235392D01*
X97346Y237155D01*
X99109Y239453D01*
X100217Y242128D01*
X100596Y245000D01*
X100217Y247872D01*
X99109Y250548D01*
X97346Y252845D01*
X95048Y254608D01*
X92372Y255717D01*
X89501Y256095D01*
D02*
G37*
G36*
X560000Y235098D02*
X558049Y234710D01*
X556395Y233605D01*
X555290Y231951D01*
X554902Y230000D01*
X555290Y228049D01*
X556395Y226395D01*
X558049Y225290D01*
X560000Y224902D01*
X561951Y225290D01*
X563605Y226395D01*
X564710Y228049D01*
X565098Y230000D01*
X564710Y231951D01*
X563605Y233605D01*
X561951Y234710D01*
X560000Y235098D01*
D02*
G37*
G36*
X222250Y238778D02*
X220299Y238390D01*
X218645Y237285D01*
X217540Y235631D01*
X217152Y233680D01*
X217540Y231729D01*
X218645Y230075D01*
X220299Y228970D01*
X222250Y228582D01*
X222304Y228593D01*
X223706Y227577D01*
X223890Y226649D01*
X224995Y224995D01*
X226649Y223890D01*
X228600Y223502D01*
X230551Y223890D01*
X232205Y224995D01*
X233310Y226649D01*
X233698Y228600D01*
X233310Y230551D01*
X232205Y232205D01*
X230551Y233310D01*
X228600Y233698D01*
X228546Y233687D01*
X227144Y234703D01*
X226960Y235631D01*
X225855Y237285D01*
X224201Y238390D01*
X222250Y238778D01*
D02*
G37*
G36*
X283000Y225098D02*
X281049Y224710D01*
X279395Y223605D01*
X278290Y221951D01*
X277902Y220000D01*
X278290Y218049D01*
X279395Y216395D01*
X281049Y215290D01*
X283000Y214902D01*
X284951Y215290D01*
X286605Y216395D01*
X287710Y218049D01*
X288098Y220000D01*
X287710Y221951D01*
X286605Y223605D01*
X284951Y224710D01*
X283000Y225098D01*
D02*
G37*
G36*
X203000Y232098D02*
X201049Y231710D01*
X199395Y230605D01*
X198290Y228951D01*
X197902Y227000D01*
X198290Y225049D01*
X199395Y223395D01*
X201049Y222290D01*
X203000Y221902D01*
X203433Y221988D01*
X203692Y221824D01*
X204410Y220888D01*
X204107Y219365D01*
X204495Y217414D01*
X205600Y215760D01*
X207254Y214655D01*
X209205Y214267D01*
X211156Y214655D01*
X212810Y215760D01*
X213915Y217414D01*
X214303Y219365D01*
X213915Y221316D01*
X212810Y222970D01*
X211156Y224075D01*
X209205Y224463D01*
X208773Y224377D01*
X208513Y224541D01*
X207795Y225477D01*
X208098Y227000D01*
X207710Y228951D01*
X206605Y230605D01*
X204951Y231710D01*
X203000Y232098D01*
D02*
G37*
G36*
X119501Y226095D02*
X116629Y225717D01*
X113953Y224608D01*
X111655Y222845D01*
X109892Y220548D01*
X108784Y217872D01*
X108406Y215000D01*
X108784Y212129D01*
X109892Y209453D01*
X111655Y207155D01*
X113953Y205392D01*
X116629Y204283D01*
X119501Y203905D01*
X122372Y204283D01*
X125048Y205392D01*
X127346Y207155D01*
X129109Y209453D01*
X130217Y212129D01*
X130596Y215000D01*
X130217Y217872D01*
X129109Y220548D01*
X127346Y222845D01*
X125048Y224608D01*
X122372Y225717D01*
X119501Y226095D01*
D02*
G37*
G36*
X89501D02*
X86629Y225717D01*
X83953Y224608D01*
X81655Y222845D01*
X79892Y220548D01*
X78784Y217872D01*
X78406Y215000D01*
X78784Y212129D01*
X79892Y209453D01*
X81655Y207155D01*
X83953Y205392D01*
X86629Y204283D01*
X89501Y203905D01*
X92372Y204283D01*
X95048Y205392D01*
X97346Y207155D01*
X99109Y209453D01*
X100217Y212129D01*
X100596Y215000D01*
X100217Y217872D01*
X99109Y220548D01*
X97346Y222845D01*
X95048Y224608D01*
X92372Y225717D01*
X89501Y226095D01*
D02*
G37*
G36*
X216000Y211098D02*
X214049Y210710D01*
X212395Y209605D01*
X211290Y207951D01*
X210902Y206000D01*
X211290Y204049D01*
X212395Y202395D01*
X214049Y201290D01*
X216000Y200902D01*
X217951Y201290D01*
X219605Y202395D01*
X220710Y204049D01*
X221098Y206000D01*
X220710Y207951D01*
X219605Y209605D01*
X217951Y210710D01*
X216000Y211098D01*
D02*
G37*
G36*
X291000Y210098D02*
X289049Y209710D01*
X287395Y208605D01*
X286290Y206951D01*
X285902Y205000D01*
X286290Y203049D01*
X287395Y201395D01*
X289049Y200290D01*
X291000Y199902D01*
X292951Y200290D01*
X294605Y201395D01*
X295710Y203049D01*
X296098Y205000D01*
X295710Y206951D01*
X294605Y208605D01*
X292951Y209710D01*
X291000Y210098D01*
D02*
G37*
G36*
X179070Y208298D02*
X177119Y207910D01*
X175465Y206805D01*
X174360Y205151D01*
X173972Y203200D01*
X174360Y201249D01*
X175465Y199595D01*
X177119Y198490D01*
X179070Y198102D01*
X181021Y198490D01*
X182675Y199595D01*
X183780Y201249D01*
X184168Y203200D01*
X183780Y205151D01*
X182675Y206805D01*
X181021Y207910D01*
X179070Y208298D01*
D02*
G37*
G36*
X338000Y205098D02*
X336049Y204710D01*
X334395Y203605D01*
X333290Y201951D01*
X332902Y200000D01*
X333290Y198049D01*
X334395Y196395D01*
X336049Y195290D01*
X338000Y194902D01*
X339951Y195290D01*
X341605Y196395D01*
X342710Y198049D01*
X343098Y200000D01*
X342710Y201951D01*
X341605Y203605D01*
X339951Y204710D01*
X338000Y205098D01*
D02*
G37*
G36*
X319000D02*
X317049Y204710D01*
X315395Y203605D01*
X314290Y201951D01*
X313902Y200000D01*
X314290Y198049D01*
X315395Y196395D01*
X317049Y195290D01*
X319000Y194902D01*
X320951Y195290D01*
X322605Y196395D01*
X323710Y198049D01*
X324098Y200000D01*
X323710Y201951D01*
X322605Y203605D01*
X320951Y204710D01*
X319000Y205098D01*
D02*
G37*
G36*
X157000Y210098D02*
X155049Y209710D01*
X153395Y208605D01*
X152290Y206951D01*
X151902Y205000D01*
X152041Y204302D01*
X152000Y203098D01*
X151119Y202923D01*
X150049Y202710D01*
X148395Y201605D01*
X147290Y199951D01*
X146902Y198000D01*
X147290Y196049D01*
X148395Y194395D01*
X150049Y193290D01*
X152000Y192902D01*
X153951Y193290D01*
X155605Y194395D01*
X156710Y196049D01*
X157098Y198000D01*
X156959Y198698D01*
X157000Y199902D01*
X157881Y200077D01*
X158951Y200290D01*
X160605Y201395D01*
X161710Y203049D01*
X162098Y205000D01*
X161710Y206951D01*
X160605Y208605D01*
X158951Y209710D01*
X157000Y210098D01*
D02*
G37*
G36*
X171450Y196868D02*
X169499Y196480D01*
X167845Y195375D01*
X166740Y193721D01*
X166352Y191770D01*
X166740Y189819D01*
X167845Y188165D01*
X169499Y187060D01*
X171450Y186672D01*
X173401Y187060D01*
X175055Y188165D01*
X176160Y189819D01*
X176548Y191770D01*
X176160Y193721D01*
X175055Y195375D01*
X173401Y196480D01*
X171450Y196868D01*
D02*
G37*
G36*
X560000Y195098D02*
X558049Y194710D01*
X556395Y193605D01*
X555290Y191951D01*
X554902Y190000D01*
X555290Y188049D01*
X556395Y186395D01*
X558049Y185290D01*
X560000Y184902D01*
X561951Y185290D01*
X563605Y186395D01*
X564710Y188049D01*
X565098Y190000D01*
X564710Y191951D01*
X563605Y193605D01*
X561951Y194710D01*
X560000Y195098D01*
D02*
G37*
G36*
X119501Y196095D02*
X116629Y195717D01*
X113953Y194608D01*
X111655Y192845D01*
X109892Y190547D01*
X108784Y187872D01*
X108406Y185000D01*
X108784Y182128D01*
X109892Y179453D01*
X111655Y177155D01*
X113953Y175392D01*
X116629Y174283D01*
X119501Y173905D01*
X122372Y174283D01*
X125048Y175392D01*
X127346Y177155D01*
X129109Y179453D01*
X130217Y182128D01*
X130596Y185000D01*
X130217Y187872D01*
X129109Y190547D01*
X127346Y192845D01*
X125048Y194608D01*
X122372Y195717D01*
X119501Y196095D01*
D02*
G37*
G36*
X89501D02*
X86629Y195717D01*
X83953Y194608D01*
X81655Y192845D01*
X79892Y190547D01*
X78784Y187872D01*
X78406Y185000D01*
X78784Y182128D01*
X79892Y179453D01*
X81655Y177155D01*
X83953Y175392D01*
X86629Y174283D01*
X89501Y173905D01*
X92372Y174283D01*
X95048Y175392D01*
X97346Y177155D01*
X99109Y179453D01*
X100217Y182128D01*
X100596Y185000D01*
X100217Y187872D01*
X99109Y190547D01*
X97346Y192845D01*
X95048Y194608D01*
X92372Y195717D01*
X89501Y196095D01*
D02*
G37*
G36*
X171450Y176548D02*
X169499Y176160D01*
X167845Y175055D01*
X166740Y173401D01*
X166352Y171450D01*
X166740Y169499D01*
X167845Y167845D01*
X169499Y166740D01*
X171450Y166352D01*
X173401Y166740D01*
X175055Y167845D01*
X176160Y169499D01*
X176548Y171450D01*
X176160Y173401D01*
X175055Y175055D01*
X173401Y176160D01*
X171450Y176548D01*
D02*
G37*
G36*
X192000Y166098D02*
X190049Y165710D01*
X188395Y164605D01*
X187290Y162951D01*
X186902Y161000D01*
X187290Y159049D01*
X188395Y157395D01*
X190049Y156290D01*
X192000Y155902D01*
X193951Y156290D01*
X195605Y157395D01*
X196710Y159049D01*
X197098Y161000D01*
X196710Y162951D01*
X195605Y164605D01*
X193951Y165710D01*
X192000Y166098D01*
D02*
G37*
G36*
X555600Y176595D02*
X552728Y176217D01*
X550052Y175109D01*
X547755Y173346D01*
X545992Y171048D01*
X544883Y168372D01*
X544505Y165500D01*
X544883Y162629D01*
X545992Y159953D01*
X547755Y157655D01*
X550052Y155892D01*
X552728Y154784D01*
X555600Y154405D01*
X558471Y154784D01*
X561147Y155892D01*
X563445Y157655D01*
X565208Y159953D01*
X566317Y162629D01*
X566695Y165500D01*
X566317Y168372D01*
X565208Y171048D01*
X563445Y173346D01*
X561147Y175109D01*
X558471Y176217D01*
X555600Y176595D01*
D02*
G37*
G36*
X327000D02*
X324128Y176217D01*
X321452Y175109D01*
X319155Y173346D01*
X317391Y171048D01*
X316283Y168372D01*
X315905Y165500D01*
X316283Y162629D01*
X317391Y159953D01*
X319155Y157655D01*
X321452Y155892D01*
X324128Y154784D01*
X327000Y154405D01*
X329871Y154784D01*
X332547Y155892D01*
X334845Y157655D01*
X336608Y159953D01*
X337717Y162629D01*
X338095Y165500D01*
X337717Y168372D01*
X336608Y171048D01*
X334845Y173346D01*
X332547Y175109D01*
X329871Y176217D01*
X327000Y176595D01*
D02*
G37*
G36*
X119501Y166095D02*
X116629Y165717D01*
X113953Y164608D01*
X111655Y162845D01*
X109892Y160548D01*
X108784Y157872D01*
X108406Y155000D01*
X108784Y152128D01*
X109892Y149453D01*
X111655Y147155D01*
X113953Y145392D01*
X116629Y144283D01*
X119501Y143905D01*
X122372Y144283D01*
X125048Y145392D01*
X127346Y147155D01*
X129109Y149453D01*
X130217Y152128D01*
X130596Y155000D01*
X130217Y157872D01*
X129109Y160548D01*
X127346Y162845D01*
X125048Y164608D01*
X122372Y165717D01*
X119501Y166095D01*
D02*
G37*
G36*
X89501D02*
X86629Y165717D01*
X83953Y164608D01*
X81655Y162845D01*
X79892Y160548D01*
X78784Y157872D01*
X78406Y155000D01*
X78784Y152128D01*
X79892Y149453D01*
X81655Y147155D01*
X83953Y145392D01*
X86629Y144283D01*
X89501Y143905D01*
X92372Y144283D01*
X95048Y145392D01*
X97346Y147155D01*
X99109Y149453D01*
X100217Y152128D01*
X100596Y155000D01*
X100217Y157872D01*
X99109Y160548D01*
X97346Y162845D01*
X95048Y164608D01*
X92372Y165717D01*
X89501Y166095D01*
D02*
G37*
G36*
X141448Y152039D02*
X139497Y151651D01*
X137844Y150546D01*
X136738Y148892D01*
X136350Y146941D01*
X136738Y144990D01*
X137844Y143336D01*
X139497Y142231D01*
X141448Y141843D01*
X143399Y142231D01*
X145053Y143336D01*
X146158Y144990D01*
X146546Y146941D01*
X146158Y148892D01*
X145053Y150546D01*
X143399Y151651D01*
X141448Y152039D01*
D02*
G37*
G36*
X260000Y167323D02*
X256620Y166991D01*
X253371Y166005D01*
X250376Y164404D01*
X247750Y162250D01*
X245596Y159624D01*
X243995Y156629D01*
X243009Y153380D01*
X242677Y150000D01*
X243009Y146620D01*
X243995Y143371D01*
X245596Y140376D01*
X247750Y137751D01*
X250376Y135596D01*
X253371Y133995D01*
X256620Y133010D01*
X260000Y132677D01*
X263380Y133010D01*
X266629Y133995D01*
X269624Y135596D01*
X272250Y137751D01*
X274404Y140376D01*
X276005Y143371D01*
X276991Y146620D01*
X277323Y150000D01*
X276991Y153380D01*
X276005Y156629D01*
X274404Y159624D01*
X272250Y162250D01*
X269624Y164404D01*
X266629Y166005D01*
X263380Y166991D01*
X260000Y167323D01*
D02*
G37*
G36*
X555599Y151196D02*
X552728Y150818D01*
X550052Y149710D01*
X547754Y147947D01*
X545991Y145649D01*
X544882Y142973D01*
X544504Y140101D01*
X544882Y137230D01*
X545991Y134554D01*
X547754Y132256D01*
X550052Y130493D01*
X552728Y129384D01*
X555599Y129006D01*
X558471Y129384D01*
X561147Y130493D01*
X563444Y132256D01*
X565208Y134554D01*
X566316Y137230D01*
X566694Y140101D01*
X566316Y142973D01*
X565208Y145649D01*
X563444Y147947D01*
X561147Y149710D01*
X558471Y150818D01*
X555599Y151196D01*
D02*
G37*
G36*
X326999D02*
X324128Y150818D01*
X321452Y149710D01*
X319154Y147947D01*
X317391Y145649D01*
X316282Y142973D01*
X315904Y140101D01*
X316282Y137230D01*
X317391Y134554D01*
X319154Y132256D01*
X321452Y130493D01*
X324128Y129384D01*
X326999Y129006D01*
X329871Y129384D01*
X332547Y130493D01*
X334844Y132256D01*
X336608Y134554D01*
X337716Y137230D01*
X338094Y140101D01*
X337716Y142973D01*
X336608Y145649D01*
X334844Y147947D01*
X332547Y149710D01*
X329871Y150818D01*
X326999Y151196D01*
D02*
G37*
G36*
X100501Y136000D02*
X78501D01*
Y114000D01*
X100501D01*
Y136000D01*
D02*
G37*
G36*
X119501Y136095D02*
X116629Y135717D01*
X113953Y134608D01*
X111655Y132845D01*
X109892Y130547D01*
X108784Y127872D01*
X108406Y125000D01*
X108784Y122128D01*
X109892Y119453D01*
X111655Y117155D01*
X113953Y115392D01*
X116629Y114283D01*
X119501Y113905D01*
X122372Y114283D01*
X125048Y115392D01*
X127346Y117155D01*
X129109Y119453D01*
X130217Y122128D01*
X130596Y125000D01*
X130217Y127872D01*
X129109Y130547D01*
X127346Y132845D01*
X125048Y134608D01*
X122372Y135717D01*
X119501Y136095D01*
D02*
G37*
G36*
X160000Y122098D02*
X158049Y121710D01*
X156395Y120605D01*
X155290Y118951D01*
X154902Y117000D01*
X155290Y115049D01*
X156395Y113395D01*
X158049Y112290D01*
X160000Y111902D01*
X161951Y112290D01*
X163605Y113395D01*
X164710Y115049D01*
X165098Y117000D01*
X164710Y118951D01*
X163605Y120605D01*
X161951Y121710D01*
X160000Y122098D01*
D02*
G37*
G36*
X196000Y114098D02*
X194049Y113710D01*
X192395Y112605D01*
X191290Y110951D01*
X190902Y109000D01*
X191290Y107049D01*
X192395Y105395D01*
X194049Y104290D01*
X196000Y103902D01*
X197951Y104290D01*
X199605Y105395D01*
X200710Y107049D01*
X201098Y109000D01*
X200710Y110951D01*
X199605Y112605D01*
X197951Y113710D01*
X196000Y114098D01*
D02*
G37*
G36*
X555601Y125794D02*
X552729Y125416D01*
X550053Y124308D01*
X547756Y122545D01*
X545992Y120247D01*
X544884Y117571D01*
X544506Y114700D01*
X544884Y111828D01*
X545992Y109152D01*
X547756Y106854D01*
X550053Y105091D01*
X552729Y103983D01*
X555601Y103605D01*
X558472Y103983D01*
X561148Y105091D01*
X563446Y106854D01*
X565209Y109152D01*
X566318Y111828D01*
X566696Y114700D01*
X566318Y117571D01*
X565209Y120247D01*
X563446Y122545D01*
X561148Y124308D01*
X558472Y125416D01*
X555601Y125794D01*
D02*
G37*
G36*
X116271Y102988D02*
X114320Y102600D01*
X112666Y101495D01*
X111561Y99841D01*
X111173Y97890D01*
X111561Y95939D01*
X112666Y94285D01*
X114320Y93180D01*
X116271Y92792D01*
X118222Y93180D01*
X119876Y94285D01*
X120981Y95939D01*
X121369Y97890D01*
X120981Y99841D01*
X119876Y101495D01*
X118222Y102600D01*
X116271Y102988D01*
D02*
G37*
G36*
X510000Y117323D02*
X506620Y116990D01*
X503371Y116005D01*
X500376Y114404D01*
X497751Y112249D01*
X495596Y109624D01*
X493995Y106629D01*
X493009Y103380D01*
X492677Y100000D01*
X493009Y96620D01*
X493995Y93371D01*
X495596Y90376D01*
X497751Y87751D01*
X500376Y85596D01*
X503371Y83995D01*
X506620Y83010D01*
X510000Y82677D01*
X513380Y83010D01*
X516629Y83995D01*
X519624Y85596D01*
X522249Y87751D01*
X524404Y90376D01*
X526005Y93371D01*
X526991Y96620D01*
X527323Y100000D01*
X526991Y103380D01*
X526005Y106629D01*
X524404Y109624D01*
X522249Y112249D01*
X519624Y114404D01*
X516629Y116005D01*
X513380Y116990D01*
X510000Y117323D01*
D02*
G37*
G36*
X555601Y100394D02*
X552729Y100016D01*
X550053Y98908D01*
X547756Y97145D01*
X545992Y94847D01*
X544884Y92171D01*
X544506Y89300D01*
X544884Y86428D01*
X545992Y83752D01*
X547756Y81454D01*
X550053Y79691D01*
X552729Y78583D01*
X555601Y78205D01*
X558472Y78583D01*
X561148Y79691D01*
X563446Y81454D01*
X565209Y83752D01*
X566318Y86428D01*
X566696Y89300D01*
X566318Y92171D01*
X565209Y94847D01*
X563446Y97145D01*
X561148Y98908D01*
X558472Y100016D01*
X555601Y100394D01*
D02*
G37*
G36*
X459100Y91000D02*
X437100D01*
Y69000D01*
X459100D01*
Y91000D01*
D02*
G37*
G36*
X422700Y91095D02*
X419828Y90717D01*
X417152Y89608D01*
X414855Y87845D01*
X413092Y85547D01*
X411983Y82872D01*
X411605Y80000D01*
X411983Y77128D01*
X413092Y74453D01*
X414855Y72155D01*
X417152Y70392D01*
X419828Y69283D01*
X422700Y68905D01*
X425572Y69283D01*
X428247Y70392D01*
X430545Y72155D01*
X432309Y74453D01*
X433417Y77128D01*
X433795Y80000D01*
X433417Y82872D01*
X432309Y85547D01*
X430545Y87845D01*
X428247Y89608D01*
X425572Y90717D01*
X422700Y91095D01*
D02*
G37*
G36*
X555601Y74995D02*
X552729Y74616D01*
X550053Y73508D01*
X547756Y71745D01*
X545992Y69447D01*
X544884Y66771D01*
X544506Y63900D01*
X544884Y61028D01*
X545992Y58352D01*
X547756Y56054D01*
X550053Y54291D01*
X552729Y53183D01*
X555601Y52805D01*
X558472Y53183D01*
X561148Y54291D01*
X563446Y56054D01*
X565209Y58352D01*
X566318Y61028D01*
X566696Y63900D01*
X566318Y66771D01*
X565209Y69447D01*
X563446Y71745D01*
X561148Y73508D01*
X558472Y74616D01*
X555601Y74995D01*
D02*
G37*
G36*
X566601Y49500D02*
X544601D01*
Y27500D01*
X566601D01*
Y49500D01*
D02*
G37*
G36*
X390000Y15098D02*
X388049Y14710D01*
X386395Y13605D01*
X385290Y11951D01*
X384902Y10000D01*
X385290Y8049D01*
X386395Y6395D01*
X388049Y5290D01*
X390000Y4902D01*
X391951Y5290D01*
X393605Y6395D01*
X394710Y8049D01*
X395098Y10000D01*
X394710Y11951D01*
X393605Y13605D01*
X391951Y14710D01*
X390000Y15098D01*
D02*
G37*
G36*
X119500Y506095D02*
X116628Y505717D01*
X113953Y504608D01*
X111655Y502845D01*
X109892Y500547D01*
X108783Y497872D01*
X108405Y495000D01*
X108783Y492128D01*
X109892Y489453D01*
X111655Y487155D01*
X113953Y485392D01*
X116628Y484283D01*
X119500Y483905D01*
X122372Y484283D01*
X125048Y485392D01*
X127345Y487155D01*
X129108Y489453D01*
X130217Y492128D01*
X130595Y495000D01*
X130217Y497872D01*
X129108Y500547D01*
X127345Y502845D01*
X125048Y504608D01*
X122372Y505717D01*
X119500Y506095D01*
D02*
G37*
G36*
X89500D02*
X86629Y505717D01*
X83953Y504608D01*
X81655Y502845D01*
X79892Y500547D01*
X78783Y497872D01*
X78405Y495000D01*
X78783Y492128D01*
X79892Y489453D01*
X81655Y487155D01*
X83953Y485392D01*
X86629Y484283D01*
X89500Y483905D01*
X92372Y484283D01*
X95048Y485392D01*
X97345Y487155D01*
X99108Y489453D01*
X100217Y492128D01*
X100595Y495000D01*
X100217Y497872D01*
X99108Y500547D01*
X97345Y502845D01*
X95048Y504608D01*
X92372Y505717D01*
X89500Y506095D01*
D02*
G37*
G36*
X119500Y476095D02*
X116628Y475717D01*
X113953Y474608D01*
X111655Y472845D01*
X109892Y470547D01*
X108783Y467872D01*
X108405Y465000D01*
X108783Y462128D01*
X109892Y459453D01*
X111655Y457155D01*
X113953Y455392D01*
X116628Y454283D01*
X119500Y453905D01*
X122372Y454283D01*
X125048Y455392D01*
X127345Y457155D01*
X129108Y459453D01*
X130217Y462128D01*
X130595Y465000D01*
X130217Y467872D01*
X129108Y470547D01*
X127345Y472845D01*
X125048Y474608D01*
X122372Y475717D01*
X119500Y476095D01*
D02*
G37*
G36*
X89500D02*
X86629Y475717D01*
X83953Y474608D01*
X81655Y472845D01*
X79892Y470547D01*
X78783Y467872D01*
X78405Y465000D01*
X78783Y462128D01*
X79892Y459453D01*
X81655Y457155D01*
X83953Y455392D01*
X86629Y454283D01*
X89500Y453905D01*
X92372Y454283D01*
X95048Y455392D01*
X97345Y457155D01*
X99108Y459453D01*
X100217Y462128D01*
X100595Y465000D01*
X100217Y467872D01*
X99108Y470547D01*
X97345Y472845D01*
X95048Y474608D01*
X92372Y475717D01*
X89500Y476095D01*
D02*
G37*
G36*
X32500Y438598D02*
X30549Y438210D01*
X28895Y437105D01*
X27790Y435451D01*
X27402Y433500D01*
X27790Y431549D01*
X28895Y429895D01*
X30549Y428790D01*
X32500Y428402D01*
X34451Y428790D01*
X36105Y429895D01*
X37210Y431549D01*
X37598Y433500D01*
X37210Y435451D01*
X36105Y437105D01*
X34451Y438210D01*
X32500Y438598D01*
D02*
G37*
G36*
X19000Y425098D02*
X17049Y424710D01*
X15395Y423605D01*
X14290Y421951D01*
X13902Y420000D01*
X14290Y418049D01*
X15395Y416395D01*
X17049Y415290D01*
X19000Y414902D01*
X20951Y415290D01*
X22605Y416395D01*
X23710Y418049D01*
X24098Y420000D01*
X23710Y421951D01*
X22605Y423605D01*
X20951Y424710D01*
X19000Y425098D01*
D02*
G37*
G36*
X48000Y378098D02*
X46049Y377710D01*
X44395Y376605D01*
X43290Y374951D01*
X42902Y373000D01*
X43290Y371049D01*
X44395Y369395D01*
X46049Y368290D01*
X48000Y367902D01*
X49951Y368290D01*
X51605Y369395D01*
X52710Y371049D01*
X53098Y373000D01*
X52710Y374951D01*
X51605Y376605D01*
X49951Y377710D01*
X48000Y378098D01*
D02*
G37*
G36*
X10000Y362098D02*
X8049Y361710D01*
X6395Y360605D01*
X5290Y358951D01*
X4902Y357000D01*
X5290Y355049D01*
X6395Y353395D01*
X8049Y352290D01*
X10000Y351902D01*
X11951Y352290D01*
X13605Y353395D01*
X14710Y355049D01*
X15098Y357000D01*
X14710Y358951D01*
X13605Y360605D01*
X11951Y361710D01*
X10000Y362098D01*
D02*
G37*
G36*
X327001Y100394D02*
X324129Y100016D01*
X321453Y98908D01*
X319156Y97145D01*
X317392Y94847D01*
X316284Y92171D01*
X315906Y89300D01*
X316284Y86428D01*
X317392Y83752D01*
X319156Y81454D01*
X321453Y79691D01*
X324129Y78583D01*
X327001Y78205D01*
X329872Y78583D01*
X332548Y79691D01*
X334846Y81454D01*
X336609Y83752D01*
X337718Y86428D01*
X338096Y89300D01*
X337718Y92171D01*
X336609Y94847D01*
X334846Y97145D01*
X332548Y98908D01*
X329872Y100016D01*
X327001Y100394D01*
D02*
G37*
G36*
Y74995D02*
X324129Y74616D01*
X321453Y73508D01*
X319156Y71745D01*
X317392Y69447D01*
X316284Y66771D01*
X315906Y63900D01*
X316284Y61028D01*
X317392Y58352D01*
X319156Y56054D01*
X321453Y54291D01*
X324129Y53183D01*
X327001Y52805D01*
X329872Y53183D01*
X332548Y54291D01*
X334846Y56054D01*
X336609Y58352D01*
X337718Y61028D01*
X338096Y63900D01*
X337718Y66771D01*
X336609Y69447D01*
X334846Y71745D01*
X332548Y73508D01*
X329872Y74616D01*
X327001Y74995D01*
D02*
G37*
G36*
X338001Y49500D02*
X316001D01*
Y27500D01*
X338001D01*
Y49500D01*
D02*
G37*
G36*
X189367Y31472D02*
Y21269D01*
X199569D01*
X199340Y23012D01*
X198177Y25819D01*
X196327Y28230D01*
X193917Y30079D01*
X191110Y31242D01*
X189367Y31472D01*
D02*
G37*
G36*
X186827D02*
X185084Y31242D01*
X182277Y30079D01*
X179867Y28230D01*
X178017Y25819D01*
X176854Y23012D01*
X176625Y21269D01*
X186827D01*
Y31472D01*
D02*
G37*
G36*
X249897Y30999D02*
X227897D01*
Y8999D01*
X249897D01*
Y30999D01*
D02*
G37*
G36*
X137295Y31096D02*
X134424Y30718D01*
X131748Y29609D01*
X129450Y27846D01*
X127687Y25548D01*
X126579Y22872D01*
X126201Y20001D01*
X126579Y17129D01*
X127687Y14453D01*
X129450Y12156D01*
X131748Y10392D01*
X134424Y9284D01*
X137295Y8906D01*
X140167Y9284D01*
X142843Y10392D01*
X145141Y12156D01*
X146904Y14453D01*
X148012Y17129D01*
X148390Y20001D01*
X148012Y22872D01*
X146904Y25548D01*
X145141Y27846D01*
X142843Y29609D01*
X140167Y30718D01*
X137295Y31096D01*
D02*
G37*
G36*
X111896Y31095D02*
X109025Y30717D01*
X106349Y29609D01*
X104051Y27845D01*
X102288Y25547D01*
X101179Y22872D01*
X100801Y20000D01*
X101179Y17128D01*
X102288Y14453D01*
X104051Y12155D01*
X106349Y10391D01*
X109025Y9283D01*
X111896Y8905D01*
X114768Y9283D01*
X117444Y10391D01*
X119741Y12155D01*
X121505Y14453D01*
X122613Y17128D01*
X122991Y20000D01*
X122613Y22872D01*
X121505Y25547D01*
X119741Y27845D01*
X117444Y29609D01*
X114768Y30717D01*
X111896Y31095D01*
D02*
G37*
G36*
X86497D02*
X83625Y30717D01*
X80949Y29609D01*
X78651Y27845D01*
X76888Y25547D01*
X75780Y22872D01*
X75402Y20000D01*
X75780Y17128D01*
X76888Y14453D01*
X78651Y12155D01*
X80949Y10391D01*
X83625Y9283D01*
X86497Y8905D01*
X89368Y9283D01*
X92044Y10391D01*
X94342Y12155D01*
X96105Y14453D01*
X97213Y17128D01*
X97591Y20000D01*
X97213Y22872D01*
X96105Y25547D01*
X94342Y27845D01*
X92044Y29609D01*
X89368Y30717D01*
X86497Y31095D01*
D02*
G37*
G36*
X61097D02*
X58225Y30717D01*
X55549Y29609D01*
X53251Y27845D01*
X51488Y25547D01*
X50380Y22872D01*
X50002Y20000D01*
X50380Y17128D01*
X51488Y14453D01*
X53251Y12155D01*
X55549Y10391D01*
X58225Y9283D01*
X61097Y8905D01*
X63968Y9283D01*
X66644Y10391D01*
X68942Y12155D01*
X70705Y14453D01*
X71814Y17128D01*
X72192Y20000D01*
X71814Y22872D01*
X70705Y25547D01*
X68942Y27845D01*
X66644Y29609D01*
X63968Y30717D01*
X61097Y31095D01*
D02*
G37*
G36*
X213497Y31094D02*
X210625Y30716D01*
X207950Y29608D01*
X205652Y27845D01*
X203889Y25547D01*
X202780Y22871D01*
X202402Y19999D01*
X202780Y17128D01*
X203889Y14452D01*
X205652Y12154D01*
X207950Y10391D01*
X210625Y9282D01*
X213497Y8904D01*
X216369Y9282D01*
X219044Y10391D01*
X221342Y12154D01*
X223106Y14452D01*
X224214Y17128D01*
X224592Y19999D01*
X224214Y22871D01*
X223106Y25547D01*
X221342Y27845D01*
X219044Y29608D01*
X216369Y30716D01*
X213497Y31094D01*
D02*
G37*
G36*
X162697D02*
X159825Y30716D01*
X157150Y29608D01*
X154852Y27845D01*
X153089Y25547D01*
X151980Y22871D01*
X151602Y19999D01*
X151980Y17128D01*
X153089Y14452D01*
X154852Y12154D01*
X157150Y10391D01*
X159825Y9282D01*
X162697Y8904D01*
X165569Y9282D01*
X168244Y10391D01*
X170542Y12154D01*
X172306Y14452D01*
X173414Y17128D01*
X173792Y19999D01*
X173414Y22871D01*
X172306Y25547D01*
X170542Y27845D01*
X168244Y29608D01*
X165569Y30716D01*
X162697Y31094D01*
D02*
G37*
G36*
X199569Y18729D02*
X189367D01*
Y8527D01*
X191110Y8756D01*
X193917Y9919D01*
X196327Y11769D01*
X198177Y14179D01*
X199340Y16987D01*
X199569Y18729D01*
D02*
G37*
G36*
X186827D02*
X176625D01*
X176854Y16987D01*
X178017Y14179D01*
X179867Y11769D01*
X182277Y9919D01*
X185084Y8756D01*
X186827Y8527D01*
Y18729D01*
D02*
G37*
G36*
X330000Y15098D02*
X328049Y14710D01*
X326395Y13605D01*
X325290Y11951D01*
X324902Y10000D01*
X325290Y8049D01*
X326395Y6395D01*
X328049Y5290D01*
X330000Y4902D01*
X331951Y5290D01*
X333605Y6395D01*
X334710Y8049D01*
X335098Y10000D01*
X334710Y11951D01*
X333605Y13605D01*
X331951Y14710D01*
X330000Y15098D01*
D02*
G37*
G36*
X300000D02*
X298049Y14710D01*
X296395Y13605D01*
X295290Y11951D01*
X294902Y10000D01*
X295290Y8049D01*
X296395Y6395D01*
X298049Y5290D01*
X300000Y4902D01*
X301951Y5290D01*
X303605Y6395D01*
X304710Y8049D01*
X305098Y10000D01*
X304710Y11951D01*
X303605Y13605D01*
X301951Y14710D01*
X300000Y15098D01*
D02*
G37*
G36*
X270000D02*
X268049Y14710D01*
X266395Y13605D01*
X265290Y11951D01*
X264902Y10000D01*
X265290Y8049D01*
X266395Y6395D01*
X268049Y5290D01*
X270000Y4902D01*
X271951Y5290D01*
X273605Y6395D01*
X274710Y8049D01*
X275098Y10000D01*
X274710Y11951D01*
X273605Y13605D01*
X271951Y14710D01*
X270000Y15098D01*
D02*
G37*
%LPD*%
D54*
X518101Y599999D02*
D03*
X188097Y19999D02*
D03*
D56*
X89500Y375000D02*
D03*
D61*
X372110Y109728D02*
D03*
X381254Y100584D02*
D03*
X360172D02*
D03*
X302000Y460000D02*
D03*
X142950Y278700D02*
D03*
X140000Y246999D02*
D03*
X368000Y168000D02*
D03*
X242000Y193000D02*
D03*
X282000Y281000D02*
D03*
X328000Y185000D02*
D03*
X302000Y213000D02*
D03*
X310000Y185000D02*
D03*
X92000Y321000D02*
D03*
X404000Y250000D02*
D03*
X142000Y475000D02*
D03*
X153000Y231000D02*
D03*
X400000Y454000D02*
D03*
X330000Y487000D02*
D03*
X314000D02*
D03*
X361000Y476000D02*
D03*
X352000D02*
D03*
X244000Y430000D02*
D03*
X228000Y447000D02*
D03*
X283000Y403000D02*
D03*
X295000Y382000D02*
D03*
X359000Y400000D02*
D03*
X367000Y410000D02*
D03*
X436000Y339000D02*
D03*
X419000D02*
D03*
X418000Y297000D02*
D03*
X427000Y287000D02*
D03*
X255000Y288000D02*
D03*
X378000Y279000D02*
D03*
X139000Y219000D02*
D03*
X50000Y307000D02*
D03*
X41000Y332000D02*
D03*
Y316000D02*
D03*
X50000Y325000D02*
D03*
X173000Y482000D02*
D03*
X156000Y449000D02*
D03*
X163000Y433000D02*
D03*
X87000Y94000D02*
D03*
X385000Y452000D02*
D03*
M02*
