G04*
G04 #@! TF.GenerationSoftware,Altium Limited,Altium Designer,20.2.6 (244)*
G04*
G04 Layer_Color=8421504*
%FSLAX44Y44*%
%MOMM*%
G71*
G04*
G04 #@! TF.SameCoordinates,D8BAA703-6470-441F-A09B-1F1B88CACBC1*
G04*
G04*
G04 #@! TF.FilePolarity,Positive*
G04*
G01*
G75*
G04:AMPARAMS|DCode=17|XSize=1.61mm|YSize=0.58mm|CornerRadius=0.145mm|HoleSize=0mm|Usage=FLASHONLY|Rotation=180.000|XOffset=0mm|YOffset=0mm|HoleType=Round|Shape=RoundedRectangle|*
%AMROUNDEDRECTD17*
21,1,1.6100,0.2900,0,0,180.0*
21,1,1.3200,0.5800,0,0,180.0*
1,1,0.2900,-0.6600,0.1450*
1,1,0.2900,0.6600,0.1450*
1,1,0.2900,0.6600,-0.1450*
1,1,0.2900,-0.6600,-0.1450*
%
%ADD17ROUNDEDRECTD17*%
%ADD18R,0.3000X1.2000*%
%ADD19R,1.2000X0.3000*%
%ADD20R,3.0000X2.0000*%
%ADD21R,0.5000X1.6500*%
%ADD22R,0.9000X0.9000*%
%ADD23R,0.5300X1.3100*%
%ADD24O,1.4500X0.6000*%
%ADD25R,0.5300X0.2800*%
%ADD26R,0.2800X0.5300*%
%ADD27R,0.8000X0.5000*%
%ADD28R,2.1000X5.6000*%
%ADD29R,0.9000X0.9000*%
%ADD30C,1.0000*%
D17*
X142950Y287950D02*
D03*
Y300650D02*
D03*
Y313350D02*
D03*
Y326050D02*
D03*
X215050D02*
D03*
Y313350D02*
D03*
Y300650D02*
D03*
Y287950D02*
D03*
D18*
X377500Y267500D02*
D03*
X372501D02*
D03*
X367501D02*
D03*
X362500D02*
D03*
X357501D02*
D03*
X352500D02*
D03*
X347500D02*
D03*
X342501D02*
D03*
X337500D02*
D03*
X332501D02*
D03*
X327500D02*
D03*
X322500D02*
D03*
X317501D02*
D03*
X312500D02*
D03*
X307501D02*
D03*
X302501D02*
D03*
Y382500D02*
D03*
X307501D02*
D03*
X312500D02*
D03*
X317501D02*
D03*
X322500D02*
D03*
X327500D02*
D03*
X332501D02*
D03*
X337500D02*
D03*
X342501D02*
D03*
X347500D02*
D03*
X352500D02*
D03*
X357501D02*
D03*
X362500D02*
D03*
X367501D02*
D03*
X372501D02*
D03*
X377500D02*
D03*
D19*
X282501Y287500D02*
D03*
Y292500D02*
D03*
Y297500D02*
D03*
Y302500D02*
D03*
Y307500D02*
D03*
Y312500D02*
D03*
Y317500D02*
D03*
Y322500D02*
D03*
Y327500D02*
D03*
Y332500D02*
D03*
Y337500D02*
D03*
Y342500D02*
D03*
Y347500D02*
D03*
Y352500D02*
D03*
Y357500D02*
D03*
Y362500D02*
D03*
X397501D02*
D03*
Y357500D02*
D03*
Y352500D02*
D03*
Y347500D02*
D03*
Y342500D02*
D03*
Y337500D02*
D03*
Y332500D02*
D03*
Y327500D02*
D03*
Y322500D02*
D03*
Y317500D02*
D03*
Y312500D02*
D03*
Y307500D02*
D03*
Y302500D02*
D03*
Y297500D02*
D03*
Y292500D02*
D03*
Y287500D02*
D03*
D20*
X445516Y168906D02*
D03*
Y104906D02*
D03*
D21*
X146501Y146520D02*
D03*
X153000D02*
D03*
X159501D02*
D03*
X166000D02*
D03*
X172500D02*
D03*
X179000D02*
D03*
X185501D02*
D03*
X192001D02*
D03*
X146501Y219020D02*
D03*
X153000D02*
D03*
X159501D02*
D03*
X166000D02*
D03*
X172500D02*
D03*
X179000D02*
D03*
X185501D02*
D03*
X192001D02*
D03*
D22*
X371754Y100838D02*
D03*
X390754D02*
D03*
X474828Y58674D02*
D03*
X455828D02*
D03*
X272500Y402520D02*
D03*
X291501D02*
D03*
X272500Y419000D02*
D03*
X291500D02*
D03*
X436848Y238017D02*
D03*
X455848D02*
D03*
X417501Y252563D02*
D03*
X436501D02*
D03*
X531340Y406400D02*
D03*
X512340D02*
D03*
X531340Y433070D02*
D03*
X512340D02*
D03*
X531340Y459740D02*
D03*
X512340D02*
D03*
X386501Y400520D02*
D03*
X367501D02*
D03*
X376000Y250000D02*
D03*
X395000D02*
D03*
X159501Y240520D02*
D03*
X140500D02*
D03*
X137210Y439420D02*
D03*
X156210D02*
D03*
X291000Y193000D02*
D03*
X310000D02*
D03*
X347000Y193000D02*
D03*
X328000D02*
D03*
X69000Y316000D02*
D03*
X50000D02*
D03*
X156210Y464820D02*
D03*
X137210D02*
D03*
X156210Y414020D02*
D03*
X137210D02*
D03*
X262840Y439420D02*
D03*
X243840D02*
D03*
X137210Y388620D02*
D03*
X156210D02*
D03*
X137210Y363220D02*
D03*
X156210D02*
D03*
X262500Y368000D02*
D03*
X243500D02*
D03*
X244500Y384000D02*
D03*
X263500D02*
D03*
X122500Y321000D02*
D03*
X103500D02*
D03*
D23*
X309500Y213000D02*
D03*
Y237000D02*
D03*
X322000Y213000D02*
D03*
X334500D02*
D03*
X347000D02*
D03*
Y237000D02*
D03*
X334500D02*
D03*
X322000D02*
D03*
D24*
X173000Y439400D02*
D03*
Y426700D02*
D03*
Y414000D02*
D03*
Y401300D02*
D03*
Y388600D02*
D03*
Y375900D02*
D03*
Y363200D02*
D03*
Y350500D02*
D03*
X227500Y439400D02*
D03*
Y426700D02*
D03*
Y414000D02*
D03*
Y401300D02*
D03*
Y388600D02*
D03*
Y375900D02*
D03*
Y363200D02*
D03*
Y350500D02*
D03*
D25*
X344800Y467250D02*
D03*
Y471550D02*
D03*
Y475850D02*
D03*
Y480150D02*
D03*
Y484450D02*
D03*
Y488750D02*
D03*
Y493050D02*
D03*
X369200D02*
D03*
Y488750D02*
D03*
Y484450D02*
D03*
Y480150D02*
D03*
Y475850D02*
D03*
Y471550D02*
D03*
Y467250D02*
D03*
Y462950D02*
D03*
X344800D02*
D03*
D26*
X350550Y492700D02*
D03*
X354850D02*
D03*
X359150D02*
D03*
X363450D02*
D03*
Y463300D02*
D03*
X359150D02*
D03*
X354850D02*
D03*
X350550D02*
D03*
D27*
X72000Y332000D02*
D03*
X50000D02*
D03*
D28*
X505793Y366020D02*
D03*
Y271020D02*
D03*
D29*
X418501Y328520D02*
D03*
Y347520D02*
D03*
X437500Y328520D02*
D03*
Y347520D02*
D03*
X470500Y271020D02*
D03*
Y290020D02*
D03*
X469501Y366020D02*
D03*
Y385020D02*
D03*
X282501Y230520D02*
D03*
Y249520D02*
D03*
X185501Y238520D02*
D03*
Y257520D02*
D03*
X264501Y268520D02*
D03*
Y287520D02*
D03*
X417501Y268520D02*
D03*
Y287520D02*
D03*
X143000Y108500D02*
D03*
Y127500D02*
D03*
X212000Y152000D02*
D03*
Y133000D02*
D03*
X159500Y108562D02*
D03*
Y127563D02*
D03*
X185501Y108562D02*
D03*
Y127563D02*
D03*
X314000Y448000D02*
D03*
Y467000D02*
D03*
Y498000D02*
D03*
Y479000D02*
D03*
X330000Y497000D02*
D03*
Y478000D02*
D03*
Y447000D02*
D03*
Y466000D02*
D03*
X297674Y473500D02*
D03*
Y492500D02*
D03*
X242000Y221500D02*
D03*
Y202500D02*
D03*
X151000Y253500D02*
D03*
Y272500D02*
D03*
X163000D02*
D03*
Y253500D02*
D03*
D30*
X35000Y59000D02*
D03*
X548000Y332000D02*
D03*
X320000Y560000D02*
D03*
M02*
